<svg xmlns="http://www.w3.org/2000/svg" width="103" height="119"><rect x="0" y="0" width="100%" height="100%" fill="rgb(79,54,153)"></rect><polyline points="0,9.930424630061562,5.733333333333333,0,17.2,0,22.933333333333334,9.930424630061562,17.2,19.860849260123125,5.733333333333333,19.860849260123125,0,9.930424630061562" fill="#222" fill-opacity="0.028666666666666667" stroke="#000" stroke-opacity="0.02" transform="translate(-11.466666666666667,-9.930424630061562)"></polyline><polyline points="0,9.930424630061562,5.733333333333333,0,17.2,0,22.933333333333334,9.930424630061562,17.2,19.860849260123125,5.733333333333333,19.860849260123125,0,9.930424630061562" fill="#222" fill-opacity="0.028666666666666667" stroke="#000" stroke-opacity="0.02" transform="translate(91.73333333333332,-9.930424630061562)"></polyline><polyline points="0,9.930424630061562,5.733333333333333,0,17.2,0,22.933333333333334,9.930424630061562,17.2,19.860849260123125,5.733333333333333,19.860849260123125,0,9.930424630061562" fill="#222" fill-opacity="0.028666666666666667" stroke="#000" stroke-opacity="0.02" transform="translate(-11.466666666666667,109.23467093067718)"></polyline><polyline points="0,9.930424630061562,5.733333333333333,0,17.2,0,22.933333333333334,9.930424630061562,17.2,19.860849260123125,5.733333333333333,19.860849260123125,0,9.930424630061562" fill="#222" fill-opacity="0.028666666666666667" stroke="#000" stroke-opacity="0.02" transform="translate(91.73333333333332,109.2346709306772)"></polyline><polyline points="0,9.930424630061562,5.733333333333333,0,17.2,0,22.933333333333334,9.930424630061562,17.2,19.860849260123125,5.733333333333333,19.860849260123125,0,9.930424630061562" fill="#ddd" fill-opacity="0.03733333333333333" stroke="#000" stroke-opacity="0.02" transform="translate(5.7333333333333325,0)"></polyline><polyline points="0,9.930424630061562,5.733333333333333,0,17.2,0,22.933333333333334,9.930424630061562,17.2,19.860849260123125,5.733333333333333,19.860849260123125,0,9.930424630061562" fill="#ddd" fill-opacity="0.03733333333333333" stroke="#000" stroke-opacity="0.02" transform="translate(5.7333333333333325,119.16509556073873)"></polyline><polyline points="0,9.930424630061562,5.733333333333333,0,17.2,0,22.933333333333334,9.930424630061562,17.2,19.860849260123125,5.733333333333333,19.860849260123125,0,9.930424630061562" fill="#222" fill-opacity="0.028666666666666667" stroke="#000" stroke-opacity="0.02" transform="translate(22.93333333333333,-9.930424630061562)"></polyline><polyline points="0,9.930424630061562,5.733333333333333,0,17.2,0,22.933333333333334,9.930424630061562,17.2,19.860849260123125,5.733333333333333,19.860849260123125,0,9.930424630061562" fill="#222" fill-opacity="0.028666666666666667" stroke="#000" stroke-opacity="0.02" transform="translate(22.93333333333333,109.23467093067718)"></polyline><polyline points="0,9.930424630061562,5.733333333333333,0,17.2,0,22.933333333333334,9.930424630061562,17.2,19.860849260123125,5.733333333333333,19.860849260123125,0,9.930424630061562" fill="#222" fill-opacity="0.098" stroke="#000" stroke-opacity="0.02" transform="translate(40.133333333333326,0)"></polyline><polyline points="0,9.930424630061562,5.733333333333333,0,17.2,0,22.933333333333334,9.930424630061562,17.2,19.860849260123125,5.733333333333333,19.860849260123125,0,9.930424630061562" fill="#222" fill-opacity="0.098" stroke="#000" stroke-opacity="0.02" transform="translate(40.133333333333326,119.16509556073873)"></polyline><polyline points="0,9.930424630061562,5.733333333333333,0,17.2,0,22.933333333333334,9.930424630061562,17.2,19.860849260123125,5.733333333333333,19.860849260123125,0,9.930424630061562" fill="#222" fill-opacity="0.06333333333333334" stroke="#000" stroke-opacity="0.02" transform="translate(57.33333333333333,-9.930424630061562)"></polyline><polyline points="0,9.930424630061562,5.733333333333333,0,17.2,0,22.933333333333334,9.930424630061562,17.2,19.860849260123125,5.733333333333333,19.860849260123125,0,9.930424630061562" fill="#222" fill-opacity="0.06333333333333334" stroke="#000" stroke-opacity="0.02" transform="translate(57.33333333333333,109.23467093067718)"></polyline><polyline points="0,9.930424630061562,5.733333333333333,0,17.2,0,22.933333333333334,9.930424630061562,17.2,19.860849260123125,5.733333333333333,19.860849260123125,0,9.930424630061562" fill="#ddd" fill-opacity="0.05466666666666667" stroke="#000" stroke-opacity="0.02" transform="translate(74.53333333333333,0)"></polyline><polyline points="0,9.930424630061562,5.733333333333333,0,17.2,0,22.933333333333334,9.930424630061562,17.2,19.860849260123125,5.733333333333333,19.860849260123125,0,9.930424630061562" fill="#ddd" fill-opacity="0.05466666666666667" stroke="#000" stroke-opacity="0.02" transform="translate(74.53333333333333,119.16509556073873)"></polyline><polyline points="0,9.930424630061562,5.733333333333333,0,17.2,0,22.933333333333334,9.930424630061562,17.2,19.860849260123125,5.733333333333333,19.860849260123125,0,9.930424630061562" fill="#ddd" fill-opacity="0.08933333333333333" stroke="#000" stroke-opacity="0.02" transform="translate(-11.466666666666667,9.930424630061562)"></polyline><polyline points="0,9.930424630061562,5.733333333333333,0,17.2,0,22.933333333333334,9.930424630061562,17.2,19.860849260123125,5.733333333333333,19.860849260123125,0,9.930424630061562" fill="#ddd" fill-opacity="0.08933333333333333" stroke="#000" stroke-opacity="0.02" transform="translate(91.73333333333332,9.930424630061562)"></polyline><polyline points="0,9.930424630061562,5.733333333333333,0,17.2,0,22.933333333333334,9.930424630061562,17.2,19.860849260123125,5.733333333333333,19.860849260123125,0,9.930424630061562" fill="#222" fill-opacity="0.13266666666666665" stroke="#000" stroke-opacity="0.02" transform="translate(5.7333333333333325,19.860849260123125)"></polyline><polyline points="0,9.930424630061562,5.733333333333333,0,17.2,0,22.933333333333334,9.930424630061562,17.2,19.860849260123125,5.733333333333333,19.860849260123125,0,9.930424630061562" fill="#ddd" fill-opacity="0.12400000000000001" stroke="#000" stroke-opacity="0.02" transform="translate(22.93333333333333,9.930424630061562)"></polyline><polyline points="0,9.930424630061562,5.733333333333333,0,17.2,0,22.933333333333334,9.930424630061562,17.2,19.860849260123125,5.733333333333333,19.860849260123125,0,9.930424630061562" fill="#222" fill-opacity="0.046" stroke="#000" stroke-opacity="0.02" transform="translate(40.133333333333326,19.860849260123125)"></polyline><polyline points="0,9.930424630061562,5.733333333333333,0,17.2,0,22.933333333333334,9.930424630061562,17.2,19.860849260123125,5.733333333333333,19.860849260123125,0,9.930424630061562" fill="#222" fill-opacity="0.08066666666666666" stroke="#000" stroke-opacity="0.02" transform="translate(57.33333333333333,9.930424630061562)"></polyline><polyline points="0,9.930424630061562,5.733333333333333,0,17.2,0,22.933333333333334,9.930424630061562,17.2,19.860849260123125,5.733333333333333,19.860849260123125,0,9.930424630061562" fill="#ddd" fill-opacity="0.05466666666666667" stroke="#000" stroke-opacity="0.02" transform="translate(74.53333333333333,19.860849260123125)"></polyline><polyline points="0,9.930424630061562,5.733333333333333,0,17.2,0,22.933333333333334,9.930424630061562,17.2,19.860849260123125,5.733333333333333,19.860849260123125,0,9.930424630061562" fill="#ddd" fill-opacity="0.14133333333333334" stroke="#000" stroke-opacity="0.02" transform="translate(-11.466666666666667,29.791273890184687)"></polyline><polyline points="0,9.930424630061562,5.733333333333333,0,17.2,0,22.933333333333334,9.930424630061562,17.2,19.860849260123125,5.733333333333333,19.860849260123125,0,9.930424630061562" fill="#ddd" fill-opacity="0.14133333333333334" stroke="#000" stroke-opacity="0.02" transform="translate(91.73333333333332,29.791273890184687)"></polyline><polyline points="0,9.930424630061562,5.733333333333333,0,17.2,0,22.933333333333334,9.930424630061562,17.2,19.860849260123125,5.733333333333333,19.860849260123125,0,9.930424630061562" fill="#ddd" fill-opacity="0.14133333333333334" stroke="#000" stroke-opacity="0.02" transform="translate(5.7333333333333325,39.72169852024625)"></polyline><polyline points="0,9.930424630061562,5.733333333333333,0,17.2,0,22.933333333333334,9.930424630061562,17.2,19.860849260123125,5.733333333333333,19.860849260123125,0,9.930424630061562" fill="#ddd" fill-opacity="0.05466666666666667" stroke="#000" stroke-opacity="0.02" transform="translate(22.93333333333333,29.791273890184687)"></polyline><polyline points="0,9.930424630061562,5.733333333333333,0,17.2,0,22.933333333333334,9.930424630061562,17.2,19.860849260123125,5.733333333333333,19.860849260123125,0,9.930424630061562" fill="#ddd" fill-opacity="0.10666666666666667" stroke="#000" stroke-opacity="0.02" transform="translate(40.133333333333326,39.72169852024625)"></polyline><polyline points="0,9.930424630061562,5.733333333333333,0,17.2,0,22.933333333333334,9.930424630061562,17.2,19.860849260123125,5.733333333333333,19.860849260123125,0,9.930424630061562" fill="#222" fill-opacity="0.11533333333333334" stroke="#000" stroke-opacity="0.02" transform="translate(57.33333333333333,29.791273890184687)"></polyline><polyline points="0,9.930424630061562,5.733333333333333,0,17.2,0,22.933333333333334,9.930424630061562,17.2,19.860849260123125,5.733333333333333,19.860849260123125,0,9.930424630061562" fill="#ddd" fill-opacity="0.07200000000000001" stroke="#000" stroke-opacity="0.02" transform="translate(74.53333333333333,39.72169852024625)"></polyline><polyline points="0,9.930424630061562,5.733333333333333,0,17.2,0,22.933333333333334,9.930424630061562,17.2,19.860849260123125,5.733333333333333,19.860849260123125,0,9.930424630061562" fill="#ddd" fill-opacity="0.10666666666666667" stroke="#000" stroke-opacity="0.02" transform="translate(-11.466666666666667,49.652123150307816)"></polyline><polyline points="0,9.930424630061562,5.733333333333333,0,17.2,0,22.933333333333334,9.930424630061562,17.2,19.860849260123125,5.733333333333333,19.860849260123125,0,9.930424630061562" fill="#ddd" fill-opacity="0.10666666666666667" stroke="#000" stroke-opacity="0.02" transform="translate(91.73333333333332,49.652123150307816)"></polyline><polyline points="0,9.930424630061562,5.733333333333333,0,17.2,0,22.933333333333334,9.930424630061562,17.2,19.860849260123125,5.733333333333333,19.860849260123125,0,9.930424630061562" fill="#222" fill-opacity="0.046" stroke="#000" stroke-opacity="0.02" transform="translate(5.7333333333333325,59.58254778036937)"></polyline><polyline points="0,9.930424630061562,5.733333333333333,0,17.2,0,22.933333333333334,9.930424630061562,17.2,19.860849260123125,5.733333333333333,19.860849260123125,0,9.930424630061562" fill="#222" fill-opacity="0.06333333333333334" stroke="#000" stroke-opacity="0.02" transform="translate(22.93333333333333,49.652123150307816)"></polyline><polyline points="0,9.930424630061562,5.733333333333333,0,17.2,0,22.933333333333334,9.930424630061562,17.2,19.860849260123125,5.733333333333333,19.860849260123125,0,9.930424630061562" fill="#ddd" fill-opacity="0.14133333333333334" stroke="#000" stroke-opacity="0.02" transform="translate(40.133333333333326,59.58254778036937)"></polyline><polyline points="0,9.930424630061562,5.733333333333333,0,17.2,0,22.933333333333334,9.930424630061562,17.2,19.860849260123125,5.733333333333333,19.860849260123125,0,9.930424630061562" fill="#222" fill-opacity="0.11533333333333334" stroke="#000" stroke-opacity="0.02" transform="translate(57.33333333333333,49.652123150307816)"></polyline><polyline points="0,9.930424630061562,5.733333333333333,0,17.2,0,22.933333333333334,9.930424630061562,17.2,19.860849260123125,5.733333333333333,19.860849260123125,0,9.930424630061562" fill="#ddd" fill-opacity="0.05466666666666667" stroke="#000" stroke-opacity="0.02" transform="translate(74.53333333333333,59.58254778036937)"></polyline><polyline points="0,9.930424630061562,5.733333333333333,0,17.2,0,22.933333333333334,9.930424630061562,17.2,19.860849260123125,5.733333333333333,19.860849260123125,0,9.930424630061562" fill="#222" fill-opacity="0.06333333333333334" stroke="#000" stroke-opacity="0.02" transform="translate(-11.466666666666667,69.51297241043093)"></polyline><polyline points="0,9.930424630061562,5.733333333333333,0,17.2,0,22.933333333333334,9.930424630061562,17.2,19.860849260123125,5.733333333333333,19.860849260123125,0,9.930424630061562" fill="#222" fill-opacity="0.06333333333333334" stroke="#000" stroke-opacity="0.02" transform="translate(91.73333333333332,69.51297241043093)"></polyline><polyline points="0,9.930424630061562,5.733333333333333,0,17.2,0,22.933333333333334,9.930424630061562,17.2,19.860849260123125,5.733333333333333,19.860849260123125,0,9.930424630061562" fill="#222" fill-opacity="0.06333333333333334" stroke="#000" stroke-opacity="0.02" transform="translate(5.7333333333333325,79.4433970404925)"></polyline><polyline points="0,9.930424630061562,5.733333333333333,0,17.2,0,22.933333333333334,9.930424630061562,17.2,19.860849260123125,5.733333333333333,19.860849260123125,0,9.930424630061562" fill="#ddd" fill-opacity="0.03733333333333333" stroke="#000" stroke-opacity="0.02" transform="translate(22.93333333333333,69.51297241043093)"></polyline><polyline points="0,9.930424630061562,5.733333333333333,0,17.2,0,22.933333333333334,9.930424630061562,17.2,19.860849260123125,5.733333333333333,19.860849260123125,0,9.930424630061562" fill="#222" fill-opacity="0.028666666666666667" stroke="#000" stroke-opacity="0.02" transform="translate(40.133333333333326,79.4433970404925)"></polyline><polyline points="0,9.930424630061562,5.733333333333333,0,17.2,0,22.933333333333334,9.930424630061562,17.2,19.860849260123125,5.733333333333333,19.860849260123125,0,9.930424630061562" fill="#ddd" fill-opacity="0.10666666666666667" stroke="#000" stroke-opacity="0.02" transform="translate(57.33333333333333,69.51297241043093)"></polyline><polyline points="0,9.930424630061562,5.733333333333333,0,17.2,0,22.933333333333334,9.930424630061562,17.2,19.860849260123125,5.733333333333333,19.860849260123125,0,9.930424630061562" fill="#ddd" fill-opacity="0.08933333333333333" stroke="#000" stroke-opacity="0.02" transform="translate(74.53333333333333,79.4433970404925)"></polyline><polyline points="0,9.930424630061562,5.733333333333333,0,17.2,0,22.933333333333334,9.930424630061562,17.2,19.860849260123125,5.733333333333333,19.860849260123125,0,9.930424630061562" fill="#222" fill-opacity="0.098" stroke="#000" stroke-opacity="0.02" transform="translate(-11.466666666666667,89.37382167055407)"></polyline><polyline points="0,9.930424630061562,5.733333333333333,0,17.2,0,22.933333333333334,9.930424630061562,17.2,19.860849260123125,5.733333333333333,19.860849260123125,0,9.930424630061562" fill="#222" fill-opacity="0.098" stroke="#000" stroke-opacity="0.02" transform="translate(91.73333333333332,89.37382167055407)"></polyline><polyline points="0,9.930424630061562,5.733333333333333,0,17.2,0,22.933333333333334,9.930424630061562,17.2,19.860849260123125,5.733333333333333,19.860849260123125,0,9.930424630061562" fill="#ddd" fill-opacity="0.08933333333333333" stroke="#000" stroke-opacity="0.02" transform="translate(5.7333333333333325,99.30424630061563)"></polyline><polyline points="0,9.930424630061562,5.733333333333333,0,17.2,0,22.933333333333334,9.930424630061562,17.2,19.860849260123125,5.733333333333333,19.860849260123125,0,9.930424630061562" fill="#ddd" fill-opacity="0.03733333333333333" stroke="#000" stroke-opacity="0.02" transform="translate(22.93333333333333,89.37382167055407)"></polyline><polyline points="0,9.930424630061562,5.733333333333333,0,17.2,0,22.933333333333334,9.930424630061562,17.2,19.860849260123125,5.733333333333333,19.860849260123125,0,9.930424630061562" fill="#ddd" fill-opacity="0.10666666666666667" stroke="#000" stroke-opacity="0.02" transform="translate(40.133333333333326,99.30424630061563)"></polyline><polyline points="0,9.930424630061562,5.733333333333333,0,17.2,0,22.933333333333334,9.930424630061562,17.2,19.860849260123125,5.733333333333333,19.860849260123125,0,9.930424630061562" fill="#ddd" fill-opacity="0.02" stroke="#000" stroke-opacity="0.02" transform="translate(57.33333333333333,89.37382167055407)"></polyline><polyline points="0,9.930424630061562,5.733333333333333,0,17.2,0,22.933333333333334,9.930424630061562,17.2,19.860849260123125,5.733333333333333,19.860849260123125,0,9.930424630061562" fill="#222" fill-opacity="0.06333333333333334" stroke="#000" stroke-opacity="0.02" transform="translate(74.53333333333333,99.30424630061563)"></polyline></svg>