<svg xmlns="http://www.w3.org/2000/svg" width="110" height="110"><rect x="0" y="0" width="100%" height="100%" fill="rgb(67,97,140)"></rect><circle cx="0" cy="0" r="18.333333333333332" fill="#222" opacity="0.028666666666666667"></circle><circle cx="110" cy="0" r="18.333333333333332" fill="#222" opacity="0.028666666666666667"></circle><circle cx="0" cy="110" r="18.333333333333332" fill="#222" opacity="0.028666666666666667"></circle><circle cx="110" cy="110" r="18.333333333333332" fill="#222" opacity="0.028666666666666667"></circle><circle cx="18.333333333333332" cy="0" r="18.333333333333332" fill="#222" opacity="0.06333333333333334"></circle><circle cx="18.333333333333332" cy="110" r="18.333333333333332" fill="#222" opacity="0.06333333333333334"></circle><circle cx="36.666666666666664" cy="0" r="18.333333333333332" fill="#222" opacity="0.06333333333333334"></circle><circle cx="36.666666666666664" cy="110" r="18.333333333333332" fill="#222" opacity="0.06333333333333334"></circle><circle cx="55" cy="0" r="18.333333333333332" fill="#ddd" opacity="0.02"></circle><circle cx="55" cy="110" r="18.333333333333332" fill="#ddd" opacity="0.02"></circle><circle cx="73.33333333333333" cy="0" r="18.333333333333332" fill="#222" opacity="0.046"></circle><circle cx="73.33333333333333" cy="110" r="18.333333333333332" fill="#222" opacity="0.046"></circle><circle cx="91.66666666666666" cy="0" r="18.333333333333332" fill="#ddd" opacity="0.03733333333333333"></circle><circle cx="91.66666666666666" cy="110" r="18.333333333333332" fill="#ddd" opacity="0.03733333333333333"></circle><circle cx="0" cy="18.333333333333332" r="18.333333333333332" fill="#ddd" opacity="0.10666666666666667"></circle><circle cx="110" cy="18.333333333333332" r="18.333333333333332" fill="#ddd" opacity="0.10666666666666667"></circle><circle cx="18.333333333333332" cy="18.333333333333332" r="18.333333333333332" fill="#222" opacity="0.13266666666666665"></circle><circle cx="36.666666666666664" cy="18.333333333333332" r="18.333333333333332" fill="#222" opacity="0.15"></circle><circle cx="55" cy="18.333333333333332" r="18.333333333333332" fill="#222" opacity="0.06333333333333334"></circle><circle cx="73.33333333333333" cy="18.333333333333332" r="18.333333333333332" fill="#ddd" opacity="0.12400000000000001"></circle><circle cx="91.66666666666666" cy="18.333333333333332" r="18.333333333333332" fill="#ddd" opacity="0.14133333333333334"></circle><circle cx="0" cy="36.666666666666664" r="18.333333333333332" fill="#222" opacity="0.06333333333333334"></circle><circle cx="110" cy="36.666666666666664" r="18.333333333333332" fill="#222" opacity="0.06333333333333334"></circle><circle cx="18.333333333333332" cy="36.666666666666664" r="18.333333333333332" fill="#ddd" opacity="0.12400000000000001"></circle><circle cx="36.666666666666664" cy="36.666666666666664" r="18.333333333333332" fill="#ddd" opacity="0.07200000000000001"></circle><circle cx="55" cy="36.666666666666664" r="18.333333333333332" fill="#ddd" opacity="0.07200000000000001"></circle><circle cx="73.33333333333333" cy="36.666666666666664" r="18.333333333333332" fill="#ddd" opacity="0.14133333333333334"></circle><circle cx="91.66666666666666" cy="36.666666666666664" r="18.333333333333332" fill="#222" opacity="0.08066666666666666"></circle><circle cx="0" cy="55" r="18.333333333333332" fill="#222" opacity="0.13266666666666665"></circle><circle cx="110" cy="55" r="18.333333333333332" fill="#222" opacity="0.13266666666666665"></circle><circle cx="18.333333333333332" cy="55" r="18.333333333333332" fill="#222" opacity="0.028666666666666667"></circle><circle cx="36.666666666666664" cy="55" r="18.333333333333332" fill="#222" opacity="0.028666666666666667"></circle><circle cx="55" cy="55" r="18.333333333333332" fill="#ddd" opacity="0.14133333333333334"></circle><circle cx="73.33333333333333" cy="55" r="18.333333333333332" fill="#ddd" opacity="0.07200000000000001"></circle><circle cx="91.66666666666666" cy="55" r="18.333333333333332" fill="#ddd" opacity="0.07200000000000001"></circle><circle cx="0" cy="73.33333333333333" r="18.333333333333332" fill="#222" opacity="0.08066666666666666"></circle><circle cx="110" cy="73.33333333333333" r="18.333333333333332" fill="#222" opacity="0.08066666666666666"></circle><circle cx="18.333333333333332" cy="73.33333333333333" r="18.333333333333332" fill="#ddd" opacity="0.07200000000000001"></circle><circle cx="36.666666666666664" cy="73.33333333333333" r="18.333333333333332" fill="#222" opacity="0.098"></circle><circle cx="55" cy="73.33333333333333" r="18.333333333333332" fill="#222" opacity="0.046"></circle><circle cx="73.33333333333333" cy="73.33333333333333" r="18.333333333333332" fill="#ddd" opacity="0.10666666666666667"></circle><circle cx="91.66666666666666" cy="73.33333333333333" r="18.333333333333332" fill="#222" opacity="0.13266666666666665"></circle><circle cx="0" cy="91.66666666666666" r="18.333333333333332" fill="#ddd" opacity="0.08933333333333333"></circle><circle cx="110" cy="91.66666666666666" r="18.333333333333332" fill="#ddd" opacity="0.08933333333333333"></circle><circle cx="18.333333333333332" cy="91.66666666666666" r="18.333333333333332" fill="#ddd" opacity="0.03733333333333333"></circle><circle cx="36.666666666666664" cy="91.66666666666666" r="18.333333333333332" fill="#ddd" opacity="0.02"></circle><circle cx="55" cy="91.66666666666666" r="18.333333333333332" fill="#ddd" opacity="0.14133333333333334"></circle><circle cx="73.33333333333333" cy="91.66666666666666" r="18.333333333333332" fill="#ddd" opacity="0.05466666666666667"></circle><circle cx="91.66666666666666" cy="91.66666666666666" r="18.333333333333332" fill="#222" opacity="0.028666666666666667"></circle></svg>