<svg xmlns="http://www.w3.org/2000/svg" width="415" height="415"><rect x="0" y="0" width="100%" height="100%" fill="rgb(153,54,70)"></rect><rect x="0" y="5" width="100%" height="5" opacity="0.02" fill="#ddd"></rect><rect x="0" y="27" width="100%" height="5" opacity="0.02" fill="#ddd"></rect><rect x="0" y="37" width="100%" height="13" opacity="0.08933333333333333" fill="#ddd"></rect><rect x="0" y="61" width="100%" height="16" opacity="0.11533333333333334" fill="#222"></rect><rect x="0" y="90" width="100%" height="19" opacity="0.14133333333333334" fill="#ddd"></rect><rect x="0" y="123" width="100%" height="19" opacity="0.14133333333333334" fill="#ddd"></rect><rect x="0" y="159" width="100%" height="18" opacity="0.13266666666666665" fill="#222"></rect><rect x="0" y="182" width="100%" height="12" opacity="0.08066666666666666" fill="#222"></rect><rect x="0" y="201" width="100%" height="11" opacity="0.07200000000000001" fill="#ddd"></rect><rect x="0" y="230" width="100%" height="12" opacity="0.08066666666666666" fill="#222"></rect><rect x="0" y="254" width="100%" height="10" opacity="0.06333333333333334" fill="#222"></rect><rect x="0" y="274" width="100%" height="5" opacity="0.02" fill="#ddd"></rect><rect x="0" y="299" width="100%" height="8" opacity="0.046" fill="#222"></rect><rect x="0" y="314" width="100%" height="10" opacity="0.06333333333333334" fill="#222"></rect><rect x="0" y="332" width="100%" height="10" opacity="0.06333333333333334" fill="#222"></rect><rect x="0" y="352" width="100%" height="11" opacity="0.07200000000000001" fill="#ddd"></rect><rect x="0" y="372" width="100%" height="9" opacity="0.05466666666666667" fill="#ddd"></rect><rect x="0" y="396" width="100%" height="19" opacity="0.14133333333333334" fill="#ddd"></rect><rect x="5" y="0" width="5" height="100%" opacity="0.02" fill="#ddd"></rect><rect x="27" y="0" width="5" height="100%" opacity="0.02" fill="#ddd"></rect><rect x="37" y="0" width="13" height="100%" opacity="0.08933333333333333" fill="#ddd"></rect><rect x="61" y="0" width="16" height="100%" opacity="0.11533333333333334" fill="#222"></rect><rect x="90" y="0" width="19" height="100%" opacity="0.14133333333333334" fill="#ddd"></rect><rect x="123" y="0" width="19" height="100%" opacity="0.14133333333333334" fill="#ddd"></rect><rect x="159" y="0" width="18" height="100%" opacity="0.13266666666666665" fill="#222"></rect><rect x="182" y="0" width="12" height="100%" opacity="0.08066666666666666" fill="#222"></rect><rect x="201" y="0" width="11" height="100%" opacity="0.07200000000000001" fill="#ddd"></rect><rect x="230" y="0" width="12" height="100%" opacity="0.08066666666666666" fill="#222"></rect><rect x="254" y="0" width="10" height="100%" opacity="0.06333333333333334" fill="#222"></rect><rect x="274" y="0" width="5" height="100%" opacity="0.02" fill="#ddd"></rect><rect x="299" y="0" width="8" height="100%" opacity="0.046" fill="#222"></rect><rect x="314" y="0" width="10" height="100%" opacity="0.06333333333333334" fill="#222"></rect><rect x="332" y="0" width="10" height="100%" opacity="0.06333333333333334" fill="#222"></rect><rect x="352" y="0" width="11" height="100%" opacity="0.07200000000000001" fill="#ddd"></rect><rect x="372" y="0" width="9" height="100%" opacity="0.05466666666666667" fill="#ddd"></rect><rect x="396" y="0" width="19" height="100%" opacity="0.14133333333333334" fill="#ddd"></rect></svg>