<svg xmlns="http://www.w3.org/2000/svg" width="441" height="441"><rect x="0" y="0" width="100%" height="100%" fill="rgb(147,60,111)"></rect><rect x="0" y="12" width="100%" height="12" opacity="0.08066666666666666" fill="#222"></rect><rect x="0" y="42" width="100%" height="6" opacity="0.028666666666666667" fill="#222"></rect><rect x="0" y="56" width="100%" height="18" opacity="0.13266666666666665" fill="#222"></rect><rect x="0" y="89" width="100%" height="20" opacity="0.15" fill="#222"></rect><rect x="0" y="124" width="100%" height="10" opacity="0.06333333333333334" fill="#222"></rect><rect x="0" y="139" width="100%" height="15" opacity="0.10666666666666667" fill="#ddd"></rect><rect x="0" y="166" width="100%" height="10" opacity="0.06333333333333334" fill="#222"></rect><rect x="0" y="182" width="100%" height="14" opacity="0.098" fill="#222"></rect><rect x="0" y="206" width="100%" height="5" opacity="0.02" fill="#ddd"></rect><rect x="0" y="216" width="100%" height="18" opacity="0.13266666666666665" fill="#222"></rect><rect x="0" y="246" width="100%" height="18" opacity="0.13266666666666665" fill="#222"></rect><rect x="0" y="279" width="100%" height="8" opacity="0.046" fill="#222"></rect><rect x="0" y="305" width="100%" height="12" opacity="0.08066666666666666" fill="#222"></rect><rect x="0" y="329" width="100%" height="10" opacity="0.06333333333333334" fill="#222"></rect><rect x="0" y="348" width="100%" height="14" opacity="0.098" fill="#222"></rect><rect x="0" y="372" width="100%" height="6" opacity="0.028666666666666667" fill="#222"></rect><rect x="0" y="397" width="100%" height="9" opacity="0.05466666666666667" fill="#ddd"></rect><rect x="0" y="426" width="100%" height="15" opacity="0.10666666666666667" fill="#ddd"></rect><rect x="12" y="0" width="12" height="100%" opacity="0.08066666666666666" fill="#222"></rect><rect x="42" y="0" width="6" height="100%" opacity="0.028666666666666667" fill="#222"></rect><rect x="56" y="0" width="18" height="100%" opacity="0.13266666666666665" fill="#222"></rect><rect x="89" y="0" width="20" height="100%" opacity="0.15" fill="#222"></rect><rect x="124" y="0" width="10" height="100%" opacity="0.06333333333333334" fill="#222"></rect><rect x="139" y="0" width="15" height="100%" opacity="0.10666666666666667" fill="#ddd"></rect><rect x="166" y="0" width="10" height="100%" opacity="0.06333333333333334" fill="#222"></rect><rect x="182" y="0" width="14" height="100%" opacity="0.098" fill="#222"></rect><rect x="206" y="0" width="5" height="100%" opacity="0.02" fill="#ddd"></rect><rect x="216" y="0" width="18" height="100%" opacity="0.13266666666666665" fill="#222"></rect><rect x="246" y="0" width="18" height="100%" opacity="0.13266666666666665" fill="#222"></rect><rect x="279" y="0" width="8" height="100%" opacity="0.046" fill="#222"></rect><rect x="305" y="0" width="12" height="100%" opacity="0.08066666666666666" fill="#222"></rect><rect x="329" y="0" width="10" height="100%" opacity="0.06333333333333334" fill="#222"></rect><rect x="348" y="0" width="14" height="100%" opacity="0.098" fill="#222"></rect><rect x="372" y="0" width="6" height="100%" opacity="0.028666666666666667" fill="#222"></rect><rect x="397" y="0" width="9" height="100%" opacity="0.05466666666666667" fill="#ddd"></rect><rect x="426" y="0" width="15" height="100%" opacity="0.10666666666666667" fill="#ddd"></rect></svg>