<svg xmlns="http://www.w3.org/2000/svg" width="240" height="1008"><rect x="0" y="0" width="100%" height="100%" fill="rgb(54,46,161)"></rect><path d="M0 76 C 42 0, 78 0, 120 76 S 198 152, 240 76 S 318 0, 360, 76" fill="none" stroke="#222" opacity="0.08066666666666666" stroke-width="28px" transform="translate(-60,-114)"></path><path d="M0 76 C 42 0, 78 0, 120 76 S 198 152, 240 76 S 318 0, 360, 76" fill="none" stroke="#222" opacity="0.08066666666666666" stroke-width="28px" transform="translate(-60,894)"></path><path d="M0 76 C 42 0, 78 0, 120 76 S 198 152, 240 76 S 318 0, 360, 76" fill="none" stroke="#ddd" opacity="0.10666666666666667" stroke-width="28px" transform="translate(-60,-86)"></path><path d="M0 76 C 42 0, 78 0, 120 76 S 198 152, 240 76 S 318 0, 360, 76" fill="none" stroke="#ddd" opacity="0.10666666666666667" stroke-width="28px" transform="translate(-60,922)"></path><path d="M0 76 C 42 0, 78 0, 120 76 S 198 152, 240 76 S 318 0, 360, 76" fill="none" stroke="#ddd" opacity="0.14133333333333334" stroke-width="28px" transform="translate(-60,-58)"></path><path d="M0 76 C 42 0, 78 0, 120 76 S 198 152, 240 76 S 318 0, 360, 76" fill="none" stroke="#ddd" opacity="0.14133333333333334" stroke-width="28px" transform="translate(-60,950)"></path><path d="M0 76 C 42 0, 78 0, 120 76 S 198 152, 240 76 S 318 0, 360, 76" fill="none" stroke="#ddd" opacity="0.10666666666666667" stroke-width="28px" transform="translate(-60,-30)"></path><path d="M0 76 C 42 0, 78 0, 120 76 S 198 152, 240 76 S 318 0, 360, 76" fill="none" stroke="#ddd" opacity="0.10666666666666667" stroke-width="28px" transform="translate(-60,978)"></path><path d="M0 76 C 42 0, 78 0, 120 76 S 198 152, 240 76 S 318 0, 360, 76" fill="none" stroke="#ddd" opacity="0.07200000000000001" stroke-width="28px" transform="translate(-60,-2)"></path><path d="M0 76 C 42 0, 78 0, 120 76 S 198 152, 240 76 S 318 0, 360, 76" fill="none" stroke="#ddd" opacity="0.07200000000000001" stroke-width="28px" transform="translate(-60,1006)"></path><path d="M0 76 C 42 0, 78 0, 120 76 S 198 152, 240 76 S 318 0, 360, 76" fill="none" stroke="#222" opacity="0.046" stroke-width="28px" transform="translate(-60,26)"></path><path d="M0 76 C 42 0, 78 0, 120 76 S 198 152, 240 76 S 318 0, 360, 76" fill="none" stroke="#222" opacity="0.046" stroke-width="28px" transform="translate(-60,1034)"></path><path d="M0 76 C 42 0, 78 0, 120 76 S 198 152, 240 76 S 318 0, 360, 76" fill="none" stroke="#ddd" opacity="0.05466666666666667" stroke-width="28px" transform="translate(-60,54)"></path><path d="M0 76 C 42 0, 78 0, 120 76 S 198 152, 240 76 S 318 0, 360, 76" fill="none" stroke="#ddd" opacity="0.05466666666666667" stroke-width="28px" transform="translate(-60,1062)"></path><path d="M0 76 C 42 0, 78 0, 120 76 S 198 152, 240 76 S 318 0, 360, 76" fill="none" stroke="#ddd" opacity="0.07200000000000001" stroke-width="28px" transform="translate(-60,82)"></path><path d="M0 76 C 42 0, 78 0, 120 76 S 198 152, 240 76 S 318 0, 360, 76" fill="none" stroke="#ddd" opacity="0.07200000000000001" stroke-width="28px" transform="translate(-60,1090)"></path><path d="M0 76 C 42 0, 78 0, 120 76 S 198 152, 240 76 S 318 0, 360, 76" fill="none" stroke="#ddd" opacity="0.12400000000000001" stroke-width="28px" transform="translate(-60,110)"></path><path d="M0 76 C 42 0, 78 0, 120 76 S 198 152, 240 76 S 318 0, 360, 76" fill="none" stroke="#ddd" opacity="0.12400000000000001" stroke-width="28px" transform="translate(-60,1118)"></path><path d="M0 76 C 42 0, 78 0, 120 76 S 198 152, 240 76 S 318 0, 360, 76" fill="none" stroke="#222" opacity="0.08066666666666666" stroke-width="28px" transform="translate(-60,138)"></path><path d="M0 76 C 42 0, 78 0, 120 76 S 198 152, 240 76 S 318 0, 360, 76" fill="none" stroke="#222" opacity="0.08066666666666666" stroke-width="28px" transform="translate(-60,1146)"></path><path d="M0 76 C 42 0, 78 0, 120 76 S 198 152, 240 76 S 318 0, 360, 76" fill="none" stroke="#222" opacity="0.13266666666666665" stroke-width="28px" transform="translate(-60,166)"></path><path d="M0 76 C 42 0, 78 0, 120 76 S 198 152, 240 76 S 318 0, 360, 76" fill="none" stroke="#222" opacity="0.13266666666666665" stroke-width="28px" transform="translate(-60,1174)"></path><path d="M0 76 C 42 0, 78 0, 120 76 S 198 152, 240 76 S 318 0, 360, 76" fill="none" stroke="#222" opacity="0.046" stroke-width="28px" transform="translate(-60,194)"></path><path d="M0 76 C 42 0, 78 0, 120 76 S 198 152, 240 76 S 318 0, 360, 76" fill="none" stroke="#222" opacity="0.046" stroke-width="28px" transform="translate(-60,1202)"></path><path d="M0 76 C 42 0, 78 0, 120 76 S 198 152, 240 76 S 318 0, 360, 76" fill="none" stroke="#ddd" opacity="0.03733333333333333" stroke-width="28px" transform="translate(-60,222)"></path><path d="M0 76 C 42 0, 78 0, 120 76 S 198 152, 240 76 S 318 0, 360, 76" fill="none" stroke="#ddd" opacity="0.03733333333333333" stroke-width="28px" transform="translate(-60,1230)"></path><path d="M0 76 C 42 0, 78 0, 120 76 S 198 152, 240 76 S 318 0, 360, 76" fill="none" stroke="#222" opacity="0.028666666666666667" stroke-width="28px" transform="translate(-60,250)"></path><path d="M0 76 C 42 0, 78 0, 120 76 S 198 152, 240 76 S 318 0, 360, 76" fill="none" stroke="#222" opacity="0.028666666666666667" stroke-width="28px" transform="translate(-60,1258)"></path><path d="M0 76 C 42 0, 78 0, 120 76 S 198 152, 240 76 S 318 0, 360, 76" fill="none" stroke="#222" opacity="0.06333333333333334" stroke-width="28px" transform="translate(-60,278)"></path><path d="M0 76 C 42 0, 78 0, 120 76 S 198 152, 240 76 S 318 0, 360, 76" fill="none" stroke="#222" opacity="0.06333333333333334" stroke-width="28px" transform="translate(-60,1286)"></path><path d="M0 76 C 42 0, 78 0, 120 76 S 198 152, 240 76 S 318 0, 360, 76" fill="none" stroke="#ddd" opacity="0.03733333333333333" stroke-width="28px" transform="translate(-60,306)"></path><path d="M0 76 C 42 0, 78 0, 120 76 S 198 152, 240 76 S 318 0, 360, 76" fill="none" stroke="#ddd" opacity="0.03733333333333333" stroke-width="28px" transform="translate(-60,1314)"></path><path d="M0 76 C 42 0, 78 0, 120 76 S 198 152, 240 76 S 318 0, 360, 76" fill="none" stroke="#222" opacity="0.098" stroke-width="28px" transform="translate(-60,334)"></path><path d="M0 76 C 42 0, 78 0, 120 76 S 198 152, 240 76 S 318 0, 360, 76" fill="none" stroke="#222" opacity="0.098" stroke-width="28px" transform="translate(-60,1342)"></path><path d="M0 76 C 42 0, 78 0, 120 76 S 198 152, 240 76 S 318 0, 360, 76" fill="none" stroke="#ddd" opacity="0.14133333333333334" stroke-width="28px" transform="translate(-60,362)"></path><path d="M0 76 C 42 0, 78 0, 120 76 S 198 152, 240 76 S 318 0, 360, 76" fill="none" stroke="#ddd" opacity="0.14133333333333334" stroke-width="28px" transform="translate(-60,1370)"></path><path d="M0 76 C 42 0, 78 0, 120 76 S 198 152, 240 76 S 318 0, 360, 76" fill="none" stroke="#ddd" opacity="0.05466666666666667" stroke-width="28px" transform="translate(-60,390)"></path><path d="M0 76 C 42 0, 78 0, 120 76 S 198 152, 240 76 S 318 0, 360, 76" fill="none" stroke="#ddd" opacity="0.05466666666666667" stroke-width="28px" transform="translate(-60,1398)"></path><path d="M0 76 C 42 0, 78 0, 120 76 S 198 152, 240 76 S 318 0, 360, 76" fill="none" stroke="#222" opacity="0.098" stroke-width="28px" transform="translate(-60,418)"></path><path d="M0 76 C 42 0, 78 0, 120 76 S 198 152, 240 76 S 318 0, 360, 76" fill="none" stroke="#222" opacity="0.098" stroke-width="28px" transform="translate(-60,1426)"></path><path d="M0 76 C 42 0, 78 0, 120 76 S 198 152, 240 76 S 318 0, 360, 76" fill="none" stroke="#ddd" opacity="0.05466666666666667" stroke-width="28px" transform="translate(-60,446)"></path><path d="M0 76 C 42 0, 78 0, 120 76 S 198 152, 240 76 S 318 0, 360, 76" fill="none" stroke="#ddd" opacity="0.05466666666666667" stroke-width="28px" transform="translate(-60,1454)"></path><path d="M0 76 C 42 0, 78 0, 120 76 S 198 152, 240 76 S 318 0, 360, 76" fill="none" stroke="#ddd" opacity="0.08933333333333333" stroke-width="28px" transform="translate(-60,474)"></path><path d="M0 76 C 42 0, 78 0, 120 76 S 198 152, 240 76 S 318 0, 360, 76" fill="none" stroke="#ddd" opacity="0.08933333333333333" stroke-width="28px" transform="translate(-60,1482)"></path><path d="M0 76 C 42 0, 78 0, 120 76 S 198 152, 240 76 S 318 0, 360, 76" fill="none" stroke="#222" opacity="0.13266666666666665" stroke-width="28px" transform="translate(-60,502)"></path><path d="M0 76 C 42 0, 78 0, 120 76 S 198 152, 240 76 S 318 0, 360, 76" fill="none" stroke="#222" opacity="0.13266666666666665" stroke-width="28px" transform="translate(-60,1510)"></path><path d="M0 76 C 42 0, 78 0, 120 76 S 198 152, 240 76 S 318 0, 360, 76" fill="none" stroke="#222" opacity="0.046" stroke-width="28px" transform="translate(-60,530)"></path><path d="M0 76 C 42 0, 78 0, 120 76 S 198 152, 240 76 S 318 0, 360, 76" fill="none" stroke="#222" opacity="0.046" stroke-width="28px" transform="translate(-60,1538)"></path><path d="M0 76 C 42 0, 78 0, 120 76 S 198 152, 240 76 S 318 0, 360, 76" fill="none" stroke="#ddd" opacity="0.08933333333333333" stroke-width="28px" transform="translate(-60,558)"></path><path d="M0 76 C 42 0, 78 0, 120 76 S 198 152, 240 76 S 318 0, 360, 76" fill="none" stroke="#ddd" opacity="0.08933333333333333" stroke-width="28px" transform="translate(-60,1566)"></path><path d="M0 76 C 42 0, 78 0, 120 76 S 198 152, 240 76 S 318 0, 360, 76" fill="none" stroke="#ddd" opacity="0.07200000000000001" stroke-width="28px" transform="translate(-60,586)"></path><path d="M0 76 C 42 0, 78 0, 120 76 S 198 152, 240 76 S 318 0, 360, 76" fill="none" stroke="#ddd" opacity="0.07200000000000001" stroke-width="28px" transform="translate(-60,1594)"></path><path d="M0 76 C 42 0, 78 0, 120 76 S 198 152, 240 76 S 318 0, 360, 76" fill="none" stroke="#222" opacity="0.098" stroke-width="28px" transform="translate(-60,614)"></path><path d="M0 76 C 42 0, 78 0, 120 76 S 198 152, 240 76 S 318 0, 360, 76" fill="none" stroke="#222" opacity="0.098" stroke-width="28px" transform="translate(-60,1622)"></path><path d="M0 76 C 42 0, 78 0, 120 76 S 198 152, 240 76 S 318 0, 360, 76" fill="none" stroke="#222" opacity="0.15" stroke-width="28px" transform="translate(-60,642)"></path><path d="M0 76 C 42 0, 78 0, 120 76 S 198 152, 240 76 S 318 0, 360, 76" fill="none" stroke="#222" opacity="0.15" stroke-width="28px" transform="translate(-60,1650)"></path><path d="M0 76 C 42 0, 78 0, 120 76 S 198 152, 240 76 S 318 0, 360, 76" fill="none" stroke="#222" opacity="0.13266666666666665" stroke-width="28px" transform="translate(-60,670)"></path><path d="M0 76 C 42 0, 78 0, 120 76 S 198 152, 240 76 S 318 0, 360, 76" fill="none" stroke="#222" opacity="0.13266666666666665" stroke-width="28px" transform="translate(-60,1678)"></path><path d="M0 76 C 42 0, 78 0, 120 76 S 198 152, 240 76 S 318 0, 360, 76" fill="none" stroke="#ddd" opacity="0.14133333333333334" stroke-width="28px" transform="translate(-60,698)"></path><path d="M0 76 C 42 0, 78 0, 120 76 S 198 152, 240 76 S 318 0, 360, 76" fill="none" stroke="#ddd" opacity="0.14133333333333334" stroke-width="28px" transform="translate(-60,1706)"></path><path d="M0 76 C 42 0, 78 0, 120 76 S 198 152, 240 76 S 318 0, 360, 76" fill="none" stroke="#ddd" opacity="0.10666666666666667" stroke-width="28px" transform="translate(-60,726)"></path><path d="M0 76 C 42 0, 78 0, 120 76 S 198 152, 240 76 S 318 0, 360, 76" fill="none" stroke="#ddd" opacity="0.10666666666666667" stroke-width="28px" transform="translate(-60,1734)"></path><path d="M0 76 C 42 0, 78 0, 120 76 S 198 152, 240 76 S 318 0, 360, 76" fill="none" stroke="#ddd" opacity="0.07200000000000001" stroke-width="28px" transform="translate(-60,754)"></path><path d="M0 76 C 42 0, 78 0, 120 76 S 198 152, 240 76 S 318 0, 360, 76" fill="none" stroke="#ddd" opacity="0.07200000000000001" stroke-width="28px" transform="translate(-60,1762)"></path><path d="M0 76 C 42 0, 78 0, 120 76 S 198 152, 240 76 S 318 0, 360, 76" fill="none" stroke="#ddd" opacity="0.14133333333333334" stroke-width="28px" transform="translate(-60,782)"></path><path d="M0 76 C 42 0, 78 0, 120 76 S 198 152, 240 76 S 318 0, 360, 76" fill="none" stroke="#ddd" opacity="0.14133333333333334" stroke-width="28px" transform="translate(-60,1790)"></path><path d="M0 76 C 42 0, 78 0, 120 76 S 198 152, 240 76 S 318 0, 360, 76" fill="none" stroke="#222" opacity="0.13266666666666665" stroke-width="28px" transform="translate(-60,810)"></path><path d="M0 76 C 42 0, 78 0, 120 76 S 198 152, 240 76 S 318 0, 360, 76" fill="none" stroke="#222" opacity="0.13266666666666665" stroke-width="28px" transform="translate(-60,1818)"></path><path d="M0 76 C 42 0, 78 0, 120 76 S 198 152, 240 76 S 318 0, 360, 76" fill="none" stroke="#222" opacity="0.06333333333333334" stroke-width="28px" transform="translate(-60,838)"></path><path d="M0 76 C 42 0, 78 0, 120 76 S 198 152, 240 76 S 318 0, 360, 76" fill="none" stroke="#222" opacity="0.06333333333333334" stroke-width="28px" transform="translate(-60,1846)"></path><path d="M0 76 C 42 0, 78 0, 120 76 S 198 152, 240 76 S 318 0, 360, 76" fill="none" stroke="#222" opacity="0.11533333333333334" stroke-width="28px" transform="translate(-60,866)"></path><path d="M0 76 C 42 0, 78 0, 120 76 S 198 152, 240 76 S 318 0, 360, 76" fill="none" stroke="#222" opacity="0.11533333333333334" stroke-width="28px" transform="translate(-60,1874)"></path></svg>