<svg xmlns="http://www.w3.org/2000/svg" width="269" height="269"><rect x="0" y="0" width="100%" height="100%" fill="rgb(136,71,118)"></rect><polyline points="0,0,33.66666666666667,33.66666666666667,0,33.66666666666667,0,0" stroke="#000" stroke-opacity="0.02" fill-opacity="0.08933333333333333" fill="#ddd" transform="translate(0,33.66666666666667) scale(1,-1)"></polyline><polyline points="0,0,33.66666666666667,33.66666666666667,0,33.66666666666667,0,0" stroke="#000" stroke-opacity="0.02" fill-opacity="0.08933333333333333" fill="#ddd" transform="translate(67.33333333333334,33.66666666666667) scale(-1,-1)"></polyline><polyline points="0,0,33.66666666666667,33.66666666666667,0,33.66666666666667,0,0" stroke="#000" stroke-opacity="0.02" fill-opacity="0.08933333333333333" fill="#ddd" transform="translate(0,33.66666666666667) scale(1,1)"></polyline><polyline points="0,0,33.66666666666667,33.66666666666667,0,33.66666666666667,0,0" stroke="#000" stroke-opacity="0.02" fill-opacity="0.08933333333333333" fill="#ddd" transform="translate(67.33333333333334,33.66666666666667) scale(-1,1)"></polyline><polyline points="0,0,33.66666666666667,33.66666666666667,0,33.66666666666667,0,0" stroke="#000" stroke-opacity="0.02" fill-opacity="0.15" fill="#222" transform="translate(101.00000000000001,0) scale(-1,1)"></polyline><polyline points="0,0,33.66666666666667,33.66666666666667,0,33.66666666666667,0,0" stroke="#000" stroke-opacity="0.02" fill-opacity="0.15" fill="#222" transform="translate(101.00000000000001,67.33333333333334) scale(1,-1)"></polyline><polyline points="0,0,33.66666666666667,33.66666666666667,0,33.66666666666667,0,0" stroke="#000" stroke-opacity="0.02" fill-opacity="0.02" fill="#ddd" transform="translate(101.00000000000001,67.33333333333334) scale(-1,-1)"></polyline><polyline points="0,0,33.66666666666667,33.66666666666667,0,33.66666666666667,0,0" stroke="#000" stroke-opacity="0.02" fill-opacity="0.02" fill="#ddd" transform="translate(101.00000000000001,0) scale(1,1)"></polyline><polyline points="0,0,33.66666666666667,33.66666666666667,0,33.66666666666667,0,0" stroke="#000" stroke-opacity="0.02" fill-opacity="0.02" fill="#ddd" transform="translate(134.66666666666669,33.66666666666667) scale(1,-1)"></polyline><polyline points="0,0,33.66666666666667,33.66666666666667,0,33.66666666666667,0,0" stroke="#000" stroke-opacity="0.02" fill-opacity="0.02" fill="#ddd" transform="translate(202.00000000000003,33.66666666666667) scale(-1,-1)"></polyline><polyline points="0,0,33.66666666666667,33.66666666666667,0,33.66666666666667,0,0" stroke="#000" stroke-opacity="0.02" fill-opacity="0.02" fill="#ddd" transform="translate(134.66666666666669,33.66666666666667) scale(1,1)"></polyline><polyline points="0,0,33.66666666666667,33.66666666666667,0,33.66666666666667,0,0" stroke="#000" stroke-opacity="0.02" fill-opacity="0.02" fill="#ddd" transform="translate(202.00000000000003,33.66666666666667) scale(-1,1)"></polyline><polyline points="0,0,33.66666666666667,33.66666666666667,0,33.66666666666667,0,0" stroke="#000" stroke-opacity="0.02" fill-opacity="0.02" fill="#ddd" transform="translate(235.66666666666669,0) scale(-1,1)"></polyline><polyline points="0,0,33.66666666666667,33.66666666666667,0,33.66666666666667,0,0" stroke="#000" stroke-opacity="0.02" fill-opacity="0.02" fill="#ddd" transform="translate(235.66666666666669,67.33333333333334) scale(1,-1)"></polyline><polyline points="0,0,33.66666666666667,33.66666666666667,0,33.66666666666667,0,0" stroke="#000" stroke-opacity="0.02" fill-opacity="0.08066666666666666" fill="#222" transform="translate(235.66666666666669,67.33333333333334) scale(-1,-1)"></polyline><polyline points="0,0,33.66666666666667,33.66666666666667,0,33.66666666666667,0,0" stroke="#000" stroke-opacity="0.02" fill-opacity="0.08066666666666666" fill="#222" transform="translate(235.66666666666669,0) scale(1,1)"></polyline><polyline points="0,0,33.66666666666667,33.66666666666667,0,33.66666666666667,0,0" stroke="#000" stroke-opacity="0.02" fill-opacity="0.08066666666666666" fill="#222" transform="translate(33.66666666666667,67.33333333333334) scale(-1,1)"></polyline><polyline points="0,0,33.66666666666667,33.66666666666667,0,33.66666666666667,0,0" stroke="#000" stroke-opacity="0.02" fill-opacity="0.08066666666666666" fill="#222" transform="translate(33.66666666666667,134.66666666666669) scale(1,-1)"></polyline><polyline points="0,0,33.66666666666667,33.66666666666667,0,33.66666666666667,0,0" stroke="#000" stroke-opacity="0.02" fill-opacity="0.06333333333333334" fill="#222" transform="translate(33.66666666666667,134.66666666666669) scale(-1,-1)"></polyline><polyline points="0,0,33.66666666666667,33.66666666666667,0,33.66666666666667,0,0" stroke="#000" stroke-opacity="0.02" fill-opacity="0.06333333333333334" fill="#222" transform="translate(33.66666666666667,67.33333333333334) scale(1,1)"></polyline><polyline points="0,0,33.66666666666667,33.66666666666667,0,33.66666666666667,0,0" stroke="#000" stroke-opacity="0.02" fill-opacity="0.06333333333333334" fill="#222" transform="translate(67.33333333333334,101.00000000000001) scale(1,-1)"></polyline><polyline points="0,0,33.66666666666667,33.66666666666667,0,33.66666666666667,0,0" stroke="#000" stroke-opacity="0.02" fill-opacity="0.06333333333333334" fill="#222" transform="translate(134.66666666666669,101.00000000000001) scale(-1,-1)"></polyline><polyline points="0,0,33.66666666666667,33.66666666666667,0,33.66666666666667,0,0" stroke="#000" stroke-opacity="0.02" fill-opacity="0.06333333333333334" fill="#222" transform="translate(67.33333333333334,101.00000000000001) scale(1,1)"></polyline><polyline points="0,0,33.66666666666667,33.66666666666667,0,33.66666666666667,0,0" stroke="#000" stroke-opacity="0.02" fill-opacity="0.06333333333333334" fill="#222" transform="translate(134.66666666666669,101.00000000000001) scale(-1,1)"></polyline><polyline points="0,0,33.66666666666667,33.66666666666667,0,33.66666666666667,0,0" stroke="#000" stroke-opacity="0.02" fill-opacity="0.02" fill="#ddd" transform="translate(168.33333333333337,67.33333333333334) scale(-1,1)"></polyline><polyline points="0,0,33.66666666666667,33.66666666666667,0,33.66666666666667,0,0" stroke="#000" stroke-opacity="0.02" fill-opacity="0.02" fill="#ddd" transform="translate(168.33333333333337,134.66666666666669) scale(1,-1)"></polyline><polyline points="0,0,33.66666666666667,33.66666666666667,0,33.66666666666667,0,0" stroke="#000" stroke-opacity="0.02" fill-opacity="0.07200000000000001" fill="#ddd" transform="translate(168.33333333333337,134.66666666666669) scale(-1,-1)"></polyline><polyline points="0,0,33.66666666666667,33.66666666666667,0,33.66666666666667,0,0" stroke="#000" stroke-opacity="0.02" fill-opacity="0.07200000000000001" fill="#ddd" transform="translate(168.33333333333337,67.33333333333334) scale(1,1)"></polyline><polyline points="0,0,33.66666666666667,33.66666666666667,0,33.66666666666667,0,0" stroke="#000" stroke-opacity="0.02" fill-opacity="0.07200000000000001" fill="#ddd" transform="translate(202.00000000000003,101.00000000000001) scale(1,-1)"></polyline><polyline points="0,0,33.66666666666667,33.66666666666667,0,33.66666666666667,0,0" stroke="#000" stroke-opacity="0.02" fill-opacity="0.07200000000000001" fill="#ddd" transform="translate(269.33333333333337,101.00000000000001) scale(-1,-1)"></polyline><polyline points="0,0,33.66666666666667,33.66666666666667,0,33.66666666666667,0,0" stroke="#000" stroke-opacity="0.02" fill-opacity="0.07200000000000001" fill="#ddd" transform="translate(202.00000000000003,101.00000000000001) scale(1,1)"></polyline><polyline points="0,0,33.66666666666667,33.66666666666667,0,33.66666666666667,0,0" stroke="#000" stroke-opacity="0.02" fill-opacity="0.07200000000000001" fill="#ddd" transform="translate(269.33333333333337,101.00000000000001) scale(-1,1)"></polyline><polyline points="0,0,33.66666666666667,33.66666666666667,0,33.66666666666667,0,0" stroke="#000" stroke-opacity="0.02" fill-opacity="0.10666666666666667" fill="#ddd" transform="translate(0,168.33333333333337) scale(1,-1)"></polyline><polyline points="0,0,33.66666666666667,33.66666666666667,0,33.66666666666667,0,0" stroke="#000" stroke-opacity="0.02" fill-opacity="0.10666666666666667" fill="#ddd" transform="translate(67.33333333333334,168.33333333333337) scale(-1,-1)"></polyline><polyline points="0,0,33.66666666666667,33.66666666666667,0,33.66666666666667,0,0" stroke="#000" stroke-opacity="0.02" fill-opacity="0.10666666666666667" fill="#ddd" transform="translate(0,168.33333333333337) scale(1,1)"></polyline><polyline points="0,0,33.66666666666667,33.66666666666667,0,33.66666666666667,0,0" stroke="#000" stroke-opacity="0.02" fill-opacity="0.10666666666666667" fill="#ddd" transform="translate(67.33333333333334,168.33333333333337) scale(-1,1)"></polyline><polyline points="0,0,33.66666666666667,33.66666666666667,0,33.66666666666667,0,0" stroke="#000" stroke-opacity="0.02" fill-opacity="0.08066666666666666" fill="#222" transform="translate(101.00000000000001,134.66666666666669) scale(-1,1)"></polyline><polyline points="0,0,33.66666666666667,33.66666666666667,0,33.66666666666667,0,0" stroke="#000" stroke-opacity="0.02" fill-opacity="0.08066666666666666" fill="#222" transform="translate(101.00000000000001,202.00000000000003) scale(1,-1)"></polyline><polyline points="0,0,33.66666666666667,33.66666666666667,0,33.66666666666667,0,0" stroke="#000" stroke-opacity="0.02" fill-opacity="0.10666666666666667" fill="#ddd" transform="translate(101.00000000000001,202.00000000000003) scale(-1,-1)"></polyline><polyline points="0,0,33.66666666666667,33.66666666666667,0,33.66666666666667,0,0" stroke="#000" stroke-opacity="0.02" fill-opacity="0.10666666666666667" fill="#ddd" transform="translate(101.00000000000001,134.66666666666669) scale(1,1)"></polyline><polyline points="0,0,33.66666666666667,33.66666666666667,0,33.66666666666667,0,0" stroke="#000" stroke-opacity="0.02" fill-opacity="0.10666666666666667" fill="#ddd" transform="translate(134.66666666666669,168.33333333333337) scale(1,-1)"></polyline><polyline points="0,0,33.66666666666667,33.66666666666667,0,33.66666666666667,0,0" stroke="#000" stroke-opacity="0.02" fill-opacity="0.10666666666666667" fill="#ddd" transform="translate(202.00000000000003,168.33333333333337) scale(-1,-1)"></polyline><polyline points="0,0,33.66666666666667,33.66666666666667,0,33.66666666666667,0,0" stroke="#000" stroke-opacity="0.02" fill-opacity="0.10666666666666667" fill="#ddd" transform="translate(134.66666666666669,168.33333333333337) scale(1,1)"></polyline><polyline points="0,0,33.66666666666667,33.66666666666667,0,33.66666666666667,0,0" stroke="#000" stroke-opacity="0.02" fill-opacity="0.10666666666666667" fill="#ddd" transform="translate(202.00000000000003,168.33333333333337) scale(-1,1)"></polyline><polyline points="0,0,33.66666666666667,33.66666666666667,0,33.66666666666667,0,0" stroke="#000" stroke-opacity="0.02" fill-opacity="0.07200000000000001" fill="#ddd" transform="translate(235.66666666666669,134.66666666666669) scale(-1,1)"></polyline><polyline points="0,0,33.66666666666667,33.66666666666667,0,33.66666666666667,0,0" stroke="#000" stroke-opacity="0.02" fill-opacity="0.07200000000000001" fill="#ddd" transform="translate(235.66666666666669,202.00000000000003) scale(1,-1)"></polyline><polyline points="0,0,33.66666666666667,33.66666666666667,0,33.66666666666667,0,0" stroke="#000" stroke-opacity="0.02" fill-opacity="0.03733333333333333" fill="#ddd" transform="translate(235.66666666666669,202.00000000000003) scale(-1,-1)"></polyline><polyline points="0,0,33.66666666666667,33.66666666666667,0,33.66666666666667,0,0" stroke="#000" stroke-opacity="0.02" fill-opacity="0.03733333333333333" fill="#ddd" transform="translate(235.66666666666669,134.66666666666669) scale(1,1)"></polyline><polyline points="0,0,33.66666666666667,33.66666666666667,0,33.66666666666667,0,0" stroke="#000" stroke-opacity="0.02" fill-opacity="0.03733333333333333" fill="#ddd" transform="translate(33.66666666666667,202.00000000000003) scale(-1,1)"></polyline><polyline points="0,0,33.66666666666667,33.66666666666667,0,33.66666666666667,0,0" stroke="#000" stroke-opacity="0.02" fill-opacity="0.03733333333333333" fill="#ddd" transform="translate(33.66666666666667,269.33333333333337) scale(1,-1)"></polyline><polyline points="0,0,33.66666666666667,33.66666666666667,0,33.66666666666667,0,0" stroke="#000" stroke-opacity="0.02" fill-opacity="0.02" fill="#ddd" transform="translate(33.66666666666667,269.33333333333337) scale(-1,-1)"></polyline><polyline points="0,0,33.66666666666667,33.66666666666667,0,33.66666666666667,0,0" stroke="#000" stroke-opacity="0.02" fill-opacity="0.02" fill="#ddd" transform="translate(33.66666666666667,202.00000000000003) scale(1,1)"></polyline><polyline points="0,0,33.66666666666667,33.66666666666667,0,33.66666666666667,0,0" stroke="#000" stroke-opacity="0.02" fill-opacity="0.02" fill="#ddd" transform="translate(67.33333333333334,235.66666666666669) scale(1,-1)"></polyline><polyline points="0,0,33.66666666666667,33.66666666666667,0,33.66666666666667,0,0" stroke="#000" stroke-opacity="0.02" fill-opacity="0.02" fill="#ddd" transform="translate(134.66666666666669,235.66666666666669) scale(-1,-1)"></polyline><polyline points="0,0,33.66666666666667,33.66666666666667,0,33.66666666666667,0,0" stroke="#000" stroke-opacity="0.02" fill-opacity="0.02" fill="#ddd" transform="translate(67.33333333333334,235.66666666666669) scale(1,1)"></polyline><polyline points="0,0,33.66666666666667,33.66666666666667,0,33.66666666666667,0,0" stroke="#000" stroke-opacity="0.02" fill-opacity="0.02" fill="#ddd" transform="translate(134.66666666666669,235.66666666666669) scale(-1,1)"></polyline><polyline points="0,0,33.66666666666667,33.66666666666667,0,33.66666666666667,0,0" stroke="#000" stroke-opacity="0.02" fill-opacity="0.028666666666666667" fill="#222" transform="translate(168.33333333333337,202.00000000000003) scale(-1,1)"></polyline><polyline points="0,0,33.66666666666667,33.66666666666667,0,33.66666666666667,0,0" stroke="#000" stroke-opacity="0.02" fill-opacity="0.028666666666666667" fill="#222" transform="translate(168.33333333333337,269.33333333333337) scale(1,-1)"></polyline><polyline points="0,0,33.66666666666667,33.66666666666667,0,33.66666666666667,0,0" stroke="#000" stroke-opacity="0.02" fill-opacity="0.14133333333333334" fill="#ddd" transform="translate(168.33333333333337,269.33333333333337) scale(-1,-1)"></polyline><polyline points="0,0,33.66666666666667,33.66666666666667,0,33.66666666666667,0,0" stroke="#000" stroke-opacity="0.02" fill-opacity="0.14133333333333334" fill="#ddd" transform="translate(168.33333333333337,202.00000000000003) scale(1,1)"></polyline><polyline points="0,0,33.66666666666667,33.66666666666667,0,33.66666666666667,0,0" stroke="#000" stroke-opacity="0.02" fill-opacity="0.14133333333333334" fill="#ddd" transform="translate(202.00000000000003,235.66666666666669) scale(1,-1)"></polyline><polyline points="0,0,33.66666666666667,33.66666666666667,0,33.66666666666667,0,0" stroke="#000" stroke-opacity="0.02" fill-opacity="0.14133333333333334" fill="#ddd" transform="translate(269.33333333333337,235.66666666666669) scale(-1,-1)"></polyline><polyline points="0,0,33.66666666666667,33.66666666666667,0,33.66666666666667,0,0" stroke="#000" stroke-opacity="0.02" fill-opacity="0.14133333333333334" fill="#ddd" transform="translate(202.00000000000003,235.66666666666669) scale(1,1)"></polyline><polyline points="0,0,33.66666666666667,33.66666666666667,0,33.66666666666667,0,0" stroke="#000" stroke-opacity="0.02" fill-opacity="0.14133333333333334" fill="#ddd" transform="translate(269.33333333333337,235.66666666666669) scale(-1,1)"></polyline></svg>