<svg xmlns="http://www.w3.org/2000/svg" width="484" height="484"><rect x="0" y="0" width="100%" height="100%" fill="rgb(161,46,110)"></rect><rect x="0" y="19" width="100%" height="18" opacity="0.13266666666666665" fill="#222"></rect><rect x="0" y="56" width="100%" height="12" opacity="0.08066666666666666" fill="#222"></rect><rect x="0" y="76" width="100%" height="16" opacity="0.11533333333333334" fill="#222"></rect><rect x="0" y="98" width="100%" height="19" opacity="0.14133333333333334" fill="#ddd"></rect><rect x="0" y="132" width="100%" height="7" opacity="0.03733333333333333" fill="#ddd"></rect><rect x="0" y="158" width="100%" height="6" opacity="0.028666666666666667" fill="#222"></rect><rect x="0" y="174" width="100%" height="15" opacity="0.10666666666666667" fill="#ddd"></rect><rect x="0" y="195" width="100%" height="12" opacity="0.08066666666666666" fill="#222"></rect><rect x="0" y="225" width="100%" height="19" opacity="0.14133333333333334" fill="#ddd"></rect><rect x="0" y="254" width="100%" height="15" opacity="0.10666666666666667" fill="#ddd"></rect><rect x="0" y="281" width="100%" height="12" opacity="0.08066666666666666" fill="#222"></rect><rect x="0" y="304" width="100%" height="8" opacity="0.046" fill="#222"></rect><rect x="0" y="330" width="100%" height="15" opacity="0.10666666666666667" fill="#ddd"></rect><rect x="0" y="357" width="100%" height="18" opacity="0.13266666666666665" fill="#222"></rect><rect x="0" y="380" width="100%" height="13" opacity="0.08933333333333333" fill="#ddd"></rect><rect x="0" y="406" width="100%" height="11" opacity="0.07200000000000001" fill="#ddd"></rect><rect x="0" y="434" width="100%" height="10" opacity="0.06333333333333334" fill="#222"></rect><rect x="0" y="464" width="100%" height="20" opacity="0.15" fill="#222"></rect><rect x="19" y="0" width="18" height="100%" opacity="0.13266666666666665" fill="#222"></rect><rect x="56" y="0" width="12" height="100%" opacity="0.08066666666666666" fill="#222"></rect><rect x="76" y="0" width="16" height="100%" opacity="0.11533333333333334" fill="#222"></rect><rect x="98" y="0" width="19" height="100%" opacity="0.14133333333333334" fill="#ddd"></rect><rect x="132" y="0" width="7" height="100%" opacity="0.03733333333333333" fill="#ddd"></rect><rect x="158" y="0" width="6" height="100%" opacity="0.028666666666666667" fill="#222"></rect><rect x="174" y="0" width="15" height="100%" opacity="0.10666666666666667" fill="#ddd"></rect><rect x="195" y="0" width="12" height="100%" opacity="0.08066666666666666" fill="#222"></rect><rect x="225" y="0" width="19" height="100%" opacity="0.14133333333333334" fill="#ddd"></rect><rect x="254" y="0" width="15" height="100%" opacity="0.10666666666666667" fill="#ddd"></rect><rect x="281" y="0" width="12" height="100%" opacity="0.08066666666666666" fill="#222"></rect><rect x="304" y="0" width="8" height="100%" opacity="0.046" fill="#222"></rect><rect x="330" y="0" width="15" height="100%" opacity="0.10666666666666667" fill="#ddd"></rect><rect x="357" y="0" width="18" height="100%" opacity="0.13266666666666665" fill="#222"></rect><rect x="380" y="0" width="13" height="100%" opacity="0.08933333333333333" fill="#ddd"></rect><rect x="406" y="0" width="11" height="100%" opacity="0.07200000000000001" fill="#ddd"></rect><rect x="434" y="0" width="10" height="100%" opacity="0.06333333333333334" fill="#222"></rect><rect x="464" y="0" width="20" height="100%" opacity="0.15" fill="#222"></rect></svg>