<svg xmlns="http://www.w3.org/2000/svg" width="439" height="439"><rect x="0" y="0" width="100%" height="100%" fill="rgb(58,149,85)"></rect><rect x="0" y="15" width="100%" height="6" opacity="0.028666666666666667" fill="#222"></rect><rect x="0" y="26" width="100%" height="12" opacity="0.08066666666666666" fill="#222"></rect><rect x="0" y="53" width="100%" height="16" opacity="0.11533333333333334" fill="#222"></rect><rect x="0" y="75" width="100%" height="7" opacity="0.03733333333333333" fill="#ddd"></rect><rect x="0" y="89" width="100%" height="17" opacity="0.12400000000000001" fill="#ddd"></rect><rect x="0" y="121" width="100%" height="14" opacity="0.098" fill="#222"></rect><rect x="0" y="152" width="100%" height="12" opacity="0.08066666666666666" fill="#222"></rect><rect x="0" y="178" width="100%" height="19" opacity="0.14133333333333334" fill="#ddd"></rect><rect x="0" y="210" width="100%" height="7" opacity="0.03733333333333333" fill="#ddd"></rect><rect x="0" y="234" width="100%" height="6" opacity="0.028666666666666667" fill="#222"></rect><rect x="0" y="252" width="100%" height="11" opacity="0.07200000000000001" fill="#ddd"></rect><rect x="0" y="279" width="100%" height="6" opacity="0.028666666666666667" fill="#222"></rect><rect x="0" y="303" width="100%" height="7" opacity="0.03733333333333333" fill="#ddd"></rect><rect x="0" y="317" width="100%" height="9" opacity="0.05466666666666667" fill="#ddd"></rect><rect x="0" y="343" width="100%" height="19" opacity="0.14133333333333334" fill="#ddd"></rect><rect x="0" y="375" width="100%" height="19" opacity="0.14133333333333334" fill="#ddd"></rect><rect x="0" y="402" width="100%" height="12" opacity="0.08066666666666666" fill="#222"></rect><rect x="0" y="427" width="100%" height="12" opacity="0.08066666666666666" fill="#222"></rect><rect x="15" y="0" width="6" height="100%" opacity="0.028666666666666667" fill="#222"></rect><rect x="26" y="0" width="12" height="100%" opacity="0.08066666666666666" fill="#222"></rect><rect x="53" y="0" width="16" height="100%" opacity="0.11533333333333334" fill="#222"></rect><rect x="75" y="0" width="7" height="100%" opacity="0.03733333333333333" fill="#ddd"></rect><rect x="89" y="0" width="17" height="100%" opacity="0.12400000000000001" fill="#ddd"></rect><rect x="121" y="0" width="14" height="100%" opacity="0.098" fill="#222"></rect><rect x="152" y="0" width="12" height="100%" opacity="0.08066666666666666" fill="#222"></rect><rect x="178" y="0" width="19" height="100%" opacity="0.14133333333333334" fill="#ddd"></rect><rect x="210" y="0" width="7" height="100%" opacity="0.03733333333333333" fill="#ddd"></rect><rect x="234" y="0" width="6" height="100%" opacity="0.028666666666666667" fill="#222"></rect><rect x="252" y="0" width="11" height="100%" opacity="0.07200000000000001" fill="#ddd"></rect><rect x="279" y="0" width="6" height="100%" opacity="0.028666666666666667" fill="#222"></rect><rect x="303" y="0" width="7" height="100%" opacity="0.03733333333333333" fill="#ddd"></rect><rect x="317" y="0" width="9" height="100%" opacity="0.05466666666666667" fill="#ddd"></rect><rect x="343" y="0" width="19" height="100%" opacity="0.14133333333333334" fill="#ddd"></rect><rect x="375" y="0" width="19" height="100%" opacity="0.14133333333333334" fill="#ddd"></rect><rect x="402" y="0" width="12" height="100%" opacity="0.08066666666666666" fill="#222"></rect><rect x="427" y="0" width="12" height="100%" opacity="0.08066666666666666" fill="#222"></rect></svg>