<svg xmlns="http://www.w3.org/2000/svg" width="180" height="792"><rect x="0" y="0" width="100%" height="100%" fill="rgb(50,157,156)"></rect><path d="M0 76 C 31.499999999999996 0, 58.5 0, 90 76 S 148.5 152, 180 76 S 238.5 0, 270, 76" fill="none" stroke="#ddd" opacity="0.05466666666666667" stroke-width="22px" transform="translate(-45,-114)"></path><path d="M0 76 C 31.499999999999996 0, 58.5 0, 90 76 S 148.5 152, 180 76 S 238.5 0, 270, 76" fill="none" stroke="#ddd" opacity="0.05466666666666667" stroke-width="22px" transform="translate(-45,678)"></path><path d="M0 76 C 31.499999999999996 0, 58.5 0, 90 76 S 148.5 152, 180 76 S 238.5 0, 270, 76" fill="none" stroke="#ddd" opacity="0.10666666666666667" stroke-width="22px" transform="translate(-45,-92)"></path><path d="M0 76 C 31.499999999999996 0, 58.5 0, 90 76 S 148.5 152, 180 76 S 238.5 0, 270, 76" fill="none" stroke="#ddd" opacity="0.10666666666666667" stroke-width="22px" transform="translate(-45,700)"></path><path d="M0 76 C 31.499999999999996 0, 58.5 0, 90 76 S 148.5 152, 180 76 S 238.5 0, 270, 76" fill="none" stroke="#222" opacity="0.11533333333333334" stroke-width="22px" transform="translate(-45,-70)"></path><path d="M0 76 C 31.499999999999996 0, 58.5 0, 90 76 S 148.5 152, 180 76 S 238.5 0, 270, 76" fill="none" stroke="#222" opacity="0.11533333333333334" stroke-width="22px" transform="translate(-45,722)"></path><path d="M0 76 C 31.499999999999996 0, 58.5 0, 90 76 S 148.5 152, 180 76 S 238.5 0, 270, 76" fill="none" stroke="#ddd" opacity="0.12400000000000001" stroke-width="22px" transform="translate(-45,-48)"></path><path d="M0 76 C 31.499999999999996 0, 58.5 0, 90 76 S 148.5 152, 180 76 S 238.5 0, 270, 76" fill="none" stroke="#ddd" opacity="0.12400000000000001" stroke-width="22px" transform="translate(-45,744)"></path><path d="M0 76 C 31.499999999999996 0, 58.5 0, 90 76 S 148.5 152, 180 76 S 238.5 0, 270, 76" fill="none" stroke="#ddd" opacity="0.12400000000000001" stroke-width="22px" transform="translate(-45,-26)"></path><path d="M0 76 C 31.499999999999996 0, 58.5 0, 90 76 S 148.5 152, 180 76 S 238.5 0, 270, 76" fill="none" stroke="#ddd" opacity="0.12400000000000001" stroke-width="22px" transform="translate(-45,766)"></path><path d="M0 76 C 31.499999999999996 0, 58.5 0, 90 76 S 148.5 152, 180 76 S 238.5 0, 270, 76" fill="none" stroke="#222" opacity="0.11533333333333334" stroke-width="22px" transform="translate(-45,-4)"></path><path d="M0 76 C 31.499999999999996 0, 58.5 0, 90 76 S 148.5 152, 180 76 S 238.5 0, 270, 76" fill="none" stroke="#222" opacity="0.11533333333333334" stroke-width="22px" transform="translate(-45,788)"></path><path d="M0 76 C 31.499999999999996 0, 58.5 0, 90 76 S 148.5 152, 180 76 S 238.5 0, 270, 76" fill="none" stroke="#ddd" opacity="0.14133333333333334" stroke-width="22px" transform="translate(-45,18)"></path><path d="M0 76 C 31.499999999999996 0, 58.5 0, 90 76 S 148.5 152, 180 76 S 238.5 0, 270, 76" fill="none" stroke="#ddd" opacity="0.14133333333333334" stroke-width="22px" transform="translate(-45,810)"></path><path d="M0 76 C 31.499999999999996 0, 58.5 0, 90 76 S 148.5 152, 180 76 S 238.5 0, 270, 76" fill="none" stroke="#222" opacity="0.13266666666666665" stroke-width="22px" transform="translate(-45,40)"></path><path d="M0 76 C 31.499999999999996 0, 58.5 0, 90 76 S 148.5 152, 180 76 S 238.5 0, 270, 76" fill="none" stroke="#222" opacity="0.13266666666666665" stroke-width="22px" transform="translate(-45,832)"></path><path d="M0 76 C 31.499999999999996 0, 58.5 0, 90 76 S 148.5 152, 180 76 S 238.5 0, 270, 76" fill="none" stroke="#222" opacity="0.046" stroke-width="22px" transform="translate(-45,62)"></path><path d="M0 76 C 31.499999999999996 0, 58.5 0, 90 76 S 148.5 152, 180 76 S 238.5 0, 270, 76" fill="none" stroke="#222" opacity="0.046" stroke-width="22px" transform="translate(-45,854)"></path><path d="M0 76 C 31.499999999999996 0, 58.5 0, 90 76 S 148.5 152, 180 76 S 238.5 0, 270, 76" fill="none" stroke="#ddd" opacity="0.08933333333333333" stroke-width="22px" transform="translate(-45,84)"></path><path d="M0 76 C 31.499999999999996 0, 58.5 0, 90 76 S 148.5 152, 180 76 S 238.5 0, 270, 76" fill="none" stroke="#ddd" opacity="0.08933333333333333" stroke-width="22px" transform="translate(-45,876)"></path><path d="M0 76 C 31.499999999999996 0, 58.5 0, 90 76 S 148.5 152, 180 76 S 238.5 0, 270, 76" fill="none" stroke="#ddd" opacity="0.08933333333333333" stroke-width="22px" transform="translate(-45,106)"></path><path d="M0 76 C 31.499999999999996 0, 58.5 0, 90 76 S 148.5 152, 180 76 S 238.5 0, 270, 76" fill="none" stroke="#ddd" opacity="0.08933333333333333" stroke-width="22px" transform="translate(-45,898)"></path><path d="M0 76 C 31.499999999999996 0, 58.5 0, 90 76 S 148.5 152, 180 76 S 238.5 0, 270, 76" fill="none" stroke="#222" opacity="0.08066666666666666" stroke-width="22px" transform="translate(-45,128)"></path><path d="M0 76 C 31.499999999999996 0, 58.5 0, 90 76 S 148.5 152, 180 76 S 238.5 0, 270, 76" fill="none" stroke="#222" opacity="0.08066666666666666" stroke-width="22px" transform="translate(-45,920)"></path><path d="M0 76 C 31.499999999999996 0, 58.5 0, 90 76 S 148.5 152, 180 76 S 238.5 0, 270, 76" fill="none" stroke="#222" opacity="0.06333333333333334" stroke-width="22px" transform="translate(-45,150)"></path><path d="M0 76 C 31.499999999999996 0, 58.5 0, 90 76 S 148.5 152, 180 76 S 238.5 0, 270, 76" fill="none" stroke="#222" opacity="0.06333333333333334" stroke-width="22px" transform="translate(-45,942)"></path><path d="M0 76 C 31.499999999999996 0, 58.5 0, 90 76 S 148.5 152, 180 76 S 238.5 0, 270, 76" fill="none" stroke="#ddd" opacity="0.12400000000000001" stroke-width="22px" transform="translate(-45,172)"></path><path d="M0 76 C 31.499999999999996 0, 58.5 0, 90 76 S 148.5 152, 180 76 S 238.5 0, 270, 76" fill="none" stroke="#ddd" opacity="0.12400000000000001" stroke-width="22px" transform="translate(-45,964)"></path><path d="M0 76 C 31.499999999999996 0, 58.5 0, 90 76 S 148.5 152, 180 76 S 238.5 0, 270, 76" fill="none" stroke="#ddd" opacity="0.08933333333333333" stroke-width="22px" transform="translate(-45,194)"></path><path d="M0 76 C 31.499999999999996 0, 58.5 0, 90 76 S 148.5 152, 180 76 S 238.5 0, 270, 76" fill="none" stroke="#ddd" opacity="0.08933333333333333" stroke-width="22px" transform="translate(-45,986)"></path><path d="M0 76 C 31.499999999999996 0, 58.5 0, 90 76 S 148.5 152, 180 76 S 238.5 0, 270, 76" fill="none" stroke="#ddd" opacity="0.02" stroke-width="22px" transform="translate(-45,216)"></path><path d="M0 76 C 31.499999999999996 0, 58.5 0, 90 76 S 148.5 152, 180 76 S 238.5 0, 270, 76" fill="none" stroke="#ddd" opacity="0.02" stroke-width="22px" transform="translate(-45,1008)"></path><path d="M0 76 C 31.499999999999996 0, 58.5 0, 90 76 S 148.5 152, 180 76 S 238.5 0, 270, 76" fill="none" stroke="#222" opacity="0.15" stroke-width="22px" transform="translate(-45,238)"></path><path d="M0 76 C 31.499999999999996 0, 58.5 0, 90 76 S 148.5 152, 180 76 S 238.5 0, 270, 76" fill="none" stroke="#222" opacity="0.15" stroke-width="22px" transform="translate(-45,1030)"></path><path d="M0 76 C 31.499999999999996 0, 58.5 0, 90 76 S 148.5 152, 180 76 S 238.5 0, 270, 76" fill="none" stroke="#ddd" opacity="0.10666666666666667" stroke-width="22px" transform="translate(-45,260)"></path><path d="M0 76 C 31.499999999999996 0, 58.5 0, 90 76 S 148.5 152, 180 76 S 238.5 0, 270, 76" fill="none" stroke="#ddd" opacity="0.10666666666666667" stroke-width="22px" transform="translate(-45,1052)"></path><path d="M0 76 C 31.499999999999996 0, 58.5 0, 90 76 S 148.5 152, 180 76 S 238.5 0, 270, 76" fill="none" stroke="#ddd" opacity="0.03733333333333333" stroke-width="22px" transform="translate(-45,282)"></path><path d="M0 76 C 31.499999999999996 0, 58.5 0, 90 76 S 148.5 152, 180 76 S 238.5 0, 270, 76" fill="none" stroke="#ddd" opacity="0.03733333333333333" stroke-width="22px" transform="translate(-45,1074)"></path><path d="M0 76 C 31.499999999999996 0, 58.5 0, 90 76 S 148.5 152, 180 76 S 238.5 0, 270, 76" fill="none" stroke="#ddd" opacity="0.12400000000000001" stroke-width="22px" transform="translate(-45,304)"></path><path d="M0 76 C 31.499999999999996 0, 58.5 0, 90 76 S 148.5 152, 180 76 S 238.5 0, 270, 76" fill="none" stroke="#ddd" opacity="0.12400000000000001" stroke-width="22px" transform="translate(-45,1096)"></path><path d="M0 76 C 31.499999999999996 0, 58.5 0, 90 76 S 148.5 152, 180 76 S 238.5 0, 270, 76" fill="none" stroke="#ddd" opacity="0.05466666666666667" stroke-width="22px" transform="translate(-45,326)"></path><path d="M0 76 C 31.499999999999996 0, 58.5 0, 90 76 S 148.5 152, 180 76 S 238.5 0, 270, 76" fill="none" stroke="#ddd" opacity="0.05466666666666667" stroke-width="22px" transform="translate(-45,1118)"></path><path d="M0 76 C 31.499999999999996 0, 58.5 0, 90 76 S 148.5 152, 180 76 S 238.5 0, 270, 76" fill="none" stroke="#222" opacity="0.098" stroke-width="22px" transform="translate(-45,348)"></path><path d="M0 76 C 31.499999999999996 0, 58.5 0, 90 76 S 148.5 152, 180 76 S 238.5 0, 270, 76" fill="none" stroke="#222" opacity="0.098" stroke-width="22px" transform="translate(-45,1140)"></path><path d="M0 76 C 31.499999999999996 0, 58.5 0, 90 76 S 148.5 152, 180 76 S 238.5 0, 270, 76" fill="none" stroke="#ddd" opacity="0.03733333333333333" stroke-width="22px" transform="translate(-45,370)"></path><path d="M0 76 C 31.499999999999996 0, 58.5 0, 90 76 S 148.5 152, 180 76 S 238.5 0, 270, 76" fill="none" stroke="#ddd" opacity="0.03733333333333333" stroke-width="22px" transform="translate(-45,1162)"></path><path d="M0 76 C 31.499999999999996 0, 58.5 0, 90 76 S 148.5 152, 180 76 S 238.5 0, 270, 76" fill="none" stroke="#ddd" opacity="0.10666666666666667" stroke-width="22px" transform="translate(-45,392)"></path><path d="M0 76 C 31.499999999999996 0, 58.5 0, 90 76 S 148.5 152, 180 76 S 238.5 0, 270, 76" fill="none" stroke="#ddd" opacity="0.10666666666666667" stroke-width="22px" transform="translate(-45,1184)"></path><path d="M0 76 C 31.499999999999996 0, 58.5 0, 90 76 S 148.5 152, 180 76 S 238.5 0, 270, 76" fill="none" stroke="#ddd" opacity="0.08933333333333333" stroke-width="22px" transform="translate(-45,414)"></path><path d="M0 76 C 31.499999999999996 0, 58.5 0, 90 76 S 148.5 152, 180 76 S 238.5 0, 270, 76" fill="none" stroke="#ddd" opacity="0.08933333333333333" stroke-width="22px" transform="translate(-45,1206)"></path><path d="M0 76 C 31.499999999999996 0, 58.5 0, 90 76 S 148.5 152, 180 76 S 238.5 0, 270, 76" fill="none" stroke="#222" opacity="0.15" stroke-width="22px" transform="translate(-45,436)"></path><path d="M0 76 C 31.499999999999996 0, 58.5 0, 90 76 S 148.5 152, 180 76 S 238.5 0, 270, 76" fill="none" stroke="#222" opacity="0.15" stroke-width="22px" transform="translate(-45,1228)"></path><path d="M0 76 C 31.499999999999996 0, 58.5 0, 90 76 S 148.5 152, 180 76 S 238.5 0, 270, 76" fill="none" stroke="#222" opacity="0.098" stroke-width="22px" transform="translate(-45,458)"></path><path d="M0 76 C 31.499999999999996 0, 58.5 0, 90 76 S 148.5 152, 180 76 S 238.5 0, 270, 76" fill="none" stroke="#222" opacity="0.098" stroke-width="22px" transform="translate(-45,1250)"></path><path d="M0 76 C 31.499999999999996 0, 58.5 0, 90 76 S 148.5 152, 180 76 S 238.5 0, 270, 76" fill="none" stroke="#ddd" opacity="0.07200000000000001" stroke-width="22px" transform="translate(-45,480)"></path><path d="M0 76 C 31.499999999999996 0, 58.5 0, 90 76 S 148.5 152, 180 76 S 238.5 0, 270, 76" fill="none" stroke="#ddd" opacity="0.07200000000000001" stroke-width="22px" transform="translate(-45,1272)"></path><path d="M0 76 C 31.499999999999996 0, 58.5 0, 90 76 S 148.5 152, 180 76 S 238.5 0, 270, 76" fill="none" stroke="#222" opacity="0.06333333333333334" stroke-width="22px" transform="translate(-45,502)"></path><path d="M0 76 C 31.499999999999996 0, 58.5 0, 90 76 S 148.5 152, 180 76 S 238.5 0, 270, 76" fill="none" stroke="#222" opacity="0.06333333333333334" stroke-width="22px" transform="translate(-45,1294)"></path><path d="M0 76 C 31.499999999999996 0, 58.5 0, 90 76 S 148.5 152, 180 76 S 238.5 0, 270, 76" fill="none" stroke="#222" opacity="0.11533333333333334" stroke-width="22px" transform="translate(-45,524)"></path><path d="M0 76 C 31.499999999999996 0, 58.5 0, 90 76 S 148.5 152, 180 76 S 238.5 0, 270, 76" fill="none" stroke="#222" opacity="0.11533333333333334" stroke-width="22px" transform="translate(-45,1316)"></path><path d="M0 76 C 31.499999999999996 0, 58.5 0, 90 76 S 148.5 152, 180 76 S 238.5 0, 270, 76" fill="none" stroke="#222" opacity="0.15" stroke-width="22px" transform="translate(-45,546)"></path><path d="M0 76 C 31.499999999999996 0, 58.5 0, 90 76 S 148.5 152, 180 76 S 238.5 0, 270, 76" fill="none" stroke="#222" opacity="0.15" stroke-width="22px" transform="translate(-45,1338)"></path><path d="M0 76 C 31.499999999999996 0, 58.5 0, 90 76 S 148.5 152, 180 76 S 238.5 0, 270, 76" fill="none" stroke="#222" opacity="0.15" stroke-width="22px" transform="translate(-45,568)"></path><path d="M0 76 C 31.499999999999996 0, 58.5 0, 90 76 S 148.5 152, 180 76 S 238.5 0, 270, 76" fill="none" stroke="#222" opacity="0.15" stroke-width="22px" transform="translate(-45,1360)"></path><path d="M0 76 C 31.499999999999996 0, 58.5 0, 90 76 S 148.5 152, 180 76 S 238.5 0, 270, 76" fill="none" stroke="#222" opacity="0.15" stroke-width="22px" transform="translate(-45,590)"></path><path d="M0 76 C 31.499999999999996 0, 58.5 0, 90 76 S 148.5 152, 180 76 S 238.5 0, 270, 76" fill="none" stroke="#222" opacity="0.15" stroke-width="22px" transform="translate(-45,1382)"></path><path d="M0 76 C 31.499999999999996 0, 58.5 0, 90 76 S 148.5 152, 180 76 S 238.5 0, 270, 76" fill="none" stroke="#ddd" opacity="0.08933333333333333" stroke-width="22px" transform="translate(-45,612)"></path><path d="M0 76 C 31.499999999999996 0, 58.5 0, 90 76 S 148.5 152, 180 76 S 238.5 0, 270, 76" fill="none" stroke="#ddd" opacity="0.08933333333333333" stroke-width="22px" transform="translate(-45,1404)"></path><path d="M0 76 C 31.499999999999996 0, 58.5 0, 90 76 S 148.5 152, 180 76 S 238.5 0, 270, 76" fill="none" stroke="#222" opacity="0.098" stroke-width="22px" transform="translate(-45,634)"></path><path d="M0 76 C 31.499999999999996 0, 58.5 0, 90 76 S 148.5 152, 180 76 S 238.5 0, 270, 76" fill="none" stroke="#222" opacity="0.098" stroke-width="22px" transform="translate(-45,1426)"></path><path d="M0 76 C 31.499999999999996 0, 58.5 0, 90 76 S 148.5 152, 180 76 S 238.5 0, 270, 76" fill="none" stroke="#ddd" opacity="0.02" stroke-width="22px" transform="translate(-45,656)"></path><path d="M0 76 C 31.499999999999996 0, 58.5 0, 90 76 S 148.5 152, 180 76 S 238.5 0, 270, 76" fill="none" stroke="#ddd" opacity="0.02" stroke-width="22px" transform="translate(-45,1448)"></path></svg>