<svg xmlns="http://www.w3.org/2000/svg" width="510" height="510"><rect x="0" y="0" width="100%" height="100%" fill="rgb(111,151,56)"></rect><rect x="0" y="19" width="100%" height="11" opacity="0.07200000000000001" fill="#ddd"></rect><rect x="0" y="41" width="100%" height="20" opacity="0.15" fill="#222"></rect><rect x="0" y="80" width="100%" height="19" opacity="0.14133333333333334" fill="#ddd"></rect><rect x="0" y="119" width="100%" height="11" opacity="0.07200000000000001" fill="#ddd"></rect><rect x="0" y="147" width="100%" height="13" opacity="0.08933333333333333" fill="#ddd"></rect><rect x="0" y="173" width="100%" height="8" opacity="0.046" fill="#222"></rect><rect x="0" y="192" width="100%" height="19" opacity="0.14133333333333334" fill="#ddd"></rect><rect x="0" y="228" width="100%" height="8" opacity="0.046" fill="#222"></rect><rect x="0" y="253" width="100%" height="9" opacity="0.05466666666666667" fill="#ddd"></rect><rect x="0" y="274" width="100%" height="17" opacity="0.12400000000000001" fill="#ddd"></rect><rect x="0" y="303" width="100%" height="17" opacity="0.12400000000000001" fill="#ddd"></rect><rect x="0" y="335" width="100%" height="17" opacity="0.12400000000000001" fill="#ddd"></rect><rect x="0" y="368" width="100%" height="20" opacity="0.15" fill="#222"></rect><rect x="0" y="407" width="100%" height="10" opacity="0.06333333333333334" fill="#222"></rect><rect x="0" y="430" width="100%" height="9" opacity="0.05466666666666667" fill="#ddd"></rect><rect x="0" y="450" width="100%" height="18" opacity="0.13266666666666665" fill="#222"></rect><rect x="0" y="473" width="100%" height="9" opacity="0.05466666666666667" fill="#ddd"></rect><rect x="0" y="498" width="100%" height="12" opacity="0.08066666666666666" fill="#222"></rect><rect x="19" y="0" width="11" height="100%" opacity="0.07200000000000001" fill="#ddd"></rect><rect x="41" y="0" width="20" height="100%" opacity="0.15" fill="#222"></rect><rect x="80" y="0" width="19" height="100%" opacity="0.14133333333333334" fill="#ddd"></rect><rect x="119" y="0" width="11" height="100%" opacity="0.07200000000000001" fill="#ddd"></rect><rect x="147" y="0" width="13" height="100%" opacity="0.08933333333333333" fill="#ddd"></rect><rect x="173" y="0" width="8" height="100%" opacity="0.046" fill="#222"></rect><rect x="192" y="0" width="19" height="100%" opacity="0.14133333333333334" fill="#ddd"></rect><rect x="228" y="0" width="8" height="100%" opacity="0.046" fill="#222"></rect><rect x="253" y="0" width="9" height="100%" opacity="0.05466666666666667" fill="#ddd"></rect><rect x="274" y="0" width="17" height="100%" opacity="0.12400000000000001" fill="#ddd"></rect><rect x="303" y="0" width="17" height="100%" opacity="0.12400000000000001" fill="#ddd"></rect><rect x="335" y="0" width="17" height="100%" opacity="0.12400000000000001" fill="#ddd"></rect><rect x="368" y="0" width="20" height="100%" opacity="0.15" fill="#222"></rect><rect x="407" y="0" width="10" height="100%" opacity="0.06333333333333334" fill="#222"></rect><rect x="430" y="0" width="9" height="100%" opacity="0.05466666666666667" fill="#ddd"></rect><rect x="450" y="0" width="18" height="100%" opacity="0.13266666666666665" fill="#222"></rect><rect x="473" y="0" width="9" height="100%" opacity="0.05466666666666667" fill="#ddd"></rect><rect x="498" y="0" width="12" height="100%" opacity="0.08066666666666666" fill="#222"></rect></svg>