<svg xmlns="http://www.w3.org/2000/svg" width="240" height="240"><rect x="0" y="0" width="100%" height="100%" fill="rgb(144,63,97)"></rect><polyline points="13.200000000000001,0,26.799999999999997,0,40,13.200000000000001,40,26.799999999999997,26.799999999999997,40,13.200000000000001,40,0,26.799999999999997,0,13.200000000000001,13.200000000000001,0" fill="#222" fill-opacity="0.098" stroke="#000" stroke-opacity="0.02" transform="translate(0,0)"></polyline><polyline points="13.200000000000001,0,26.799999999999997,0,40,13.200000000000001,40,26.799999999999997,26.799999999999997,40,13.200000000000001,40,0,26.799999999999997,0,13.200000000000001,13.200000000000001,0" fill="#ddd" fill-opacity="0.02" stroke="#000" stroke-opacity="0.02" transform="translate(40,0)"></polyline><polyline points="13.200000000000001,0,26.799999999999997,0,40,13.200000000000001,40,26.799999999999997,26.799999999999997,40,13.200000000000001,40,0,26.799999999999997,0,13.200000000000001,13.200000000000001,0" fill="#222" fill-opacity="0.098" stroke="#000" stroke-opacity="0.02" transform="translate(80,0)"></polyline><polyline points="13.200000000000001,0,26.799999999999997,0,40,13.200000000000001,40,26.799999999999997,26.799999999999997,40,13.200000000000001,40,0,26.799999999999997,0,13.200000000000001,13.200000000000001,0" fill="#ddd" fill-opacity="0.12400000000000001" stroke="#000" stroke-opacity="0.02" transform="translate(120,0)"></polyline><polyline points="13.200000000000001,0,26.799999999999997,0,40,13.200000000000001,40,26.799999999999997,26.799999999999997,40,13.200000000000001,40,0,26.799999999999997,0,13.200000000000001,13.200000000000001,0" fill="#222" fill-opacity="0.08066666666666666" stroke="#000" stroke-opacity="0.02" transform="translate(160,0)"></polyline><polyline points="13.200000000000001,0,26.799999999999997,0,40,13.200000000000001,40,26.799999999999997,26.799999999999997,40,13.200000000000001,40,0,26.799999999999997,0,13.200000000000001,13.200000000000001,0" fill="#222" fill-opacity="0.13266666666666665" stroke="#000" stroke-opacity="0.02" transform="translate(200,0)"></polyline><polyline points="13.200000000000001,0,26.799999999999997,0,40,13.200000000000001,40,26.799999999999997,26.799999999999997,40,13.200000000000001,40,0,26.799999999999997,0,13.200000000000001,13.200000000000001,0" fill="#ddd" fill-opacity="0.14133333333333334" stroke="#000" stroke-opacity="0.02" transform="translate(0,40)"></polyline><polyline points="13.200000000000001,0,26.799999999999997,0,40,13.200000000000001,40,26.799999999999997,26.799999999999997,40,13.200000000000001,40,0,26.799999999999997,0,13.200000000000001,13.200000000000001,0" fill="#ddd" fill-opacity="0.05466666666666667" stroke="#000" stroke-opacity="0.02" transform="translate(40,40)"></polyline><polyline points="13.200000000000001,0,26.799999999999997,0,40,13.200000000000001,40,26.799999999999997,26.799999999999997,40,13.200000000000001,40,0,26.799999999999997,0,13.200000000000001,13.200000000000001,0" fill="#222" fill-opacity="0.028666666666666667" stroke="#000" stroke-opacity="0.02" transform="translate(80,40)"></polyline><polyline points="13.200000000000001,0,26.799999999999997,0,40,13.200000000000001,40,26.799999999999997,26.799999999999997,40,13.200000000000001,40,0,26.799999999999997,0,13.200000000000001,13.200000000000001,0" fill="#ddd" fill-opacity="0.05466666666666667" stroke="#000" stroke-opacity="0.02" transform="translate(120,40)"></polyline><polyline points="13.200000000000001,0,26.799999999999997,0,40,13.200000000000001,40,26.799999999999997,26.799999999999997,40,13.200000000000001,40,0,26.799999999999997,0,13.200000000000001,13.200000000000001,0" fill="#222" fill-opacity="0.098" stroke="#000" stroke-opacity="0.02" transform="translate(160,40)"></polyline><polyline points="13.200000000000001,0,26.799999999999997,0,40,13.200000000000001,40,26.799999999999997,26.799999999999997,40,13.200000000000001,40,0,26.799999999999997,0,13.200000000000001,13.200000000000001,0" fill="#222" fill-opacity="0.15" stroke="#000" stroke-opacity="0.02" transform="translate(200,40)"></polyline><polyline points="13.200000000000001,0,26.799999999999997,0,40,13.200000000000001,40,26.799999999999997,26.799999999999997,40,13.200000000000001,40,0,26.799999999999997,0,13.200000000000001,13.200000000000001,0" fill="#222" fill-opacity="0.028666666666666667" stroke="#000" stroke-opacity="0.02" transform="translate(0,80)"></polyline><polyline points="13.200000000000001,0,26.799999999999997,0,40,13.200000000000001,40,26.799999999999997,26.799999999999997,40,13.200000000000001,40,0,26.799999999999997,0,13.200000000000001,13.200000000000001,0" fill="#222" fill-opacity="0.028666666666666667" stroke="#000" stroke-opacity="0.02" transform="translate(40,80)"></polyline><polyline points="13.200000000000001,0,26.799999999999997,0,40,13.200000000000001,40,26.799999999999997,26.799999999999997,40,13.200000000000001,40,0,26.799999999999997,0,13.200000000000001,13.200000000000001,0" fill="#222" fill-opacity="0.028666666666666667" stroke="#000" stroke-opacity="0.02" transform="translate(80,80)"></polyline><polyline points="13.200000000000001,0,26.799999999999997,0,40,13.200000000000001,40,26.799999999999997,26.799999999999997,40,13.200000000000001,40,0,26.799999999999997,0,13.200000000000001,13.200000000000001,0" fill="#222" fill-opacity="0.028666666666666667" stroke="#000" stroke-opacity="0.02" transform="translate(120,80)"></polyline><polyline points="13.200000000000001,0,26.799999999999997,0,40,13.200000000000001,40,26.799999999999997,26.799999999999997,40,13.200000000000001,40,0,26.799999999999997,0,13.200000000000001,13.200000000000001,0" fill="#222" fill-opacity="0.13266666666666665" stroke="#000" stroke-opacity="0.02" transform="translate(160,80)"></polyline><polyline points="13.200000000000001,0,26.799999999999997,0,40,13.200000000000001,40,26.799999999999997,26.799999999999997,40,13.200000000000001,40,0,26.799999999999997,0,13.200000000000001,13.200000000000001,0" fill="#222" fill-opacity="0.046" stroke="#000" stroke-opacity="0.02" transform="translate(200,80)"></polyline><polyline points="13.200000000000001,0,26.799999999999997,0,40,13.200000000000001,40,26.799999999999997,26.799999999999997,40,13.200000000000001,40,0,26.799999999999997,0,13.200000000000001,13.200000000000001,0" fill="#222" fill-opacity="0.098" stroke="#000" stroke-opacity="0.02" transform="translate(0,120)"></polyline><polyline points="13.200000000000001,0,26.799999999999997,0,40,13.200000000000001,40,26.799999999999997,26.799999999999997,40,13.200000000000001,40,0,26.799999999999997,0,13.200000000000001,13.200000000000001,0" fill="#ddd" fill-opacity="0.05466666666666667" stroke="#000" stroke-opacity="0.02" transform="translate(40,120)"></polyline><polyline points="13.200000000000001,0,26.799999999999997,0,40,13.200000000000001,40,26.799999999999997,26.799999999999997,40,13.200000000000001,40,0,26.799999999999997,0,13.200000000000001,13.200000000000001,0" fill="#ddd" fill-opacity="0.02" stroke="#000" stroke-opacity="0.02" transform="translate(80,120)"></polyline><polyline points="13.200000000000001,0,26.799999999999997,0,40,13.200000000000001,40,26.799999999999997,26.799999999999997,40,13.200000000000001,40,0,26.799999999999997,0,13.200000000000001,13.200000000000001,0" fill="#ddd" fill-opacity="0.14133333333333334" stroke="#000" stroke-opacity="0.02" transform="translate(120,120)"></polyline><polyline points="13.200000000000001,0,26.799999999999997,0,40,13.200000000000001,40,26.799999999999997,26.799999999999997,40,13.200000000000001,40,0,26.799999999999997,0,13.200000000000001,13.200000000000001,0" fill="#ddd" fill-opacity="0.12400000000000001" stroke="#000" stroke-opacity="0.02" transform="translate(160,120)"></polyline><polyline points="13.200000000000001,0,26.799999999999997,0,40,13.200000000000001,40,26.799999999999997,26.799999999999997,40,13.200000000000001,40,0,26.799999999999997,0,13.200000000000001,13.200000000000001,0" fill="#ddd" fill-opacity="0.07200000000000001" stroke="#000" stroke-opacity="0.02" transform="translate(200,120)"></polyline><polyline points="13.200000000000001,0,26.799999999999997,0,40,13.200000000000001,40,26.799999999999997,26.799999999999997,40,13.200000000000001,40,0,26.799999999999997,0,13.200000000000001,13.200000000000001,0" fill="#ddd" fill-opacity="0.03733333333333333" stroke="#000" stroke-opacity="0.02" transform="translate(0,160)"></polyline><polyline points="13.200000000000001,0,26.799999999999997,0,40,13.200000000000001,40,26.799999999999997,26.799999999999997,40,13.200000000000001,40,0,26.799999999999997,0,13.200000000000001,13.200000000000001,0" fill="#222" fill-opacity="0.15" stroke="#000" stroke-opacity="0.02" transform="translate(40,160)"></polyline><polyline points="13.200000000000001,0,26.799999999999997,0,40,13.200000000000001,40,26.799999999999997,26.799999999999997,40,13.200000000000001,40,0,26.799999999999997,0,13.200000000000001,13.200000000000001,0" fill="#ddd" fill-opacity="0.12400000000000001" stroke="#000" stroke-opacity="0.02" transform="translate(80,160)"></polyline><polyline points="13.200000000000001,0,26.799999999999997,0,40,13.200000000000001,40,26.799999999999997,26.799999999999997,40,13.200000000000001,40,0,26.799999999999997,0,13.200000000000001,13.200000000000001,0" fill="#222" fill-opacity="0.11533333333333334" stroke="#000" stroke-opacity="0.02" transform="translate(120,160)"></polyline><polyline points="13.200000000000001,0,26.799999999999997,0,40,13.200000000000001,40,26.799999999999997,26.799999999999997,40,13.200000000000001,40,0,26.799999999999997,0,13.200000000000001,13.200000000000001,0" fill="#ddd" fill-opacity="0.03733333333333333" stroke="#000" stroke-opacity="0.02" transform="translate(160,160)"></polyline><polyline points="13.200000000000001,0,26.799999999999997,0,40,13.200000000000001,40,26.799999999999997,26.799999999999997,40,13.200000000000001,40,0,26.799999999999997,0,13.200000000000001,13.200000000000001,0" fill="#ddd" fill-opacity="0.12400000000000001" stroke="#000" stroke-opacity="0.02" transform="translate(200,160)"></polyline><polyline points="13.200000000000001,0,26.799999999999997,0,40,13.200000000000001,40,26.799999999999997,26.799999999999997,40,13.200000000000001,40,0,26.799999999999997,0,13.200000000000001,13.200000000000001,0" fill="#ddd" fill-opacity="0.14133333333333334" stroke="#000" stroke-opacity="0.02" transform="translate(0,200)"></polyline><polyline points="13.200000000000001,0,26.799999999999997,0,40,13.200000000000001,40,26.799999999999997,26.799999999999997,40,13.200000000000001,40,0,26.799999999999997,0,13.200000000000001,13.200000000000001,0" fill="#222" fill-opacity="0.06333333333333334" stroke="#000" stroke-opacity="0.02" transform="translate(40,200)"></polyline><polyline points="13.200000000000001,0,26.799999999999997,0,40,13.200000000000001,40,26.799999999999997,26.799999999999997,40,13.200000000000001,40,0,26.799999999999997,0,13.200000000000001,13.200000000000001,0" fill="#222" fill-opacity="0.06333333333333334" stroke="#000" stroke-opacity="0.02" transform="translate(80,200)"></polyline><polyline points="13.200000000000001,0,26.799999999999997,0,40,13.200000000000001,40,26.799999999999997,26.799999999999997,40,13.200000000000001,40,0,26.799999999999997,0,13.200000000000001,13.200000000000001,0" fill="#222" fill-opacity="0.028666666666666667" stroke="#000" stroke-opacity="0.02" transform="translate(120,200)"></polyline><polyline points="13.200000000000001,0,26.799999999999997,0,40,13.200000000000001,40,26.799999999999997,26.799999999999997,40,13.200000000000001,40,0,26.799999999999997,0,13.200000000000001,13.200000000000001,0" fill="#ddd" fill-opacity="0.14133333333333334" stroke="#000" stroke-opacity="0.02" transform="translate(160,200)"></polyline><polyline points="13.200000000000001,0,26.799999999999997,0,40,13.200000000000001,40,26.799999999999997,26.799999999999997,40,13.200000000000001,40,0,26.799999999999997,0,13.200000000000001,13.200000000000001,0" fill="#ddd" fill-opacity="0.12400000000000001" stroke="#000" stroke-opacity="0.02" transform="translate(200,200)"></polyline></svg>