<svg xmlns="http://www.w3.org/2000/svg" width="188" height="54"><rect x="0" y="0" width="100%" height="100%" fill="rgb(67,140,102)"></rect><polyline points="15.666666666666666,0,31.333333333333332,9,15.666666666666666,18,0,9" fill="#ddd" fill-opacity="0.08933333333333333" stroke="#000" stroke-opacity="0.02" transform="translate(-15.666666666666666,-9)"></polyline><polyline points="15.666666666666666,0,31.333333333333332,9,15.666666666666666,18,0,9" fill="#ddd" fill-opacity="0.08933333333333333" stroke="#000" stroke-opacity="0.02" transform="translate(172.33333333333334,-9)"></polyline><polyline points="15.666666666666666,0,31.333333333333332,9,15.666666666666666,18,0,9" fill="#ddd" fill-opacity="0.08933333333333333" stroke="#000" stroke-opacity="0.02" transform="translate(-15.666666666666666,45)"></polyline><polyline points="15.666666666666666,0,31.333333333333332,9,15.666666666666666,18,0,9" fill="#ddd" fill-opacity="0.08933333333333333" stroke="#000" stroke-opacity="0.02" transform="translate(172.33333333333334,45)"></polyline><polyline points="15.666666666666666,0,31.333333333333332,9,15.666666666666666,18,0,9" fill="#222" fill-opacity="0.046" stroke="#000" stroke-opacity="0.02" transform="translate(15.666666666666666,-9)"></polyline><polyline points="15.666666666666666,0,31.333333333333332,9,15.666666666666666,18,0,9" fill="#222" fill-opacity="0.046" stroke="#000" stroke-opacity="0.02" transform="translate(15.666666666666666,45)"></polyline><polyline points="15.666666666666666,0,31.333333333333332,9,15.666666666666666,18,0,9" fill="#222" fill-opacity="0.13266666666666665" stroke="#000" stroke-opacity="0.02" transform="translate(47,-9)"></polyline><polyline points="15.666666666666666,0,31.333333333333332,9,15.666666666666666,18,0,9" fill="#222" fill-opacity="0.13266666666666665" stroke="#000" stroke-opacity="0.02" transform="translate(47,45)"></polyline><polyline points="15.666666666666666,0,31.333333333333332,9,15.666666666666666,18,0,9" fill="#222" fill-opacity="0.13266666666666665" stroke="#000" stroke-opacity="0.02" transform="translate(78.33333333333333,-9)"></polyline><polyline points="15.666666666666666,0,31.333333333333332,9,15.666666666666666,18,0,9" fill="#222" fill-opacity="0.13266666666666665" stroke="#000" stroke-opacity="0.02" transform="translate(78.33333333333333,45)"></polyline><polyline points="15.666666666666666,0,31.333333333333332,9,15.666666666666666,18,0,9" fill="#ddd" fill-opacity="0.08933333333333333" stroke="#000" stroke-opacity="0.02" transform="translate(109.66666666666666,-9)"></polyline><polyline points="15.666666666666666,0,31.333333333333332,9,15.666666666666666,18,0,9" fill="#ddd" fill-opacity="0.08933333333333333" stroke="#000" stroke-opacity="0.02" transform="translate(109.66666666666666,45)"></polyline><polyline points="15.666666666666666,0,31.333333333333332,9,15.666666666666666,18,0,9" fill="#222" fill-opacity="0.046" stroke="#000" stroke-opacity="0.02" transform="translate(141,-9)"></polyline><polyline points="15.666666666666666,0,31.333333333333332,9,15.666666666666666,18,0,9" fill="#222" fill-opacity="0.046" stroke="#000" stroke-opacity="0.02" transform="translate(141,45)"></polyline><polyline points="15.666666666666666,0,31.333333333333332,9,15.666666666666666,18,0,9" fill="#222" fill-opacity="0.15" stroke="#000" stroke-opacity="0.02" transform="translate(0,0)"></polyline><polyline points="15.666666666666666,0,31.333333333333332,9,15.666666666666666,18,0,9" fill="#222" fill-opacity="0.15" stroke="#000" stroke-opacity="0.02" transform="translate(188,0)"></polyline><polyline points="15.666666666666666,0,31.333333333333332,9,15.666666666666666,18,0,9" fill="#ddd" fill-opacity="0.14133333333333334" stroke="#000" stroke-opacity="0.02" transform="translate(31.333333333333332,0)"></polyline><polyline points="15.666666666666666,0,31.333333333333332,9,15.666666666666666,18,0,9" fill="#222" fill-opacity="0.08066666666666666" stroke="#000" stroke-opacity="0.02" transform="translate(62.666666666666664,0)"></polyline><polyline points="15.666666666666666,0,31.333333333333332,9,15.666666666666666,18,0,9" fill="#222" fill-opacity="0.15" stroke="#000" stroke-opacity="0.02" transform="translate(94,0)"></polyline><polyline points="15.666666666666666,0,31.333333333333332,9,15.666666666666666,18,0,9" fill="#222" fill-opacity="0.15" stroke="#000" stroke-opacity="0.02" transform="translate(125.33333333333333,0)"></polyline><polyline points="15.666666666666666,0,31.333333333333332,9,15.666666666666666,18,0,9" fill="#ddd" fill-opacity="0.03733333333333333" stroke="#000" stroke-opacity="0.02" transform="translate(156.66666666666666,0)"></polyline><polyline points="15.666666666666666,0,31.333333333333332,9,15.666666666666666,18,0,9" fill="#ddd" fill-opacity="0.07200000000000001" stroke="#000" stroke-opacity="0.02" transform="translate(-15.666666666666666,9)"></polyline><polyline points="15.666666666666666,0,31.333333333333332,9,15.666666666666666,18,0,9" fill="#ddd" fill-opacity="0.07200000000000001" stroke="#000" stroke-opacity="0.02" transform="translate(172.33333333333334,9)"></polyline><polyline points="15.666666666666666,0,31.333333333333332,9,15.666666666666666,18,0,9" fill="#222" fill-opacity="0.06333333333333334" stroke="#000" stroke-opacity="0.02" transform="translate(15.666666666666666,9)"></polyline><polyline points="15.666666666666666,0,31.333333333333332,9,15.666666666666666,18,0,9" fill="#222" fill-opacity="0.098" stroke="#000" stroke-opacity="0.02" transform="translate(47,9)"></polyline><polyline points="15.666666666666666,0,31.333333333333332,9,15.666666666666666,18,0,9" fill="#ddd" fill-opacity="0.07200000000000001" stroke="#000" stroke-opacity="0.02" transform="translate(78.33333333333333,9)"></polyline><polyline points="15.666666666666666,0,31.333333333333332,9,15.666666666666666,18,0,9" fill="#222" fill-opacity="0.098" stroke="#000" stroke-opacity="0.02" transform="translate(109.66666666666666,9)"></polyline><polyline points="15.666666666666666,0,31.333333333333332,9,15.666666666666666,18,0,9" fill="#222" fill-opacity="0.08066666666666666" stroke="#000" stroke-opacity="0.02" transform="translate(141,9)"></polyline><polyline points="15.666666666666666,0,31.333333333333332,9,15.666666666666666,18,0,9" fill="#222" fill-opacity="0.06333333333333334" stroke="#000" stroke-opacity="0.02" transform="translate(0,18)"></polyline><polyline points="15.666666666666666,0,31.333333333333332,9,15.666666666666666,18,0,9" fill="#222" fill-opacity="0.06333333333333334" stroke="#000" stroke-opacity="0.02" transform="translate(188,18)"></polyline><polyline points="15.666666666666666,0,31.333333333333332,9,15.666666666666666,18,0,9" fill="#222" fill-opacity="0.06333333333333334" stroke="#000" stroke-opacity="0.02" transform="translate(31.333333333333332,18)"></polyline><polyline points="15.666666666666666,0,31.333333333333332,9,15.666666666666666,18,0,9" fill="#222" fill-opacity="0.11533333333333334" stroke="#000" stroke-opacity="0.02" transform="translate(62.666666666666664,18)"></polyline><polyline points="15.666666666666666,0,31.333333333333332,9,15.666666666666666,18,0,9" fill="#222" fill-opacity="0.11533333333333334" stroke="#000" stroke-opacity="0.02" transform="translate(94,18)"></polyline><polyline points="15.666666666666666,0,31.333333333333332,9,15.666666666666666,18,0,9" fill="#222" fill-opacity="0.046" stroke="#000" stroke-opacity="0.02" transform="translate(125.33333333333333,18)"></polyline><polyline points="15.666666666666666,0,31.333333333333332,9,15.666666666666666,18,0,9" fill="#ddd" fill-opacity="0.02" stroke="#000" stroke-opacity="0.02" transform="translate(156.66666666666666,18)"></polyline><polyline points="15.666666666666666,0,31.333333333333332,9,15.666666666666666,18,0,9" fill="#222" fill-opacity="0.06333333333333334" stroke="#000" stroke-opacity="0.02" transform="translate(-15.666666666666666,27)"></polyline><polyline points="15.666666666666666,0,31.333333333333332,9,15.666666666666666,18,0,9" fill="#222" fill-opacity="0.06333333333333334" stroke="#000" stroke-opacity="0.02" transform="translate(172.33333333333334,27)"></polyline><polyline points="15.666666666666666,0,31.333333333333332,9,15.666666666666666,18,0,9" fill="#ddd" fill-opacity="0.07200000000000001" stroke="#000" stroke-opacity="0.02" transform="translate(15.666666666666666,27)"></polyline><polyline points="15.666666666666666,0,31.333333333333332,9,15.666666666666666,18,0,9" fill="#222" fill-opacity="0.06333333333333334" stroke="#000" stroke-opacity="0.02" transform="translate(47,27)"></polyline><polyline points="15.666666666666666,0,31.333333333333332,9,15.666666666666666,18,0,9" fill="#ddd" fill-opacity="0.10666666666666667" stroke="#000" stroke-opacity="0.02" transform="translate(78.33333333333333,27)"></polyline><polyline points="15.666666666666666,0,31.333333333333332,9,15.666666666666666,18,0,9" fill="#ddd" fill-opacity="0.02" stroke="#000" stroke-opacity="0.02" transform="translate(109.66666666666666,27)"></polyline><polyline points="15.666666666666666,0,31.333333333333332,9,15.666666666666666,18,0,9" fill="#222" fill-opacity="0.046" stroke="#000" stroke-opacity="0.02" transform="translate(141,27)"></polyline><polyline points="15.666666666666666,0,31.333333333333332,9,15.666666666666666,18,0,9" fill="#ddd" fill-opacity="0.10666666666666667" stroke="#000" stroke-opacity="0.02" transform="translate(0,36)"></polyline><polyline points="15.666666666666666,0,31.333333333333332,9,15.666666666666666,18,0,9" fill="#ddd" fill-opacity="0.10666666666666667" stroke="#000" stroke-opacity="0.02" transform="translate(188,36)"></polyline><polyline points="15.666666666666666,0,31.333333333333332,9,15.666666666666666,18,0,9" fill="#222" fill-opacity="0.028666666666666667" stroke="#000" stroke-opacity="0.02" transform="translate(31.333333333333332,36)"></polyline><polyline points="15.666666666666666,0,31.333333333333332,9,15.666666666666666,18,0,9" fill="#222" fill-opacity="0.06333333333333334" stroke="#000" stroke-opacity="0.02" transform="translate(62.666666666666664,36)"></polyline><polyline points="15.666666666666666,0,31.333333333333332,9,15.666666666666666,18,0,9" fill="#ddd" fill-opacity="0.05466666666666667" stroke="#000" stroke-opacity="0.02" transform="translate(94,36)"></polyline><polyline points="15.666666666666666,0,31.333333333333332,9,15.666666666666666,18,0,9" fill="#ddd" fill-opacity="0.12400000000000001" stroke="#000" stroke-opacity="0.02" transform="translate(125.33333333333333,36)"></polyline><polyline points="15.666666666666666,0,31.333333333333332,9,15.666666666666666,18,0,9" fill="#222" fill-opacity="0.15" stroke="#000" stroke-opacity="0.02" transform="translate(156.66666666666666,36)"></polyline></svg>