<svg xmlns="http://www.w3.org/2000/svg" width="92" height="126"><rect x="0" y="0" width="100%" height="100%" fill="rgb(83,60,147)"></rect><polyline points="7.666666666666666,0,15.333333333333332,21,7.666666666666666,42,0,21" fill="#ddd" fill-opacity="0.03733333333333333" stroke="#000" stroke-opacity="0.02" transform="translate(-7.666666666666666,-21)"></polyline><polyline points="7.666666666666666,0,15.333333333333332,21,7.666666666666666,42,0,21" fill="#ddd" fill-opacity="0.03733333333333333" stroke="#000" stroke-opacity="0.02" transform="translate(84.33333333333333,-21)"></polyline><polyline points="7.666666666666666,0,15.333333333333332,21,7.666666666666666,42,0,21" fill="#ddd" fill-opacity="0.03733333333333333" stroke="#000" stroke-opacity="0.02" transform="translate(-7.666666666666666,105)"></polyline><polyline points="7.666666666666666,0,15.333333333333332,21,7.666666666666666,42,0,21" fill="#ddd" fill-opacity="0.03733333333333333" stroke="#000" stroke-opacity="0.02" transform="translate(84.33333333333333,105)"></polyline><polyline points="7.666666666666666,0,15.333333333333332,21,7.666666666666666,42,0,21" fill="#ddd" fill-opacity="0.12400000000000001" stroke="#000" stroke-opacity="0.02" transform="translate(7.666666666666666,-21)"></polyline><polyline points="7.666666666666666,0,15.333333333333332,21,7.666666666666666,42,0,21" fill="#ddd" fill-opacity="0.12400000000000001" stroke="#000" stroke-opacity="0.02" transform="translate(7.666666666666666,105)"></polyline><polyline points="7.666666666666666,0,15.333333333333332,21,7.666666666666666,42,0,21" fill="#ddd" fill-opacity="0.03733333333333333" stroke="#000" stroke-opacity="0.02" transform="translate(23,-21)"></polyline><polyline points="7.666666666666666,0,15.333333333333332,21,7.666666666666666,42,0,21" fill="#ddd" fill-opacity="0.03733333333333333" stroke="#000" stroke-opacity="0.02" transform="translate(23,105)"></polyline><polyline points="7.666666666666666,0,15.333333333333332,21,7.666666666666666,42,0,21" fill="#222" fill-opacity="0.028666666666666667" stroke="#000" stroke-opacity="0.02" transform="translate(38.333333333333336,-21)"></polyline><polyline points="7.666666666666666,0,15.333333333333332,21,7.666666666666666,42,0,21" fill="#222" fill-opacity="0.028666666666666667" stroke="#000" stroke-opacity="0.02" transform="translate(38.333333333333336,105)"></polyline><polyline points="7.666666666666666,0,15.333333333333332,21,7.666666666666666,42,0,21" fill="#222" fill-opacity="0.028666666666666667" stroke="#000" stroke-opacity="0.02" transform="translate(53.666666666666664,-21)"></polyline><polyline points="7.666666666666666,0,15.333333333333332,21,7.666666666666666,42,0,21" fill="#222" fill-opacity="0.028666666666666667" stroke="#000" stroke-opacity="0.02" transform="translate(53.666666666666664,105)"></polyline><polyline points="7.666666666666666,0,15.333333333333332,21,7.666666666666666,42,0,21" fill="#222" fill-opacity="0.11533333333333334" stroke="#000" stroke-opacity="0.02" transform="translate(68.99999999999999,-21)"></polyline><polyline points="7.666666666666666,0,15.333333333333332,21,7.666666666666666,42,0,21" fill="#222" fill-opacity="0.11533333333333334" stroke="#000" stroke-opacity="0.02" transform="translate(68.99999999999999,105)"></polyline><polyline points="7.666666666666666,0,15.333333333333332,21,7.666666666666666,42,0,21" fill="#222" fill-opacity="0.098" stroke="#000" stroke-opacity="0.02" transform="translate(0,0)"></polyline><polyline points="7.666666666666666,0,15.333333333333332,21,7.666666666666666,42,0,21" fill="#222" fill-opacity="0.098" stroke="#000" stroke-opacity="0.02" transform="translate(92,0)"></polyline><polyline points="7.666666666666666,0,15.333333333333332,21,7.666666666666666,42,0,21" fill="#222" fill-opacity="0.06333333333333334" stroke="#000" stroke-opacity="0.02" transform="translate(15.333333333333332,0)"></polyline><polyline points="7.666666666666666,0,15.333333333333332,21,7.666666666666666,42,0,21" fill="#222" fill-opacity="0.028666666666666667" stroke="#000" stroke-opacity="0.02" transform="translate(30.666666666666664,0)"></polyline><polyline points="7.666666666666666,0,15.333333333333332,21,7.666666666666666,42,0,21" fill="#ddd" fill-opacity="0.10666666666666667" stroke="#000" stroke-opacity="0.02" transform="translate(46,0)"></polyline><polyline points="7.666666666666666,0,15.333333333333332,21,7.666666666666666,42,0,21" fill="#ddd" fill-opacity="0.10666666666666667" stroke="#000" stroke-opacity="0.02" transform="translate(61.33333333333333,0)"></polyline><polyline points="7.666666666666666,0,15.333333333333332,21,7.666666666666666,42,0,21" fill="#222" fill-opacity="0.028666666666666667" stroke="#000" stroke-opacity="0.02" transform="translate(76.66666666666666,0)"></polyline><polyline points="7.666666666666666,0,15.333333333333332,21,7.666666666666666,42,0,21" fill="#ddd" fill-opacity="0.02" stroke="#000" stroke-opacity="0.02" transform="translate(-7.666666666666666,21)"></polyline><polyline points="7.666666666666666,0,15.333333333333332,21,7.666666666666666,42,0,21" fill="#ddd" fill-opacity="0.02" stroke="#000" stroke-opacity="0.02" transform="translate(84.33333333333333,21)"></polyline><polyline points="7.666666666666666,0,15.333333333333332,21,7.666666666666666,42,0,21" fill="#222" fill-opacity="0.13266666666666665" stroke="#000" stroke-opacity="0.02" transform="translate(7.666666666666666,21)"></polyline><polyline points="7.666666666666666,0,15.333333333333332,21,7.666666666666666,42,0,21" fill="#ddd" fill-opacity="0.05466666666666667" stroke="#000" stroke-opacity="0.02" transform="translate(23,21)"></polyline><polyline points="7.666666666666666,0,15.333333333333332,21,7.666666666666666,42,0,21" fill="#ddd" fill-opacity="0.10666666666666667" stroke="#000" stroke-opacity="0.02" transform="translate(38.333333333333336,21)"></polyline><polyline points="7.666666666666666,0,15.333333333333332,21,7.666666666666666,42,0,21" fill="#222" fill-opacity="0.028666666666666667" stroke="#000" stroke-opacity="0.02" transform="translate(53.666666666666664,21)"></polyline><polyline points="7.666666666666666,0,15.333333333333332,21,7.666666666666666,42,0,21" fill="#ddd" fill-opacity="0.02" stroke="#000" stroke-opacity="0.02" transform="translate(68.99999999999999,21)"></polyline><polyline points="7.666666666666666,0,15.333333333333332,21,7.666666666666666,42,0,21" fill="#ddd" fill-opacity="0.07200000000000001" stroke="#000" stroke-opacity="0.02" transform="translate(0,42)"></polyline><polyline points="7.666666666666666,0,15.333333333333332,21,7.666666666666666,42,0,21" fill="#ddd" fill-opacity="0.07200000000000001" stroke="#000" stroke-opacity="0.02" transform="translate(92,42)"></polyline><polyline points="7.666666666666666,0,15.333333333333332,21,7.666666666666666,42,0,21" fill="#ddd" fill-opacity="0.14133333333333334" stroke="#000" stroke-opacity="0.02" transform="translate(15.333333333333332,42)"></polyline><polyline points="7.666666666666666,0,15.333333333333332,21,7.666666666666666,42,0,21" fill="#222" fill-opacity="0.11533333333333334" stroke="#000" stroke-opacity="0.02" transform="translate(30.666666666666664,42)"></polyline><polyline points="7.666666666666666,0,15.333333333333332,21,7.666666666666666,42,0,21" fill="#222" fill-opacity="0.098" stroke="#000" stroke-opacity="0.02" transform="translate(46,42)"></polyline><polyline points="7.666666666666666,0,15.333333333333332,21,7.666666666666666,42,0,21" fill="#222" fill-opacity="0.11533333333333334" stroke="#000" stroke-opacity="0.02" transform="translate(61.33333333333333,42)"></polyline><polyline points="7.666666666666666,0,15.333333333333332,21,7.666666666666666,42,0,21" fill="#ddd" fill-opacity="0.05466666666666667" stroke="#000" stroke-opacity="0.02" transform="translate(76.66666666666666,42)"></polyline><polyline points="7.666666666666666,0,15.333333333333332,21,7.666666666666666,42,0,21" fill="#222" fill-opacity="0.046" stroke="#000" stroke-opacity="0.02" transform="translate(-7.666666666666666,63)"></polyline><polyline points="7.666666666666666,0,15.333333333333332,21,7.666666666666666,42,0,21" fill="#222" fill-opacity="0.046" stroke="#000" stroke-opacity="0.02" transform="translate(84.33333333333333,63)"></polyline><polyline points="7.666666666666666,0,15.333333333333332,21,7.666666666666666,42,0,21" fill="#ddd" fill-opacity="0.03733333333333333" stroke="#000" stroke-opacity="0.02" transform="translate(7.666666666666666,63)"></polyline><polyline points="7.666666666666666,0,15.333333333333332,21,7.666666666666666,42,0,21" fill="#ddd" fill-opacity="0.07200000000000001" stroke="#000" stroke-opacity="0.02" transform="translate(23,63)"></polyline><polyline points="7.666666666666666,0,15.333333333333332,21,7.666666666666666,42,0,21" fill="#ddd" fill-opacity="0.07200000000000001" stroke="#000" stroke-opacity="0.02" transform="translate(38.333333333333336,63)"></polyline><polyline points="7.666666666666666,0,15.333333333333332,21,7.666666666666666,42,0,21" fill="#ddd" fill-opacity="0.08933333333333333" stroke="#000" stroke-opacity="0.02" transform="translate(53.666666666666664,63)"></polyline><polyline points="7.666666666666666,0,15.333333333333332,21,7.666666666666666,42,0,21" fill="#222" fill-opacity="0.13266666666666665" stroke="#000" stroke-opacity="0.02" transform="translate(68.99999999999999,63)"></polyline><polyline points="7.666666666666666,0,15.333333333333332,21,7.666666666666666,42,0,21" fill="#222" fill-opacity="0.11533333333333334" stroke="#000" stroke-opacity="0.02" transform="translate(0,84)"></polyline><polyline points="7.666666666666666,0,15.333333333333332,21,7.666666666666666,42,0,21" fill="#222" fill-opacity="0.11533333333333334" stroke="#000" stroke-opacity="0.02" transform="translate(92,84)"></polyline><polyline points="7.666666666666666,0,15.333333333333332,21,7.666666666666666,42,0,21" fill="#222" fill-opacity="0.15" stroke="#000" stroke-opacity="0.02" transform="translate(15.333333333333332,84)"></polyline><polyline points="7.666666666666666,0,15.333333333333332,21,7.666666666666666,42,0,21" fill="#222" fill-opacity="0.028666666666666667" stroke="#000" stroke-opacity="0.02" transform="translate(30.666666666666664,84)"></polyline><polyline points="7.666666666666666,0,15.333333333333332,21,7.666666666666666,42,0,21" fill="#222" fill-opacity="0.13266666666666665" stroke="#000" stroke-opacity="0.02" transform="translate(46,84)"></polyline><polyline points="7.666666666666666,0,15.333333333333332,21,7.666666666666666,42,0,21" fill="#ddd" fill-opacity="0.08933333333333333" stroke="#000" stroke-opacity="0.02" transform="translate(61.33333333333333,84)"></polyline><polyline points="7.666666666666666,0,15.333333333333332,21,7.666666666666666,42,0,21" fill="#ddd" fill-opacity="0.08933333333333333" stroke="#000" stroke-opacity="0.02" transform="translate(76.66666666666666,84)"></polyline></svg>