<svg xmlns="http://www.w3.org/2000/svg" width="120" height="792"><rect x="0" y="0" width="100%" height="100%" fill="rgb(46,161,51)"></rect><path d="M0 86 C 21 0, 39 0, 60 86 S 99 172, 120 86 S 159 0, 180, 86" fill="none" stroke="#222" opacity="0.028666666666666667" stroke-width="22px" transform="translate(-30,-129)"></path><path d="M0 86 C 21 0, 39 0, 60 86 S 99 172, 120 86 S 159 0, 180, 86" fill="none" stroke="#222" opacity="0.028666666666666667" stroke-width="22px" transform="translate(-30,663)"></path><path d="M0 86 C 21 0, 39 0, 60 86 S 99 172, 120 86 S 159 0, 180, 86" fill="none" stroke="#ddd" opacity="0.12400000000000001" stroke-width="22px" transform="translate(-30,-107)"></path><path d="M0 86 C 21 0, 39 0, 60 86 S 99 172, 120 86 S 159 0, 180, 86" fill="none" stroke="#ddd" opacity="0.12400000000000001" stroke-width="22px" transform="translate(-30,685)"></path><path d="M0 86 C 21 0, 39 0, 60 86 S 99 172, 120 86 S 159 0, 180, 86" fill="none" stroke="#222" opacity="0.11533333333333334" stroke-width="22px" transform="translate(-30,-85)"></path><path d="M0 86 C 21 0, 39 0, 60 86 S 99 172, 120 86 S 159 0, 180, 86" fill="none" stroke="#222" opacity="0.11533333333333334" stroke-width="22px" transform="translate(-30,707)"></path><path d="M0 86 C 21 0, 39 0, 60 86 S 99 172, 120 86 S 159 0, 180, 86" fill="none" stroke="#222" opacity="0.046" stroke-width="22px" transform="translate(-30,-63)"></path><path d="M0 86 C 21 0, 39 0, 60 86 S 99 172, 120 86 S 159 0, 180, 86" fill="none" stroke="#222" opacity="0.046" stroke-width="22px" transform="translate(-30,729)"></path><path d="M0 86 C 21 0, 39 0, 60 86 S 99 172, 120 86 S 159 0, 180, 86" fill="none" stroke="#222" opacity="0.06333333333333334" stroke-width="22px" transform="translate(-30,-41)"></path><path d="M0 86 C 21 0, 39 0, 60 86 S 99 172, 120 86 S 159 0, 180, 86" fill="none" stroke="#222" opacity="0.06333333333333334" stroke-width="22px" transform="translate(-30,751)"></path><path d="M0 86 C 21 0, 39 0, 60 86 S 99 172, 120 86 S 159 0, 180, 86" fill="none" stroke="#222" opacity="0.098" stroke-width="22px" transform="translate(-30,-19)"></path><path d="M0 86 C 21 0, 39 0, 60 86 S 99 172, 120 86 S 159 0, 180, 86" fill="none" stroke="#222" opacity="0.098" stroke-width="22px" transform="translate(-30,773)"></path><path d="M0 86 C 21 0, 39 0, 60 86 S 99 172, 120 86 S 159 0, 180, 86" fill="none" stroke="#222" opacity="0.046" stroke-width="22px" transform="translate(-30,3)"></path><path d="M0 86 C 21 0, 39 0, 60 86 S 99 172, 120 86 S 159 0, 180, 86" fill="none" stroke="#222" opacity="0.046" stroke-width="22px" transform="translate(-30,795)"></path><path d="M0 86 C 21 0, 39 0, 60 86 S 99 172, 120 86 S 159 0, 180, 86" fill="none" stroke="#222" opacity="0.098" stroke-width="22px" transform="translate(-30,25)"></path><path d="M0 86 C 21 0, 39 0, 60 86 S 99 172, 120 86 S 159 0, 180, 86" fill="none" stroke="#222" opacity="0.098" stroke-width="22px" transform="translate(-30,817)"></path><path d="M0 86 C 21 0, 39 0, 60 86 S 99 172, 120 86 S 159 0, 180, 86" fill="none" stroke="#222" opacity="0.08066666666666666" stroke-width="22px" transform="translate(-30,47)"></path><path d="M0 86 C 21 0, 39 0, 60 86 S 99 172, 120 86 S 159 0, 180, 86" fill="none" stroke="#222" opacity="0.08066666666666666" stroke-width="22px" transform="translate(-30,839)"></path><path d="M0 86 C 21 0, 39 0, 60 86 S 99 172, 120 86 S 159 0, 180, 86" fill="none" stroke="#ddd" opacity="0.03733333333333333" stroke-width="22px" transform="translate(-30,69)"></path><path d="M0 86 C 21 0, 39 0, 60 86 S 99 172, 120 86 S 159 0, 180, 86" fill="none" stroke="#ddd" opacity="0.03733333333333333" stroke-width="22px" transform="translate(-30,861)"></path><path d="M0 86 C 21 0, 39 0, 60 86 S 99 172, 120 86 S 159 0, 180, 86" fill="none" stroke="#ddd" opacity="0.14133333333333334" stroke-width="22px" transform="translate(-30,91)"></path><path d="M0 86 C 21 0, 39 0, 60 86 S 99 172, 120 86 S 159 0, 180, 86" fill="none" stroke="#ddd" opacity="0.14133333333333334" stroke-width="22px" transform="translate(-30,883)"></path><path d="M0 86 C 21 0, 39 0, 60 86 S 99 172, 120 86 S 159 0, 180, 86" fill="none" stroke="#ddd" opacity="0.05466666666666667" stroke-width="22px" transform="translate(-30,113)"></path><path d="M0 86 C 21 0, 39 0, 60 86 S 99 172, 120 86 S 159 0, 180, 86" fill="none" stroke="#ddd" opacity="0.05466666666666667" stroke-width="22px" transform="translate(-30,905)"></path><path d="M0 86 C 21 0, 39 0, 60 86 S 99 172, 120 86 S 159 0, 180, 86" fill="none" stroke="#ddd" opacity="0.12400000000000001" stroke-width="22px" transform="translate(-30,135)"></path><path d="M0 86 C 21 0, 39 0, 60 86 S 99 172, 120 86 S 159 0, 180, 86" fill="none" stroke="#ddd" opacity="0.12400000000000001" stroke-width="22px" transform="translate(-30,927)"></path><path d="M0 86 C 21 0, 39 0, 60 86 S 99 172, 120 86 S 159 0, 180, 86" fill="none" stroke="#ddd" opacity="0.03733333333333333" stroke-width="22px" transform="translate(-30,157)"></path><path d="M0 86 C 21 0, 39 0, 60 86 S 99 172, 120 86 S 159 0, 180, 86" fill="none" stroke="#ddd" opacity="0.03733333333333333" stroke-width="22px" transform="translate(-30,949)"></path><path d="M0 86 C 21 0, 39 0, 60 86 S 99 172, 120 86 S 159 0, 180, 86" fill="none" stroke="#ddd" opacity="0.10666666666666667" stroke-width="22px" transform="translate(-30,179)"></path><path d="M0 86 C 21 0, 39 0, 60 86 S 99 172, 120 86 S 159 0, 180, 86" fill="none" stroke="#ddd" opacity="0.10666666666666667" stroke-width="22px" transform="translate(-30,971)"></path><path d="M0 86 C 21 0, 39 0, 60 86 S 99 172, 120 86 S 159 0, 180, 86" fill="none" stroke="#222" opacity="0.098" stroke-width="22px" transform="translate(-30,201)"></path><path d="M0 86 C 21 0, 39 0, 60 86 S 99 172, 120 86 S 159 0, 180, 86" fill="none" stroke="#222" opacity="0.098" stroke-width="22px" transform="translate(-30,993)"></path><path d="M0 86 C 21 0, 39 0, 60 86 S 99 172, 120 86 S 159 0, 180, 86" fill="none" stroke="#222" opacity="0.046" stroke-width="22px" transform="translate(-30,223)"></path><path d="M0 86 C 21 0, 39 0, 60 86 S 99 172, 120 86 S 159 0, 180, 86" fill="none" stroke="#222" opacity="0.046" stroke-width="22px" transform="translate(-30,1015)"></path><path d="M0 86 C 21 0, 39 0, 60 86 S 99 172, 120 86 S 159 0, 180, 86" fill="none" stroke="#ddd" opacity="0.14133333333333334" stroke-width="22px" transform="translate(-30,245)"></path><path d="M0 86 C 21 0, 39 0, 60 86 S 99 172, 120 86 S 159 0, 180, 86" fill="none" stroke="#ddd" opacity="0.14133333333333334" stroke-width="22px" transform="translate(-30,1037)"></path><path d="M0 86 C 21 0, 39 0, 60 86 S 99 172, 120 86 S 159 0, 180, 86" fill="none" stroke="#222" opacity="0.098" stroke-width="22px" transform="translate(-30,267)"></path><path d="M0 86 C 21 0, 39 0, 60 86 S 99 172, 120 86 S 159 0, 180, 86" fill="none" stroke="#222" opacity="0.098" stroke-width="22px" transform="translate(-30,1059)"></path><path d="M0 86 C 21 0, 39 0, 60 86 S 99 172, 120 86 S 159 0, 180, 86" fill="none" stroke="#222" opacity="0.15" stroke-width="22px" transform="translate(-30,289)"></path><path d="M0 86 C 21 0, 39 0, 60 86 S 99 172, 120 86 S 159 0, 180, 86" fill="none" stroke="#222" opacity="0.15" stroke-width="22px" transform="translate(-30,1081)"></path><path d="M0 86 C 21 0, 39 0, 60 86 S 99 172, 120 86 S 159 0, 180, 86" fill="none" stroke="#ddd" opacity="0.05466666666666667" stroke-width="22px" transform="translate(-30,311)"></path><path d="M0 86 C 21 0, 39 0, 60 86 S 99 172, 120 86 S 159 0, 180, 86" fill="none" stroke="#ddd" opacity="0.05466666666666667" stroke-width="22px" transform="translate(-30,1103)"></path><path d="M0 86 C 21 0, 39 0, 60 86 S 99 172, 120 86 S 159 0, 180, 86" fill="none" stroke="#222" opacity="0.028666666666666667" stroke-width="22px" transform="translate(-30,333)"></path><path d="M0 86 C 21 0, 39 0, 60 86 S 99 172, 120 86 S 159 0, 180, 86" fill="none" stroke="#222" opacity="0.028666666666666667" stroke-width="22px" transform="translate(-30,1125)"></path><path d="M0 86 C 21 0, 39 0, 60 86 S 99 172, 120 86 S 159 0, 180, 86" fill="none" stroke="#ddd" opacity="0.10666666666666667" stroke-width="22px" transform="translate(-30,355)"></path><path d="M0 86 C 21 0, 39 0, 60 86 S 99 172, 120 86 S 159 0, 180, 86" fill="none" stroke="#ddd" opacity="0.10666666666666667" stroke-width="22px" transform="translate(-30,1147)"></path><path d="M0 86 C 21 0, 39 0, 60 86 S 99 172, 120 86 S 159 0, 180, 86" fill="none" stroke="#222" opacity="0.08066666666666666" stroke-width="22px" transform="translate(-30,377)"></path><path d="M0 86 C 21 0, 39 0, 60 86 S 99 172, 120 86 S 159 0, 180, 86" fill="none" stroke="#222" opacity="0.08066666666666666" stroke-width="22px" transform="translate(-30,1169)"></path><path d="M0 86 C 21 0, 39 0, 60 86 S 99 172, 120 86 S 159 0, 180, 86" fill="none" stroke="#222" opacity="0.13266666666666665" stroke-width="22px" transform="translate(-30,399)"></path><path d="M0 86 C 21 0, 39 0, 60 86 S 99 172, 120 86 S 159 0, 180, 86" fill="none" stroke="#222" opacity="0.13266666666666665" stroke-width="22px" transform="translate(-30,1191)"></path><path d="M0 86 C 21 0, 39 0, 60 86 S 99 172, 120 86 S 159 0, 180, 86" fill="none" stroke="#222" opacity="0.15" stroke-width="22px" transform="translate(-30,421)"></path><path d="M0 86 C 21 0, 39 0, 60 86 S 99 172, 120 86 S 159 0, 180, 86" fill="none" stroke="#222" opacity="0.15" stroke-width="22px" transform="translate(-30,1213)"></path><path d="M0 86 C 21 0, 39 0, 60 86 S 99 172, 120 86 S 159 0, 180, 86" fill="none" stroke="#222" opacity="0.15" stroke-width="22px" transform="translate(-30,443)"></path><path d="M0 86 C 21 0, 39 0, 60 86 S 99 172, 120 86 S 159 0, 180, 86" fill="none" stroke="#222" opacity="0.15" stroke-width="22px" transform="translate(-30,1235)"></path><path d="M0 86 C 21 0, 39 0, 60 86 S 99 172, 120 86 S 159 0, 180, 86" fill="none" stroke="#ddd" opacity="0.12400000000000001" stroke-width="22px" transform="translate(-30,465)"></path><path d="M0 86 C 21 0, 39 0, 60 86 S 99 172, 120 86 S 159 0, 180, 86" fill="none" stroke="#ddd" opacity="0.12400000000000001" stroke-width="22px" transform="translate(-30,1257)"></path><path d="M0 86 C 21 0, 39 0, 60 86 S 99 172, 120 86 S 159 0, 180, 86" fill="none" stroke="#ddd" opacity="0.12400000000000001" stroke-width="22px" transform="translate(-30,487)"></path><path d="M0 86 C 21 0, 39 0, 60 86 S 99 172, 120 86 S 159 0, 180, 86" fill="none" stroke="#ddd" opacity="0.12400000000000001" stroke-width="22px" transform="translate(-30,1279)"></path><path d="M0 86 C 21 0, 39 0, 60 86 S 99 172, 120 86 S 159 0, 180, 86" fill="none" stroke="#222" opacity="0.11533333333333334" stroke-width="22px" transform="translate(-30,509)"></path><path d="M0 86 C 21 0, 39 0, 60 86 S 99 172, 120 86 S 159 0, 180, 86" fill="none" stroke="#222" opacity="0.11533333333333334" stroke-width="22px" transform="translate(-30,1301)"></path><path d="M0 86 C 21 0, 39 0, 60 86 S 99 172, 120 86 S 159 0, 180, 86" fill="none" stroke="#ddd" opacity="0.08933333333333333" stroke-width="22px" transform="translate(-30,531)"></path><path d="M0 86 C 21 0, 39 0, 60 86 S 99 172, 120 86 S 159 0, 180, 86" fill="none" stroke="#ddd" opacity="0.08933333333333333" stroke-width="22px" transform="translate(-30,1323)"></path><path d="M0 86 C 21 0, 39 0, 60 86 S 99 172, 120 86 S 159 0, 180, 86" fill="none" stroke="#ddd" opacity="0.02" stroke-width="22px" transform="translate(-30,553)"></path><path d="M0 86 C 21 0, 39 0, 60 86 S 99 172, 120 86 S 159 0, 180, 86" fill="none" stroke="#ddd" opacity="0.02" stroke-width="22px" transform="translate(-30,1345)"></path><path d="M0 86 C 21 0, 39 0, 60 86 S 99 172, 120 86 S 159 0, 180, 86" fill="none" stroke="#222" opacity="0.13266666666666665" stroke-width="22px" transform="translate(-30,575)"></path><path d="M0 86 C 21 0, 39 0, 60 86 S 99 172, 120 86 S 159 0, 180, 86" fill="none" stroke="#222" opacity="0.13266666666666665" stroke-width="22px" transform="translate(-30,1367)"></path><path d="M0 86 C 21 0, 39 0, 60 86 S 99 172, 120 86 S 159 0, 180, 86" fill="none" stroke="#ddd" opacity="0.07200000000000001" stroke-width="22px" transform="translate(-30,597)"></path><path d="M0 86 C 21 0, 39 0, 60 86 S 99 172, 120 86 S 159 0, 180, 86" fill="none" stroke="#ddd" opacity="0.07200000000000001" stroke-width="22px" transform="translate(-30,1389)"></path><path d="M0 86 C 21 0, 39 0, 60 86 S 99 172, 120 86 S 159 0, 180, 86" fill="none" stroke="#ddd" opacity="0.03733333333333333" stroke-width="22px" transform="translate(-30,619)"></path><path d="M0 86 C 21 0, 39 0, 60 86 S 99 172, 120 86 S 159 0, 180, 86" fill="none" stroke="#ddd" opacity="0.03733333333333333" stroke-width="22px" transform="translate(-30,1411)"></path><path d="M0 86 C 21 0, 39 0, 60 86 S 99 172, 120 86 S 159 0, 180, 86" fill="none" stroke="#ddd" opacity="0.07200000000000001" stroke-width="22px" transform="translate(-30,641)"></path><path d="M0 86 C 21 0, 39 0, 60 86 S 99 172, 120 86 S 159 0, 180, 86" fill="none" stroke="#ddd" opacity="0.07200000000000001" stroke-width="22px" transform="translate(-30,1433)"></path></svg>