<svg xmlns="http://www.w3.org/2000/svg" width="481" height="481"><rect x="0" y="0" width="100%" height="100%" fill="rgb(157,100,50)"></rect><rect x="0" y="20" width="100%" height="7" opacity="0.03733333333333333" fill="#ddd"></rect><rect x="0" y="32" width="100%" height="15" opacity="0.10666666666666667" fill="#ddd"></rect><rect x="0" y="57" width="100%" height="18" opacity="0.13266666666666665" fill="#222"></rect><rect x="0" y="83" width="100%" height="14" opacity="0.098" fill="#222"></rect><rect x="0" y="110" width="100%" height="11" opacity="0.07200000000000001" fill="#ddd"></rect><rect x="0" y="128" width="100%" height="16" opacity="0.11533333333333334" fill="#222"></rect><rect x="0" y="152" width="100%" height="15" opacity="0.10666666666666667" fill="#ddd"></rect><rect x="0" y="186" width="100%" height="17" opacity="0.12400000000000001" fill="#ddd"></rect><rect x="0" y="217" width="100%" height="15" opacity="0.10666666666666667" fill="#ddd"></rect><rect x="0" y="244" width="100%" height="8" opacity="0.046" fill="#222"></rect><rect x="0" y="264" width="100%" height="7" opacity="0.03733333333333333" fill="#ddd"></rect><rect x="0" y="288" width="100%" height="16" opacity="0.11533333333333334" fill="#222"></rect><rect x="0" y="318" width="100%" height="15" opacity="0.10666666666666667" fill="#ddd"></rect><rect x="0" y="344" width="100%" height="19" opacity="0.14133333333333334" fill="#ddd"></rect><rect x="0" y="373" width="100%" height="14" opacity="0.098" fill="#222"></rect><rect x="0" y="407" width="100%" height="18" opacity="0.13266666666666665" fill="#222"></rect><rect x="0" y="436" width="100%" height="19" opacity="0.14133333333333334" fill="#ddd"></rect><rect x="0" y="471" width="100%" height="10" opacity="0.06333333333333334" fill="#222"></rect><rect x="20" y="0" width="7" height="100%" opacity="0.03733333333333333" fill="#ddd"></rect><rect x="32" y="0" width="15" height="100%" opacity="0.10666666666666667" fill="#ddd"></rect><rect x="57" y="0" width="18" height="100%" opacity="0.13266666666666665" fill="#222"></rect><rect x="83" y="0" width="14" height="100%" opacity="0.098" fill="#222"></rect><rect x="110" y="0" width="11" height="100%" opacity="0.07200000000000001" fill="#ddd"></rect><rect x="128" y="0" width="16" height="100%" opacity="0.11533333333333334" fill="#222"></rect><rect x="152" y="0" width="15" height="100%" opacity="0.10666666666666667" fill="#ddd"></rect><rect x="186" y="0" width="17" height="100%" opacity="0.12400000000000001" fill="#ddd"></rect><rect x="217" y="0" width="15" height="100%" opacity="0.10666666666666667" fill="#ddd"></rect><rect x="244" y="0" width="8" height="100%" opacity="0.046" fill="#222"></rect><rect x="264" y="0" width="7" height="100%" opacity="0.03733333333333333" fill="#ddd"></rect><rect x="288" y="0" width="16" height="100%" opacity="0.11533333333333334" fill="#222"></rect><rect x="318" y="0" width="15" height="100%" opacity="0.10666666666666667" fill="#ddd"></rect><rect x="344" y="0" width="19" height="100%" opacity="0.14133333333333334" fill="#ddd"></rect><rect x="373" y="0" width="14" height="100%" opacity="0.098" fill="#222"></rect><rect x="407" y="0" width="18" height="100%" opacity="0.13266666666666665" fill="#222"></rect><rect x="436" y="0" width="19" height="100%" opacity="0.14133333333333334" fill="#ddd"></rect><rect x="471" y="0" width="10" height="100%" opacity="0.06333333333333334" fill="#222"></rect></svg>