<svg xmlns="http://www.w3.org/2000/svg" width="60" height="60"><rect x="0" y="0" width="100%" height="100%" fill="rgb(116,73,134)"></rect><polyline points="3.3000000000000003,0,6.699999999999999,0,10,3.3000000000000003,10,6.699999999999999,6.699999999999999,10,3.3000000000000003,10,0,6.699999999999999,0,3.3000000000000003,3.3000000000000003,0" fill="#ddd" fill-opacity="0.02" stroke="#000" stroke-opacity="0.02" transform="translate(0,0)"></polyline><polyline points="3.3000000000000003,0,6.699999999999999,0,10,3.3000000000000003,10,6.699999999999999,6.699999999999999,10,3.3000000000000003,10,0,6.699999999999999,0,3.3000000000000003,3.3000000000000003,0" fill="#ddd" fill-opacity="0.03733333333333333" stroke="#000" stroke-opacity="0.02" transform="translate(10,0)"></polyline><polyline points="3.3000000000000003,0,6.699999999999999,0,10,3.3000000000000003,10,6.699999999999999,6.699999999999999,10,3.3000000000000003,10,0,6.699999999999999,0,3.3000000000000003,3.3000000000000003,0" fill="#222" fill-opacity="0.098" stroke="#000" stroke-opacity="0.02" transform="translate(20,0)"></polyline><polyline points="3.3000000000000003,0,6.699999999999999,0,10,3.3000000000000003,10,6.699999999999999,6.699999999999999,10,3.3000000000000003,10,0,6.699999999999999,0,3.3000000000000003,3.3000000000000003,0" fill="#222" fill-opacity="0.046" stroke="#000" stroke-opacity="0.02" transform="translate(30,0)"></polyline><polyline points="3.3000000000000003,0,6.699999999999999,0,10,3.3000000000000003,10,6.699999999999999,6.699999999999999,10,3.3000000000000003,10,0,6.699999999999999,0,3.3000000000000003,3.3000000000000003,0" fill="#222" fill-opacity="0.11533333333333334" stroke="#000" stroke-opacity="0.02" transform="translate(40,0)"></polyline><polyline points="3.3000000000000003,0,6.699999999999999,0,10,3.3000000000000003,10,6.699999999999999,6.699999999999999,10,3.3000000000000003,10,0,6.699999999999999,0,3.3000000000000003,3.3000000000000003,0" fill="#222" fill-opacity="0.11533333333333334" stroke="#000" stroke-opacity="0.02" transform="translate(50,0)"></polyline><polyline points="3.3000000000000003,0,6.699999999999999,0,10,3.3000000000000003,10,6.699999999999999,6.699999999999999,10,3.3000000000000003,10,0,6.699999999999999,0,3.3000000000000003,3.3000000000000003,0" fill="#ddd" fill-opacity="0.08933333333333333" stroke="#000" stroke-opacity="0.02" transform="translate(0,10)"></polyline><polyline points="3.3000000000000003,0,6.699999999999999,0,10,3.3000000000000003,10,6.699999999999999,6.699999999999999,10,3.3000000000000003,10,0,6.699999999999999,0,3.3000000000000003,3.3000000000000003,0" fill="#222" fill-opacity="0.15" stroke="#000" stroke-opacity="0.02" transform="translate(10,10)"></polyline><polyline points="3.3000000000000003,0,6.699999999999999,0,10,3.3000000000000003,10,6.699999999999999,6.699999999999999,10,3.3000000000000003,10,0,6.699999999999999,0,3.3000000000000003,3.3000000000000003,0" fill="#222" fill-opacity="0.15" stroke="#000" stroke-opacity="0.02" transform="translate(20,10)"></polyline><polyline points="3.3000000000000003,0,6.699999999999999,0,10,3.3000000000000003,10,6.699999999999999,6.699999999999999,10,3.3000000000000003,10,0,6.699999999999999,0,3.3000000000000003,3.3000000000000003,0" fill="#ddd" fill-opacity="0.07200000000000001" stroke="#000" stroke-opacity="0.02" transform="translate(30,10)"></polyline><polyline points="3.3000000000000003,0,6.699999999999999,0,10,3.3000000000000003,10,6.699999999999999,6.699999999999999,10,3.3000000000000003,10,0,6.699999999999999,0,3.3000000000000003,3.3000000000000003,0" fill="#ddd" fill-opacity="0.05466666666666667" stroke="#000" stroke-opacity="0.02" transform="translate(40,10)"></polyline><polyline points="3.3000000000000003,0,6.699999999999999,0,10,3.3000000000000003,10,6.699999999999999,6.699999999999999,10,3.3000000000000003,10,0,6.699999999999999,0,3.3000000000000003,3.3000000000000003,0" fill="#ddd" fill-opacity="0.03733333333333333" stroke="#000" stroke-opacity="0.02" transform="translate(50,10)"></polyline><polyline points="3.3000000000000003,0,6.699999999999999,0,10,3.3000000000000003,10,6.699999999999999,6.699999999999999,10,3.3000000000000003,10,0,6.699999999999999,0,3.3000000000000003,3.3000000000000003,0" fill="#ddd" fill-opacity="0.05466666666666667" stroke="#000" stroke-opacity="0.02" transform="translate(0,20)"></polyline><polyline points="3.3000000000000003,0,6.699999999999999,0,10,3.3000000000000003,10,6.699999999999999,6.699999999999999,10,3.3000000000000003,10,0,6.699999999999999,0,3.3000000000000003,3.3000000000000003,0" fill="#ddd" fill-opacity="0.14133333333333334" stroke="#000" stroke-opacity="0.02" transform="translate(10,20)"></polyline><polyline points="3.3000000000000003,0,6.699999999999999,0,10,3.3000000000000003,10,6.699999999999999,6.699999999999999,10,3.3000000000000003,10,0,6.699999999999999,0,3.3000000000000003,3.3000000000000003,0" fill="#222" fill-opacity="0.046" stroke="#000" stroke-opacity="0.02" transform="translate(20,20)"></polyline><polyline points="3.3000000000000003,0,6.699999999999999,0,10,3.3000000000000003,10,6.699999999999999,6.699999999999999,10,3.3000000000000003,10,0,6.699999999999999,0,3.3000000000000003,3.3000000000000003,0" fill="#222" fill-opacity="0.08066666666666666" stroke="#000" stroke-opacity="0.02" transform="translate(30,20)"></polyline><polyline points="3.3000000000000003,0,6.699999999999999,0,10,3.3000000000000003,10,6.699999999999999,6.699999999999999,10,3.3000000000000003,10,0,6.699999999999999,0,3.3000000000000003,3.3000000000000003,0" fill="#ddd" fill-opacity="0.05466666666666667" stroke="#000" stroke-opacity="0.02" transform="translate(40,20)"></polyline><polyline points="3.3000000000000003,0,6.699999999999999,0,10,3.3000000000000003,10,6.699999999999999,6.699999999999999,10,3.3000000000000003,10,0,6.699999999999999,0,3.3000000000000003,3.3000000000000003,0" fill="#222" fill-opacity="0.13266666666666665" stroke="#000" stroke-opacity="0.02" transform="translate(50,20)"></polyline><polyline points="3.3000000000000003,0,6.699999999999999,0,10,3.3000000000000003,10,6.699999999999999,6.699999999999999,10,3.3000000000000003,10,0,6.699999999999999,0,3.3000000000000003,3.3000000000000003,0" fill="#222" fill-opacity="0.098" stroke="#000" stroke-opacity="0.02" transform="translate(0,30)"></polyline><polyline points="3.3000000000000003,0,6.699999999999999,0,10,3.3000000000000003,10,6.699999999999999,6.699999999999999,10,3.3000000000000003,10,0,6.699999999999999,0,3.3000000000000003,3.3000000000000003,0" fill="#ddd" fill-opacity="0.05466666666666667" stroke="#000" stroke-opacity="0.02" transform="translate(10,30)"></polyline><polyline points="3.3000000000000003,0,6.699999999999999,0,10,3.3000000000000003,10,6.699999999999999,6.699999999999999,10,3.3000000000000003,10,0,6.699999999999999,0,3.3000000000000003,3.3000000000000003,0" fill="#ddd" fill-opacity="0.02" stroke="#000" stroke-opacity="0.02" transform="translate(20,30)"></polyline><polyline points="3.3000000000000003,0,6.699999999999999,0,10,3.3000000000000003,10,6.699999999999999,6.699999999999999,10,3.3000000000000003,10,0,6.699999999999999,0,3.3000000000000003,3.3000000000000003,0" fill="#ddd" fill-opacity="0.03733333333333333" stroke="#000" stroke-opacity="0.02" transform="translate(30,30)"></polyline><polyline points="3.3000000000000003,0,6.699999999999999,0,10,3.3000000000000003,10,6.699999999999999,6.699999999999999,10,3.3000000000000003,10,0,6.699999999999999,0,3.3000000000000003,3.3000000000000003,0" fill="#ddd" fill-opacity="0.12400000000000001" stroke="#000" stroke-opacity="0.02" transform="translate(40,30)"></polyline><polyline points="3.3000000000000003,0,6.699999999999999,0,10,3.3000000000000003,10,6.699999999999999,6.699999999999999,10,3.3000000000000003,10,0,6.699999999999999,0,3.3000000000000003,3.3000000000000003,0" fill="#222" fill-opacity="0.15" stroke="#000" stroke-opacity="0.02" transform="translate(50,30)"></polyline><polyline points="3.3000000000000003,0,6.699999999999999,0,10,3.3000000000000003,10,6.699999999999999,6.699999999999999,10,3.3000000000000003,10,0,6.699999999999999,0,3.3000000000000003,3.3000000000000003,0" fill="#ddd" fill-opacity="0.12400000000000001" stroke="#000" stroke-opacity="0.02" transform="translate(0,40)"></polyline><polyline points="3.3000000000000003,0,6.699999999999999,0,10,3.3000000000000003,10,6.699999999999999,6.699999999999999,10,3.3000000000000003,10,0,6.699999999999999,0,3.3000000000000003,3.3000000000000003,0" fill="#ddd" fill-opacity="0.08933333333333333" stroke="#000" stroke-opacity="0.02" transform="translate(10,40)"></polyline><polyline points="3.3000000000000003,0,6.699999999999999,0,10,3.3000000000000003,10,6.699999999999999,6.699999999999999,10,3.3000000000000003,10,0,6.699999999999999,0,3.3000000000000003,3.3000000000000003,0" fill="#222" fill-opacity="0.11533333333333334" stroke="#000" stroke-opacity="0.02" transform="translate(20,40)"></polyline><polyline points="3.3000000000000003,0,6.699999999999999,0,10,3.3000000000000003,10,6.699999999999999,6.699999999999999,10,3.3000000000000003,10,0,6.699999999999999,0,3.3000000000000003,3.3000000000000003,0" fill="#ddd" fill-opacity="0.14133333333333334" stroke="#000" stroke-opacity="0.02" transform="translate(30,40)"></polyline><polyline points="3.3000000000000003,0,6.699999999999999,0,10,3.3000000000000003,10,6.699999999999999,6.699999999999999,10,3.3000000000000003,10,0,6.699999999999999,0,3.3000000000000003,3.3000000000000003,0" fill="#222" fill-opacity="0.06333333333333334" stroke="#000" stroke-opacity="0.02" transform="translate(40,40)"></polyline><polyline points="3.3000000000000003,0,6.699999999999999,0,10,3.3000000000000003,10,6.699999999999999,6.699999999999999,10,3.3000000000000003,10,0,6.699999999999999,0,3.3000000000000003,3.3000000000000003,0" fill="#ddd" fill-opacity="0.05466666666666667" stroke="#000" stroke-opacity="0.02" transform="translate(50,40)"></polyline><polyline points="3.3000000000000003,0,6.699999999999999,0,10,3.3000000000000003,10,6.699999999999999,6.699999999999999,10,3.3000000000000003,10,0,6.699999999999999,0,3.3000000000000003,3.3000000000000003,0" fill="#222" fill-opacity="0.13266666666666665" stroke="#000" stroke-opacity="0.02" transform="translate(0,50)"></polyline><polyline points="3.3000000000000003,0,6.699999999999999,0,10,3.3000000000000003,10,6.699999999999999,6.699999999999999,10,3.3000000000000003,10,0,6.699999999999999,0,3.3000000000000003,3.3000000000000003,0" fill="#222" fill-opacity="0.15" stroke="#000" stroke-opacity="0.02" transform="translate(10,50)"></polyline><polyline points="3.3000000000000003,0,6.699999999999999,0,10,3.3000000000000003,10,6.699999999999999,6.699999999999999,10,3.3000000000000003,10,0,6.699999999999999,0,3.3000000000000003,3.3000000000000003,0" fill="#ddd" fill-opacity="0.07200000000000001" stroke="#000" stroke-opacity="0.02" transform="translate(20,50)"></polyline><polyline points="3.3000000000000003,0,6.699999999999999,0,10,3.3000000000000003,10,6.699999999999999,6.699999999999999,10,3.3000000000000003,10,0,6.699999999999999,0,3.3000000000000003,3.3000000000000003,0" fill="#ddd" fill-opacity="0.03733333333333333" stroke="#000" stroke-opacity="0.02" transform="translate(30,50)"></polyline><polyline points="3.3000000000000003,0,6.699999999999999,0,10,3.3000000000000003,10,6.699999999999999,6.699999999999999,10,3.3000000000000003,10,0,6.699999999999999,0,3.3000000000000003,3.3000000000000003,0" fill="#ddd" fill-opacity="0.07200000000000001" stroke="#000" stroke-opacity="0.02" transform="translate(40,50)"></polyline><polyline points="3.3000000000000003,0,6.699999999999999,0,10,3.3000000000000003,10,6.699999999999999,6.699999999999999,10,3.3000000000000003,10,0,6.699999999999999,0,3.3000000000000003,3.3000000000000003,0" fill="#222" fill-opacity="0.13266666666666665" stroke="#000" stroke-opacity="0.02" transform="translate(50,50)"></polyline></svg>