<svg xmlns="http://www.w3.org/2000/svg" width="76" height="102"><rect x="0" y="0" width="100%" height="100%" fill="rgb(149,103,58)"></rect><polyline points="6.333333333333333,0,12.666666666666666,17,6.333333333333333,34,0,17" fill="#222" fill-opacity="0.028666666666666667" stroke="#000" stroke-opacity="0.02" transform="translate(-6.333333333333333,-17)"></polyline><polyline points="6.333333333333333,0,12.666666666666666,17,6.333333333333333,34,0,17" fill="#222" fill-opacity="0.028666666666666667" stroke="#000" stroke-opacity="0.02" transform="translate(69.66666666666667,-17)"></polyline><polyline points="6.333333333333333,0,12.666666666666666,17,6.333333333333333,34,0,17" fill="#222" fill-opacity="0.028666666666666667" stroke="#000" stroke-opacity="0.02" transform="translate(-6.333333333333333,85)"></polyline><polyline points="6.333333333333333,0,12.666666666666666,17,6.333333333333333,34,0,17" fill="#222" fill-opacity="0.028666666666666667" stroke="#000" stroke-opacity="0.02" transform="translate(69.66666666666667,85)"></polyline><polyline points="6.333333333333333,0,12.666666666666666,17,6.333333333333333,34,0,17" fill="#222" fill-opacity="0.098" stroke="#000" stroke-opacity="0.02" transform="translate(6.333333333333333,-17)"></polyline><polyline points="6.333333333333333,0,12.666666666666666,17,6.333333333333333,34,0,17" fill="#222" fill-opacity="0.098" stroke="#000" stroke-opacity="0.02" transform="translate(6.333333333333333,85)"></polyline><polyline points="6.333333333333333,0,12.666666666666666,17,6.333333333333333,34,0,17" fill="#ddd" fill-opacity="0.05466666666666667" stroke="#000" stroke-opacity="0.02" transform="translate(19,-17)"></polyline><polyline points="6.333333333333333,0,12.666666666666666,17,6.333333333333333,34,0,17" fill="#ddd" fill-opacity="0.05466666666666667" stroke="#000" stroke-opacity="0.02" transform="translate(19,85)"></polyline><polyline points="6.333333333333333,0,12.666666666666666,17,6.333333333333333,34,0,17" fill="#222" fill-opacity="0.13266666666666665" stroke="#000" stroke-opacity="0.02" transform="translate(31.666666666666668,-17)"></polyline><polyline points="6.333333333333333,0,12.666666666666666,17,6.333333333333333,34,0,17" fill="#222" fill-opacity="0.13266666666666665" stroke="#000" stroke-opacity="0.02" transform="translate(31.666666666666668,85)"></polyline><polyline points="6.333333333333333,0,12.666666666666666,17,6.333333333333333,34,0,17" fill="#222" fill-opacity="0.11533333333333334" stroke="#000" stroke-opacity="0.02" transform="translate(44.33333333333333,-17)"></polyline><polyline points="6.333333333333333,0,12.666666666666666,17,6.333333333333333,34,0,17" fill="#222" fill-opacity="0.11533333333333334" stroke="#000" stroke-opacity="0.02" transform="translate(44.33333333333333,85)"></polyline><polyline points="6.333333333333333,0,12.666666666666666,17,6.333333333333333,34,0,17" fill="#222" fill-opacity="0.028666666666666667" stroke="#000" stroke-opacity="0.02" transform="translate(56.99999999999999,-17)"></polyline><polyline points="6.333333333333333,0,12.666666666666666,17,6.333333333333333,34,0,17" fill="#222" fill-opacity="0.028666666666666667" stroke="#000" stroke-opacity="0.02" transform="translate(56.99999999999999,85)"></polyline><polyline points="6.333333333333333,0,12.666666666666666,17,6.333333333333333,34,0,17" fill="#222" fill-opacity="0.06333333333333334" stroke="#000" stroke-opacity="0.02" transform="translate(0,0)"></polyline><polyline points="6.333333333333333,0,12.666666666666666,17,6.333333333333333,34,0,17" fill="#222" fill-opacity="0.06333333333333334" stroke="#000" stroke-opacity="0.02" transform="translate(76,0)"></polyline><polyline points="6.333333333333333,0,12.666666666666666,17,6.333333333333333,34,0,17" fill="#ddd" fill-opacity="0.02" stroke="#000" stroke-opacity="0.02" transform="translate(12.666666666666666,0)"></polyline><polyline points="6.333333333333333,0,12.666666666666666,17,6.333333333333333,34,0,17" fill="#ddd" fill-opacity="0.03733333333333333" stroke="#000" stroke-opacity="0.02" transform="translate(25.333333333333332,0)"></polyline><polyline points="6.333333333333333,0,12.666666666666666,17,6.333333333333333,34,0,17" fill="#222" fill-opacity="0.046" stroke="#000" stroke-opacity="0.02" transform="translate(38,0)"></polyline><polyline points="6.333333333333333,0,12.666666666666666,17,6.333333333333333,34,0,17" fill="#222" fill-opacity="0.15" stroke="#000" stroke-opacity="0.02" transform="translate(50.666666666666664,0)"></polyline><polyline points="6.333333333333333,0,12.666666666666666,17,6.333333333333333,34,0,17" fill="#222" fill-opacity="0.098" stroke="#000" stroke-opacity="0.02" transform="translate(63.33333333333333,0)"></polyline><polyline points="6.333333333333333,0,12.666666666666666,17,6.333333333333333,34,0,17" fill="#222" fill-opacity="0.08066666666666666" stroke="#000" stroke-opacity="0.02" transform="translate(-6.333333333333333,17)"></polyline><polyline points="6.333333333333333,0,12.666666666666666,17,6.333333333333333,34,0,17" fill="#222" fill-opacity="0.08066666666666666" stroke="#000" stroke-opacity="0.02" transform="translate(69.66666666666667,17)"></polyline><polyline points="6.333333333333333,0,12.666666666666666,17,6.333333333333333,34,0,17" fill="#ddd" fill-opacity="0.07200000000000001" stroke="#000" stroke-opacity="0.02" transform="translate(6.333333333333333,17)"></polyline><polyline points="6.333333333333333,0,12.666666666666666,17,6.333333333333333,34,0,17" fill="#ddd" fill-opacity="0.14133333333333334" stroke="#000" stroke-opacity="0.02" transform="translate(19,17)"></polyline><polyline points="6.333333333333333,0,12.666666666666666,17,6.333333333333333,34,0,17" fill="#222" fill-opacity="0.11533333333333334" stroke="#000" stroke-opacity="0.02" transform="translate(31.666666666666668,17)"></polyline><polyline points="6.333333333333333,0,12.666666666666666,17,6.333333333333333,34,0,17" fill="#222" fill-opacity="0.06333333333333334" stroke="#000" stroke-opacity="0.02" transform="translate(44.33333333333333,17)"></polyline><polyline points="6.333333333333333,0,12.666666666666666,17,6.333333333333333,34,0,17" fill="#ddd" fill-opacity="0.03733333333333333" stroke="#000" stroke-opacity="0.02" transform="translate(56.99999999999999,17)"></polyline><polyline points="6.333333333333333,0,12.666666666666666,17,6.333333333333333,34,0,17" fill="#222" fill-opacity="0.098" stroke="#000" stroke-opacity="0.02" transform="translate(0,34)"></polyline><polyline points="6.333333333333333,0,12.666666666666666,17,6.333333333333333,34,0,17" fill="#222" fill-opacity="0.098" stroke="#000" stroke-opacity="0.02" transform="translate(76,34)"></polyline><polyline points="6.333333333333333,0,12.666666666666666,17,6.333333333333333,34,0,17" fill="#222" fill-opacity="0.046" stroke="#000" stroke-opacity="0.02" transform="translate(12.666666666666666,34)"></polyline><polyline points="6.333333333333333,0,12.666666666666666,17,6.333333333333333,34,0,17" fill="#222" fill-opacity="0.11533333333333334" stroke="#000" stroke-opacity="0.02" transform="translate(25.333333333333332,34)"></polyline><polyline points="6.333333333333333,0,12.666666666666666,17,6.333333333333333,34,0,17" fill="#222" fill-opacity="0.08066666666666666" stroke="#000" stroke-opacity="0.02" transform="translate(38,34)"></polyline><polyline points="6.333333333333333,0,12.666666666666666,17,6.333333333333333,34,0,17" fill="#ddd" fill-opacity="0.12400000000000001" stroke="#000" stroke-opacity="0.02" transform="translate(50.666666666666664,34)"></polyline><polyline points="6.333333333333333,0,12.666666666666666,17,6.333333333333333,34,0,17" fill="#ddd" fill-opacity="0.07200000000000001" stroke="#000" stroke-opacity="0.02" transform="translate(63.33333333333333,34)"></polyline><polyline points="6.333333333333333,0,12.666666666666666,17,6.333333333333333,34,0,17" fill="#222" fill-opacity="0.15" stroke="#000" stroke-opacity="0.02" transform="translate(-6.333333333333333,51)"></polyline><polyline points="6.333333333333333,0,12.666666666666666,17,6.333333333333333,34,0,17" fill="#222" fill-opacity="0.15" stroke="#000" stroke-opacity="0.02" transform="translate(69.66666666666667,51)"></polyline><polyline points="6.333333333333333,0,12.666666666666666,17,6.333333333333333,34,0,17" fill="#222" fill-opacity="0.15" stroke="#000" stroke-opacity="0.02" transform="translate(6.333333333333333,51)"></polyline><polyline points="6.333333333333333,0,12.666666666666666,17,6.333333333333333,34,0,17" fill="#ddd" fill-opacity="0.10666666666666667" stroke="#000" stroke-opacity="0.02" transform="translate(19,51)"></polyline><polyline points="6.333333333333333,0,12.666666666666666,17,6.333333333333333,34,0,17" fill="#ddd" fill-opacity="0.02" stroke="#000" stroke-opacity="0.02" transform="translate(31.666666666666668,51)"></polyline><polyline points="6.333333333333333,0,12.666666666666666,17,6.333333333333333,34,0,17" fill="#ddd" fill-opacity="0.10666666666666667" stroke="#000" stroke-opacity="0.02" transform="translate(44.33333333333333,51)"></polyline><polyline points="6.333333333333333,0,12.666666666666666,17,6.333333333333333,34,0,17" fill="#ddd" fill-opacity="0.08933333333333333" stroke="#000" stroke-opacity="0.02" transform="translate(56.99999999999999,51)"></polyline><polyline points="6.333333333333333,0,12.666666666666666,17,6.333333333333333,34,0,17" fill="#ddd" fill-opacity="0.12400000000000001" stroke="#000" stroke-opacity="0.02" transform="translate(0,68)"></polyline><polyline points="6.333333333333333,0,12.666666666666666,17,6.333333333333333,34,0,17" fill="#ddd" fill-opacity="0.12400000000000001" stroke="#000" stroke-opacity="0.02" transform="translate(76,68)"></polyline><polyline points="6.333333333333333,0,12.666666666666666,17,6.333333333333333,34,0,17" fill="#ddd" fill-opacity="0.03733333333333333" stroke="#000" stroke-opacity="0.02" transform="translate(12.666666666666666,68)"></polyline><polyline points="6.333333333333333,0,12.666666666666666,17,6.333333333333333,34,0,17" fill="#222" fill-opacity="0.08066666666666666" stroke="#000" stroke-opacity="0.02" transform="translate(25.333333333333332,68)"></polyline><polyline points="6.333333333333333,0,12.666666666666666,17,6.333333333333333,34,0,17" fill="#222" fill-opacity="0.046" stroke="#000" stroke-opacity="0.02" transform="translate(38,68)"></polyline><polyline points="6.333333333333333,0,12.666666666666666,17,6.333333333333333,34,0,17" fill="#222" fill-opacity="0.15" stroke="#000" stroke-opacity="0.02" transform="translate(50.666666666666664,68)"></polyline><polyline points="6.333333333333333,0,12.666666666666666,17,6.333333333333333,34,0,17" fill="#222" fill-opacity="0.15" stroke="#000" stroke-opacity="0.02" transform="translate(63.33333333333333,68)"></polyline></svg>