<svg xmlns="http://www.w3.org/2000/svg" width="268" height="117"><rect x="0" y="0" width="100%" height="100%" fill="rgb(144,125,63)"></rect><polyline points="22.333333333333332,0,44.666666666666664,19.666666666666664,22.333333333333332,39.33333333333333,0,19.666666666666664" fill="#222" fill-opacity="0.13266666666666665" stroke="#000" stroke-opacity="0.02" transform="translate(-22.333333333333332,-19.666666666666664)"></polyline><polyline points="22.333333333333332,0,44.666666666666664,19.666666666666664,22.333333333333332,39.33333333333333,0,19.666666666666664" fill="#222" fill-opacity="0.13266666666666665" stroke="#000" stroke-opacity="0.02" transform="translate(245.66666666666666,-19.666666666666664)"></polyline><polyline points="22.333333333333332,0,44.666666666666664,19.666666666666664,22.333333333333332,39.33333333333333,0,19.666666666666664" fill="#222" fill-opacity="0.13266666666666665" stroke="#000" stroke-opacity="0.02" transform="translate(-22.333333333333332,98.33333333333331)"></polyline><polyline points="22.333333333333332,0,44.666666666666664,19.666666666666664,22.333333333333332,39.33333333333333,0,19.666666666666664" fill="#222" fill-opacity="0.13266666666666665" stroke="#000" stroke-opacity="0.02" transform="translate(245.66666666666666,98.33333333333331)"></polyline><polyline points="22.333333333333332,0,44.666666666666664,19.666666666666664,22.333333333333332,39.33333333333333,0,19.666666666666664" fill="#222" fill-opacity="0.11533333333333334" stroke="#000" stroke-opacity="0.02" transform="translate(22.333333333333332,-19.666666666666664)"></polyline><polyline points="22.333333333333332,0,44.666666666666664,19.666666666666664,22.333333333333332,39.33333333333333,0,19.666666666666664" fill="#222" fill-opacity="0.11533333333333334" stroke="#000" stroke-opacity="0.02" transform="translate(22.333333333333332,98.33333333333331)"></polyline><polyline points="22.333333333333332,0,44.666666666666664,19.666666666666664,22.333333333333332,39.33333333333333,0,19.666666666666664" fill="#ddd" fill-opacity="0.02" stroke="#000" stroke-opacity="0.02" transform="translate(67,-19.666666666666664)"></polyline><polyline points="22.333333333333332,0,44.666666666666664,19.666666666666664,22.333333333333332,39.33333333333333,0,19.666666666666664" fill="#ddd" fill-opacity="0.02" stroke="#000" stroke-opacity="0.02" transform="translate(67,98.33333333333331)"></polyline><polyline points="22.333333333333332,0,44.666666666666664,19.666666666666664,22.333333333333332,39.33333333333333,0,19.666666666666664" fill="#222" fill-opacity="0.11533333333333334" stroke="#000" stroke-opacity="0.02" transform="translate(111.66666666666667,-19.666666666666664)"></polyline><polyline points="22.333333333333332,0,44.666666666666664,19.666666666666664,22.333333333333332,39.33333333333333,0,19.666666666666664" fill="#222" fill-opacity="0.11533333333333334" stroke="#000" stroke-opacity="0.02" transform="translate(111.66666666666667,98.33333333333331)"></polyline><polyline points="22.333333333333332,0,44.666666666666664,19.666666666666664,22.333333333333332,39.33333333333333,0,19.666666666666664" fill="#ddd" fill-opacity="0.05466666666666667" stroke="#000" stroke-opacity="0.02" transform="translate(156.33333333333331,-19.666666666666664)"></polyline><polyline points="22.333333333333332,0,44.666666666666664,19.666666666666664,22.333333333333332,39.33333333333333,0,19.666666666666664" fill="#ddd" fill-opacity="0.05466666666666667" stroke="#000" stroke-opacity="0.02" transform="translate(156.33333333333331,98.33333333333331)"></polyline><polyline points="22.333333333333332,0,44.666666666666664,19.666666666666664,22.333333333333332,39.33333333333333,0,19.666666666666664" fill="#222" fill-opacity="0.08066666666666666" stroke="#000" stroke-opacity="0.02" transform="translate(200.99999999999997,-19.666666666666664)"></polyline><polyline points="22.333333333333332,0,44.666666666666664,19.666666666666664,22.333333333333332,39.33333333333333,0,19.666666666666664" fill="#222" fill-opacity="0.08066666666666666" stroke="#000" stroke-opacity="0.02" transform="translate(200.99999999999997,98.33333333333331)"></polyline><polyline points="22.333333333333332,0,44.666666666666664,19.666666666666664,22.333333333333332,39.33333333333333,0,19.666666666666664" fill="#ddd" fill-opacity="0.08933333333333333" stroke="#000" stroke-opacity="0.02" transform="translate(0,0)"></polyline><polyline points="22.333333333333332,0,44.666666666666664,19.666666666666664,22.333333333333332,39.33333333333333,0,19.666666666666664" fill="#ddd" fill-opacity="0.08933333333333333" stroke="#000" stroke-opacity="0.02" transform="translate(268,0)"></polyline><polyline points="22.333333333333332,0,44.666666666666664,19.666666666666664,22.333333333333332,39.33333333333333,0,19.666666666666664" fill="#222" fill-opacity="0.098" stroke="#000" stroke-opacity="0.02" transform="translate(44.666666666666664,0)"></polyline><polyline points="22.333333333333332,0,44.666666666666664,19.666666666666664,22.333333333333332,39.33333333333333,0,19.666666666666664" fill="#222" fill-opacity="0.15" stroke="#000" stroke-opacity="0.02" transform="translate(89.33333333333333,0)"></polyline><polyline points="22.333333333333332,0,44.666666666666664,19.666666666666664,22.333333333333332,39.33333333333333,0,19.666666666666664" fill="#222" fill-opacity="0.15" stroke="#000" stroke-opacity="0.02" transform="translate(134,0)"></polyline><polyline points="22.333333333333332,0,44.666666666666664,19.666666666666664,22.333333333333332,39.33333333333333,0,19.666666666666664" fill="#222" fill-opacity="0.15" stroke="#000" stroke-opacity="0.02" transform="translate(178.66666666666666,0)"></polyline><polyline points="22.333333333333332,0,44.666666666666664,19.666666666666664,22.333333333333332,39.33333333333333,0,19.666666666666664" fill="#222" fill-opacity="0.11533333333333334" stroke="#000" stroke-opacity="0.02" transform="translate(223.33333333333331,0)"></polyline><polyline points="22.333333333333332,0,44.666666666666664,19.666666666666664,22.333333333333332,39.33333333333333,0,19.666666666666664" fill="#222" fill-opacity="0.098" stroke="#000" stroke-opacity="0.02" transform="translate(-22.333333333333332,19.666666666666664)"></polyline><polyline points="22.333333333333332,0,44.666666666666664,19.666666666666664,22.333333333333332,39.33333333333333,0,19.666666666666664" fill="#222" fill-opacity="0.098" stroke="#000" stroke-opacity="0.02" transform="translate(245.66666666666666,19.666666666666664)"></polyline><polyline points="22.333333333333332,0,44.666666666666664,19.666666666666664,22.333333333333332,39.33333333333333,0,19.666666666666664" fill="#222" fill-opacity="0.06333333333333334" stroke="#000" stroke-opacity="0.02" transform="translate(22.333333333333332,19.666666666666664)"></polyline><polyline points="22.333333333333332,0,44.666666666666664,19.666666666666664,22.333333333333332,39.33333333333333,0,19.666666666666664" fill="#ddd" fill-opacity="0.14133333333333334" stroke="#000" stroke-opacity="0.02" transform="translate(67,19.666666666666664)"></polyline><polyline points="22.333333333333332,0,44.666666666666664,19.666666666666664,22.333333333333332,39.33333333333333,0,19.666666666666664" fill="#ddd" fill-opacity="0.02" stroke="#000" stroke-opacity="0.02" transform="translate(111.66666666666667,19.666666666666664)"></polyline><polyline points="22.333333333333332,0,44.666666666666664,19.666666666666664,22.333333333333332,39.33333333333333,0,19.666666666666664" fill="#222" fill-opacity="0.028666666666666667" stroke="#000" stroke-opacity="0.02" transform="translate(156.33333333333331,19.666666666666664)"></polyline><polyline points="22.333333333333332,0,44.666666666666664,19.666666666666664,22.333333333333332,39.33333333333333,0,19.666666666666664" fill="#222" fill-opacity="0.046" stroke="#000" stroke-opacity="0.02" transform="translate(200.99999999999997,19.666666666666664)"></polyline><polyline points="22.333333333333332,0,44.666666666666664,19.666666666666664,22.333333333333332,39.33333333333333,0,19.666666666666664" fill="#ddd" fill-opacity="0.12400000000000001" stroke="#000" stroke-opacity="0.02" transform="translate(0,39.33333333333333)"></polyline><polyline points="22.333333333333332,0,44.666666666666664,19.666666666666664,22.333333333333332,39.33333333333333,0,19.666666666666664" fill="#ddd" fill-opacity="0.12400000000000001" stroke="#000" stroke-opacity="0.02" transform="translate(268,39.33333333333333)"></polyline><polyline points="22.333333333333332,0,44.666666666666664,19.666666666666664,22.333333333333332,39.33333333333333,0,19.666666666666664" fill="#ddd" fill-opacity="0.03733333333333333" stroke="#000" stroke-opacity="0.02" transform="translate(44.666666666666664,39.33333333333333)"></polyline><polyline points="22.333333333333332,0,44.666666666666664,19.666666666666664,22.333333333333332,39.33333333333333,0,19.666666666666664" fill="#222" fill-opacity="0.11533333333333334" stroke="#000" stroke-opacity="0.02" transform="translate(89.33333333333333,39.33333333333333)"></polyline><polyline points="22.333333333333332,0,44.666666666666664,19.666666666666664,22.333333333333332,39.33333333333333,0,19.666666666666664" fill="#ddd" fill-opacity="0.03733333333333333" stroke="#000" stroke-opacity="0.02" transform="translate(134,39.33333333333333)"></polyline><polyline points="22.333333333333332,0,44.666666666666664,19.666666666666664,22.333333333333332,39.33333333333333,0,19.666666666666664" fill="#ddd" fill-opacity="0.12400000000000001" stroke="#000" stroke-opacity="0.02" transform="translate(178.66666666666666,39.33333333333333)"></polyline><polyline points="22.333333333333332,0,44.666666666666664,19.666666666666664,22.333333333333332,39.33333333333333,0,19.666666666666664" fill="#222" fill-opacity="0.098" stroke="#000" stroke-opacity="0.02" transform="translate(223.33333333333331,39.33333333333333)"></polyline><polyline points="22.333333333333332,0,44.666666666666664,19.666666666666664,22.333333333333332,39.33333333333333,0,19.666666666666664" fill="#222" fill-opacity="0.11533333333333334" stroke="#000" stroke-opacity="0.02" transform="translate(-22.333333333333332,58.99999999999999)"></polyline><polyline points="22.333333333333332,0,44.666666666666664,19.666666666666664,22.333333333333332,39.33333333333333,0,19.666666666666664" fill="#222" fill-opacity="0.11533333333333334" stroke="#000" stroke-opacity="0.02" transform="translate(245.66666666666666,58.99999999999999)"></polyline><polyline points="22.333333333333332,0,44.666666666666664,19.666666666666664,22.333333333333332,39.33333333333333,0,19.666666666666664" fill="#222" fill-opacity="0.11533333333333334" stroke="#000" stroke-opacity="0.02" transform="translate(22.333333333333332,58.99999999999999)"></polyline><polyline points="22.333333333333332,0,44.666666666666664,19.666666666666664,22.333333333333332,39.33333333333333,0,19.666666666666664" fill="#222" fill-opacity="0.028666666666666667" stroke="#000" stroke-opacity="0.02" transform="translate(67,58.99999999999999)"></polyline><polyline points="22.333333333333332,0,44.666666666666664,19.666666666666664,22.333333333333332,39.33333333333333,0,19.666666666666664" fill="#ddd" fill-opacity="0.12400000000000001" stroke="#000" stroke-opacity="0.02" transform="translate(111.66666666666667,58.99999999999999)"></polyline><polyline points="22.333333333333332,0,44.666666666666664,19.666666666666664,22.333333333333332,39.33333333333333,0,19.666666666666664" fill="#ddd" fill-opacity="0.05466666666666667" stroke="#000" stroke-opacity="0.02" transform="translate(156.33333333333331,58.99999999999999)"></polyline><polyline points="22.333333333333332,0,44.666666666666664,19.666666666666664,22.333333333333332,39.33333333333333,0,19.666666666666664" fill="#222" fill-opacity="0.08066666666666666" stroke="#000" stroke-opacity="0.02" transform="translate(200.99999999999997,58.99999999999999)"></polyline><polyline points="22.333333333333332,0,44.666666666666664,19.666666666666664,22.333333333333332,39.33333333333333,0,19.666666666666664" fill="#222" fill-opacity="0.06333333333333334" stroke="#000" stroke-opacity="0.02" transform="translate(0,78.66666666666666)"></polyline><polyline points="22.333333333333332,0,44.666666666666664,19.666666666666664,22.333333333333332,39.33333333333333,0,19.666666666666664" fill="#222" fill-opacity="0.06333333333333334" stroke="#000" stroke-opacity="0.02" transform="translate(268,78.66666666666666)"></polyline><polyline points="22.333333333333332,0,44.666666666666664,19.666666666666664,22.333333333333332,39.33333333333333,0,19.666666666666664" fill="#222" fill-opacity="0.11533333333333334" stroke="#000" stroke-opacity="0.02" transform="translate(44.666666666666664,78.66666666666666)"></polyline><polyline points="22.333333333333332,0,44.666666666666664,19.666666666666664,22.333333333333332,39.33333333333333,0,19.666666666666664" fill="#ddd" fill-opacity="0.10666666666666667" stroke="#000" stroke-opacity="0.02" transform="translate(89.33333333333333,78.66666666666666)"></polyline><polyline points="22.333333333333332,0,44.666666666666664,19.666666666666664,22.333333333333332,39.33333333333333,0,19.666666666666664" fill="#222" fill-opacity="0.06333333333333334" stroke="#000" stroke-opacity="0.02" transform="translate(134,78.66666666666666)"></polyline><polyline points="22.333333333333332,0,44.666666666666664,19.666666666666664,22.333333333333332,39.33333333333333,0,19.666666666666664" fill="#ddd" fill-opacity="0.07200000000000001" stroke="#000" stroke-opacity="0.02" transform="translate(178.66666666666666,78.66666666666666)"></polyline><polyline points="22.333333333333332,0,44.666666666666664,19.666666666666664,22.333333333333332,39.33333333333333,0,19.666666666666664" fill="#222" fill-opacity="0.098" stroke="#000" stroke-opacity="0.02" transform="translate(223.33333333333331,78.66666666666666)"></polyline></svg>