<svg xmlns="http://www.w3.org/2000/svg" width="76" height="30"><rect x="0" y="0" width="100%" height="100%" fill="rgb(134,73,134)"></rect><polyline points="6.333333333333333,0,12.666666666666666,5,6.333333333333333,10,0,5" fill="#222" fill-opacity="0.028666666666666667" stroke="#000" stroke-opacity="0.02" transform="translate(-6.333333333333333,-5)"></polyline><polyline points="6.333333333333333,0,12.666666666666666,5,6.333333333333333,10,0,5" fill="#222" fill-opacity="0.028666666666666667" stroke="#000" stroke-opacity="0.02" transform="translate(69.66666666666667,-5)"></polyline><polyline points="6.333333333333333,0,12.666666666666666,5,6.333333333333333,10,0,5" fill="#222" fill-opacity="0.028666666666666667" stroke="#000" stroke-opacity="0.02" transform="translate(-6.333333333333333,25)"></polyline><polyline points="6.333333333333333,0,12.666666666666666,5,6.333333333333333,10,0,5" fill="#222" fill-opacity="0.028666666666666667" stroke="#000" stroke-opacity="0.02" transform="translate(69.66666666666667,25)"></polyline><polyline points="6.333333333333333,0,12.666666666666666,5,6.333333333333333,10,0,5" fill="#ddd" fill-opacity="0.02" stroke="#000" stroke-opacity="0.02" transform="translate(6.333333333333333,-5)"></polyline><polyline points="6.333333333333333,0,12.666666666666666,5,6.333333333333333,10,0,5" fill="#ddd" fill-opacity="0.02" stroke="#000" stroke-opacity="0.02" transform="translate(6.333333333333333,25)"></polyline><polyline points="6.333333333333333,0,12.666666666666666,5,6.333333333333333,10,0,5" fill="#222" fill-opacity="0.028666666666666667" stroke="#000" stroke-opacity="0.02" transform="translate(19,-5)"></polyline><polyline points="6.333333333333333,0,12.666666666666666,5,6.333333333333333,10,0,5" fill="#222" fill-opacity="0.028666666666666667" stroke="#000" stroke-opacity="0.02" transform="translate(19,25)"></polyline><polyline points="6.333333333333333,0,12.666666666666666,5,6.333333333333333,10,0,5" fill="#ddd" fill-opacity="0.10666666666666667" stroke="#000" stroke-opacity="0.02" transform="translate(31.666666666666668,-5)"></polyline><polyline points="6.333333333333333,0,12.666666666666666,5,6.333333333333333,10,0,5" fill="#ddd" fill-opacity="0.10666666666666667" stroke="#000" stroke-opacity="0.02" transform="translate(31.666666666666668,25)"></polyline><polyline points="6.333333333333333,0,12.666666666666666,5,6.333333333333333,10,0,5" fill="#ddd" fill-opacity="0.02" stroke="#000" stroke-opacity="0.02" transform="translate(44.33333333333333,-5)"></polyline><polyline points="6.333333333333333,0,12.666666666666666,5,6.333333333333333,10,0,5" fill="#ddd" fill-opacity="0.02" stroke="#000" stroke-opacity="0.02" transform="translate(44.33333333333333,25)"></polyline><polyline points="6.333333333333333,0,12.666666666666666,5,6.333333333333333,10,0,5" fill="#ddd" fill-opacity="0.02" stroke="#000" stroke-opacity="0.02" transform="translate(56.99999999999999,-5)"></polyline><polyline points="6.333333333333333,0,12.666666666666666,5,6.333333333333333,10,0,5" fill="#ddd" fill-opacity="0.02" stroke="#000" stroke-opacity="0.02" transform="translate(56.99999999999999,25)"></polyline><polyline points="6.333333333333333,0,12.666666666666666,5,6.333333333333333,10,0,5" fill="#222" fill-opacity="0.11533333333333334" stroke="#000" stroke-opacity="0.02" transform="translate(0,0)"></polyline><polyline points="6.333333333333333,0,12.666666666666666,5,6.333333333333333,10,0,5" fill="#222" fill-opacity="0.11533333333333334" stroke="#000" stroke-opacity="0.02" transform="translate(76,0)"></polyline><polyline points="6.333333333333333,0,12.666666666666666,5,6.333333333333333,10,0,5" fill="#ddd" fill-opacity="0.12400000000000001" stroke="#000" stroke-opacity="0.02" transform="translate(12.666666666666666,0)"></polyline><polyline points="6.333333333333333,0,12.666666666666666,5,6.333333333333333,10,0,5" fill="#ddd" fill-opacity="0.14133333333333334" stroke="#000" stroke-opacity="0.02" transform="translate(25.333333333333332,0)"></polyline><polyline points="6.333333333333333,0,12.666666666666666,5,6.333333333333333,10,0,5" fill="#222" fill-opacity="0.046" stroke="#000" stroke-opacity="0.02" transform="translate(38,0)"></polyline><polyline points="6.333333333333333,0,12.666666666666666,5,6.333333333333333,10,0,5" fill="#ddd" fill-opacity="0.08933333333333333" stroke="#000" stroke-opacity="0.02" transform="translate(50.666666666666664,0)"></polyline><polyline points="6.333333333333333,0,12.666666666666666,5,6.333333333333333,10,0,5" fill="#ddd" fill-opacity="0.14133333333333334" stroke="#000" stroke-opacity="0.02" transform="translate(63.33333333333333,0)"></polyline><polyline points="6.333333333333333,0,12.666666666666666,5,6.333333333333333,10,0,5" fill="#222" fill-opacity="0.13266666666666665" stroke="#000" stroke-opacity="0.02" transform="translate(-6.333333333333333,5)"></polyline><polyline points="6.333333333333333,0,12.666666666666666,5,6.333333333333333,10,0,5" fill="#222" fill-opacity="0.13266666666666665" stroke="#000" stroke-opacity="0.02" transform="translate(69.66666666666667,5)"></polyline><polyline points="6.333333333333333,0,12.666666666666666,5,6.333333333333333,10,0,5" fill="#ddd" fill-opacity="0.14133333333333334" stroke="#000" stroke-opacity="0.02" transform="translate(6.333333333333333,5)"></polyline><polyline points="6.333333333333333,0,12.666666666666666,5,6.333333333333333,10,0,5" fill="#ddd" fill-opacity="0.03733333333333333" stroke="#000" stroke-opacity="0.02" transform="translate(19,5)"></polyline><polyline points="6.333333333333333,0,12.666666666666666,5,6.333333333333333,10,0,5" fill="#ddd" fill-opacity="0.10666666666666667" stroke="#000" stroke-opacity="0.02" transform="translate(31.666666666666668,5)"></polyline><polyline points="6.333333333333333,0,12.666666666666666,5,6.333333333333333,10,0,5" fill="#ddd" fill-opacity="0.12400000000000001" stroke="#000" stroke-opacity="0.02" transform="translate(44.33333333333333,5)"></polyline><polyline points="6.333333333333333,0,12.666666666666666,5,6.333333333333333,10,0,5" fill="#222" fill-opacity="0.13266666666666665" stroke="#000" stroke-opacity="0.02" transform="translate(56.99999999999999,5)"></polyline><polyline points="6.333333333333333,0,12.666666666666666,5,6.333333333333333,10,0,5" fill="#222" fill-opacity="0.06333333333333334" stroke="#000" stroke-opacity="0.02" transform="translate(0,10)"></polyline><polyline points="6.333333333333333,0,12.666666666666666,5,6.333333333333333,10,0,5" fill="#222" fill-opacity="0.06333333333333334" stroke="#000" stroke-opacity="0.02" transform="translate(76,10)"></polyline><polyline points="6.333333333333333,0,12.666666666666666,5,6.333333333333333,10,0,5" fill="#ddd" fill-opacity="0.03733333333333333" stroke="#000" stroke-opacity="0.02" transform="translate(12.666666666666666,10)"></polyline><polyline points="6.333333333333333,0,12.666666666666666,5,6.333333333333333,10,0,5" fill="#222" fill-opacity="0.11533333333333334" stroke="#000" stroke-opacity="0.02" transform="translate(25.333333333333332,10)"></polyline><polyline points="6.333333333333333,0,12.666666666666666,5,6.333333333333333,10,0,5" fill="#ddd" fill-opacity="0.14133333333333334" stroke="#000" stroke-opacity="0.02" transform="translate(38,10)"></polyline><polyline points="6.333333333333333,0,12.666666666666666,5,6.333333333333333,10,0,5" fill="#ddd" fill-opacity="0.12400000000000001" stroke="#000" stroke-opacity="0.02" transform="translate(50.666666666666664,10)"></polyline><polyline points="6.333333333333333,0,12.666666666666666,5,6.333333333333333,10,0,5" fill="#ddd" fill-opacity="0.12400000000000001" stroke="#000" stroke-opacity="0.02" transform="translate(63.33333333333333,10)"></polyline><polyline points="6.333333333333333,0,12.666666666666666,5,6.333333333333333,10,0,5" fill="#222" fill-opacity="0.15" stroke="#000" stroke-opacity="0.02" transform="translate(-6.333333333333333,15)"></polyline><polyline points="6.333333333333333,0,12.666666666666666,5,6.333333333333333,10,0,5" fill="#222" fill-opacity="0.15" stroke="#000" stroke-opacity="0.02" transform="translate(69.66666666666667,15)"></polyline><polyline points="6.333333333333333,0,12.666666666666666,5,6.333333333333333,10,0,5" fill="#222" fill-opacity="0.028666666666666667" stroke="#000" stroke-opacity="0.02" transform="translate(6.333333333333333,15)"></polyline><polyline points="6.333333333333333,0,12.666666666666666,5,6.333333333333333,10,0,5" fill="#222" fill-opacity="0.15" stroke="#000" stroke-opacity="0.02" transform="translate(19,15)"></polyline><polyline points="6.333333333333333,0,12.666666666666666,5,6.333333333333333,10,0,5" fill="#222" fill-opacity="0.06333333333333334" stroke="#000" stroke-opacity="0.02" transform="translate(31.666666666666668,15)"></polyline><polyline points="6.333333333333333,0,12.666666666666666,5,6.333333333333333,10,0,5" fill="#222" fill-opacity="0.13266666666666665" stroke="#000" stroke-opacity="0.02" transform="translate(44.33333333333333,15)"></polyline><polyline points="6.333333333333333,0,12.666666666666666,5,6.333333333333333,10,0,5" fill="#ddd" fill-opacity="0.03733333333333333" stroke="#000" stroke-opacity="0.02" transform="translate(56.99999999999999,15)"></polyline><polyline points="6.333333333333333,0,12.666666666666666,5,6.333333333333333,10,0,5" fill="#222" fill-opacity="0.028666666666666667" stroke="#000" stroke-opacity="0.02" transform="translate(0,20)"></polyline><polyline points="6.333333333333333,0,12.666666666666666,5,6.333333333333333,10,0,5" fill="#222" fill-opacity="0.028666666666666667" stroke="#000" stroke-opacity="0.02" transform="translate(76,20)"></polyline><polyline points="6.333333333333333,0,12.666666666666666,5,6.333333333333333,10,0,5" fill="#ddd" fill-opacity="0.08933333333333333" stroke="#000" stroke-opacity="0.02" transform="translate(12.666666666666666,20)"></polyline><polyline points="6.333333333333333,0,12.666666666666666,5,6.333333333333333,10,0,5" fill="#ddd" fill-opacity="0.02" stroke="#000" stroke-opacity="0.02" transform="translate(25.333333333333332,20)"></polyline><polyline points="6.333333333333333,0,12.666666666666666,5,6.333333333333333,10,0,5" fill="#222" fill-opacity="0.13266666666666665" stroke="#000" stroke-opacity="0.02" transform="translate(38,20)"></polyline><polyline points="6.333333333333333,0,12.666666666666666,5,6.333333333333333,10,0,5" fill="#222" fill-opacity="0.11533333333333334" stroke="#000" stroke-opacity="0.02" transform="translate(50.666666666666664,20)"></polyline><polyline points="6.333333333333333,0,12.666666666666666,5,6.333333333333333,10,0,5" fill="#222" fill-opacity="0.028666666666666667" stroke="#000" stroke-opacity="0.02" transform="translate(63.33333333333333,20)"></polyline></svg>