<svg xmlns="http://www.w3.org/2000/svg" width="120" height="120"><rect x="0" y="0" width="100%" height="100%" fill="rgb(54,153,107)"></rect><circle cx="0" cy="0" r="17.5" fill="none" stroke="#222" opacity="0.046" stroke-width="5px"></circle><circle cx="120" cy="0" r="17.5" fill="none" stroke="#222" opacity="0.046" stroke-width="5px"></circle><circle cx="0" cy="120" r="17.5" fill="none" stroke="#222" opacity="0.046" stroke-width="5px"></circle><circle cx="120" cy="120" r="17.5" fill="none" stroke="#222" opacity="0.046" stroke-width="5px"></circle><circle cx="20" cy="0" r="17.5" fill="none" stroke="#ddd" opacity="0.07200000000000001" stroke-width="5px"></circle><circle cx="20" cy="120" r="17.5" fill="none" stroke="#ddd" opacity="0.07200000000000001" stroke-width="5px"></circle><circle cx="40" cy="0" r="17.5" fill="none" stroke="#222" opacity="0.098" stroke-width="5px"></circle><circle cx="40" cy="120" r="17.5" fill="none" stroke="#222" opacity="0.098" stroke-width="5px"></circle><circle cx="60" cy="0" r="17.5" fill="none" stroke="#222" opacity="0.06333333333333334" stroke-width="5px"></circle><circle cx="60" cy="120" r="17.5" fill="none" stroke="#222" opacity="0.06333333333333334" stroke-width="5px"></circle><circle cx="80" cy="0" r="17.5" fill="none" stroke="#ddd" opacity="0.07200000000000001" stroke-width="5px"></circle><circle cx="80" cy="120" r="17.5" fill="none" stroke="#ddd" opacity="0.07200000000000001" stroke-width="5px"></circle><circle cx="100" cy="0" r="17.5" fill="none" stroke="#ddd" opacity="0.02" stroke-width="5px"></circle><circle cx="100" cy="120" r="17.5" fill="none" stroke="#ddd" opacity="0.02" stroke-width="5px"></circle><circle cx="0" cy="20" r="17.5" fill="none" stroke="#ddd" opacity="0.12400000000000001" stroke-width="5px"></circle><circle cx="120" cy="20" r="17.5" fill="none" stroke="#ddd" opacity="0.12400000000000001" stroke-width="5px"></circle><circle cx="20" cy="20" r="17.5" fill="none" stroke="#222" opacity="0.098" stroke-width="5px"></circle><circle cx="40" cy="20" r="17.5" fill="none" stroke="#222" opacity="0.11533333333333334" stroke-width="5px"></circle><circle cx="60" cy="20" r="17.5" fill="none" stroke="#ddd" opacity="0.10666666666666667" stroke-width="5px"></circle><circle cx="80" cy="20" r="17.5" fill="none" stroke="#ddd" opacity="0.08933333333333333" stroke-width="5px"></circle><circle cx="100" cy="20" r="17.5" fill="none" stroke="#ddd" opacity="0.03733333333333333" stroke-width="5px"></circle><circle cx="0" cy="40" r="17.5" fill="none" stroke="#ddd" opacity="0.02" stroke-width="5px"></circle><circle cx="120" cy="40" r="17.5" fill="none" stroke="#ddd" opacity="0.02" stroke-width="5px"></circle><circle cx="20" cy="40" r="17.5" fill="none" stroke="#ddd" opacity="0.12400000000000001" stroke-width="5px"></circle><circle cx="40" cy="40" r="17.5" fill="none" stroke="#222" opacity="0.098" stroke-width="5px"></circle><circle cx="60" cy="40" r="17.5" fill="none" stroke="#ddd" opacity="0.05466666666666667" stroke-width="5px"></circle><circle cx="80" cy="40" r="17.5" fill="none" stroke="#ddd" opacity="0.05466666666666667" stroke-width="5px"></circle><circle cx="100" cy="40" r="17.5" fill="none" stroke="#ddd" opacity="0.07200000000000001" stroke-width="5px"></circle><circle cx="0" cy="60" r="17.5" fill="none" stroke="#222" opacity="0.08066666666666666" stroke-width="5px"></circle><circle cx="120" cy="60" r="17.5" fill="none" stroke="#222" opacity="0.08066666666666666" stroke-width="5px"></circle><circle cx="20" cy="60" r="17.5" fill="none" stroke="#ddd" opacity="0.07200000000000001" stroke-width="5px"></circle><circle cx="40" cy="60" r="17.5" fill="none" stroke="#ddd" opacity="0.07200000000000001" stroke-width="5px"></circle><circle cx="60" cy="60" r="17.5" fill="none" stroke="#ddd" opacity="0.08933333333333333" stroke-width="5px"></circle><circle cx="80" cy="60" r="17.5" fill="none" stroke="#ddd" opacity="0.08933333333333333" stroke-width="5px"></circle><circle cx="100" cy="60" r="17.5" fill="none" stroke="#ddd" opacity="0.12400000000000001" stroke-width="5px"></circle><circle cx="0" cy="80" r="17.5" fill="none" stroke="#ddd" opacity="0.08933333333333333" stroke-width="5px"></circle><circle cx="120" cy="80" r="17.5" fill="none" stroke="#ddd" opacity="0.08933333333333333" stroke-width="5px"></circle><circle cx="20" cy="80" r="17.5" fill="none" stroke="#222" opacity="0.06333333333333334" stroke-width="5px"></circle><circle cx="40" cy="80" r="17.5" fill="none" stroke="#222" opacity="0.098" stroke-width="5px"></circle><circle cx="60" cy="80" r="17.5" fill="none" stroke="#222" opacity="0.046" stroke-width="5px"></circle><circle cx="80" cy="80" r="17.5" fill="none" stroke="#ddd" opacity="0.05466666666666667" stroke-width="5px"></circle><circle cx="100" cy="80" r="17.5" fill="none" stroke="#222" opacity="0.098" stroke-width="5px"></circle><circle cx="0" cy="100" r="17.5" fill="none" stroke="#222" opacity="0.098" stroke-width="5px"></circle><circle cx="120" cy="100" r="17.5" fill="none" stroke="#222" opacity="0.098" stroke-width="5px"></circle><circle cx="20" cy="100" r="17.5" fill="none" stroke="#ddd" opacity="0.10666666666666667" stroke-width="5px"></circle><circle cx="40" cy="100" r="17.5" fill="none" stroke="#ddd" opacity="0.03733333333333333" stroke-width="5px"></circle><circle cx="60" cy="100" r="17.5" fill="none" stroke="#ddd" opacity="0.07200000000000001" stroke-width="5px"></circle><circle cx="80" cy="100" r="17.5" fill="none" stroke="#ddd" opacity="0.08933333333333333" stroke-width="5px"></circle><circle cx="100" cy="100" r="17.5" fill="none" stroke="#ddd" opacity="0.14133333333333334" stroke-width="5px"></circle></svg>