<svg xmlns="http://www.w3.org/2000/svg" width="472" height="472"><rect x="0" y="0" width="100%" height="100%" fill="rgb(140,67,115)"></rect><rect x="0" y="18" width="100%" height="6" opacity="0.028666666666666667" fill="#222"></rect><rect x="0" y="32" width="100%" height="12" opacity="0.08066666666666666" fill="#222"></rect><rect x="0" y="58" width="100%" height="19" opacity="0.14133333333333334" fill="#ddd"></rect><rect x="0" y="90" width="100%" height="12" opacity="0.08066666666666666" fill="#222"></rect><rect x="0" y="107" width="100%" height="7" opacity="0.03733333333333333" fill="#ddd"></rect><rect x="0" y="121" width="100%" height="18" opacity="0.13266666666666665" fill="#222"></rect><rect x="0" y="157" width="100%" height="14" opacity="0.098" fill="#222"></rect><rect x="0" y="177" width="100%" height="16" opacity="0.11533333333333334" fill="#222"></rect><rect x="0" y="213" width="100%" height="12" opacity="0.08066666666666666" fill="#222"></rect><rect x="0" y="241" width="100%" height="5" opacity="0.02" fill="#ddd"></rect><rect x="0" y="258" width="100%" height="15" opacity="0.10666666666666667" fill="#ddd"></rect><rect x="0" y="283" width="100%" height="17" opacity="0.12400000000000001" fill="#ddd"></rect><rect x="0" y="305" width="100%" height="18" opacity="0.13266666666666665" fill="#222"></rect><rect x="0" y="329" width="100%" height="11" opacity="0.07200000000000001" fill="#ddd"></rect><rect x="0" y="360" width="100%" height="9" opacity="0.05466666666666667" fill="#ddd"></rect><rect x="0" y="389" width="100%" height="15" opacity="0.10666666666666667" fill="#ddd"></rect><rect x="0" y="424" width="100%" height="16" opacity="0.11533333333333334" fill="#222"></rect><rect x="0" y="452" width="100%" height="20" opacity="0.15" fill="#222"></rect><rect x="18" y="0" width="6" height="100%" opacity="0.028666666666666667" fill="#222"></rect><rect x="32" y="0" width="12" height="100%" opacity="0.08066666666666666" fill="#222"></rect><rect x="58" y="0" width="19" height="100%" opacity="0.14133333333333334" fill="#ddd"></rect><rect x="90" y="0" width="12" height="100%" opacity="0.08066666666666666" fill="#222"></rect><rect x="107" y="0" width="7" height="100%" opacity="0.03733333333333333" fill="#ddd"></rect><rect x="121" y="0" width="18" height="100%" opacity="0.13266666666666665" fill="#222"></rect><rect x="157" y="0" width="14" height="100%" opacity="0.098" fill="#222"></rect><rect x="177" y="0" width="16" height="100%" opacity="0.11533333333333334" fill="#222"></rect><rect x="213" y="0" width="12" height="100%" opacity="0.08066666666666666" fill="#222"></rect><rect x="241" y="0" width="5" height="100%" opacity="0.02" fill="#ddd"></rect><rect x="258" y="0" width="15" height="100%" opacity="0.10666666666666667" fill="#ddd"></rect><rect x="283" y="0" width="17" height="100%" opacity="0.12400000000000001" fill="#ddd"></rect><rect x="305" y="0" width="18" height="100%" opacity="0.13266666666666665" fill="#222"></rect><rect x="329" y="0" width="11" height="100%" opacity="0.07200000000000001" fill="#ddd"></rect><rect x="360" y="0" width="9" height="100%" opacity="0.05466666666666667" fill="#ddd"></rect><rect x="389" y="0" width="15" height="100%" opacity="0.10666666666666667" fill="#ddd"></rect><rect x="424" y="0" width="16" height="100%" opacity="0.11533333333333334" fill="#222"></rect><rect x="452" y="0" width="20" height="100%" opacity="0.15" fill="#222"></rect></svg>