<svg xmlns="http://www.w3.org/2000/svg" width="76" height="142"><rect x="0" y="0" width="100%" height="100%" fill="rgb(73,89,134)"></rect><polyline points="6.333333333333333,0,12.666666666666666,23.666666666666668,6.333333333333333,47.333333333333336,0,23.666666666666668" fill="#222" fill-opacity="0.028666666666666667" stroke="#000" stroke-opacity="0.02" transform="translate(-6.333333333333333,-23.666666666666668)"></polyline><polyline points="6.333333333333333,0,12.666666666666666,23.666666666666668,6.333333333333333,47.333333333333336,0,23.666666666666668" fill="#222" fill-opacity="0.028666666666666667" stroke="#000" stroke-opacity="0.02" transform="translate(69.66666666666667,-23.666666666666668)"></polyline><polyline points="6.333333333333333,0,12.666666666666666,23.666666666666668,6.333333333333333,47.333333333333336,0,23.666666666666668" fill="#222" fill-opacity="0.028666666666666667" stroke="#000" stroke-opacity="0.02" transform="translate(-6.333333333333333,118.33333333333333)"></polyline><polyline points="6.333333333333333,0,12.666666666666666,23.666666666666668,6.333333333333333,47.333333333333336,0,23.666666666666668" fill="#222" fill-opacity="0.028666666666666667" stroke="#000" stroke-opacity="0.02" transform="translate(69.66666666666667,118.33333333333333)"></polyline><polyline points="6.333333333333333,0,12.666666666666666,23.666666666666668,6.333333333333333,47.333333333333336,0,23.666666666666668" fill="#ddd" fill-opacity="0.14133333333333334" stroke="#000" stroke-opacity="0.02" transform="translate(6.333333333333333,-23.666666666666668)"></polyline><polyline points="6.333333333333333,0,12.666666666666666,23.666666666666668,6.333333333333333,47.333333333333336,0,23.666666666666668" fill="#ddd" fill-opacity="0.14133333333333334" stroke="#000" stroke-opacity="0.02" transform="translate(6.333333333333333,118.33333333333333)"></polyline><polyline points="6.333333333333333,0,12.666666666666666,23.666666666666668,6.333333333333333,47.333333333333336,0,23.666666666666668" fill="#222" fill-opacity="0.15" stroke="#000" stroke-opacity="0.02" transform="translate(19,-23.666666666666668)"></polyline><polyline points="6.333333333333333,0,12.666666666666666,23.666666666666668,6.333333333333333,47.333333333333336,0,23.666666666666668" fill="#222" fill-opacity="0.15" stroke="#000" stroke-opacity="0.02" transform="translate(19,118.33333333333333)"></polyline><polyline points="6.333333333333333,0,12.666666666666666,23.666666666666668,6.333333333333333,47.333333333333336,0,23.666666666666668" fill="#ddd" fill-opacity="0.02" stroke="#000" stroke-opacity="0.02" transform="translate(31.666666666666668,-23.666666666666668)"></polyline><polyline points="6.333333333333333,0,12.666666666666666,23.666666666666668,6.333333333333333,47.333333333333336,0,23.666666666666668" fill="#ddd" fill-opacity="0.02" stroke="#000" stroke-opacity="0.02" transform="translate(31.666666666666668,118.33333333333333)"></polyline><polyline points="6.333333333333333,0,12.666666666666666,23.666666666666668,6.333333333333333,47.333333333333336,0,23.666666666666668" fill="#222" fill-opacity="0.11533333333333334" stroke="#000" stroke-opacity="0.02" transform="translate(44.33333333333333,-23.666666666666668)"></polyline><polyline points="6.333333333333333,0,12.666666666666666,23.666666666666668,6.333333333333333,47.333333333333336,0,23.666666666666668" fill="#222" fill-opacity="0.11533333333333334" stroke="#000" stroke-opacity="0.02" transform="translate(44.33333333333333,118.33333333333333)"></polyline><polyline points="6.333333333333333,0,12.666666666666666,23.666666666666668,6.333333333333333,47.333333333333336,0,23.666666666666668" fill="#222" fill-opacity="0.098" stroke="#000" stroke-opacity="0.02" transform="translate(56.99999999999999,-23.666666666666668)"></polyline><polyline points="6.333333333333333,0,12.666666666666666,23.666666666666668,6.333333333333333,47.333333333333336,0,23.666666666666668" fill="#222" fill-opacity="0.098" stroke="#000" stroke-opacity="0.02" transform="translate(56.99999999999999,118.33333333333333)"></polyline><polyline points="6.333333333333333,0,12.666666666666666,23.666666666666668,6.333333333333333,47.333333333333336,0,23.666666666666668" fill="#ddd" fill-opacity="0.10666666666666667" stroke="#000" stroke-opacity="0.02" transform="translate(0,0)"></polyline><polyline points="6.333333333333333,0,12.666666666666666,23.666666666666668,6.333333333333333,47.333333333333336,0,23.666666666666668" fill="#ddd" fill-opacity="0.10666666666666667" stroke="#000" stroke-opacity="0.02" transform="translate(76,0)"></polyline><polyline points="6.333333333333333,0,12.666666666666666,23.666666666666668,6.333333333333333,47.333333333333336,0,23.666666666666668" fill="#222" fill-opacity="0.11533333333333334" stroke="#000" stroke-opacity="0.02" transform="translate(12.666666666666666,0)"></polyline><polyline points="6.333333333333333,0,12.666666666666666,23.666666666666668,6.333333333333333,47.333333333333336,0,23.666666666666668" fill="#222" fill-opacity="0.028666666666666667" stroke="#000" stroke-opacity="0.02" transform="translate(25.333333333333332,0)"></polyline><polyline points="6.333333333333333,0,12.666666666666666,23.666666666666668,6.333333333333333,47.333333333333336,0,23.666666666666668" fill="#222" fill-opacity="0.13266666666666665" stroke="#000" stroke-opacity="0.02" transform="translate(38,0)"></polyline><polyline points="6.333333333333333,0,12.666666666666666,23.666666666666668,6.333333333333333,47.333333333333336,0,23.666666666666668" fill="#222" fill-opacity="0.15" stroke="#000" stroke-opacity="0.02" transform="translate(50.666666666666664,0)"></polyline><polyline points="6.333333333333333,0,12.666666666666666,23.666666666666668,6.333333333333333,47.333333333333336,0,23.666666666666668" fill="#222" fill-opacity="0.098" stroke="#000" stroke-opacity="0.02" transform="translate(63.33333333333333,0)"></polyline><polyline points="6.333333333333333,0,12.666666666666666,23.666666666666668,6.333333333333333,47.333333333333336,0,23.666666666666668" fill="#ddd" fill-opacity="0.08933333333333333" stroke="#000" stroke-opacity="0.02" transform="translate(-6.333333333333333,23.666666666666668)"></polyline><polyline points="6.333333333333333,0,12.666666666666666,23.666666666666668,6.333333333333333,47.333333333333336,0,23.666666666666668" fill="#ddd" fill-opacity="0.08933333333333333" stroke="#000" stroke-opacity="0.02" transform="translate(69.66666666666667,23.666666666666668)"></polyline><polyline points="6.333333333333333,0,12.666666666666666,23.666666666666668,6.333333333333333,47.333333333333336,0,23.666666666666668" fill="#ddd" fill-opacity="0.12400000000000001" stroke="#000" stroke-opacity="0.02" transform="translate(6.333333333333333,23.666666666666668)"></polyline><polyline points="6.333333333333333,0,12.666666666666666,23.666666666666668,6.333333333333333,47.333333333333336,0,23.666666666666668" fill="#ddd" fill-opacity="0.07200000000000001" stroke="#000" stroke-opacity="0.02" transform="translate(19,23.666666666666668)"></polyline><polyline points="6.333333333333333,0,12.666666666666666,23.666666666666668,6.333333333333333,47.333333333333336,0,23.666666666666668" fill="#ddd" fill-opacity="0.02" stroke="#000" stroke-opacity="0.02" transform="translate(31.666666666666668,23.666666666666668)"></polyline><polyline points="6.333333333333333,0,12.666666666666666,23.666666666666668,6.333333333333333,47.333333333333336,0,23.666666666666668" fill="#222" fill-opacity="0.06333333333333334" stroke="#000" stroke-opacity="0.02" transform="translate(44.33333333333333,23.666666666666668)"></polyline><polyline points="6.333333333333333,0,12.666666666666666,23.666666666666668,6.333333333333333,47.333333333333336,0,23.666666666666668" fill="#222" fill-opacity="0.13266666666666665" stroke="#000" stroke-opacity="0.02" transform="translate(56.99999999999999,23.666666666666668)"></polyline><polyline points="6.333333333333333,0,12.666666666666666,23.666666666666668,6.333333333333333,47.333333333333336,0,23.666666666666668" fill="#ddd" fill-opacity="0.05466666666666667" stroke="#000" stroke-opacity="0.02" transform="translate(0,47.33333333333333)"></polyline><polyline points="6.333333333333333,0,12.666666666666666,23.666666666666668,6.333333333333333,47.333333333333336,0,23.666666666666668" fill="#ddd" fill-opacity="0.05466666666666667" stroke="#000" stroke-opacity="0.02" transform="translate(76,47.33333333333333)"></polyline><polyline points="6.333333333333333,0,12.666666666666666,23.666666666666668,6.333333333333333,47.333333333333336,0,23.666666666666668" fill="#ddd" fill-opacity="0.07200000000000001" stroke="#000" stroke-opacity="0.02" transform="translate(12.666666666666666,47.33333333333333)"></polyline><polyline points="6.333333333333333,0,12.666666666666666,23.666666666666668,6.333333333333333,47.333333333333336,0,23.666666666666668" fill="#222" fill-opacity="0.11533333333333334" stroke="#000" stroke-opacity="0.02" transform="translate(25.333333333333332,47.33333333333333)"></polyline><polyline points="6.333333333333333,0,12.666666666666666,23.666666666666668,6.333333333333333,47.333333333333336,0,23.666666666666668" fill="#222" fill-opacity="0.08066666666666666" stroke="#000" stroke-opacity="0.02" transform="translate(38,47.33333333333333)"></polyline><polyline points="6.333333333333333,0,12.666666666666666,23.666666666666668,6.333333333333333,47.333333333333336,0,23.666666666666668" fill="#ddd" fill-opacity="0.05466666666666667" stroke="#000" stroke-opacity="0.02" transform="translate(50.666666666666664,47.33333333333333)"></polyline><polyline points="6.333333333333333,0,12.666666666666666,23.666666666666668,6.333333333333333,47.333333333333336,0,23.666666666666668" fill="#222" fill-opacity="0.13266666666666665" stroke="#000" stroke-opacity="0.02" transform="translate(63.33333333333333,47.33333333333333)"></polyline><polyline points="6.333333333333333,0,12.666666666666666,23.666666666666668,6.333333333333333,47.333333333333336,0,23.666666666666668" fill="#ddd" fill-opacity="0.05466666666666667" stroke="#000" stroke-opacity="0.02" transform="translate(-6.333333333333333,71)"></polyline><polyline points="6.333333333333333,0,12.666666666666666,23.666666666666668,6.333333333333333,47.333333333333336,0,23.666666666666668" fill="#ddd" fill-opacity="0.05466666666666667" stroke="#000" stroke-opacity="0.02" transform="translate(69.66666666666667,71)"></polyline><polyline points="6.333333333333333,0,12.666666666666666,23.666666666666668,6.333333333333333,47.333333333333336,0,23.666666666666668" fill="#ddd" fill-opacity="0.03733333333333333" stroke="#000" stroke-opacity="0.02" transform="translate(6.333333333333333,71)"></polyline><polyline points="6.333333333333333,0,12.666666666666666,23.666666666666668,6.333333333333333,47.333333333333336,0,23.666666666666668" fill="#ddd" fill-opacity="0.12400000000000001" stroke="#000" stroke-opacity="0.02" transform="translate(19,71)"></polyline><polyline points="6.333333333333333,0,12.666666666666666,23.666666666666668,6.333333333333333,47.333333333333336,0,23.666666666666668" fill="#222" fill-opacity="0.028666666666666667" stroke="#000" stroke-opacity="0.02" transform="translate(31.666666666666668,71)"></polyline><polyline points="6.333333333333333,0,12.666666666666666,23.666666666666668,6.333333333333333,47.333333333333336,0,23.666666666666668" fill="#222" fill-opacity="0.098" stroke="#000" stroke-opacity="0.02" transform="translate(44.33333333333333,71)"></polyline><polyline points="6.333333333333333,0,12.666666666666666,23.666666666666668,6.333333333333333,47.333333333333336,0,23.666666666666668" fill="#222" fill-opacity="0.08066666666666666" stroke="#000" stroke-opacity="0.02" transform="translate(56.99999999999999,71)"></polyline><polyline points="6.333333333333333,0,12.666666666666666,23.666666666666668,6.333333333333333,47.333333333333336,0,23.666666666666668" fill="#222" fill-opacity="0.098" stroke="#000" stroke-opacity="0.02" transform="translate(0,94.66666666666667)"></polyline><polyline points="6.333333333333333,0,12.666666666666666,23.666666666666668,6.333333333333333,47.333333333333336,0,23.666666666666668" fill="#222" fill-opacity="0.098" stroke="#000" stroke-opacity="0.02" transform="translate(76,94.66666666666667)"></polyline><polyline points="6.333333333333333,0,12.666666666666666,23.666666666666668,6.333333333333333,47.333333333333336,0,23.666666666666668" fill="#222" fill-opacity="0.046" stroke="#000" stroke-opacity="0.02" transform="translate(12.666666666666666,94.66666666666667)"></polyline><polyline points="6.333333333333333,0,12.666666666666666,23.666666666666668,6.333333333333333,47.333333333333336,0,23.666666666666668" fill="#ddd" fill-opacity="0.14133333333333334" stroke="#000" stroke-opacity="0.02" transform="translate(25.333333333333332,94.66666666666667)"></polyline><polyline points="6.333333333333333,0,12.666666666666666,23.666666666666668,6.333333333333333,47.333333333333336,0,23.666666666666668" fill="#ddd" fill-opacity="0.12400000000000001" stroke="#000" stroke-opacity="0.02" transform="translate(38,94.66666666666667)"></polyline><polyline points="6.333333333333333,0,12.666666666666666,23.666666666666668,6.333333333333333,47.333333333333336,0,23.666666666666668" fill="#222" fill-opacity="0.13266666666666665" stroke="#000" stroke-opacity="0.02" transform="translate(50.666666666666664,94.66666666666667)"></polyline><polyline points="6.333333333333333,0,12.666666666666666,23.666666666666668,6.333333333333333,47.333333333333336,0,23.666666666666668" fill="#222" fill-opacity="0.098" stroke="#000" stroke-opacity="0.02" transform="translate(63.33333333333333,94.66666666666667)"></polyline></svg>