<svg xmlns="http://www.w3.org/2000/svg" width="149" height="258"><rect x="0" y="0" width="100%" height="100%" fill="rgb(142,136,65)"></rect><polyline points="24.833333333333332,0,49.666666666666664,43.01259505462711,0,43.01259505462711,24.833333333333332,0" fill="#ddd" fill-opacity="0.08933333333333333" stroke="#000" stroke-opacity="0.02" transform="translate(-24.833333333333332,0) rotate(180,24.833333333333332,21.506297527313556)"></polyline><polyline points="24.833333333333332,0,49.666666666666664,43.01259505462711,0,43.01259505462711,24.833333333333332,0" fill="#ddd" fill-opacity="0.08933333333333333" stroke="#000" stroke-opacity="0.02" transform="translate(124.16666666666667,0) rotate(180,24.833333333333332,21.506297527313556)"></polyline><polyline points="24.833333333333332,0,49.666666666666664,43.01259505462711,0,43.01259505462711,24.833333333333332,0" fill="#222" fill-opacity="0.06333333333333334" stroke="#000" stroke-opacity="0.02" transform="translate(0,0) rotate(0,24.833333333333332,21.506297527313556)"></polyline><polyline points="24.833333333333332,0,49.666666666666664,43.01259505462711,0,43.01259505462711,24.833333333333332,0" fill="#ddd" fill-opacity="0.02" stroke="#000" stroke-opacity="0.02" transform="translate(24.833333333333332,0) rotate(180,24.833333333333332,21.506297527313556)"></polyline><polyline points="24.833333333333332,0,49.666666666666664,43.01259505462711,0,43.01259505462711,24.833333333333332,0" fill="#222" fill-opacity="0.098" stroke="#000" stroke-opacity="0.02" transform="translate(49.66666666666667,0) rotate(0,24.833333333333332,21.506297527313556)"></polyline><polyline points="24.833333333333332,0,49.666666666666664,43.01259505462711,0,43.01259505462711,24.833333333333332,0" fill="#ddd" fill-opacity="0.05466666666666667" stroke="#000" stroke-opacity="0.02" transform="translate(74.5,0) rotate(180,24.833333333333332,21.506297527313556)"></polyline><polyline points="24.833333333333332,0,49.666666666666664,43.01259505462711,0,43.01259505462711,24.833333333333332,0" fill="#ddd" fill-opacity="0.12400000000000001" stroke="#000" stroke-opacity="0.02" transform="translate(99.33333333333333,0) rotate(0,24.833333333333332,21.506297527313556)"></polyline><polyline points="24.833333333333332,0,49.666666666666664,43.01259505462711,0,43.01259505462711,24.833333333333332,0" fill="#ddd" fill-opacity="0.02" stroke="#000" stroke-opacity="0.02" transform="translate(-24.833333333333332,43.01259505462711) rotate(0,24.833333333333332,21.506297527313556)"></polyline><polyline points="24.833333333333332,0,49.666666666666664,43.01259505462711,0,43.01259505462711,24.833333333333332,0" fill="#ddd" fill-opacity="0.02" stroke="#000" stroke-opacity="0.02" transform="translate(124.16666666666667,43.01259505462711) rotate(0,24.833333333333332,21.506297527313556)"></polyline><polyline points="24.833333333333332,0,49.666666666666664,43.01259505462711,0,43.01259505462711,24.833333333333332,0" fill="#ddd" fill-opacity="0.08933333333333333" stroke="#000" stroke-opacity="0.02" transform="translate(0,43.01259505462711) rotate(180,24.833333333333332,21.506297527313556)"></polyline><polyline points="24.833333333333332,0,49.666666666666664,43.01259505462711,0,43.01259505462711,24.833333333333332,0" fill="#ddd" fill-opacity="0.14133333333333334" stroke="#000" stroke-opacity="0.02" transform="translate(24.833333333333332,43.01259505462711) rotate(0,24.833333333333332,21.506297527313556)"></polyline><polyline points="24.833333333333332,0,49.666666666666664,43.01259505462711,0,43.01259505462711,24.833333333333332,0" fill="#222" fill-opacity="0.028666666666666667" stroke="#000" stroke-opacity="0.02" transform="translate(49.66666666666667,43.01259505462711) rotate(180,24.833333333333332,21.506297527313556)"></polyline><polyline points="24.833333333333332,0,49.666666666666664,43.01259505462711,0,43.01259505462711,24.833333333333332,0" fill="#ddd" fill-opacity="0.03733333333333333" stroke="#000" stroke-opacity="0.02" transform="translate(74.5,43.01259505462711) rotate(0,24.833333333333332,21.506297527313556)"></polyline><polyline points="24.833333333333332,0,49.666666666666664,43.01259505462711,0,43.01259505462711,24.833333333333332,0" fill="#ddd" fill-opacity="0.03733333333333333" stroke="#000" stroke-opacity="0.02" transform="translate(99.33333333333333,43.01259505462711) rotate(180,24.833333333333332,21.506297527313556)"></polyline><polyline points="24.833333333333332,0,49.666666666666664,43.01259505462711,0,43.01259505462711,24.833333333333332,0" fill="#222" fill-opacity="0.028666666666666667" stroke="#000" stroke-opacity="0.02" transform="translate(-24.833333333333332,86.02519010925423) rotate(180,24.833333333333332,21.506297527313556)"></polyline><polyline points="24.833333333333332,0,49.666666666666664,43.01259505462711,0,43.01259505462711,24.833333333333332,0" fill="#222" fill-opacity="0.028666666666666667" stroke="#000" stroke-opacity="0.02" transform="translate(124.16666666666667,86.02519010925423) rotate(180,24.833333333333332,21.506297527313556)"></polyline><polyline points="24.833333333333332,0,49.666666666666664,43.01259505462711,0,43.01259505462711,24.833333333333332,0" fill="#222" fill-opacity="0.098" stroke="#000" stroke-opacity="0.02" transform="translate(0,86.02519010925423) rotate(0,24.833333333333332,21.506297527313556)"></polyline><polyline points="24.833333333333332,0,49.666666666666664,43.01259505462711,0,43.01259505462711,24.833333333333332,0" fill="#222" fill-opacity="0.13266666666666665" stroke="#000" stroke-opacity="0.02" transform="translate(24.833333333333332,86.02519010925423) rotate(180,24.833333333333332,21.506297527313556)"></polyline><polyline points="24.833333333333332,0,49.666666666666664,43.01259505462711,0,43.01259505462711,24.833333333333332,0" fill="#222" fill-opacity="0.098" stroke="#000" stroke-opacity="0.02" transform="translate(49.66666666666667,86.02519010925423) rotate(0,24.833333333333332,21.506297527313556)"></polyline><polyline points="24.833333333333332,0,49.666666666666664,43.01259505462711,0,43.01259505462711,24.833333333333332,0" fill="#222" fill-opacity="0.028666666666666667" stroke="#000" stroke-opacity="0.02" transform="translate(74.5,86.02519010925423) rotate(180,24.833333333333332,21.506297527313556)"></polyline><polyline points="24.833333333333332,0,49.666666666666664,43.01259505462711,0,43.01259505462711,24.833333333333332,0" fill="#222" fill-opacity="0.06333333333333334" stroke="#000" stroke-opacity="0.02" transform="translate(99.33333333333333,86.02519010925423) rotate(0,24.833333333333332,21.506297527313556)"></polyline><polyline points="24.833333333333332,0,49.666666666666664,43.01259505462711,0,43.01259505462711,24.833333333333332,0" fill="#222" fill-opacity="0.06333333333333334" stroke="#000" stroke-opacity="0.02" transform="translate(-24.833333333333332,129.03778516388132) rotate(0,24.833333333333332,21.506297527313556)"></polyline><polyline points="24.833333333333332,0,49.666666666666664,43.01259505462711,0,43.01259505462711,24.833333333333332,0" fill="#222" fill-opacity="0.06333333333333334" stroke="#000" stroke-opacity="0.02" transform="translate(124.16666666666667,129.03778516388132) rotate(0,24.833333333333332,21.506297527313556)"></polyline><polyline points="24.833333333333332,0,49.666666666666664,43.01259505462711,0,43.01259505462711,24.833333333333332,0" fill="#ddd" fill-opacity="0.07200000000000001" stroke="#000" stroke-opacity="0.02" transform="translate(0,129.03778516388132) rotate(180,24.833333333333332,21.506297527313556)"></polyline><polyline points="24.833333333333332,0,49.666666666666664,43.01259505462711,0,43.01259505462711,24.833333333333332,0" fill="#ddd" fill-opacity="0.08933333333333333" stroke="#000" stroke-opacity="0.02" transform="translate(24.833333333333332,129.03778516388132) rotate(0,24.833333333333332,21.506297527313556)"></polyline><polyline points="24.833333333333332,0,49.666666666666664,43.01259505462711,0,43.01259505462711,24.833333333333332,0" fill="#ddd" fill-opacity="0.02" stroke="#000" stroke-opacity="0.02" transform="translate(49.66666666666667,129.03778516388132) rotate(180,24.833333333333332,21.506297527313556)"></polyline><polyline points="24.833333333333332,0,49.666666666666664,43.01259505462711,0,43.01259505462711,24.833333333333332,0" fill="#ddd" fill-opacity="0.08933333333333333" stroke="#000" stroke-opacity="0.02" transform="translate(74.5,129.03778516388132) rotate(0,24.833333333333332,21.506297527313556)"></polyline><polyline points="24.833333333333332,0,49.666666666666664,43.01259505462711,0,43.01259505462711,24.833333333333332,0" fill="#ddd" fill-opacity="0.02" stroke="#000" stroke-opacity="0.02" transform="translate(99.33333333333333,129.03778516388132) rotate(180,24.833333333333332,21.506297527313556)"></polyline><polyline points="24.833333333333332,0,49.666666666666664,43.01259505462711,0,43.01259505462711,24.833333333333332,0" fill="#ddd" fill-opacity="0.03733333333333333" stroke="#000" stroke-opacity="0.02" transform="translate(-24.833333333333332,172.05038021850845) rotate(180,24.833333333333332,21.506297527313556)"></polyline><polyline points="24.833333333333332,0,49.666666666666664,43.01259505462711,0,43.01259505462711,24.833333333333332,0" fill="#ddd" fill-opacity="0.03733333333333333" stroke="#000" stroke-opacity="0.02" transform="translate(124.16666666666667,172.05038021850845) rotate(180,24.833333333333332,21.506297527313556)"></polyline><polyline points="24.833333333333332,0,49.666666666666664,43.01259505462711,0,43.01259505462711,24.833333333333332,0" fill="#ddd" fill-opacity="0.12400000000000001" stroke="#000" stroke-opacity="0.02" transform="translate(0,172.05038021850845) rotate(0,24.833333333333332,21.506297527313556)"></polyline><polyline points="24.833333333333332,0,49.666666666666664,43.01259505462711,0,43.01259505462711,24.833333333333332,0" fill="#222" fill-opacity="0.06333333333333334" stroke="#000" stroke-opacity="0.02" transform="translate(24.833333333333332,172.05038021850845) rotate(180,24.833333333333332,21.506297527313556)"></polyline><polyline points="24.833333333333332,0,49.666666666666664,43.01259505462711,0,43.01259505462711,24.833333333333332,0" fill="#ddd" fill-opacity="0.10666666666666667" stroke="#000" stroke-opacity="0.02" transform="translate(49.66666666666667,172.05038021850845) rotate(0,24.833333333333332,21.506297527313556)"></polyline><polyline points="24.833333333333332,0,49.666666666666664,43.01259505462711,0,43.01259505462711,24.833333333333332,0" fill="#ddd" fill-opacity="0.12400000000000001" stroke="#000" stroke-opacity="0.02" transform="translate(74.5,172.05038021850845) rotate(180,24.833333333333332,21.506297527313556)"></polyline><polyline points="24.833333333333332,0,49.666666666666664,43.01259505462711,0,43.01259505462711,24.833333333333332,0" fill="#ddd" fill-opacity="0.10666666666666667" stroke="#000" stroke-opacity="0.02" transform="translate(99.33333333333333,172.05038021850845) rotate(0,24.833333333333332,21.506297527313556)"></polyline><polyline points="24.833333333333332,0,49.666666666666664,43.01259505462711,0,43.01259505462711,24.833333333333332,0" fill="#222" fill-opacity="0.046" stroke="#000" stroke-opacity="0.02" transform="translate(-24.833333333333332,215.06297527313558) rotate(0,24.833333333333332,21.506297527313556)"></polyline><polyline points="24.833333333333332,0,49.666666666666664,43.01259505462711,0,43.01259505462711,24.833333333333332,0" fill="#222" fill-opacity="0.046" stroke="#000" stroke-opacity="0.02" transform="translate(124.16666666666667,215.06297527313558) rotate(0,24.833333333333332,21.506297527313556)"></polyline><polyline points="24.833333333333332,0,49.666666666666664,43.01259505462711,0,43.01259505462711,24.833333333333332,0" fill="#ddd" fill-opacity="0.07200000000000001" stroke="#000" stroke-opacity="0.02" transform="translate(0,215.06297527313558) rotate(180,24.833333333333332,21.506297527313556)"></polyline><polyline points="24.833333333333332,0,49.666666666666664,43.01259505462711,0,43.01259505462711,24.833333333333332,0" fill="#ddd" fill-opacity="0.05466666666666667" stroke="#000" stroke-opacity="0.02" transform="translate(24.833333333333332,215.06297527313558) rotate(0,24.833333333333332,21.506297527313556)"></polyline><polyline points="24.833333333333332,0,49.666666666666664,43.01259505462711,0,43.01259505462711,24.833333333333332,0" fill="#ddd" fill-opacity="0.03733333333333333" stroke="#000" stroke-opacity="0.02" transform="translate(49.66666666666667,215.06297527313558) rotate(180,24.833333333333332,21.506297527313556)"></polyline><polyline points="24.833333333333332,0,49.666666666666664,43.01259505462711,0,43.01259505462711,24.833333333333332,0" fill="#ddd" fill-opacity="0.03733333333333333" stroke="#000" stroke-opacity="0.02" transform="translate(74.5,215.06297527313558) rotate(0,24.833333333333332,21.506297527313556)"></polyline><polyline points="24.833333333333332,0,49.666666666666664,43.01259505462711,0,43.01259505462711,24.833333333333332,0" fill="#222" fill-opacity="0.098" stroke="#000" stroke-opacity="0.02" transform="translate(99.33333333333333,215.06297527313558) rotate(180,24.833333333333332,21.506297527313556)"></polyline></svg>