<svg xmlns="http://www.w3.org/2000/svg" width="92" height="134"><rect x="0" y="0" width="100%" height="100%" fill="rgb(116,50,157)"></rect><polyline points="7.666666666666666,0,15.333333333333332,22.333333333333332,7.666666666666666,44.666666666666664,0,22.333333333333332" fill="#ddd" fill-opacity="0.03733333333333333" stroke="#000" stroke-opacity="0.02" transform="translate(-7.666666666666666,-22.333333333333332)"></polyline><polyline points="7.666666666666666,0,15.333333333333332,22.333333333333332,7.666666666666666,44.666666666666664,0,22.333333333333332" fill="#ddd" fill-opacity="0.03733333333333333" stroke="#000" stroke-opacity="0.02" transform="translate(84.33333333333333,-22.333333333333332)"></polyline><polyline points="7.666666666666666,0,15.333333333333332,22.333333333333332,7.666666666666666,44.666666666666664,0,22.333333333333332" fill="#ddd" fill-opacity="0.03733333333333333" stroke="#000" stroke-opacity="0.02" transform="translate(-7.666666666666666,111.66666666666667)"></polyline><polyline points="7.666666666666666,0,15.333333333333332,22.333333333333332,7.666666666666666,44.666666666666664,0,22.333333333333332" fill="#ddd" fill-opacity="0.03733333333333333" stroke="#000" stroke-opacity="0.02" transform="translate(84.33333333333333,111.66666666666667)"></polyline><polyline points="7.666666666666666,0,15.333333333333332,22.333333333333332,7.666666666666666,44.666666666666664,0,22.333333333333332" fill="#222" fill-opacity="0.13266666666666665" stroke="#000" stroke-opacity="0.02" transform="translate(7.666666666666666,-22.333333333333332)"></polyline><polyline points="7.666666666666666,0,15.333333333333332,22.333333333333332,7.666666666666666,44.666666666666664,0,22.333333333333332" fill="#222" fill-opacity="0.13266666666666665" stroke="#000" stroke-opacity="0.02" transform="translate(7.666666666666666,111.66666666666667)"></polyline><polyline points="7.666666666666666,0,15.333333333333332,22.333333333333332,7.666666666666666,44.666666666666664,0,22.333333333333332" fill="#ddd" fill-opacity="0.14133333333333334" stroke="#000" stroke-opacity="0.02" transform="translate(23,-22.333333333333332)"></polyline><polyline points="7.666666666666666,0,15.333333333333332,22.333333333333332,7.666666666666666,44.666666666666664,0,22.333333333333332" fill="#ddd" fill-opacity="0.14133333333333334" stroke="#000" stroke-opacity="0.02" transform="translate(23,111.66666666666667)"></polyline><polyline points="7.666666666666666,0,15.333333333333332,22.333333333333332,7.666666666666666,44.666666666666664,0,22.333333333333332" fill="#ddd" fill-opacity="0.08933333333333333" stroke="#000" stroke-opacity="0.02" transform="translate(38.333333333333336,-22.333333333333332)"></polyline><polyline points="7.666666666666666,0,15.333333333333332,22.333333333333332,7.666666666666666,44.666666666666664,0,22.333333333333332" fill="#ddd" fill-opacity="0.08933333333333333" stroke="#000" stroke-opacity="0.02" transform="translate(38.333333333333336,111.66666666666667)"></polyline><polyline points="7.666666666666666,0,15.333333333333332,22.333333333333332,7.666666666666666,44.666666666666664,0,22.333333333333332" fill="#ddd" fill-opacity="0.14133333333333334" stroke="#000" stroke-opacity="0.02" transform="translate(53.666666666666664,-22.333333333333332)"></polyline><polyline points="7.666666666666666,0,15.333333333333332,22.333333333333332,7.666666666666666,44.666666666666664,0,22.333333333333332" fill="#ddd" fill-opacity="0.14133333333333334" stroke="#000" stroke-opacity="0.02" transform="translate(53.666666666666664,111.66666666666667)"></polyline><polyline points="7.666666666666666,0,15.333333333333332,22.333333333333332,7.666666666666666,44.666666666666664,0,22.333333333333332" fill="#ddd" fill-opacity="0.07200000000000001" stroke="#000" stroke-opacity="0.02" transform="translate(68.99999999999999,-22.333333333333332)"></polyline><polyline points="7.666666666666666,0,15.333333333333332,22.333333333333332,7.666666666666666,44.666666666666664,0,22.333333333333332" fill="#ddd" fill-opacity="0.07200000000000001" stroke="#000" stroke-opacity="0.02" transform="translate(68.99999999999999,111.66666666666667)"></polyline><polyline points="7.666666666666666,0,15.333333333333332,22.333333333333332,7.666666666666666,44.666666666666664,0,22.333333333333332" fill="#ddd" fill-opacity="0.02" stroke="#000" stroke-opacity="0.02" transform="translate(0,0)"></polyline><polyline points="7.666666666666666,0,15.333333333333332,22.333333333333332,7.666666666666666,44.666666666666664,0,22.333333333333332" fill="#ddd" fill-opacity="0.02" stroke="#000" stroke-opacity="0.02" transform="translate(92,0)"></polyline><polyline points="7.666666666666666,0,15.333333333333332,22.333333333333332,7.666666666666666,44.666666666666664,0,22.333333333333332" fill="#ddd" fill-opacity="0.10666666666666667" stroke="#000" stroke-opacity="0.02" transform="translate(15.333333333333332,0)"></polyline><polyline points="7.666666666666666,0,15.333333333333332,22.333333333333332,7.666666666666666,44.666666666666664,0,22.333333333333332" fill="#ddd" fill-opacity="0.08933333333333333" stroke="#000" stroke-opacity="0.02" transform="translate(30.666666666666664,0)"></polyline><polyline points="7.666666666666666,0,15.333333333333332,22.333333333333332,7.666666666666666,44.666666666666664,0,22.333333333333332" fill="#ddd" fill-opacity="0.05466666666666667" stroke="#000" stroke-opacity="0.02" transform="translate(46,0)"></polyline><polyline points="7.666666666666666,0,15.333333333333332,22.333333333333332,7.666666666666666,44.666666666666664,0,22.333333333333332" fill="#222" fill-opacity="0.046" stroke="#000" stroke-opacity="0.02" transform="translate(61.33333333333333,0)"></polyline><polyline points="7.666666666666666,0,15.333333333333332,22.333333333333332,7.666666666666666,44.666666666666664,0,22.333333333333332" fill="#222" fill-opacity="0.098" stroke="#000" stroke-opacity="0.02" transform="translate(76.66666666666666,0)"></polyline><polyline points="7.666666666666666,0,15.333333333333332,22.333333333333332,7.666666666666666,44.666666666666664,0,22.333333333333332" fill="#ddd" fill-opacity="0.12400000000000001" stroke="#000" stroke-opacity="0.02" transform="translate(-7.666666666666666,22.333333333333332)"></polyline><polyline points="7.666666666666666,0,15.333333333333332,22.333333333333332,7.666666666666666,44.666666666666664,0,22.333333333333332" fill="#ddd" fill-opacity="0.12400000000000001" stroke="#000" stroke-opacity="0.02" transform="translate(84.33333333333333,22.333333333333332)"></polyline><polyline points="7.666666666666666,0,15.333333333333332,22.333333333333332,7.666666666666666,44.666666666666664,0,22.333333333333332" fill="#222" fill-opacity="0.08066666666666666" stroke="#000" stroke-opacity="0.02" transform="translate(7.666666666666666,22.333333333333332)"></polyline><polyline points="7.666666666666666,0,15.333333333333332,22.333333333333332,7.666666666666666,44.666666666666664,0,22.333333333333332" fill="#222" fill-opacity="0.046" stroke="#000" stroke-opacity="0.02" transform="translate(23,22.333333333333332)"></polyline><polyline points="7.666666666666666,0,15.333333333333332,22.333333333333332,7.666666666666666,44.666666666666664,0,22.333333333333332" fill="#222" fill-opacity="0.11533333333333334" stroke="#000" stroke-opacity="0.02" transform="translate(38.333333333333336,22.333333333333332)"></polyline><polyline points="7.666666666666666,0,15.333333333333332,22.333333333333332,7.666666666666666,44.666666666666664,0,22.333333333333332" fill="#222" fill-opacity="0.028666666666666667" stroke="#000" stroke-opacity="0.02" transform="translate(53.666666666666664,22.333333333333332)"></polyline><polyline points="7.666666666666666,0,15.333333333333332,22.333333333333332,7.666666666666666,44.666666666666664,0,22.333333333333332" fill="#ddd" fill-opacity="0.10666666666666667" stroke="#000" stroke-opacity="0.02" transform="translate(68.99999999999999,22.333333333333332)"></polyline><polyline points="7.666666666666666,0,15.333333333333332,22.333333333333332,7.666666666666666,44.666666666666664,0,22.333333333333332" fill="#ddd" fill-opacity="0.14133333333333334" stroke="#000" stroke-opacity="0.02" transform="translate(0,44.66666666666667)"></polyline><polyline points="7.666666666666666,0,15.333333333333332,22.333333333333332,7.666666666666666,44.666666666666664,0,22.333333333333332" fill="#ddd" fill-opacity="0.14133333333333334" stroke="#000" stroke-opacity="0.02" transform="translate(92,44.66666666666667)"></polyline><polyline points="7.666666666666666,0,15.333333333333332,22.333333333333332,7.666666666666666,44.666666666666664,0,22.333333333333332" fill="#ddd" fill-opacity="0.05466666666666667" stroke="#000" stroke-opacity="0.02" transform="translate(15.333333333333332,44.66666666666667)"></polyline><polyline points="7.666666666666666,0,15.333333333333332,22.333333333333332,7.666666666666666,44.666666666666664,0,22.333333333333332" fill="#222" fill-opacity="0.11533333333333334" stroke="#000" stroke-opacity="0.02" transform="translate(30.666666666666664,44.66666666666667)"></polyline><polyline points="7.666666666666666,0,15.333333333333332,22.333333333333332,7.666666666666666,44.666666666666664,0,22.333333333333332" fill="#222" fill-opacity="0.028666666666666667" stroke="#000" stroke-opacity="0.02" transform="translate(46,44.66666666666667)"></polyline><polyline points="7.666666666666666,0,15.333333333333332,22.333333333333332,7.666666666666666,44.666666666666664,0,22.333333333333332" fill="#222" fill-opacity="0.028666666666666667" stroke="#000" stroke-opacity="0.02" transform="translate(61.33333333333333,44.66666666666667)"></polyline><polyline points="7.666666666666666,0,15.333333333333332,22.333333333333332,7.666666666666666,44.666666666666664,0,22.333333333333332" fill="#ddd" fill-opacity="0.10666666666666667" stroke="#000" stroke-opacity="0.02" transform="translate(76.66666666666666,44.66666666666667)"></polyline><polyline points="7.666666666666666,0,15.333333333333332,22.333333333333332,7.666666666666666,44.666666666666664,0,22.333333333333332" fill="#222" fill-opacity="0.06333333333333334" stroke="#000" stroke-opacity="0.02" transform="translate(-7.666666666666666,67)"></polyline><polyline points="7.666666666666666,0,15.333333333333332,22.333333333333332,7.666666666666666,44.666666666666664,0,22.333333333333332" fill="#222" fill-opacity="0.06333333333333334" stroke="#000" stroke-opacity="0.02" transform="translate(84.33333333333333,67)"></polyline><polyline points="7.666666666666666,0,15.333333333333332,22.333333333333332,7.666666666666666,44.666666666666664,0,22.333333333333332" fill="#222" fill-opacity="0.046" stroke="#000" stroke-opacity="0.02" transform="translate(7.666666666666666,67)"></polyline><polyline points="7.666666666666666,0,15.333333333333332,22.333333333333332,7.666666666666666,44.666666666666664,0,22.333333333333332" fill="#222" fill-opacity="0.06333333333333334" stroke="#000" stroke-opacity="0.02" transform="translate(23,67)"></polyline><polyline points="7.666666666666666,0,15.333333333333332,22.333333333333332,7.666666666666666,44.666666666666664,0,22.333333333333332" fill="#ddd" fill-opacity="0.02" stroke="#000" stroke-opacity="0.02" transform="translate(38.333333333333336,67)"></polyline><polyline points="7.666666666666666,0,15.333333333333332,22.333333333333332,7.666666666666666,44.666666666666664,0,22.333333333333332" fill="#ddd" fill-opacity="0.08933333333333333" stroke="#000" stroke-opacity="0.02" transform="translate(53.666666666666664,67)"></polyline><polyline points="7.666666666666666,0,15.333333333333332,22.333333333333332,7.666666666666666,44.666666666666664,0,22.333333333333332" fill="#ddd" fill-opacity="0.08933333333333333" stroke="#000" stroke-opacity="0.02" transform="translate(68.99999999999999,67)"></polyline><polyline points="7.666666666666666,0,15.333333333333332,22.333333333333332,7.666666666666666,44.666666666666664,0,22.333333333333332" fill="#ddd" fill-opacity="0.14133333333333334" stroke="#000" stroke-opacity="0.02" transform="translate(0,89.33333333333333)"></polyline><polyline points="7.666666666666666,0,15.333333333333332,22.333333333333332,7.666666666666666,44.666666666666664,0,22.333333333333332" fill="#ddd" fill-opacity="0.14133333333333334" stroke="#000" stroke-opacity="0.02" transform="translate(92,89.33333333333333)"></polyline><polyline points="7.666666666666666,0,15.333333333333332,22.333333333333332,7.666666666666666,44.666666666666664,0,22.333333333333332" fill="#ddd" fill-opacity="0.02" stroke="#000" stroke-opacity="0.02" transform="translate(15.333333333333332,89.33333333333333)"></polyline><polyline points="7.666666666666666,0,15.333333333333332,22.333333333333332,7.666666666666666,44.666666666666664,0,22.333333333333332" fill="#ddd" fill-opacity="0.08933333333333333" stroke="#000" stroke-opacity="0.02" transform="translate(30.666666666666664,89.33333333333333)"></polyline><polyline points="7.666666666666666,0,15.333333333333332,22.333333333333332,7.666666666666666,44.666666666666664,0,22.333333333333332" fill="#ddd" fill-opacity="0.07200000000000001" stroke="#000" stroke-opacity="0.02" transform="translate(46,89.33333333333333)"></polyline><polyline points="7.666666666666666,0,15.333333333333332,22.333333333333332,7.666666666666666,44.666666666666664,0,22.333333333333332" fill="#222" fill-opacity="0.08066666666666666" stroke="#000" stroke-opacity="0.02" transform="translate(61.33333333333333,89.33333333333333)"></polyline><polyline points="7.666666666666666,0,15.333333333333332,22.333333333333332,7.666666666666666,44.666666666666664,0,22.333333333333332" fill="#ddd" fill-opacity="0.03733333333333333" stroke="#000" stroke-opacity="0.02" transform="translate(76.66666666666666,89.33333333333333)"></polyline></svg>