<svg xmlns="http://www.w3.org/2000/svg" width="388" height="388"><rect x="0" y="0" width="100%" height="100%" fill="rgb(67,147,60)"></rect><rect x="3.6" y="3.6" width="50.4" height="50.4" fill="none" stroke="#ddd" opacity="0.07200000000000001" stroke-width="7.2px"></rect><rect x="18" y="18" width="21.6" height="21.6" fill="none" stroke="#ddd" opacity="0.08933333333333333" stroke-width="7.2px"></rect><rect x="68.39999999999999" y="3.6" width="50.4" height="50.4" fill="none" stroke="#ddd" opacity="0.07200000000000001" stroke-width="7.2px"></rect><rect x="82.8" y="18" width="21.6" height="21.6" fill="none" stroke="#222" opacity="0.098" stroke-width="7.2px"></rect><rect x="133.2" y="3.6" width="50.4" height="50.4" fill="none" stroke="#222" opacity="0.11533333333333334" stroke-width="7.2px"></rect><rect x="147.6" y="18" width="21.6" height="21.6" fill="none" stroke="#222" opacity="0.08066666666666666" stroke-width="7.2px"></rect><rect x="197.99999999999997" y="3.6" width="50.4" height="50.4" fill="none" stroke="#222" opacity="0.13266666666666665" stroke-width="7.2px"></rect><rect x="212.39999999999998" y="18" width="21.6" height="21.6" fill="none" stroke="#222" opacity="0.15" stroke-width="7.2px"></rect><rect x="262.8" y="3.6" width="50.4" height="50.4" fill="none" stroke="#ddd" opacity="0.05466666666666667" stroke-width="7.2px"></rect><rect x="277.2" y="18" width="21.6" height="21.6" fill="none" stroke="#222" opacity="0.06333333333333334" stroke-width="7.2px"></rect><rect x="327.6" y="3.6" width="50.4" height="50.4" fill="none" stroke="#222" opacity="0.028666666666666667" stroke-width="7.2px"></rect><rect x="342" y="18" width="21.6" height="21.6" fill="none" stroke="#222" opacity="0.098" stroke-width="7.2px"></rect><rect x="3.6" y="68.39999999999999" width="50.4" height="50.4" fill="none" stroke="#ddd" opacity="0.02" stroke-width="7.2px"></rect><rect x="18" y="82.8" width="21.6" height="21.6" fill="none" stroke="#ddd" opacity="0.10666666666666667" stroke-width="7.2px"></rect><rect x="68.39999999999999" y="68.39999999999999" width="50.4" height="50.4" fill="none" stroke="#222" opacity="0.098" stroke-width="7.2px"></rect><rect x="82.8" y="82.8" width="21.6" height="21.6" fill="none" stroke="#222" opacity="0.08066666666666666" stroke-width="7.2px"></rect><rect x="133.2" y="68.39999999999999" width="50.4" height="50.4" fill="none" stroke="#ddd" opacity="0.03733333333333333" stroke-width="7.2px"></rect><rect x="147.6" y="82.8" width="21.6" height="21.6" fill="none" stroke="#ddd" opacity="0.05466666666666667" stroke-width="7.2px"></rect><rect x="197.99999999999997" y="68.39999999999999" width="50.4" height="50.4" fill="none" stroke="#222" opacity="0.11533333333333334" stroke-width="7.2px"></rect><rect x="212.39999999999998" y="82.8" width="21.6" height="21.6" fill="none" stroke="#222" opacity="0.08066666666666666" stroke-width="7.2px"></rect><rect x="262.8" y="68.39999999999999" width="50.4" height="50.4" fill="none" stroke="#222" opacity="0.08066666666666666" stroke-width="7.2px"></rect><rect x="277.2" y="82.8" width="21.6" height="21.6" fill="none" stroke="#222" opacity="0.15" stroke-width="7.2px"></rect><rect x="327.6" y="68.39999999999999" width="50.4" height="50.4" fill="none" stroke="#ddd" opacity="0.03733333333333333" stroke-width="7.2px"></rect><rect x="342" y="82.8" width="21.6" height="21.6" fill="none" stroke="#222" opacity="0.098" stroke-width="7.2px"></rect><rect x="3.6" y="133.2" width="50.4" height="50.4" fill="none" stroke="#222" opacity="0.06333333333333334" stroke-width="7.2px"></rect><rect x="18" y="147.6" width="21.6" height="21.6" fill="none" stroke="#ddd" opacity="0.14133333333333334" stroke-width="7.2px"></rect><rect x="68.39999999999999" y="133.2" width="50.4" height="50.4" fill="none" stroke="#ddd" opacity="0.10666666666666667" stroke-width="7.2px"></rect><rect x="82.8" y="147.6" width="21.6" height="21.6" fill="none" stroke="#222" opacity="0.098" stroke-width="7.2px"></rect><rect x="133.2" y="133.2" width="50.4" height="50.4" fill="none" stroke="#ddd" opacity="0.10666666666666667" stroke-width="7.2px"></rect><rect x="147.6" y="147.6" width="21.6" height="21.6" fill="none" stroke="#222" opacity="0.15" stroke-width="7.2px"></rect><rect x="197.99999999999997" y="133.2" width="50.4" height="50.4" fill="none" stroke="#ddd" opacity="0.14133333333333334" stroke-width="7.2px"></rect><rect x="212.39999999999998" y="147.6" width="21.6" height="21.6" fill="none" stroke="#ddd" opacity="0.07200000000000001" stroke-width="7.2px"></rect><rect x="262.8" y="133.2" width="50.4" height="50.4" fill="none" stroke="#ddd" opacity="0.08933333333333333" stroke-width="7.2px"></rect><rect x="277.2" y="147.6" width="21.6" height="21.6" fill="none" stroke="#ddd" opacity="0.05466666666666667" stroke-width="7.2px"></rect><rect x="327.6" y="133.2" width="50.4" height="50.4" fill="none" stroke="#ddd" opacity="0.02" stroke-width="7.2px"></rect><rect x="342" y="147.6" width="21.6" height="21.6" fill="none" stroke="#222" opacity="0.11533333333333334" stroke-width="7.2px"></rect><rect x="3.6" y="197.99999999999997" width="50.4" height="50.4" fill="none" stroke="#ddd" opacity="0.14133333333333334" stroke-width="7.2px"></rect><rect x="18" y="212.39999999999998" width="21.6" height="21.6" fill="none" stroke="#ddd" opacity="0.05466666666666667" stroke-width="7.2px"></rect><rect x="68.39999999999999" y="197.99999999999997" width="50.4" height="50.4" fill="none" stroke="#ddd" opacity="0.05466666666666667" stroke-width="7.2px"></rect><rect x="82.8" y="212.39999999999998" width="21.6" height="21.6" fill="none" stroke="#222" opacity="0.13266666666666665" stroke-width="7.2px"></rect><rect x="133.2" y="197.99999999999997" width="50.4" height="50.4" fill="none" stroke="#222" opacity="0.13266666666666665" stroke-width="7.2px"></rect><rect x="147.6" y="212.39999999999998" width="21.6" height="21.6" fill="none" stroke="#ddd" opacity="0.05466666666666667" stroke-width="7.2px"></rect><rect x="197.99999999999997" y="197.99999999999997" width="50.4" height="50.4" fill="none" stroke="#ddd" opacity="0.05466666666666667" stroke-width="7.2px"></rect><rect x="212.39999999999998" y="212.39999999999998" width="21.6" height="21.6" fill="none" stroke="#ddd" opacity="0.14133333333333334" stroke-width="7.2px"></rect><rect x="262.8" y="197.99999999999997" width="50.4" height="50.4" fill="none" stroke="#222" opacity="0.11533333333333334" stroke-width="7.2px"></rect><rect x="277.2" y="212.39999999999998" width="21.6" height="21.6" fill="none" stroke="#ddd" opacity="0.02" stroke-width="7.2px"></rect><rect x="327.6" y="197.99999999999997" width="50.4" height="50.4" fill="none" stroke="#ddd" opacity="0.05466666666666667" stroke-width="7.2px"></rect><rect x="342" y="212.39999999999998" width="21.6" height="21.6" fill="none" stroke="#ddd" opacity="0.08933333333333333" stroke-width="7.2px"></rect><rect x="3.6" y="262.8" width="50.4" height="50.4" fill="none" stroke="#ddd" opacity="0.07200000000000001" stroke-width="7.2px"></rect><rect x="18" y="277.2" width="21.6" height="21.6" fill="none" stroke="#ddd" opacity="0.14133333333333334" stroke-width="7.2px"></rect><rect x="68.39999999999999" y="262.8" width="50.4" height="50.4" fill="none" stroke="#222" opacity="0.15" stroke-width="7.2px"></rect><rect x="82.8" y="277.2" width="21.6" height="21.6" fill="none" stroke="#ddd" opacity="0.10666666666666667" stroke-width="7.2px"></rect><rect x="133.2" y="262.8" width="50.4" height="50.4" fill="none" stroke="#222" opacity="0.098" stroke-width="7.2px"></rect><rect x="147.6" y="277.2" width="21.6" height="21.6" fill="none" stroke="#ddd" opacity="0.10666666666666667" stroke-width="7.2px"></rect><rect x="197.99999999999997" y="262.8" width="50.4" height="50.4" fill="none" stroke="#ddd" opacity="0.14133333333333334" stroke-width="7.2px"></rect><rect x="212.39999999999998" y="277.2" width="21.6" height="21.6" fill="none" stroke="#222" opacity="0.06333333333333334" stroke-width="7.2px"></rect><rect x="262.8" y="262.8" width="50.4" height="50.4" fill="none" stroke="#222" opacity="0.098" stroke-width="7.2px"></rect><rect x="277.2" y="277.2" width="21.6" height="21.6" fill="none" stroke="#ddd" opacity="0.03733333333333333" stroke-width="7.2px"></rect><rect x="327.6" y="262.8" width="50.4" height="50.4" fill="none" stroke="#222" opacity="0.15" stroke-width="7.2px"></rect><rect x="342" y="277.2" width="21.6" height="21.6" fill="none" stroke="#222" opacity="0.08066666666666666" stroke-width="7.2px"></rect><rect x="3.6" y="327.6" width="50.4" height="50.4" fill="none" stroke="#222" opacity="0.08066666666666666" stroke-width="7.2px"></rect><rect x="18" y="342" width="21.6" height="21.6" fill="none" stroke="#222" opacity="0.11533333333333334" stroke-width="7.2px"></rect><rect x="68.39999999999999" y="327.6" width="50.4" height="50.4" fill="none" stroke="#ddd" opacity="0.05466666666666667" stroke-width="7.2px"></rect><rect x="82.8" y="342" width="21.6" height="21.6" fill="none" stroke="#ddd" opacity="0.03733333333333333" stroke-width="7.2px"></rect><rect x="133.2" y="327.6" width="50.4" height="50.4" fill="none" stroke="#222" opacity="0.08066666666666666" stroke-width="7.2px"></rect><rect x="147.6" y="342" width="21.6" height="21.6" fill="none" stroke="#222" opacity="0.098" stroke-width="7.2px"></rect><rect x="197.99999999999997" y="327.6" width="50.4" height="50.4" fill="none" stroke="#ddd" opacity="0.10666666666666667" stroke-width="7.2px"></rect><rect x="212.39999999999998" y="342" width="21.6" height="21.6" fill="none" stroke="#ddd" opacity="0.02" stroke-width="7.2px"></rect><rect x="262.8" y="327.6" width="50.4" height="50.4" fill="none" stroke="#222" opacity="0.098" stroke-width="7.2px"></rect><rect x="277.2" y="342" width="21.6" height="21.6" fill="none" stroke="#222" opacity="0.028666666666666667" stroke-width="7.2px"></rect><rect x="327.6" y="327.6" width="50.4" height="50.4" fill="none" stroke="#222" opacity="0.06333333333333334" stroke-width="7.2px"></rect><rect x="342" y="342" width="21.6" height="21.6" fill="none" stroke="#ddd" opacity="0.05466666666666667" stroke-width="7.2px"></rect></svg>