<svg xmlns="http://www.w3.org/2000/svg" width="204" height="46"><rect x="0" y="0" width="100%" height="100%" fill="rgb(117,142,65)"></rect><polyline points="17,0,34,7.666666666666666,17,15.333333333333332,0,7.666666666666666" fill="#222" fill-opacity="0.098" stroke="#000" stroke-opacity="0.02" transform="translate(-17,-7.666666666666666)"></polyline><polyline points="17,0,34,7.666666666666666,17,15.333333333333332,0,7.666666666666666" fill="#222" fill-opacity="0.098" stroke="#000" stroke-opacity="0.02" transform="translate(187,-7.666666666666666)"></polyline><polyline points="17,0,34,7.666666666666666,17,15.333333333333332,0,7.666666666666666" fill="#222" fill-opacity="0.098" stroke="#000" stroke-opacity="0.02" transform="translate(-17,38.333333333333336)"></polyline><polyline points="17,0,34,7.666666666666666,17,15.333333333333332,0,7.666666666666666" fill="#222" fill-opacity="0.098" stroke="#000" stroke-opacity="0.02" transform="translate(187,38.333333333333336)"></polyline><polyline points="17,0,34,7.666666666666666,17,15.333333333333332,0,7.666666666666666" fill="#ddd" fill-opacity="0.03733333333333333" stroke="#000" stroke-opacity="0.02" transform="translate(17,-7.666666666666666)"></polyline><polyline points="17,0,34,7.666666666666666,17,15.333333333333332,0,7.666666666666666" fill="#ddd" fill-opacity="0.03733333333333333" stroke="#000" stroke-opacity="0.02" transform="translate(17,38.333333333333336)"></polyline><polyline points="17,0,34,7.666666666666666,17,15.333333333333332,0,7.666666666666666" fill="#222" fill-opacity="0.046" stroke="#000" stroke-opacity="0.02" transform="translate(51,-7.666666666666666)"></polyline><polyline points="17,0,34,7.666666666666666,17,15.333333333333332,0,7.666666666666666" fill="#222" fill-opacity="0.046" stroke="#000" stroke-opacity="0.02" transform="translate(51,38.333333333333336)"></polyline><polyline points="17,0,34,7.666666666666666,17,15.333333333333332,0,7.666666666666666" fill="#ddd" fill-opacity="0.08933333333333333" stroke="#000" stroke-opacity="0.02" transform="translate(85,-7.666666666666666)"></polyline><polyline points="17,0,34,7.666666666666666,17,15.333333333333332,0,7.666666666666666" fill="#ddd" fill-opacity="0.08933333333333333" stroke="#000" stroke-opacity="0.02" transform="translate(85,38.333333333333336)"></polyline><polyline points="17,0,34,7.666666666666666,17,15.333333333333332,0,7.666666666666666" fill="#ddd" fill-opacity="0.03733333333333333" stroke="#000" stroke-opacity="0.02" transform="translate(119,-7.666666666666666)"></polyline><polyline points="17,0,34,7.666666666666666,17,15.333333333333332,0,7.666666666666666" fill="#ddd" fill-opacity="0.03733333333333333" stroke="#000" stroke-opacity="0.02" transform="translate(119,38.333333333333336)"></polyline><polyline points="17,0,34,7.666666666666666,17,15.333333333333332,0,7.666666666666666" fill="#ddd" fill-opacity="0.03733333333333333" stroke="#000" stroke-opacity="0.02" transform="translate(153,-7.666666666666666)"></polyline><polyline points="17,0,34,7.666666666666666,17,15.333333333333332,0,7.666666666666666" fill="#ddd" fill-opacity="0.03733333333333333" stroke="#000" stroke-opacity="0.02" transform="translate(153,38.333333333333336)"></polyline><polyline points="17,0,34,7.666666666666666,17,15.333333333333332,0,7.666666666666666" fill="#ddd" fill-opacity="0.12400000000000001" stroke="#000" stroke-opacity="0.02" transform="translate(0,0)"></polyline><polyline points="17,0,34,7.666666666666666,17,15.333333333333332,0,7.666666666666666" fill="#ddd" fill-opacity="0.12400000000000001" stroke="#000" stroke-opacity="0.02" transform="translate(204,0)"></polyline><polyline points="17,0,34,7.666666666666666,17,15.333333333333332,0,7.666666666666666" fill="#ddd" fill-opacity="0.02" stroke="#000" stroke-opacity="0.02" transform="translate(34,0)"></polyline><polyline points="17,0,34,7.666666666666666,17,15.333333333333332,0,7.666666666666666" fill="#222" fill-opacity="0.08066666666666666" stroke="#000" stroke-opacity="0.02" transform="translate(68,0)"></polyline><polyline points="17,0,34,7.666666666666666,17,15.333333333333332,0,7.666666666666666" fill="#222" fill-opacity="0.15" stroke="#000" stroke-opacity="0.02" transform="translate(102,0)"></polyline><polyline points="17,0,34,7.666666666666666,17,15.333333333333332,0,7.666666666666666" fill="#ddd" fill-opacity="0.08933333333333333" stroke="#000" stroke-opacity="0.02" transform="translate(136,0)"></polyline><polyline points="17,0,34,7.666666666666666,17,15.333333333333332,0,7.666666666666666" fill="#ddd" fill-opacity="0.02" stroke="#000" stroke-opacity="0.02" transform="translate(170,0)"></polyline><polyline points="17,0,34,7.666666666666666,17,15.333333333333332,0,7.666666666666666" fill="#ddd" fill-opacity="0.14133333333333334" stroke="#000" stroke-opacity="0.02" transform="translate(-17,7.666666666666666)"></polyline><polyline points="17,0,34,7.666666666666666,17,15.333333333333332,0,7.666666666666666" fill="#ddd" fill-opacity="0.14133333333333334" stroke="#000" stroke-opacity="0.02" transform="translate(187,7.666666666666666)"></polyline><polyline points="17,0,34,7.666666666666666,17,15.333333333333332,0,7.666666666666666" fill="#222" fill-opacity="0.098" stroke="#000" stroke-opacity="0.02" transform="translate(17,7.666666666666666)"></polyline><polyline points="17,0,34,7.666666666666666,17,15.333333333333332,0,7.666666666666666" fill="#ddd" fill-opacity="0.12400000000000001" stroke="#000" stroke-opacity="0.02" transform="translate(51,7.666666666666666)"></polyline><polyline points="17,0,34,7.666666666666666,17,15.333333333333332,0,7.666666666666666" fill="#ddd" fill-opacity="0.08933333333333333" stroke="#000" stroke-opacity="0.02" transform="translate(85,7.666666666666666)"></polyline><polyline points="17,0,34,7.666666666666666,17,15.333333333333332,0,7.666666666666666" fill="#ddd" fill-opacity="0.02" stroke="#000" stroke-opacity="0.02" transform="translate(119,7.666666666666666)"></polyline><polyline points="17,0,34,7.666666666666666,17,15.333333333333332,0,7.666666666666666" fill="#222" fill-opacity="0.06333333333333334" stroke="#000" stroke-opacity="0.02" transform="translate(153,7.666666666666666)"></polyline><polyline points="17,0,34,7.666666666666666,17,15.333333333333332,0,7.666666666666666" fill="#ddd" fill-opacity="0.02" stroke="#000" stroke-opacity="0.02" transform="translate(0,15.333333333333334)"></polyline><polyline points="17,0,34,7.666666666666666,17,15.333333333333332,0,7.666666666666666" fill="#ddd" fill-opacity="0.02" stroke="#000" stroke-opacity="0.02" transform="translate(204,15.333333333333334)"></polyline><polyline points="17,0,34,7.666666666666666,17,15.333333333333332,0,7.666666666666666" fill="#ddd" fill-opacity="0.02" stroke="#000" stroke-opacity="0.02" transform="translate(34,15.333333333333334)"></polyline><polyline points="17,0,34,7.666666666666666,17,15.333333333333332,0,7.666666666666666" fill="#222" fill-opacity="0.11533333333333334" stroke="#000" stroke-opacity="0.02" transform="translate(68,15.333333333333334)"></polyline><polyline points="17,0,34,7.666666666666666,17,15.333333333333332,0,7.666666666666666" fill="#222" fill-opacity="0.08066666666666666" stroke="#000" stroke-opacity="0.02" transform="translate(102,15.333333333333334)"></polyline><polyline points="17,0,34,7.666666666666666,17,15.333333333333332,0,7.666666666666666" fill="#222" fill-opacity="0.028666666666666667" stroke="#000" stroke-opacity="0.02" transform="translate(136,15.333333333333334)"></polyline><polyline points="17,0,34,7.666666666666666,17,15.333333333333332,0,7.666666666666666" fill="#222" fill-opacity="0.08066666666666666" stroke="#000" stroke-opacity="0.02" transform="translate(170,15.333333333333334)"></polyline><polyline points="17,0,34,7.666666666666666,17,15.333333333333332,0,7.666666666666666" fill="#222" fill-opacity="0.08066666666666666" stroke="#000" stroke-opacity="0.02" transform="translate(-17,23)"></polyline><polyline points="17,0,34,7.666666666666666,17,15.333333333333332,0,7.666666666666666" fill="#222" fill-opacity="0.08066666666666666" stroke="#000" stroke-opacity="0.02" transform="translate(187,23)"></polyline><polyline points="17,0,34,7.666666666666666,17,15.333333333333332,0,7.666666666666666" fill="#222" fill-opacity="0.046" stroke="#000" stroke-opacity="0.02" transform="translate(17,23)"></polyline><polyline points="17,0,34,7.666666666666666,17,15.333333333333332,0,7.666666666666666" fill="#222" fill-opacity="0.028666666666666667" stroke="#000" stroke-opacity="0.02" transform="translate(51,23)"></polyline><polyline points="17,0,34,7.666666666666666,17,15.333333333333332,0,7.666666666666666" fill="#ddd" fill-opacity="0.14133333333333334" stroke="#000" stroke-opacity="0.02" transform="translate(85,23)"></polyline><polyline points="17,0,34,7.666666666666666,17,15.333333333333332,0,7.666666666666666" fill="#ddd" fill-opacity="0.08933333333333333" stroke="#000" stroke-opacity="0.02" transform="translate(119,23)"></polyline><polyline points="17,0,34,7.666666666666666,17,15.333333333333332,0,7.666666666666666" fill="#ddd" fill-opacity="0.14133333333333334" stroke="#000" stroke-opacity="0.02" transform="translate(153,23)"></polyline><polyline points="17,0,34,7.666666666666666,17,15.333333333333332,0,7.666666666666666" fill="#222" fill-opacity="0.08066666666666666" stroke="#000" stroke-opacity="0.02" transform="translate(0,30.666666666666664)"></polyline><polyline points="17,0,34,7.666666666666666,17,15.333333333333332,0,7.666666666666666" fill="#222" fill-opacity="0.08066666666666666" stroke="#000" stroke-opacity="0.02" transform="translate(204,30.666666666666664)"></polyline><polyline points="17,0,34,7.666666666666666,17,15.333333333333332,0,7.666666666666666" fill="#ddd" fill-opacity="0.08933333333333333" stroke="#000" stroke-opacity="0.02" transform="translate(34,30.666666666666664)"></polyline><polyline points="17,0,34,7.666666666666666,17,15.333333333333332,0,7.666666666666666" fill="#222" fill-opacity="0.08066666666666666" stroke="#000" stroke-opacity="0.02" transform="translate(68,30.666666666666664)"></polyline><polyline points="17,0,34,7.666666666666666,17,15.333333333333332,0,7.666666666666666" fill="#ddd" fill-opacity="0.12400000000000001" stroke="#000" stroke-opacity="0.02" transform="translate(102,30.666666666666664)"></polyline><polyline points="17,0,34,7.666666666666666,17,15.333333333333332,0,7.666666666666666" fill="#ddd" fill-opacity="0.05466666666666667" stroke="#000" stroke-opacity="0.02" transform="translate(136,30.666666666666664)"></polyline><polyline points="17,0,34,7.666666666666666,17,15.333333333333332,0,7.666666666666666" fill="#ddd" fill-opacity="0.14133333333333334" stroke="#000" stroke-opacity="0.02" transform="translate(170,30.666666666666664)"></polyline></svg>