<svg xmlns="http://www.w3.org/2000/svg" width="288" height="288"><rect x="0" y="0" width="100%" height="100%" fill="rgb(50,100,157)"></rect><polyline points="0,0,36,36,0,36,0,0" stroke="#000" stroke-opacity="0.02" fill-opacity="0.098" fill="#222" transform="translate(0,36) scale(1,-1)"></polyline><polyline points="0,0,36,36,0,36,0,0" stroke="#000" stroke-opacity="0.02" fill-opacity="0.098" fill="#222" transform="translate(72,36) scale(-1,-1)"></polyline><polyline points="0,0,36,36,0,36,0,0" stroke="#000" stroke-opacity="0.02" fill-opacity="0.098" fill="#222" transform="translate(0,36) scale(1,1)"></polyline><polyline points="0,0,36,36,0,36,0,0" stroke="#000" stroke-opacity="0.02" fill-opacity="0.098" fill="#222" transform="translate(72,36) scale(-1,1)"></polyline><polyline points="0,0,36,36,0,36,0,0" stroke="#000" stroke-opacity="0.02" fill-opacity="0.05466666666666667" fill="#ddd" transform="translate(108,0) scale(-1,1)"></polyline><polyline points="0,0,36,36,0,36,0,0" stroke="#000" stroke-opacity="0.02" fill-opacity="0.05466666666666667" fill="#ddd" transform="translate(108,72) scale(1,-1)"></polyline><polyline points="0,0,36,36,0,36,0,0" stroke="#000" stroke-opacity="0.02" fill-opacity="0.028666666666666667" fill="#222" transform="translate(108,72) scale(-1,-1)"></polyline><polyline points="0,0,36,36,0,36,0,0" stroke="#000" stroke-opacity="0.02" fill-opacity="0.028666666666666667" fill="#222" transform="translate(108,0) scale(1,1)"></polyline><polyline points="0,0,36,36,0,36,0,0" stroke="#000" stroke-opacity="0.02" fill-opacity="0.028666666666666667" fill="#222" transform="translate(144,36) scale(1,-1)"></polyline><polyline points="0,0,36,36,0,36,0,0" stroke="#000" stroke-opacity="0.02" fill-opacity="0.028666666666666667" fill="#222" transform="translate(216,36) scale(-1,-1)"></polyline><polyline points="0,0,36,36,0,36,0,0" stroke="#000" stroke-opacity="0.02" fill-opacity="0.028666666666666667" fill="#222" transform="translate(144,36) scale(1,1)"></polyline><polyline points="0,0,36,36,0,36,0,0" stroke="#000" stroke-opacity="0.02" fill-opacity="0.028666666666666667" fill="#222" transform="translate(216,36) scale(-1,1)"></polyline><polyline points="0,0,36,36,0,36,0,0" stroke="#000" stroke-opacity="0.02" fill-opacity="0.15" fill="#222" transform="translate(252,0) scale(-1,1)"></polyline><polyline points="0,0,36,36,0,36,0,0" stroke="#000" stroke-opacity="0.02" fill-opacity="0.15" fill="#222" transform="translate(252,72) scale(1,-1)"></polyline><polyline points="0,0,36,36,0,36,0,0" stroke="#000" stroke-opacity="0.02" fill-opacity="0.11533333333333334" fill="#222" transform="translate(252,72) scale(-1,-1)"></polyline><polyline points="0,0,36,36,0,36,0,0" stroke="#000" stroke-opacity="0.02" fill-opacity="0.11533333333333334" fill="#222" transform="translate(252,0) scale(1,1)"></polyline><polyline points="0,0,36,36,0,36,0,0" stroke="#000" stroke-opacity="0.02" fill-opacity="0.11533333333333334" fill="#222" transform="translate(36,72) scale(-1,1)"></polyline><polyline points="0,0,36,36,0,36,0,0" stroke="#000" stroke-opacity="0.02" fill-opacity="0.11533333333333334" fill="#222" transform="translate(36,144) scale(1,-1)"></polyline><polyline points="0,0,36,36,0,36,0,0" stroke="#000" stroke-opacity="0.02" fill-opacity="0.028666666666666667" fill="#222" transform="translate(36,144) scale(-1,-1)"></polyline><polyline points="0,0,36,36,0,36,0,0" stroke="#000" stroke-opacity="0.02" fill-opacity="0.028666666666666667" fill="#222" transform="translate(36,72) scale(1,1)"></polyline><polyline points="0,0,36,36,0,36,0,0" stroke="#000" stroke-opacity="0.02" fill-opacity="0.028666666666666667" fill="#222" transform="translate(72,108) scale(1,-1)"></polyline><polyline points="0,0,36,36,0,36,0,0" stroke="#000" stroke-opacity="0.02" fill-opacity="0.028666666666666667" fill="#222" transform="translate(144,108) scale(-1,-1)"></polyline><polyline points="0,0,36,36,0,36,0,0" stroke="#000" stroke-opacity="0.02" fill-opacity="0.028666666666666667" fill="#222" transform="translate(72,108) scale(1,1)"></polyline><polyline points="0,0,36,36,0,36,0,0" stroke="#000" stroke-opacity="0.02" fill-opacity="0.028666666666666667" fill="#222" transform="translate(144,108) scale(-1,1)"></polyline><polyline points="0,0,36,36,0,36,0,0" stroke="#000" stroke-opacity="0.02" fill-opacity="0.14133333333333334" fill="#ddd" transform="translate(180,72) scale(-1,1)"></polyline><polyline points="0,0,36,36,0,36,0,0" stroke="#000" stroke-opacity="0.02" fill-opacity="0.14133333333333334" fill="#ddd" transform="translate(180,144) scale(1,-1)"></polyline><polyline points="0,0,36,36,0,36,0,0" stroke="#000" stroke-opacity="0.02" fill-opacity="0.03733333333333333" fill="#ddd" transform="translate(180,144) scale(-1,-1)"></polyline><polyline points="0,0,36,36,0,36,0,0" stroke="#000" stroke-opacity="0.02" fill-opacity="0.03733333333333333" fill="#ddd" transform="translate(180,72) scale(1,1)"></polyline><polyline points="0,0,36,36,0,36,0,0" stroke="#000" stroke-opacity="0.02" fill-opacity="0.03733333333333333" fill="#ddd" transform="translate(216,108) scale(1,-1)"></polyline><polyline points="0,0,36,36,0,36,0,0" stroke="#000" stroke-opacity="0.02" fill-opacity="0.03733333333333333" fill="#ddd" transform="translate(288,108) scale(-1,-1)"></polyline><polyline points="0,0,36,36,0,36,0,0" stroke="#000" stroke-opacity="0.02" fill-opacity="0.03733333333333333" fill="#ddd" transform="translate(216,108) scale(1,1)"></polyline><polyline points="0,0,36,36,0,36,0,0" stroke="#000" stroke-opacity="0.02" fill-opacity="0.03733333333333333" fill="#ddd" transform="translate(288,108) scale(-1,1)"></polyline><polyline points="0,0,36,36,0,36,0,0" stroke="#000" stroke-opacity="0.02" fill-opacity="0.046" fill="#222" transform="translate(0,180) scale(1,-1)"></polyline><polyline points="0,0,36,36,0,36,0,0" stroke="#000" stroke-opacity="0.02" fill-opacity="0.046" fill="#222" transform="translate(72,180) scale(-1,-1)"></polyline><polyline points="0,0,36,36,0,36,0,0" stroke="#000" stroke-opacity="0.02" fill-opacity="0.046" fill="#222" transform="translate(0,180) scale(1,1)"></polyline><polyline points="0,0,36,36,0,36,0,0" stroke="#000" stroke-opacity="0.02" fill-opacity="0.046" fill="#222" transform="translate(72,180) scale(-1,1)"></polyline><polyline points="0,0,36,36,0,36,0,0" stroke="#000" stroke-opacity="0.02" fill-opacity="0.098" fill="#222" transform="translate(108,144) scale(-1,1)"></polyline><polyline points="0,0,36,36,0,36,0,0" stroke="#000" stroke-opacity="0.02" fill-opacity="0.098" fill="#222" transform="translate(108,216) scale(1,-1)"></polyline><polyline points="0,0,36,36,0,36,0,0" stroke="#000" stroke-opacity="0.02" fill-opacity="0.02" fill="#ddd" transform="translate(108,216) scale(-1,-1)"></polyline><polyline points="0,0,36,36,0,36,0,0" stroke="#000" stroke-opacity="0.02" fill-opacity="0.02" fill="#ddd" transform="translate(108,144) scale(1,1)"></polyline><polyline points="0,0,36,36,0,36,0,0" stroke="#000" stroke-opacity="0.02" fill-opacity="0.02" fill="#ddd" transform="translate(144,180) scale(1,-1)"></polyline><polyline points="0,0,36,36,0,36,0,0" stroke="#000" stroke-opacity="0.02" fill-opacity="0.02" fill="#ddd" transform="translate(216,180) scale(-1,-1)"></polyline><polyline points="0,0,36,36,0,36,0,0" stroke="#000" stroke-opacity="0.02" fill-opacity="0.02" fill="#ddd" transform="translate(144,180) scale(1,1)"></polyline><polyline points="0,0,36,36,0,36,0,0" stroke="#000" stroke-opacity="0.02" fill-opacity="0.02" fill="#ddd" transform="translate(216,180) scale(-1,1)"></polyline><polyline points="0,0,36,36,0,36,0,0" stroke="#000" stroke-opacity="0.02" fill-opacity="0.06333333333333334" fill="#222" transform="translate(252,144) scale(-1,1)"></polyline><polyline points="0,0,36,36,0,36,0,0" stroke="#000" stroke-opacity="0.02" fill-opacity="0.06333333333333334" fill="#222" transform="translate(252,216) scale(1,-1)"></polyline><polyline points="0,0,36,36,0,36,0,0" stroke="#000" stroke-opacity="0.02" fill-opacity="0.11533333333333334" fill="#222" transform="translate(252,216) scale(-1,-1)"></polyline><polyline points="0,0,36,36,0,36,0,0" stroke="#000" stroke-opacity="0.02" fill-opacity="0.11533333333333334" fill="#222" transform="translate(252,144) scale(1,1)"></polyline><polyline points="0,0,36,36,0,36,0,0" stroke="#000" stroke-opacity="0.02" fill-opacity="0.11533333333333334" fill="#222" transform="translate(36,216) scale(-1,1)"></polyline><polyline points="0,0,36,36,0,36,0,0" stroke="#000" stroke-opacity="0.02" fill-opacity="0.11533333333333334" fill="#222" transform="translate(36,288) scale(1,-1)"></polyline><polyline points="0,0,36,36,0,36,0,0" stroke="#000" stroke-opacity="0.02" fill-opacity="0.06333333333333334" fill="#222" transform="translate(36,288) scale(-1,-1)"></polyline><polyline points="0,0,36,36,0,36,0,0" stroke="#000" stroke-opacity="0.02" fill-opacity="0.06333333333333334" fill="#222" transform="translate(36,216) scale(1,1)"></polyline><polyline points="0,0,36,36,0,36,0,0" stroke="#000" stroke-opacity="0.02" fill-opacity="0.06333333333333334" fill="#222" transform="translate(72,252) scale(1,-1)"></polyline><polyline points="0,0,36,36,0,36,0,0" stroke="#000" stroke-opacity="0.02" fill-opacity="0.06333333333333334" fill="#222" transform="translate(144,252) scale(-1,-1)"></polyline><polyline points="0,0,36,36,0,36,0,0" stroke="#000" stroke-opacity="0.02" fill-opacity="0.06333333333333334" fill="#222" transform="translate(72,252) scale(1,1)"></polyline><polyline points="0,0,36,36,0,36,0,0" stroke="#000" stroke-opacity="0.02" fill-opacity="0.06333333333333334" fill="#222" transform="translate(144,252) scale(-1,1)"></polyline><polyline points="0,0,36,36,0,36,0,0" stroke="#000" stroke-opacity="0.02" fill-opacity="0.07200000000000001" fill="#ddd" transform="translate(180,216) scale(-1,1)"></polyline><polyline points="0,0,36,36,0,36,0,0" stroke="#000" stroke-opacity="0.02" fill-opacity="0.07200000000000001" fill="#ddd" transform="translate(180,288) scale(1,-1)"></polyline><polyline points="0,0,36,36,0,36,0,0" stroke="#000" stroke-opacity="0.02" fill-opacity="0.098" fill="#222" transform="translate(180,288) scale(-1,-1)"></polyline><polyline points="0,0,36,36,0,36,0,0" stroke="#000" stroke-opacity="0.02" fill-opacity="0.098" fill="#222" transform="translate(180,216) scale(1,1)"></polyline><polyline points="0,0,36,36,0,36,0,0" stroke="#000" stroke-opacity="0.02" fill-opacity="0.098" fill="#222" transform="translate(216,252) scale(1,-1)"></polyline><polyline points="0,0,36,36,0,36,0,0" stroke="#000" stroke-opacity="0.02" fill-opacity="0.098" fill="#222" transform="translate(288,252) scale(-1,-1)"></polyline><polyline points="0,0,36,36,0,36,0,0" stroke="#000" stroke-opacity="0.02" fill-opacity="0.098" fill="#222" transform="translate(216,252) scale(1,1)"></polyline><polyline points="0,0,36,36,0,36,0,0" stroke="#000" stroke-opacity="0.02" fill-opacity="0.098" fill="#222" transform="translate(288,252) scale(-1,1)"></polyline></svg>