<svg xmlns="http://www.w3.org/2000/svg" width="111" height="129"><rect x="0" y="0" width="100%" height="100%" fill="rgb(114,69,138)"></rect><rect x="-11.833333333333334" y="-11.833333333333334" width="23.666666666666668" height="23.666666666666668" stroke="#000" stroke-opacity="0.02" fill="#ddd" fill-opacity="0.08933333333333333" stroke-width="1"></rect><rect x="100.1585357791301" y="-11.833333333333334" width="23.666666666666668" height="23.666666666666668" stroke="#000" stroke-opacity="0.02" fill="#ddd" fill-opacity="0.08933333333333333" stroke-width="1"></rect><rect x="-11.833333333333334" y="117.48373822492685" width="23.666666666666668" height="23.666666666666668" stroke="#000" stroke-opacity="0.02" fill="#ddd" fill-opacity="0.08933333333333333" stroke-width="1"></rect><rect x="100.1585357791301" y="117.48373822492685" width="23.666666666666668" height="23.666666666666668" stroke="#000" stroke-opacity="0.02" fill="#ddd" fill-opacity="0.08933333333333333" stroke-width="1"></rect><rect x="44.16260122289838" y="20.495934556231713" width="23.666666666666668" height="23.666666666666668" stroke="#000" stroke-opacity="0.02" fill="#222" fill-opacity="0.098" stroke-width="1"></rect><rect x="-11.833333333333334" y="52.825202445796755" width="23.666666666666668" height="23.666666666666668" stroke="#000" stroke-opacity="0.02" fill="#ddd" fill-opacity="0.02" stroke-width="1"></rect><rect x="100.1585357791301" y="52.825202445796755" width="23.666666666666668" height="23.666666666666668" stroke="#000" stroke-opacity="0.02" fill="#ddd" fill-opacity="0.02" stroke-width="1"></rect><rect x="44.16260122289838" y="85.15447033536181" width="23.666666666666668" height="23.666666666666668" stroke="#000" stroke-opacity="0.02" fill="#222" fill-opacity="0.13266666666666665" stroke-width="1"></rect><polyline points="0,0,20.495934556231713,11.833333333333334,0,23.666666666666668,0,0" stroke="#000" stroke-opacity="0.02" fill="#ddd" fill-opacity="0.12400000000000001" stroke-width="1" transform="translate(11.833333333333334,-11.833333333333334) rotate(0,11.833333333333334,10.247967278115857)"></polyline><polyline points="0,0,20.495934556231713,11.833333333333334,0,23.666666666666668,0,0" stroke="#000" stroke-opacity="0.02" fill="#ddd" fill-opacity="0.12400000000000001" stroke-width="1" transform="translate(11.833333333333334,141.15040489159352) rotate(0,11.833333333333334,10.247967278115857) scale(1,-1)"></polyline><polyline points="0,0,20.495934556231713,11.833333333333334,0,23.666666666666668,0,0" stroke="#000" stroke-opacity="0.02" fill="#ddd" fill-opacity="0.14133333333333334" stroke-width="1" transform="translate(100.1585357791301,-11.833333333333334) rotate(0,11.833333333333334,10.247967278115857) scale(-1,1)"></polyline><polyline points="0,0,20.495934556231713,11.833333333333334,0,23.666666666666668,0,0" stroke="#000" stroke-opacity="0.02" fill="#ddd" fill-opacity="0.14133333333333334" stroke-width="1" transform="translate(100.1585357791301,141.15040489159352) rotate(0,11.833333333333334,10.247967278115857) scale(-1,-1)"></polyline><polyline points="0,0,20.495934556231713,11.833333333333334,0,23.666666666666668,0,0" stroke="#000" stroke-opacity="0.02" fill="#222" fill-opacity="0.11533333333333334" stroke-width="1" transform="translate(67.82926788956505,20.495934556231713)"></polyline><polyline points="0,0,20.495934556231713,11.833333333333334,0,23.666666666666668,0,0" stroke="#000" stroke-opacity="0.02" fill="#222" fill-opacity="0.15" stroke-width="1" transform="translate(44.16260122289838,20.495934556231713) scale(-1,1)"></polyline><polyline points="0,0,20.495934556231713,11.833333333333334,0,23.666666666666668,0,0" stroke="#000" stroke-opacity="0.02" fill="#ddd" fill-opacity="0.14133333333333334" stroke-width="1" transform="translate(67.82926788956505,108.82113700202846) scale(1,-1)"></polyline><polyline points="0,0,20.495934556231713,11.833333333333334,0,23.666666666666668,0,0" stroke="#000" stroke-opacity="0.02" fill="#ddd" fill-opacity="0.02" stroke-width="1" transform="translate(44.16260122289838,108.82113700202846) scale(-1,-1)"></polyline><polyline points="0,0,20.495934556231713,11.833333333333334,0,23.666666666666668,0,0" stroke="#000" stroke-opacity="0.02" fill="#ddd" fill-opacity="0.14133333333333334" stroke-width="1" transform="translate(11.833333333333334,52.825202445796755)"></polyline><polyline points="0,0,20.495934556231713,11.833333333333334,0,23.666666666666668,0,0" stroke="#000" stroke-opacity="0.02" fill="#222" fill-opacity="0.028666666666666667" stroke-width="1" transform="translate(100.1585357791301,52.825202445796755) scale(-1,1)"></polyline><rect x="0" y="0" width="23.666666666666668" height="23.666666666666668" stroke="#000" stroke-opacity="0.02" fill="#222" fill-opacity="0.13266666666666665" stroke-width="1" transform="translate(11.833333333333334,11.833333333333334) rotate(-30,0,0)"></rect><rect x="0" y="0" width="23.666666666666668" height="23.666666666666668" stroke="#000" stroke-opacity="0.02" fill="#ddd" fill-opacity="0.14133333333333334" stroke-width="1" transform="scale(-1,1) translate(-100.1585357791301,11.833333333333334) rotate(-30,0,0)"></rect><rect x="0" y="0" width="23.666666666666668" height="23.666666666666668" stroke="#000" stroke-opacity="0.02" fill="#222" fill-opacity="0.046" stroke-width="1" transform="translate(11.833333333333334,29.158535779130087) rotate(30,0,23.666666666666668)"></rect><rect x="0" y="0" width="23.666666666666668" height="23.666666666666668" stroke="#000" stroke-opacity="0.02" fill="#222" fill-opacity="0.098" stroke-width="1" transform="scale(-1,1) translate(-100.1585357791301,29.158535779130087) rotate(30,0,23.666666666666668)"></rect><rect x="0" y="0" width="23.666666666666668" height="23.666666666666668" stroke="#000" stroke-opacity="0.02" fill="#ddd" fill-opacity="0.08933333333333333" stroke-width="1" transform="scale(1,-1) translate(11.833333333333334,-100.15853577913009) rotate(30,0,23.666666666666668)"></rect><rect x="0" y="0" width="23.666666666666668" height="23.666666666666668" stroke="#000" stroke-opacity="0.02" fill="#222" fill-opacity="0.098" stroke-width="1" transform="scale(-1,-1) translate(-100.1585357791301,-100.15853577913009) rotate(30,0,23.666666666666668)"></rect><rect x="0" y="0" width="23.666666666666668" height="23.666666666666668" stroke="#000" stroke-opacity="0.02" fill="#ddd" fill-opacity="0.07200000000000001" stroke-width="1" transform="scale(1,-1) translate(11.833333333333334,-117.48373822492685) rotate(-30,0,0)"></rect><rect x="0" y="0" width="23.666666666666668" height="23.666666666666668" stroke="#000" stroke-opacity="0.02" fill="#ddd" fill-opacity="0.10666666666666667" stroke-width="1" transform="scale(-1,-1) translate(-100.1585357791301,-117.48373822492685) rotate(-30,0,0)"></rect></svg>