<svg xmlns="http://www.w3.org/2000/svg" width="80" height="80"><rect x="0" y="0" width="100%" height="100%" fill="rgb(65,142,120)"></rect><polyline points="4.4,0,8.933333333333334,0,13.333333333333334,4.4,13.333333333333334,8.933333333333334,8.933333333333334,13.333333333333334,4.4,13.333333333333334,0,8.933333333333334,0,4.4,4.4,0" fill="#222" fill-opacity="0.028666666666666667" stroke="#000" stroke-opacity="0.02" transform="translate(0,0)"></polyline><polyline points="4.4,0,8.933333333333334,0,13.333333333333334,4.4,13.333333333333334,8.933333333333334,8.933333333333334,13.333333333333334,4.4,13.333333333333334,0,8.933333333333334,0,4.4,4.4,0" fill="#222" fill-opacity="0.046" stroke="#000" stroke-opacity="0.02" transform="translate(13.333333333333334,0)"></polyline><polyline points="4.4,0,8.933333333333334,0,13.333333333333334,4.4,13.333333333333334,8.933333333333334,8.933333333333334,13.333333333333334,4.4,13.333333333333334,0,8.933333333333334,0,4.4,4.4,0" fill="#ddd" fill-opacity="0.02" stroke="#000" stroke-opacity="0.02" transform="translate(26.666666666666668,0)"></polyline><polyline points="4.4,0,8.933333333333334,0,13.333333333333334,4.4,13.333333333333334,8.933333333333334,8.933333333333334,13.333333333333334,4.4,13.333333333333334,0,8.933333333333334,0,4.4,4.4,0" fill="#ddd" fill-opacity="0.07200000000000001" stroke="#000" stroke-opacity="0.02" transform="translate(40,0)"></polyline><polyline points="4.4,0,8.933333333333334,0,13.333333333333334,4.4,13.333333333333334,8.933333333333334,8.933333333333334,13.333333333333334,4.4,13.333333333333334,0,8.933333333333334,0,4.4,4.4,0" fill="#ddd" fill-opacity="0.10666666666666667" stroke="#000" stroke-opacity="0.02" transform="translate(53.333333333333336,0)"></polyline><polyline points="4.4,0,8.933333333333334,0,13.333333333333334,4.4,13.333333333333334,8.933333333333334,8.933333333333334,13.333333333333334,4.4,13.333333333333334,0,8.933333333333334,0,4.4,4.4,0" fill="#ddd" fill-opacity="0.03733333333333333" stroke="#000" stroke-opacity="0.02" transform="translate(66.66666666666667,0)"></polyline><polyline points="4.4,0,8.933333333333334,0,13.333333333333334,4.4,13.333333333333334,8.933333333333334,8.933333333333334,13.333333333333334,4.4,13.333333333333334,0,8.933333333333334,0,4.4,4.4,0" fill="#222" fill-opacity="0.08066666666666666" stroke="#000" stroke-opacity="0.02" transform="translate(0,13.333333333333334)"></polyline><polyline points="4.4,0,8.933333333333334,0,13.333333333333334,4.4,13.333333333333334,8.933333333333334,8.933333333333334,13.333333333333334,4.4,13.333333333333334,0,8.933333333333334,0,4.4,4.4,0" fill="#222" fill-opacity="0.08066666666666666" stroke="#000" stroke-opacity="0.02" transform="translate(13.333333333333334,13.333333333333334)"></polyline><polyline points="4.4,0,8.933333333333334,0,13.333333333333334,4.4,13.333333333333334,8.933333333333334,8.933333333333334,13.333333333333334,4.4,13.333333333333334,0,8.933333333333334,0,4.4,4.4,0" fill="#222" fill-opacity="0.11533333333333334" stroke="#000" stroke-opacity="0.02" transform="translate(26.666666666666668,13.333333333333334)"></polyline><polyline points="4.4,0,8.933333333333334,0,13.333333333333334,4.4,13.333333333333334,8.933333333333334,8.933333333333334,13.333333333333334,4.4,13.333333333333334,0,8.933333333333334,0,4.4,4.4,0" fill="#222" fill-opacity="0.06333333333333334" stroke="#000" stroke-opacity="0.02" transform="translate(40,13.333333333333334)"></polyline><polyline points="4.4,0,8.933333333333334,0,13.333333333333334,4.4,13.333333333333334,8.933333333333334,8.933333333333334,13.333333333333334,4.4,13.333333333333334,0,8.933333333333334,0,4.4,4.4,0" fill="#ddd" fill-opacity="0.08933333333333333" stroke="#000" stroke-opacity="0.02" transform="translate(53.333333333333336,13.333333333333334)"></polyline><polyline points="4.4,0,8.933333333333334,0,13.333333333333334,4.4,13.333333333333334,8.933333333333334,8.933333333333334,13.333333333333334,4.4,13.333333333333334,0,8.933333333333334,0,4.4,4.4,0" fill="#222" fill-opacity="0.028666666666666667" stroke="#000" stroke-opacity="0.02" transform="translate(66.66666666666667,13.333333333333334)"></polyline><polyline points="4.4,0,8.933333333333334,0,13.333333333333334,4.4,13.333333333333334,8.933333333333334,8.933333333333334,13.333333333333334,4.4,13.333333333333334,0,8.933333333333334,0,4.4,4.4,0" fill="#ddd" fill-opacity="0.10666666666666667" stroke="#000" stroke-opacity="0.02" transform="translate(0,26.666666666666668)"></polyline><polyline points="4.4,0,8.933333333333334,0,13.333333333333334,4.4,13.333333333333334,8.933333333333334,8.933333333333334,13.333333333333334,4.4,13.333333333333334,0,8.933333333333334,0,4.4,4.4,0" fill="#222" fill-opacity="0.098" stroke="#000" stroke-opacity="0.02" transform="translate(13.333333333333334,26.666666666666668)"></polyline><polyline points="4.4,0,8.933333333333334,0,13.333333333333334,4.4,13.333333333333334,8.933333333333334,8.933333333333334,13.333333333333334,4.4,13.333333333333334,0,8.933333333333334,0,4.4,4.4,0" fill="#ddd" fill-opacity="0.08933333333333333" stroke="#000" stroke-opacity="0.02" transform="translate(26.666666666666668,26.666666666666668)"></polyline><polyline points="4.4,0,8.933333333333334,0,13.333333333333334,4.4,13.333333333333334,8.933333333333334,8.933333333333334,13.333333333333334,4.4,13.333333333333334,0,8.933333333333334,0,4.4,4.4,0" fill="#ddd" fill-opacity="0.12400000000000001" stroke="#000" stroke-opacity="0.02" transform="translate(40,26.666666666666668)"></polyline><polyline points="4.4,0,8.933333333333334,0,13.333333333333334,4.4,13.333333333333334,8.933333333333334,8.933333333333334,13.333333333333334,4.4,13.333333333333334,0,8.933333333333334,0,4.4,4.4,0" fill="#ddd" fill-opacity="0.07200000000000001" stroke="#000" stroke-opacity="0.02" transform="translate(53.333333333333336,26.666666666666668)"></polyline><polyline points="4.4,0,8.933333333333334,0,13.333333333333334,4.4,13.333333333333334,8.933333333333334,8.933333333333334,13.333333333333334,4.4,13.333333333333334,0,8.933333333333334,0,4.4,4.4,0" fill="#222" fill-opacity="0.06333333333333334" stroke="#000" stroke-opacity="0.02" transform="translate(66.66666666666667,26.666666666666668)"></polyline><polyline points="4.4,0,8.933333333333334,0,13.333333333333334,4.4,13.333333333333334,8.933333333333334,8.933333333333334,13.333333333333334,4.4,13.333333333333334,0,8.933333333333334,0,4.4,4.4,0" fill="#ddd" fill-opacity="0.02" stroke="#000" stroke-opacity="0.02" transform="translate(0,40)"></polyline><polyline points="4.4,0,8.933333333333334,0,13.333333333333334,4.4,13.333333333333334,8.933333333333334,8.933333333333334,13.333333333333334,4.4,13.333333333333334,0,8.933333333333334,0,4.4,4.4,0" fill="#222" fill-opacity="0.15" stroke="#000" stroke-opacity="0.02" transform="translate(13.333333333333334,40)"></polyline><polyline points="4.4,0,8.933333333333334,0,13.333333333333334,4.4,13.333333333333334,8.933333333333334,8.933333333333334,13.333333333333334,4.4,13.333333333333334,0,8.933333333333334,0,4.4,4.4,0" fill="#ddd" fill-opacity="0.02" stroke="#000" stroke-opacity="0.02" transform="translate(26.666666666666668,40)"></polyline><polyline points="4.4,0,8.933333333333334,0,13.333333333333334,4.4,13.333333333333334,8.933333333333334,8.933333333333334,13.333333333333334,4.4,13.333333333333334,0,8.933333333333334,0,4.4,4.4,0" fill="#222" fill-opacity="0.046" stroke="#000" stroke-opacity="0.02" transform="translate(40,40)"></polyline><polyline points="4.4,0,8.933333333333334,0,13.333333333333334,4.4,13.333333333333334,8.933333333333334,8.933333333333334,13.333333333333334,4.4,13.333333333333334,0,8.933333333333334,0,4.4,4.4,0" fill="#222" fill-opacity="0.098" stroke="#000" stroke-opacity="0.02" transform="translate(53.333333333333336,40)"></polyline><polyline points="4.4,0,8.933333333333334,0,13.333333333333334,4.4,13.333333333333334,8.933333333333334,8.933333333333334,13.333333333333334,4.4,13.333333333333334,0,8.933333333333334,0,4.4,4.4,0" fill="#ddd" fill-opacity="0.12400000000000001" stroke="#000" stroke-opacity="0.02" transform="translate(66.66666666666667,40)"></polyline><polyline points="4.4,0,8.933333333333334,0,13.333333333333334,4.4,13.333333333333334,8.933333333333334,8.933333333333334,13.333333333333334,4.4,13.333333333333334,0,8.933333333333334,0,4.4,4.4,0" fill="#222" fill-opacity="0.098" stroke="#000" stroke-opacity="0.02" transform="translate(0,53.333333333333336)"></polyline><polyline points="4.4,0,8.933333333333334,0,13.333333333333334,4.4,13.333333333333334,8.933333333333334,8.933333333333334,13.333333333333334,4.4,13.333333333333334,0,8.933333333333334,0,4.4,4.4,0" fill="#ddd" fill-opacity="0.07200000000000001" stroke="#000" stroke-opacity="0.02" transform="translate(13.333333333333334,53.333333333333336)"></polyline><polyline points="4.4,0,8.933333333333334,0,13.333333333333334,4.4,13.333333333333334,8.933333333333334,8.933333333333334,13.333333333333334,4.4,13.333333333333334,0,8.933333333333334,0,4.4,4.4,0" fill="#222" fill-opacity="0.08066666666666666" stroke="#000" stroke-opacity="0.02" transform="translate(26.666666666666668,53.333333333333336)"></polyline><polyline points="4.4,0,8.933333333333334,0,13.333333333333334,4.4,13.333333333333334,8.933333333333334,8.933333333333334,13.333333333333334,4.4,13.333333333333334,0,8.933333333333334,0,4.4,4.4,0" fill="#ddd" fill-opacity="0.02" stroke="#000" stroke-opacity="0.02" transform="translate(40,53.333333333333336)"></polyline><polyline points="4.4,0,8.933333333333334,0,13.333333333333334,4.4,13.333333333333334,8.933333333333334,8.933333333333334,13.333333333333334,4.4,13.333333333333334,0,8.933333333333334,0,4.4,4.4,0" fill="#222" fill-opacity="0.11533333333333334" stroke="#000" stroke-opacity="0.02" transform="translate(53.333333333333336,53.333333333333336)"></polyline><polyline points="4.4,0,8.933333333333334,0,13.333333333333334,4.4,13.333333333333334,8.933333333333334,8.933333333333334,13.333333333333334,4.4,13.333333333333334,0,8.933333333333334,0,4.4,4.4,0" fill="#222" fill-opacity="0.11533333333333334" stroke="#000" stroke-opacity="0.02" transform="translate(66.66666666666667,53.333333333333336)"></polyline><polyline points="4.4,0,8.933333333333334,0,13.333333333333334,4.4,13.333333333333334,8.933333333333334,8.933333333333334,13.333333333333334,4.4,13.333333333333334,0,8.933333333333334,0,4.4,4.4,0" fill="#222" fill-opacity="0.06333333333333334" stroke="#000" stroke-opacity="0.02" transform="translate(0,66.66666666666667)"></polyline><polyline points="4.4,0,8.933333333333334,0,13.333333333333334,4.4,13.333333333333334,8.933333333333334,8.933333333333334,13.333333333333334,4.4,13.333333333333334,0,8.933333333333334,0,4.4,4.4,0" fill="#222" fill-opacity="0.06333333333333334" stroke="#000" stroke-opacity="0.02" transform="translate(13.333333333333334,66.66666666666667)"></polyline><polyline points="4.4,0,8.933333333333334,0,13.333333333333334,4.4,13.333333333333334,8.933333333333334,8.933333333333334,13.333333333333334,4.4,13.333333333333334,0,8.933333333333334,0,4.4,4.4,0" fill="#ddd" fill-opacity="0.02" stroke="#000" stroke-opacity="0.02" transform="translate(26.666666666666668,66.66666666666667)"></polyline><polyline points="4.4,0,8.933333333333334,0,13.333333333333334,4.4,13.333333333333334,8.933333333333334,8.933333333333334,13.333333333333334,4.4,13.333333333333334,0,8.933333333333334,0,4.4,4.4,0" fill="#222" fill-opacity="0.08066666666666666" stroke="#000" stroke-opacity="0.02" transform="translate(40,66.66666666666667)"></polyline><polyline points="4.4,0,8.933333333333334,0,13.333333333333334,4.4,13.333333333333334,8.933333333333334,8.933333333333334,13.333333333333334,4.4,13.333333333333334,0,8.933333333333334,0,4.4,4.4,0" fill="#ddd" fill-opacity="0.14133333333333334" stroke="#000" stroke-opacity="0.02" transform="translate(53.333333333333336,66.66666666666667)"></polyline><polyline points="4.4,0,8.933333333333334,0,13.333333333333334,4.4,13.333333333333334,8.933333333333334,8.933333333333334,13.333333333333334,4.4,13.333333333333334,0,8.933333333333334,0,4.4,4.4,0" fill="#222" fill-opacity="0.098" stroke="#000" stroke-opacity="0.02" transform="translate(66.66666666666667,66.66666666666667)"></polyline></svg>