<svg xmlns="http://www.w3.org/2000/svg" width="58" height="100"><rect x="0" y="0" width="100%" height="100%" fill="rgb(54,153,75)"></rect><polyline points="9.666666666666666,0,19.333333333333332,16.743157806499145,0,16.743157806499145,9.666666666666666,0" fill="#222" fill-opacity="0.028666666666666667" stroke="#000" stroke-opacity="0.02" transform="translate(-9.666666666666666,0) rotate(180,9.666666666666666,8.371578903249572)"></polyline><polyline points="9.666666666666666,0,19.333333333333332,16.743157806499145,0,16.743157806499145,9.666666666666666,0" fill="#222" fill-opacity="0.028666666666666667" stroke="#000" stroke-opacity="0.02" transform="translate(48.333333333333336,0) rotate(180,9.666666666666666,8.371578903249572)"></polyline><polyline points="9.666666666666666,0,19.333333333333332,16.743157806499145,0,16.743157806499145,9.666666666666666,0" fill="#222" fill-opacity="0.046" stroke="#000" stroke-opacity="0.02" transform="translate(0,0) rotate(0,9.666666666666666,8.371578903249572)"></polyline><polyline points="9.666666666666666,0,19.333333333333332,16.743157806499145,0,16.743157806499145,9.666666666666666,0" fill="#ddd" fill-opacity="0.02" stroke="#000" stroke-opacity="0.02" transform="translate(9.666666666666666,0) rotate(180,9.666666666666666,8.371578903249572)"></polyline><polyline points="9.666666666666666,0,19.333333333333332,16.743157806499145,0,16.743157806499145,9.666666666666666,0" fill="#222" fill-opacity="0.08066666666666666" stroke="#000" stroke-opacity="0.02" transform="translate(19.333333333333336,0) rotate(0,9.666666666666666,8.371578903249572)"></polyline><polyline points="9.666666666666666,0,19.333333333333332,16.743157806499145,0,16.743157806499145,9.666666666666666,0" fill="#222" fill-opacity="0.13266666666666665" stroke="#000" stroke-opacity="0.02" transform="translate(29,0) rotate(180,9.666666666666666,8.371578903249572)"></polyline><polyline points="9.666666666666666,0,19.333333333333332,16.743157806499145,0,16.743157806499145,9.666666666666666,0" fill="#222" fill-opacity="0.046" stroke="#000" stroke-opacity="0.02" transform="translate(38.666666666666664,0) rotate(0,9.666666666666666,8.371578903249572)"></polyline><polyline points="9.666666666666666,0,19.333333333333332,16.743157806499145,0,16.743157806499145,9.666666666666666,0" fill="#222" fill-opacity="0.098" stroke="#000" stroke-opacity="0.02" transform="translate(-9.666666666666666,16.743157806499145) rotate(0,9.666666666666666,8.371578903249572)"></polyline><polyline points="9.666666666666666,0,19.333333333333332,16.743157806499145,0,16.743157806499145,9.666666666666666,0" fill="#222" fill-opacity="0.098" stroke="#000" stroke-opacity="0.02" transform="translate(48.333333333333336,16.743157806499145) rotate(0,9.666666666666666,8.371578903249572)"></polyline><polyline points="9.666666666666666,0,19.333333333333332,16.743157806499145,0,16.743157806499145,9.666666666666666,0" fill="#222" fill-opacity="0.028666666666666667" stroke="#000" stroke-opacity="0.02" transform="translate(0,16.743157806499145) rotate(180,9.666666666666666,8.371578903249572)"></polyline><polyline points="9.666666666666666,0,19.333333333333332,16.743157806499145,0,16.743157806499145,9.666666666666666,0" fill="#ddd" fill-opacity="0.07200000000000001" stroke="#000" stroke-opacity="0.02" transform="translate(9.666666666666666,16.743157806499145) rotate(0,9.666666666666666,8.371578903249572)"></polyline><polyline points="9.666666666666666,0,19.333333333333332,16.743157806499145,0,16.743157806499145,9.666666666666666,0" fill="#ddd" fill-opacity="0.08933333333333333" stroke="#000" stroke-opacity="0.02" transform="translate(19.333333333333336,16.743157806499145) rotate(180,9.666666666666666,8.371578903249572)"></polyline><polyline points="9.666666666666666,0,19.333333333333332,16.743157806499145,0,16.743157806499145,9.666666666666666,0" fill="#222" fill-opacity="0.098" stroke="#000" stroke-opacity="0.02" transform="translate(29,16.743157806499145) rotate(0,9.666666666666666,8.371578903249572)"></polyline><polyline points="9.666666666666666,0,19.333333333333332,16.743157806499145,0,16.743157806499145,9.666666666666666,0" fill="#ddd" fill-opacity="0.07200000000000001" stroke="#000" stroke-opacity="0.02" transform="translate(38.666666666666664,16.743157806499145) rotate(180,9.666666666666666,8.371578903249572)"></polyline><polyline points="9.666666666666666,0,19.333333333333332,16.743157806499145,0,16.743157806499145,9.666666666666666,0" fill="#222" fill-opacity="0.13266666666666665" stroke="#000" stroke-opacity="0.02" transform="translate(-9.666666666666666,33.48631561299829) rotate(180,9.666666666666666,8.371578903249572)"></polyline><polyline points="9.666666666666666,0,19.333333333333332,16.743157806499145,0,16.743157806499145,9.666666666666666,0" fill="#222" fill-opacity="0.13266666666666665" stroke="#000" stroke-opacity="0.02" transform="translate(48.333333333333336,33.48631561299829) rotate(180,9.666666666666666,8.371578903249572)"></polyline><polyline points="9.666666666666666,0,19.333333333333332,16.743157806499145,0,16.743157806499145,9.666666666666666,0" fill="#ddd" fill-opacity="0.12400000000000001" stroke="#000" stroke-opacity="0.02" transform="translate(0,33.48631561299829) rotate(0,9.666666666666666,8.371578903249572)"></polyline><polyline points="9.666666666666666,0,19.333333333333332,16.743157806499145,0,16.743157806499145,9.666666666666666,0" fill="#ddd" fill-opacity="0.10666666666666667" stroke="#000" stroke-opacity="0.02" transform="translate(9.666666666666666,33.48631561299829) rotate(180,9.666666666666666,8.371578903249572)"></polyline><polyline points="9.666666666666666,0,19.333333333333332,16.743157806499145,0,16.743157806499145,9.666666666666666,0" fill="#ddd" fill-opacity="0.03733333333333333" stroke="#000" stroke-opacity="0.02" transform="translate(19.333333333333336,33.48631561299829) rotate(0,9.666666666666666,8.371578903249572)"></polyline><polyline points="9.666666666666666,0,19.333333333333332,16.743157806499145,0,16.743157806499145,9.666666666666666,0" fill="#ddd" fill-opacity="0.02" stroke="#000" stroke-opacity="0.02" transform="translate(29,33.48631561299829) rotate(180,9.666666666666666,8.371578903249572)"></polyline><polyline points="9.666666666666666,0,19.333333333333332,16.743157806499145,0,16.743157806499145,9.666666666666666,0" fill="#ddd" fill-opacity="0.07200000000000001" stroke="#000" stroke-opacity="0.02" transform="translate(38.666666666666664,33.48631561299829) rotate(0,9.666666666666666,8.371578903249572)"></polyline><polyline points="9.666666666666666,0,19.333333333333332,16.743157806499145,0,16.743157806499145,9.666666666666666,0" fill="#ddd" fill-opacity="0.07200000000000001" stroke="#000" stroke-opacity="0.02" transform="translate(-9.666666666666666,50.22947341949744) rotate(0,9.666666666666666,8.371578903249572)"></polyline><polyline points="9.666666666666666,0,19.333333333333332,16.743157806499145,0,16.743157806499145,9.666666666666666,0" fill="#ddd" fill-opacity="0.07200000000000001" stroke="#000" stroke-opacity="0.02" transform="translate(48.333333333333336,50.22947341949744) rotate(0,9.666666666666666,8.371578903249572)"></polyline><polyline points="9.666666666666666,0,19.333333333333332,16.743157806499145,0,16.743157806499145,9.666666666666666,0" fill="#222" fill-opacity="0.06333333333333334" stroke="#000" stroke-opacity="0.02" transform="translate(0,50.22947341949744) rotate(180,9.666666666666666,8.371578903249572)"></polyline><polyline points="9.666666666666666,0,19.333333333333332,16.743157806499145,0,16.743157806499145,9.666666666666666,0" fill="#ddd" fill-opacity="0.08933333333333333" stroke="#000" stroke-opacity="0.02" transform="translate(9.666666666666666,50.22947341949744) rotate(0,9.666666666666666,8.371578903249572)"></polyline><polyline points="9.666666666666666,0,19.333333333333332,16.743157806499145,0,16.743157806499145,9.666666666666666,0" fill="#ddd" fill-opacity="0.10666666666666667" stroke="#000" stroke-opacity="0.02" transform="translate(19.333333333333336,50.22947341949744) rotate(180,9.666666666666666,8.371578903249572)"></polyline><polyline points="9.666666666666666,0,19.333333333333332,16.743157806499145,0,16.743157806499145,9.666666666666666,0" fill="#222" fill-opacity="0.046" stroke="#000" stroke-opacity="0.02" transform="translate(29,50.22947341949744) rotate(0,9.666666666666666,8.371578903249572)"></polyline><polyline points="9.666666666666666,0,19.333333333333332,16.743157806499145,0,16.743157806499145,9.666666666666666,0" fill="#ddd" fill-opacity="0.10666666666666667" stroke="#000" stroke-opacity="0.02" transform="translate(38.666666666666664,50.22947341949744) rotate(180,9.666666666666666,8.371578903249572)"></polyline><polyline points="9.666666666666666,0,19.333333333333332,16.743157806499145,0,16.743157806499145,9.666666666666666,0" fill="#ddd" fill-opacity="0.08933333333333333" stroke="#000" stroke-opacity="0.02" transform="translate(-9.666666666666666,66.97263122599658) rotate(180,9.666666666666666,8.371578903249572)"></polyline><polyline points="9.666666666666666,0,19.333333333333332,16.743157806499145,0,16.743157806499145,9.666666666666666,0" fill="#ddd" fill-opacity="0.08933333333333333" stroke="#000" stroke-opacity="0.02" transform="translate(48.333333333333336,66.97263122599658) rotate(180,9.666666666666666,8.371578903249572)"></polyline><polyline points="9.666666666666666,0,19.333333333333332,16.743157806499145,0,16.743157806499145,9.666666666666666,0" fill="#222" fill-opacity="0.06333333333333334" stroke="#000" stroke-opacity="0.02" transform="translate(0,66.97263122599658) rotate(0,9.666666666666666,8.371578903249572)"></polyline><polyline points="9.666666666666666,0,19.333333333333332,16.743157806499145,0,16.743157806499145,9.666666666666666,0" fill="#ddd" fill-opacity="0.07200000000000001" stroke="#000" stroke-opacity="0.02" transform="translate(9.666666666666666,66.97263122599658) rotate(180,9.666666666666666,8.371578903249572)"></polyline><polyline points="9.666666666666666,0,19.333333333333332,16.743157806499145,0,16.743157806499145,9.666666666666666,0" fill="#222" fill-opacity="0.08066666666666666" stroke="#000" stroke-opacity="0.02" transform="translate(19.333333333333336,66.97263122599658) rotate(0,9.666666666666666,8.371578903249572)"></polyline><polyline points="9.666666666666666,0,19.333333333333332,16.743157806499145,0,16.743157806499145,9.666666666666666,0" fill="#ddd" fill-opacity="0.12400000000000001" stroke="#000" stroke-opacity="0.02" transform="translate(29,66.97263122599658) rotate(180,9.666666666666666,8.371578903249572)"></polyline><polyline points="9.666666666666666,0,19.333333333333332,16.743157806499145,0,16.743157806499145,9.666666666666666,0" fill="#ddd" fill-opacity="0.10666666666666667" stroke="#000" stroke-opacity="0.02" transform="translate(38.666666666666664,66.97263122599658) rotate(0,9.666666666666666,8.371578903249572)"></polyline><polyline points="9.666666666666666,0,19.333333333333332,16.743157806499145,0,16.743157806499145,9.666666666666666,0" fill="#ddd" fill-opacity="0.02" stroke="#000" stroke-opacity="0.02" transform="translate(-9.666666666666666,83.71578903249572) rotate(0,9.666666666666666,8.371578903249572)"></polyline><polyline points="9.666666666666666,0,19.333333333333332,16.743157806499145,0,16.743157806499145,9.666666666666666,0" fill="#ddd" fill-opacity="0.02" stroke="#000" stroke-opacity="0.02" transform="translate(48.333333333333336,83.71578903249572) rotate(0,9.666666666666666,8.371578903249572)"></polyline><polyline points="9.666666666666666,0,19.333333333333332,16.743157806499145,0,16.743157806499145,9.666666666666666,0" fill="#222" fill-opacity="0.098" stroke="#000" stroke-opacity="0.02" transform="translate(0,83.71578903249572) rotate(180,9.666666666666666,8.371578903249572)"></polyline><polyline points="9.666666666666666,0,19.333333333333332,16.743157806499145,0,16.743157806499145,9.666666666666666,0" fill="#222" fill-opacity="0.098" stroke="#000" stroke-opacity="0.02" transform="translate(9.666666666666666,83.71578903249572) rotate(0,9.666666666666666,8.371578903249572)"></polyline><polyline points="9.666666666666666,0,19.333333333333332,16.743157806499145,0,16.743157806499145,9.666666666666666,0" fill="#222" fill-opacity="0.028666666666666667" stroke="#000" stroke-opacity="0.02" transform="translate(19.333333333333336,83.71578903249572) rotate(180,9.666666666666666,8.371578903249572)"></polyline><polyline points="9.666666666666666,0,19.333333333333332,16.743157806499145,0,16.743157806499145,9.666666666666666,0" fill="#ddd" fill-opacity="0.10666666666666667" stroke="#000" stroke-opacity="0.02" transform="translate(29,83.71578903249572) rotate(0,9.666666666666666,8.371578903249572)"></polyline><polyline points="9.666666666666666,0,19.333333333333332,16.743157806499145,0,16.743157806499145,9.666666666666666,0" fill="#222" fill-opacity="0.15" stroke="#000" stroke-opacity="0.02" transform="translate(38.666666666666664,83.71578903249572) rotate(180,9.666666666666666,8.371578903249572)"></polyline></svg>