<svg xmlns="http://www.w3.org/2000/svg" width="499" height="499"><rect x="0" y="0" width="100%" height="100%" fill="rgb(71,136,95)"></rect><rect x="0" y="11" width="100%" height="14" opacity="0.098" fill="#222"></rect><rect x="0" y="44" width="100%" height="8" opacity="0.046" fill="#222"></rect><rect x="0" y="71" width="100%" height="19" opacity="0.14133333333333334" fill="#ddd"></rect><rect x="0" y="107" width="100%" height="16" opacity="0.11533333333333334" fill="#222"></rect><rect x="0" y="132" width="100%" height="13" opacity="0.08933333333333333" fill="#ddd"></rect><rect x="0" y="152" width="100%" height="10" opacity="0.06333333333333334" fill="#222"></rect><rect x="0" y="176" width="100%" height="6" opacity="0.028666666666666667" fill="#222"></rect><rect x="0" y="196" width="100%" height="16" opacity="0.11533333333333334" fill="#222"></rect><rect x="0" y="228" width="100%" height="16" opacity="0.11533333333333334" fill="#222"></rect><rect x="0" y="259" width="100%" height="16" opacity="0.11533333333333334" fill="#222"></rect><rect x="0" y="287" width="100%" height="20" opacity="0.15" fill="#222"></rect><rect x="0" y="319" width="100%" height="16" opacity="0.11533333333333334" fill="#222"></rect><rect x="0" y="349" width="100%" height="6" opacity="0.028666666666666667" fill="#222"></rect><rect x="0" y="370" width="100%" height="6" opacity="0.028666666666666667" fill="#222"></rect><rect x="0" y="385" width="100%" height="14" opacity="0.098" fill="#222"></rect><rect x="0" y="416" width="100%" height="19" opacity="0.14133333333333334" fill="#ddd"></rect><rect x="0" y="452" width="100%" height="11" opacity="0.07200000000000001" fill="#ddd"></rect><rect x="0" y="479" width="100%" height="20" opacity="0.15" fill="#222"></rect><rect x="11" y="0" width="14" height="100%" opacity="0.098" fill="#222"></rect><rect x="44" y="0" width="8" height="100%" opacity="0.046" fill="#222"></rect><rect x="71" y="0" width="19" height="100%" opacity="0.14133333333333334" fill="#ddd"></rect><rect x="107" y="0" width="16" height="100%" opacity="0.11533333333333334" fill="#222"></rect><rect x="132" y="0" width="13" height="100%" opacity="0.08933333333333333" fill="#ddd"></rect><rect x="152" y="0" width="10" height="100%" opacity="0.06333333333333334" fill="#222"></rect><rect x="176" y="0" width="6" height="100%" opacity="0.028666666666666667" fill="#222"></rect><rect x="196" y="0" width="16" height="100%" opacity="0.11533333333333334" fill="#222"></rect><rect x="228" y="0" width="16" height="100%" opacity="0.11533333333333334" fill="#222"></rect><rect x="259" y="0" width="16" height="100%" opacity="0.11533333333333334" fill="#222"></rect><rect x="287" y="0" width="20" height="100%" opacity="0.15" fill="#222"></rect><rect x="319" y="0" width="16" height="100%" opacity="0.11533333333333334" fill="#222"></rect><rect x="349" y="0" width="6" height="100%" opacity="0.028666666666666667" fill="#222"></rect><rect x="370" y="0" width="6" height="100%" opacity="0.028666666666666667" fill="#222"></rect><rect x="385" y="0" width="14" height="100%" opacity="0.098" fill="#222"></rect><rect x="416" y="0" width="19" height="100%" opacity="0.14133333333333334" fill="#ddd"></rect><rect x="452" y="0" width="11" height="100%" opacity="0.07200000000000001" fill="#ddd"></rect><rect x="479" y="0" width="20" height="100%" opacity="0.15" fill="#222"></rect></svg>