<svg xmlns="http://www.w3.org/2000/svg" width="380" height="684"><rect x="0" y="0" width="100%" height="100%" fill="rgb(99,136,71)"></rect><path d="M0 86 C 66.5 0, 123.5 0, 190 86 S 313.5 172, 380 86 S 503.5 0, 570, 86" fill="none" stroke="#ddd" opacity="0.14133333333333334" stroke-width="19px" transform="translate(-95,-129)"></path><path d="M0 86 C 66.5 0, 123.5 0, 190 86 S 313.5 172, 380 86 S 503.5 0, 570, 86" fill="none" stroke="#ddd" opacity="0.14133333333333334" stroke-width="19px" transform="translate(-95,555)"></path><path d="M0 86 C 66.5 0, 123.5 0, 190 86 S 313.5 172, 380 86 S 503.5 0, 570, 86" fill="none" stroke="#ddd" opacity="0.12400000000000001" stroke-width="19px" transform="translate(-95,-110)"></path><path d="M0 86 C 66.5 0, 123.5 0, 190 86 S 313.5 172, 380 86 S 503.5 0, 570, 86" fill="none" stroke="#ddd" opacity="0.12400000000000001" stroke-width="19px" transform="translate(-95,574)"></path><path d="M0 86 C 66.5 0, 123.5 0, 190 86 S 313.5 172, 380 86 S 503.5 0, 570, 86" fill="none" stroke="#222" opacity="0.098" stroke-width="19px" transform="translate(-95,-91)"></path><path d="M0 86 C 66.5 0, 123.5 0, 190 86 S 313.5 172, 380 86 S 503.5 0, 570, 86" fill="none" stroke="#222" opacity="0.098" stroke-width="19px" transform="translate(-95,593)"></path><path d="M0 86 C 66.5 0, 123.5 0, 190 86 S 313.5 172, 380 86 S 503.5 0, 570, 86" fill="none" stroke="#ddd" opacity="0.08933333333333333" stroke-width="19px" transform="translate(-95,-72)"></path><path d="M0 86 C 66.5 0, 123.5 0, 190 86 S 313.5 172, 380 86 S 503.5 0, 570, 86" fill="none" stroke="#ddd" opacity="0.08933333333333333" stroke-width="19px" transform="translate(-95,612)"></path><path d="M0 86 C 66.5 0, 123.5 0, 190 86 S 313.5 172, 380 86 S 503.5 0, 570, 86" fill="none" stroke="#222" opacity="0.06333333333333334" stroke-width="19px" transform="translate(-95,-53)"></path><path d="M0 86 C 66.5 0, 123.5 0, 190 86 S 313.5 172, 380 86 S 503.5 0, 570, 86" fill="none" stroke="#222" opacity="0.06333333333333334" stroke-width="19px" transform="translate(-95,631)"></path><path d="M0 86 C 66.5 0, 123.5 0, 190 86 S 313.5 172, 380 86 S 503.5 0, 570, 86" fill="none" stroke="#ddd" opacity="0.07200000000000001" stroke-width="19px" transform="translate(-95,-34)"></path><path d="M0 86 C 66.5 0, 123.5 0, 190 86 S 313.5 172, 380 86 S 503.5 0, 570, 86" fill="none" stroke="#ddd" opacity="0.07200000000000001" stroke-width="19px" transform="translate(-95,650)"></path><path d="M0 86 C 66.5 0, 123.5 0, 190 86 S 313.5 172, 380 86 S 503.5 0, 570, 86" fill="none" stroke="#222" opacity="0.08066666666666666" stroke-width="19px" transform="translate(-95,-15)"></path><path d="M0 86 C 66.5 0, 123.5 0, 190 86 S 313.5 172, 380 86 S 503.5 0, 570, 86" fill="none" stroke="#222" opacity="0.08066666666666666" stroke-width="19px" transform="translate(-95,669)"></path><path d="M0 86 C 66.5 0, 123.5 0, 190 86 S 313.5 172, 380 86 S 503.5 0, 570, 86" fill="none" stroke="#222" opacity="0.098" stroke-width="19px" transform="translate(-95,4)"></path><path d="M0 86 C 66.5 0, 123.5 0, 190 86 S 313.5 172, 380 86 S 503.5 0, 570, 86" fill="none" stroke="#222" opacity="0.098" stroke-width="19px" transform="translate(-95,688)"></path><path d="M0 86 C 66.5 0, 123.5 0, 190 86 S 313.5 172, 380 86 S 503.5 0, 570, 86" fill="none" stroke="#222" opacity="0.028666666666666667" stroke-width="19px" transform="translate(-95,23)"></path><path d="M0 86 C 66.5 0, 123.5 0, 190 86 S 313.5 172, 380 86 S 503.5 0, 570, 86" fill="none" stroke="#222" opacity="0.028666666666666667" stroke-width="19px" transform="translate(-95,707)"></path><path d="M0 86 C 66.5 0, 123.5 0, 190 86 S 313.5 172, 380 86 S 503.5 0, 570, 86" fill="none" stroke="#ddd" opacity="0.14133333333333334" stroke-width="19px" transform="translate(-95,42)"></path><path d="M0 86 C 66.5 0, 123.5 0, 190 86 S 313.5 172, 380 86 S 503.5 0, 570, 86" fill="none" stroke="#ddd" opacity="0.14133333333333334" stroke-width="19px" transform="translate(-95,726)"></path><path d="M0 86 C 66.5 0, 123.5 0, 190 86 S 313.5 172, 380 86 S 503.5 0, 570, 86" fill="none" stroke="#222" opacity="0.06333333333333334" stroke-width="19px" transform="translate(-95,61)"></path><path d="M0 86 C 66.5 0, 123.5 0, 190 86 S 313.5 172, 380 86 S 503.5 0, 570, 86" fill="none" stroke="#222" opacity="0.06333333333333334" stroke-width="19px" transform="translate(-95,745)"></path><path d="M0 86 C 66.5 0, 123.5 0, 190 86 S 313.5 172, 380 86 S 503.5 0, 570, 86" fill="none" stroke="#222" opacity="0.15" stroke-width="19px" transform="translate(-95,80)"></path><path d="M0 86 C 66.5 0, 123.5 0, 190 86 S 313.5 172, 380 86 S 503.5 0, 570, 86" fill="none" stroke="#222" opacity="0.15" stroke-width="19px" transform="translate(-95,764)"></path><path d="M0 86 C 66.5 0, 123.5 0, 190 86 S 313.5 172, 380 86 S 503.5 0, 570, 86" fill="none" stroke="#ddd" opacity="0.10666666666666667" stroke-width="19px" transform="translate(-95,99)"></path><path d="M0 86 C 66.5 0, 123.5 0, 190 86 S 313.5 172, 380 86 S 503.5 0, 570, 86" fill="none" stroke="#ddd" opacity="0.10666666666666667" stroke-width="19px" transform="translate(-95,783)"></path><path d="M0 86 C 66.5 0, 123.5 0, 190 86 S 313.5 172, 380 86 S 503.5 0, 570, 86" fill="none" stroke="#222" opacity="0.15" stroke-width="19px" transform="translate(-95,118)"></path><path d="M0 86 C 66.5 0, 123.5 0, 190 86 S 313.5 172, 380 86 S 503.5 0, 570, 86" fill="none" stroke="#222" opacity="0.15" stroke-width="19px" transform="translate(-95,802)"></path><path d="M0 86 C 66.5 0, 123.5 0, 190 86 S 313.5 172, 380 86 S 503.5 0, 570, 86" fill="none" stroke="#222" opacity="0.11533333333333334" stroke-width="19px" transform="translate(-95,137)"></path><path d="M0 86 C 66.5 0, 123.5 0, 190 86 S 313.5 172, 380 86 S 503.5 0, 570, 86" fill="none" stroke="#222" opacity="0.11533333333333334" stroke-width="19px" transform="translate(-95,821)"></path><path d="M0 86 C 66.5 0, 123.5 0, 190 86 S 313.5 172, 380 86 S 503.5 0, 570, 86" fill="none" stroke="#222" opacity="0.13266666666666665" stroke-width="19px" transform="translate(-95,156)"></path><path d="M0 86 C 66.5 0, 123.5 0, 190 86 S 313.5 172, 380 86 S 503.5 0, 570, 86" fill="none" stroke="#222" opacity="0.13266666666666665" stroke-width="19px" transform="translate(-95,840)"></path><path d="M0 86 C 66.5 0, 123.5 0, 190 86 S 313.5 172, 380 86 S 503.5 0, 570, 86" fill="none" stroke="#ddd" opacity="0.07200000000000001" stroke-width="19px" transform="translate(-95,175)"></path><path d="M0 86 C 66.5 0, 123.5 0, 190 86 S 313.5 172, 380 86 S 503.5 0, 570, 86" fill="none" stroke="#ddd" opacity="0.07200000000000001" stroke-width="19px" transform="translate(-95,859)"></path><path d="M0 86 C 66.5 0, 123.5 0, 190 86 S 313.5 172, 380 86 S 503.5 0, 570, 86" fill="none" stroke="#222" opacity="0.11533333333333334" stroke-width="19px" transform="translate(-95,194)"></path><path d="M0 86 C 66.5 0, 123.5 0, 190 86 S 313.5 172, 380 86 S 503.5 0, 570, 86" fill="none" stroke="#222" opacity="0.11533333333333334" stroke-width="19px" transform="translate(-95,878)"></path><path d="M0 86 C 66.5 0, 123.5 0, 190 86 S 313.5 172, 380 86 S 503.5 0, 570, 86" fill="none" stroke="#ddd" opacity="0.02" stroke-width="19px" transform="translate(-95,213)"></path><path d="M0 86 C 66.5 0, 123.5 0, 190 86 S 313.5 172, 380 86 S 503.5 0, 570, 86" fill="none" stroke="#ddd" opacity="0.02" stroke-width="19px" transform="translate(-95,897)"></path><path d="M0 86 C 66.5 0, 123.5 0, 190 86 S 313.5 172, 380 86 S 503.5 0, 570, 86" fill="none" stroke="#222" opacity="0.13266666666666665" stroke-width="19px" transform="translate(-95,232)"></path><path d="M0 86 C 66.5 0, 123.5 0, 190 86 S 313.5 172, 380 86 S 503.5 0, 570, 86" fill="none" stroke="#222" opacity="0.13266666666666665" stroke-width="19px" transform="translate(-95,916)"></path><path d="M0 86 C 66.5 0, 123.5 0, 190 86 S 313.5 172, 380 86 S 503.5 0, 570, 86" fill="none" stroke="#ddd" opacity="0.05466666666666667" stroke-width="19px" transform="translate(-95,251)"></path><path d="M0 86 C 66.5 0, 123.5 0, 190 86 S 313.5 172, 380 86 S 503.5 0, 570, 86" fill="none" stroke="#ddd" opacity="0.05466666666666667" stroke-width="19px" transform="translate(-95,935)"></path><path d="M0 86 C 66.5 0, 123.5 0, 190 86 S 313.5 172, 380 86 S 503.5 0, 570, 86" fill="none" stroke="#ddd" opacity="0.05466666666666667" stroke-width="19px" transform="translate(-95,270)"></path><path d="M0 86 C 66.5 0, 123.5 0, 190 86 S 313.5 172, 380 86 S 503.5 0, 570, 86" fill="none" stroke="#ddd" opacity="0.05466666666666667" stroke-width="19px" transform="translate(-95,954)"></path><path d="M0 86 C 66.5 0, 123.5 0, 190 86 S 313.5 172, 380 86 S 503.5 0, 570, 86" fill="none" stroke="#ddd" opacity="0.07200000000000001" stroke-width="19px" transform="translate(-95,289)"></path><path d="M0 86 C 66.5 0, 123.5 0, 190 86 S 313.5 172, 380 86 S 503.5 0, 570, 86" fill="none" stroke="#ddd" opacity="0.07200000000000001" stroke-width="19px" transform="translate(-95,973)"></path><path d="M0 86 C 66.5 0, 123.5 0, 190 86 S 313.5 172, 380 86 S 503.5 0, 570, 86" fill="none" stroke="#ddd" opacity="0.07200000000000001" stroke-width="19px" transform="translate(-95,308)"></path><path d="M0 86 C 66.5 0, 123.5 0, 190 86 S 313.5 172, 380 86 S 503.5 0, 570, 86" fill="none" stroke="#ddd" opacity="0.07200000000000001" stroke-width="19px" transform="translate(-95,992)"></path><path d="M0 86 C 66.5 0, 123.5 0, 190 86 S 313.5 172, 380 86 S 503.5 0, 570, 86" fill="none" stroke="#ddd" opacity="0.03733333333333333" stroke-width="19px" transform="translate(-95,327)"></path><path d="M0 86 C 66.5 0, 123.5 0, 190 86 S 313.5 172, 380 86 S 503.5 0, 570, 86" fill="none" stroke="#ddd" opacity="0.03733333333333333" stroke-width="19px" transform="translate(-95,1011)"></path><path d="M0 86 C 66.5 0, 123.5 0, 190 86 S 313.5 172, 380 86 S 503.5 0, 570, 86" fill="none" stroke="#ddd" opacity="0.03733333333333333" stroke-width="19px" transform="translate(-95,346)"></path><path d="M0 86 C 66.5 0, 123.5 0, 190 86 S 313.5 172, 380 86 S 503.5 0, 570, 86" fill="none" stroke="#ddd" opacity="0.03733333333333333" stroke-width="19px" transform="translate(-95,1030)"></path><path d="M0 86 C 66.5 0, 123.5 0, 190 86 S 313.5 172, 380 86 S 503.5 0, 570, 86" fill="none" stroke="#ddd" opacity="0.05466666666666667" stroke-width="19px" transform="translate(-95,365)"></path><path d="M0 86 C 66.5 0, 123.5 0, 190 86 S 313.5 172, 380 86 S 503.5 0, 570, 86" fill="none" stroke="#ddd" opacity="0.05466666666666667" stroke-width="19px" transform="translate(-95,1049)"></path><path d="M0 86 C 66.5 0, 123.5 0, 190 86 S 313.5 172, 380 86 S 503.5 0, 570, 86" fill="none" stroke="#222" opacity="0.15" stroke-width="19px" transform="translate(-95,384)"></path><path d="M0 86 C 66.5 0, 123.5 0, 190 86 S 313.5 172, 380 86 S 503.5 0, 570, 86" fill="none" stroke="#222" opacity="0.15" stroke-width="19px" transform="translate(-95,1068)"></path><path d="M0 86 C 66.5 0, 123.5 0, 190 86 S 313.5 172, 380 86 S 503.5 0, 570, 86" fill="none" stroke="#ddd" opacity="0.03733333333333333" stroke-width="19px" transform="translate(-95,403)"></path><path d="M0 86 C 66.5 0, 123.5 0, 190 86 S 313.5 172, 380 86 S 503.5 0, 570, 86" fill="none" stroke="#ddd" opacity="0.03733333333333333" stroke-width="19px" transform="translate(-95,1087)"></path><path d="M0 86 C 66.5 0, 123.5 0, 190 86 S 313.5 172, 380 86 S 503.5 0, 570, 86" fill="none" stroke="#ddd" opacity="0.14133333333333334" stroke-width="19px" transform="translate(-95,422)"></path><path d="M0 86 C 66.5 0, 123.5 0, 190 86 S 313.5 172, 380 86 S 503.5 0, 570, 86" fill="none" stroke="#ddd" opacity="0.14133333333333334" stroke-width="19px" transform="translate(-95,1106)"></path><path d="M0 86 C 66.5 0, 123.5 0, 190 86 S 313.5 172, 380 86 S 503.5 0, 570, 86" fill="none" stroke="#222" opacity="0.06333333333333334" stroke-width="19px" transform="translate(-95,441)"></path><path d="M0 86 C 66.5 0, 123.5 0, 190 86 S 313.5 172, 380 86 S 503.5 0, 570, 86" fill="none" stroke="#222" opacity="0.06333333333333334" stroke-width="19px" transform="translate(-95,1125)"></path><path d="M0 86 C 66.5 0, 123.5 0, 190 86 S 313.5 172, 380 86 S 503.5 0, 570, 86" fill="none" stroke="#ddd" opacity="0.05466666666666667" stroke-width="19px" transform="translate(-95,460)"></path><path d="M0 86 C 66.5 0, 123.5 0, 190 86 S 313.5 172, 380 86 S 503.5 0, 570, 86" fill="none" stroke="#ddd" opacity="0.05466666666666667" stroke-width="19px" transform="translate(-95,1144)"></path><path d="M0 86 C 66.5 0, 123.5 0, 190 86 S 313.5 172, 380 86 S 503.5 0, 570, 86" fill="none" stroke="#ddd" opacity="0.12400000000000001" stroke-width="19px" transform="translate(-95,479)"></path><path d="M0 86 C 66.5 0, 123.5 0, 190 86 S 313.5 172, 380 86 S 503.5 0, 570, 86" fill="none" stroke="#ddd" opacity="0.12400000000000001" stroke-width="19px" transform="translate(-95,1163)"></path><path d="M0 86 C 66.5 0, 123.5 0, 190 86 S 313.5 172, 380 86 S 503.5 0, 570, 86" fill="none" stroke="#222" opacity="0.11533333333333334" stroke-width="19px" transform="translate(-95,498)"></path><path d="M0 86 C 66.5 0, 123.5 0, 190 86 S 313.5 172, 380 86 S 503.5 0, 570, 86" fill="none" stroke="#222" opacity="0.11533333333333334" stroke-width="19px" transform="translate(-95,1182)"></path><path d="M0 86 C 66.5 0, 123.5 0, 190 86 S 313.5 172, 380 86 S 503.5 0, 570, 86" fill="none" stroke="#222" opacity="0.11533333333333334" stroke-width="19px" transform="translate(-95,517)"></path><path d="M0 86 C 66.5 0, 123.5 0, 190 86 S 313.5 172, 380 86 S 503.5 0, 570, 86" fill="none" stroke="#222" opacity="0.11533333333333334" stroke-width="19px" transform="translate(-95,1201)"></path><path d="M0 86 C 66.5 0, 123.5 0, 190 86 S 313.5 172, 380 86 S 503.5 0, 570, 86" fill="none" stroke="#222" opacity="0.028666666666666667" stroke-width="19px" transform="translate(-95,536)"></path><path d="M0 86 C 66.5 0, 123.5 0, 190 86 S 313.5 172, 380 86 S 503.5 0, 570, 86" fill="none" stroke="#222" opacity="0.028666666666666667" stroke-width="19px" transform="translate(-95,1220)"></path></svg>