<svg xmlns="http://www.w3.org/2000/svg" width="430" height="430"><rect x="0" y="0" width="100%" height="100%" fill="rgb(136,71,96)"></rect><rect x="0" y="13" width="100%" height="13" opacity="0.08933333333333333" fill="#ddd"></rect><rect x="0" y="38" width="100%" height="12" opacity="0.08066666666666666" fill="#222"></rect><rect x="0" y="61" width="100%" height="17" opacity="0.12400000000000001" fill="#ddd"></rect><rect x="0" y="95" width="100%" height="14" opacity="0.098" fill="#222"></rect><rect x="0" y="121" width="100%" height="15" opacity="0.10666666666666667" fill="#ddd"></rect><rect x="0" y="143" width="100%" height="19" opacity="0.14133333333333334" fill="#ddd"></rect><rect x="0" y="172" width="100%" height="17" opacity="0.12400000000000001" fill="#ddd"></rect><rect x="0" y="195" width="100%" height="5" opacity="0.02" fill="#ddd"></rect><rect x="0" y="209" width="100%" height="16" opacity="0.11533333333333334" fill="#222"></rect><rect x="0" y="242" width="100%" height="8" opacity="0.046" fill="#222"></rect><rect x="0" y="262" width="100%" height="20" opacity="0.15" fill="#222"></rect><rect x="0" y="292" width="100%" height="10" opacity="0.06333333333333334" fill="#222"></rect><rect x="0" y="322" width="100%" height="6" opacity="0.028666666666666667" fill="#222"></rect><rect x="0" y="338" width="100%" height="9" opacity="0.05466666666666667" fill="#ddd"></rect><rect x="0" y="366" width="100%" height="5" opacity="0.02" fill="#ddd"></rect><rect x="0" y="379" width="100%" height="9" opacity="0.05466666666666667" fill="#ddd"></rect><rect x="0" y="398" width="100%" height="10" opacity="0.06333333333333334" fill="#222"></rect><rect x="0" y="417" width="100%" height="13" opacity="0.08933333333333333" fill="#ddd"></rect><rect x="13" y="0" width="13" height="100%" opacity="0.08933333333333333" fill="#ddd"></rect><rect x="38" y="0" width="12" height="100%" opacity="0.08066666666666666" fill="#222"></rect><rect x="61" y="0" width="17" height="100%" opacity="0.12400000000000001" fill="#ddd"></rect><rect x="95" y="0" width="14" height="100%" opacity="0.098" fill="#222"></rect><rect x="121" y="0" width="15" height="100%" opacity="0.10666666666666667" fill="#ddd"></rect><rect x="143" y="0" width="19" height="100%" opacity="0.14133333333333334" fill="#ddd"></rect><rect x="172" y="0" width="17" height="100%" opacity="0.12400000000000001" fill="#ddd"></rect><rect x="195" y="0" width="5" height="100%" opacity="0.02" fill="#ddd"></rect><rect x="209" y="0" width="16" height="100%" opacity="0.11533333333333334" fill="#222"></rect><rect x="242" y="0" width="8" height="100%" opacity="0.046" fill="#222"></rect><rect x="262" y="0" width="20" height="100%" opacity="0.15" fill="#222"></rect><rect x="292" y="0" width="10" height="100%" opacity="0.06333333333333334" fill="#222"></rect><rect x="322" y="0" width="6" height="100%" opacity="0.028666666666666667" fill="#222"></rect><rect x="338" y="0" width="9" height="100%" opacity="0.05466666666666667" fill="#ddd"></rect><rect x="366" y="0" width="5" height="100%" opacity="0.02" fill="#ddd"></rect><rect x="379" y="0" width="9" height="100%" opacity="0.05466666666666667" fill="#ddd"></rect><rect x="398" y="0" width="10" height="100%" opacity="0.06333333333333334" fill="#222"></rect><rect x="417" y="0" width="13" height="100%" opacity="0.08933333333333333" fill="#ddd"></rect></svg>