<svg xmlns="http://www.w3.org/2000/svg" width="192" height="192"><rect x="0" y="0" width="100%" height="100%" fill="rgb(126,50,157)"></rect><circle cx="16" cy="16" r="13.333333333333334" fill="none" stroke="#222" opacity="0.06333333333333334" stroke-width="5.333333333333334px"></circle><circle cx="16" cy="16" r="6.666666666666667" fill="#222" fill-opacity="0.098"></circle><circle cx="48" cy="16" r="13.333333333333334" fill="none" stroke="#222" opacity="0.11533333333333334" stroke-width="5.333333333333334px"></circle><circle cx="48" cy="16" r="6.666666666666667" fill="#222" fill-opacity="0.098"></circle><circle cx="80" cy="16" r="13.333333333333334" fill="none" stroke="#222" opacity="0.098" stroke-width="5.333333333333334px"></circle><circle cx="80" cy="16" r="6.666666666666667" fill="#222" fill-opacity="0.08066666666666666"></circle><circle cx="112" cy="16" r="13.333333333333334" fill="none" stroke="#ddd" opacity="0.14133333333333334" stroke-width="5.333333333333334px"></circle><circle cx="112" cy="16" r="6.666666666666667" fill="#222" fill-opacity="0.098"></circle><circle cx="144" cy="16" r="13.333333333333334" fill="none" stroke="#222" opacity="0.15" stroke-width="5.333333333333334px"></circle><circle cx="144" cy="16" r="6.666666666666667" fill="#ddd" fill-opacity="0.12400000000000001"></circle><circle cx="176" cy="16" r="13.333333333333334" fill="none" stroke="#ddd" opacity="0.05466666666666667" stroke-width="5.333333333333334px"></circle><circle cx="176" cy="16" r="6.666666666666667" fill="#222" fill-opacity="0.11533333333333334"></circle><circle cx="16" cy="48" r="13.333333333333334" fill="none" stroke="#ddd" opacity="0.02" stroke-width="5.333333333333334px"></circle><circle cx="16" cy="48" r="6.666666666666667" fill="#ddd" fill-opacity="0.03733333333333333"></circle><circle cx="48" cy="48" r="13.333333333333334" fill="none" stroke="#ddd" opacity="0.14133333333333334" stroke-width="5.333333333333334px"></circle><circle cx="48" cy="48" r="6.666666666666667" fill="#ddd" fill-opacity="0.07200000000000001"></circle><circle cx="80" cy="48" r="13.333333333333334" fill="none" stroke="#222" opacity="0.15" stroke-width="5.333333333333334px"></circle><circle cx="80" cy="48" r="6.666666666666667" fill="#222" fill-opacity="0.06333333333333334"></circle><circle cx="112" cy="48" r="13.333333333333334" fill="none" stroke="#222" opacity="0.11533333333333334" stroke-width="5.333333333333334px"></circle><circle cx="112" cy="48" r="6.666666666666667" fill="#222" fill-opacity="0.098"></circle><circle cx="144" cy="48" r="13.333333333333334" fill="none" stroke="#222" opacity="0.046" stroke-width="5.333333333333334px"></circle><circle cx="144" cy="48" r="6.666666666666667" fill="#ddd" fill-opacity="0.12400000000000001"></circle><circle cx="176" cy="48" r="13.333333333333334" fill="none" stroke="#222" opacity="0.13266666666666665" stroke-width="5.333333333333334px"></circle><circle cx="176" cy="48" r="6.666666666666667" fill="#ddd" fill-opacity="0.05466666666666667"></circle><circle cx="16" cy="80" r="13.333333333333334" fill="none" stroke="#ddd" opacity="0.12400000000000001" stroke-width="5.333333333333334px"></circle><circle cx="16" cy="80" r="6.666666666666667" fill="#222" fill-opacity="0.15"></circle><circle cx="48" cy="80" r="13.333333333333334" fill="none" stroke="#ddd" opacity="0.08933333333333333" stroke-width="5.333333333333334px"></circle><circle cx="48" cy="80" r="6.666666666666667" fill="#ddd" fill-opacity="0.08933333333333333"></circle><circle cx="80" cy="80" r="13.333333333333334" fill="none" stroke="#222" opacity="0.046" stroke-width="5.333333333333334px"></circle><circle cx="80" cy="80" r="6.666666666666667" fill="#222" fill-opacity="0.15"></circle><circle cx="112" cy="80" r="13.333333333333334" fill="none" stroke="#222" opacity="0.08066666666666666" stroke-width="5.333333333333334px"></circle><circle cx="112" cy="80" r="6.666666666666667" fill="#ddd" fill-opacity="0.02"></circle><circle cx="144" cy="80" r="13.333333333333334" fill="none" stroke="#222" opacity="0.046" stroke-width="5.333333333333334px"></circle><circle cx="144" cy="80" r="6.666666666666667" fill="#ddd" fill-opacity="0.02"></circle><circle cx="176" cy="80" r="13.333333333333334" fill="none" stroke="#ddd" opacity="0.10666666666666667" stroke-width="5.333333333333334px"></circle><circle cx="176" cy="80" r="6.666666666666667" fill="#222" fill-opacity="0.098"></circle><circle cx="16" cy="112" r="13.333333333333334" fill="none" stroke="#ddd" opacity="0.02" stroke-width="5.333333333333334px"></circle><circle cx="16" cy="112" r="6.666666666666667" fill="#222" fill-opacity="0.13266666666666665"></circle><circle cx="48" cy="112" r="13.333333333333334" fill="none" stroke="#ddd" opacity="0.12400000000000001" stroke-width="5.333333333333334px"></circle><circle cx="48" cy="112" r="6.666666666666667" fill="#ddd" fill-opacity="0.10666666666666667"></circle><circle cx="80" cy="112" r="13.333333333333334" fill="none" stroke="#ddd" opacity="0.10666666666666667" stroke-width="5.333333333333334px"></circle><circle cx="80" cy="112" r="6.666666666666667" fill="#ddd" fill-opacity="0.12400000000000001"></circle><circle cx="112" cy="112" r="13.333333333333334" fill="none" stroke="#222" opacity="0.13266666666666665" stroke-width="5.333333333333334px"></circle><circle cx="112" cy="112" r="6.666666666666667" fill="#ddd" fill-opacity="0.02"></circle><circle cx="144" cy="112" r="13.333333333333334" fill="none" stroke="#222" opacity="0.098" stroke-width="5.333333333333334px"></circle><circle cx="144" cy="112" r="6.666666666666667" fill="#ddd" fill-opacity="0.10666666666666667"></circle><circle cx="176" cy="112" r="13.333333333333334" fill="none" stroke="#ddd" opacity="0.02" stroke-width="5.333333333333334px"></circle><circle cx="176" cy="112" r="6.666666666666667" fill="#222" fill-opacity="0.046"></circle><circle cx="16" cy="144" r="13.333333333333334" fill="none" stroke="#ddd" opacity="0.02" stroke-width="5.333333333333334px"></circle><circle cx="16" cy="144" r="6.666666666666667" fill="#222" fill-opacity="0.08066666666666666"></circle><circle cx="48" cy="144" r="13.333333333333334" fill="none" stroke="#222" opacity="0.15" stroke-width="5.333333333333334px"></circle><circle cx="48" cy="144" r="6.666666666666667" fill="#222" fill-opacity="0.046"></circle><circle cx="80" cy="144" r="13.333333333333334" fill="none" stroke="#ddd" opacity="0.08933333333333333" stroke-width="5.333333333333334px"></circle><circle cx="80" cy="144" r="6.666666666666667" fill="#ddd" fill-opacity="0.08933333333333333"></circle><circle cx="112" cy="144" r="13.333333333333334" fill="none" stroke="#222" opacity="0.15" stroke-width="5.333333333333334px"></circle><circle cx="112" cy="144" r="6.666666666666667" fill="#ddd" fill-opacity="0.12400000000000001"></circle><circle cx="144" cy="144" r="13.333333333333334" fill="none" stroke="#ddd" opacity="0.05466666666666667" stroke-width="5.333333333333334px"></circle><circle cx="144" cy="144" r="6.666666666666667" fill="#222" fill-opacity="0.13266666666666665"></circle><circle cx="176" cy="144" r="13.333333333333334" fill="none" stroke="#ddd" opacity="0.12400000000000001" stroke-width="5.333333333333334px"></circle><circle cx="176" cy="144" r="6.666666666666667" fill="#222" fill-opacity="0.046"></circle><circle cx="16" cy="176" r="13.333333333333334" fill="none" stroke="#222" opacity="0.098" stroke-width="5.333333333333334px"></circle><circle cx="16" cy="176" r="6.666666666666667" fill="#222" fill-opacity="0.11533333333333334"></circle><circle cx="48" cy="176" r="13.333333333333334" fill="none" stroke="#222" opacity="0.06333333333333334" stroke-width="5.333333333333334px"></circle><circle cx="48" cy="176" r="6.666666666666667" fill="#222" fill-opacity="0.15"></circle><circle cx="80" cy="176" r="13.333333333333334" fill="none" stroke="#ddd" opacity="0.07200000000000001" stroke-width="5.333333333333334px"></circle><circle cx="80" cy="176" r="6.666666666666667" fill="#ddd" fill-opacity="0.14133333333333334"></circle><circle cx="112" cy="176" r="13.333333333333334" fill="none" stroke="#ddd" opacity="0.03733333333333333" stroke-width="5.333333333333334px"></circle><circle cx="112" cy="176" r="6.666666666666667" fill="#ddd" fill-opacity="0.02"></circle><circle cx="144" cy="176" r="13.333333333333334" fill="none" stroke="#222" opacity="0.11533333333333334" stroke-width="5.333333333333334px"></circle><circle cx="144" cy="176" r="6.666666666666667" fill="#ddd" fill-opacity="0.05466666666666667"></circle><circle cx="176" cy="176" r="13.333333333333334" fill="none" stroke="#ddd" opacity="0.12400000000000001" stroke-width="5.333333333333334px"></circle><circle cx="176" cy="176" r="6.666666666666667" fill="#222" fill-opacity="0.15"></circle></svg>