<svg xmlns="http://www.w3.org/2000/svg" width="340" height="540"><rect x="0" y="0" width="100%" height="100%" fill="rgb(60,147,92)"></rect><path d="M0 72 C 59.49999999999999 0, 110.5 0, 170 72 S 280.5 144, 340 72 S 450.5 0, 510, 72" fill="none" stroke="#ddd" opacity="0.12400000000000001" stroke-width="15px" transform="translate(-85,-108)"></path><path d="M0 72 C 59.49999999999999 0, 110.5 0, 170 72 S 280.5 144, 340 72 S 450.5 0, 510, 72" fill="none" stroke="#ddd" opacity="0.12400000000000001" stroke-width="15px" transform="translate(-85,432)"></path><path d="M0 72 C 59.49999999999999 0, 110.5 0, 170 72 S 280.5 144, 340 72 S 450.5 0, 510, 72" fill="none" stroke="#222" opacity="0.098" stroke-width="15px" transform="translate(-85,-93)"></path><path d="M0 72 C 59.49999999999999 0, 110.5 0, 170 72 S 280.5 144, 340 72 S 450.5 0, 510, 72" fill="none" stroke="#222" opacity="0.098" stroke-width="15px" transform="translate(-85,447)"></path><path d="M0 72 C 59.49999999999999 0, 110.5 0, 170 72 S 280.5 144, 340 72 S 450.5 0, 510, 72" fill="none" stroke="#222" opacity="0.08066666666666666" stroke-width="15px" transform="translate(-85,-78)"></path><path d="M0 72 C 59.49999999999999 0, 110.5 0, 170 72 S 280.5 144, 340 72 S 450.5 0, 510, 72" fill="none" stroke="#222" opacity="0.08066666666666666" stroke-width="15px" transform="translate(-85,462)"></path><path d="M0 72 C 59.49999999999999 0, 110.5 0, 170 72 S 280.5 144, 340 72 S 450.5 0, 510, 72" fill="none" stroke="#222" opacity="0.13266666666666665" stroke-width="15px" transform="translate(-85,-63)"></path><path d="M0 72 C 59.49999999999999 0, 110.5 0, 170 72 S 280.5 144, 340 72 S 450.5 0, 510, 72" fill="none" stroke="#222" opacity="0.13266666666666665" stroke-width="15px" transform="translate(-85,477)"></path><path d="M0 72 C 59.49999999999999 0, 110.5 0, 170 72 S 280.5 144, 340 72 S 450.5 0, 510, 72" fill="none" stroke="#ddd" opacity="0.07200000000000001" stroke-width="15px" transform="translate(-85,-48)"></path><path d="M0 72 C 59.49999999999999 0, 110.5 0, 170 72 S 280.5 144, 340 72 S 450.5 0, 510, 72" fill="none" stroke="#ddd" opacity="0.07200000000000001" stroke-width="15px" transform="translate(-85,492)"></path><path d="M0 72 C 59.49999999999999 0, 110.5 0, 170 72 S 280.5 144, 340 72 S 450.5 0, 510, 72" fill="none" stroke="#ddd" opacity="0.14133333333333334" stroke-width="15px" transform="translate(-85,-33)"></path><path d="M0 72 C 59.49999999999999 0, 110.5 0, 170 72 S 280.5 144, 340 72 S 450.5 0, 510, 72" fill="none" stroke="#ddd" opacity="0.14133333333333334" stroke-width="15px" transform="translate(-85,507)"></path><path d="M0 72 C 59.49999999999999 0, 110.5 0, 170 72 S 280.5 144, 340 72 S 450.5 0, 510, 72" fill="none" stroke="#ddd" opacity="0.02" stroke-width="15px" transform="translate(-85,-18)"></path><path d="M0 72 C 59.49999999999999 0, 110.5 0, 170 72 S 280.5 144, 340 72 S 450.5 0, 510, 72" fill="none" stroke="#ddd" opacity="0.02" stroke-width="15px" transform="translate(-85,522)"></path><path d="M0 72 C 59.49999999999999 0, 110.5 0, 170 72 S 280.5 144, 340 72 S 450.5 0, 510, 72" fill="none" stroke="#ddd" opacity="0.12400000000000001" stroke-width="15px" transform="translate(-85,-3)"></path><path d="M0 72 C 59.49999999999999 0, 110.5 0, 170 72 S 280.5 144, 340 72 S 450.5 0, 510, 72" fill="none" stroke="#ddd" opacity="0.12400000000000001" stroke-width="15px" transform="translate(-85,537)"></path><path d="M0 72 C 59.49999999999999 0, 110.5 0, 170 72 S 280.5 144, 340 72 S 450.5 0, 510, 72" fill="none" stroke="#222" opacity="0.098" stroke-width="15px" transform="translate(-85,12)"></path><path d="M0 72 C 59.49999999999999 0, 110.5 0, 170 72 S 280.5 144, 340 72 S 450.5 0, 510, 72" fill="none" stroke="#222" opacity="0.098" stroke-width="15px" transform="translate(-85,552)"></path><path d="M0 72 C 59.49999999999999 0, 110.5 0, 170 72 S 280.5 144, 340 72 S 450.5 0, 510, 72" fill="none" stroke="#ddd" opacity="0.14133333333333334" stroke-width="15px" transform="translate(-85,27)"></path><path d="M0 72 C 59.49999999999999 0, 110.5 0, 170 72 S 280.5 144, 340 72 S 450.5 0, 510, 72" fill="none" stroke="#ddd" opacity="0.14133333333333334" stroke-width="15px" transform="translate(-85,567)"></path><path d="M0 72 C 59.49999999999999 0, 110.5 0, 170 72 S 280.5 144, 340 72 S 450.5 0, 510, 72" fill="none" stroke="#ddd" opacity="0.08933333333333333" stroke-width="15px" transform="translate(-85,42)"></path><path d="M0 72 C 59.49999999999999 0, 110.5 0, 170 72 S 280.5 144, 340 72 S 450.5 0, 510, 72" fill="none" stroke="#ddd" opacity="0.08933333333333333" stroke-width="15px" transform="translate(-85,582)"></path><path d="M0 72 C 59.49999999999999 0, 110.5 0, 170 72 S 280.5 144, 340 72 S 450.5 0, 510, 72" fill="none" stroke="#222" opacity="0.13266666666666665" stroke-width="15px" transform="translate(-85,57)"></path><path d="M0 72 C 59.49999999999999 0, 110.5 0, 170 72 S 280.5 144, 340 72 S 450.5 0, 510, 72" fill="none" stroke="#222" opacity="0.13266666666666665" stroke-width="15px" transform="translate(-85,597)"></path><path d="M0 72 C 59.49999999999999 0, 110.5 0, 170 72 S 280.5 144, 340 72 S 450.5 0, 510, 72" fill="none" stroke="#ddd" opacity="0.12400000000000001" stroke-width="15px" transform="translate(-85,72)"></path><path d="M0 72 C 59.49999999999999 0, 110.5 0, 170 72 S 280.5 144, 340 72 S 450.5 0, 510, 72" fill="none" stroke="#ddd" opacity="0.12400000000000001" stroke-width="15px" transform="translate(-85,612)"></path><path d="M0 72 C 59.49999999999999 0, 110.5 0, 170 72 S 280.5 144, 340 72 S 450.5 0, 510, 72" fill="none" stroke="#ddd" opacity="0.08933333333333333" stroke-width="15px" transform="translate(-85,87)"></path><path d="M0 72 C 59.49999999999999 0, 110.5 0, 170 72 S 280.5 144, 340 72 S 450.5 0, 510, 72" fill="none" stroke="#ddd" opacity="0.08933333333333333" stroke-width="15px" transform="translate(-85,627)"></path><path d="M0 72 C 59.49999999999999 0, 110.5 0, 170 72 S 280.5 144, 340 72 S 450.5 0, 510, 72" fill="none" stroke="#222" opacity="0.098" stroke-width="15px" transform="translate(-85,102)"></path><path d="M0 72 C 59.49999999999999 0, 110.5 0, 170 72 S 280.5 144, 340 72 S 450.5 0, 510, 72" fill="none" stroke="#222" opacity="0.098" stroke-width="15px" transform="translate(-85,642)"></path><path d="M0 72 C 59.49999999999999 0, 110.5 0, 170 72 S 280.5 144, 340 72 S 450.5 0, 510, 72" fill="none" stroke="#222" opacity="0.11533333333333334" stroke-width="15px" transform="translate(-85,117)"></path><path d="M0 72 C 59.49999999999999 0, 110.5 0, 170 72 S 280.5 144, 340 72 S 450.5 0, 510, 72" fill="none" stroke="#222" opacity="0.11533333333333334" stroke-width="15px" transform="translate(-85,657)"></path><path d="M0 72 C 59.49999999999999 0, 110.5 0, 170 72 S 280.5 144, 340 72 S 450.5 0, 510, 72" fill="none" stroke="#222" opacity="0.06333333333333334" stroke-width="15px" transform="translate(-85,132)"></path><path d="M0 72 C 59.49999999999999 0, 110.5 0, 170 72 S 280.5 144, 340 72 S 450.5 0, 510, 72" fill="none" stroke="#222" opacity="0.06333333333333334" stroke-width="15px" transform="translate(-85,672)"></path><path d="M0 72 C 59.49999999999999 0, 110.5 0, 170 72 S 280.5 144, 340 72 S 450.5 0, 510, 72" fill="none" stroke="#ddd" opacity="0.02" stroke-width="15px" transform="translate(-85,147)"></path><path d="M0 72 C 59.49999999999999 0, 110.5 0, 170 72 S 280.5 144, 340 72 S 450.5 0, 510, 72" fill="none" stroke="#ddd" opacity="0.02" stroke-width="15px" transform="translate(-85,687)"></path><path d="M0 72 C 59.49999999999999 0, 110.5 0, 170 72 S 280.5 144, 340 72 S 450.5 0, 510, 72" fill="none" stroke="#222" opacity="0.15" stroke-width="15px" transform="translate(-85,162)"></path><path d="M0 72 C 59.49999999999999 0, 110.5 0, 170 72 S 280.5 144, 340 72 S 450.5 0, 510, 72" fill="none" stroke="#222" opacity="0.15" stroke-width="15px" transform="translate(-85,702)"></path><path d="M0 72 C 59.49999999999999 0, 110.5 0, 170 72 S 280.5 144, 340 72 S 450.5 0, 510, 72" fill="none" stroke="#ddd" opacity="0.10666666666666667" stroke-width="15px" transform="translate(-85,177)"></path><path d="M0 72 C 59.49999999999999 0, 110.5 0, 170 72 S 280.5 144, 340 72 S 450.5 0, 510, 72" fill="none" stroke="#ddd" opacity="0.10666666666666667" stroke-width="15px" transform="translate(-85,717)"></path><path d="M0 72 C 59.49999999999999 0, 110.5 0, 170 72 S 280.5 144, 340 72 S 450.5 0, 510, 72" fill="none" stroke="#ddd" opacity="0.05466666666666667" stroke-width="15px" transform="translate(-85,192)"></path><path d="M0 72 C 59.49999999999999 0, 110.5 0, 170 72 S 280.5 144, 340 72 S 450.5 0, 510, 72" fill="none" stroke="#ddd" opacity="0.05466666666666667" stroke-width="15px" transform="translate(-85,732)"></path><path d="M0 72 C 59.49999999999999 0, 110.5 0, 170 72 S 280.5 144, 340 72 S 450.5 0, 510, 72" fill="none" stroke="#ddd" opacity="0.02" stroke-width="15px" transform="translate(-85,207)"></path><path d="M0 72 C 59.49999999999999 0, 110.5 0, 170 72 S 280.5 144, 340 72 S 450.5 0, 510, 72" fill="none" stroke="#ddd" opacity="0.02" stroke-width="15px" transform="translate(-85,747)"></path><path d="M0 72 C 59.49999999999999 0, 110.5 0, 170 72 S 280.5 144, 340 72 S 450.5 0, 510, 72" fill="none" stroke="#ddd" opacity="0.14133333333333334" stroke-width="15px" transform="translate(-85,222)"></path><path d="M0 72 C 59.49999999999999 0, 110.5 0, 170 72 S 280.5 144, 340 72 S 450.5 0, 510, 72" fill="none" stroke="#ddd" opacity="0.14133333333333334" stroke-width="15px" transform="translate(-85,762)"></path><path d="M0 72 C 59.49999999999999 0, 110.5 0, 170 72 S 280.5 144, 340 72 S 450.5 0, 510, 72" fill="none" stroke="#ddd" opacity="0.08933333333333333" stroke-width="15px" transform="translate(-85,237)"></path><path d="M0 72 C 59.49999999999999 0, 110.5 0, 170 72 S 280.5 144, 340 72 S 450.5 0, 510, 72" fill="none" stroke="#ddd" opacity="0.08933333333333333" stroke-width="15px" transform="translate(-85,777)"></path><path d="M0 72 C 59.49999999999999 0, 110.5 0, 170 72 S 280.5 144, 340 72 S 450.5 0, 510, 72" fill="none" stroke="#222" opacity="0.11533333333333334" stroke-width="15px" transform="translate(-85,252)"></path><path d="M0 72 C 59.49999999999999 0, 110.5 0, 170 72 S 280.5 144, 340 72 S 450.5 0, 510, 72" fill="none" stroke="#222" opacity="0.11533333333333334" stroke-width="15px" transform="translate(-85,792)"></path><path d="M0 72 C 59.49999999999999 0, 110.5 0, 170 72 S 280.5 144, 340 72 S 450.5 0, 510, 72" fill="none" stroke="#ddd" opacity="0.02" stroke-width="15px" transform="translate(-85,267)"></path><path d="M0 72 C 59.49999999999999 0, 110.5 0, 170 72 S 280.5 144, 340 72 S 450.5 0, 510, 72" fill="none" stroke="#ddd" opacity="0.02" stroke-width="15px" transform="translate(-85,807)"></path><path d="M0 72 C 59.49999999999999 0, 110.5 0, 170 72 S 280.5 144, 340 72 S 450.5 0, 510, 72" fill="none" stroke="#222" opacity="0.11533333333333334" stroke-width="15px" transform="translate(-85,282)"></path><path d="M0 72 C 59.49999999999999 0, 110.5 0, 170 72 S 280.5 144, 340 72 S 450.5 0, 510, 72" fill="none" stroke="#222" opacity="0.11533333333333334" stroke-width="15px" transform="translate(-85,822)"></path><path d="M0 72 C 59.49999999999999 0, 110.5 0, 170 72 S 280.5 144, 340 72 S 450.5 0, 510, 72" fill="none" stroke="#ddd" opacity="0.03733333333333333" stroke-width="15px" transform="translate(-85,297)"></path><path d="M0 72 C 59.49999999999999 0, 110.5 0, 170 72 S 280.5 144, 340 72 S 450.5 0, 510, 72" fill="none" stroke="#ddd" opacity="0.03733333333333333" stroke-width="15px" transform="translate(-85,837)"></path><path d="M0 72 C 59.49999999999999 0, 110.5 0, 170 72 S 280.5 144, 340 72 S 450.5 0, 510, 72" fill="none" stroke="#222" opacity="0.15" stroke-width="15px" transform="translate(-85,312)"></path><path d="M0 72 C 59.49999999999999 0, 110.5 0, 170 72 S 280.5 144, 340 72 S 450.5 0, 510, 72" fill="none" stroke="#222" opacity="0.15" stroke-width="15px" transform="translate(-85,852)"></path><path d="M0 72 C 59.49999999999999 0, 110.5 0, 170 72 S 280.5 144, 340 72 S 450.5 0, 510, 72" fill="none" stroke="#ddd" opacity="0.12400000000000001" stroke-width="15px" transform="translate(-85,327)"></path><path d="M0 72 C 59.49999999999999 0, 110.5 0, 170 72 S 280.5 144, 340 72 S 450.5 0, 510, 72" fill="none" stroke="#ddd" opacity="0.12400000000000001" stroke-width="15px" transform="translate(-85,867)"></path><path d="M0 72 C 59.49999999999999 0, 110.5 0, 170 72 S 280.5 144, 340 72 S 450.5 0, 510, 72" fill="none" stroke="#ddd" opacity="0.07200000000000001" stroke-width="15px" transform="translate(-85,342)"></path><path d="M0 72 C 59.49999999999999 0, 110.5 0, 170 72 S 280.5 144, 340 72 S 450.5 0, 510, 72" fill="none" stroke="#ddd" opacity="0.07200000000000001" stroke-width="15px" transform="translate(-85,882)"></path><path d="M0 72 C 59.49999999999999 0, 110.5 0, 170 72 S 280.5 144, 340 72 S 450.5 0, 510, 72" fill="none" stroke="#222" opacity="0.15" stroke-width="15px" transform="translate(-85,357)"></path><path d="M0 72 C 59.49999999999999 0, 110.5 0, 170 72 S 280.5 144, 340 72 S 450.5 0, 510, 72" fill="none" stroke="#222" opacity="0.15" stroke-width="15px" transform="translate(-85,897)"></path><path d="M0 72 C 59.49999999999999 0, 110.5 0, 170 72 S 280.5 144, 340 72 S 450.5 0, 510, 72" fill="none" stroke="#222" opacity="0.06333333333333334" stroke-width="15px" transform="translate(-85,372)"></path><path d="M0 72 C 59.49999999999999 0, 110.5 0, 170 72 S 280.5 144, 340 72 S 450.5 0, 510, 72" fill="none" stroke="#222" opacity="0.06333333333333334" stroke-width="15px" transform="translate(-85,912)"></path><path d="M0 72 C 59.49999999999999 0, 110.5 0, 170 72 S 280.5 144, 340 72 S 450.5 0, 510, 72" fill="none" stroke="#222" opacity="0.15" stroke-width="15px" transform="translate(-85,387)"></path><path d="M0 72 C 59.49999999999999 0, 110.5 0, 170 72 S 280.5 144, 340 72 S 450.5 0, 510, 72" fill="none" stroke="#222" opacity="0.15" stroke-width="15px" transform="translate(-85,927)"></path><path d="M0 72 C 59.49999999999999 0, 110.5 0, 170 72 S 280.5 144, 340 72 S 450.5 0, 510, 72" fill="none" stroke="#ddd" opacity="0.07200000000000001" stroke-width="15px" transform="translate(-85,402)"></path><path d="M0 72 C 59.49999999999999 0, 110.5 0, 170 72 S 280.5 144, 340 72 S 450.5 0, 510, 72" fill="none" stroke="#ddd" opacity="0.07200000000000001" stroke-width="15px" transform="translate(-85,942)"></path><path d="M0 72 C 59.49999999999999 0, 110.5 0, 170 72 S 280.5 144, 340 72 S 450.5 0, 510, 72" fill="none" stroke="#222" opacity="0.08066666666666666" stroke-width="15px" transform="translate(-85,417)"></path><path d="M0 72 C 59.49999999999999 0, 110.5 0, 170 72 S 280.5 144, 340 72 S 450.5 0, 510, 72" fill="none" stroke="#222" opacity="0.08066666666666666" stroke-width="15px" transform="translate(-85,957)"></path></svg>