<svg xmlns="http://www.w3.org/2000/svg" width="380" height="612"><rect x="0" y="0" width="100%" height="100%" fill="rgb(66,56,151)"></rect><path d="M0 81 C 66.5 0, 123.5 0, 190 81 S 313.5 162, 380 81 S 503.5 0, 570, 81" fill="none" stroke="#ddd" opacity="0.14133333333333334" stroke-width="17px" transform="translate(-95,-121.5)"></path><path d="M0 81 C 66.5 0, 123.5 0, 190 81 S 313.5 162, 380 81 S 503.5 0, 570, 81" fill="none" stroke="#ddd" opacity="0.14133333333333334" stroke-width="17px" transform="translate(-95,490.5)"></path><path d="M0 81 C 66.5 0, 123.5 0, 190 81 S 313.5 162, 380 81 S 503.5 0, 570, 81" fill="none" stroke="#222" opacity="0.11533333333333334" stroke-width="17px" transform="translate(-95,-104.5)"></path><path d="M0 81 C 66.5 0, 123.5 0, 190 81 S 313.5 162, 380 81 S 503.5 0, 570, 81" fill="none" stroke="#222" opacity="0.11533333333333334" stroke-width="17px" transform="translate(-95,507.5)"></path><path d="M0 81 C 66.5 0, 123.5 0, 190 81 S 313.5 162, 380 81 S 503.5 0, 570, 81" fill="none" stroke="#ddd" opacity="0.08933333333333333" stroke-width="17px" transform="translate(-95,-87.5)"></path><path d="M0 81 C 66.5 0, 123.5 0, 190 81 S 313.5 162, 380 81 S 503.5 0, 570, 81" fill="none" stroke="#ddd" opacity="0.08933333333333333" stroke-width="17px" transform="translate(-95,524.5)"></path><path d="M0 81 C 66.5 0, 123.5 0, 190 81 S 313.5 162, 380 81 S 503.5 0, 570, 81" fill="none" stroke="#222" opacity="0.11533333333333334" stroke-width="17px" transform="translate(-95,-70.5)"></path><path d="M0 81 C 66.5 0, 123.5 0, 190 81 S 313.5 162, 380 81 S 503.5 0, 570, 81" fill="none" stroke="#222" opacity="0.11533333333333334" stroke-width="17px" transform="translate(-95,541.5)"></path><path d="M0 81 C 66.5 0, 123.5 0, 190 81 S 313.5 162, 380 81 S 503.5 0, 570, 81" fill="none" stroke="#ddd" opacity="0.10666666666666667" stroke-width="17px" transform="translate(-95,-53.5)"></path><path d="M0 81 C 66.5 0, 123.5 0, 190 81 S 313.5 162, 380 81 S 503.5 0, 570, 81" fill="none" stroke="#ddd" opacity="0.10666666666666667" stroke-width="17px" transform="translate(-95,558.5)"></path><path d="M0 81 C 66.5 0, 123.5 0, 190 81 S 313.5 162, 380 81 S 503.5 0, 570, 81" fill="none" stroke="#222" opacity="0.13266666666666665" stroke-width="17px" transform="translate(-95,-36.5)"></path><path d="M0 81 C 66.5 0, 123.5 0, 190 81 S 313.5 162, 380 81 S 503.5 0, 570, 81" fill="none" stroke="#222" opacity="0.13266666666666665" stroke-width="17px" transform="translate(-95,575.5)"></path><path d="M0 81 C 66.5 0, 123.5 0, 190 81 S 313.5 162, 380 81 S 503.5 0, 570, 81" fill="none" stroke="#222" opacity="0.15" stroke-width="17px" transform="translate(-95,-19.5)"></path><path d="M0 81 C 66.5 0, 123.5 0, 190 81 S 313.5 162, 380 81 S 503.5 0, 570, 81" fill="none" stroke="#222" opacity="0.15" stroke-width="17px" transform="translate(-95,592.5)"></path><path d="M0 81 C 66.5 0, 123.5 0, 190 81 S 313.5 162, 380 81 S 503.5 0, 570, 81" fill="none" stroke="#222" opacity="0.13266666666666665" stroke-width="17px" transform="translate(-95,-2.5)"></path><path d="M0 81 C 66.5 0, 123.5 0, 190 81 S 313.5 162, 380 81 S 503.5 0, 570, 81" fill="none" stroke="#222" opacity="0.13266666666666665" stroke-width="17px" transform="translate(-95,609.5)"></path><path d="M0 81 C 66.5 0, 123.5 0, 190 81 S 313.5 162, 380 81 S 503.5 0, 570, 81" fill="none" stroke="#ddd" opacity="0.08933333333333333" stroke-width="17px" transform="translate(-95,14.5)"></path><path d="M0 81 C 66.5 0, 123.5 0, 190 81 S 313.5 162, 380 81 S 503.5 0, 570, 81" fill="none" stroke="#ddd" opacity="0.08933333333333333" stroke-width="17px" transform="translate(-95,626.5)"></path><path d="M0 81 C 66.5 0, 123.5 0, 190 81 S 313.5 162, 380 81 S 503.5 0, 570, 81" fill="none" stroke="#ddd" opacity="0.03733333333333333" stroke-width="17px" transform="translate(-95,31.5)"></path><path d="M0 81 C 66.5 0, 123.5 0, 190 81 S 313.5 162, 380 81 S 503.5 0, 570, 81" fill="none" stroke="#ddd" opacity="0.03733333333333333" stroke-width="17px" transform="translate(-95,643.5)"></path><path d="M0 81 C 66.5 0, 123.5 0, 190 81 S 313.5 162, 380 81 S 503.5 0, 570, 81" fill="none" stroke="#ddd" opacity="0.07200000000000001" stroke-width="17px" transform="translate(-95,48.5)"></path><path d="M0 81 C 66.5 0, 123.5 0, 190 81 S 313.5 162, 380 81 S 503.5 0, 570, 81" fill="none" stroke="#ddd" opacity="0.07200000000000001" stroke-width="17px" transform="translate(-95,660.5)"></path><path d="M0 81 C 66.5 0, 123.5 0, 190 81 S 313.5 162, 380 81 S 503.5 0, 570, 81" fill="none" stroke="#222" opacity="0.06333333333333334" stroke-width="17px" transform="translate(-95,65.5)"></path><path d="M0 81 C 66.5 0, 123.5 0, 190 81 S 313.5 162, 380 81 S 503.5 0, 570, 81" fill="none" stroke="#222" opacity="0.06333333333333334" stroke-width="17px" transform="translate(-95,677.5)"></path><path d="M0 81 C 66.5 0, 123.5 0, 190 81 S 313.5 162, 380 81 S 503.5 0, 570, 81" fill="none" stroke="#ddd" opacity="0.08933333333333333" stroke-width="17px" transform="translate(-95,82.5)"></path><path d="M0 81 C 66.5 0, 123.5 0, 190 81 S 313.5 162, 380 81 S 503.5 0, 570, 81" fill="none" stroke="#ddd" opacity="0.08933333333333333" stroke-width="17px" transform="translate(-95,694.5)"></path><path d="M0 81 C 66.5 0, 123.5 0, 190 81 S 313.5 162, 380 81 S 503.5 0, 570, 81" fill="none" stroke="#222" opacity="0.098" stroke-width="17px" transform="translate(-95,99.5)"></path><path d="M0 81 C 66.5 0, 123.5 0, 190 81 S 313.5 162, 380 81 S 503.5 0, 570, 81" fill="none" stroke="#222" opacity="0.098" stroke-width="17px" transform="translate(-95,711.5)"></path><path d="M0 81 C 66.5 0, 123.5 0, 190 81 S 313.5 162, 380 81 S 503.5 0, 570, 81" fill="none" stroke="#222" opacity="0.06333333333333334" stroke-width="17px" transform="translate(-95,116.5)"></path><path d="M0 81 C 66.5 0, 123.5 0, 190 81 S 313.5 162, 380 81 S 503.5 0, 570, 81" fill="none" stroke="#222" opacity="0.06333333333333334" stroke-width="17px" transform="translate(-95,728.5)"></path><path d="M0 81 C 66.5 0, 123.5 0, 190 81 S 313.5 162, 380 81 S 503.5 0, 570, 81" fill="none" stroke="#ddd" opacity="0.02" stroke-width="17px" transform="translate(-95,133.5)"></path><path d="M0 81 C 66.5 0, 123.5 0, 190 81 S 313.5 162, 380 81 S 503.5 0, 570, 81" fill="none" stroke="#ddd" opacity="0.02" stroke-width="17px" transform="translate(-95,745.5)"></path><path d="M0 81 C 66.5 0, 123.5 0, 190 81 S 313.5 162, 380 81 S 503.5 0, 570, 81" fill="none" stroke="#ddd" opacity="0.14133333333333334" stroke-width="17px" transform="translate(-95,150.5)"></path><path d="M0 81 C 66.5 0, 123.5 0, 190 81 S 313.5 162, 380 81 S 503.5 0, 570, 81" fill="none" stroke="#ddd" opacity="0.14133333333333334" stroke-width="17px" transform="translate(-95,762.5)"></path><path d="M0 81 C 66.5 0, 123.5 0, 190 81 S 313.5 162, 380 81 S 503.5 0, 570, 81" fill="none" stroke="#ddd" opacity="0.05466666666666667" stroke-width="17px" transform="translate(-95,167.5)"></path><path d="M0 81 C 66.5 0, 123.5 0, 190 81 S 313.5 162, 380 81 S 503.5 0, 570, 81" fill="none" stroke="#ddd" opacity="0.05466666666666667" stroke-width="17px" transform="translate(-95,779.5)"></path><path d="M0 81 C 66.5 0, 123.5 0, 190 81 S 313.5 162, 380 81 S 503.5 0, 570, 81" fill="none" stroke="#222" opacity="0.15" stroke-width="17px" transform="translate(-95,184.5)"></path><path d="M0 81 C 66.5 0, 123.5 0, 190 81 S 313.5 162, 380 81 S 503.5 0, 570, 81" fill="none" stroke="#222" opacity="0.15" stroke-width="17px" transform="translate(-95,796.5)"></path><path d="M0 81 C 66.5 0, 123.5 0, 190 81 S 313.5 162, 380 81 S 503.5 0, 570, 81" fill="none" stroke="#ddd" opacity="0.12400000000000001" stroke-width="17px" transform="translate(-95,201.5)"></path><path d="M0 81 C 66.5 0, 123.5 0, 190 81 S 313.5 162, 380 81 S 503.5 0, 570, 81" fill="none" stroke="#ddd" opacity="0.12400000000000001" stroke-width="17px" transform="translate(-95,813.5)"></path><path d="M0 81 C 66.5 0, 123.5 0, 190 81 S 313.5 162, 380 81 S 503.5 0, 570, 81" fill="none" stroke="#ddd" opacity="0.05466666666666667" stroke-width="17px" transform="translate(-95,218.5)"></path><path d="M0 81 C 66.5 0, 123.5 0, 190 81 S 313.5 162, 380 81 S 503.5 0, 570, 81" fill="none" stroke="#ddd" opacity="0.05466666666666667" stroke-width="17px" transform="translate(-95,830.5)"></path><path d="M0 81 C 66.5 0, 123.5 0, 190 81 S 313.5 162, 380 81 S 503.5 0, 570, 81" fill="none" stroke="#ddd" opacity="0.08933333333333333" stroke-width="17px" transform="translate(-95,235.5)"></path><path d="M0 81 C 66.5 0, 123.5 0, 190 81 S 313.5 162, 380 81 S 503.5 0, 570, 81" fill="none" stroke="#ddd" opacity="0.08933333333333333" stroke-width="17px" transform="translate(-95,847.5)"></path><path d="M0 81 C 66.5 0, 123.5 0, 190 81 S 313.5 162, 380 81 S 503.5 0, 570, 81" fill="none" stroke="#222" opacity="0.11533333333333334" stroke-width="17px" transform="translate(-95,252.5)"></path><path d="M0 81 C 66.5 0, 123.5 0, 190 81 S 313.5 162, 380 81 S 503.5 0, 570, 81" fill="none" stroke="#222" opacity="0.11533333333333334" stroke-width="17px" transform="translate(-95,864.5)"></path><path d="M0 81 C 66.5 0, 123.5 0, 190 81 S 313.5 162, 380 81 S 503.5 0, 570, 81" fill="none" stroke="#ddd" opacity="0.10666666666666667" stroke-width="17px" transform="translate(-95,269.5)"></path><path d="M0 81 C 66.5 0, 123.5 0, 190 81 S 313.5 162, 380 81 S 503.5 0, 570, 81" fill="none" stroke="#ddd" opacity="0.10666666666666667" stroke-width="17px" transform="translate(-95,881.5)"></path><path d="M0 81 C 66.5 0, 123.5 0, 190 81 S 313.5 162, 380 81 S 503.5 0, 570, 81" fill="none" stroke="#222" opacity="0.08066666666666666" stroke-width="17px" transform="translate(-95,286.5)"></path><path d="M0 81 C 66.5 0, 123.5 0, 190 81 S 313.5 162, 380 81 S 503.5 0, 570, 81" fill="none" stroke="#222" opacity="0.08066666666666666" stroke-width="17px" transform="translate(-95,898.5)"></path><path d="M0 81 C 66.5 0, 123.5 0, 190 81 S 313.5 162, 380 81 S 503.5 0, 570, 81" fill="none" stroke="#ddd" opacity="0.08933333333333333" stroke-width="17px" transform="translate(-95,303.5)"></path><path d="M0 81 C 66.5 0, 123.5 0, 190 81 S 313.5 162, 380 81 S 503.5 0, 570, 81" fill="none" stroke="#ddd" opacity="0.08933333333333333" stroke-width="17px" transform="translate(-95,915.5)"></path><path d="M0 81 C 66.5 0, 123.5 0, 190 81 S 313.5 162, 380 81 S 503.5 0, 570, 81" fill="none" stroke="#222" opacity="0.028666666666666667" stroke-width="17px" transform="translate(-95,320.5)"></path><path d="M0 81 C 66.5 0, 123.5 0, 190 81 S 313.5 162, 380 81 S 503.5 0, 570, 81" fill="none" stroke="#222" opacity="0.028666666666666667" stroke-width="17px" transform="translate(-95,932.5)"></path><path d="M0 81 C 66.5 0, 123.5 0, 190 81 S 313.5 162, 380 81 S 503.5 0, 570, 81" fill="none" stroke="#ddd" opacity="0.14133333333333334" stroke-width="17px" transform="translate(-95,337.5)"></path><path d="M0 81 C 66.5 0, 123.5 0, 190 81 S 313.5 162, 380 81 S 503.5 0, 570, 81" fill="none" stroke="#ddd" opacity="0.14133333333333334" stroke-width="17px" transform="translate(-95,949.5)"></path><path d="M0 81 C 66.5 0, 123.5 0, 190 81 S 313.5 162, 380 81 S 503.5 0, 570, 81" fill="none" stroke="#ddd" opacity="0.14133333333333334" stroke-width="17px" transform="translate(-95,354.5)"></path><path d="M0 81 C 66.5 0, 123.5 0, 190 81 S 313.5 162, 380 81 S 503.5 0, 570, 81" fill="none" stroke="#ddd" opacity="0.14133333333333334" stroke-width="17px" transform="translate(-95,966.5)"></path><path d="M0 81 C 66.5 0, 123.5 0, 190 81 S 313.5 162, 380 81 S 503.5 0, 570, 81" fill="none" stroke="#ddd" opacity="0.08933333333333333" stroke-width="17px" transform="translate(-95,371.5)"></path><path d="M0 81 C 66.5 0, 123.5 0, 190 81 S 313.5 162, 380 81 S 503.5 0, 570, 81" fill="none" stroke="#ddd" opacity="0.08933333333333333" stroke-width="17px" transform="translate(-95,983.5)"></path><path d="M0 81 C 66.5 0, 123.5 0, 190 81 S 313.5 162, 380 81 S 503.5 0, 570, 81" fill="none" stroke="#ddd" opacity="0.05466666666666667" stroke-width="17px" transform="translate(-95,388.5)"></path><path d="M0 81 C 66.5 0, 123.5 0, 190 81 S 313.5 162, 380 81 S 503.5 0, 570, 81" fill="none" stroke="#ddd" opacity="0.05466666666666667" stroke-width="17px" transform="translate(-95,1000.5)"></path><path d="M0 81 C 66.5 0, 123.5 0, 190 81 S 313.5 162, 380 81 S 503.5 0, 570, 81" fill="none" stroke="#222" opacity="0.098" stroke-width="17px" transform="translate(-95,405.5)"></path><path d="M0 81 C 66.5 0, 123.5 0, 190 81 S 313.5 162, 380 81 S 503.5 0, 570, 81" fill="none" stroke="#222" opacity="0.098" stroke-width="17px" transform="translate(-95,1017.5)"></path><path d="M0 81 C 66.5 0, 123.5 0, 190 81 S 313.5 162, 380 81 S 503.5 0, 570, 81" fill="none" stroke="#222" opacity="0.046" stroke-width="17px" transform="translate(-95,422.5)"></path><path d="M0 81 C 66.5 0, 123.5 0, 190 81 S 313.5 162, 380 81 S 503.5 0, 570, 81" fill="none" stroke="#222" opacity="0.046" stroke-width="17px" transform="translate(-95,1034.5)"></path><path d="M0 81 C 66.5 0, 123.5 0, 190 81 S 313.5 162, 380 81 S 503.5 0, 570, 81" fill="none" stroke="#ddd" opacity="0.12400000000000001" stroke-width="17px" transform="translate(-95,439.5)"></path><path d="M0 81 C 66.5 0, 123.5 0, 190 81 S 313.5 162, 380 81 S 503.5 0, 570, 81" fill="none" stroke="#ddd" opacity="0.12400000000000001" stroke-width="17px" transform="translate(-95,1051.5)"></path><path d="M0 81 C 66.5 0, 123.5 0, 190 81 S 313.5 162, 380 81 S 503.5 0, 570, 81" fill="none" stroke="#ddd" opacity="0.02" stroke-width="17px" transform="translate(-95,456.5)"></path><path d="M0 81 C 66.5 0, 123.5 0, 190 81 S 313.5 162, 380 81 S 503.5 0, 570, 81" fill="none" stroke="#ddd" opacity="0.02" stroke-width="17px" transform="translate(-95,1068.5)"></path><path d="M0 81 C 66.5 0, 123.5 0, 190 81 S 313.5 162, 380 81 S 503.5 0, 570, 81" fill="none" stroke="#ddd" opacity="0.05466666666666667" stroke-width="17px" transform="translate(-95,473.5)"></path><path d="M0 81 C 66.5 0, 123.5 0, 190 81 S 313.5 162, 380 81 S 503.5 0, 570, 81" fill="none" stroke="#ddd" opacity="0.05466666666666667" stroke-width="17px" transform="translate(-95,1085.5)"></path></svg>