<svg xmlns="http://www.w3.org/2000/svg" width="300" height="300"><rect x="0" y="0" width="100%" height="100%" fill="rgb(151,56,106)"></rect><circle cx="0" cy="0" r="43.75" fill="none" stroke="#ddd" opacity="0.12400000000000001" stroke-width="12.5px"></circle><circle cx="300" cy="0" r="43.75" fill="none" stroke="#ddd" opacity="0.12400000000000001" stroke-width="12.5px"></circle><circle cx="0" cy="300" r="43.75" fill="none" stroke="#ddd" opacity="0.12400000000000001" stroke-width="12.5px"></circle><circle cx="300" cy="300" r="43.75" fill="none" stroke="#ddd" opacity="0.12400000000000001" stroke-width="12.5px"></circle><circle cx="50" cy="0" r="43.75" fill="none" stroke="#222" opacity="0.15" stroke-width="12.5px"></circle><circle cx="50" cy="300" r="43.75" fill="none" stroke="#222" opacity="0.15" stroke-width="12.5px"></circle><circle cx="100" cy="0" r="43.75" fill="none" stroke="#222" opacity="0.08066666666666666" stroke-width="12.5px"></circle><circle cx="100" cy="300" r="43.75" fill="none" stroke="#222" opacity="0.08066666666666666" stroke-width="12.5px"></circle><circle cx="150" cy="0" r="43.75" fill="none" stroke="#222" opacity="0.08066666666666666" stroke-width="12.5px"></circle><circle cx="150" cy="300" r="43.75" fill="none" stroke="#222" opacity="0.08066666666666666" stroke-width="12.5px"></circle><circle cx="200" cy="0" r="43.75" fill="none" stroke="#222" opacity="0.098" stroke-width="12.5px"></circle><circle cx="200" cy="300" r="43.75" fill="none" stroke="#222" opacity="0.098" stroke-width="12.5px"></circle><circle cx="250" cy="0" r="43.75" fill="none" stroke="#ddd" opacity="0.03733333333333333" stroke-width="12.5px"></circle><circle cx="250" cy="300" r="43.75" fill="none" stroke="#ddd" opacity="0.03733333333333333" stroke-width="12.5px"></circle><circle cx="0" cy="50" r="43.75" fill="none" stroke="#222" opacity="0.13266666666666665" stroke-width="12.5px"></circle><circle cx="300" cy="50" r="43.75" fill="none" stroke="#222" opacity="0.13266666666666665" stroke-width="12.5px"></circle><circle cx="50" cy="50" r="43.75" fill="none" stroke="#222" opacity="0.15" stroke-width="12.5px"></circle><circle cx="100" cy="50" r="43.75" fill="none" stroke="#ddd" opacity="0.14133333333333334" stroke-width="12.5px"></circle><circle cx="150" cy="50" r="43.75" fill="none" stroke="#ddd" opacity="0.05466666666666667" stroke-width="12.5px"></circle><circle cx="200" cy="50" r="43.75" fill="none" stroke="#222" opacity="0.15" stroke-width="12.5px"></circle><circle cx="250" cy="50" r="43.75" fill="none" stroke="#ddd" opacity="0.08933333333333333" stroke-width="12.5px"></circle><circle cx="0" cy="100" r="43.75" fill="none" stroke="#222" opacity="0.06333333333333334" stroke-width="12.5px"></circle><circle cx="300" cy="100" r="43.75" fill="none" stroke="#222" opacity="0.06333333333333334" stroke-width="12.5px"></circle><circle cx="50" cy="100" r="43.75" fill="none" stroke="#ddd" opacity="0.07200000000000001" stroke-width="12.5px"></circle><circle cx="100" cy="100" r="43.75" fill="none" stroke="#222" opacity="0.028666666666666667" stroke-width="12.5px"></circle><circle cx="150" cy="100" r="43.75" fill="none" stroke="#ddd" opacity="0.07200000000000001" stroke-width="12.5px"></circle><circle cx="200" cy="100" r="43.75" fill="none" stroke="#222" opacity="0.098" stroke-width="12.5px"></circle><circle cx="250" cy="100" r="43.75" fill="none" stroke="#ddd" opacity="0.05466666666666667" stroke-width="12.5px"></circle><circle cx="0" cy="150" r="43.75" fill="none" stroke="#ddd" opacity="0.03733333333333333" stroke-width="12.5px"></circle><circle cx="300" cy="150" r="43.75" fill="none" stroke="#ddd" opacity="0.03733333333333333" stroke-width="12.5px"></circle><circle cx="50" cy="150" r="43.75" fill="none" stroke="#ddd" opacity="0.12400000000000001" stroke-width="12.5px"></circle><circle cx="100" cy="150" r="43.75" fill="none" stroke="#ddd" opacity="0.07200000000000001" stroke-width="12.5px"></circle><circle cx="150" cy="150" r="43.75" fill="none" stroke="#ddd" opacity="0.12400000000000001" stroke-width="12.5px"></circle><circle cx="200" cy="150" r="43.75" fill="none" stroke="#222" opacity="0.028666666666666667" stroke-width="12.5px"></circle><circle cx="250" cy="150" r="43.75" fill="none" stroke="#ddd" opacity="0.14133333333333334" stroke-width="12.5px"></circle><circle cx="0" cy="200" r="43.75" fill="none" stroke="#222" opacity="0.028666666666666667" stroke-width="12.5px"></circle><circle cx="300" cy="200" r="43.75" fill="none" stroke="#222" opacity="0.028666666666666667" stroke-width="12.5px"></circle><circle cx="50" cy="200" r="43.75" fill="none" stroke="#ddd" opacity="0.12400000000000001" stroke-width="12.5px"></circle><circle cx="100" cy="200" r="43.75" fill="none" stroke="#ddd" opacity="0.07200000000000001" stroke-width="12.5px"></circle><circle cx="150" cy="200" r="43.75" fill="none" stroke="#ddd" opacity="0.14133333333333334" stroke-width="12.5px"></circle><circle cx="200" cy="200" r="43.75" fill="none" stroke="#222" opacity="0.046" stroke-width="12.5px"></circle><circle cx="250" cy="200" r="43.75" fill="none" stroke="#222" opacity="0.15" stroke-width="12.5px"></circle><circle cx="0" cy="250" r="43.75" fill="none" stroke="#ddd" opacity="0.07200000000000001" stroke-width="12.5px"></circle><circle cx="300" cy="250" r="43.75" fill="none" stroke="#ddd" opacity="0.07200000000000001" stroke-width="12.5px"></circle><circle cx="50" cy="250" r="43.75" fill="none" stroke="#222" opacity="0.11533333333333334" stroke-width="12.5px"></circle><circle cx="100" cy="250" r="43.75" fill="none" stroke="#222" opacity="0.046" stroke-width="12.5px"></circle><circle cx="150" cy="250" r="43.75" fill="none" stroke="#222" opacity="0.08066666666666666" stroke-width="12.5px"></circle><circle cx="200" cy="250" r="43.75" fill="none" stroke="#ddd" opacity="0.02" stroke-width="12.5px"></circle><circle cx="250" cy="250" r="43.75" fill="none" stroke="#ddd" opacity="0.10666666666666667" stroke-width="12.5px"></circle></svg>