<svg xmlns="http://www.w3.org/2000/svg" width="400" height="108"><rect x="0" y="0" width="100%" height="100%" fill="rgb(144,63,76)"></rect><path d="M0 72 C 70 0, 130 0, 200 72 S 330 144, 400 72 S 530 0, 600, 72" fill="none" stroke="#222" opacity="0.15" stroke-width="3px" transform="translate(-100,-108)"></path><path d="M0 72 C 70 0, 130 0, 200 72 S 330 144, 400 72 S 530 0, 600, 72" fill="none" stroke="#222" opacity="0.15" stroke-width="3px" transform="translate(-100,0)"></path><path d="M0 72 C 70 0, 130 0, 200 72 S 330 144, 400 72 S 530 0, 600, 72" fill="none" stroke="#222" opacity="0.098" stroke-width="3px" transform="translate(-100,-105)"></path><path d="M0 72 C 70 0, 130 0, 200 72 S 330 144, 400 72 S 530 0, 600, 72" fill="none" stroke="#222" opacity="0.098" stroke-width="3px" transform="translate(-100,3)"></path><path d="M0 72 C 70 0, 130 0, 200 72 S 330 144, 400 72 S 530 0, 600, 72" fill="none" stroke="#ddd" opacity="0.02" stroke-width="3px" transform="translate(-100,-102)"></path><path d="M0 72 C 70 0, 130 0, 200 72 S 330 144, 400 72 S 530 0, 600, 72" fill="none" stroke="#ddd" opacity="0.02" stroke-width="3px" transform="translate(-100,6)"></path><path d="M0 72 C 70 0, 130 0, 200 72 S 330 144, 400 72 S 530 0, 600, 72" fill="none" stroke="#222" opacity="0.08066666666666666" stroke-width="3px" transform="translate(-100,-99)"></path><path d="M0 72 C 70 0, 130 0, 200 72 S 330 144, 400 72 S 530 0, 600, 72" fill="none" stroke="#222" opacity="0.08066666666666666" stroke-width="3px" transform="translate(-100,9)"></path><path d="M0 72 C 70 0, 130 0, 200 72 S 330 144, 400 72 S 530 0, 600, 72" fill="none" stroke="#222" opacity="0.15" stroke-width="3px" transform="translate(-100,-96)"></path><path d="M0 72 C 70 0, 130 0, 200 72 S 330 144, 400 72 S 530 0, 600, 72" fill="none" stroke="#222" opacity="0.15" stroke-width="3px" transform="translate(-100,12)"></path><path d="M0 72 C 70 0, 130 0, 200 72 S 330 144, 400 72 S 530 0, 600, 72" fill="none" stroke="#ddd" opacity="0.08933333333333333" stroke-width="3px" transform="translate(-100,-93)"></path><path d="M0 72 C 70 0, 130 0, 200 72 S 330 144, 400 72 S 530 0, 600, 72" fill="none" stroke="#ddd" opacity="0.08933333333333333" stroke-width="3px" transform="translate(-100,15)"></path><path d="M0 72 C 70 0, 130 0, 200 72 S 330 144, 400 72 S 530 0, 600, 72" fill="none" stroke="#ddd" opacity="0.10666666666666667" stroke-width="3px" transform="translate(-100,-90)"></path><path d="M0 72 C 70 0, 130 0, 200 72 S 330 144, 400 72 S 530 0, 600, 72" fill="none" stroke="#ddd" opacity="0.10666666666666667" stroke-width="3px" transform="translate(-100,18)"></path><path d="M0 72 C 70 0, 130 0, 200 72 S 330 144, 400 72 S 530 0, 600, 72" fill="none" stroke="#ddd" opacity="0.02" stroke-width="3px" transform="translate(-100,-87)"></path><path d="M0 72 C 70 0, 130 0, 200 72 S 330 144, 400 72 S 530 0, 600, 72" fill="none" stroke="#ddd" opacity="0.02" stroke-width="3px" transform="translate(-100,21)"></path><path d="M0 72 C 70 0, 130 0, 200 72 S 330 144, 400 72 S 530 0, 600, 72" fill="none" stroke="#ddd" opacity="0.08933333333333333" stroke-width="3px" transform="translate(-100,-84)"></path><path d="M0 72 C 70 0, 130 0, 200 72 S 330 144, 400 72 S 530 0, 600, 72" fill="none" stroke="#ddd" opacity="0.08933333333333333" stroke-width="3px" transform="translate(-100,24)"></path><path d="M0 72 C 70 0, 130 0, 200 72 S 330 144, 400 72 S 530 0, 600, 72" fill="none" stroke="#222" opacity="0.11533333333333334" stroke-width="3px" transform="translate(-100,-81)"></path><path d="M0 72 C 70 0, 130 0, 200 72 S 330 144, 400 72 S 530 0, 600, 72" fill="none" stroke="#222" opacity="0.11533333333333334" stroke-width="3px" transform="translate(-100,27)"></path><path d="M0 72 C 70 0, 130 0, 200 72 S 330 144, 400 72 S 530 0, 600, 72" fill="none" stroke="#ddd" opacity="0.07200000000000001" stroke-width="3px" transform="translate(-100,-78)"></path><path d="M0 72 C 70 0, 130 0, 200 72 S 330 144, 400 72 S 530 0, 600, 72" fill="none" stroke="#ddd" opacity="0.07200000000000001" stroke-width="3px" transform="translate(-100,30)"></path><path d="M0 72 C 70 0, 130 0, 200 72 S 330 144, 400 72 S 530 0, 600, 72" fill="none" stroke="#222" opacity="0.098" stroke-width="3px" transform="translate(-100,-75)"></path><path d="M0 72 C 70 0, 130 0, 200 72 S 330 144, 400 72 S 530 0, 600, 72" fill="none" stroke="#222" opacity="0.098" stroke-width="3px" transform="translate(-100,33)"></path><path d="M0 72 C 70 0, 130 0, 200 72 S 330 144, 400 72 S 530 0, 600, 72" fill="none" stroke="#222" opacity="0.15" stroke-width="3px" transform="translate(-100,-72)"></path><path d="M0 72 C 70 0, 130 0, 200 72 S 330 144, 400 72 S 530 0, 600, 72" fill="none" stroke="#222" opacity="0.15" stroke-width="3px" transform="translate(-100,36)"></path><path d="M0 72 C 70 0, 130 0, 200 72 S 330 144, 400 72 S 530 0, 600, 72" fill="none" stroke="#ddd" opacity="0.14133333333333334" stroke-width="3px" transform="translate(-100,-69)"></path><path d="M0 72 C 70 0, 130 0, 200 72 S 330 144, 400 72 S 530 0, 600, 72" fill="none" stroke="#ddd" opacity="0.14133333333333334" stroke-width="3px" transform="translate(-100,39)"></path><path d="M0 72 C 70 0, 130 0, 200 72 S 330 144, 400 72 S 530 0, 600, 72" fill="none" stroke="#ddd" opacity="0.02" stroke-width="3px" transform="translate(-100,-66)"></path><path d="M0 72 C 70 0, 130 0, 200 72 S 330 144, 400 72 S 530 0, 600, 72" fill="none" stroke="#ddd" opacity="0.02" stroke-width="3px" transform="translate(-100,42)"></path><path d="M0 72 C 70 0, 130 0, 200 72 S 330 144, 400 72 S 530 0, 600, 72" fill="none" stroke="#ddd" opacity="0.07200000000000001" stroke-width="3px" transform="translate(-100,-63)"></path><path d="M0 72 C 70 0, 130 0, 200 72 S 330 144, 400 72 S 530 0, 600, 72" fill="none" stroke="#ddd" opacity="0.07200000000000001" stroke-width="3px" transform="translate(-100,45)"></path><path d="M0 72 C 70 0, 130 0, 200 72 S 330 144, 400 72 S 530 0, 600, 72" fill="none" stroke="#222" opacity="0.11533333333333334" stroke-width="3px" transform="translate(-100,-60)"></path><path d="M0 72 C 70 0, 130 0, 200 72 S 330 144, 400 72 S 530 0, 600, 72" fill="none" stroke="#222" opacity="0.11533333333333334" stroke-width="3px" transform="translate(-100,48)"></path><path d="M0 72 C 70 0, 130 0, 200 72 S 330 144, 400 72 S 530 0, 600, 72" fill="none" stroke="#222" opacity="0.046" stroke-width="3px" transform="translate(-100,-57)"></path><path d="M0 72 C 70 0, 130 0, 200 72 S 330 144, 400 72 S 530 0, 600, 72" fill="none" stroke="#222" opacity="0.046" stroke-width="3px" transform="translate(-100,51)"></path><path d="M0 72 C 70 0, 130 0, 200 72 S 330 144, 400 72 S 530 0, 600, 72" fill="none" stroke="#ddd" opacity="0.08933333333333333" stroke-width="3px" transform="translate(-100,-54)"></path><path d="M0 72 C 70 0, 130 0, 200 72 S 330 144, 400 72 S 530 0, 600, 72" fill="none" stroke="#ddd" opacity="0.08933333333333333" stroke-width="3px" transform="translate(-100,54)"></path><path d="M0 72 C 70 0, 130 0, 200 72 S 330 144, 400 72 S 530 0, 600, 72" fill="none" stroke="#222" opacity="0.15" stroke-width="3px" transform="translate(-100,-51)"></path><path d="M0 72 C 70 0, 130 0, 200 72 S 330 144, 400 72 S 530 0, 600, 72" fill="none" stroke="#222" opacity="0.15" stroke-width="3px" transform="translate(-100,57)"></path><path d="M0 72 C 70 0, 130 0, 200 72 S 330 144, 400 72 S 530 0, 600, 72" fill="none" stroke="#ddd" opacity="0.05466666666666667" stroke-width="3px" transform="translate(-100,-48)"></path><path d="M0 72 C 70 0, 130 0, 200 72 S 330 144, 400 72 S 530 0, 600, 72" fill="none" stroke="#ddd" opacity="0.05466666666666667" stroke-width="3px" transform="translate(-100,60)"></path><path d="M0 72 C 70 0, 130 0, 200 72 S 330 144, 400 72 S 530 0, 600, 72" fill="none" stroke="#222" opacity="0.028666666666666667" stroke-width="3px" transform="translate(-100,-45)"></path><path d="M0 72 C 70 0, 130 0, 200 72 S 330 144, 400 72 S 530 0, 600, 72" fill="none" stroke="#222" opacity="0.028666666666666667" stroke-width="3px" transform="translate(-100,63)"></path><path d="M0 72 C 70 0, 130 0, 200 72 S 330 144, 400 72 S 530 0, 600, 72" fill="none" stroke="#ddd" opacity="0.12400000000000001" stroke-width="3px" transform="translate(-100,-42)"></path><path d="M0 72 C 70 0, 130 0, 200 72 S 330 144, 400 72 S 530 0, 600, 72" fill="none" stroke="#ddd" opacity="0.12400000000000001" stroke-width="3px" transform="translate(-100,66)"></path><path d="M0 72 C 70 0, 130 0, 200 72 S 330 144, 400 72 S 530 0, 600, 72" fill="none" stroke="#222" opacity="0.15" stroke-width="3px" transform="translate(-100,-39)"></path><path d="M0 72 C 70 0, 130 0, 200 72 S 330 144, 400 72 S 530 0, 600, 72" fill="none" stroke="#222" opacity="0.15" stroke-width="3px" transform="translate(-100,69)"></path><path d="M0 72 C 70 0, 130 0, 200 72 S 330 144, 400 72 S 530 0, 600, 72" fill="none" stroke="#222" opacity="0.15" stroke-width="3px" transform="translate(-100,-36)"></path><path d="M0 72 C 70 0, 130 0, 200 72 S 330 144, 400 72 S 530 0, 600, 72" fill="none" stroke="#222" opacity="0.15" stroke-width="3px" transform="translate(-100,72)"></path><path d="M0 72 C 70 0, 130 0, 200 72 S 330 144, 400 72 S 530 0, 600, 72" fill="none" stroke="#222" opacity="0.098" stroke-width="3px" transform="translate(-100,-33)"></path><path d="M0 72 C 70 0, 130 0, 200 72 S 330 144, 400 72 S 530 0, 600, 72" fill="none" stroke="#222" opacity="0.098" stroke-width="3px" transform="translate(-100,75)"></path><path d="M0 72 C 70 0, 130 0, 200 72 S 330 144, 400 72 S 530 0, 600, 72" fill="none" stroke="#ddd" opacity="0.10666666666666667" stroke-width="3px" transform="translate(-100,-30)"></path><path d="M0 72 C 70 0, 130 0, 200 72 S 330 144, 400 72 S 530 0, 600, 72" fill="none" stroke="#ddd" opacity="0.10666666666666667" stroke-width="3px" transform="translate(-100,78)"></path><path d="M0 72 C 70 0, 130 0, 200 72 S 330 144, 400 72 S 530 0, 600, 72" fill="none" stroke="#ddd" opacity="0.07200000000000001" stroke-width="3px" transform="translate(-100,-27)"></path><path d="M0 72 C 70 0, 130 0, 200 72 S 330 144, 400 72 S 530 0, 600, 72" fill="none" stroke="#ddd" opacity="0.07200000000000001" stroke-width="3px" transform="translate(-100,81)"></path><path d="M0 72 C 70 0, 130 0, 200 72 S 330 144, 400 72 S 530 0, 600, 72" fill="none" stroke="#222" opacity="0.08066666666666666" stroke-width="3px" transform="translate(-100,-24)"></path><path d="M0 72 C 70 0, 130 0, 200 72 S 330 144, 400 72 S 530 0, 600, 72" fill="none" stroke="#222" opacity="0.08066666666666666" stroke-width="3px" transform="translate(-100,84)"></path><path d="M0 72 C 70 0, 130 0, 200 72 S 330 144, 400 72 S 530 0, 600, 72" fill="none" stroke="#222" opacity="0.098" stroke-width="3px" transform="translate(-100,-21)"></path><path d="M0 72 C 70 0, 130 0, 200 72 S 330 144, 400 72 S 530 0, 600, 72" fill="none" stroke="#222" opacity="0.098" stroke-width="3px" transform="translate(-100,87)"></path><path d="M0 72 C 70 0, 130 0, 200 72 S 330 144, 400 72 S 530 0, 600, 72" fill="none" stroke="#ddd" opacity="0.02" stroke-width="3px" transform="translate(-100,-18)"></path><path d="M0 72 C 70 0, 130 0, 200 72 S 330 144, 400 72 S 530 0, 600, 72" fill="none" stroke="#ddd" opacity="0.02" stroke-width="3px" transform="translate(-100,90)"></path><path d="M0 72 C 70 0, 130 0, 200 72 S 330 144, 400 72 S 530 0, 600, 72" fill="none" stroke="#222" opacity="0.08066666666666666" stroke-width="3px" transform="translate(-100,-15)"></path><path d="M0 72 C 70 0, 130 0, 200 72 S 330 144, 400 72 S 530 0, 600, 72" fill="none" stroke="#222" opacity="0.08066666666666666" stroke-width="3px" transform="translate(-100,93)"></path><path d="M0 72 C 70 0, 130 0, 200 72 S 330 144, 400 72 S 530 0, 600, 72" fill="none" stroke="#222" opacity="0.098" stroke-width="3px" transform="translate(-100,-12)"></path><path d="M0 72 C 70 0, 130 0, 200 72 S 330 144, 400 72 S 530 0, 600, 72" fill="none" stroke="#222" opacity="0.098" stroke-width="3px" transform="translate(-100,96)"></path><path d="M0 72 C 70 0, 130 0, 200 72 S 330 144, 400 72 S 530 0, 600, 72" fill="none" stroke="#222" opacity="0.15" stroke-width="3px" transform="translate(-100,-9)"></path><path d="M0 72 C 70 0, 130 0, 200 72 S 330 144, 400 72 S 530 0, 600, 72" fill="none" stroke="#222" opacity="0.15" stroke-width="3px" transform="translate(-100,99)"></path><path d="M0 72 C 70 0, 130 0, 200 72 S 330 144, 400 72 S 530 0, 600, 72" fill="none" stroke="#222" opacity="0.046" stroke-width="3px" transform="translate(-100,-6)"></path><path d="M0 72 C 70 0, 130 0, 200 72 S 330 144, 400 72 S 530 0, 600, 72" fill="none" stroke="#222" opacity="0.046" stroke-width="3px" transform="translate(-100,102)"></path><path d="M0 72 C 70 0, 130 0, 200 72 S 330 144, 400 72 S 530 0, 600, 72" fill="none" stroke="#ddd" opacity="0.05466666666666667" stroke-width="3px" transform="translate(-100,-3)"></path><path d="M0 72 C 70 0, 130 0, 200 72 S 330 144, 400 72 S 530 0, 600, 72" fill="none" stroke="#ddd" opacity="0.05466666666666667" stroke-width="3px" transform="translate(-100,105)"></path></svg>