<svg xmlns="http://www.w3.org/2000/svg" width="360" height="360"><rect x="0" y="0" width="100%" height="100%" fill="rgb(115,46,161)"></rect><rect x="0" y="0" width="60" height="60" fill="#222" fill-opacity="0.15" stroke="#000" stroke-opacity="0.02"></rect><rect x="60" y="0" width="60" height="60" fill="#ddd" fill-opacity="0.10666666666666667" stroke="#000" stroke-opacity="0.02"></rect><rect x="120" y="0" width="60" height="60" fill="#ddd" fill-opacity="0.14133333333333334" stroke="#000" stroke-opacity="0.02"></rect><rect x="180" y="0" width="60" height="60" fill="#ddd" fill-opacity="0.14133333333333334" stroke="#000" stroke-opacity="0.02"></rect><rect x="240" y="0" width="60" height="60" fill="#ddd" fill-opacity="0.05466666666666667" stroke="#000" stroke-opacity="0.02"></rect><rect x="300" y="0" width="60" height="60" fill="#ddd" fill-opacity="0.10666666666666667" stroke="#000" stroke-opacity="0.02"></rect><rect x="0" y="60" width="60" height="60" fill="#ddd" fill-opacity="0.14133333333333334" stroke="#000" stroke-opacity="0.02"></rect><rect x="60" y="60" width="60" height="60" fill="#222" fill-opacity="0.15" stroke="#000" stroke-opacity="0.02"></rect><rect x="120" y="60" width="60" height="60" fill="#ddd" fill-opacity="0.10666666666666667" stroke="#000" stroke-opacity="0.02"></rect><rect x="180" y="60" width="60" height="60" fill="#222" fill-opacity="0.098" stroke="#000" stroke-opacity="0.02"></rect><rect x="240" y="60" width="60" height="60" fill="#ddd" fill-opacity="0.12400000000000001" stroke="#000" stroke-opacity="0.02"></rect><rect x="300" y="60" width="60" height="60" fill="#222" fill-opacity="0.13266666666666665" stroke="#000" stroke-opacity="0.02"></rect><rect x="0" y="120" width="60" height="60" fill="#222" fill-opacity="0.15" stroke="#000" stroke-opacity="0.02"></rect><rect x="60" y="120" width="60" height="60" fill="#ddd" fill-opacity="0.14133333333333334" stroke="#000" stroke-opacity="0.02"></rect><rect x="120" y="120" width="60" height="60" fill="#222" fill-opacity="0.046" stroke="#000" stroke-opacity="0.02"></rect><rect x="180" y="120" width="60" height="60" fill="#222" fill-opacity="0.11533333333333334" stroke="#000" stroke-opacity="0.02"></rect><rect x="240" y="120" width="60" height="60" fill="#ddd" fill-opacity="0.12400000000000001" stroke="#000" stroke-opacity="0.02"></rect><rect x="300" y="120" width="60" height="60" fill="#ddd" fill-opacity="0.14133333333333334" stroke="#000" stroke-opacity="0.02"></rect><rect x="0" y="180" width="60" height="60" fill="#ddd" fill-opacity="0.02" stroke="#000" stroke-opacity="0.02"></rect><rect x="60" y="180" width="60" height="60" fill="#ddd" fill-opacity="0.14133333333333334" stroke="#000" stroke-opacity="0.02"></rect><rect x="120" y="180" width="60" height="60" fill="#222" fill-opacity="0.098" stroke="#000" stroke-opacity="0.02"></rect><rect x="180" y="180" width="60" height="60" fill="#ddd" fill-opacity="0.03733333333333333" stroke="#000" stroke-opacity="0.02"></rect><rect x="240" y="180" width="60" height="60" fill="#ddd" fill-opacity="0.03733333333333333" stroke="#000" stroke-opacity="0.02"></rect><rect x="300" y="180" width="60" height="60" fill="#222" fill-opacity="0.06333333333333334" stroke="#000" stroke-opacity="0.02"></rect><rect x="0" y="240" width="60" height="60" fill="#222" fill-opacity="0.028666666666666667" stroke="#000" stroke-opacity="0.02"></rect><rect x="60" y="240" width="60" height="60" fill="#222" fill-opacity="0.06333333333333334" stroke="#000" stroke-opacity="0.02"></rect><rect x="120" y="240" width="60" height="60" fill="#ddd" fill-opacity="0.08933333333333333" stroke="#000" stroke-opacity="0.02"></rect><rect x="180" y="240" width="60" height="60" fill="#222" fill-opacity="0.08066666666666666" stroke="#000" stroke-opacity="0.02"></rect><rect x="240" y="240" width="60" height="60" fill="#ddd" fill-opacity="0.02" stroke="#000" stroke-opacity="0.02"></rect><rect x="300" y="240" width="60" height="60" fill="#ddd" fill-opacity="0.12400000000000001" stroke="#000" stroke-opacity="0.02"></rect><rect x="0" y="300" width="60" height="60" fill="#222" fill-opacity="0.08066666666666666" stroke="#000" stroke-opacity="0.02"></rect><rect x="60" y="300" width="60" height="60" fill="#ddd" fill-opacity="0.05466666666666667" stroke="#000" stroke-opacity="0.02"></rect><rect x="120" y="300" width="60" height="60" fill="#222" fill-opacity="0.15" stroke="#000" stroke-opacity="0.02"></rect><rect x="180" y="300" width="60" height="60" fill="#ddd" fill-opacity="0.10666666666666667" stroke="#000" stroke-opacity="0.02"></rect><rect x="240" y="300" width="60" height="60" fill="#222" fill-opacity="0.13266666666666665" stroke="#000" stroke-opacity="0.02"></rect><rect x="300" y="300" width="60" height="60" fill="#222" fill-opacity="0.11533333333333334" stroke="#000" stroke-opacity="0.02"></rect></svg>