<svg xmlns="http://www.w3.org/2000/svg" width="45" height="52"><rect x="0" y="0" width="100%" height="100%" fill="rgb(157,50,120)"></rect><rect x="-4.833333333333334" y="-4.833333333333334" width="9.666666666666668" height="9.666666666666668" stroke="#000" stroke-opacity="0.02" fill="#ddd" fill-opacity="0.03733333333333333" stroke-width="1"></rect><rect x="40.90982447316582" y="-4.833333333333334" width="9.666666666666668" height="9.666666666666668" stroke="#000" stroke-opacity="0.02" fill="#ddd" fill-opacity="0.03733333333333333" stroke-width="1"></rect><rect x="-4.833333333333334" y="47.9863156129983" width="9.666666666666668" height="9.666666666666668" stroke="#000" stroke-opacity="0.02" fill="#ddd" fill-opacity="0.03733333333333333" stroke-width="1"></rect><rect x="40.90982447316582" y="47.9863156129983" width="9.666666666666668" height="9.666666666666668" stroke="#000" stroke-opacity="0.02" fill="#ddd" fill-opacity="0.03733333333333333" stroke-width="1"></rect><rect x="18.038245569916242" y="8.371578903249574" width="9.666666666666668" height="9.666666666666668" stroke="#000" stroke-opacity="0.02" fill="#222" fill-opacity="0.06333333333333334" stroke-width="1"></rect><rect x="-4.833333333333334" y="21.576491139832484" width="9.666666666666668" height="9.666666666666668" stroke="#000" stroke-opacity="0.02" fill="#ddd" fill-opacity="0.02" stroke-width="1"></rect><rect x="40.90982447316582" y="21.576491139832484" width="9.666666666666668" height="9.666666666666668" stroke="#000" stroke-opacity="0.02" fill="#ddd" fill-opacity="0.02" stroke-width="1"></rect><rect x="18.038245569916242" y="34.78140337641539" width="9.666666666666668" height="9.666666666666668" stroke="#000" stroke-opacity="0.02" fill="#222" fill-opacity="0.15" stroke-width="1"></rect><polyline points="0,0,8.371578903249574,4.833333333333334,0,9.666666666666668,0,0" stroke="#000" stroke-opacity="0.02" fill="#222" fill-opacity="0.028666666666666667" stroke-width="1" transform="translate(4.833333333333334,-4.833333333333334) rotate(0,4.833333333333334,4.185789451624787)"></polyline><polyline points="0,0,8.371578903249574,4.833333333333334,0,9.666666666666668,0,0" stroke="#000" stroke-opacity="0.02" fill="#222" fill-opacity="0.028666666666666667" stroke-width="1" transform="translate(4.833333333333334,57.65298227966497) rotate(0,4.833333333333334,4.185789451624787) scale(1,-1)"></polyline><polyline points="0,0,8.371578903249574,4.833333333333334,0,9.666666666666668,0,0" stroke="#000" stroke-opacity="0.02" fill="#222" fill-opacity="0.06333333333333334" stroke-width="1" transform="translate(40.90982447316582,-4.833333333333334) rotate(0,4.833333333333334,4.185789451624787) scale(-1,1)"></polyline><polyline points="0,0,8.371578903249574,4.833333333333334,0,9.666666666666668,0,0" stroke="#000" stroke-opacity="0.02" fill="#222" fill-opacity="0.06333333333333334" stroke-width="1" transform="translate(40.90982447316582,57.65298227966497) rotate(0,4.833333333333334,4.185789451624787) scale(-1,-1)"></polyline><polyline points="0,0,8.371578903249574,4.833333333333334,0,9.666666666666668,0,0" stroke="#000" stroke-opacity="0.02" fill="#ddd" fill-opacity="0.07200000000000001" stroke-width="1" transform="translate(27.704912236582913,8.371578903249574)"></polyline><polyline points="0,0,8.371578903249574,4.833333333333334,0,9.666666666666668,0,0" stroke="#000" stroke-opacity="0.02" fill="#ddd" fill-opacity="0.05466666666666667" stroke-width="1" transform="translate(18.038245569916242,8.371578903249574) scale(-1,1)"></polyline><polyline points="0,0,8.371578903249574,4.833333333333334,0,9.666666666666668,0,0" stroke="#000" stroke-opacity="0.02" fill="#ddd" fill-opacity="0.05466666666666667" stroke-width="1" transform="translate(27.704912236582913,44.448070043082055) scale(1,-1)"></polyline><polyline points="0,0,8.371578903249574,4.833333333333334,0,9.666666666666668,0,0" stroke="#000" stroke-opacity="0.02" fill="#222" fill-opacity="0.13266666666666665" stroke-width="1" transform="translate(18.038245569916242,44.448070043082055) scale(-1,-1)"></polyline><polyline points="0,0,8.371578903249574,4.833333333333334,0,9.666666666666668,0,0" stroke="#000" stroke-opacity="0.02" fill="#ddd" fill-opacity="0.12400000000000001" stroke-width="1" transform="translate(4.833333333333334,21.576491139832484)"></polyline><polyline points="0,0,8.371578903249574,4.833333333333334,0,9.666666666666668,0,0" stroke="#000" stroke-opacity="0.02" fill="#ddd" fill-opacity="0.03733333333333333" stroke-width="1" transform="translate(40.90982447316582,21.576491139832484) scale(-1,1)"></polyline><rect x="0" y="0" width="9.666666666666668" height="9.666666666666668" stroke="#000" stroke-opacity="0.02" fill="#222" fill-opacity="0.08066666666666666" stroke-width="1" transform="translate(4.833333333333334,4.833333333333334) rotate(-30,0,0)"></rect><rect x="0" y="0" width="9.666666666666668" height="9.666666666666668" stroke="#000" stroke-opacity="0.02" fill="#222" fill-opacity="0.06333333333333334" stroke-width="1" transform="scale(-1,1) translate(-40.90982447316582,4.833333333333334) rotate(-30,0,0)"></rect><rect x="0" y="0" width="9.666666666666668" height="9.666666666666668" stroke="#000" stroke-opacity="0.02" fill="#222" fill-opacity="0.028666666666666667" stroke-width="1" transform="translate(4.833333333333334,11.909824473165816) rotate(30,0,9.666666666666668)"></rect><rect x="0" y="0" width="9.666666666666668" height="9.666666666666668" stroke="#000" stroke-opacity="0.02" fill="#ddd" fill-opacity="0.12400000000000001" stroke-width="1" transform="scale(-1,1) translate(-40.90982447316582,11.909824473165816) rotate(30,0,9.666666666666668)"></rect><rect x="0" y="0" width="9.666666666666668" height="9.666666666666668" stroke="#000" stroke-opacity="0.02" fill="#222" fill-opacity="0.028666666666666667" stroke-width="1" transform="scale(1,-1) translate(4.833333333333334,-40.90982447316581) rotate(30,0,9.666666666666668)"></rect><rect x="0" y="0" width="9.666666666666668" height="9.666666666666668" stroke="#000" stroke-opacity="0.02" fill="#ddd" fill-opacity="0.10666666666666667" stroke-width="1" transform="scale(-1,-1) translate(-40.90982447316582,-40.90982447316581) rotate(30,0,9.666666666666668)"></rect><rect x="0" y="0" width="9.666666666666668" height="9.666666666666668" stroke="#000" stroke-opacity="0.02" fill="#ddd" fill-opacity="0.07200000000000001" stroke-width="1" transform="scale(1,-1) translate(4.833333333333334,-47.9863156129983) rotate(-30,0,0)"></rect><rect x="0" y="0" width="9.666666666666668" height="9.666666666666668" stroke="#000" stroke-opacity="0.02" fill="#222" fill-opacity="0.028666666666666667" stroke-width="1" transform="scale(-1,-1) translate(-40.90982447316582,-47.9863156129983) rotate(-30,0,0)"></rect></svg>