<svg xmlns="http://www.w3.org/2000/svg" width="419" height="419"><rect x="0" y="0" width="100%" height="100%" fill="rgb(76,95,131)"></rect><rect x="0" y="5" width="100%" height="5" opacity="0.02" fill="#ddd"></rect><rect x="0" y="23" width="100%" height="17" opacity="0.12400000000000001" fill="#ddd"></rect><rect x="0" y="54" width="100%" height="8" opacity="0.046" fill="#222"></rect><rect x="0" y="77" width="100%" height="17" opacity="0.12400000000000001" fill="#ddd"></rect><rect x="0" y="100" width="100%" height="7" opacity="0.03733333333333333" fill="#ddd"></rect><rect x="0" y="121" width="100%" height="7" opacity="0.03733333333333333" fill="#ddd"></rect><rect x="0" y="146" width="100%" height="6" opacity="0.028666666666666667" fill="#222"></rect><rect x="0" y="163" width="100%" height="9" opacity="0.05466666666666667" fill="#ddd"></rect><rect x="0" y="184" width="100%" height="20" opacity="0.15" fill="#222"></rect><rect x="0" y="222" width="100%" height="14" opacity="0.098" fill="#222"></rect><rect x="0" y="248" width="100%" height="5" opacity="0.02" fill="#ddd"></rect><rect x="0" y="267" width="100%" height="6" opacity="0.028666666666666667" fill="#222"></rect><rect x="0" y="285" width="100%" height="6" opacity="0.028666666666666667" fill="#222"></rect><rect x="0" y="304" width="100%" height="9" opacity="0.05466666666666667" fill="#ddd"></rect><rect x="0" y="331" width="100%" height="5" opacity="0.02" fill="#ddd"></rect><rect x="0" y="356" width="100%" height="18" opacity="0.13266666666666665" fill="#222"></rect><rect x="0" y="388" width="100%" height="20" opacity="0.15" fill="#222"></rect><rect x="0" y="414" width="100%" height="5" opacity="0.02" fill="#ddd"></rect><rect x="5" y="0" width="5" height="100%" opacity="0.02" fill="#ddd"></rect><rect x="23" y="0" width="17" height="100%" opacity="0.12400000000000001" fill="#ddd"></rect><rect x="54" y="0" width="8" height="100%" opacity="0.046" fill="#222"></rect><rect x="77" y="0" width="17" height="100%" opacity="0.12400000000000001" fill="#ddd"></rect><rect x="100" y="0" width="7" height="100%" opacity="0.03733333333333333" fill="#ddd"></rect><rect x="121" y="0" width="7" height="100%" opacity="0.03733333333333333" fill="#ddd"></rect><rect x="146" y="0" width="6" height="100%" opacity="0.028666666666666667" fill="#222"></rect><rect x="163" y="0" width="9" height="100%" opacity="0.05466666666666667" fill="#ddd"></rect><rect x="184" y="0" width="20" height="100%" opacity="0.15" fill="#222"></rect><rect x="222" y="0" width="14" height="100%" opacity="0.098" fill="#222"></rect><rect x="248" y="0" width="5" height="100%" opacity="0.02" fill="#ddd"></rect><rect x="267" y="0" width="6" height="100%" opacity="0.028666666666666667" fill="#222"></rect><rect x="285" y="0" width="6" height="100%" opacity="0.028666666666666667" fill="#222"></rect><rect x="304" y="0" width="9" height="100%" opacity="0.05466666666666667" fill="#ddd"></rect><rect x="331" y="0" width="5" height="100%" opacity="0.02" fill="#ddd"></rect><rect x="356" y="0" width="18" height="100%" opacity="0.13266666666666665" fill="#222"></rect><rect x="388" y="0" width="20" height="100%" opacity="0.15" fill="#222"></rect><rect x="414" y="0" width="5" height="100%" opacity="0.02" fill="#ddd"></rect></svg>