<svg xmlns="http://www.w3.org/2000/svg" width="180" height="432"><rect x="0" y="0" width="100%" height="100%" fill="rgb(159,48,124)"></rect><path d="M0 86 C 31.499999999999996 0, 58.5 0, 90 86 S 148.5 172, 180 86 S 238.5 0, 270, 86" fill="none" stroke="#ddd" opacity="0.05466666666666667" stroke-width="12px" transform="translate(-45,-129)"></path><path d="M0 86 C 31.499999999999996 0, 58.5 0, 90 86 S 148.5 172, 180 86 S 238.5 0, 270, 86" fill="none" stroke="#ddd" opacity="0.05466666666666667" stroke-width="12px" transform="translate(-45,303)"></path><path d="M0 86 C 31.499999999999996 0, 58.5 0, 90 86 S 148.5 172, 180 86 S 238.5 0, 270, 86" fill="none" stroke="#ddd" opacity="0.12400000000000001" stroke-width="12px" transform="translate(-45,-117)"></path><path d="M0 86 C 31.499999999999996 0, 58.5 0, 90 86 S 148.5 172, 180 86 S 238.5 0, 270, 86" fill="none" stroke="#ddd" opacity="0.12400000000000001" stroke-width="12px" transform="translate(-45,315)"></path><path d="M0 86 C 31.499999999999996 0, 58.5 0, 90 86 S 148.5 172, 180 86 S 238.5 0, 270, 86" fill="none" stroke="#222" opacity="0.06333333333333334" stroke-width="12px" transform="translate(-45,-105)"></path><path d="M0 86 C 31.499999999999996 0, 58.5 0, 90 86 S 148.5 172, 180 86 S 238.5 0, 270, 86" fill="none" stroke="#222" opacity="0.06333333333333334" stroke-width="12px" transform="translate(-45,327)"></path><path d="M0 86 C 31.499999999999996 0, 58.5 0, 90 86 S 148.5 172, 180 86 S 238.5 0, 270, 86" fill="none" stroke="#ddd" opacity="0.12400000000000001" stroke-width="12px" transform="translate(-45,-93)"></path><path d="M0 86 C 31.499999999999996 0, 58.5 0, 90 86 S 148.5 172, 180 86 S 238.5 0, 270, 86" fill="none" stroke="#ddd" opacity="0.12400000000000001" stroke-width="12px" transform="translate(-45,339)"></path><path d="M0 86 C 31.499999999999996 0, 58.5 0, 90 86 S 148.5 172, 180 86 S 238.5 0, 270, 86" fill="none" stroke="#222" opacity="0.06333333333333334" stroke-width="12px" transform="translate(-45,-81)"></path><path d="M0 86 C 31.499999999999996 0, 58.5 0, 90 86 S 148.5 172, 180 86 S 238.5 0, 270, 86" fill="none" stroke="#222" opacity="0.06333333333333334" stroke-width="12px" transform="translate(-45,351)"></path><path d="M0 86 C 31.499999999999996 0, 58.5 0, 90 86 S 148.5 172, 180 86 S 238.5 0, 270, 86" fill="none" stroke="#222" opacity="0.15" stroke-width="12px" transform="translate(-45,-69)"></path><path d="M0 86 C 31.499999999999996 0, 58.5 0, 90 86 S 148.5 172, 180 86 S 238.5 0, 270, 86" fill="none" stroke="#222" opacity="0.15" stroke-width="12px" transform="translate(-45,363)"></path><path d="M0 86 C 31.499999999999996 0, 58.5 0, 90 86 S 148.5 172, 180 86 S 238.5 0, 270, 86" fill="none" stroke="#ddd" opacity="0.12400000000000001" stroke-width="12px" transform="translate(-45,-57)"></path><path d="M0 86 C 31.499999999999996 0, 58.5 0, 90 86 S 148.5 172, 180 86 S 238.5 0, 270, 86" fill="none" stroke="#ddd" opacity="0.12400000000000001" stroke-width="12px" transform="translate(-45,375)"></path><path d="M0 86 C 31.499999999999996 0, 58.5 0, 90 86 S 148.5 172, 180 86 S 238.5 0, 270, 86" fill="none" stroke="#ddd" opacity="0.10666666666666667" stroke-width="12px" transform="translate(-45,-45)"></path><path d="M0 86 C 31.499999999999996 0, 58.5 0, 90 86 S 148.5 172, 180 86 S 238.5 0, 270, 86" fill="none" stroke="#ddd" opacity="0.10666666666666667" stroke-width="12px" transform="translate(-45,387)"></path><path d="M0 86 C 31.499999999999996 0, 58.5 0, 90 86 S 148.5 172, 180 86 S 238.5 0, 270, 86" fill="none" stroke="#ddd" opacity="0.12400000000000001" stroke-width="12px" transform="translate(-45,-33)"></path><path d="M0 86 C 31.499999999999996 0, 58.5 0, 90 86 S 148.5 172, 180 86 S 238.5 0, 270, 86" fill="none" stroke="#ddd" opacity="0.12400000000000001" stroke-width="12px" transform="translate(-45,399)"></path><path d="M0 86 C 31.499999999999996 0, 58.5 0, 90 86 S 148.5 172, 180 86 S 238.5 0, 270, 86" fill="none" stroke="#222" opacity="0.028666666666666667" stroke-width="12px" transform="translate(-45,-21)"></path><path d="M0 86 C 31.499999999999996 0, 58.5 0, 90 86 S 148.5 172, 180 86 S 238.5 0, 270, 86" fill="none" stroke="#222" opacity="0.028666666666666667" stroke-width="12px" transform="translate(-45,411)"></path><path d="M0 86 C 31.499999999999996 0, 58.5 0, 90 86 S 148.5 172, 180 86 S 238.5 0, 270, 86" fill="none" stroke="#ddd" opacity="0.07200000000000001" stroke-width="12px" transform="translate(-45,-9)"></path><path d="M0 86 C 31.499999999999996 0, 58.5 0, 90 86 S 148.5 172, 180 86 S 238.5 0, 270, 86" fill="none" stroke="#ddd" opacity="0.07200000000000001" stroke-width="12px" transform="translate(-45,423)"></path><path d="M0 86 C 31.499999999999996 0, 58.5 0, 90 86 S 148.5 172, 180 86 S 238.5 0, 270, 86" fill="none" stroke="#222" opacity="0.098" stroke-width="12px" transform="translate(-45,3)"></path><path d="M0 86 C 31.499999999999996 0, 58.5 0, 90 86 S 148.5 172, 180 86 S 238.5 0, 270, 86" fill="none" stroke="#222" opacity="0.098" stroke-width="12px" transform="translate(-45,435)"></path><path d="M0 86 C 31.499999999999996 0, 58.5 0, 90 86 S 148.5 172, 180 86 S 238.5 0, 270, 86" fill="none" stroke="#222" opacity="0.046" stroke-width="12px" transform="translate(-45,15)"></path><path d="M0 86 C 31.499999999999996 0, 58.5 0, 90 86 S 148.5 172, 180 86 S 238.5 0, 270, 86" fill="none" stroke="#222" opacity="0.046" stroke-width="12px" transform="translate(-45,447)"></path><path d="M0 86 C 31.499999999999996 0, 58.5 0, 90 86 S 148.5 172, 180 86 S 238.5 0, 270, 86" fill="none" stroke="#ddd" opacity="0.12400000000000001" stroke-width="12px" transform="translate(-45,27)"></path><path d="M0 86 C 31.499999999999996 0, 58.5 0, 90 86 S 148.5 172, 180 86 S 238.5 0, 270, 86" fill="none" stroke="#ddd" opacity="0.12400000000000001" stroke-width="12px" transform="translate(-45,459)"></path><path d="M0 86 C 31.499999999999996 0, 58.5 0, 90 86 S 148.5 172, 180 86 S 238.5 0, 270, 86" fill="none" stroke="#222" opacity="0.028666666666666667" stroke-width="12px" transform="translate(-45,39)"></path><path d="M0 86 C 31.499999999999996 0, 58.5 0, 90 86 S 148.5 172, 180 86 S 238.5 0, 270, 86" fill="none" stroke="#222" opacity="0.028666666666666667" stroke-width="12px" transform="translate(-45,471)"></path><path d="M0 86 C 31.499999999999996 0, 58.5 0, 90 86 S 148.5 172, 180 86 S 238.5 0, 270, 86" fill="none" stroke="#222" opacity="0.13266666666666665" stroke-width="12px" transform="translate(-45,51)"></path><path d="M0 86 C 31.499999999999996 0, 58.5 0, 90 86 S 148.5 172, 180 86 S 238.5 0, 270, 86" fill="none" stroke="#222" opacity="0.13266666666666665" stroke-width="12px" transform="translate(-45,483)"></path><path d="M0 86 C 31.499999999999996 0, 58.5 0, 90 86 S 148.5 172, 180 86 S 238.5 0, 270, 86" fill="none" stroke="#ddd" opacity="0.07200000000000001" stroke-width="12px" transform="translate(-45,63)"></path><path d="M0 86 C 31.499999999999996 0, 58.5 0, 90 86 S 148.5 172, 180 86 S 238.5 0, 270, 86" fill="none" stroke="#ddd" opacity="0.07200000000000001" stroke-width="12px" transform="translate(-45,495)"></path><path d="M0 86 C 31.499999999999996 0, 58.5 0, 90 86 S 148.5 172, 180 86 S 238.5 0, 270, 86" fill="none" stroke="#ddd" opacity="0.12400000000000001" stroke-width="12px" transform="translate(-45,75)"></path><path d="M0 86 C 31.499999999999996 0, 58.5 0, 90 86 S 148.5 172, 180 86 S 238.5 0, 270, 86" fill="none" stroke="#ddd" opacity="0.12400000000000001" stroke-width="12px" transform="translate(-45,507)"></path><path d="M0 86 C 31.499999999999996 0, 58.5 0, 90 86 S 148.5 172, 180 86 S 238.5 0, 270, 86" fill="none" stroke="#222" opacity="0.08066666666666666" stroke-width="12px" transform="translate(-45,87)"></path><path d="M0 86 C 31.499999999999996 0, 58.5 0, 90 86 S 148.5 172, 180 86 S 238.5 0, 270, 86" fill="none" stroke="#222" opacity="0.08066666666666666" stroke-width="12px" transform="translate(-45,519)"></path><path d="M0 86 C 31.499999999999996 0, 58.5 0, 90 86 S 148.5 172, 180 86 S 238.5 0, 270, 86" fill="none" stroke="#ddd" opacity="0.03733333333333333" stroke-width="12px" transform="translate(-45,99)"></path><path d="M0 86 C 31.499999999999996 0, 58.5 0, 90 86 S 148.5 172, 180 86 S 238.5 0, 270, 86" fill="none" stroke="#ddd" opacity="0.03733333333333333" stroke-width="12px" transform="translate(-45,531)"></path><path d="M0 86 C 31.499999999999996 0, 58.5 0, 90 86 S 148.5 172, 180 86 S 238.5 0, 270, 86" fill="none" stroke="#ddd" opacity="0.05466666666666667" stroke-width="12px" transform="translate(-45,111)"></path><path d="M0 86 C 31.499999999999996 0, 58.5 0, 90 86 S 148.5 172, 180 86 S 238.5 0, 270, 86" fill="none" stroke="#ddd" opacity="0.05466666666666667" stroke-width="12px" transform="translate(-45,543)"></path><path d="M0 86 C 31.499999999999996 0, 58.5 0, 90 86 S 148.5 172, 180 86 S 238.5 0, 270, 86" fill="none" stroke="#222" opacity="0.046" stroke-width="12px" transform="translate(-45,123)"></path><path d="M0 86 C 31.499999999999996 0, 58.5 0, 90 86 S 148.5 172, 180 86 S 238.5 0, 270, 86" fill="none" stroke="#222" opacity="0.046" stroke-width="12px" transform="translate(-45,555)"></path><path d="M0 86 C 31.499999999999996 0, 58.5 0, 90 86 S 148.5 172, 180 86 S 238.5 0, 270, 86" fill="none" stroke="#ddd" opacity="0.14133333333333334" stroke-width="12px" transform="translate(-45,135)"></path><path d="M0 86 C 31.499999999999996 0, 58.5 0, 90 86 S 148.5 172, 180 86 S 238.5 0, 270, 86" fill="none" stroke="#ddd" opacity="0.14133333333333334" stroke-width="12px" transform="translate(-45,567)"></path><path d="M0 86 C 31.499999999999996 0, 58.5 0, 90 86 S 148.5 172, 180 86 S 238.5 0, 270, 86" fill="none" stroke="#222" opacity="0.08066666666666666" stroke-width="12px" transform="translate(-45,147)"></path><path d="M0 86 C 31.499999999999996 0, 58.5 0, 90 86 S 148.5 172, 180 86 S 238.5 0, 270, 86" fill="none" stroke="#222" opacity="0.08066666666666666" stroke-width="12px" transform="translate(-45,579)"></path><path d="M0 86 C 31.499999999999996 0, 58.5 0, 90 86 S 148.5 172, 180 86 S 238.5 0, 270, 86" fill="none" stroke="#ddd" opacity="0.07200000000000001" stroke-width="12px" transform="translate(-45,159)"></path><path d="M0 86 C 31.499999999999996 0, 58.5 0, 90 86 S 148.5 172, 180 86 S 238.5 0, 270, 86" fill="none" stroke="#ddd" opacity="0.07200000000000001" stroke-width="12px" transform="translate(-45,591)"></path><path d="M0 86 C 31.499999999999996 0, 58.5 0, 90 86 S 148.5 172, 180 86 S 238.5 0, 270, 86" fill="none" stroke="#ddd" opacity="0.02" stroke-width="12px" transform="translate(-45,171)"></path><path d="M0 86 C 31.499999999999996 0, 58.5 0, 90 86 S 148.5 172, 180 86 S 238.5 0, 270, 86" fill="none" stroke="#ddd" opacity="0.02" stroke-width="12px" transform="translate(-45,603)"></path><path d="M0 86 C 31.499999999999996 0, 58.5 0, 90 86 S 148.5 172, 180 86 S 238.5 0, 270, 86" fill="none" stroke="#ddd" opacity="0.12400000000000001" stroke-width="12px" transform="translate(-45,183)"></path><path d="M0 86 C 31.499999999999996 0, 58.5 0, 90 86 S 148.5 172, 180 86 S 238.5 0, 270, 86" fill="none" stroke="#ddd" opacity="0.12400000000000001" stroke-width="12px" transform="translate(-45,615)"></path><path d="M0 86 C 31.499999999999996 0, 58.5 0, 90 86 S 148.5 172, 180 86 S 238.5 0, 270, 86" fill="none" stroke="#222" opacity="0.11533333333333334" stroke-width="12px" transform="translate(-45,195)"></path><path d="M0 86 C 31.499999999999996 0, 58.5 0, 90 86 S 148.5 172, 180 86 S 238.5 0, 270, 86" fill="none" stroke="#222" opacity="0.11533333333333334" stroke-width="12px" transform="translate(-45,627)"></path><path d="M0 86 C 31.499999999999996 0, 58.5 0, 90 86 S 148.5 172, 180 86 S 238.5 0, 270, 86" fill="none" stroke="#222" opacity="0.046" stroke-width="12px" transform="translate(-45,207)"></path><path d="M0 86 C 31.499999999999996 0, 58.5 0, 90 86 S 148.5 172, 180 86 S 238.5 0, 270, 86" fill="none" stroke="#222" opacity="0.046" stroke-width="12px" transform="translate(-45,639)"></path><path d="M0 86 C 31.499999999999996 0, 58.5 0, 90 86 S 148.5 172, 180 86 S 238.5 0, 270, 86" fill="none" stroke="#222" opacity="0.08066666666666666" stroke-width="12px" transform="translate(-45,219)"></path><path d="M0 86 C 31.499999999999996 0, 58.5 0, 90 86 S 148.5 172, 180 86 S 238.5 0, 270, 86" fill="none" stroke="#222" opacity="0.08066666666666666" stroke-width="12px" transform="translate(-45,651)"></path><path d="M0 86 C 31.499999999999996 0, 58.5 0, 90 86 S 148.5 172, 180 86 S 238.5 0, 270, 86" fill="none" stroke="#ddd" opacity="0.10666666666666667" stroke-width="12px" transform="translate(-45,231)"></path><path d="M0 86 C 31.499999999999996 0, 58.5 0, 90 86 S 148.5 172, 180 86 S 238.5 0, 270, 86" fill="none" stroke="#ddd" opacity="0.10666666666666667" stroke-width="12px" transform="translate(-45,663)"></path><path d="M0 86 C 31.499999999999996 0, 58.5 0, 90 86 S 148.5 172, 180 86 S 238.5 0, 270, 86" fill="none" stroke="#ddd" opacity="0.14133333333333334" stroke-width="12px" transform="translate(-45,243)"></path><path d="M0 86 C 31.499999999999996 0, 58.5 0, 90 86 S 148.5 172, 180 86 S 238.5 0, 270, 86" fill="none" stroke="#ddd" opacity="0.14133333333333334" stroke-width="12px" transform="translate(-45,675)"></path><path d="M0 86 C 31.499999999999996 0, 58.5 0, 90 86 S 148.5 172, 180 86 S 238.5 0, 270, 86" fill="none" stroke="#222" opacity="0.15" stroke-width="12px" transform="translate(-45,255)"></path><path d="M0 86 C 31.499999999999996 0, 58.5 0, 90 86 S 148.5 172, 180 86 S 238.5 0, 270, 86" fill="none" stroke="#222" opacity="0.15" stroke-width="12px" transform="translate(-45,687)"></path><path d="M0 86 C 31.499999999999996 0, 58.5 0, 90 86 S 148.5 172, 180 86 S 238.5 0, 270, 86" fill="none" stroke="#222" opacity="0.08066666666666666" stroke-width="12px" transform="translate(-45,267)"></path><path d="M0 86 C 31.499999999999996 0, 58.5 0, 90 86 S 148.5 172, 180 86 S 238.5 0, 270, 86" fill="none" stroke="#222" opacity="0.08066666666666666" stroke-width="12px" transform="translate(-45,699)"></path><path d="M0 86 C 31.499999999999996 0, 58.5 0, 90 86 S 148.5 172, 180 86 S 238.5 0, 270, 86" fill="none" stroke="#222" opacity="0.06333333333333334" stroke-width="12px" transform="translate(-45,279)"></path><path d="M0 86 C 31.499999999999996 0, 58.5 0, 90 86 S 148.5 172, 180 86 S 238.5 0, 270, 86" fill="none" stroke="#222" opacity="0.06333333333333334" stroke-width="12px" transform="translate(-45,711)"></path><path d="M0 86 C 31.499999999999996 0, 58.5 0, 90 86 S 148.5 172, 180 86 S 238.5 0, 270, 86" fill="none" stroke="#222" opacity="0.028666666666666667" stroke-width="12px" transform="translate(-45,291)"></path><path d="M0 86 C 31.499999999999996 0, 58.5 0, 90 86 S 148.5 172, 180 86 S 238.5 0, 270, 86" fill="none" stroke="#222" opacity="0.028666666666666667" stroke-width="12px" transform="translate(-45,723)"></path></svg>