<svg xmlns="http://www.w3.org/2000/svg" width="472" height="472"><rect x="0" y="0" width="100%" height="100%" fill="rgb(50,106,157)"></rect><rect x="0" y="14" width="100%" height="19" opacity="0.14133333333333334" fill="#ddd"></rect><rect x="0" y="45" width="100%" height="19" opacity="0.14133333333333334" fill="#ddd"></rect><rect x="0" y="81" width="100%" height="11" opacity="0.07200000000000001" fill="#ddd"></rect><rect x="0" y="105" width="100%" height="14" opacity="0.098" fill="#222"></rect><rect x="0" y="125" width="100%" height="7" opacity="0.03733333333333333" fill="#ddd"></rect><rect x="0" y="144" width="100%" height="18" opacity="0.13266666666666665" fill="#222"></rect><rect x="0" y="181" width="100%" height="9" opacity="0.05466666666666667" fill="#ddd"></rect><rect x="0" y="201" width="100%" height="17" opacity="0.12400000000000001" fill="#ddd"></rect><rect x="0" y="223" width="100%" height="15" opacity="0.10666666666666667" fill="#ddd"></rect><rect x="0" y="256" width="100%" height="10" opacity="0.06333333333333334" fill="#222"></rect><rect x="0" y="278" width="100%" height="6" opacity="0.028666666666666667" fill="#222"></rect><rect x="0" y="299" width="100%" height="16" opacity="0.11533333333333334" fill="#222"></rect><rect x="0" y="325" width="100%" height="8" opacity="0.046" fill="#222"></rect><rect x="0" y="350" width="100%" height="18" opacity="0.13266666666666665" fill="#222"></rect><rect x="0" y="383" width="100%" height="16" opacity="0.11533333333333334" fill="#222"></rect><rect x="0" y="419" width="100%" height="11" opacity="0.07200000000000001" fill="#ddd"></rect><rect x="0" y="439" width="100%" height="7" opacity="0.03733333333333333" fill="#ddd"></rect><rect x="0" y="464" width="100%" height="8" opacity="0.046" fill="#222"></rect><rect x="14" y="0" width="19" height="100%" opacity="0.14133333333333334" fill="#ddd"></rect><rect x="45" y="0" width="19" height="100%" opacity="0.14133333333333334" fill="#ddd"></rect><rect x="81" y="0" width="11" height="100%" opacity="0.07200000000000001" fill="#ddd"></rect><rect x="105" y="0" width="14" height="100%" opacity="0.098" fill="#222"></rect><rect x="125" y="0" width="7" height="100%" opacity="0.03733333333333333" fill="#ddd"></rect><rect x="144" y="0" width="18" height="100%" opacity="0.13266666666666665" fill="#222"></rect><rect x="181" y="0" width="9" height="100%" opacity="0.05466666666666667" fill="#ddd"></rect><rect x="201" y="0" width="17" height="100%" opacity="0.12400000000000001" fill="#ddd"></rect><rect x="223" y="0" width="15" height="100%" opacity="0.10666666666666667" fill="#ddd"></rect><rect x="256" y="0" width="10" height="100%" opacity="0.06333333333333334" fill="#222"></rect><rect x="278" y="0" width="6" height="100%" opacity="0.028666666666666667" fill="#222"></rect><rect x="299" y="0" width="16" height="100%" opacity="0.11533333333333334" fill="#222"></rect><rect x="325" y="0" width="8" height="100%" opacity="0.046" fill="#222"></rect><rect x="350" y="0" width="18" height="100%" opacity="0.13266666666666665" fill="#222"></rect><rect x="383" y="0" width="16" height="100%" opacity="0.11533333333333334" fill="#222"></rect><rect x="419" y="0" width="11" height="100%" opacity="0.07200000000000001" fill="#ddd"></rect><rect x="439" y="0" width="7" height="100%" opacity="0.03733333333333333" fill="#ddd"></rect><rect x="464" y="0" width="8" height="100%" opacity="0.046" fill="#222"></rect></svg>