<svg xmlns="http://www.w3.org/2000/svg" width="400" height="400"><rect x="0" y="0" width="100%" height="100%" fill="rgb(67,140,97)"></rect><polyline points="0,0,50,50,0,50,0,0" stroke="#000" stroke-opacity="0.02" fill-opacity="0.15" fill="#222" transform="translate(0,50) scale(1,-1)"></polyline><polyline points="0,0,50,50,0,50,0,0" stroke="#000" stroke-opacity="0.02" fill-opacity="0.15" fill="#222" transform="translate(100,50) scale(-1,-1)"></polyline><polyline points="0,0,50,50,0,50,0,0" stroke="#000" stroke-opacity="0.02" fill-opacity="0.15" fill="#222" transform="translate(0,50) scale(1,1)"></polyline><polyline points="0,0,50,50,0,50,0,0" stroke="#000" stroke-opacity="0.02" fill-opacity="0.15" fill="#222" transform="translate(100,50) scale(-1,1)"></polyline><polyline points="0,0,50,50,0,50,0,0" stroke="#000" stroke-opacity="0.02" fill-opacity="0.12400000000000001" fill="#ddd" transform="translate(150,0) scale(-1,1)"></polyline><polyline points="0,0,50,50,0,50,0,0" stroke="#000" stroke-opacity="0.02" fill-opacity="0.12400000000000001" fill="#ddd" transform="translate(150,100) scale(1,-1)"></polyline><polyline points="0,0,50,50,0,50,0,0" stroke="#000" stroke-opacity="0.02" fill-opacity="0.02" fill="#ddd" transform="translate(150,100) scale(-1,-1)"></polyline><polyline points="0,0,50,50,0,50,0,0" stroke="#000" stroke-opacity="0.02" fill-opacity="0.02" fill="#ddd" transform="translate(150,0) scale(1,1)"></polyline><polyline points="0,0,50,50,0,50,0,0" stroke="#000" stroke-opacity="0.02" fill-opacity="0.02" fill="#ddd" transform="translate(200,50) scale(1,-1)"></polyline><polyline points="0,0,50,50,0,50,0,0" stroke="#000" stroke-opacity="0.02" fill-opacity="0.02" fill="#ddd" transform="translate(300,50) scale(-1,-1)"></polyline><polyline points="0,0,50,50,0,50,0,0" stroke="#000" stroke-opacity="0.02" fill-opacity="0.02" fill="#ddd" transform="translate(200,50) scale(1,1)"></polyline><polyline points="0,0,50,50,0,50,0,0" stroke="#000" stroke-opacity="0.02" fill-opacity="0.02" fill="#ddd" transform="translate(300,50) scale(-1,1)"></polyline><polyline points="0,0,50,50,0,50,0,0" stroke="#000" stroke-opacity="0.02" fill-opacity="0.028666666666666667" fill="#222" transform="translate(350,0) scale(-1,1)"></polyline><polyline points="0,0,50,50,0,50,0,0" stroke="#000" stroke-opacity="0.02" fill-opacity="0.028666666666666667" fill="#222" transform="translate(350,100) scale(1,-1)"></polyline><polyline points="0,0,50,50,0,50,0,0" stroke="#000" stroke-opacity="0.02" fill-opacity="0.046" fill="#222" transform="translate(350,100) scale(-1,-1)"></polyline><polyline points="0,0,50,50,0,50,0,0" stroke="#000" stroke-opacity="0.02" fill-opacity="0.046" fill="#222" transform="translate(350,0) scale(1,1)"></polyline><polyline points="0,0,50,50,0,50,0,0" stroke="#000" stroke-opacity="0.02" fill-opacity="0.046" fill="#222" transform="translate(50,100) scale(-1,1)"></polyline><polyline points="0,0,50,50,0,50,0,0" stroke="#000" stroke-opacity="0.02" fill-opacity="0.046" fill="#222" transform="translate(50,200) scale(1,-1)"></polyline><polyline points="0,0,50,50,0,50,0,0" stroke="#000" stroke-opacity="0.02" fill-opacity="0.098" fill="#222" transform="translate(50,200) scale(-1,-1)"></polyline><polyline points="0,0,50,50,0,50,0,0" stroke="#000" stroke-opacity="0.02" fill-opacity="0.098" fill="#222" transform="translate(50,100) scale(1,1)"></polyline><polyline points="0,0,50,50,0,50,0,0" stroke="#000" stroke-opacity="0.02" fill-opacity="0.098" fill="#222" transform="translate(100,150) scale(1,-1)"></polyline><polyline points="0,0,50,50,0,50,0,0" stroke="#000" stroke-opacity="0.02" fill-opacity="0.098" fill="#222" transform="translate(200,150) scale(-1,-1)"></polyline><polyline points="0,0,50,50,0,50,0,0" stroke="#000" stroke-opacity="0.02" fill-opacity="0.098" fill="#222" transform="translate(100,150) scale(1,1)"></polyline><polyline points="0,0,50,50,0,50,0,0" stroke="#000" stroke-opacity="0.02" fill-opacity="0.098" fill="#222" transform="translate(200,150) scale(-1,1)"></polyline><polyline points="0,0,50,50,0,50,0,0" stroke="#000" stroke-opacity="0.02" fill-opacity="0.11533333333333334" fill="#222" transform="translate(250,100) scale(-1,1)"></polyline><polyline points="0,0,50,50,0,50,0,0" stroke="#000" stroke-opacity="0.02" fill-opacity="0.11533333333333334" fill="#222" transform="translate(250,200) scale(1,-1)"></polyline><polyline points="0,0,50,50,0,50,0,0" stroke="#000" stroke-opacity="0.02" fill-opacity="0.07200000000000001" fill="#ddd" transform="translate(250,200) scale(-1,-1)"></polyline><polyline points="0,0,50,50,0,50,0,0" stroke="#000" stroke-opacity="0.02" fill-opacity="0.07200000000000001" fill="#ddd" transform="translate(250,100) scale(1,1)"></polyline><polyline points="0,0,50,50,0,50,0,0" stroke="#000" stroke-opacity="0.02" fill-opacity="0.07200000000000001" fill="#ddd" transform="translate(300,150) scale(1,-1)"></polyline><polyline points="0,0,50,50,0,50,0,0" stroke="#000" stroke-opacity="0.02" fill-opacity="0.07200000000000001" fill="#ddd" transform="translate(400,150) scale(-1,-1)"></polyline><polyline points="0,0,50,50,0,50,0,0" stroke="#000" stroke-opacity="0.02" fill-opacity="0.07200000000000001" fill="#ddd" transform="translate(300,150) scale(1,1)"></polyline><polyline points="0,0,50,50,0,50,0,0" stroke="#000" stroke-opacity="0.02" fill-opacity="0.07200000000000001" fill="#ddd" transform="translate(400,150) scale(-1,1)"></polyline><polyline points="0,0,50,50,0,50,0,0" stroke="#000" stroke-opacity="0.02" fill-opacity="0.11533333333333334" fill="#222" transform="translate(0,250) scale(1,-1)"></polyline><polyline points="0,0,50,50,0,50,0,0" stroke="#000" stroke-opacity="0.02" fill-opacity="0.11533333333333334" fill="#222" transform="translate(100,250) scale(-1,-1)"></polyline><polyline points="0,0,50,50,0,50,0,0" stroke="#000" stroke-opacity="0.02" fill-opacity="0.11533333333333334" fill="#222" transform="translate(0,250) scale(1,1)"></polyline><polyline points="0,0,50,50,0,50,0,0" stroke="#000" stroke-opacity="0.02" fill-opacity="0.11533333333333334" fill="#222" transform="translate(100,250) scale(-1,1)"></polyline><polyline points="0,0,50,50,0,50,0,0" stroke="#000" stroke-opacity="0.02" fill-opacity="0.098" fill="#222" transform="translate(150,200) scale(-1,1)"></polyline><polyline points="0,0,50,50,0,50,0,0" stroke="#000" stroke-opacity="0.02" fill-opacity="0.098" fill="#222" transform="translate(150,300) scale(1,-1)"></polyline><polyline points="0,0,50,50,0,50,0,0" stroke="#000" stroke-opacity="0.02" fill-opacity="0.02" fill="#ddd" transform="translate(150,300) scale(-1,-1)"></polyline><polyline points="0,0,50,50,0,50,0,0" stroke="#000" stroke-opacity="0.02" fill-opacity="0.02" fill="#ddd" transform="translate(150,200) scale(1,1)"></polyline><polyline points="0,0,50,50,0,50,0,0" stroke="#000" stroke-opacity="0.02" fill-opacity="0.02" fill="#ddd" transform="translate(200,250) scale(1,-1)"></polyline><polyline points="0,0,50,50,0,50,0,0" stroke="#000" stroke-opacity="0.02" fill-opacity="0.02" fill="#ddd" transform="translate(300,250) scale(-1,-1)"></polyline><polyline points="0,0,50,50,0,50,0,0" stroke="#000" stroke-opacity="0.02" fill-opacity="0.02" fill="#ddd" transform="translate(200,250) scale(1,1)"></polyline><polyline points="0,0,50,50,0,50,0,0" stroke="#000" stroke-opacity="0.02" fill-opacity="0.02" fill="#ddd" transform="translate(300,250) scale(-1,1)"></polyline><polyline points="0,0,50,50,0,50,0,0" stroke="#000" stroke-opacity="0.02" fill-opacity="0.14133333333333334" fill="#ddd" transform="translate(350,200) scale(-1,1)"></polyline><polyline points="0,0,50,50,0,50,0,0" stroke="#000" stroke-opacity="0.02" fill-opacity="0.14133333333333334" fill="#ddd" transform="translate(350,300) scale(1,-1)"></polyline><polyline points="0,0,50,50,0,50,0,0" stroke="#000" stroke-opacity="0.02" fill-opacity="0.02" fill="#ddd" transform="translate(350,300) scale(-1,-1)"></polyline><polyline points="0,0,50,50,0,50,0,0" stroke="#000" stroke-opacity="0.02" fill-opacity="0.02" fill="#ddd" transform="translate(350,200) scale(1,1)"></polyline><polyline points="0,0,50,50,0,50,0,0" stroke="#000" stroke-opacity="0.02" fill-opacity="0.02" fill="#ddd" transform="translate(50,300) scale(-1,1)"></polyline><polyline points="0,0,50,50,0,50,0,0" stroke="#000" stroke-opacity="0.02" fill-opacity="0.02" fill="#ddd" transform="translate(50,400) scale(1,-1)"></polyline><polyline points="0,0,50,50,0,50,0,0" stroke="#000" stroke-opacity="0.02" fill-opacity="0.08066666666666666" fill="#222" transform="translate(50,400) scale(-1,-1)"></polyline><polyline points="0,0,50,50,0,50,0,0" stroke="#000" stroke-opacity="0.02" fill-opacity="0.08066666666666666" fill="#222" transform="translate(50,300) scale(1,1)"></polyline><polyline points="0,0,50,50,0,50,0,0" stroke="#000" stroke-opacity="0.02" fill-opacity="0.08066666666666666" fill="#222" transform="translate(100,350) scale(1,-1)"></polyline><polyline points="0,0,50,50,0,50,0,0" stroke="#000" stroke-opacity="0.02" fill-opacity="0.08066666666666666" fill="#222" transform="translate(200,350) scale(-1,-1)"></polyline><polyline points="0,0,50,50,0,50,0,0" stroke="#000" stroke-opacity="0.02" fill-opacity="0.08066666666666666" fill="#222" transform="translate(100,350) scale(1,1)"></polyline><polyline points="0,0,50,50,0,50,0,0" stroke="#000" stroke-opacity="0.02" fill-opacity="0.08066666666666666" fill="#222" transform="translate(200,350) scale(-1,1)"></polyline><polyline points="0,0,50,50,0,50,0,0" stroke="#000" stroke-opacity="0.02" fill-opacity="0.098" fill="#222" transform="translate(250,300) scale(-1,1)"></polyline><polyline points="0,0,50,50,0,50,0,0" stroke="#000" stroke-opacity="0.02" fill-opacity="0.098" fill="#222" transform="translate(250,400) scale(1,-1)"></polyline><polyline points="0,0,50,50,0,50,0,0" stroke="#000" stroke-opacity="0.02" fill-opacity="0.098" fill="#222" transform="translate(250,400) scale(-1,-1)"></polyline><polyline points="0,0,50,50,0,50,0,0" stroke="#000" stroke-opacity="0.02" fill-opacity="0.098" fill="#222" transform="translate(250,300) scale(1,1)"></polyline><polyline points="0,0,50,50,0,50,0,0" stroke="#000" stroke-opacity="0.02" fill-opacity="0.098" fill="#222" transform="translate(300,350) scale(1,-1)"></polyline><polyline points="0,0,50,50,0,50,0,0" stroke="#000" stroke-opacity="0.02" fill-opacity="0.098" fill="#222" transform="translate(400,350) scale(-1,-1)"></polyline><polyline points="0,0,50,50,0,50,0,0" stroke="#000" stroke-opacity="0.02" fill-opacity="0.098" fill="#222" transform="translate(300,350) scale(1,1)"></polyline><polyline points="0,0,50,50,0,50,0,0" stroke="#000" stroke-opacity="0.02" fill-opacity="0.098" fill="#222" transform="translate(400,350) scale(-1,1)"></polyline></svg>