<svg xmlns="http://www.w3.org/2000/svg" width="220" height="220"><rect x="0" y="0" width="100%" height="100%" fill="rgb(56,151,80)"></rect><polyline points="12.100000000000001,0,24.56666666666667,0,36.66666666666667,12.100000000000001,36.66666666666667,24.56666666666667,24.56666666666667,36.66666666666667,12.100000000000001,36.66666666666667,0,24.56666666666667,0,12.100000000000001,12.100000000000001,0" fill="#ddd" fill-opacity="0.08933333333333333" stroke="#000" stroke-opacity="0.02" transform="translate(0,0)"></polyline><polyline points="12.100000000000001,0,24.56666666666667,0,36.66666666666667,12.100000000000001,36.66666666666667,24.56666666666667,24.56666666666667,36.66666666666667,12.100000000000001,36.66666666666667,0,24.56666666666667,0,12.100000000000001,12.100000000000001,0" fill="#ddd" fill-opacity="0.03733333333333333" stroke="#000" stroke-opacity="0.02" transform="translate(36.66666666666667,0)"></polyline><polyline points="12.100000000000001,0,24.56666666666667,0,36.66666666666667,12.100000000000001,36.66666666666667,24.56666666666667,24.56666666666667,36.66666666666667,12.100000000000001,36.66666666666667,0,24.56666666666667,0,12.100000000000001,12.100000000000001,0" fill="#ddd" fill-opacity="0.03733333333333333" stroke="#000" stroke-opacity="0.02" transform="translate(73.33333333333334,0)"></polyline><polyline points="12.100000000000001,0,24.56666666666667,0,36.66666666666667,12.100000000000001,36.66666666666667,24.56666666666667,24.56666666666667,36.66666666666667,12.100000000000001,36.66666666666667,0,24.56666666666667,0,12.100000000000001,12.100000000000001,0" fill="#ddd" fill-opacity="0.10666666666666667" stroke="#000" stroke-opacity="0.02" transform="translate(110.00000000000001,0)"></polyline><polyline points="12.100000000000001,0,24.56666666666667,0,36.66666666666667,12.100000000000001,36.66666666666667,24.56666666666667,24.56666666666667,36.66666666666667,12.100000000000001,36.66666666666667,0,24.56666666666667,0,12.100000000000001,12.100000000000001,0" fill="#222" fill-opacity="0.098" stroke="#000" stroke-opacity="0.02" transform="translate(146.66666666666669,0)"></polyline><polyline points="12.100000000000001,0,24.56666666666667,0,36.66666666666667,12.100000000000001,36.66666666666667,24.56666666666667,24.56666666666667,36.66666666666667,12.100000000000001,36.66666666666667,0,24.56666666666667,0,12.100000000000001,12.100000000000001,0" fill="#222" fill-opacity="0.06333333333333334" stroke="#000" stroke-opacity="0.02" transform="translate(183.33333333333337,0)"></polyline><polyline points="12.100000000000001,0,24.56666666666667,0,36.66666666666667,12.100000000000001,36.66666666666667,24.56666666666667,24.56666666666667,36.66666666666667,12.100000000000001,36.66666666666667,0,24.56666666666667,0,12.100000000000001,12.100000000000001,0" fill="#222" fill-opacity="0.098" stroke="#000" stroke-opacity="0.02" transform="translate(0,36.66666666666667)"></polyline><polyline points="12.100000000000001,0,24.56666666666667,0,36.66666666666667,12.100000000000001,36.66666666666667,24.56666666666667,24.56666666666667,36.66666666666667,12.100000000000001,36.66666666666667,0,24.56666666666667,0,12.100000000000001,12.100000000000001,0" fill="#ddd" fill-opacity="0.12400000000000001" stroke="#000" stroke-opacity="0.02" transform="translate(36.66666666666667,36.66666666666667)"></polyline><polyline points="12.100000000000001,0,24.56666666666667,0,36.66666666666667,12.100000000000001,36.66666666666667,24.56666666666667,24.56666666666667,36.66666666666667,12.100000000000001,36.66666666666667,0,24.56666666666667,0,12.100000000000001,12.100000000000001,0" fill="#ddd" fill-opacity="0.07200000000000001" stroke="#000" stroke-opacity="0.02" transform="translate(73.33333333333334,36.66666666666667)"></polyline><polyline points="12.100000000000001,0,24.56666666666667,0,36.66666666666667,12.100000000000001,36.66666666666667,24.56666666666667,24.56666666666667,36.66666666666667,12.100000000000001,36.66666666666667,0,24.56666666666667,0,12.100000000000001,12.100000000000001,0" fill="#ddd" fill-opacity="0.10666666666666667" stroke="#000" stroke-opacity="0.02" transform="translate(110.00000000000001,36.66666666666667)"></polyline><polyline points="12.100000000000001,0,24.56666666666667,0,36.66666666666667,12.100000000000001,36.66666666666667,24.56666666666667,24.56666666666667,36.66666666666667,12.100000000000001,36.66666666666667,0,24.56666666666667,0,12.100000000000001,12.100000000000001,0" fill="#ddd" fill-opacity="0.08933333333333333" stroke="#000" stroke-opacity="0.02" transform="translate(146.66666666666669,36.66666666666667)"></polyline><polyline points="12.100000000000001,0,24.56666666666667,0,36.66666666666667,12.100000000000001,36.66666666666667,24.56666666666667,24.56666666666667,36.66666666666667,12.100000000000001,36.66666666666667,0,24.56666666666667,0,12.100000000000001,12.100000000000001,0" fill="#222" fill-opacity="0.06333333333333334" stroke="#000" stroke-opacity="0.02" transform="translate(183.33333333333337,36.66666666666667)"></polyline><polyline points="12.100000000000001,0,24.56666666666667,0,36.66666666666667,12.100000000000001,36.66666666666667,24.56666666666667,24.56666666666667,36.66666666666667,12.100000000000001,36.66666666666667,0,24.56666666666667,0,12.100000000000001,12.100000000000001,0" fill="#222" fill-opacity="0.15" stroke="#000" stroke-opacity="0.02" transform="translate(0,73.33333333333334)"></polyline><polyline points="12.100000000000001,0,24.56666666666667,0,36.66666666666667,12.100000000000001,36.66666666666667,24.56666666666667,24.56666666666667,36.66666666666667,12.100000000000001,36.66666666666667,0,24.56666666666667,0,12.100000000000001,12.100000000000001,0" fill="#222" fill-opacity="0.11533333333333334" stroke="#000" stroke-opacity="0.02" transform="translate(36.66666666666667,73.33333333333334)"></polyline><polyline points="12.100000000000001,0,24.56666666666667,0,36.66666666666667,12.100000000000001,36.66666666666667,24.56666666666667,24.56666666666667,36.66666666666667,12.100000000000001,36.66666666666667,0,24.56666666666667,0,12.100000000000001,12.100000000000001,0" fill="#ddd" fill-opacity="0.10666666666666667" stroke="#000" stroke-opacity="0.02" transform="translate(73.33333333333334,73.33333333333334)"></polyline><polyline points="12.100000000000001,0,24.56666666666667,0,36.66666666666667,12.100000000000001,36.66666666666667,24.56666666666667,24.56666666666667,36.66666666666667,12.100000000000001,36.66666666666667,0,24.56666666666667,0,12.100000000000001,12.100000000000001,0" fill="#ddd" fill-opacity="0.02" stroke="#000" stroke-opacity="0.02" transform="translate(110.00000000000001,73.33333333333334)"></polyline><polyline points="12.100000000000001,0,24.56666666666667,0,36.66666666666667,12.100000000000001,36.66666666666667,24.56666666666667,24.56666666666667,36.66666666666667,12.100000000000001,36.66666666666667,0,24.56666666666667,0,12.100000000000001,12.100000000000001,0" fill="#222" fill-opacity="0.046" stroke="#000" stroke-opacity="0.02" transform="translate(146.66666666666669,73.33333333333334)"></polyline><polyline points="12.100000000000001,0,24.56666666666667,0,36.66666666666667,12.100000000000001,36.66666666666667,24.56666666666667,24.56666666666667,36.66666666666667,12.100000000000001,36.66666666666667,0,24.56666666666667,0,12.100000000000001,12.100000000000001,0" fill="#ddd" fill-opacity="0.05466666666666667" stroke="#000" stroke-opacity="0.02" transform="translate(183.33333333333337,73.33333333333334)"></polyline><polyline points="12.100000000000001,0,24.56666666666667,0,36.66666666666667,12.100000000000001,36.66666666666667,24.56666666666667,24.56666666666667,36.66666666666667,12.100000000000001,36.66666666666667,0,24.56666666666667,0,12.100000000000001,12.100000000000001,0" fill="#222" fill-opacity="0.046" stroke="#000" stroke-opacity="0.02" transform="translate(0,110.00000000000001)"></polyline><polyline points="12.100000000000001,0,24.56666666666667,0,36.66666666666667,12.100000000000001,36.66666666666667,24.56666666666667,24.56666666666667,36.66666666666667,12.100000000000001,36.66666666666667,0,24.56666666666667,0,12.100000000000001,12.100000000000001,0" fill="#222" fill-opacity="0.028666666666666667" stroke="#000" stroke-opacity="0.02" transform="translate(36.66666666666667,110.00000000000001)"></polyline><polyline points="12.100000000000001,0,24.56666666666667,0,36.66666666666667,12.100000000000001,36.66666666666667,24.56666666666667,24.56666666666667,36.66666666666667,12.100000000000001,36.66666666666667,0,24.56666666666667,0,12.100000000000001,12.100000000000001,0" fill="#ddd" fill-opacity="0.02" stroke="#000" stroke-opacity="0.02" transform="translate(73.33333333333334,110.00000000000001)"></polyline><polyline points="12.100000000000001,0,24.56666666666667,0,36.66666666666667,12.100000000000001,36.66666666666667,24.56666666666667,24.56666666666667,36.66666666666667,12.100000000000001,36.66666666666667,0,24.56666666666667,0,12.100000000000001,12.100000000000001,0" fill="#ddd" fill-opacity="0.08933333333333333" stroke="#000" stroke-opacity="0.02" transform="translate(110.00000000000001,110.00000000000001)"></polyline><polyline points="12.100000000000001,0,24.56666666666667,0,36.66666666666667,12.100000000000001,36.66666666666667,24.56666666666667,24.56666666666667,36.66666666666667,12.100000000000001,36.66666666666667,0,24.56666666666667,0,12.100000000000001,12.100000000000001,0" fill="#222" fill-opacity="0.13266666666666665" stroke="#000" stroke-opacity="0.02" transform="translate(146.66666666666669,110.00000000000001)"></polyline><polyline points="12.100000000000001,0,24.56666666666667,0,36.66666666666667,12.100000000000001,36.66666666666667,24.56666666666667,24.56666666666667,36.66666666666667,12.100000000000001,36.66666666666667,0,24.56666666666667,0,12.100000000000001,12.100000000000001,0" fill="#222" fill-opacity="0.13266666666666665" stroke="#000" stroke-opacity="0.02" transform="translate(183.33333333333337,110.00000000000001)"></polyline><polyline points="12.100000000000001,0,24.56666666666667,0,36.66666666666667,12.100000000000001,36.66666666666667,24.56666666666667,24.56666666666667,36.66666666666667,12.100000000000001,36.66666666666667,0,24.56666666666667,0,12.100000000000001,12.100000000000001,0" fill="#ddd" fill-opacity="0.12400000000000001" stroke="#000" stroke-opacity="0.02" transform="translate(0,146.66666666666669)"></polyline><polyline points="12.100000000000001,0,24.56666666666667,0,36.66666666666667,12.100000000000001,36.66666666666667,24.56666666666667,24.56666666666667,36.66666666666667,12.100000000000001,36.66666666666667,0,24.56666666666667,0,12.100000000000001,12.100000000000001,0" fill="#222" fill-opacity="0.06333333333333334" stroke="#000" stroke-opacity="0.02" transform="translate(36.66666666666667,146.66666666666669)"></polyline><polyline points="12.100000000000001,0,24.56666666666667,0,36.66666666666667,12.100000000000001,36.66666666666667,24.56666666666667,24.56666666666667,36.66666666666667,12.100000000000001,36.66666666666667,0,24.56666666666667,0,12.100000000000001,12.100000000000001,0" fill="#ddd" fill-opacity="0.14133333333333334" stroke="#000" stroke-opacity="0.02" transform="translate(73.33333333333334,146.66666666666669)"></polyline><polyline points="12.100000000000001,0,24.56666666666667,0,36.66666666666667,12.100000000000001,36.66666666666667,24.56666666666667,24.56666666666667,36.66666666666667,12.100000000000001,36.66666666666667,0,24.56666666666667,0,12.100000000000001,12.100000000000001,0" fill="#222" fill-opacity="0.046" stroke="#000" stroke-opacity="0.02" transform="translate(110.00000000000001,146.66666666666669)"></polyline><polyline points="12.100000000000001,0,24.56666666666667,0,36.66666666666667,12.100000000000001,36.66666666666667,24.56666666666667,24.56666666666667,36.66666666666667,12.100000000000001,36.66666666666667,0,24.56666666666667,0,12.100000000000001,12.100000000000001,0" fill="#ddd" fill-opacity="0.08933333333333333" stroke="#000" stroke-opacity="0.02" transform="translate(146.66666666666669,146.66666666666669)"></polyline><polyline points="12.100000000000001,0,24.56666666666667,0,36.66666666666667,12.100000000000001,36.66666666666667,24.56666666666667,24.56666666666667,36.66666666666667,12.100000000000001,36.66666666666667,0,24.56666666666667,0,12.100000000000001,12.100000000000001,0" fill="#ddd" fill-opacity="0.05466666666666667" stroke="#000" stroke-opacity="0.02" transform="translate(183.33333333333337,146.66666666666669)"></polyline><polyline points="12.100000000000001,0,24.56666666666667,0,36.66666666666667,12.100000000000001,36.66666666666667,24.56666666666667,24.56666666666667,36.66666666666667,12.100000000000001,36.66666666666667,0,24.56666666666667,0,12.100000000000001,12.100000000000001,0" fill="#ddd" fill-opacity="0.05466666666666667" stroke="#000" stroke-opacity="0.02" transform="translate(0,183.33333333333337)"></polyline><polyline points="12.100000000000001,0,24.56666666666667,0,36.66666666666667,12.100000000000001,36.66666666666667,24.56666666666667,24.56666666666667,36.66666666666667,12.100000000000001,36.66666666666667,0,24.56666666666667,0,12.100000000000001,12.100000000000001,0" fill="#ddd" fill-opacity="0.07200000000000001" stroke="#000" stroke-opacity="0.02" transform="translate(36.66666666666667,183.33333333333337)"></polyline><polyline points="12.100000000000001,0,24.56666666666667,0,36.66666666666667,12.100000000000001,36.66666666666667,24.56666666666667,24.56666666666667,36.66666666666667,12.100000000000001,36.66666666666667,0,24.56666666666667,0,12.100000000000001,12.100000000000001,0" fill="#222" fill-opacity="0.13266666666666665" stroke="#000" stroke-opacity="0.02" transform="translate(73.33333333333334,183.33333333333337)"></polyline><polyline points="12.100000000000001,0,24.56666666666667,0,36.66666666666667,12.100000000000001,36.66666666666667,24.56666666666667,24.56666666666667,36.66666666666667,12.100000000000001,36.66666666666667,0,24.56666666666667,0,12.100000000000001,12.100000000000001,0" fill="#222" fill-opacity="0.11533333333333334" stroke="#000" stroke-opacity="0.02" transform="translate(110.00000000000001,183.33333333333337)"></polyline><polyline points="12.100000000000001,0,24.56666666666667,0,36.66666666666667,12.100000000000001,36.66666666666667,24.56666666666667,24.56666666666667,36.66666666666667,12.100000000000001,36.66666666666667,0,24.56666666666667,0,12.100000000000001,12.100000000000001,0" fill="#222" fill-opacity="0.15" stroke="#000" stroke-opacity="0.02" transform="translate(146.66666666666669,183.33333333333337)"></polyline><polyline points="12.100000000000001,0,24.56666666666667,0,36.66666666666667,12.100000000000001,36.66666666666667,24.56666666666667,24.56666666666667,36.66666666666667,12.100000000000001,36.66666666666667,0,24.56666666666667,0,12.100000000000001,12.100000000000001,0" fill="#222" fill-opacity="0.11533333333333334" stroke="#000" stroke-opacity="0.02" transform="translate(183.33333333333337,183.33333333333337)"></polyline></svg>