<svg xmlns="http://www.w3.org/2000/svg" width="156" height="156"><rect x="0" y="0" width="100%" height="100%" fill="rgb(58,149,129)"></rect><g fill="#222" stroke="#000" stroke-opacity="0.02" fill-opacity="0.046" transform="translate(-13,-19.5)"><rect x="13" y="0" width="13" height="39"></rect><rect x="0" y="13" width="39" height="13"></rect></g><g fill="#222" stroke="#000" stroke-opacity="0.02" fill-opacity="0.046" transform="translate(143,-19.5)"><rect x="13" y="0" width="13" height="39"></rect><rect x="0" y="13" width="39" height="13"></rect></g><g fill="#222" stroke="#000" stroke-opacity="0.02" fill-opacity="0.046" transform="translate(-13,136.5)"><rect x="13" y="0" width="13" height="39"></rect><rect x="0" y="13" width="39" height="13"></rect></g><g fill="#222" stroke="#000" stroke-opacity="0.02" fill-opacity="0.046" transform="translate(143,136.5)"><rect x="13" y="0" width="13" height="39"></rect><rect x="0" y="13" width="39" height="13"></rect></g><g fill="#ddd" stroke="#000" stroke-opacity="0.02" fill-opacity="0.14133333333333334" transform="translate(13,-19.5)"><rect x="13" y="0" width="13" height="39"></rect><rect x="0" y="13" width="39" height="13"></rect></g><g fill="#ddd" stroke="#000" stroke-opacity="0.02" fill-opacity="0.14133333333333334" transform="translate(13,136.5)"><rect x="13" y="0" width="13" height="39"></rect><rect x="0" y="13" width="39" height="13"></rect></g><g fill="#ddd" stroke="#000" stroke-opacity="0.02" fill-opacity="0.03733333333333333" transform="translate(39,-19.5)"><rect x="13" y="0" width="13" height="39"></rect><rect x="0" y="13" width="39" height="13"></rect></g><g fill="#ddd" stroke="#000" stroke-opacity="0.02" fill-opacity="0.03733333333333333" transform="translate(39,136.5)"><rect x="13" y="0" width="13" height="39"></rect><rect x="0" y="13" width="39" height="13"></rect></g><g fill="#ddd" stroke="#000" stroke-opacity="0.02" fill-opacity="0.10666666666666667" transform="translate(65,-19.5)"><rect x="13" y="0" width="13" height="39"></rect><rect x="0" y="13" width="39" height="13"></rect></g><g fill="#ddd" stroke="#000" stroke-opacity="0.02" fill-opacity="0.10666666666666667" transform="translate(65,136.5)"><rect x="13" y="0" width="13" height="39"></rect><rect x="0" y="13" width="39" height="13"></rect></g><g fill="#222" stroke="#000" stroke-opacity="0.02" fill-opacity="0.028666666666666667" transform="translate(91,-19.5)"><rect x="13" y="0" width="13" height="39"></rect><rect x="0" y="13" width="39" height="13"></rect></g><g fill="#222" stroke="#000" stroke-opacity="0.02" fill-opacity="0.028666666666666667" transform="translate(91,136.5)"><rect x="13" y="0" width="13" height="39"></rect><rect x="0" y="13" width="39" height="13"></rect></g><g fill="#ddd" stroke="#000" stroke-opacity="0.02" fill-opacity="0.02" transform="translate(117,-19.5)"><rect x="13" y="0" width="13" height="39"></rect><rect x="0" y="13" width="39" height="13"></rect></g><g fill="#ddd" stroke="#000" stroke-opacity="0.02" fill-opacity="0.02" transform="translate(117,136.5)"><rect x="13" y="0" width="13" height="39"></rect><rect x="0" y="13" width="39" height="13"></rect></g><g fill="#222" stroke="#000" stroke-opacity="0.02" fill-opacity="0.13266666666666665" transform="translate(0,6.5)"><rect x="13" y="0" width="13" height="39"></rect><rect x="0" y="13" width="39" height="13"></rect></g><g fill="#222" stroke="#000" stroke-opacity="0.02" fill-opacity="0.13266666666666665" transform="translate(156,6.5)"><rect x="13" y="0" width="13" height="39"></rect><rect x="0" y="13" width="39" height="13"></rect></g><g fill="#222" stroke="#000" stroke-opacity="0.02" fill-opacity="0.028666666666666667" transform="translate(26,6.5)"><rect x="13" y="0" width="13" height="39"></rect><rect x="0" y="13" width="39" height="13"></rect></g><g fill="#222" stroke="#000" stroke-opacity="0.02" fill-opacity="0.08066666666666666" transform="translate(52,6.5)"><rect x="13" y="0" width="13" height="39"></rect><rect x="0" y="13" width="39" height="13"></rect></g><g fill="#ddd" stroke="#000" stroke-opacity="0.02" fill-opacity="0.05466666666666667" transform="translate(78,6.5)"><rect x="13" y="0" width="13" height="39"></rect><rect x="0" y="13" width="39" height="13"></rect></g><g fill="#222" stroke="#000" stroke-opacity="0.02" fill-opacity="0.08066666666666666" transform="translate(104,6.5)"><rect x="13" y="0" width="13" height="39"></rect><rect x="0" y="13" width="39" height="13"></rect></g><g fill="#ddd" stroke="#000" stroke-opacity="0.02" fill-opacity="0.14133333333333334" transform="translate(130,6.5)"><rect x="13" y="0" width="13" height="39"></rect><rect x="0" y="13" width="39" height="13"></rect></g><g fill="#ddd" stroke="#000" stroke-opacity="0.02" fill-opacity="0.12400000000000001" transform="translate(-13,32.5)"><rect x="13" y="0" width="13" height="39"></rect><rect x="0" y="13" width="39" height="13"></rect></g><g fill="#ddd" stroke="#000" stroke-opacity="0.02" fill-opacity="0.12400000000000001" transform="translate(143,32.5)"><rect x="13" y="0" width="13" height="39"></rect><rect x="0" y="13" width="39" height="13"></rect></g><g fill="#222" stroke="#000" stroke-opacity="0.02" fill-opacity="0.11533333333333334" transform="translate(13,32.5)"><rect x="13" y="0" width="13" height="39"></rect><rect x="0" y="13" width="39" height="13"></rect></g><g fill="#ddd" stroke="#000" stroke-opacity="0.02" fill-opacity="0.08933333333333333" transform="translate(39,32.5)"><rect x="13" y="0" width="13" height="39"></rect><rect x="0" y="13" width="39" height="13"></rect></g><g fill="#222" stroke="#000" stroke-opacity="0.02" fill-opacity="0.098" transform="translate(65,32.5)"><rect x="13" y="0" width="13" height="39"></rect><rect x="0" y="13" width="39" height="13"></rect></g><g fill="#222" stroke="#000" stroke-opacity="0.02" fill-opacity="0.13266666666666665" transform="translate(91,32.5)"><rect x="13" y="0" width="13" height="39"></rect><rect x="0" y="13" width="39" height="13"></rect></g><g fill="#ddd" stroke="#000" stroke-opacity="0.02" fill-opacity="0.03733333333333333" transform="translate(117,32.5)"><rect x="13" y="0" width="13" height="39"></rect><rect x="0" y="13" width="39" height="13"></rect></g><g fill="#222" stroke="#000" stroke-opacity="0.02" fill-opacity="0.11533333333333334" transform="translate(0,58.5)"><rect x="13" y="0" width="13" height="39"></rect><rect x="0" y="13" width="39" height="13"></rect></g><g fill="#222" stroke="#000" stroke-opacity="0.02" fill-opacity="0.11533333333333334" transform="translate(156,58.5)"><rect x="13" y="0" width="13" height="39"></rect><rect x="0" y="13" width="39" height="13"></rect></g><g fill="#ddd" stroke="#000" stroke-opacity="0.02" fill-opacity="0.08933333333333333" transform="translate(26,58.5)"><rect x="13" y="0" width="13" height="39"></rect><rect x="0" y="13" width="39" height="13"></rect></g><g fill="#ddd" stroke="#000" stroke-opacity="0.02" fill-opacity="0.03733333333333333" transform="translate(52,58.5)"><rect x="13" y="0" width="13" height="39"></rect><rect x="0" y="13" width="39" height="13"></rect></g><g fill="#ddd" stroke="#000" stroke-opacity="0.02" fill-opacity="0.08933333333333333" transform="translate(78,58.5)"><rect x="13" y="0" width="13" height="39"></rect><rect x="0" y="13" width="39" height="13"></rect></g><g fill="#222" stroke="#000" stroke-opacity="0.02" fill-opacity="0.046" transform="translate(104,58.5)"><rect x="13" y="0" width="13" height="39"></rect><rect x="0" y="13" width="39" height="13"></rect></g><g fill="#ddd" stroke="#000" stroke-opacity="0.02" fill-opacity="0.08933333333333333" transform="translate(130,58.5)"><rect x="13" y="0" width="13" height="39"></rect><rect x="0" y="13" width="39" height="13"></rect></g><g fill="#222" stroke="#000" stroke-opacity="0.02" fill-opacity="0.08066666666666666" transform="translate(-13,84.5)"><rect x="13" y="0" width="13" height="39"></rect><rect x="0" y="13" width="39" height="13"></rect></g><g fill="#222" stroke="#000" stroke-opacity="0.02" fill-opacity="0.08066666666666666" transform="translate(143,84.5)"><rect x="13" y="0" width="13" height="39"></rect><rect x="0" y="13" width="39" height="13"></rect></g><g fill="#ddd" stroke="#000" stroke-opacity="0.02" fill-opacity="0.07200000000000001" transform="translate(13,84.5)"><rect x="13" y="0" width="13" height="39"></rect><rect x="0" y="13" width="39" height="13"></rect></g><g fill="#222" stroke="#000" stroke-opacity="0.02" fill-opacity="0.11533333333333334" transform="translate(39,84.5)"><rect x="13" y="0" width="13" height="39"></rect><rect x="0" y="13" width="39" height="13"></rect></g><g fill="#222" stroke="#000" stroke-opacity="0.02" fill-opacity="0.028666666666666667" transform="translate(65,84.5)"><rect x="13" y="0" width="13" height="39"></rect><rect x="0" y="13" width="39" height="13"></rect></g><g fill="#222" stroke="#000" stroke-opacity="0.02" fill-opacity="0.13266666666666665" transform="translate(91,84.5)"><rect x="13" y="0" width="13" height="39"></rect><rect x="0" y="13" width="39" height="13"></rect></g><g fill="#ddd" stroke="#000" stroke-opacity="0.02" fill-opacity="0.12400000000000001" transform="translate(117,84.5)"><rect x="13" y="0" width="13" height="39"></rect><rect x="0" y="13" width="39" height="13"></rect></g><g fill="#222" stroke="#000" stroke-opacity="0.02" fill-opacity="0.15" transform="translate(0,110.5)"><rect x="13" y="0" width="13" height="39"></rect><rect x="0" y="13" width="39" height="13"></rect></g><g fill="#222" stroke="#000" stroke-opacity="0.02" fill-opacity="0.15" transform="translate(156,110.5)"><rect x="13" y="0" width="13" height="39"></rect><rect x="0" y="13" width="39" height="13"></rect></g><g fill="#222" stroke="#000" stroke-opacity="0.02" fill-opacity="0.046" transform="translate(26,110.5)"><rect x="13" y="0" width="13" height="39"></rect><rect x="0" y="13" width="39" height="13"></rect></g><g fill="#222" stroke="#000" stroke-opacity="0.02" fill-opacity="0.11533333333333334" transform="translate(52,110.5)"><rect x="13" y="0" width="13" height="39"></rect><rect x="0" y="13" width="39" height="13"></rect></g><g fill="#222" stroke="#000" stroke-opacity="0.02" fill-opacity="0.08066666666666666" transform="translate(78,110.5)"><rect x="13" y="0" width="13" height="39"></rect><rect x="0" y="13" width="39" height="13"></rect></g><g fill="#222" stroke="#000" stroke-opacity="0.02" fill-opacity="0.046" transform="translate(104,110.5)"><rect x="13" y="0" width="13" height="39"></rect><rect x="0" y="13" width="39" height="13"></rect></g><g fill="#ddd" stroke="#000" stroke-opacity="0.02" fill-opacity="0.12400000000000001" transform="translate(130,110.5)"><rect x="13" y="0" width="13" height="39"></rect><rect x="0" y="13" width="39" height="13"></rect></g></svg>