<svg xmlns="http://www.w3.org/2000/svg" width="485" height="485"><rect x="0" y="0" width="100%" height="100%" fill="rgb(125,134,73)"></rect><rect x="0" y="11" width="100%" height="8" opacity="0.046" fill="#222"></rect><rect x="0" y="37" width="100%" height="6" opacity="0.028666666666666667" fill="#222"></rect><rect x="0" y="59" width="100%" height="11" opacity="0.07200000000000001" fill="#ddd"></rect><rect x="0" y="75" width="100%" height="12" opacity="0.08066666666666666" fill="#222"></rect><rect x="0" y="99" width="100%" height="12" opacity="0.08066666666666666" fill="#222"></rect><rect x="0" y="128" width="100%" height="14" opacity="0.098" fill="#222"></rect><rect x="0" y="151" width="100%" height="13" opacity="0.08933333333333333" fill="#ddd"></rect><rect x="0" y="181" width="100%" height="20" opacity="0.15" fill="#222"></rect><rect x="0" y="218" width="100%" height="18" opacity="0.13266666666666665" fill="#222"></rect><rect x="0" y="252" width="100%" height="15" opacity="0.10666666666666667" fill="#ddd"></rect><rect x="0" y="279" width="100%" height="16" opacity="0.11533333333333334" fill="#222"></rect><rect x="0" y="307" width="100%" height="10" opacity="0.06333333333333334" fill="#222"></rect><rect x="0" y="328" width="100%" height="16" opacity="0.11533333333333334" fill="#222"></rect><rect x="0" y="364" width="100%" height="13" opacity="0.08933333333333333" fill="#ddd"></rect><rect x="0" y="382" width="100%" height="10" opacity="0.06333333333333334" fill="#222"></rect><rect x="0" y="411" width="100%" height="9" opacity="0.05466666666666667" fill="#ddd"></rect><rect x="0" y="434" width="100%" height="20" opacity="0.15" fill="#222"></rect><rect x="0" y="469" width="100%" height="16" opacity="0.11533333333333334" fill="#222"></rect><rect x="11" y="0" width="8" height="100%" opacity="0.046" fill="#222"></rect><rect x="37" y="0" width="6" height="100%" opacity="0.028666666666666667" fill="#222"></rect><rect x="59" y="0" width="11" height="100%" opacity="0.07200000000000001" fill="#ddd"></rect><rect x="75" y="0" width="12" height="100%" opacity="0.08066666666666666" fill="#222"></rect><rect x="99" y="0" width="12" height="100%" opacity="0.08066666666666666" fill="#222"></rect><rect x="128" y="0" width="14" height="100%" opacity="0.098" fill="#222"></rect><rect x="151" y="0" width="13" height="100%" opacity="0.08933333333333333" fill="#ddd"></rect><rect x="181" y="0" width="20" height="100%" opacity="0.15" fill="#222"></rect><rect x="218" y="0" width="18" height="100%" opacity="0.13266666666666665" fill="#222"></rect><rect x="252" y="0" width="15" height="100%" opacity="0.10666666666666667" fill="#ddd"></rect><rect x="279" y="0" width="16" height="100%" opacity="0.11533333333333334" fill="#222"></rect><rect x="307" y="0" width="10" height="100%" opacity="0.06333333333333334" fill="#222"></rect><rect x="328" y="0" width="16" height="100%" opacity="0.11533333333333334" fill="#222"></rect><rect x="364" y="0" width="13" height="100%" opacity="0.08933333333333333" fill="#ddd"></rect><rect x="382" y="0" width="10" height="100%" opacity="0.06333333333333334" fill="#222"></rect><rect x="411" y="0" width="9" height="100%" opacity="0.05466666666666667" fill="#ddd"></rect><rect x="434" y="0" width="20" height="100%" opacity="0.15" fill="#222"></rect><rect x="469" y="0" width="16" height="100%" opacity="0.11533333333333334" fill="#222"></rect></svg>