<svg xmlns="http://www.w3.org/2000/svg" width="260" height="288"><rect x="0" y="0" width="100%" height="100%" fill="rgb(137,144,63)"></rect><path d="M0 76 C 45.5 0, 84.5 0, 130 76 S 214.5 152, 260 76 S 344.5 0, 390, 76" fill="none" stroke="#ddd" opacity="0.08933333333333333" stroke-width="8px" transform="translate(-65,-114)"></path><path d="M0 76 C 45.5 0, 84.5 0, 130 76 S 214.5 152, 260 76 S 344.5 0, 390, 76" fill="none" stroke="#ddd" opacity="0.08933333333333333" stroke-width="8px" transform="translate(-65,174)"></path><path d="M0 76 C 45.5 0, 84.5 0, 130 76 S 214.5 152, 260 76 S 344.5 0, 390, 76" fill="none" stroke="#ddd" opacity="0.10666666666666667" stroke-width="8px" transform="translate(-65,-106)"></path><path d="M0 76 C 45.5 0, 84.5 0, 130 76 S 214.5 152, 260 76 S 344.5 0, 390, 76" fill="none" stroke="#ddd" opacity="0.10666666666666667" stroke-width="8px" transform="translate(-65,182)"></path><path d="M0 76 C 45.5 0, 84.5 0, 130 76 S 214.5 152, 260 76 S 344.5 0, 390, 76" fill="none" stroke="#222" opacity="0.046" stroke-width="8px" transform="translate(-65,-98)"></path><path d="M0 76 C 45.5 0, 84.5 0, 130 76 S 214.5 152, 260 76 S 344.5 0, 390, 76" fill="none" stroke="#222" opacity="0.046" stroke-width="8px" transform="translate(-65,190)"></path><path d="M0 76 C 45.5 0, 84.5 0, 130 76 S 214.5 152, 260 76 S 344.5 0, 390, 76" fill="none" stroke="#222" opacity="0.08066666666666666" stroke-width="8px" transform="translate(-65,-90)"></path><path d="M0 76 C 45.5 0, 84.5 0, 130 76 S 214.5 152, 260 76 S 344.5 0, 390, 76" fill="none" stroke="#222" opacity="0.08066666666666666" stroke-width="8px" transform="translate(-65,198)"></path><path d="M0 76 C 45.5 0, 84.5 0, 130 76 S 214.5 152, 260 76 S 344.5 0, 390, 76" fill="none" stroke="#222" opacity="0.06333333333333334" stroke-width="8px" transform="translate(-65,-82)"></path><path d="M0 76 C 45.5 0, 84.5 0, 130 76 S 214.5 152, 260 76 S 344.5 0, 390, 76" fill="none" stroke="#222" opacity="0.06333333333333334" stroke-width="8px" transform="translate(-65,206)"></path><path d="M0 76 C 45.5 0, 84.5 0, 130 76 S 214.5 152, 260 76 S 344.5 0, 390, 76" fill="none" stroke="#ddd" opacity="0.10666666666666667" stroke-width="8px" transform="translate(-65,-74)"></path><path d="M0 76 C 45.5 0, 84.5 0, 130 76 S 214.5 152, 260 76 S 344.5 0, 390, 76" fill="none" stroke="#ddd" opacity="0.10666666666666667" stroke-width="8px" transform="translate(-65,214)"></path><path d="M0 76 C 45.5 0, 84.5 0, 130 76 S 214.5 152, 260 76 S 344.5 0, 390, 76" fill="none" stroke="#222" opacity="0.15" stroke-width="8px" transform="translate(-65,-66)"></path><path d="M0 76 C 45.5 0, 84.5 0, 130 76 S 214.5 152, 260 76 S 344.5 0, 390, 76" fill="none" stroke="#222" opacity="0.15" stroke-width="8px" transform="translate(-65,222)"></path><path d="M0 76 C 45.5 0, 84.5 0, 130 76 S 214.5 152, 260 76 S 344.5 0, 390, 76" fill="none" stroke="#222" opacity="0.06333333333333334" stroke-width="8px" transform="translate(-65,-58)"></path><path d="M0 76 C 45.5 0, 84.5 0, 130 76 S 214.5 152, 260 76 S 344.5 0, 390, 76" fill="none" stroke="#222" opacity="0.06333333333333334" stroke-width="8px" transform="translate(-65,230)"></path><path d="M0 76 C 45.5 0, 84.5 0, 130 76 S 214.5 152, 260 76 S 344.5 0, 390, 76" fill="none" stroke="#ddd" opacity="0.05466666666666667" stroke-width="8px" transform="translate(-65,-50)"></path><path d="M0 76 C 45.5 0, 84.5 0, 130 76 S 214.5 152, 260 76 S 344.5 0, 390, 76" fill="none" stroke="#ddd" opacity="0.05466666666666667" stroke-width="8px" transform="translate(-65,238)"></path><path d="M0 76 C 45.5 0, 84.5 0, 130 76 S 214.5 152, 260 76 S 344.5 0, 390, 76" fill="none" stroke="#ddd" opacity="0.02" stroke-width="8px" transform="translate(-65,-42)"></path><path d="M0 76 C 45.5 0, 84.5 0, 130 76 S 214.5 152, 260 76 S 344.5 0, 390, 76" fill="none" stroke="#ddd" opacity="0.02" stroke-width="8px" transform="translate(-65,246)"></path><path d="M0 76 C 45.5 0, 84.5 0, 130 76 S 214.5 152, 260 76 S 344.5 0, 390, 76" fill="none" stroke="#222" opacity="0.11533333333333334" stroke-width="8px" transform="translate(-65,-34)"></path><path d="M0 76 C 45.5 0, 84.5 0, 130 76 S 214.5 152, 260 76 S 344.5 0, 390, 76" fill="none" stroke="#222" opacity="0.11533333333333334" stroke-width="8px" transform="translate(-65,254)"></path><path d="M0 76 C 45.5 0, 84.5 0, 130 76 S 214.5 152, 260 76 S 344.5 0, 390, 76" fill="none" stroke="#ddd" opacity="0.05466666666666667" stroke-width="8px" transform="translate(-65,-26)"></path><path d="M0 76 C 45.5 0, 84.5 0, 130 76 S 214.5 152, 260 76 S 344.5 0, 390, 76" fill="none" stroke="#ddd" opacity="0.05466666666666667" stroke-width="8px" transform="translate(-65,262)"></path><path d="M0 76 C 45.5 0, 84.5 0, 130 76 S 214.5 152, 260 76 S 344.5 0, 390, 76" fill="none" stroke="#222" opacity="0.098" stroke-width="8px" transform="translate(-65,-18)"></path><path d="M0 76 C 45.5 0, 84.5 0, 130 76 S 214.5 152, 260 76 S 344.5 0, 390, 76" fill="none" stroke="#222" opacity="0.098" stroke-width="8px" transform="translate(-65,270)"></path><path d="M0 76 C 45.5 0, 84.5 0, 130 76 S 214.5 152, 260 76 S 344.5 0, 390, 76" fill="none" stroke="#222" opacity="0.13266666666666665" stroke-width="8px" transform="translate(-65,-10)"></path><path d="M0 76 C 45.5 0, 84.5 0, 130 76 S 214.5 152, 260 76 S 344.5 0, 390, 76" fill="none" stroke="#222" opacity="0.13266666666666665" stroke-width="8px" transform="translate(-65,278)"></path><path d="M0 76 C 45.5 0, 84.5 0, 130 76 S 214.5 152, 260 76 S 344.5 0, 390, 76" fill="none" stroke="#222" opacity="0.13266666666666665" stroke-width="8px" transform="translate(-65,-2)"></path><path d="M0 76 C 45.5 0, 84.5 0, 130 76 S 214.5 152, 260 76 S 344.5 0, 390, 76" fill="none" stroke="#222" opacity="0.13266666666666665" stroke-width="8px" transform="translate(-65,286)"></path><path d="M0 76 C 45.5 0, 84.5 0, 130 76 S 214.5 152, 260 76 S 344.5 0, 390, 76" fill="none" stroke="#ddd" opacity="0.03733333333333333" stroke-width="8px" transform="translate(-65,6)"></path><path d="M0 76 C 45.5 0, 84.5 0, 130 76 S 214.5 152, 260 76 S 344.5 0, 390, 76" fill="none" stroke="#ddd" opacity="0.03733333333333333" stroke-width="8px" transform="translate(-65,294)"></path><path d="M0 76 C 45.5 0, 84.5 0, 130 76 S 214.5 152, 260 76 S 344.5 0, 390, 76" fill="none" stroke="#222" opacity="0.028666666666666667" stroke-width="8px" transform="translate(-65,14)"></path><path d="M0 76 C 45.5 0, 84.5 0, 130 76 S 214.5 152, 260 76 S 344.5 0, 390, 76" fill="none" stroke="#222" opacity="0.028666666666666667" stroke-width="8px" transform="translate(-65,302)"></path><path d="M0 76 C 45.5 0, 84.5 0, 130 76 S 214.5 152, 260 76 S 344.5 0, 390, 76" fill="none" stroke="#222" opacity="0.046" stroke-width="8px" transform="translate(-65,22)"></path><path d="M0 76 C 45.5 0, 84.5 0, 130 76 S 214.5 152, 260 76 S 344.5 0, 390, 76" fill="none" stroke="#222" opacity="0.046" stroke-width="8px" transform="translate(-65,310)"></path><path d="M0 76 C 45.5 0, 84.5 0, 130 76 S 214.5 152, 260 76 S 344.5 0, 390, 76" fill="none" stroke="#ddd" opacity="0.07200000000000001" stroke-width="8px" transform="translate(-65,30)"></path><path d="M0 76 C 45.5 0, 84.5 0, 130 76 S 214.5 152, 260 76 S 344.5 0, 390, 76" fill="none" stroke="#ddd" opacity="0.07200000000000001" stroke-width="8px" transform="translate(-65,318)"></path><path d="M0 76 C 45.5 0, 84.5 0, 130 76 S 214.5 152, 260 76 S 344.5 0, 390, 76" fill="none" stroke="#222" opacity="0.028666666666666667" stroke-width="8px" transform="translate(-65,38)"></path><path d="M0 76 C 45.5 0, 84.5 0, 130 76 S 214.5 152, 260 76 S 344.5 0, 390, 76" fill="none" stroke="#222" opacity="0.028666666666666667" stroke-width="8px" transform="translate(-65,326)"></path><path d="M0 76 C 45.5 0, 84.5 0, 130 76 S 214.5 152, 260 76 S 344.5 0, 390, 76" fill="none" stroke="#ddd" opacity="0.05466666666666667" stroke-width="8px" transform="translate(-65,46)"></path><path d="M0 76 C 45.5 0, 84.5 0, 130 76 S 214.5 152, 260 76 S 344.5 0, 390, 76" fill="none" stroke="#ddd" opacity="0.05466666666666667" stroke-width="8px" transform="translate(-65,334)"></path><path d="M0 76 C 45.5 0, 84.5 0, 130 76 S 214.5 152, 260 76 S 344.5 0, 390, 76" fill="none" stroke="#ddd" opacity="0.08933333333333333" stroke-width="8px" transform="translate(-65,54)"></path><path d="M0 76 C 45.5 0, 84.5 0, 130 76 S 214.5 152, 260 76 S 344.5 0, 390, 76" fill="none" stroke="#ddd" opacity="0.08933333333333333" stroke-width="8px" transform="translate(-65,342)"></path><path d="M0 76 C 45.5 0, 84.5 0, 130 76 S 214.5 152, 260 76 S 344.5 0, 390, 76" fill="none" stroke="#222" opacity="0.098" stroke-width="8px" transform="translate(-65,62)"></path><path d="M0 76 C 45.5 0, 84.5 0, 130 76 S 214.5 152, 260 76 S 344.5 0, 390, 76" fill="none" stroke="#222" opacity="0.098" stroke-width="8px" transform="translate(-65,350)"></path><path d="M0 76 C 45.5 0, 84.5 0, 130 76 S 214.5 152, 260 76 S 344.5 0, 390, 76" fill="none" stroke="#ddd" opacity="0.03733333333333333" stroke-width="8px" transform="translate(-65,70)"></path><path d="M0 76 C 45.5 0, 84.5 0, 130 76 S 214.5 152, 260 76 S 344.5 0, 390, 76" fill="none" stroke="#ddd" opacity="0.03733333333333333" stroke-width="8px" transform="translate(-65,358)"></path><path d="M0 76 C 45.5 0, 84.5 0, 130 76 S 214.5 152, 260 76 S 344.5 0, 390, 76" fill="none" stroke="#222" opacity="0.028666666666666667" stroke-width="8px" transform="translate(-65,78)"></path><path d="M0 76 C 45.5 0, 84.5 0, 130 76 S 214.5 152, 260 76 S 344.5 0, 390, 76" fill="none" stroke="#222" opacity="0.028666666666666667" stroke-width="8px" transform="translate(-65,366)"></path><path d="M0 76 C 45.5 0, 84.5 0, 130 76 S 214.5 152, 260 76 S 344.5 0, 390, 76" fill="none" stroke="#ddd" opacity="0.08933333333333333" stroke-width="8px" transform="translate(-65,86)"></path><path d="M0 76 C 45.5 0, 84.5 0, 130 76 S 214.5 152, 260 76 S 344.5 0, 390, 76" fill="none" stroke="#ddd" opacity="0.08933333333333333" stroke-width="8px" transform="translate(-65,374)"></path><path d="M0 76 C 45.5 0, 84.5 0, 130 76 S 214.5 152, 260 76 S 344.5 0, 390, 76" fill="none" stroke="#ddd" opacity="0.02" stroke-width="8px" transform="translate(-65,94)"></path><path d="M0 76 C 45.5 0, 84.5 0, 130 76 S 214.5 152, 260 76 S 344.5 0, 390, 76" fill="none" stroke="#ddd" opacity="0.02" stroke-width="8px" transform="translate(-65,382)"></path><path d="M0 76 C 45.5 0, 84.5 0, 130 76 S 214.5 152, 260 76 S 344.5 0, 390, 76" fill="none" stroke="#222" opacity="0.06333333333333334" stroke-width="8px" transform="translate(-65,102)"></path><path d="M0 76 C 45.5 0, 84.5 0, 130 76 S 214.5 152, 260 76 S 344.5 0, 390, 76" fill="none" stroke="#222" opacity="0.06333333333333334" stroke-width="8px" transform="translate(-65,390)"></path><path d="M0 76 C 45.5 0, 84.5 0, 130 76 S 214.5 152, 260 76 S 344.5 0, 390, 76" fill="none" stroke="#222" opacity="0.15" stroke-width="8px" transform="translate(-65,110)"></path><path d="M0 76 C 45.5 0, 84.5 0, 130 76 S 214.5 152, 260 76 S 344.5 0, 390, 76" fill="none" stroke="#222" opacity="0.15" stroke-width="8px" transform="translate(-65,398)"></path><path d="M0 76 C 45.5 0, 84.5 0, 130 76 S 214.5 152, 260 76 S 344.5 0, 390, 76" fill="none" stroke="#ddd" opacity="0.08933333333333333" stroke-width="8px" transform="translate(-65,118)"></path><path d="M0 76 C 45.5 0, 84.5 0, 130 76 S 214.5 152, 260 76 S 344.5 0, 390, 76" fill="none" stroke="#ddd" opacity="0.08933333333333333" stroke-width="8px" transform="translate(-65,406)"></path><path d="M0 76 C 45.5 0, 84.5 0, 130 76 S 214.5 152, 260 76 S 344.5 0, 390, 76" fill="none" stroke="#ddd" opacity="0.05466666666666667" stroke-width="8px" transform="translate(-65,126)"></path><path d="M0 76 C 45.5 0, 84.5 0, 130 76 S 214.5 152, 260 76 S 344.5 0, 390, 76" fill="none" stroke="#ddd" opacity="0.05466666666666667" stroke-width="8px" transform="translate(-65,414)"></path><path d="M0 76 C 45.5 0, 84.5 0, 130 76 S 214.5 152, 260 76 S 344.5 0, 390, 76" fill="none" stroke="#222" opacity="0.06333333333333334" stroke-width="8px" transform="translate(-65,134)"></path><path d="M0 76 C 45.5 0, 84.5 0, 130 76 S 214.5 152, 260 76 S 344.5 0, 390, 76" fill="none" stroke="#222" opacity="0.06333333333333334" stroke-width="8px" transform="translate(-65,422)"></path><path d="M0 76 C 45.5 0, 84.5 0, 130 76 S 214.5 152, 260 76 S 344.5 0, 390, 76" fill="none" stroke="#ddd" opacity="0.12400000000000001" stroke-width="8px" transform="translate(-65,142)"></path><path d="M0 76 C 45.5 0, 84.5 0, 130 76 S 214.5 152, 260 76 S 344.5 0, 390, 76" fill="none" stroke="#ddd" opacity="0.12400000000000001" stroke-width="8px" transform="translate(-65,430)"></path><path d="M0 76 C 45.5 0, 84.5 0, 130 76 S 214.5 152, 260 76 S 344.5 0, 390, 76" fill="none" stroke="#222" opacity="0.08066666666666666" stroke-width="8px" transform="translate(-65,150)"></path><path d="M0 76 C 45.5 0, 84.5 0, 130 76 S 214.5 152, 260 76 S 344.5 0, 390, 76" fill="none" stroke="#222" opacity="0.08066666666666666" stroke-width="8px" transform="translate(-65,438)"></path><path d="M0 76 C 45.5 0, 84.5 0, 130 76 S 214.5 152, 260 76 S 344.5 0, 390, 76" fill="none" stroke="#222" opacity="0.15" stroke-width="8px" transform="translate(-65,158)"></path><path d="M0 76 C 45.5 0, 84.5 0, 130 76 S 214.5 152, 260 76 S 344.5 0, 390, 76" fill="none" stroke="#222" opacity="0.15" stroke-width="8px" transform="translate(-65,446)"></path><path d="M0 76 C 45.5 0, 84.5 0, 130 76 S 214.5 152, 260 76 S 344.5 0, 390, 76" fill="none" stroke="#ddd" opacity="0.03733333333333333" stroke-width="8px" transform="translate(-65,166)"></path><path d="M0 76 C 45.5 0, 84.5 0, 130 76 S 214.5 152, 260 76 S 344.5 0, 390, 76" fill="none" stroke="#ddd" opacity="0.03733333333333333" stroke-width="8px" transform="translate(-65,454)"></path></svg>