<svg xmlns="http://www.w3.org/2000/svg" width="352" height="407"><rect x="0" y="0" width="100%" height="100%" fill="rgb(138,69,124)"></rect><polyline points="0,33.948195828349995,19.6,0,58.800000000000004,0,78.4,33.948195828349995,58.800000000000004,67.89639165669999,19.6,67.89639165669999,0,33.948195828349995" fill="#222" fill-opacity="0.098" stroke="#000" stroke-opacity="0.02" transform="translate(-39.2,-33.948195828349995)"></polyline><polyline points="0,33.948195828349995,19.6,0,58.800000000000004,0,78.4,33.948195828349995,58.800000000000004,67.89639165669999,19.6,67.89639165669999,0,33.948195828349995" fill="#222" fill-opacity="0.098" stroke="#000" stroke-opacity="0.02" transform="translate(313.6,-33.948195828349995)"></polyline><polyline points="0,33.948195828349995,19.6,0,58.800000000000004,0,78.4,33.948195828349995,58.800000000000004,67.89639165669999,19.6,67.89639165669999,0,33.948195828349995" fill="#222" fill-opacity="0.098" stroke="#000" stroke-opacity="0.02" transform="translate(-39.2,373.43015411184996)"></polyline><polyline points="0,33.948195828349995,19.6,0,58.800000000000004,0,78.4,33.948195828349995,58.800000000000004,67.89639165669999,19.6,67.89639165669999,0,33.948195828349995" fill="#222" fill-opacity="0.098" stroke="#000" stroke-opacity="0.02" transform="translate(313.6,373.4301541118499)"></polyline><polyline points="0,33.948195828349995,19.6,0,58.800000000000004,0,78.4,33.948195828349995,58.800000000000004,67.89639165669999,19.6,67.89639165669999,0,33.948195828349995" fill="#222" fill-opacity="0.15" stroke="#000" stroke-opacity="0.02" transform="translate(19.6,0)"></polyline><polyline points="0,33.948195828349995,19.6,0,58.800000000000004,0,78.4,33.948195828349995,58.800000000000004,67.89639165669999,19.6,67.89639165669999,0,33.948195828349995" fill="#222" fill-opacity="0.15" stroke="#000" stroke-opacity="0.02" transform="translate(19.6,407.37834994019994)"></polyline><polyline points="0,33.948195828349995,19.6,0,58.800000000000004,0,78.4,33.948195828349995,58.800000000000004,67.89639165669999,19.6,67.89639165669999,0,33.948195828349995" fill="#222" fill-opacity="0.15" stroke="#000" stroke-opacity="0.02" transform="translate(78.4,-33.948195828349995)"></polyline><polyline points="0,33.948195828349995,19.6,0,58.800000000000004,0,78.4,33.948195828349995,58.800000000000004,67.89639165669999,19.6,67.89639165669999,0,33.948195828349995" fill="#222" fill-opacity="0.15" stroke="#000" stroke-opacity="0.02" transform="translate(78.4,373.43015411184996)"></polyline><polyline points="0,33.948195828349995,19.6,0,58.800000000000004,0,78.4,33.948195828349995,58.800000000000004,67.89639165669999,19.6,67.89639165669999,0,33.948195828349995" fill="#ddd" fill-opacity="0.07200000000000001" stroke="#000" stroke-opacity="0.02" transform="translate(137.2,0)"></polyline><polyline points="0,33.948195828349995,19.6,0,58.800000000000004,0,78.4,33.948195828349995,58.800000000000004,67.89639165669999,19.6,67.89639165669999,0,33.948195828349995" fill="#ddd" fill-opacity="0.07200000000000001" stroke="#000" stroke-opacity="0.02" transform="translate(137.2,407.37834994019994)"></polyline><polyline points="0,33.948195828349995,19.6,0,58.800000000000004,0,78.4,33.948195828349995,58.800000000000004,67.89639165669999,19.6,67.89639165669999,0,33.948195828349995" fill="#222" fill-opacity="0.028666666666666667" stroke="#000" stroke-opacity="0.02" transform="translate(196,-33.948195828349995)"></polyline><polyline points="0,33.948195828349995,19.6,0,58.800000000000004,0,78.4,33.948195828349995,58.800000000000004,67.89639165669999,19.6,67.89639165669999,0,33.948195828349995" fill="#222" fill-opacity="0.028666666666666667" stroke="#000" stroke-opacity="0.02" transform="translate(196,373.43015411184996)"></polyline><polyline points="0,33.948195828349995,19.6,0,58.800000000000004,0,78.4,33.948195828349995,58.800000000000004,67.89639165669999,19.6,67.89639165669999,0,33.948195828349995" fill="#222" fill-opacity="0.028666666666666667" stroke="#000" stroke-opacity="0.02" transform="translate(254.8,0)"></polyline><polyline points="0,33.948195828349995,19.6,0,58.800000000000004,0,78.4,33.948195828349995,58.800000000000004,67.89639165669999,19.6,67.89639165669999,0,33.948195828349995" fill="#222" fill-opacity="0.028666666666666667" stroke="#000" stroke-opacity="0.02" transform="translate(254.8,407.37834994019994)"></polyline><polyline points="0,33.948195828349995,19.6,0,58.800000000000004,0,78.4,33.948195828349995,58.800000000000004,67.89639165669999,19.6,67.89639165669999,0,33.948195828349995" fill="#ddd" fill-opacity="0.12400000000000001" stroke="#000" stroke-opacity="0.02" transform="translate(-39.2,33.948195828349995)"></polyline><polyline points="0,33.948195828349995,19.6,0,58.800000000000004,0,78.4,33.948195828349995,58.800000000000004,67.89639165669999,19.6,67.89639165669999,0,33.948195828349995" fill="#ddd" fill-opacity="0.12400000000000001" stroke="#000" stroke-opacity="0.02" transform="translate(313.6,33.948195828349995)"></polyline><polyline points="0,33.948195828349995,19.6,0,58.800000000000004,0,78.4,33.948195828349995,58.800000000000004,67.89639165669999,19.6,67.89639165669999,0,33.948195828349995" fill="#222" fill-opacity="0.046" stroke="#000" stroke-opacity="0.02" transform="translate(19.6,67.89639165669999)"></polyline><polyline points="0,33.948195828349995,19.6,0,58.800000000000004,0,78.4,33.948195828349995,58.800000000000004,67.89639165669999,19.6,67.89639165669999,0,33.948195828349995" fill="#222" fill-opacity="0.028666666666666667" stroke="#000" stroke-opacity="0.02" transform="translate(78.4,33.948195828349995)"></polyline><polyline points="0,33.948195828349995,19.6,0,58.800000000000004,0,78.4,33.948195828349995,58.800000000000004,67.89639165669999,19.6,67.89639165669999,0,33.948195828349995" fill="#222" fill-opacity="0.06333333333333334" stroke="#000" stroke-opacity="0.02" transform="translate(137.2,67.89639165669999)"></polyline><polyline points="0,33.948195828349995,19.6,0,58.800000000000004,0,78.4,33.948195828349995,58.800000000000004,67.89639165669999,19.6,67.89639165669999,0,33.948195828349995" fill="#222" fill-opacity="0.15" stroke="#000" stroke-opacity="0.02" transform="translate(196,33.948195828349995)"></polyline><polyline points="0,33.948195828349995,19.6,0,58.800000000000004,0,78.4,33.948195828349995,58.800000000000004,67.89639165669999,19.6,67.89639165669999,0,33.948195828349995" fill="#222" fill-opacity="0.06333333333333334" stroke="#000" stroke-opacity="0.02" transform="translate(254.8,67.89639165669999)"></polyline><polyline points="0,33.948195828349995,19.6,0,58.800000000000004,0,78.4,33.948195828349995,58.800000000000004,67.89639165669999,19.6,67.89639165669999,0,33.948195828349995" fill="#ddd" fill-opacity="0.14133333333333334" stroke="#000" stroke-opacity="0.02" transform="translate(-39.2,101.84458748504998)"></polyline><polyline points="0,33.948195828349995,19.6,0,58.800000000000004,0,78.4,33.948195828349995,58.800000000000004,67.89639165669999,19.6,67.89639165669999,0,33.948195828349995" fill="#ddd" fill-opacity="0.14133333333333334" stroke="#000" stroke-opacity="0.02" transform="translate(313.6,101.84458748504998)"></polyline><polyline points="0,33.948195828349995,19.6,0,58.800000000000004,0,78.4,33.948195828349995,58.800000000000004,67.89639165669999,19.6,67.89639165669999,0,33.948195828349995" fill="#ddd" fill-opacity="0.07200000000000001" stroke="#000" stroke-opacity="0.02" transform="translate(19.6,135.79278331339998)"></polyline><polyline points="0,33.948195828349995,19.6,0,58.800000000000004,0,78.4,33.948195828349995,58.800000000000004,67.89639165669999,19.6,67.89639165669999,0,33.948195828349995" fill="#ddd" fill-opacity="0.03733333333333333" stroke="#000" stroke-opacity="0.02" transform="translate(78.4,101.84458748504998)"></polyline><polyline points="0,33.948195828349995,19.6,0,58.800000000000004,0,78.4,33.948195828349995,58.800000000000004,67.89639165669999,19.6,67.89639165669999,0,33.948195828349995" fill="#ddd" fill-opacity="0.03733333333333333" stroke="#000" stroke-opacity="0.02" transform="translate(137.2,135.79278331339998)"></polyline><polyline points="0,33.948195828349995,19.6,0,58.800000000000004,0,78.4,33.948195828349995,58.800000000000004,67.89639165669999,19.6,67.89639165669999,0,33.948195828349995" fill="#222" fill-opacity="0.028666666666666667" stroke="#000" stroke-opacity="0.02" transform="translate(196,101.84458748504998)"></polyline><polyline points="0,33.948195828349995,19.6,0,58.800000000000004,0,78.4,33.948195828349995,58.800000000000004,67.89639165669999,19.6,67.89639165669999,0,33.948195828349995" fill="#222" fill-opacity="0.098" stroke="#000" stroke-opacity="0.02" transform="translate(254.8,135.79278331339998)"></polyline><polyline points="0,33.948195828349995,19.6,0,58.800000000000004,0,78.4,33.948195828349995,58.800000000000004,67.89639165669999,19.6,67.89639165669999,0,33.948195828349995" fill="#ddd" fill-opacity="0.08933333333333333" stroke="#000" stroke-opacity="0.02" transform="translate(-39.2,169.74097914174996)"></polyline><polyline points="0,33.948195828349995,19.6,0,58.800000000000004,0,78.4,33.948195828349995,58.800000000000004,67.89639165669999,19.6,67.89639165669999,0,33.948195828349995" fill="#ddd" fill-opacity="0.08933333333333333" stroke="#000" stroke-opacity="0.02" transform="translate(313.6,169.74097914174996)"></polyline><polyline points="0,33.948195828349995,19.6,0,58.800000000000004,0,78.4,33.948195828349995,58.800000000000004,67.89639165669999,19.6,67.89639165669999,0,33.948195828349995" fill="#ddd" fill-opacity="0.07200000000000001" stroke="#000" stroke-opacity="0.02" transform="translate(19.6,203.6891749701)"></polyline><polyline points="0,33.948195828349995,19.6,0,58.800000000000004,0,78.4,33.948195828349995,58.800000000000004,67.89639165669999,19.6,67.89639165669999,0,33.948195828349995" fill="#222" fill-opacity="0.06333333333333334" stroke="#000" stroke-opacity="0.02" transform="translate(78.4,169.74097914174996)"></polyline><polyline points="0,33.948195828349995,19.6,0,58.800000000000004,0,78.4,33.948195828349995,58.800000000000004,67.89639165669999,19.6,67.89639165669999,0,33.948195828349995" fill="#222" fill-opacity="0.11533333333333334" stroke="#000" stroke-opacity="0.02" transform="translate(137.2,203.6891749701)"></polyline><polyline points="0,33.948195828349995,19.6,0,58.800000000000004,0,78.4,33.948195828349995,58.800000000000004,67.89639165669999,19.6,67.89639165669999,0,33.948195828349995" fill="#ddd" fill-opacity="0.14133333333333334" stroke="#000" stroke-opacity="0.02" transform="translate(196,169.74097914174996)"></polyline><polyline points="0,33.948195828349995,19.6,0,58.800000000000004,0,78.4,33.948195828349995,58.800000000000004,67.89639165669999,19.6,67.89639165669999,0,33.948195828349995" fill="#222" fill-opacity="0.13266666666666665" stroke="#000" stroke-opacity="0.02" transform="translate(254.8,203.6891749701)"></polyline><polyline points="0,33.948195828349995,19.6,0,58.800000000000004,0,78.4,33.948195828349995,58.800000000000004,67.89639165669999,19.6,67.89639165669999,0,33.948195828349995" fill="#ddd" fill-opacity="0.07200000000000001" stroke="#000" stroke-opacity="0.02" transform="translate(-39.2,237.63737079844998)"></polyline><polyline points="0,33.948195828349995,19.6,0,58.800000000000004,0,78.4,33.948195828349995,58.800000000000004,67.89639165669999,19.6,67.89639165669999,0,33.948195828349995" fill="#ddd" fill-opacity="0.07200000000000001" stroke="#000" stroke-opacity="0.02" transform="translate(313.6,237.63737079844998)"></polyline><polyline points="0,33.948195828349995,19.6,0,58.800000000000004,0,78.4,33.948195828349995,58.800000000000004,67.89639165669999,19.6,67.89639165669999,0,33.948195828349995" fill="#ddd" fill-opacity="0.02" stroke="#000" stroke-opacity="0.02" transform="translate(19.6,271.58556662679996)"></polyline><polyline points="0,33.948195828349995,19.6,0,58.800000000000004,0,78.4,33.948195828349995,58.800000000000004,67.89639165669999,19.6,67.89639165669999,0,33.948195828349995" fill="#ddd" fill-opacity="0.05466666666666667" stroke="#000" stroke-opacity="0.02" transform="translate(78.4,237.63737079844998)"></polyline><polyline points="0,33.948195828349995,19.6,0,58.800000000000004,0,78.4,33.948195828349995,58.800000000000004,67.89639165669999,19.6,67.89639165669999,0,33.948195828349995" fill="#222" fill-opacity="0.15" stroke="#000" stroke-opacity="0.02" transform="translate(137.2,271.58556662679996)"></polyline><polyline points="0,33.948195828349995,19.6,0,58.800000000000004,0,78.4,33.948195828349995,58.800000000000004,67.89639165669999,19.6,67.89639165669999,0,33.948195828349995" fill="#ddd" fill-opacity="0.12400000000000001" stroke="#000" stroke-opacity="0.02" transform="translate(196,237.63737079844998)"></polyline><polyline points="0,33.948195828349995,19.6,0,58.800000000000004,0,78.4,33.948195828349995,58.800000000000004,67.89639165669999,19.6,67.89639165669999,0,33.948195828349995" fill="#222" fill-opacity="0.13266666666666665" stroke="#000" stroke-opacity="0.02" transform="translate(254.8,271.58556662679996)"></polyline><polyline points="0,33.948195828349995,19.6,0,58.800000000000004,0,78.4,33.948195828349995,58.800000000000004,67.89639165669999,19.6,67.89639165669999,0,33.948195828349995" fill="#ddd" fill-opacity="0.07200000000000001" stroke="#000" stroke-opacity="0.02" transform="translate(-39.2,305.53376245514994)"></polyline><polyline points="0,33.948195828349995,19.6,0,58.800000000000004,0,78.4,33.948195828349995,58.800000000000004,67.89639165669999,19.6,67.89639165669999,0,33.948195828349995" fill="#ddd" fill-opacity="0.07200000000000001" stroke="#000" stroke-opacity="0.02" transform="translate(313.6,305.53376245514994)"></polyline><polyline points="0,33.948195828349995,19.6,0,58.800000000000004,0,78.4,33.948195828349995,58.800000000000004,67.89639165669999,19.6,67.89639165669999,0,33.948195828349995" fill="#ddd" fill-opacity="0.03733333333333333" stroke="#000" stroke-opacity="0.02" transform="translate(19.6,339.4819582834999)"></polyline><polyline points="0,33.948195828349995,19.6,0,58.800000000000004,0,78.4,33.948195828349995,58.800000000000004,67.89639165669999,19.6,67.89639165669999,0,33.948195828349995" fill="#ddd" fill-opacity="0.14133333333333334" stroke="#000" stroke-opacity="0.02" transform="translate(78.4,305.53376245514994)"></polyline><polyline points="0,33.948195828349995,19.6,0,58.800000000000004,0,78.4,33.948195828349995,58.800000000000004,67.89639165669999,19.6,67.89639165669999,0,33.948195828349995" fill="#ddd" fill-opacity="0.14133333333333334" stroke="#000" stroke-opacity="0.02" transform="translate(137.2,339.4819582834999)"></polyline><polyline points="0,33.948195828349995,19.6,0,58.800000000000004,0,78.4,33.948195828349995,58.800000000000004,67.89639165669999,19.6,67.89639165669999,0,33.948195828349995" fill="#222" fill-opacity="0.06333333333333334" stroke="#000" stroke-opacity="0.02" transform="translate(196,305.53376245514994)"></polyline><polyline points="0,33.948195828349995,19.6,0,58.800000000000004,0,78.4,33.948195828349995,58.800000000000004,67.89639165669999,19.6,67.89639165669999,0,33.948195828349995" fill="#222" fill-opacity="0.06333333333333334" stroke="#000" stroke-opacity="0.02" transform="translate(254.8,339.4819582834999)"></polyline></svg>