<svg xmlns="http://www.w3.org/2000/svg" width="188" height="325"><rect x="0" y="0" width="100%" height="100%" fill="rgb(132,65,142)"></rect><polyline points="31.333333333333332,0,62.666666666666664,54.27092530382482,0,54.27092530382482,31.333333333333332,0" fill="#222" fill-opacity="0.11533333333333334" stroke="#000" stroke-opacity="0.02" transform="translate(-31.333333333333332,0) rotate(180,31.333333333333332,27.13546265191241)"></polyline><polyline points="31.333333333333332,0,62.666666666666664,54.27092530382482,0,54.27092530382482,31.333333333333332,0" fill="#222" fill-opacity="0.11533333333333334" stroke="#000" stroke-opacity="0.02" transform="translate(156.66666666666666,0) rotate(180,31.333333333333332,27.13546265191241)"></polyline><polyline points="31.333333333333332,0,62.666666666666664,54.27092530382482,0,54.27092530382482,31.333333333333332,0" fill="#ddd" fill-opacity="0.02" stroke="#000" stroke-opacity="0.02" transform="translate(0,0) rotate(0,31.333333333333332,27.13546265191241)"></polyline><polyline points="31.333333333333332,0,62.666666666666664,54.27092530382482,0,54.27092530382482,31.333333333333332,0" fill="#ddd" fill-opacity="0.08933333333333333" stroke="#000" stroke-opacity="0.02" transform="translate(31.333333333333332,0) rotate(180,31.333333333333332,27.13546265191241)"></polyline><polyline points="31.333333333333332,0,62.666666666666664,54.27092530382482,0,54.27092530382482,31.333333333333332,0" fill="#222" fill-opacity="0.098" stroke="#000" stroke-opacity="0.02" transform="translate(62.66666666666667,0) rotate(0,31.333333333333332,27.13546265191241)"></polyline><polyline points="31.333333333333332,0,62.666666666666664,54.27092530382482,0,54.27092530382482,31.333333333333332,0" fill="#222" fill-opacity="0.11533333333333334" stroke="#000" stroke-opacity="0.02" transform="translate(94,0) rotate(180,31.333333333333332,27.13546265191241)"></polyline><polyline points="31.333333333333332,0,62.666666666666664,54.27092530382482,0,54.27092530382482,31.333333333333332,0" fill="#222" fill-opacity="0.13266666666666665" stroke="#000" stroke-opacity="0.02" transform="translate(125.33333333333333,0) rotate(0,31.333333333333332,27.13546265191241)"></polyline><polyline points="31.333333333333332,0,62.666666666666664,54.27092530382482,0,54.27092530382482,31.333333333333332,0" fill="#222" fill-opacity="0.028666666666666667" stroke="#000" stroke-opacity="0.02" transform="translate(-31.333333333333332,54.27092530382482) rotate(0,31.333333333333332,27.13546265191241)"></polyline><polyline points="31.333333333333332,0,62.666666666666664,54.27092530382482,0,54.27092530382482,31.333333333333332,0" fill="#222" fill-opacity="0.028666666666666667" stroke="#000" stroke-opacity="0.02" transform="translate(156.66666666666666,54.27092530382482) rotate(0,31.333333333333332,27.13546265191241)"></polyline><polyline points="31.333333333333332,0,62.666666666666664,54.27092530382482,0,54.27092530382482,31.333333333333332,0" fill="#ddd" fill-opacity="0.10666666666666667" stroke="#000" stroke-opacity="0.02" transform="translate(0,54.27092530382482) rotate(180,31.333333333333332,27.13546265191241)"></polyline><polyline points="31.333333333333332,0,62.666666666666664,54.27092530382482,0,54.27092530382482,31.333333333333332,0" fill="#ddd" fill-opacity="0.02" stroke="#000" stroke-opacity="0.02" transform="translate(31.333333333333332,54.27092530382482) rotate(0,31.333333333333332,27.13546265191241)"></polyline><polyline points="31.333333333333332,0,62.666666666666664,54.27092530382482,0,54.27092530382482,31.333333333333332,0" fill="#222" fill-opacity="0.06333333333333334" stroke="#000" stroke-opacity="0.02" transform="translate(62.66666666666667,54.27092530382482) rotate(180,31.333333333333332,27.13546265191241)"></polyline><polyline points="31.333333333333332,0,62.666666666666664,54.27092530382482,0,54.27092530382482,31.333333333333332,0" fill="#ddd" fill-opacity="0.03733333333333333" stroke="#000" stroke-opacity="0.02" transform="translate(94,54.27092530382482) rotate(0,31.333333333333332,27.13546265191241)"></polyline><polyline points="31.333333333333332,0,62.666666666666664,54.27092530382482,0,54.27092530382482,31.333333333333332,0" fill="#222" fill-opacity="0.098" stroke="#000" stroke-opacity="0.02" transform="translate(125.33333333333333,54.27092530382482) rotate(180,31.333333333333332,27.13546265191241)"></polyline><polyline points="31.333333333333332,0,62.666666666666664,54.27092530382482,0,54.27092530382482,31.333333333333332,0" fill="#ddd" fill-opacity="0.12400000000000001" stroke="#000" stroke-opacity="0.02" transform="translate(-31.333333333333332,108.54185060764964) rotate(180,31.333333333333332,27.13546265191241)"></polyline><polyline points="31.333333333333332,0,62.666666666666664,54.27092530382482,0,54.27092530382482,31.333333333333332,0" fill="#ddd" fill-opacity="0.12400000000000001" stroke="#000" stroke-opacity="0.02" transform="translate(156.66666666666666,108.54185060764964) rotate(180,31.333333333333332,27.13546265191241)"></polyline><polyline points="31.333333333333332,0,62.666666666666664,54.27092530382482,0,54.27092530382482,31.333333333333332,0" fill="#222" fill-opacity="0.15" stroke="#000" stroke-opacity="0.02" transform="translate(0,108.54185060764964) rotate(0,31.333333333333332,27.13546265191241)"></polyline><polyline points="31.333333333333332,0,62.666666666666664,54.27092530382482,0,54.27092530382482,31.333333333333332,0" fill="#222" fill-opacity="0.046" stroke="#000" stroke-opacity="0.02" transform="translate(31.333333333333332,108.54185060764964) rotate(180,31.333333333333332,27.13546265191241)"></polyline><polyline points="31.333333333333332,0,62.666666666666664,54.27092530382482,0,54.27092530382482,31.333333333333332,0" fill="#ddd" fill-opacity="0.02" stroke="#000" stroke-opacity="0.02" transform="translate(62.66666666666667,108.54185060764964) rotate(0,31.333333333333332,27.13546265191241)"></polyline><polyline points="31.333333333333332,0,62.666666666666664,54.27092530382482,0,54.27092530382482,31.333333333333332,0" fill="#222" fill-opacity="0.08066666666666666" stroke="#000" stroke-opacity="0.02" transform="translate(94,108.54185060764964) rotate(180,31.333333333333332,27.13546265191241)"></polyline><polyline points="31.333333333333332,0,62.666666666666664,54.27092530382482,0,54.27092530382482,31.333333333333332,0" fill="#222" fill-opacity="0.06333333333333334" stroke="#000" stroke-opacity="0.02" transform="translate(125.33333333333333,108.54185060764964) rotate(0,31.333333333333332,27.13546265191241)"></polyline><polyline points="31.333333333333332,0,62.666666666666664,54.27092530382482,0,54.27092530382482,31.333333333333332,0" fill="#222" fill-opacity="0.15" stroke="#000" stroke-opacity="0.02" transform="translate(-31.333333333333332,162.81277591147446) rotate(0,31.333333333333332,27.13546265191241)"></polyline><polyline points="31.333333333333332,0,62.666666666666664,54.27092530382482,0,54.27092530382482,31.333333333333332,0" fill="#222" fill-opacity="0.15" stroke="#000" stroke-opacity="0.02" transform="translate(156.66666666666666,162.81277591147446) rotate(0,31.333333333333332,27.13546265191241)"></polyline><polyline points="31.333333333333332,0,62.666666666666664,54.27092530382482,0,54.27092530382482,31.333333333333332,0" fill="#ddd" fill-opacity="0.02" stroke="#000" stroke-opacity="0.02" transform="translate(0,162.81277591147446) rotate(180,31.333333333333332,27.13546265191241)"></polyline><polyline points="31.333333333333332,0,62.666666666666664,54.27092530382482,0,54.27092530382482,31.333333333333332,0" fill="#ddd" fill-opacity="0.08933333333333333" stroke="#000" stroke-opacity="0.02" transform="translate(31.333333333333332,162.81277591147446) rotate(0,31.333333333333332,27.13546265191241)"></polyline><polyline points="31.333333333333332,0,62.666666666666664,54.27092530382482,0,54.27092530382482,31.333333333333332,0" fill="#222" fill-opacity="0.06333333333333334" stroke="#000" stroke-opacity="0.02" transform="translate(62.66666666666667,162.81277591147446) rotate(180,31.333333333333332,27.13546265191241)"></polyline><polyline points="31.333333333333332,0,62.666666666666664,54.27092530382482,0,54.27092530382482,31.333333333333332,0" fill="#222" fill-opacity="0.08066666666666666" stroke="#000" stroke-opacity="0.02" transform="translate(94,162.81277591147446) rotate(0,31.333333333333332,27.13546265191241)"></polyline><polyline points="31.333333333333332,0,62.666666666666664,54.27092530382482,0,54.27092530382482,31.333333333333332,0" fill="#222" fill-opacity="0.15" stroke="#000" stroke-opacity="0.02" transform="translate(125.33333333333333,162.81277591147446) rotate(180,31.333333333333332,27.13546265191241)"></polyline><polyline points="31.333333333333332,0,62.666666666666664,54.27092530382482,0,54.27092530382482,31.333333333333332,0" fill="#222" fill-opacity="0.15" stroke="#000" stroke-opacity="0.02" transform="translate(-31.333333333333332,217.08370121529927) rotate(180,31.333333333333332,27.13546265191241)"></polyline><polyline points="31.333333333333332,0,62.666666666666664,54.27092530382482,0,54.27092530382482,31.333333333333332,0" fill="#222" fill-opacity="0.15" stroke="#000" stroke-opacity="0.02" transform="translate(156.66666666666666,217.08370121529927) rotate(180,31.333333333333332,27.13546265191241)"></polyline><polyline points="31.333333333333332,0,62.666666666666664,54.27092530382482,0,54.27092530382482,31.333333333333332,0" fill="#222" fill-opacity="0.11533333333333334" stroke="#000" stroke-opacity="0.02" transform="translate(0,217.08370121529927) rotate(0,31.333333333333332,27.13546265191241)"></polyline><polyline points="31.333333333333332,0,62.666666666666664,54.27092530382482,0,54.27092530382482,31.333333333333332,0" fill="#ddd" fill-opacity="0.03733333333333333" stroke="#000" stroke-opacity="0.02" transform="translate(31.333333333333332,217.08370121529927) rotate(180,31.333333333333332,27.13546265191241)"></polyline><polyline points="31.333333333333332,0,62.666666666666664,54.27092530382482,0,54.27092530382482,31.333333333333332,0" fill="#ddd" fill-opacity="0.08933333333333333" stroke="#000" stroke-opacity="0.02" transform="translate(62.66666666666667,217.08370121529927) rotate(0,31.333333333333332,27.13546265191241)"></polyline><polyline points="31.333333333333332,0,62.666666666666664,54.27092530382482,0,54.27092530382482,31.333333333333332,0" fill="#222" fill-opacity="0.028666666666666667" stroke="#000" stroke-opacity="0.02" transform="translate(94,217.08370121529927) rotate(180,31.333333333333332,27.13546265191241)"></polyline><polyline points="31.333333333333332,0,62.666666666666664,54.27092530382482,0,54.27092530382482,31.333333333333332,0" fill="#ddd" fill-opacity="0.05466666666666667" stroke="#000" stroke-opacity="0.02" transform="translate(125.33333333333333,217.08370121529927) rotate(0,31.333333333333332,27.13546265191241)"></polyline><polyline points="31.333333333333332,0,62.666666666666664,54.27092530382482,0,54.27092530382482,31.333333333333332,0" fill="#ddd" fill-opacity="0.10666666666666667" stroke="#000" stroke-opacity="0.02" transform="translate(-31.333333333333332,271.3546265191241) rotate(0,31.333333333333332,27.13546265191241)"></polyline><polyline points="31.333333333333332,0,62.666666666666664,54.27092530382482,0,54.27092530382482,31.333333333333332,0" fill="#ddd" fill-opacity="0.10666666666666667" stroke="#000" stroke-opacity="0.02" transform="translate(156.66666666666666,271.3546265191241) rotate(0,31.333333333333332,27.13546265191241)"></polyline><polyline points="31.333333333333332,0,62.666666666666664,54.27092530382482,0,54.27092530382482,31.333333333333332,0" fill="#ddd" fill-opacity="0.14133333333333334" stroke="#000" stroke-opacity="0.02" transform="translate(0,271.3546265191241) rotate(180,31.333333333333332,27.13546265191241)"></polyline><polyline points="31.333333333333332,0,62.666666666666664,54.27092530382482,0,54.27092530382482,31.333333333333332,0" fill="#ddd" fill-opacity="0.07200000000000001" stroke="#000" stroke-opacity="0.02" transform="translate(31.333333333333332,271.3546265191241) rotate(0,31.333333333333332,27.13546265191241)"></polyline><polyline points="31.333333333333332,0,62.666666666666664,54.27092530382482,0,54.27092530382482,31.333333333333332,0" fill="#ddd" fill-opacity="0.08933333333333333" stroke="#000" stroke-opacity="0.02" transform="translate(62.66666666666667,271.3546265191241) rotate(180,31.333333333333332,27.13546265191241)"></polyline><polyline points="31.333333333333332,0,62.666666666666664,54.27092530382482,0,54.27092530382482,31.333333333333332,0" fill="#222" fill-opacity="0.08066666666666666" stroke="#000" stroke-opacity="0.02" transform="translate(94,271.3546265191241) rotate(0,31.333333333333332,27.13546265191241)"></polyline><polyline points="31.333333333333332,0,62.666666666666664,54.27092530382482,0,54.27092530382482,31.333333333333332,0" fill="#222" fill-opacity="0.15" stroke="#000" stroke-opacity="0.02" transform="translate(125.33333333333333,271.3546265191241) rotate(180,31.333333333333332,27.13546265191241)"></polyline></svg>