<svg xmlns="http://www.w3.org/2000/svg" width="160" height="160"><rect x="0" y="0" width="100%" height="100%" fill="rgb(65,135,142)"></rect><polyline points="8.8,0,17.866666666666667,0,26.666666666666668,8.8,26.666666666666668,17.866666666666667,17.866666666666667,26.666666666666668,8.8,26.666666666666668,0,17.866666666666667,0,8.8,8.8,0" fill="#222" fill-opacity="0.06333333333333334" stroke="#000" stroke-opacity="0.02" transform="translate(0,0)"></polyline><polyline points="8.8,0,17.866666666666667,0,26.666666666666668,8.8,26.666666666666668,17.866666666666667,17.866666666666667,26.666666666666668,8.8,26.666666666666668,0,17.866666666666667,0,8.8,8.8,0" fill="#222" fill-opacity="0.11533333333333334" stroke="#000" stroke-opacity="0.02" transform="translate(26.666666666666668,0)"></polyline><polyline points="8.8,0,17.866666666666667,0,26.666666666666668,8.8,26.666666666666668,17.866666666666667,17.866666666666667,26.666666666666668,8.8,26.666666666666668,0,17.866666666666667,0,8.8,8.8,0" fill="#222" fill-opacity="0.098" stroke="#000" stroke-opacity="0.02" transform="translate(53.333333333333336,0)"></polyline><polyline points="8.8,0,17.866666666666667,0,26.666666666666668,8.8,26.666666666666668,17.866666666666667,17.866666666666667,26.666666666666668,8.8,26.666666666666668,0,17.866666666666667,0,8.8,8.8,0" fill="#ddd" fill-opacity="0.03733333333333333" stroke="#000" stroke-opacity="0.02" transform="translate(80,0)"></polyline><polyline points="8.8,0,17.866666666666667,0,26.666666666666668,8.8,26.666666666666668,17.866666666666667,17.866666666666667,26.666666666666668,8.8,26.666666666666668,0,17.866666666666667,0,8.8,8.8,0" fill="#222" fill-opacity="0.06333333333333334" stroke="#000" stroke-opacity="0.02" transform="translate(106.66666666666667,0)"></polyline><polyline points="8.8,0,17.866666666666667,0,26.666666666666668,8.8,26.666666666666668,17.866666666666667,17.866666666666667,26.666666666666668,8.8,26.666666666666668,0,17.866666666666667,0,8.8,8.8,0" fill="#ddd" fill-opacity="0.08933333333333333" stroke="#000" stroke-opacity="0.02" transform="translate(133.33333333333334,0)"></polyline><polyline points="8.8,0,17.866666666666667,0,26.666666666666668,8.8,26.666666666666668,17.866666666666667,17.866666666666667,26.666666666666668,8.8,26.666666666666668,0,17.866666666666667,0,8.8,8.8,0" fill="#222" fill-opacity="0.028666666666666667" stroke="#000" stroke-opacity="0.02" transform="translate(0,26.666666666666668)"></polyline><polyline points="8.8,0,17.866666666666667,0,26.666666666666668,8.8,26.666666666666668,17.866666666666667,17.866666666666667,26.666666666666668,8.8,26.666666666666668,0,17.866666666666667,0,8.8,8.8,0" fill="#ddd" fill-opacity="0.07200000000000001" stroke="#000" stroke-opacity="0.02" transform="translate(26.666666666666668,26.666666666666668)"></polyline><polyline points="8.8,0,17.866666666666667,0,26.666666666666668,8.8,26.666666666666668,17.866666666666667,17.866666666666667,26.666666666666668,8.8,26.666666666666668,0,17.866666666666667,0,8.8,8.8,0" fill="#222" fill-opacity="0.08066666666666666" stroke="#000" stroke-opacity="0.02" transform="translate(53.333333333333336,26.666666666666668)"></polyline><polyline points="8.8,0,17.866666666666667,0,26.666666666666668,8.8,26.666666666666668,17.866666666666667,17.866666666666667,26.666666666666668,8.8,26.666666666666668,0,17.866666666666667,0,8.8,8.8,0" fill="#222" fill-opacity="0.11533333333333334" stroke="#000" stroke-opacity="0.02" transform="translate(80,26.666666666666668)"></polyline><polyline points="8.8,0,17.866666666666667,0,26.666666666666668,8.8,26.666666666666668,17.866666666666667,17.866666666666667,26.666666666666668,8.8,26.666666666666668,0,17.866666666666667,0,8.8,8.8,0" fill="#ddd" fill-opacity="0.05466666666666667" stroke="#000" stroke-opacity="0.02" transform="translate(106.66666666666667,26.666666666666668)"></polyline><polyline points="8.8,0,17.866666666666667,0,26.666666666666668,8.8,26.666666666666668,17.866666666666667,17.866666666666667,26.666666666666668,8.8,26.666666666666668,0,17.866666666666667,0,8.8,8.8,0" fill="#ddd" fill-opacity="0.03733333333333333" stroke="#000" stroke-opacity="0.02" transform="translate(133.33333333333334,26.666666666666668)"></polyline><polyline points="8.8,0,17.866666666666667,0,26.666666666666668,8.8,26.666666666666668,17.866666666666667,17.866666666666667,26.666666666666668,8.8,26.666666666666668,0,17.866666666666667,0,8.8,8.8,0" fill="#ddd" fill-opacity="0.12400000000000001" stroke="#000" stroke-opacity="0.02" transform="translate(0,53.333333333333336)"></polyline><polyline points="8.8,0,17.866666666666667,0,26.666666666666668,8.8,26.666666666666668,17.866666666666667,17.866666666666667,26.666666666666668,8.8,26.666666666666668,0,17.866666666666667,0,8.8,8.8,0" fill="#222" fill-opacity="0.046" stroke="#000" stroke-opacity="0.02" transform="translate(26.666666666666668,53.333333333333336)"></polyline><polyline points="8.8,0,17.866666666666667,0,26.666666666666668,8.8,26.666666666666668,17.866666666666667,17.866666666666667,26.666666666666668,8.8,26.666666666666668,0,17.866666666666667,0,8.8,8.8,0" fill="#222" fill-opacity="0.08066666666666666" stroke="#000" stroke-opacity="0.02" transform="translate(53.333333333333336,53.333333333333336)"></polyline><polyline points="8.8,0,17.866666666666667,0,26.666666666666668,8.8,26.666666666666668,17.866666666666667,17.866666666666667,26.666666666666668,8.8,26.666666666666668,0,17.866666666666667,0,8.8,8.8,0" fill="#ddd" fill-opacity="0.12400000000000001" stroke="#000" stroke-opacity="0.02" transform="translate(80,53.333333333333336)"></polyline><polyline points="8.8,0,17.866666666666667,0,26.666666666666668,8.8,26.666666666666668,17.866666666666667,17.866666666666667,26.666666666666668,8.8,26.666666666666668,0,17.866666666666667,0,8.8,8.8,0" fill="#222" fill-opacity="0.06333333333333334" stroke="#000" stroke-opacity="0.02" transform="translate(106.66666666666667,53.333333333333336)"></polyline><polyline points="8.8,0,17.866666666666667,0,26.666666666666668,8.8,26.666666666666668,17.866666666666667,17.866666666666667,26.666666666666668,8.8,26.666666666666668,0,17.866666666666667,0,8.8,8.8,0" fill="#222" fill-opacity="0.06333333333333334" stroke="#000" stroke-opacity="0.02" transform="translate(133.33333333333334,53.333333333333336)"></polyline><polyline points="8.8,0,17.866666666666667,0,26.666666666666668,8.8,26.666666666666668,17.866666666666667,17.866666666666667,26.666666666666668,8.8,26.666666666666668,0,17.866666666666667,0,8.8,8.8,0" fill="#222" fill-opacity="0.13266666666666665" stroke="#000" stroke-opacity="0.02" transform="translate(0,80)"></polyline><polyline points="8.8,0,17.866666666666667,0,26.666666666666668,8.8,26.666666666666668,17.866666666666667,17.866666666666667,26.666666666666668,8.8,26.666666666666668,0,17.866666666666667,0,8.8,8.8,0" fill="#222" fill-opacity="0.06333333333333334" stroke="#000" stroke-opacity="0.02" transform="translate(26.666666666666668,80)"></polyline><polyline points="8.8,0,17.866666666666667,0,26.666666666666668,8.8,26.666666666666668,17.866666666666667,17.866666666666667,26.666666666666668,8.8,26.666666666666668,0,17.866666666666667,0,8.8,8.8,0" fill="#ddd" fill-opacity="0.02" stroke="#000" stroke-opacity="0.02" transform="translate(53.333333333333336,80)"></polyline><polyline points="8.8,0,17.866666666666667,0,26.666666666666668,8.8,26.666666666666668,17.866666666666667,17.866666666666667,26.666666666666668,8.8,26.666666666666668,0,17.866666666666667,0,8.8,8.8,0" fill="#ddd" fill-opacity="0.08933333333333333" stroke="#000" stroke-opacity="0.02" transform="translate(80,80)"></polyline><polyline points="8.8,0,17.866666666666667,0,26.666666666666668,8.8,26.666666666666668,17.866666666666667,17.866666666666667,26.666666666666668,8.8,26.666666666666668,0,17.866666666666667,0,8.8,8.8,0" fill="#ddd" fill-opacity="0.05466666666666667" stroke="#000" stroke-opacity="0.02" transform="translate(106.66666666666667,80)"></polyline><polyline points="8.8,0,17.866666666666667,0,26.666666666666668,8.8,26.666666666666668,17.866666666666667,17.866666666666667,26.666666666666668,8.8,26.666666666666668,0,17.866666666666667,0,8.8,8.8,0" fill="#222" fill-opacity="0.08066666666666666" stroke="#000" stroke-opacity="0.02" transform="translate(133.33333333333334,80)"></polyline><polyline points="8.8,0,17.866666666666667,0,26.666666666666668,8.8,26.666666666666668,17.866666666666667,17.866666666666667,26.666666666666668,8.8,26.666666666666668,0,17.866666666666667,0,8.8,8.8,0" fill="#ddd" fill-opacity="0.10666666666666667" stroke="#000" stroke-opacity="0.02" transform="translate(0,106.66666666666667)"></polyline><polyline points="8.8,0,17.866666666666667,0,26.666666666666668,8.8,26.666666666666668,17.866666666666667,17.866666666666667,26.666666666666668,8.8,26.666666666666668,0,17.866666666666667,0,8.8,8.8,0" fill="#ddd" fill-opacity="0.08933333333333333" stroke="#000" stroke-opacity="0.02" transform="translate(26.666666666666668,106.66666666666667)"></polyline><polyline points="8.8,0,17.866666666666667,0,26.666666666666668,8.8,26.666666666666668,17.866666666666667,17.866666666666667,26.666666666666668,8.8,26.666666666666668,0,17.866666666666667,0,8.8,8.8,0" fill="#ddd" fill-opacity="0.05466666666666667" stroke="#000" stroke-opacity="0.02" transform="translate(53.333333333333336,106.66666666666667)"></polyline><polyline points="8.8,0,17.866666666666667,0,26.666666666666668,8.8,26.666666666666668,17.866666666666667,17.866666666666667,26.666666666666668,8.8,26.666666666666668,0,17.866666666666667,0,8.8,8.8,0" fill="#222" fill-opacity="0.08066666666666666" stroke="#000" stroke-opacity="0.02" transform="translate(80,106.66666666666667)"></polyline><polyline points="8.8,0,17.866666666666667,0,26.666666666666668,8.8,26.666666666666668,17.866666666666667,17.866666666666667,26.666666666666668,8.8,26.666666666666668,0,17.866666666666667,0,8.8,8.8,0" fill="#222" fill-opacity="0.15" stroke="#000" stroke-opacity="0.02" transform="translate(106.66666666666667,106.66666666666667)"></polyline><polyline points="8.8,0,17.866666666666667,0,26.666666666666668,8.8,26.666666666666668,17.866666666666667,17.866666666666667,26.666666666666668,8.8,26.666666666666668,0,17.866666666666667,0,8.8,8.8,0" fill="#ddd" fill-opacity="0.07200000000000001" stroke="#000" stroke-opacity="0.02" transform="translate(133.33333333333334,106.66666666666667)"></polyline><polyline points="8.8,0,17.866666666666667,0,26.666666666666668,8.8,26.666666666666668,17.866666666666667,17.866666666666667,26.666666666666668,8.8,26.666666666666668,0,17.866666666666667,0,8.8,8.8,0" fill="#ddd" fill-opacity="0.08933333333333333" stroke="#000" stroke-opacity="0.02" transform="translate(0,133.33333333333334)"></polyline><polyline points="8.8,0,17.866666666666667,0,26.666666666666668,8.8,26.666666666666668,17.866666666666667,17.866666666666667,26.666666666666668,8.8,26.666666666666668,0,17.866666666666667,0,8.8,8.8,0" fill="#ddd" fill-opacity="0.10666666666666667" stroke="#000" stroke-opacity="0.02" transform="translate(26.666666666666668,133.33333333333334)"></polyline><polyline points="8.8,0,17.866666666666667,0,26.666666666666668,8.8,26.666666666666668,17.866666666666667,17.866666666666667,26.666666666666668,8.8,26.666666666666668,0,17.866666666666667,0,8.8,8.8,0" fill="#222" fill-opacity="0.06333333333333334" stroke="#000" stroke-opacity="0.02" transform="translate(53.333333333333336,133.33333333333334)"></polyline><polyline points="8.8,0,17.866666666666667,0,26.666666666666668,8.8,26.666666666666668,17.866666666666667,17.866666666666667,26.666666666666668,8.8,26.666666666666668,0,17.866666666666667,0,8.8,8.8,0" fill="#ddd" fill-opacity="0.10666666666666667" stroke="#000" stroke-opacity="0.02" transform="translate(80,133.33333333333334)"></polyline><polyline points="8.8,0,17.866666666666667,0,26.666666666666668,8.8,26.666666666666668,17.866666666666667,17.866666666666667,26.666666666666668,8.8,26.666666666666668,0,17.866666666666667,0,8.8,8.8,0" fill="#222" fill-opacity="0.06333333333333334" stroke="#000" stroke-opacity="0.02" transform="translate(106.66666666666667,133.33333333333334)"></polyline><polyline points="8.8,0,17.866666666666667,0,26.666666666666668,8.8,26.666666666666668,17.866666666666667,17.866666666666667,26.666666666666668,8.8,26.666666666666668,0,17.866666666666667,0,8.8,8.8,0" fill="#222" fill-opacity="0.13266666666666665" stroke="#000" stroke-opacity="0.02" transform="translate(133.33333333333334,133.33333333333334)"></polyline></svg>