<svg xmlns="http://www.w3.org/2000/svg" width="60" height="60"><rect x="0" y="0" width="100%" height="100%" fill="rgb(56,151,63)"></rect><circle cx="0" cy="0" r="8.75" fill="none" stroke="#ddd" opacity="0.02" stroke-width="2.5px"></circle><circle cx="60" cy="0" r="8.75" fill="none" stroke="#ddd" opacity="0.02" stroke-width="2.5px"></circle><circle cx="0" cy="60" r="8.75" fill="none" stroke="#ddd" opacity="0.02" stroke-width="2.5px"></circle><circle cx="60" cy="60" r="8.75" fill="none" stroke="#ddd" opacity="0.02" stroke-width="2.5px"></circle><circle cx="10" cy="0" r="8.75" fill="none" stroke="#222" opacity="0.06333333333333334" stroke-width="2.5px"></circle><circle cx="10" cy="60" r="8.75" fill="none" stroke="#222" opacity="0.06333333333333334" stroke-width="2.5px"></circle><circle cx="20" cy="0" r="8.75" fill="none" stroke="#222" opacity="0.13266666666666665" stroke-width="2.5px"></circle><circle cx="20" cy="60" r="8.75" fill="none" stroke="#222" opacity="0.13266666666666665" stroke-width="2.5px"></circle><circle cx="30" cy="0" r="8.75" fill="none" stroke="#ddd" opacity="0.07200000000000001" stroke-width="2.5px"></circle><circle cx="30" cy="60" r="8.75" fill="none" stroke="#ddd" opacity="0.07200000000000001" stroke-width="2.5px"></circle><circle cx="40" cy="0" r="8.75" fill="none" stroke="#ddd" opacity="0.07200000000000001" stroke-width="2.5px"></circle><circle cx="40" cy="60" r="8.75" fill="none" stroke="#ddd" opacity="0.07200000000000001" stroke-width="2.5px"></circle><circle cx="50" cy="0" r="8.75" fill="none" stroke="#222" opacity="0.06333333333333334" stroke-width="2.5px"></circle><circle cx="50" cy="60" r="8.75" fill="none" stroke="#222" opacity="0.06333333333333334" stroke-width="2.5px"></circle><circle cx="0" cy="10" r="8.75" fill="none" stroke="#ddd" opacity="0.12400000000000001" stroke-width="2.5px"></circle><circle cx="60" cy="10" r="8.75" fill="none" stroke="#ddd" opacity="0.12400000000000001" stroke-width="2.5px"></circle><circle cx="10" cy="10" r="8.75" fill="none" stroke="#222" opacity="0.098" stroke-width="2.5px"></circle><circle cx="20" cy="10" r="8.75" fill="none" stroke="#222" opacity="0.046" stroke-width="2.5px"></circle><circle cx="30" cy="10" r="8.75" fill="none" stroke="#222" opacity="0.046" stroke-width="2.5px"></circle><circle cx="40" cy="10" r="8.75" fill="none" stroke="#ddd" opacity="0.05466666666666667" stroke-width="2.5px"></circle><circle cx="50" cy="10" r="8.75" fill="none" stroke="#ddd" opacity="0.10666666666666667" stroke-width="2.5px"></circle><circle cx="0" cy="20" r="8.75" fill="none" stroke="#ddd" opacity="0.03733333333333333" stroke-width="2.5px"></circle><circle cx="60" cy="20" r="8.75" fill="none" stroke="#ddd" opacity="0.03733333333333333" stroke-width="2.5px"></circle><circle cx="10" cy="20" r="8.75" fill="none" stroke="#ddd" opacity="0.08933333333333333" stroke-width="2.5px"></circle><circle cx="20" cy="20" r="8.75" fill="none" stroke="#ddd" opacity="0.10666666666666667" stroke-width="2.5px"></circle><circle cx="30" cy="20" r="8.75" fill="none" stroke="#222" opacity="0.08066666666666666" stroke-width="2.5px"></circle><circle cx="40" cy="20" r="8.75" fill="none" stroke="#222" opacity="0.15" stroke-width="2.5px"></circle><circle cx="50" cy="20" r="8.75" fill="none" stroke="#ddd" opacity="0.05466666666666667" stroke-width="2.5px"></circle><circle cx="0" cy="30" r="8.75" fill="none" stroke="#ddd" opacity="0.07200000000000001" stroke-width="2.5px"></circle><circle cx="60" cy="30" r="8.75" fill="none" stroke="#ddd" opacity="0.07200000000000001" stroke-width="2.5px"></circle><circle cx="10" cy="30" r="8.75" fill="none" stroke="#222" opacity="0.098" stroke-width="2.5px"></circle><circle cx="20" cy="30" r="8.75" fill="none" stroke="#ddd" opacity="0.07200000000000001" stroke-width="2.5px"></circle><circle cx="30" cy="30" r="8.75" fill="none" stroke="#ddd" opacity="0.14133333333333334" stroke-width="2.5px"></circle><circle cx="40" cy="30" r="8.75" fill="none" stroke="#ddd" opacity="0.03733333333333333" stroke-width="2.5px"></circle><circle cx="50" cy="30" r="8.75" fill="none" stroke="#222" opacity="0.06333333333333334" stroke-width="2.5px"></circle><circle cx="0" cy="40" r="8.75" fill="none" stroke="#222" opacity="0.06333333333333334" stroke-width="2.5px"></circle><circle cx="60" cy="40" r="8.75" fill="none" stroke="#222" opacity="0.06333333333333334" stroke-width="2.5px"></circle><circle cx="10" cy="40" r="8.75" fill="none" stroke="#ddd" opacity="0.02" stroke-width="2.5px"></circle><circle cx="20" cy="40" r="8.75" fill="none" stroke="#222" opacity="0.046" stroke-width="2.5px"></circle><circle cx="30" cy="40" r="8.75" fill="none" stroke="#ddd" opacity="0.03733333333333333" stroke-width="2.5px"></circle><circle cx="40" cy="40" r="8.75" fill="none" stroke="#222" opacity="0.08066666666666666" stroke-width="2.5px"></circle><circle cx="50" cy="40" r="8.75" fill="none" stroke="#ddd" opacity="0.08933333333333333" stroke-width="2.5px"></circle><circle cx="0" cy="50" r="8.75" fill="none" stroke="#ddd" opacity="0.08933333333333333" stroke-width="2.5px"></circle><circle cx="60" cy="50" r="8.75" fill="none" stroke="#ddd" opacity="0.08933333333333333" stroke-width="2.5px"></circle><circle cx="10" cy="50" r="8.75" fill="none" stroke="#222" opacity="0.028666666666666667" stroke-width="2.5px"></circle><circle cx="20" cy="50" r="8.75" fill="none" stroke="#ddd" opacity="0.07200000000000001" stroke-width="2.5px"></circle><circle cx="30" cy="50" r="8.75" fill="none" stroke="#222" opacity="0.08066666666666666" stroke-width="2.5px"></circle><circle cx="40" cy="50" r="8.75" fill="none" stroke="#ddd" opacity="0.10666666666666667" stroke-width="2.5px"></circle><circle cx="50" cy="50" r="8.75" fill="none" stroke="#ddd" opacity="0.14133333333333334" stroke-width="2.5px"></circle></svg>