<svg xmlns="http://www.w3.org/2000/svg" width="120" height="120"><rect x="0" y="0" width="100%" height="100%" fill="rgb(131,117,76)"></rect><polyline points="6.6000000000000005,0,13.399999999999999,0,20,6.6000000000000005,20,13.399999999999999,13.399999999999999,20,6.6000000000000005,20,0,13.399999999999999,0,6.6000000000000005,6.6000000000000005,0" fill="#222" fill-opacity="0.046" stroke="#000" stroke-opacity="0.02" transform="translate(0,0)"></polyline><polyline points="6.6000000000000005,0,13.399999999999999,0,20,6.6000000000000005,20,13.399999999999999,13.399999999999999,20,6.6000000000000005,20,0,13.399999999999999,0,6.6000000000000005,6.6000000000000005,0" fill="#ddd" fill-opacity="0.07200000000000001" stroke="#000" stroke-opacity="0.02" transform="translate(20,0)"></polyline><polyline points="6.6000000000000005,0,13.399999999999999,0,20,6.6000000000000005,20,13.399999999999999,13.399999999999999,20,6.6000000000000005,20,0,13.399999999999999,0,6.6000000000000005,6.6000000000000005,0" fill="#222" fill-opacity="0.046" stroke="#000" stroke-opacity="0.02" transform="translate(40,0)"></polyline><polyline points="6.6000000000000005,0,13.399999999999999,0,20,6.6000000000000005,20,13.399999999999999,13.399999999999999,20,6.6000000000000005,20,0,13.399999999999999,0,6.6000000000000005,6.6000000000000005,0" fill="#ddd" fill-opacity="0.12400000000000001" stroke="#000" stroke-opacity="0.02" transform="translate(60,0)"></polyline><polyline points="6.6000000000000005,0,13.399999999999999,0,20,6.6000000000000005,20,13.399999999999999,13.399999999999999,20,6.6000000000000005,20,0,13.399999999999999,0,6.6000000000000005,6.6000000000000005,0" fill="#ddd" fill-opacity="0.10666666666666667" stroke="#000" stroke-opacity="0.02" transform="translate(80,0)"></polyline><polyline points="6.6000000000000005,0,13.399999999999999,0,20,6.6000000000000005,20,13.399999999999999,13.399999999999999,20,6.6000000000000005,20,0,13.399999999999999,0,6.6000000000000005,6.6000000000000005,0" fill="#222" fill-opacity="0.06333333333333334" stroke="#000" stroke-opacity="0.02" transform="translate(100,0)"></polyline><polyline points="6.6000000000000005,0,13.399999999999999,0,20,6.6000000000000005,20,13.399999999999999,13.399999999999999,20,6.6000000000000005,20,0,13.399999999999999,0,6.6000000000000005,6.6000000000000005,0" fill="#ddd" fill-opacity="0.02" stroke="#000" stroke-opacity="0.02" transform="translate(0,20)"></polyline><polyline points="6.6000000000000005,0,13.399999999999999,0,20,6.6000000000000005,20,13.399999999999999,13.399999999999999,20,6.6000000000000005,20,0,13.399999999999999,0,6.6000000000000005,6.6000000000000005,0" fill="#222" fill-opacity="0.028666666666666667" stroke="#000" stroke-opacity="0.02" transform="translate(20,20)"></polyline><polyline points="6.6000000000000005,0,13.399999999999999,0,20,6.6000000000000005,20,13.399999999999999,13.399999999999999,20,6.6000000000000005,20,0,13.399999999999999,0,6.6000000000000005,6.6000000000000005,0" fill="#222" fill-opacity="0.06333333333333334" stroke="#000" stroke-opacity="0.02" transform="translate(40,20)"></polyline><polyline points="6.6000000000000005,0,13.399999999999999,0,20,6.6000000000000005,20,13.399999999999999,13.399999999999999,20,6.6000000000000005,20,0,13.399999999999999,0,6.6000000000000005,6.6000000000000005,0" fill="#222" fill-opacity="0.11533333333333334" stroke="#000" stroke-opacity="0.02" transform="translate(60,20)"></polyline><polyline points="6.6000000000000005,0,13.399999999999999,0,20,6.6000000000000005,20,13.399999999999999,13.399999999999999,20,6.6000000000000005,20,0,13.399999999999999,0,6.6000000000000005,6.6000000000000005,0" fill="#ddd" fill-opacity="0.05466666666666667" stroke="#000" stroke-opacity="0.02" transform="translate(80,20)"></polyline><polyline points="6.6000000000000005,0,13.399999999999999,0,20,6.6000000000000005,20,13.399999999999999,13.399999999999999,20,6.6000000000000005,20,0,13.399999999999999,0,6.6000000000000005,6.6000000000000005,0" fill="#222" fill-opacity="0.08066666666666666" stroke="#000" stroke-opacity="0.02" transform="translate(100,20)"></polyline><polyline points="6.6000000000000005,0,13.399999999999999,0,20,6.6000000000000005,20,13.399999999999999,13.399999999999999,20,6.6000000000000005,20,0,13.399999999999999,0,6.6000000000000005,6.6000000000000005,0" fill="#222" fill-opacity="0.11533333333333334" stroke="#000" stroke-opacity="0.02" transform="translate(0,40)"></polyline><polyline points="6.6000000000000005,0,13.399999999999999,0,20,6.6000000000000005,20,13.399999999999999,13.399999999999999,20,6.6000000000000005,20,0,13.399999999999999,0,6.6000000000000005,6.6000000000000005,0" fill="#222" fill-opacity="0.06333333333333334" stroke="#000" stroke-opacity="0.02" transform="translate(20,40)"></polyline><polyline points="6.6000000000000005,0,13.399999999999999,0,20,6.6000000000000005,20,13.399999999999999,13.399999999999999,20,6.6000000000000005,20,0,13.399999999999999,0,6.6000000000000005,6.6000000000000005,0" fill="#ddd" fill-opacity="0.14133333333333334" stroke="#000" stroke-opacity="0.02" transform="translate(40,40)"></polyline><polyline points="6.6000000000000005,0,13.399999999999999,0,20,6.6000000000000005,20,13.399999999999999,13.399999999999999,20,6.6000000000000005,20,0,13.399999999999999,0,6.6000000000000005,6.6000000000000005,0" fill="#ddd" fill-opacity="0.02" stroke="#000" stroke-opacity="0.02" transform="translate(60,40)"></polyline><polyline points="6.6000000000000005,0,13.399999999999999,0,20,6.6000000000000005,20,13.399999999999999,13.399999999999999,20,6.6000000000000005,20,0,13.399999999999999,0,6.6000000000000005,6.6000000000000005,0" fill="#ddd" fill-opacity="0.12400000000000001" stroke="#000" stroke-opacity="0.02" transform="translate(80,40)"></polyline><polyline points="6.6000000000000005,0,13.399999999999999,0,20,6.6000000000000005,20,13.399999999999999,13.399999999999999,20,6.6000000000000005,20,0,13.399999999999999,0,6.6000000000000005,6.6000000000000005,0" fill="#222" fill-opacity="0.15" stroke="#000" stroke-opacity="0.02" transform="translate(100,40)"></polyline><polyline points="6.6000000000000005,0,13.399999999999999,0,20,6.6000000000000005,20,13.399999999999999,13.399999999999999,20,6.6000000000000005,20,0,13.399999999999999,0,6.6000000000000005,6.6000000000000005,0" fill="#ddd" fill-opacity="0.05466666666666667" stroke="#000" stroke-opacity="0.02" transform="translate(0,60)"></polyline><polyline points="6.6000000000000005,0,13.399999999999999,0,20,6.6000000000000005,20,13.399999999999999,13.399999999999999,20,6.6000000000000005,20,0,13.399999999999999,0,6.6000000000000005,6.6000000000000005,0" fill="#ddd" fill-opacity="0.14133333333333334" stroke="#000" stroke-opacity="0.02" transform="translate(20,60)"></polyline><polyline points="6.6000000000000005,0,13.399999999999999,0,20,6.6000000000000005,20,13.399999999999999,13.399999999999999,20,6.6000000000000005,20,0,13.399999999999999,0,6.6000000000000005,6.6000000000000005,0" fill="#ddd" fill-opacity="0.02" stroke="#000" stroke-opacity="0.02" transform="translate(40,60)"></polyline><polyline points="6.6000000000000005,0,13.399999999999999,0,20,6.6000000000000005,20,13.399999999999999,13.399999999999999,20,6.6000000000000005,20,0,13.399999999999999,0,6.6000000000000005,6.6000000000000005,0" fill="#ddd" fill-opacity="0.14133333333333334" stroke="#000" stroke-opacity="0.02" transform="translate(60,60)"></polyline><polyline points="6.6000000000000005,0,13.399999999999999,0,20,6.6000000000000005,20,13.399999999999999,13.399999999999999,20,6.6000000000000005,20,0,13.399999999999999,0,6.6000000000000005,6.6000000000000005,0" fill="#ddd" fill-opacity="0.10666666666666667" stroke="#000" stroke-opacity="0.02" transform="translate(80,60)"></polyline><polyline points="6.6000000000000005,0,13.399999999999999,0,20,6.6000000000000005,20,13.399999999999999,13.399999999999999,20,6.6000000000000005,20,0,13.399999999999999,0,6.6000000000000005,6.6000000000000005,0" fill="#222" fill-opacity="0.028666666666666667" stroke="#000" stroke-opacity="0.02" transform="translate(100,60)"></polyline><polyline points="6.6000000000000005,0,13.399999999999999,0,20,6.6000000000000005,20,13.399999999999999,13.399999999999999,20,6.6000000000000005,20,0,13.399999999999999,0,6.6000000000000005,6.6000000000000005,0" fill="#222" fill-opacity="0.08066666666666666" stroke="#000" stroke-opacity="0.02" transform="translate(0,80)"></polyline><polyline points="6.6000000000000005,0,13.399999999999999,0,20,6.6000000000000005,20,13.399999999999999,13.399999999999999,20,6.6000000000000005,20,0,13.399999999999999,0,6.6000000000000005,6.6000000000000005,0" fill="#222" fill-opacity="0.13266666666666665" stroke="#000" stroke-opacity="0.02" transform="translate(20,80)"></polyline><polyline points="6.6000000000000005,0,13.399999999999999,0,20,6.6000000000000005,20,13.399999999999999,13.399999999999999,20,6.6000000000000005,20,0,13.399999999999999,0,6.6000000000000005,6.6000000000000005,0" fill="#222" fill-opacity="0.098" stroke="#000" stroke-opacity="0.02" transform="translate(40,80)"></polyline><polyline points="6.6000000000000005,0,13.399999999999999,0,20,6.6000000000000005,20,13.399999999999999,13.399999999999999,20,6.6000000000000005,20,0,13.399999999999999,0,6.6000000000000005,6.6000000000000005,0" fill="#222" fill-opacity="0.098" stroke="#000" stroke-opacity="0.02" transform="translate(60,80)"></polyline><polyline points="6.6000000000000005,0,13.399999999999999,0,20,6.6000000000000005,20,13.399999999999999,13.399999999999999,20,6.6000000000000005,20,0,13.399999999999999,0,6.6000000000000005,6.6000000000000005,0" fill="#ddd" fill-opacity="0.08933333333333333" stroke="#000" stroke-opacity="0.02" transform="translate(80,80)"></polyline><polyline points="6.6000000000000005,0,13.399999999999999,0,20,6.6000000000000005,20,13.399999999999999,13.399999999999999,20,6.6000000000000005,20,0,13.399999999999999,0,6.6000000000000005,6.6000000000000005,0" fill="#222" fill-opacity="0.06333333333333334" stroke="#000" stroke-opacity="0.02" transform="translate(100,80)"></polyline><polyline points="6.6000000000000005,0,13.399999999999999,0,20,6.6000000000000005,20,13.399999999999999,13.399999999999999,20,6.6000000000000005,20,0,13.399999999999999,0,6.6000000000000005,6.6000000000000005,0" fill="#ddd" fill-opacity="0.05466666666666667" stroke="#000" stroke-opacity="0.02" transform="translate(0,100)"></polyline><polyline points="6.6000000000000005,0,13.399999999999999,0,20,6.6000000000000005,20,13.399999999999999,13.399999999999999,20,6.6000000000000005,20,0,13.399999999999999,0,6.6000000000000005,6.6000000000000005,0" fill="#ddd" fill-opacity="0.08933333333333333" stroke="#000" stroke-opacity="0.02" transform="translate(20,100)"></polyline><polyline points="6.6000000000000005,0,13.399999999999999,0,20,6.6000000000000005,20,13.399999999999999,13.399999999999999,20,6.6000000000000005,20,0,13.399999999999999,0,6.6000000000000005,6.6000000000000005,0" fill="#ddd" fill-opacity="0.03733333333333333" stroke="#000" stroke-opacity="0.02" transform="translate(40,100)"></polyline><polyline points="6.6000000000000005,0,13.399999999999999,0,20,6.6000000000000005,20,13.399999999999999,13.399999999999999,20,6.6000000000000005,20,0,13.399999999999999,0,6.6000000000000005,6.6000000000000005,0" fill="#ddd" fill-opacity="0.12400000000000001" stroke="#000" stroke-opacity="0.02" transform="translate(60,100)"></polyline><polyline points="6.6000000000000005,0,13.399999999999999,0,20,6.6000000000000005,20,13.399999999999999,13.399999999999999,20,6.6000000000000005,20,0,13.399999999999999,0,6.6000000000000005,6.6000000000000005,0" fill="#222" fill-opacity="0.046" stroke="#000" stroke-opacity="0.02" transform="translate(80,100)"></polyline><polyline points="6.6000000000000005,0,13.399999999999999,0,20,6.6000000000000005,20,13.399999999999999,13.399999999999999,20,6.6000000000000005,20,0,13.399999999999999,0,6.6000000000000005,6.6000000000000005,0" fill="#ddd" fill-opacity="0.10666666666666667" stroke="#000" stroke-opacity="0.02" transform="translate(100,100)"></polyline></svg>