<svg xmlns="http://www.w3.org/2000/svg" width="240" height="240"><rect x="0" y="0" width="100%" height="100%" fill="rgb(73,122,134)"></rect><circle cx="0" cy="0" r="35" fill="none" stroke="#222" opacity="0.098" stroke-width="10px"></circle><circle cx="240" cy="0" r="35" fill="none" stroke="#222" opacity="0.098" stroke-width="10px"></circle><circle cx="0" cy="240" r="35" fill="none" stroke="#222" opacity="0.098" stroke-width="10px"></circle><circle cx="240" cy="240" r="35" fill="none" stroke="#222" opacity="0.098" stroke-width="10px"></circle><circle cx="40" cy="0" r="35" fill="none" stroke="#ddd" opacity="0.10666666666666667" stroke-width="10px"></circle><circle cx="40" cy="240" r="35" fill="none" stroke="#ddd" opacity="0.10666666666666667" stroke-width="10px"></circle><circle cx="80" cy="0" r="35" fill="none" stroke="#222" opacity="0.15" stroke-width="10px"></circle><circle cx="80" cy="240" r="35" fill="none" stroke="#222" opacity="0.15" stroke-width="10px"></circle><circle cx="120" cy="0" r="35" fill="none" stroke="#ddd" opacity="0.05466666666666667" stroke-width="10px"></circle><circle cx="120" cy="240" r="35" fill="none" stroke="#ddd" opacity="0.05466666666666667" stroke-width="10px"></circle><circle cx="160" cy="0" r="35" fill="none" stroke="#ddd" opacity="0.08933333333333333" stroke-width="10px"></circle><circle cx="160" cy="240" r="35" fill="none" stroke="#ddd" opacity="0.08933333333333333" stroke-width="10px"></circle><circle cx="200" cy="0" r="35" fill="none" stroke="#222" opacity="0.13266666666666665" stroke-width="10px"></circle><circle cx="200" cy="240" r="35" fill="none" stroke="#222" opacity="0.13266666666666665" stroke-width="10px"></circle><circle cx="0" cy="40" r="35" fill="none" stroke="#222" opacity="0.15" stroke-width="10px"></circle><circle cx="240" cy="40" r="35" fill="none" stroke="#222" opacity="0.15" stroke-width="10px"></circle><circle cx="40" cy="40" r="35" fill="none" stroke="#222" opacity="0.06333333333333334" stroke-width="10px"></circle><circle cx="80" cy="40" r="35" fill="none" stroke="#ddd" opacity="0.14133333333333334" stroke-width="10px"></circle><circle cx="120" cy="40" r="35" fill="none" stroke="#222" opacity="0.046" stroke-width="10px"></circle><circle cx="160" cy="40" r="35" fill="none" stroke="#ddd" opacity="0.12400000000000001" stroke-width="10px"></circle><circle cx="200" cy="40" r="35" fill="none" stroke="#ddd" opacity="0.07200000000000001" stroke-width="10px"></circle><circle cx="0" cy="80" r="35" fill="none" stroke="#222" opacity="0.046" stroke-width="10px"></circle><circle cx="240" cy="80" r="35" fill="none" stroke="#222" opacity="0.046" stroke-width="10px"></circle><circle cx="40" cy="80" r="35" fill="none" stroke="#222" opacity="0.08066666666666666" stroke-width="10px"></circle><circle cx="80" cy="80" r="35" fill="none" stroke="#222" opacity="0.08066666666666666" stroke-width="10px"></circle><circle cx="120" cy="80" r="35" fill="none" stroke="#ddd" opacity="0.08933333333333333" stroke-width="10px"></circle><circle cx="160" cy="80" r="35" fill="none" stroke="#222" opacity="0.028666666666666667" stroke-width="10px"></circle><circle cx="200" cy="80" r="35" fill="none" stroke="#222" opacity="0.13266666666666665" stroke-width="10px"></circle><circle cx="0" cy="120" r="35" fill="none" stroke="#222" opacity="0.028666666666666667" stroke-width="10px"></circle><circle cx="240" cy="120" r="35" fill="none" stroke="#222" opacity="0.028666666666666667" stroke-width="10px"></circle><circle cx="40" cy="120" r="35" fill="none" stroke="#ddd" opacity="0.08933333333333333" stroke-width="10px"></circle><circle cx="80" cy="120" r="35" fill="none" stroke="#ddd" opacity="0.07200000000000001" stroke-width="10px"></circle><circle cx="120" cy="120" r="35" fill="none" stroke="#ddd" opacity="0.07200000000000001" stroke-width="10px"></circle><circle cx="160" cy="120" r="35" fill="none" stroke="#222" opacity="0.06333333333333334" stroke-width="10px"></circle><circle cx="200" cy="120" r="35" fill="none" stroke="#222" opacity="0.046" stroke-width="10px"></circle><circle cx="0" cy="160" r="35" fill="none" stroke="#222" opacity="0.08066666666666666" stroke-width="10px"></circle><circle cx="240" cy="160" r="35" fill="none" stroke="#222" opacity="0.08066666666666666" stroke-width="10px"></circle><circle cx="40" cy="160" r="35" fill="none" stroke="#ddd" opacity="0.08933333333333333" stroke-width="10px"></circle><circle cx="80" cy="160" r="35" fill="none" stroke="#222" opacity="0.13266666666666665" stroke-width="10px"></circle><circle cx="120" cy="160" r="35" fill="none" stroke="#222" opacity="0.046" stroke-width="10px"></circle><circle cx="160" cy="160" r="35" fill="none" stroke="#ddd" opacity="0.14133333333333334" stroke-width="10px"></circle><circle cx="200" cy="160" r="35" fill="none" stroke="#222" opacity="0.15" stroke-width="10px"></circle><circle cx="0" cy="200" r="35" fill="none" stroke="#ddd" opacity="0.02" stroke-width="10px"></circle><circle cx="240" cy="200" r="35" fill="none" stroke="#ddd" opacity="0.02" stroke-width="10px"></circle><circle cx="40" cy="200" r="35" fill="none" stroke="#ddd" opacity="0.03733333333333333" stroke-width="10px"></circle><circle cx="80" cy="200" r="35" fill="none" stroke="#222" opacity="0.098" stroke-width="10px"></circle><circle cx="120" cy="200" r="35" fill="none" stroke="#222" opacity="0.028666666666666667" stroke-width="10px"></circle><circle cx="160" cy="200" r="35" fill="none" stroke="#ddd" opacity="0.14133333333333334" stroke-width="10px"></circle><circle cx="200" cy="200" r="35" fill="none" stroke="#222" opacity="0.15" stroke-width="10px"></circle></svg>