<svg xmlns="http://www.w3.org/2000/svg" width="235" height="94"><rect x="0" y="0" width="100%" height="100%" fill="rgb(71,81,136)"></rect><polyline points="19.666666666666664,0,39.33333333333333,15.666666666666666,19.666666666666664,31.333333333333332,0,15.666666666666666" fill="#222" fill-opacity="0.11533333333333334" stroke="#000" stroke-opacity="0.02" transform="translate(-19.666666666666664,-15.666666666666666)"></polyline><polyline points="19.666666666666664,0,39.33333333333333,15.666666666666666,19.666666666666664,31.333333333333332,0,15.666666666666666" fill="#222" fill-opacity="0.11533333333333334" stroke="#000" stroke-opacity="0.02" transform="translate(216.33333333333331,-15.666666666666666)"></polyline><polyline points="19.666666666666664,0,39.33333333333333,15.666666666666666,19.666666666666664,31.333333333333332,0,15.666666666666666" fill="#222" fill-opacity="0.11533333333333334" stroke="#000" stroke-opacity="0.02" transform="translate(-19.666666666666664,78.33333333333333)"></polyline><polyline points="19.666666666666664,0,39.33333333333333,15.666666666666666,19.666666666666664,31.333333333333332,0,15.666666666666666" fill="#222" fill-opacity="0.11533333333333334" stroke="#000" stroke-opacity="0.02" transform="translate(216.33333333333331,78.33333333333333)"></polyline><polyline points="19.666666666666664,0,39.33333333333333,15.666666666666666,19.666666666666664,31.333333333333332,0,15.666666666666666" fill="#ddd" fill-opacity="0.08933333333333333" stroke="#000" stroke-opacity="0.02" transform="translate(19.666666666666664,-15.666666666666666)"></polyline><polyline points="19.666666666666664,0,39.33333333333333,15.666666666666666,19.666666666666664,31.333333333333332,0,15.666666666666666" fill="#ddd" fill-opacity="0.08933333333333333" stroke="#000" stroke-opacity="0.02" transform="translate(19.666666666666664,78.33333333333333)"></polyline><polyline points="19.666666666666664,0,39.33333333333333,15.666666666666666,19.666666666666664,31.333333333333332,0,15.666666666666666" fill="#222" fill-opacity="0.046" stroke="#000" stroke-opacity="0.02" transform="translate(58.99999999999999,-15.666666666666666)"></polyline><polyline points="19.666666666666664,0,39.33333333333333,15.666666666666666,19.666666666666664,31.333333333333332,0,15.666666666666666" fill="#222" fill-opacity="0.046" stroke="#000" stroke-opacity="0.02" transform="translate(58.99999999999999,78.33333333333333)"></polyline><polyline points="19.666666666666664,0,39.33333333333333,15.666666666666666,19.666666666666664,31.333333333333332,0,15.666666666666666" fill="#ddd" fill-opacity="0.02" stroke="#000" stroke-opacity="0.02" transform="translate(98.33333333333331,-15.666666666666666)"></polyline><polyline points="19.666666666666664,0,39.33333333333333,15.666666666666666,19.666666666666664,31.333333333333332,0,15.666666666666666" fill="#ddd" fill-opacity="0.02" stroke="#000" stroke-opacity="0.02" transform="translate(98.33333333333331,78.33333333333333)"></polyline><polyline points="19.666666666666664,0,39.33333333333333,15.666666666666666,19.666666666666664,31.333333333333332,0,15.666666666666666" fill="#222" fill-opacity="0.13266666666666665" stroke="#000" stroke-opacity="0.02" transform="translate(137.66666666666666,-15.666666666666666)"></polyline><polyline points="19.666666666666664,0,39.33333333333333,15.666666666666666,19.666666666666664,31.333333333333332,0,15.666666666666666" fill="#222" fill-opacity="0.13266666666666665" stroke="#000" stroke-opacity="0.02" transform="translate(137.66666666666666,78.33333333333333)"></polyline><polyline points="19.666666666666664,0,39.33333333333333,15.666666666666666,19.666666666666664,31.333333333333332,0,15.666666666666666" fill="#222" fill-opacity="0.08066666666666666" stroke="#000" stroke-opacity="0.02" transform="translate(176.99999999999997,-15.666666666666666)"></polyline><polyline points="19.666666666666664,0,39.33333333333333,15.666666666666666,19.666666666666664,31.333333333333332,0,15.666666666666666" fill="#222" fill-opacity="0.08066666666666666" stroke="#000" stroke-opacity="0.02" transform="translate(176.99999999999997,78.33333333333333)"></polyline><polyline points="19.666666666666664,0,39.33333333333333,15.666666666666666,19.666666666666664,31.333333333333332,0,15.666666666666666" fill="#ddd" fill-opacity="0.03733333333333333" stroke="#000" stroke-opacity="0.02" transform="translate(0,0)"></polyline><polyline points="19.666666666666664,0,39.33333333333333,15.666666666666666,19.666666666666664,31.333333333333332,0,15.666666666666666" fill="#ddd" fill-opacity="0.03733333333333333" stroke="#000" stroke-opacity="0.02" transform="translate(235.99999999999997,0)"></polyline><polyline points="19.666666666666664,0,39.33333333333333,15.666666666666666,19.666666666666664,31.333333333333332,0,15.666666666666666" fill="#222" fill-opacity="0.13266666666666665" stroke="#000" stroke-opacity="0.02" transform="translate(39.33333333333333,0)"></polyline><polyline points="19.666666666666664,0,39.33333333333333,15.666666666666666,19.666666666666664,31.333333333333332,0,15.666666666666666" fill="#ddd" fill-opacity="0.07200000000000001" stroke="#000" stroke-opacity="0.02" transform="translate(78.66666666666666,0)"></polyline><polyline points="19.666666666666664,0,39.33333333333333,15.666666666666666,19.666666666666664,31.333333333333332,0,15.666666666666666" fill="#ddd" fill-opacity="0.02" stroke="#000" stroke-opacity="0.02" transform="translate(117.99999999999997,0)"></polyline><polyline points="19.666666666666664,0,39.33333333333333,15.666666666666666,19.666666666666664,31.333333333333332,0,15.666666666666666" fill="#222" fill-opacity="0.13266666666666665" stroke="#000" stroke-opacity="0.02" transform="translate(157.33333333333331,0)"></polyline><polyline points="19.666666666666664,0,39.33333333333333,15.666666666666666,19.666666666666664,31.333333333333332,0,15.666666666666666" fill="#222" fill-opacity="0.046" stroke="#000" stroke-opacity="0.02" transform="translate(196.66666666666663,0)"></polyline><polyline points="19.666666666666664,0,39.33333333333333,15.666666666666666,19.666666666666664,31.333333333333332,0,15.666666666666666" fill="#ddd" fill-opacity="0.10666666666666667" stroke="#000" stroke-opacity="0.02" transform="translate(-19.666666666666664,15.666666666666666)"></polyline><polyline points="19.666666666666664,0,39.33333333333333,15.666666666666666,19.666666666666664,31.333333333333332,0,15.666666666666666" fill="#ddd" fill-opacity="0.10666666666666667" stroke="#000" stroke-opacity="0.02" transform="translate(216.33333333333331,15.666666666666666)"></polyline><polyline points="19.666666666666664,0,39.33333333333333,15.666666666666666,19.666666666666664,31.333333333333332,0,15.666666666666666" fill="#222" fill-opacity="0.11533333333333334" stroke="#000" stroke-opacity="0.02" transform="translate(19.666666666666664,15.666666666666666)"></polyline><polyline points="19.666666666666664,0,39.33333333333333,15.666666666666666,19.666666666666664,31.333333333333332,0,15.666666666666666" fill="#222" fill-opacity="0.06333333333333334" stroke="#000" stroke-opacity="0.02" transform="translate(58.99999999999999,15.666666666666666)"></polyline><polyline points="19.666666666666664,0,39.33333333333333,15.666666666666666,19.666666666666664,31.333333333333332,0,15.666666666666666" fill="#222" fill-opacity="0.11533333333333334" stroke="#000" stroke-opacity="0.02" transform="translate(98.33333333333331,15.666666666666666)"></polyline><polyline points="19.666666666666664,0,39.33333333333333,15.666666666666666,19.666666666666664,31.333333333333332,0,15.666666666666666" fill="#ddd" fill-opacity="0.12400000000000001" stroke="#000" stroke-opacity="0.02" transform="translate(137.66666666666666,15.666666666666666)"></polyline><polyline points="19.666666666666664,0,39.33333333333333,15.666666666666666,19.666666666666664,31.333333333333332,0,15.666666666666666" fill="#222" fill-opacity="0.11533333333333334" stroke="#000" stroke-opacity="0.02" transform="translate(176.99999999999997,15.666666666666666)"></polyline><polyline points="19.666666666666664,0,39.33333333333333,15.666666666666666,19.666666666666664,31.333333333333332,0,15.666666666666666" fill="#ddd" fill-opacity="0.07200000000000001" stroke="#000" stroke-opacity="0.02" transform="translate(0,31.333333333333336)"></polyline><polyline points="19.666666666666664,0,39.33333333333333,15.666666666666666,19.666666666666664,31.333333333333332,0,15.666666666666666" fill="#ddd" fill-opacity="0.07200000000000001" stroke="#000" stroke-opacity="0.02" transform="translate(235.99999999999997,31.333333333333336)"></polyline><polyline points="19.666666666666664,0,39.33333333333333,15.666666666666666,19.666666666666664,31.333333333333332,0,15.666666666666666" fill="#222" fill-opacity="0.098" stroke="#000" stroke-opacity="0.02" transform="translate(39.33333333333333,31.333333333333336)"></polyline><polyline points="19.666666666666664,0,39.33333333333333,15.666666666666666,19.666666666666664,31.333333333333332,0,15.666666666666666" fill="#222" fill-opacity="0.11533333333333334" stroke="#000" stroke-opacity="0.02" transform="translate(78.66666666666666,31.333333333333336)"></polyline><polyline points="19.666666666666664,0,39.33333333333333,15.666666666666666,19.666666666666664,31.333333333333332,0,15.666666666666666" fill="#ddd" fill-opacity="0.08933333333333333" stroke="#000" stroke-opacity="0.02" transform="translate(117.99999999999997,31.333333333333336)"></polyline><polyline points="19.666666666666664,0,39.33333333333333,15.666666666666666,19.666666666666664,31.333333333333332,0,15.666666666666666" fill="#222" fill-opacity="0.08066666666666666" stroke="#000" stroke-opacity="0.02" transform="translate(157.33333333333331,31.333333333333336)"></polyline><polyline points="19.666666666666664,0,39.33333333333333,15.666666666666666,19.666666666666664,31.333333333333332,0,15.666666666666666" fill="#222" fill-opacity="0.028666666666666667" stroke="#000" stroke-opacity="0.02" transform="translate(196.66666666666663,31.333333333333336)"></polyline><polyline points="19.666666666666664,0,39.33333333333333,15.666666666666666,19.666666666666664,31.333333333333332,0,15.666666666666666" fill="#222" fill-opacity="0.046" stroke="#000" stroke-opacity="0.02" transform="translate(-19.666666666666664,47)"></polyline><polyline points="19.666666666666664,0,39.33333333333333,15.666666666666666,19.666666666666664,31.333333333333332,0,15.666666666666666" fill="#222" fill-opacity="0.046" stroke="#000" stroke-opacity="0.02" transform="translate(216.33333333333331,47)"></polyline><polyline points="19.666666666666664,0,39.33333333333333,15.666666666666666,19.666666666666664,31.333333333333332,0,15.666666666666666" fill="#ddd" fill-opacity="0.14133333333333334" stroke="#000" stroke-opacity="0.02" transform="translate(19.666666666666664,47)"></polyline><polyline points="19.666666666666664,0,39.33333333333333,15.666666666666666,19.666666666666664,31.333333333333332,0,15.666666666666666" fill="#ddd" fill-opacity="0.10666666666666667" stroke="#000" stroke-opacity="0.02" transform="translate(58.99999999999999,47)"></polyline><polyline points="19.666666666666664,0,39.33333333333333,15.666666666666666,19.666666666666664,31.333333333333332,0,15.666666666666666" fill="#ddd" fill-opacity="0.10666666666666667" stroke="#000" stroke-opacity="0.02" transform="translate(98.33333333333331,47)"></polyline><polyline points="19.666666666666664,0,39.33333333333333,15.666666666666666,19.666666666666664,31.333333333333332,0,15.666666666666666" fill="#222" fill-opacity="0.028666666666666667" stroke="#000" stroke-opacity="0.02" transform="translate(137.66666666666666,47)"></polyline><polyline points="19.666666666666664,0,39.33333333333333,15.666666666666666,19.666666666666664,31.333333333333332,0,15.666666666666666" fill="#ddd" fill-opacity="0.05466666666666667" stroke="#000" stroke-opacity="0.02" transform="translate(176.99999999999997,47)"></polyline><polyline points="19.666666666666664,0,39.33333333333333,15.666666666666666,19.666666666666664,31.333333333333332,0,15.666666666666666" fill="#222" fill-opacity="0.08066666666666666" stroke="#000" stroke-opacity="0.02" transform="translate(0,62.666666666666664)"></polyline><polyline points="19.666666666666664,0,39.33333333333333,15.666666666666666,19.666666666666664,31.333333333333332,0,15.666666666666666" fill="#222" fill-opacity="0.08066666666666666" stroke="#000" stroke-opacity="0.02" transform="translate(235.99999999999997,62.666666666666664)"></polyline><polyline points="19.666666666666664,0,39.33333333333333,15.666666666666666,19.666666666666664,31.333333333333332,0,15.666666666666666" fill="#ddd" fill-opacity="0.10666666666666667" stroke="#000" stroke-opacity="0.02" transform="translate(39.33333333333333,62.666666666666664)"></polyline><polyline points="19.666666666666664,0,39.33333333333333,15.666666666666666,19.666666666666664,31.333333333333332,0,15.666666666666666" fill="#222" fill-opacity="0.06333333333333334" stroke="#000" stroke-opacity="0.02" transform="translate(78.66666666666666,62.666666666666664)"></polyline><polyline points="19.666666666666664,0,39.33333333333333,15.666666666666666,19.666666666666664,31.333333333333332,0,15.666666666666666" fill="#ddd" fill-opacity="0.05466666666666667" stroke="#000" stroke-opacity="0.02" transform="translate(117.99999999999997,62.666666666666664)"></polyline><polyline points="19.666666666666664,0,39.33333333333333,15.666666666666666,19.666666666666664,31.333333333333332,0,15.666666666666666" fill="#222" fill-opacity="0.15" stroke="#000" stroke-opacity="0.02" transform="translate(157.33333333333331,62.666666666666664)"></polyline><polyline points="19.666666666666664,0,39.33333333333333,15.666666666666666,19.666666666666664,31.333333333333332,0,15.666666666666666" fill="#ddd" fill-opacity="0.05466666666666667" stroke="#000" stroke-opacity="0.02" transform="translate(196.66666666666663,62.666666666666664)"></polyline></svg>