<svg xmlns="http://www.w3.org/2000/svg" width="320" height="288"><rect x="0" y="0" width="100%" height="100%" fill="rgb(134,112,73)"></rect><path d="M0 81 C 56 0, 104 0, 160 81 S 264 162, 320 81 S 424 0, 480, 81" fill="none" stroke="#222" opacity="0.11533333333333334" stroke-width="8px" transform="translate(-80,-121.5)"></path><path d="M0 81 C 56 0, 104 0, 160 81 S 264 162, 320 81 S 424 0, 480, 81" fill="none" stroke="#222" opacity="0.11533333333333334" stroke-width="8px" transform="translate(-80,166.5)"></path><path d="M0 81 C 56 0, 104 0, 160 81 S 264 162, 320 81 S 424 0, 480, 81" fill="none" stroke="#222" opacity="0.11533333333333334" stroke-width="8px" transform="translate(-80,-113.5)"></path><path d="M0 81 C 56 0, 104 0, 160 81 S 264 162, 320 81 S 424 0, 480, 81" fill="none" stroke="#222" opacity="0.11533333333333334" stroke-width="8px" transform="translate(-80,174.5)"></path><path d="M0 81 C 56 0, 104 0, 160 81 S 264 162, 320 81 S 424 0, 480, 81" fill="none" stroke="#222" opacity="0.046" stroke-width="8px" transform="translate(-80,-105.5)"></path><path d="M0 81 C 56 0, 104 0, 160 81 S 264 162, 320 81 S 424 0, 480, 81" fill="none" stroke="#222" opacity="0.046" stroke-width="8px" transform="translate(-80,182.5)"></path><path d="M0 81 C 56 0, 104 0, 160 81 S 264 162, 320 81 S 424 0, 480, 81" fill="none" stroke="#222" opacity="0.15" stroke-width="8px" transform="translate(-80,-97.5)"></path><path d="M0 81 C 56 0, 104 0, 160 81 S 264 162, 320 81 S 424 0, 480, 81" fill="none" stroke="#222" opacity="0.15" stroke-width="8px" transform="translate(-80,190.5)"></path><path d="M0 81 C 56 0, 104 0, 160 81 S 264 162, 320 81 S 424 0, 480, 81" fill="none" stroke="#222" opacity="0.11533333333333334" stroke-width="8px" transform="translate(-80,-89.5)"></path><path d="M0 81 C 56 0, 104 0, 160 81 S 264 162, 320 81 S 424 0, 480, 81" fill="none" stroke="#222" opacity="0.11533333333333334" stroke-width="8px" transform="translate(-80,198.5)"></path><path d="M0 81 C 56 0, 104 0, 160 81 S 264 162, 320 81 S 424 0, 480, 81" fill="none" stroke="#ddd" opacity="0.14133333333333334" stroke-width="8px" transform="translate(-80,-81.5)"></path><path d="M0 81 C 56 0, 104 0, 160 81 S 264 162, 320 81 S 424 0, 480, 81" fill="none" stroke="#ddd" opacity="0.14133333333333334" stroke-width="8px" transform="translate(-80,206.5)"></path><path d="M0 81 C 56 0, 104 0, 160 81 S 264 162, 320 81 S 424 0, 480, 81" fill="none" stroke="#222" opacity="0.028666666666666667" stroke-width="8px" transform="translate(-80,-73.5)"></path><path d="M0 81 C 56 0, 104 0, 160 81 S 264 162, 320 81 S 424 0, 480, 81" fill="none" stroke="#222" opacity="0.028666666666666667" stroke-width="8px" transform="translate(-80,214.5)"></path><path d="M0 81 C 56 0, 104 0, 160 81 S 264 162, 320 81 S 424 0, 480, 81" fill="none" stroke="#ddd" opacity="0.02" stroke-width="8px" transform="translate(-80,-65.5)"></path><path d="M0 81 C 56 0, 104 0, 160 81 S 264 162, 320 81 S 424 0, 480, 81" fill="none" stroke="#ddd" opacity="0.02" stroke-width="8px" transform="translate(-80,222.5)"></path><path d="M0 81 C 56 0, 104 0, 160 81 S 264 162, 320 81 S 424 0, 480, 81" fill="none" stroke="#ddd" opacity="0.12400000000000001" stroke-width="8px" transform="translate(-80,-57.5)"></path><path d="M0 81 C 56 0, 104 0, 160 81 S 264 162, 320 81 S 424 0, 480, 81" fill="none" stroke="#ddd" opacity="0.12400000000000001" stroke-width="8px" transform="translate(-80,230.5)"></path><path d="M0 81 C 56 0, 104 0, 160 81 S 264 162, 320 81 S 424 0, 480, 81" fill="none" stroke="#ddd" opacity="0.12400000000000001" stroke-width="8px" transform="translate(-80,-49.5)"></path><path d="M0 81 C 56 0, 104 0, 160 81 S 264 162, 320 81 S 424 0, 480, 81" fill="none" stroke="#ddd" opacity="0.12400000000000001" stroke-width="8px" transform="translate(-80,238.5)"></path><path d="M0 81 C 56 0, 104 0, 160 81 S 264 162, 320 81 S 424 0, 480, 81" fill="none" stroke="#222" opacity="0.06333333333333334" stroke-width="8px" transform="translate(-80,-41.5)"></path><path d="M0 81 C 56 0, 104 0, 160 81 S 264 162, 320 81 S 424 0, 480, 81" fill="none" stroke="#222" opacity="0.06333333333333334" stroke-width="8px" transform="translate(-80,246.5)"></path><path d="M0 81 C 56 0, 104 0, 160 81 S 264 162, 320 81 S 424 0, 480, 81" fill="none" stroke="#ddd" opacity="0.02" stroke-width="8px" transform="translate(-80,-33.5)"></path><path d="M0 81 C 56 0, 104 0, 160 81 S 264 162, 320 81 S 424 0, 480, 81" fill="none" stroke="#ddd" opacity="0.02" stroke-width="8px" transform="translate(-80,254.5)"></path><path d="M0 81 C 56 0, 104 0, 160 81 S 264 162, 320 81 S 424 0, 480, 81" fill="none" stroke="#ddd" opacity="0.08933333333333333" stroke-width="8px" transform="translate(-80,-25.5)"></path><path d="M0 81 C 56 0, 104 0, 160 81 S 264 162, 320 81 S 424 0, 480, 81" fill="none" stroke="#ddd" opacity="0.08933333333333333" stroke-width="8px" transform="translate(-80,262.5)"></path><path d="M0 81 C 56 0, 104 0, 160 81 S 264 162, 320 81 S 424 0, 480, 81" fill="none" stroke="#ddd" opacity="0.05466666666666667" stroke-width="8px" transform="translate(-80,-17.5)"></path><path d="M0 81 C 56 0, 104 0, 160 81 S 264 162, 320 81 S 424 0, 480, 81" fill="none" stroke="#ddd" opacity="0.05466666666666667" stroke-width="8px" transform="translate(-80,270.5)"></path><path d="M0 81 C 56 0, 104 0, 160 81 S 264 162, 320 81 S 424 0, 480, 81" fill="none" stroke="#ddd" opacity="0.14133333333333334" stroke-width="8px" transform="translate(-80,-9.5)"></path><path d="M0 81 C 56 0, 104 0, 160 81 S 264 162, 320 81 S 424 0, 480, 81" fill="none" stroke="#ddd" opacity="0.14133333333333334" stroke-width="8px" transform="translate(-80,278.5)"></path><path d="M0 81 C 56 0, 104 0, 160 81 S 264 162, 320 81 S 424 0, 480, 81" fill="none" stroke="#222" opacity="0.06333333333333334" stroke-width="8px" transform="translate(-80,-1.5)"></path><path d="M0 81 C 56 0, 104 0, 160 81 S 264 162, 320 81 S 424 0, 480, 81" fill="none" stroke="#222" opacity="0.06333333333333334" stroke-width="8px" transform="translate(-80,286.5)"></path><path d="M0 81 C 56 0, 104 0, 160 81 S 264 162, 320 81 S 424 0, 480, 81" fill="none" stroke="#222" opacity="0.028666666666666667" stroke-width="8px" transform="translate(-80,6.5)"></path><path d="M0 81 C 56 0, 104 0, 160 81 S 264 162, 320 81 S 424 0, 480, 81" fill="none" stroke="#222" opacity="0.028666666666666667" stroke-width="8px" transform="translate(-80,294.5)"></path><path d="M0 81 C 56 0, 104 0, 160 81 S 264 162, 320 81 S 424 0, 480, 81" fill="none" stroke="#222" opacity="0.13266666666666665" stroke-width="8px" transform="translate(-80,14.5)"></path><path d="M0 81 C 56 0, 104 0, 160 81 S 264 162, 320 81 S 424 0, 480, 81" fill="none" stroke="#222" opacity="0.13266666666666665" stroke-width="8px" transform="translate(-80,302.5)"></path><path d="M0 81 C 56 0, 104 0, 160 81 S 264 162, 320 81 S 424 0, 480, 81" fill="none" stroke="#ddd" opacity="0.14133333333333334" stroke-width="8px" transform="translate(-80,22.5)"></path><path d="M0 81 C 56 0, 104 0, 160 81 S 264 162, 320 81 S 424 0, 480, 81" fill="none" stroke="#ddd" opacity="0.14133333333333334" stroke-width="8px" transform="translate(-80,310.5)"></path><path d="M0 81 C 56 0, 104 0, 160 81 S 264 162, 320 81 S 424 0, 480, 81" fill="none" stroke="#222" opacity="0.098" stroke-width="8px" transform="translate(-80,30.5)"></path><path d="M0 81 C 56 0, 104 0, 160 81 S 264 162, 320 81 S 424 0, 480, 81" fill="none" stroke="#222" opacity="0.098" stroke-width="8px" transform="translate(-80,318.5)"></path><path d="M0 81 C 56 0, 104 0, 160 81 S 264 162, 320 81 S 424 0, 480, 81" fill="none" stroke="#ddd" opacity="0.05466666666666667" stroke-width="8px" transform="translate(-80,38.5)"></path><path d="M0 81 C 56 0, 104 0, 160 81 S 264 162, 320 81 S 424 0, 480, 81" fill="none" stroke="#ddd" opacity="0.05466666666666667" stroke-width="8px" transform="translate(-80,326.5)"></path><path d="M0 81 C 56 0, 104 0, 160 81 S 264 162, 320 81 S 424 0, 480, 81" fill="none" stroke="#222" opacity="0.046" stroke-width="8px" transform="translate(-80,46.5)"></path><path d="M0 81 C 56 0, 104 0, 160 81 S 264 162, 320 81 S 424 0, 480, 81" fill="none" stroke="#222" opacity="0.046" stroke-width="8px" transform="translate(-80,334.5)"></path><path d="M0 81 C 56 0, 104 0, 160 81 S 264 162, 320 81 S 424 0, 480, 81" fill="none" stroke="#ddd" opacity="0.10666666666666667" stroke-width="8px" transform="translate(-80,54.5)"></path><path d="M0 81 C 56 0, 104 0, 160 81 S 264 162, 320 81 S 424 0, 480, 81" fill="none" stroke="#ddd" opacity="0.10666666666666667" stroke-width="8px" transform="translate(-80,342.5)"></path><path d="M0 81 C 56 0, 104 0, 160 81 S 264 162, 320 81 S 424 0, 480, 81" fill="none" stroke="#222" opacity="0.15" stroke-width="8px" transform="translate(-80,62.5)"></path><path d="M0 81 C 56 0, 104 0, 160 81 S 264 162, 320 81 S 424 0, 480, 81" fill="none" stroke="#222" opacity="0.15" stroke-width="8px" transform="translate(-80,350.5)"></path><path d="M0 81 C 56 0, 104 0, 160 81 S 264 162, 320 81 S 424 0, 480, 81" fill="none" stroke="#222" opacity="0.15" stroke-width="8px" transform="translate(-80,70.5)"></path><path d="M0 81 C 56 0, 104 0, 160 81 S 264 162, 320 81 S 424 0, 480, 81" fill="none" stroke="#222" opacity="0.15" stroke-width="8px" transform="translate(-80,358.5)"></path><path d="M0 81 C 56 0, 104 0, 160 81 S 264 162, 320 81 S 424 0, 480, 81" fill="none" stroke="#222" opacity="0.028666666666666667" stroke-width="8px" transform="translate(-80,78.5)"></path><path d="M0 81 C 56 0, 104 0, 160 81 S 264 162, 320 81 S 424 0, 480, 81" fill="none" stroke="#222" opacity="0.028666666666666667" stroke-width="8px" transform="translate(-80,366.5)"></path><path d="M0 81 C 56 0, 104 0, 160 81 S 264 162, 320 81 S 424 0, 480, 81" fill="none" stroke="#ddd" opacity="0.03733333333333333" stroke-width="8px" transform="translate(-80,86.5)"></path><path d="M0 81 C 56 0, 104 0, 160 81 S 264 162, 320 81 S 424 0, 480, 81" fill="none" stroke="#ddd" opacity="0.03733333333333333" stroke-width="8px" transform="translate(-80,374.5)"></path><path d="M0 81 C 56 0, 104 0, 160 81 S 264 162, 320 81 S 424 0, 480, 81" fill="none" stroke="#ddd" opacity="0.08933333333333333" stroke-width="8px" transform="translate(-80,94.5)"></path><path d="M0 81 C 56 0, 104 0, 160 81 S 264 162, 320 81 S 424 0, 480, 81" fill="none" stroke="#ddd" opacity="0.08933333333333333" stroke-width="8px" transform="translate(-80,382.5)"></path><path d="M0 81 C 56 0, 104 0, 160 81 S 264 162, 320 81 S 424 0, 480, 81" fill="none" stroke="#222" opacity="0.028666666666666667" stroke-width="8px" transform="translate(-80,102.5)"></path><path d="M0 81 C 56 0, 104 0, 160 81 S 264 162, 320 81 S 424 0, 480, 81" fill="none" stroke="#222" opacity="0.028666666666666667" stroke-width="8px" transform="translate(-80,390.5)"></path><path d="M0 81 C 56 0, 104 0, 160 81 S 264 162, 320 81 S 424 0, 480, 81" fill="none" stroke="#222" opacity="0.15" stroke-width="8px" transform="translate(-80,110.5)"></path><path d="M0 81 C 56 0, 104 0, 160 81 S 264 162, 320 81 S 424 0, 480, 81" fill="none" stroke="#222" opacity="0.15" stroke-width="8px" transform="translate(-80,398.5)"></path><path d="M0 81 C 56 0, 104 0, 160 81 S 264 162, 320 81 S 424 0, 480, 81" fill="none" stroke="#ddd" opacity="0.14133333333333334" stroke-width="8px" transform="translate(-80,118.5)"></path><path d="M0 81 C 56 0, 104 0, 160 81 S 264 162, 320 81 S 424 0, 480, 81" fill="none" stroke="#ddd" opacity="0.14133333333333334" stroke-width="8px" transform="translate(-80,406.5)"></path><path d="M0 81 C 56 0, 104 0, 160 81 S 264 162, 320 81 S 424 0, 480, 81" fill="none" stroke="#ddd" opacity="0.03733333333333333" stroke-width="8px" transform="translate(-80,126.5)"></path><path d="M0 81 C 56 0, 104 0, 160 81 S 264 162, 320 81 S 424 0, 480, 81" fill="none" stroke="#ddd" opacity="0.03733333333333333" stroke-width="8px" transform="translate(-80,414.5)"></path><path d="M0 81 C 56 0, 104 0, 160 81 S 264 162, 320 81 S 424 0, 480, 81" fill="none" stroke="#222" opacity="0.15" stroke-width="8px" transform="translate(-80,134.5)"></path><path d="M0 81 C 56 0, 104 0, 160 81 S 264 162, 320 81 S 424 0, 480, 81" fill="none" stroke="#222" opacity="0.15" stroke-width="8px" transform="translate(-80,422.5)"></path><path d="M0 81 C 56 0, 104 0, 160 81 S 264 162, 320 81 S 424 0, 480, 81" fill="none" stroke="#ddd" opacity="0.12400000000000001" stroke-width="8px" transform="translate(-80,142.5)"></path><path d="M0 81 C 56 0, 104 0, 160 81 S 264 162, 320 81 S 424 0, 480, 81" fill="none" stroke="#ddd" opacity="0.12400000000000001" stroke-width="8px" transform="translate(-80,430.5)"></path><path d="M0 81 C 56 0, 104 0, 160 81 S 264 162, 320 81 S 424 0, 480, 81" fill="none" stroke="#222" opacity="0.13266666666666665" stroke-width="8px" transform="translate(-80,150.5)"></path><path d="M0 81 C 56 0, 104 0, 160 81 S 264 162, 320 81 S 424 0, 480, 81" fill="none" stroke="#222" opacity="0.13266666666666665" stroke-width="8px" transform="translate(-80,438.5)"></path><path d="M0 81 C 56 0, 104 0, 160 81 S 264 162, 320 81 S 424 0, 480, 81" fill="none" stroke="#ddd" opacity="0.12400000000000001" stroke-width="8px" transform="translate(-80,158.5)"></path><path d="M0 81 C 56 0, 104 0, 160 81 S 264 162, 320 81 S 424 0, 480, 81" fill="none" stroke="#ddd" opacity="0.12400000000000001" stroke-width="8px" transform="translate(-80,446.5)"></path></svg>