<svg xmlns="http://www.w3.org/2000/svg" width="320" height="320"><rect x="0" y="0" width="100%" height="100%" fill="rgb(138,117,69)"></rect><polyline points="17.6,0,35.733333333333334,0,53.333333333333336,17.6,53.333333333333336,35.733333333333334,35.733333333333334,53.333333333333336,17.6,53.333333333333336,0,35.733333333333334,0,17.6,17.6,0" fill="#222" fill-opacity="0.13266666666666665" stroke="#000" stroke-opacity="0.02" transform="translate(0,0)"></polyline><polyline points="17.6,0,35.733333333333334,0,53.333333333333336,17.6,53.333333333333336,35.733333333333334,35.733333333333334,53.333333333333336,17.6,53.333333333333336,0,35.733333333333334,0,17.6,17.6,0" fill="#ddd" fill-opacity="0.05466666666666667" stroke="#000" stroke-opacity="0.02" transform="translate(53.333333333333336,0)"></polyline><polyline points="17.6,0,35.733333333333334,0,53.333333333333336,17.6,53.333333333333336,35.733333333333334,35.733333333333334,53.333333333333336,17.6,53.333333333333336,0,35.733333333333334,0,17.6,17.6,0" fill="#ddd" fill-opacity="0.12400000000000001" stroke="#000" stroke-opacity="0.02" transform="translate(106.66666666666667,0)"></polyline><polyline points="17.6,0,35.733333333333334,0,53.333333333333336,17.6,53.333333333333336,35.733333333333334,35.733333333333334,53.333333333333336,17.6,53.333333333333336,0,35.733333333333334,0,17.6,17.6,0" fill="#222" fill-opacity="0.098" stroke="#000" stroke-opacity="0.02" transform="translate(160,0)"></polyline><polyline points="17.6,0,35.733333333333334,0,53.333333333333336,17.6,53.333333333333336,35.733333333333334,35.733333333333334,53.333333333333336,17.6,53.333333333333336,0,35.733333333333334,0,17.6,17.6,0" fill="#ddd" fill-opacity="0.03733333333333333" stroke="#000" stroke-opacity="0.02" transform="translate(213.33333333333334,0)"></polyline><polyline points="17.6,0,35.733333333333334,0,53.333333333333336,17.6,53.333333333333336,35.733333333333334,35.733333333333334,53.333333333333336,17.6,53.333333333333336,0,35.733333333333334,0,17.6,17.6,0" fill="#222" fill-opacity="0.098" stroke="#000" stroke-opacity="0.02" transform="translate(266.6666666666667,0)"></polyline><polyline points="17.6,0,35.733333333333334,0,53.333333333333336,17.6,53.333333333333336,35.733333333333334,35.733333333333334,53.333333333333336,17.6,53.333333333333336,0,35.733333333333334,0,17.6,17.6,0" fill="#222" fill-opacity="0.046" stroke="#000" stroke-opacity="0.02" transform="translate(0,53.333333333333336)"></polyline><polyline points="17.6,0,35.733333333333334,0,53.333333333333336,17.6,53.333333333333336,35.733333333333334,35.733333333333334,53.333333333333336,17.6,53.333333333333336,0,35.733333333333334,0,17.6,17.6,0" fill="#222" fill-opacity="0.11533333333333334" stroke="#000" stroke-opacity="0.02" transform="translate(53.333333333333336,53.333333333333336)"></polyline><polyline points="17.6,0,35.733333333333334,0,53.333333333333336,17.6,53.333333333333336,35.733333333333334,35.733333333333334,53.333333333333336,17.6,53.333333333333336,0,35.733333333333334,0,17.6,17.6,0" fill="#ddd" fill-opacity="0.05466666666666667" stroke="#000" stroke-opacity="0.02" transform="translate(106.66666666666667,53.333333333333336)"></polyline><polyline points="17.6,0,35.733333333333334,0,53.333333333333336,17.6,53.333333333333336,35.733333333333334,35.733333333333334,53.333333333333336,17.6,53.333333333333336,0,35.733333333333334,0,17.6,17.6,0" fill="#222" fill-opacity="0.11533333333333334" stroke="#000" stroke-opacity="0.02" transform="translate(160,53.333333333333336)"></polyline><polyline points="17.6,0,35.733333333333334,0,53.333333333333336,17.6,53.333333333333336,35.733333333333334,35.733333333333334,53.333333333333336,17.6,53.333333333333336,0,35.733333333333334,0,17.6,17.6,0" fill="#222" fill-opacity="0.11533333333333334" stroke="#000" stroke-opacity="0.02" transform="translate(213.33333333333334,53.333333333333336)"></polyline><polyline points="17.6,0,35.733333333333334,0,53.333333333333336,17.6,53.333333333333336,35.733333333333334,35.733333333333334,53.333333333333336,17.6,53.333333333333336,0,35.733333333333334,0,17.6,17.6,0" fill="#ddd" fill-opacity="0.02" stroke="#000" stroke-opacity="0.02" transform="translate(266.6666666666667,53.333333333333336)"></polyline><polyline points="17.6,0,35.733333333333334,0,53.333333333333336,17.6,53.333333333333336,35.733333333333334,35.733333333333334,53.333333333333336,17.6,53.333333333333336,0,35.733333333333334,0,17.6,17.6,0" fill="#222" fill-opacity="0.046" stroke="#000" stroke-opacity="0.02" transform="translate(0,106.66666666666667)"></polyline><polyline points="17.6,0,35.733333333333334,0,53.333333333333336,17.6,53.333333333333336,35.733333333333334,35.733333333333334,53.333333333333336,17.6,53.333333333333336,0,35.733333333333334,0,17.6,17.6,0" fill="#222" fill-opacity="0.13266666666666665" stroke="#000" stroke-opacity="0.02" transform="translate(53.333333333333336,106.66666666666667)"></polyline><polyline points="17.6,0,35.733333333333334,0,53.333333333333336,17.6,53.333333333333336,35.733333333333334,35.733333333333334,53.333333333333336,17.6,53.333333333333336,0,35.733333333333334,0,17.6,17.6,0" fill="#ddd" fill-opacity="0.14133333333333334" stroke="#000" stroke-opacity="0.02" transform="translate(106.66666666666667,106.66666666666667)"></polyline><polyline points="17.6,0,35.733333333333334,0,53.333333333333336,17.6,53.333333333333336,35.733333333333334,35.733333333333334,53.333333333333336,17.6,53.333333333333336,0,35.733333333333334,0,17.6,17.6,0" fill="#ddd" fill-opacity="0.03733333333333333" stroke="#000" stroke-opacity="0.02" transform="translate(160,106.66666666666667)"></polyline><polyline points="17.6,0,35.733333333333334,0,53.333333333333336,17.6,53.333333333333336,35.733333333333334,35.733333333333334,53.333333333333336,17.6,53.333333333333336,0,35.733333333333334,0,17.6,17.6,0" fill="#222" fill-opacity="0.11533333333333334" stroke="#000" stroke-opacity="0.02" transform="translate(213.33333333333334,106.66666666666667)"></polyline><polyline points="17.6,0,35.733333333333334,0,53.333333333333336,17.6,53.333333333333336,35.733333333333334,35.733333333333334,53.333333333333336,17.6,53.333333333333336,0,35.733333333333334,0,17.6,17.6,0" fill="#222" fill-opacity="0.098" stroke="#000" stroke-opacity="0.02" transform="translate(266.6666666666667,106.66666666666667)"></polyline><polyline points="17.6,0,35.733333333333334,0,53.333333333333336,17.6,53.333333333333336,35.733333333333334,35.733333333333334,53.333333333333336,17.6,53.333333333333336,0,35.733333333333334,0,17.6,17.6,0" fill="#222" fill-opacity="0.06333333333333334" stroke="#000" stroke-opacity="0.02" transform="translate(0,160)"></polyline><polyline points="17.6,0,35.733333333333334,0,53.333333333333336,17.6,53.333333333333336,35.733333333333334,35.733333333333334,53.333333333333336,17.6,53.333333333333336,0,35.733333333333334,0,17.6,17.6,0" fill="#222" fill-opacity="0.06333333333333334" stroke="#000" stroke-opacity="0.02" transform="translate(53.333333333333336,160)"></polyline><polyline points="17.6,0,35.733333333333334,0,53.333333333333336,17.6,53.333333333333336,35.733333333333334,35.733333333333334,53.333333333333336,17.6,53.333333333333336,0,35.733333333333334,0,17.6,17.6,0" fill="#ddd" fill-opacity="0.02" stroke="#000" stroke-opacity="0.02" transform="translate(106.66666666666667,160)"></polyline><polyline points="17.6,0,35.733333333333334,0,53.333333333333336,17.6,53.333333333333336,35.733333333333334,35.733333333333334,53.333333333333336,17.6,53.333333333333336,0,35.733333333333334,0,17.6,17.6,0" fill="#222" fill-opacity="0.028666666666666667" stroke="#000" stroke-opacity="0.02" transform="translate(160,160)"></polyline><polyline points="17.6,0,35.733333333333334,0,53.333333333333336,17.6,53.333333333333336,35.733333333333334,35.733333333333334,53.333333333333336,17.6,53.333333333333336,0,35.733333333333334,0,17.6,17.6,0" fill="#222" fill-opacity="0.098" stroke="#000" stroke-opacity="0.02" transform="translate(213.33333333333334,160)"></polyline><polyline points="17.6,0,35.733333333333334,0,53.333333333333336,17.6,53.333333333333336,35.733333333333334,35.733333333333334,53.333333333333336,17.6,53.333333333333336,0,35.733333333333334,0,17.6,17.6,0" fill="#ddd" fill-opacity="0.10666666666666667" stroke="#000" stroke-opacity="0.02" transform="translate(266.6666666666667,160)"></polyline><polyline points="17.6,0,35.733333333333334,0,53.333333333333336,17.6,53.333333333333336,35.733333333333334,35.733333333333334,53.333333333333336,17.6,53.333333333333336,0,35.733333333333334,0,17.6,17.6,0" fill="#222" fill-opacity="0.06333333333333334" stroke="#000" stroke-opacity="0.02" transform="translate(0,213.33333333333334)"></polyline><polyline points="17.6,0,35.733333333333334,0,53.333333333333336,17.6,53.333333333333336,35.733333333333334,35.733333333333334,53.333333333333336,17.6,53.333333333333336,0,35.733333333333334,0,17.6,17.6,0" fill="#ddd" fill-opacity="0.05466666666666667" stroke="#000" stroke-opacity="0.02" transform="translate(53.333333333333336,213.33333333333334)"></polyline><polyline points="17.6,0,35.733333333333334,0,53.333333333333336,17.6,53.333333333333336,35.733333333333334,35.733333333333334,53.333333333333336,17.6,53.333333333333336,0,35.733333333333334,0,17.6,17.6,0" fill="#ddd" fill-opacity="0.14133333333333334" stroke="#000" stroke-opacity="0.02" transform="translate(106.66666666666667,213.33333333333334)"></polyline><polyline points="17.6,0,35.733333333333334,0,53.333333333333336,17.6,53.333333333333336,35.733333333333334,35.733333333333334,53.333333333333336,17.6,53.333333333333336,0,35.733333333333334,0,17.6,17.6,0" fill="#ddd" fill-opacity="0.12400000000000001" stroke="#000" stroke-opacity="0.02" transform="translate(160,213.33333333333334)"></polyline><polyline points="17.6,0,35.733333333333334,0,53.333333333333336,17.6,53.333333333333336,35.733333333333334,35.733333333333334,53.333333333333336,17.6,53.333333333333336,0,35.733333333333334,0,17.6,17.6,0" fill="#222" fill-opacity="0.15" stroke="#000" stroke-opacity="0.02" transform="translate(213.33333333333334,213.33333333333334)"></polyline><polyline points="17.6,0,35.733333333333334,0,53.333333333333336,17.6,53.333333333333336,35.733333333333334,35.733333333333334,53.333333333333336,17.6,53.333333333333336,0,35.733333333333334,0,17.6,17.6,0" fill="#222" fill-opacity="0.08066666666666666" stroke="#000" stroke-opacity="0.02" transform="translate(266.6666666666667,213.33333333333334)"></polyline><polyline points="17.6,0,35.733333333333334,0,53.333333333333336,17.6,53.333333333333336,35.733333333333334,35.733333333333334,53.333333333333336,17.6,53.333333333333336,0,35.733333333333334,0,17.6,17.6,0" fill="#ddd" fill-opacity="0.03733333333333333" stroke="#000" stroke-opacity="0.02" transform="translate(0,266.6666666666667)"></polyline><polyline points="17.6,0,35.733333333333334,0,53.333333333333336,17.6,53.333333333333336,35.733333333333334,35.733333333333334,53.333333333333336,17.6,53.333333333333336,0,35.733333333333334,0,17.6,17.6,0" fill="#222" fill-opacity="0.11533333333333334" stroke="#000" stroke-opacity="0.02" transform="translate(53.333333333333336,266.6666666666667)"></polyline><polyline points="17.6,0,35.733333333333334,0,53.333333333333336,17.6,53.333333333333336,35.733333333333334,35.733333333333334,53.333333333333336,17.6,53.333333333333336,0,35.733333333333334,0,17.6,17.6,0" fill="#ddd" fill-opacity="0.08933333333333333" stroke="#000" stroke-opacity="0.02" transform="translate(106.66666666666667,266.6666666666667)"></polyline><polyline points="17.6,0,35.733333333333334,0,53.333333333333336,17.6,53.333333333333336,35.733333333333334,35.733333333333334,53.333333333333336,17.6,53.333333333333336,0,35.733333333333334,0,17.6,17.6,0" fill="#222" fill-opacity="0.06333333333333334" stroke="#000" stroke-opacity="0.02" transform="translate(160,266.6666666666667)"></polyline><polyline points="17.6,0,35.733333333333334,0,53.333333333333336,17.6,53.333333333333336,35.733333333333334,35.733333333333334,53.333333333333336,17.6,53.333333333333336,0,35.733333333333334,0,17.6,17.6,0" fill="#222" fill-opacity="0.13266666666666665" stroke="#000" stroke-opacity="0.02" transform="translate(213.33333333333334,266.6666666666667)"></polyline><polyline points="17.6,0,35.733333333333334,0,53.333333333333336,17.6,53.333333333333336,35.733333333333334,35.733333333333334,53.333333333333336,17.6,53.333333333333336,0,35.733333333333334,0,17.6,17.6,0" fill="#ddd" fill-opacity="0.08933333333333333" stroke="#000" stroke-opacity="0.02" transform="translate(266.6666666666667,266.6666666666667)"></polyline></svg>