<svg xmlns="http://www.w3.org/2000/svg" width="188" height="86"><rect x="0" y="0" width="100%" height="100%" fill="rgb(157,50,61)"></rect><polyline points="15.666666666666666,0,31.333333333333332,14.333333333333334,15.666666666666666,28.666666666666668,0,14.333333333333334" fill="#ddd" fill-opacity="0.08933333333333333" stroke="#000" stroke-opacity="0.02" transform="translate(-15.666666666666666,-14.333333333333334)"></polyline><polyline points="15.666666666666666,0,31.333333333333332,14.333333333333334,15.666666666666666,28.666666666666668,0,14.333333333333334" fill="#ddd" fill-opacity="0.08933333333333333" stroke="#000" stroke-opacity="0.02" transform="translate(172.33333333333334,-14.333333333333334)"></polyline><polyline points="15.666666666666666,0,31.333333333333332,14.333333333333334,15.666666666666666,28.666666666666668,0,14.333333333333334" fill="#ddd" fill-opacity="0.08933333333333333" stroke="#000" stroke-opacity="0.02" transform="translate(-15.666666666666666,71.66666666666667)"></polyline><polyline points="15.666666666666666,0,31.333333333333332,14.333333333333334,15.666666666666666,28.666666666666668,0,14.333333333333334" fill="#ddd" fill-opacity="0.08933333333333333" stroke="#000" stroke-opacity="0.02" transform="translate(172.33333333333334,71.66666666666667)"></polyline><polyline points="15.666666666666666,0,31.333333333333332,14.333333333333334,15.666666666666666,28.666666666666668,0,14.333333333333334" fill="#222" fill-opacity="0.08066666666666666" stroke="#000" stroke-opacity="0.02" transform="translate(15.666666666666666,-14.333333333333334)"></polyline><polyline points="15.666666666666666,0,31.333333333333332,14.333333333333334,15.666666666666666,28.666666666666668,0,14.333333333333334" fill="#222" fill-opacity="0.08066666666666666" stroke="#000" stroke-opacity="0.02" transform="translate(15.666666666666666,71.66666666666667)"></polyline><polyline points="15.666666666666666,0,31.333333333333332,14.333333333333334,15.666666666666666,28.666666666666668,0,14.333333333333334" fill="#222" fill-opacity="0.13266666666666665" stroke="#000" stroke-opacity="0.02" transform="translate(47,-14.333333333333334)"></polyline><polyline points="15.666666666666666,0,31.333333333333332,14.333333333333334,15.666666666666666,28.666666666666668,0,14.333333333333334" fill="#222" fill-opacity="0.13266666666666665" stroke="#000" stroke-opacity="0.02" transform="translate(47,71.66666666666667)"></polyline><polyline points="15.666666666666666,0,31.333333333333332,14.333333333333334,15.666666666666666,28.666666666666668,0,14.333333333333334" fill="#222" fill-opacity="0.028666666666666667" stroke="#000" stroke-opacity="0.02" transform="translate(78.33333333333333,-14.333333333333334)"></polyline><polyline points="15.666666666666666,0,31.333333333333332,14.333333333333334,15.666666666666666,28.666666666666668,0,14.333333333333334" fill="#222" fill-opacity="0.028666666666666667" stroke="#000" stroke-opacity="0.02" transform="translate(78.33333333333333,71.66666666666667)"></polyline><polyline points="15.666666666666666,0,31.333333333333332,14.333333333333334,15.666666666666666,28.666666666666668,0,14.333333333333334" fill="#222" fill-opacity="0.028666666666666667" stroke="#000" stroke-opacity="0.02" transform="translate(109.66666666666666,-14.333333333333334)"></polyline><polyline points="15.666666666666666,0,31.333333333333332,14.333333333333334,15.666666666666666,28.666666666666668,0,14.333333333333334" fill="#222" fill-opacity="0.028666666666666667" stroke="#000" stroke-opacity="0.02" transform="translate(109.66666666666666,71.66666666666667)"></polyline><polyline points="15.666666666666666,0,31.333333333333332,14.333333333333334,15.666666666666666,28.666666666666668,0,14.333333333333334" fill="#222" fill-opacity="0.046" stroke="#000" stroke-opacity="0.02" transform="translate(141,-14.333333333333334)"></polyline><polyline points="15.666666666666666,0,31.333333333333332,14.333333333333334,15.666666666666666,28.666666666666668,0,14.333333333333334" fill="#222" fill-opacity="0.046" stroke="#000" stroke-opacity="0.02" transform="translate(141,71.66666666666667)"></polyline><polyline points="15.666666666666666,0,31.333333333333332,14.333333333333334,15.666666666666666,28.666666666666668,0,14.333333333333334" fill="#ddd" fill-opacity="0.14133333333333334" stroke="#000" stroke-opacity="0.02" transform="translate(0,0)"></polyline><polyline points="15.666666666666666,0,31.333333333333332,14.333333333333334,15.666666666666666,28.666666666666668,0,14.333333333333334" fill="#ddd" fill-opacity="0.14133333333333334" stroke="#000" stroke-opacity="0.02" transform="translate(188,0)"></polyline><polyline points="15.666666666666666,0,31.333333333333332,14.333333333333334,15.666666666666666,28.666666666666668,0,14.333333333333334" fill="#ddd" fill-opacity="0.03733333333333333" stroke="#000" stroke-opacity="0.02" transform="translate(31.333333333333332,0)"></polyline><polyline points="15.666666666666666,0,31.333333333333332,14.333333333333334,15.666666666666666,28.666666666666668,0,14.333333333333334" fill="#222" fill-opacity="0.028666666666666667" stroke="#000" stroke-opacity="0.02" transform="translate(62.666666666666664,0)"></polyline><polyline points="15.666666666666666,0,31.333333333333332,14.333333333333334,15.666666666666666,28.666666666666668,0,14.333333333333334" fill="#ddd" fill-opacity="0.03733333333333333" stroke="#000" stroke-opacity="0.02" transform="translate(94,0)"></polyline><polyline points="15.666666666666666,0,31.333333333333332,14.333333333333334,15.666666666666666,28.666666666666668,0,14.333333333333334" fill="#222" fill-opacity="0.046" stroke="#000" stroke-opacity="0.02" transform="translate(125.33333333333333,0)"></polyline><polyline points="15.666666666666666,0,31.333333333333332,14.333333333333334,15.666666666666666,28.666666666666668,0,14.333333333333334" fill="#ddd" fill-opacity="0.12400000000000001" stroke="#000" stroke-opacity="0.02" transform="translate(156.66666666666666,0)"></polyline><polyline points="15.666666666666666,0,31.333333333333332,14.333333333333334,15.666666666666666,28.666666666666668,0,14.333333333333334" fill="#ddd" fill-opacity="0.10666666666666667" stroke="#000" stroke-opacity="0.02" transform="translate(-15.666666666666666,14.333333333333334)"></polyline><polyline points="15.666666666666666,0,31.333333333333332,14.333333333333334,15.666666666666666,28.666666666666668,0,14.333333333333334" fill="#ddd" fill-opacity="0.10666666666666667" stroke="#000" stroke-opacity="0.02" transform="translate(172.33333333333334,14.333333333333334)"></polyline><polyline points="15.666666666666666,0,31.333333333333332,14.333333333333334,15.666666666666666,28.666666666666668,0,14.333333333333334" fill="#222" fill-opacity="0.046" stroke="#000" stroke-opacity="0.02" transform="translate(15.666666666666666,14.333333333333334)"></polyline><polyline points="15.666666666666666,0,31.333333333333332,14.333333333333334,15.666666666666666,28.666666666666668,0,14.333333333333334" fill="#ddd" fill-opacity="0.02" stroke="#000" stroke-opacity="0.02" transform="translate(47,14.333333333333334)"></polyline><polyline points="15.666666666666666,0,31.333333333333332,14.333333333333334,15.666666666666666,28.666666666666668,0,14.333333333333334" fill="#ddd" fill-opacity="0.05466666666666667" stroke="#000" stroke-opacity="0.02" transform="translate(78.33333333333333,14.333333333333334)"></polyline><polyline points="15.666666666666666,0,31.333333333333332,14.333333333333334,15.666666666666666,28.666666666666668,0,14.333333333333334" fill="#222" fill-opacity="0.06333333333333334" stroke="#000" stroke-opacity="0.02" transform="translate(109.66666666666666,14.333333333333334)"></polyline><polyline points="15.666666666666666,0,31.333333333333332,14.333333333333334,15.666666666666666,28.666666666666668,0,14.333333333333334" fill="#ddd" fill-opacity="0.10666666666666667" stroke="#000" stroke-opacity="0.02" transform="translate(141,14.333333333333334)"></polyline><polyline points="15.666666666666666,0,31.333333333333332,14.333333333333334,15.666666666666666,28.666666666666668,0,14.333333333333334" fill="#222" fill-opacity="0.15" stroke="#000" stroke-opacity="0.02" transform="translate(0,28.666666666666664)"></polyline><polyline points="15.666666666666666,0,31.333333333333332,14.333333333333334,15.666666666666666,28.666666666666668,0,14.333333333333334" fill="#222" fill-opacity="0.15" stroke="#000" stroke-opacity="0.02" transform="translate(188,28.666666666666664)"></polyline><polyline points="15.666666666666666,0,31.333333333333332,14.333333333333334,15.666666666666666,28.666666666666668,0,14.333333333333334" fill="#ddd" fill-opacity="0.12400000000000001" stroke="#000" stroke-opacity="0.02" transform="translate(31.333333333333332,28.666666666666664)"></polyline><polyline points="15.666666666666666,0,31.333333333333332,14.333333333333334,15.666666666666666,28.666666666666668,0,14.333333333333334" fill="#222" fill-opacity="0.11533333333333334" stroke="#000" stroke-opacity="0.02" transform="translate(62.666666666666664,28.666666666666664)"></polyline><polyline points="15.666666666666666,0,31.333333333333332,14.333333333333334,15.666666666666666,28.666666666666668,0,14.333333333333334" fill="#222" fill-opacity="0.046" stroke="#000" stroke-opacity="0.02" transform="translate(94,28.666666666666664)"></polyline><polyline points="15.666666666666666,0,31.333333333333332,14.333333333333334,15.666666666666666,28.666666666666668,0,14.333333333333334" fill="#ddd" fill-opacity="0.02" stroke="#000" stroke-opacity="0.02" transform="translate(125.33333333333333,28.666666666666664)"></polyline><polyline points="15.666666666666666,0,31.333333333333332,14.333333333333334,15.666666666666666,28.666666666666668,0,14.333333333333334" fill="#ddd" fill-opacity="0.05466666666666667" stroke="#000" stroke-opacity="0.02" transform="translate(156.66666666666666,28.666666666666664)"></polyline><polyline points="15.666666666666666,0,31.333333333333332,14.333333333333334,15.666666666666666,28.666666666666668,0,14.333333333333334" fill="#ddd" fill-opacity="0.08933333333333333" stroke="#000" stroke-opacity="0.02" transform="translate(-15.666666666666666,43)"></polyline><polyline points="15.666666666666666,0,31.333333333333332,14.333333333333334,15.666666666666666,28.666666666666668,0,14.333333333333334" fill="#ddd" fill-opacity="0.08933333333333333" stroke="#000" stroke-opacity="0.02" transform="translate(172.33333333333334,43)"></polyline><polyline points="15.666666666666666,0,31.333333333333332,14.333333333333334,15.666666666666666,28.666666666666668,0,14.333333333333334" fill="#ddd" fill-opacity="0.12400000000000001" stroke="#000" stroke-opacity="0.02" transform="translate(15.666666666666666,43)"></polyline><polyline points="15.666666666666666,0,31.333333333333332,14.333333333333334,15.666666666666666,28.666666666666668,0,14.333333333333334" fill="#222" fill-opacity="0.11533333333333334" stroke="#000" stroke-opacity="0.02" transform="translate(47,43)"></polyline><polyline points="15.666666666666666,0,31.333333333333332,14.333333333333334,15.666666666666666,28.666666666666668,0,14.333333333333334" fill="#ddd" fill-opacity="0.08933333333333333" stroke="#000" stroke-opacity="0.02" transform="translate(78.33333333333333,43)"></polyline><polyline points="15.666666666666666,0,31.333333333333332,14.333333333333334,15.666666666666666,28.666666666666668,0,14.333333333333334" fill="#222" fill-opacity="0.08066666666666666" stroke="#000" stroke-opacity="0.02" transform="translate(109.66666666666666,43)"></polyline><polyline points="15.666666666666666,0,31.333333333333332,14.333333333333334,15.666666666666666,28.666666666666668,0,14.333333333333334" fill="#222" fill-opacity="0.098" stroke="#000" stroke-opacity="0.02" transform="translate(141,43)"></polyline><polyline points="15.666666666666666,0,31.333333333333332,14.333333333333334,15.666666666666666,28.666666666666668,0,14.333333333333334" fill="#ddd" fill-opacity="0.07200000000000001" stroke="#000" stroke-opacity="0.02" transform="translate(0,57.333333333333336)"></polyline><polyline points="15.666666666666666,0,31.333333333333332,14.333333333333334,15.666666666666666,28.666666666666668,0,14.333333333333334" fill="#ddd" fill-opacity="0.07200000000000001" stroke="#000" stroke-opacity="0.02" transform="translate(188,57.333333333333336)"></polyline><polyline points="15.666666666666666,0,31.333333333333332,14.333333333333334,15.666666666666666,28.666666666666668,0,14.333333333333334" fill="#222" fill-opacity="0.028666666666666667" stroke="#000" stroke-opacity="0.02" transform="translate(31.333333333333332,57.333333333333336)"></polyline><polyline points="15.666666666666666,0,31.333333333333332,14.333333333333334,15.666666666666666,28.666666666666668,0,14.333333333333334" fill="#ddd" fill-opacity="0.10666666666666667" stroke="#000" stroke-opacity="0.02" transform="translate(62.666666666666664,57.333333333333336)"></polyline><polyline points="15.666666666666666,0,31.333333333333332,14.333333333333334,15.666666666666666,28.666666666666668,0,14.333333333333334" fill="#222" fill-opacity="0.098" stroke="#000" stroke-opacity="0.02" transform="translate(94,57.333333333333336)"></polyline><polyline points="15.666666666666666,0,31.333333333333332,14.333333333333334,15.666666666666666,28.666666666666668,0,14.333333333333334" fill="#222" fill-opacity="0.15" stroke="#000" stroke-opacity="0.02" transform="translate(125.33333333333333,57.333333333333336)"></polyline><polyline points="15.666666666666666,0,31.333333333333332,14.333333333333334,15.666666666666666,28.666666666666668,0,14.333333333333334" fill="#ddd" fill-opacity="0.07200000000000001" stroke="#000" stroke-opacity="0.02" transform="translate(156.66666666666666,57.333333333333336)"></polyline></svg>