<svg xmlns="http://www.w3.org/2000/svg" width="458" height="458"><rect x="0" y="0" width="100%" height="100%" fill="rgb(48,120,159)"></rect><rect x="0" y="16" width="100%" height="18" opacity="0.13266666666666665" fill="#222"></rect><rect x="0" y="39" width="100%" height="13" opacity="0.08933333333333333" fill="#ddd"></rect><rect x="0" y="69" width="100%" height="16" opacity="0.11533333333333334" fill="#222"></rect><rect x="0" y="92" width="100%" height="19" opacity="0.14133333333333334" fill="#ddd"></rect><rect x="0" y="119" width="100%" height="17" opacity="0.12400000000000001" fill="#ddd"></rect><rect x="0" y="142" width="100%" height="16" opacity="0.11533333333333334" fill="#222"></rect><rect x="0" y="171" width="100%" height="6" opacity="0.028666666666666667" fill="#222"></rect><rect x="0" y="189" width="100%" height="6" opacity="0.028666666666666667" fill="#222"></rect><rect x="0" y="201" width="100%" height="17" opacity="0.12400000000000001" fill="#ddd"></rect><rect x="0" y="232" width="100%" height="11" opacity="0.07200000000000001" fill="#ddd"></rect><rect x="0" y="255" width="100%" height="12" opacity="0.08066666666666666" fill="#222"></rect><rect x="0" y="284" width="100%" height="14" opacity="0.098" fill="#222"></rect><rect x="0" y="304" width="100%" height="14" opacity="0.098" fill="#222"></rect><rect x="0" y="334" width="100%" height="16" opacity="0.11533333333333334" fill="#222"></rect><rect x="0" y="360" width="100%" height="13" opacity="0.08933333333333333" fill="#ddd"></rect><rect x="0" y="384" width="100%" height="18" opacity="0.13266666666666665" fill="#222"></rect><rect x="0" y="419" width="100%" height="12" opacity="0.08066666666666666" fill="#222"></rect><rect x="0" y="440" width="100%" height="18" opacity="0.13266666666666665" fill="#222"></rect><rect x="16" y="0" width="18" height="100%" opacity="0.13266666666666665" fill="#222"></rect><rect x="39" y="0" width="13" height="100%" opacity="0.08933333333333333" fill="#ddd"></rect><rect x="69" y="0" width="16" height="100%" opacity="0.11533333333333334" fill="#222"></rect><rect x="92" y="0" width="19" height="100%" opacity="0.14133333333333334" fill="#ddd"></rect><rect x="119" y="0" width="17" height="100%" opacity="0.12400000000000001" fill="#ddd"></rect><rect x="142" y="0" width="16" height="100%" opacity="0.11533333333333334" fill="#222"></rect><rect x="171" y="0" width="6" height="100%" opacity="0.028666666666666667" fill="#222"></rect><rect x="189" y="0" width="6" height="100%" opacity="0.028666666666666667" fill="#222"></rect><rect x="201" y="0" width="17" height="100%" opacity="0.12400000000000001" fill="#ddd"></rect><rect x="232" y="0" width="11" height="100%" opacity="0.07200000000000001" fill="#ddd"></rect><rect x="255" y="0" width="12" height="100%" opacity="0.08066666666666666" fill="#222"></rect><rect x="284" y="0" width="14" height="100%" opacity="0.098" fill="#222"></rect><rect x="304" y="0" width="14" height="100%" opacity="0.098" fill="#222"></rect><rect x="334" y="0" width="16" height="100%" opacity="0.11533333333333334" fill="#222"></rect><rect x="360" y="0" width="13" height="100%" opacity="0.08933333333333333" fill="#ddd"></rect><rect x="384" y="0" width="18" height="100%" opacity="0.13266666666666665" fill="#222"></rect><rect x="419" y="0" width="12" height="100%" opacity="0.08066666666666666" fill="#222"></rect><rect x="440" y="0" width="18" height="100%" opacity="0.13266666666666665" fill="#222"></rect></svg>