<svg xmlns="http://www.w3.org/2000/svg" width="162" height="280"><rect x="0" y="0" width="100%" height="100%" fill="rgb(93,52,155)"></rect><polyline points="27,0,54,46.76537180435968,0,46.76537180435968,27,0" fill="#222" fill-opacity="0.098" stroke="#000" stroke-opacity="0.02" transform="translate(-27,0) rotate(180,27,23.38268590217984)"></polyline><polyline points="27,0,54,46.76537180435968,0,46.76537180435968,27,0" fill="#222" fill-opacity="0.098" stroke="#000" stroke-opacity="0.02" transform="translate(135,0) rotate(180,27,23.38268590217984)"></polyline><polyline points="27,0,54,46.76537180435968,0,46.76537180435968,27,0" fill="#ddd" fill-opacity="0.07200000000000001" stroke="#000" stroke-opacity="0.02" transform="translate(0,0) rotate(0,27,23.38268590217984)"></polyline><polyline points="27,0,54,46.76537180435968,0,46.76537180435968,27,0" fill="#222" fill-opacity="0.06333333333333334" stroke="#000" stroke-opacity="0.02" transform="translate(27,0) rotate(180,27,23.38268590217984)"></polyline><polyline points="27,0,54,46.76537180435968,0,46.76537180435968,27,0" fill="#222" fill-opacity="0.046" stroke="#000" stroke-opacity="0.02" transform="translate(54,0) rotate(0,27,23.38268590217984)"></polyline><polyline points="27,0,54,46.76537180435968,0,46.76537180435968,27,0" fill="#ddd" fill-opacity="0.10666666666666667" stroke="#000" stroke-opacity="0.02" transform="translate(81,0) rotate(180,27,23.38268590217984)"></polyline><polyline points="27,0,54,46.76537180435968,0,46.76537180435968,27,0" fill="#ddd" fill-opacity="0.05466666666666667" stroke="#000" stroke-opacity="0.02" transform="translate(108,0) rotate(0,27,23.38268590217984)"></polyline><polyline points="27,0,54,46.76537180435968,0,46.76537180435968,27,0" fill="#222" fill-opacity="0.06333333333333334" stroke="#000" stroke-opacity="0.02" transform="translate(-27,46.76537180435968) rotate(0,27,23.38268590217984)"></polyline><polyline points="27,0,54,46.76537180435968,0,46.76537180435968,27,0" fill="#222" fill-opacity="0.06333333333333334" stroke="#000" stroke-opacity="0.02" transform="translate(135,46.76537180435968) rotate(0,27,23.38268590217984)"></polyline><polyline points="27,0,54,46.76537180435968,0,46.76537180435968,27,0" fill="#ddd" fill-opacity="0.03733333333333333" stroke="#000" stroke-opacity="0.02" transform="translate(0,46.76537180435968) rotate(180,27,23.38268590217984)"></polyline><polyline points="27,0,54,46.76537180435968,0,46.76537180435968,27,0" fill="#ddd" fill-opacity="0.07200000000000001" stroke="#000" stroke-opacity="0.02" transform="translate(27,46.76537180435968) rotate(0,27,23.38268590217984)"></polyline><polyline points="27,0,54,46.76537180435968,0,46.76537180435968,27,0" fill="#222" fill-opacity="0.13266666666666665" stroke="#000" stroke-opacity="0.02" transform="translate(54,46.76537180435968) rotate(180,27,23.38268590217984)"></polyline><polyline points="27,0,54,46.76537180435968,0,46.76537180435968,27,0" fill="#222" fill-opacity="0.13266666666666665" stroke="#000" stroke-opacity="0.02" transform="translate(81,46.76537180435968) rotate(0,27,23.38268590217984)"></polyline><polyline points="27,0,54,46.76537180435968,0,46.76537180435968,27,0" fill="#ddd" fill-opacity="0.14133333333333334" stroke="#000" stroke-opacity="0.02" transform="translate(108,46.76537180435968) rotate(180,27,23.38268590217984)"></polyline><polyline points="27,0,54,46.76537180435968,0,46.76537180435968,27,0" fill="#222" fill-opacity="0.08066666666666666" stroke="#000" stroke-opacity="0.02" transform="translate(-27,93.53074360871936) rotate(180,27,23.38268590217984)"></polyline><polyline points="27,0,54,46.76537180435968,0,46.76537180435968,27,0" fill="#222" fill-opacity="0.08066666666666666" stroke="#000" stroke-opacity="0.02" transform="translate(135,93.53074360871936) rotate(180,27,23.38268590217984)"></polyline><polyline points="27,0,54,46.76537180435968,0,46.76537180435968,27,0" fill="#ddd" fill-opacity="0.03733333333333333" stroke="#000" stroke-opacity="0.02" transform="translate(0,93.53074360871936) rotate(0,27,23.38268590217984)"></polyline><polyline points="27,0,54,46.76537180435968,0,46.76537180435968,27,0" fill="#ddd" fill-opacity="0.05466666666666667" stroke="#000" stroke-opacity="0.02" transform="translate(27,93.53074360871936) rotate(180,27,23.38268590217984)"></polyline><polyline points="27,0,54,46.76537180435968,0,46.76537180435968,27,0" fill="#ddd" fill-opacity="0.05466666666666667" stroke="#000" stroke-opacity="0.02" transform="translate(54,93.53074360871936) rotate(0,27,23.38268590217984)"></polyline><polyline points="27,0,54,46.76537180435968,0,46.76537180435968,27,0" fill="#222" fill-opacity="0.06333333333333334" stroke="#000" stroke-opacity="0.02" transform="translate(81,93.53074360871936) rotate(180,27,23.38268590217984)"></polyline><polyline points="27,0,54,46.76537180435968,0,46.76537180435968,27,0" fill="#ddd" fill-opacity="0.08933333333333333" stroke="#000" stroke-opacity="0.02" transform="translate(108,93.53074360871936) rotate(0,27,23.38268590217984)"></polyline><polyline points="27,0,54,46.76537180435968,0,46.76537180435968,27,0" fill="#222" fill-opacity="0.028666666666666667" stroke="#000" stroke-opacity="0.02" transform="translate(-27,140.29611541307904) rotate(0,27,23.38268590217984)"></polyline><polyline points="27,0,54,46.76537180435968,0,46.76537180435968,27,0" fill="#222" fill-opacity="0.028666666666666667" stroke="#000" stroke-opacity="0.02" transform="translate(135,140.29611541307904) rotate(0,27,23.38268590217984)"></polyline><polyline points="27,0,54,46.76537180435968,0,46.76537180435968,27,0" fill="#222" fill-opacity="0.046" stroke="#000" stroke-opacity="0.02" transform="translate(0,140.29611541307904) rotate(180,27,23.38268590217984)"></polyline><polyline points="27,0,54,46.76537180435968,0,46.76537180435968,27,0" fill="#ddd" fill-opacity="0.08933333333333333" stroke="#000" stroke-opacity="0.02" transform="translate(27,140.29611541307904) rotate(0,27,23.38268590217984)"></polyline><polyline points="27,0,54,46.76537180435968,0,46.76537180435968,27,0" fill="#ddd" fill-opacity="0.07200000000000001" stroke="#000" stroke-opacity="0.02" transform="translate(54,140.29611541307904) rotate(180,27,23.38268590217984)"></polyline><polyline points="27,0,54,46.76537180435968,0,46.76537180435968,27,0" fill="#222" fill-opacity="0.15" stroke="#000" stroke-opacity="0.02" transform="translate(81,140.29611541307904) rotate(0,27,23.38268590217984)"></polyline><polyline points="27,0,54,46.76537180435968,0,46.76537180435968,27,0" fill="#ddd" fill-opacity="0.10666666666666667" stroke="#000" stroke-opacity="0.02" transform="translate(108,140.29611541307904) rotate(180,27,23.38268590217984)"></polyline><polyline points="27,0,54,46.76537180435968,0,46.76537180435968,27,0" fill="#ddd" fill-opacity="0.12400000000000001" stroke="#000" stroke-opacity="0.02" transform="translate(-27,187.06148721743872) rotate(180,27,23.38268590217984)"></polyline><polyline points="27,0,54,46.76537180435968,0,46.76537180435968,27,0" fill="#ddd" fill-opacity="0.12400000000000001" stroke="#000" stroke-opacity="0.02" transform="translate(135,187.06148721743872) rotate(180,27,23.38268590217984)"></polyline><polyline points="27,0,54,46.76537180435968,0,46.76537180435968,27,0" fill="#222" fill-opacity="0.13266666666666665" stroke="#000" stroke-opacity="0.02" transform="translate(0,187.06148721743872) rotate(0,27,23.38268590217984)"></polyline><polyline points="27,0,54,46.76537180435968,0,46.76537180435968,27,0" fill="#222" fill-opacity="0.06333333333333334" stroke="#000" stroke-opacity="0.02" transform="translate(27,187.06148721743872) rotate(180,27,23.38268590217984)"></polyline><polyline points="27,0,54,46.76537180435968,0,46.76537180435968,27,0" fill="#ddd" fill-opacity="0.12400000000000001" stroke="#000" stroke-opacity="0.02" transform="translate(54,187.06148721743872) rotate(0,27,23.38268590217984)"></polyline><polyline points="27,0,54,46.76537180435968,0,46.76537180435968,27,0" fill="#ddd" fill-opacity="0.07200000000000001" stroke="#000" stroke-opacity="0.02" transform="translate(81,187.06148721743872) rotate(180,27,23.38268590217984)"></polyline><polyline points="27,0,54,46.76537180435968,0,46.76537180435968,27,0" fill="#ddd" fill-opacity="0.07200000000000001" stroke="#000" stroke-opacity="0.02" transform="translate(108,187.06148721743872) rotate(0,27,23.38268590217984)"></polyline><polyline points="27,0,54,46.76537180435968,0,46.76537180435968,27,0" fill="#222" fill-opacity="0.08066666666666666" stroke="#000" stroke-opacity="0.02" transform="translate(-27,233.8268590217984) rotate(0,27,23.38268590217984)"></polyline><polyline points="27,0,54,46.76537180435968,0,46.76537180435968,27,0" fill="#222" fill-opacity="0.08066666666666666" stroke="#000" stroke-opacity="0.02" transform="translate(135,233.8268590217984) rotate(0,27,23.38268590217984)"></polyline><polyline points="27,0,54,46.76537180435968,0,46.76537180435968,27,0" fill="#ddd" fill-opacity="0.12400000000000001" stroke="#000" stroke-opacity="0.02" transform="translate(0,233.8268590217984) rotate(180,27,23.38268590217984)"></polyline><polyline points="27,0,54,46.76537180435968,0,46.76537180435968,27,0" fill="#ddd" fill-opacity="0.14133333333333334" stroke="#000" stroke-opacity="0.02" transform="translate(27,233.8268590217984) rotate(0,27,23.38268590217984)"></polyline><polyline points="27,0,54,46.76537180435968,0,46.76537180435968,27,0" fill="#ddd" fill-opacity="0.03733333333333333" stroke="#000" stroke-opacity="0.02" transform="translate(54,233.8268590217984) rotate(180,27,23.38268590217984)"></polyline><polyline points="27,0,54,46.76537180435968,0,46.76537180435968,27,0" fill="#ddd" fill-opacity="0.10666666666666667" stroke="#000" stroke-opacity="0.02" transform="translate(81,233.8268590217984) rotate(0,27,23.38268590217984)"></polyline><polyline points="27,0,54,46.76537180435968,0,46.76537180435968,27,0" fill="#ddd" fill-opacity="0.12400000000000001" stroke="#000" stroke-opacity="0.02" transform="translate(108,233.8268590217984) rotate(180,27,23.38268590217984)"></polyline></svg>