<svg xmlns="http://www.w3.org/2000/svg" width="252" height="110"><rect x="0" y="0" width="100%" height="100%" fill="rgb(68,48,159)"></rect><polyline points="21,0,42,18.333333333333336,21,36.66666666666667,0,18.333333333333336" fill="#ddd" fill-opacity="0.12400000000000001" stroke="#000" stroke-opacity="0.02" transform="translate(-21,-18.333333333333336)"></polyline><polyline points="21,0,42,18.333333333333336,21,36.66666666666667,0,18.333333333333336" fill="#ddd" fill-opacity="0.12400000000000001" stroke="#000" stroke-opacity="0.02" transform="translate(231,-18.333333333333336)"></polyline><polyline points="21,0,42,18.333333333333336,21,36.66666666666667,0,18.333333333333336" fill="#ddd" fill-opacity="0.12400000000000001" stroke="#000" stroke-opacity="0.02" transform="translate(-21,91.66666666666669)"></polyline><polyline points="21,0,42,18.333333333333336,21,36.66666666666667,0,18.333333333333336" fill="#ddd" fill-opacity="0.12400000000000001" stroke="#000" stroke-opacity="0.02" transform="translate(231,91.66666666666669)"></polyline><polyline points="21,0,42,18.333333333333336,21,36.66666666666667,0,18.333333333333336" fill="#ddd" fill-opacity="0.10666666666666667" stroke="#000" stroke-opacity="0.02" transform="translate(21,-18.333333333333336)"></polyline><polyline points="21,0,42,18.333333333333336,21,36.66666666666667,0,18.333333333333336" fill="#ddd" fill-opacity="0.10666666666666667" stroke="#000" stroke-opacity="0.02" transform="translate(21,91.66666666666669)"></polyline><polyline points="21,0,42,18.333333333333336,21,36.66666666666667,0,18.333333333333336" fill="#ddd" fill-opacity="0.02" stroke="#000" stroke-opacity="0.02" transform="translate(63,-18.333333333333336)"></polyline><polyline points="21,0,42,18.333333333333336,21,36.66666666666667,0,18.333333333333336" fill="#ddd" fill-opacity="0.02" stroke="#000" stroke-opacity="0.02" transform="translate(63,91.66666666666669)"></polyline><polyline points="21,0,42,18.333333333333336,21,36.66666666666667,0,18.333333333333336" fill="#222" fill-opacity="0.06333333333333334" stroke="#000" stroke-opacity="0.02" transform="translate(105,-18.333333333333336)"></polyline><polyline points="21,0,42,18.333333333333336,21,36.66666666666667,0,18.333333333333336" fill="#222" fill-opacity="0.06333333333333334" stroke="#000" stroke-opacity="0.02" transform="translate(105,91.66666666666669)"></polyline><polyline points="21,0,42,18.333333333333336,21,36.66666666666667,0,18.333333333333336" fill="#ddd" fill-opacity="0.12400000000000001" stroke="#000" stroke-opacity="0.02" transform="translate(147,-18.333333333333336)"></polyline><polyline points="21,0,42,18.333333333333336,21,36.66666666666667,0,18.333333333333336" fill="#ddd" fill-opacity="0.12400000000000001" stroke="#000" stroke-opacity="0.02" transform="translate(147,91.66666666666669)"></polyline><polyline points="21,0,42,18.333333333333336,21,36.66666666666667,0,18.333333333333336" fill="#ddd" fill-opacity="0.05466666666666667" stroke="#000" stroke-opacity="0.02" transform="translate(189,-18.333333333333336)"></polyline><polyline points="21,0,42,18.333333333333336,21,36.66666666666667,0,18.333333333333336" fill="#ddd" fill-opacity="0.05466666666666667" stroke="#000" stroke-opacity="0.02" transform="translate(189,91.66666666666669)"></polyline><polyline points="21,0,42,18.333333333333336,21,36.66666666666667,0,18.333333333333336" fill="#ddd" fill-opacity="0.14133333333333334" stroke="#000" stroke-opacity="0.02" transform="translate(0,0)"></polyline><polyline points="21,0,42,18.333333333333336,21,36.66666666666667,0,18.333333333333336" fill="#ddd" fill-opacity="0.14133333333333334" stroke="#000" stroke-opacity="0.02" transform="translate(252,0)"></polyline><polyline points="21,0,42,18.333333333333336,21,36.66666666666667,0,18.333333333333336" fill="#ddd" fill-opacity="0.14133333333333334" stroke="#000" stroke-opacity="0.02" transform="translate(42,0)"></polyline><polyline points="21,0,42,18.333333333333336,21,36.66666666666667,0,18.333333333333336" fill="#222" fill-opacity="0.046" stroke="#000" stroke-opacity="0.02" transform="translate(84,0)"></polyline><polyline points="21,0,42,18.333333333333336,21,36.66666666666667,0,18.333333333333336" fill="#ddd" fill-opacity="0.10666666666666667" stroke="#000" stroke-opacity="0.02" transform="translate(126,0)"></polyline><polyline points="21,0,42,18.333333333333336,21,36.66666666666667,0,18.333333333333336" fill="#ddd" fill-opacity="0.03733333333333333" stroke="#000" stroke-opacity="0.02" transform="translate(168,0)"></polyline><polyline points="21,0,42,18.333333333333336,21,36.66666666666667,0,18.333333333333336" fill="#ddd" fill-opacity="0.12400000000000001" stroke="#000" stroke-opacity="0.02" transform="translate(210,0)"></polyline><polyline points="21,0,42,18.333333333333336,21,36.66666666666667,0,18.333333333333336" fill="#222" fill-opacity="0.08066666666666666" stroke="#000" stroke-opacity="0.02" transform="translate(-21,18.333333333333336)"></polyline><polyline points="21,0,42,18.333333333333336,21,36.66666666666667,0,18.333333333333336" fill="#222" fill-opacity="0.08066666666666666" stroke="#000" stroke-opacity="0.02" transform="translate(231,18.333333333333336)"></polyline><polyline points="21,0,42,18.333333333333336,21,36.66666666666667,0,18.333333333333336" fill="#222" fill-opacity="0.098" stroke="#000" stroke-opacity="0.02" transform="translate(21,18.333333333333336)"></polyline><polyline points="21,0,42,18.333333333333336,21,36.66666666666667,0,18.333333333333336" fill="#ddd" fill-opacity="0.05466666666666667" stroke="#000" stroke-opacity="0.02" transform="translate(63,18.333333333333336)"></polyline><polyline points="21,0,42,18.333333333333336,21,36.66666666666667,0,18.333333333333336" fill="#222" fill-opacity="0.13266666666666665" stroke="#000" stroke-opacity="0.02" transform="translate(105,18.333333333333336)"></polyline><polyline points="21,0,42,18.333333333333336,21,36.66666666666667,0,18.333333333333336" fill="#222" fill-opacity="0.13266666666666665" stroke="#000" stroke-opacity="0.02" transform="translate(147,18.333333333333336)"></polyline><polyline points="21,0,42,18.333333333333336,21,36.66666666666667,0,18.333333333333336" fill="#ddd" fill-opacity="0.12400000000000001" stroke="#000" stroke-opacity="0.02" transform="translate(189,18.333333333333336)"></polyline><polyline points="21,0,42,18.333333333333336,21,36.66666666666667,0,18.333333333333336" fill="#ddd" fill-opacity="0.08933333333333333" stroke="#000" stroke-opacity="0.02" transform="translate(0,36.66666666666667)"></polyline><polyline points="21,0,42,18.333333333333336,21,36.66666666666667,0,18.333333333333336" fill="#ddd" fill-opacity="0.08933333333333333" stroke="#000" stroke-opacity="0.02" transform="translate(252,36.66666666666667)"></polyline><polyline points="21,0,42,18.333333333333336,21,36.66666666666667,0,18.333333333333336" fill="#ddd" fill-opacity="0.02" stroke="#000" stroke-opacity="0.02" transform="translate(42,36.66666666666667)"></polyline><polyline points="21,0,42,18.333333333333336,21,36.66666666666667,0,18.333333333333336" fill="#222" fill-opacity="0.11533333333333334" stroke="#000" stroke-opacity="0.02" transform="translate(84,36.66666666666667)"></polyline><polyline points="21,0,42,18.333333333333336,21,36.66666666666667,0,18.333333333333336" fill="#ddd" fill-opacity="0.12400000000000001" stroke="#000" stroke-opacity="0.02" transform="translate(126,36.66666666666667)"></polyline><polyline points="21,0,42,18.333333333333336,21,36.66666666666667,0,18.333333333333336" fill="#ddd" fill-opacity="0.02" stroke="#000" stroke-opacity="0.02" transform="translate(168,36.66666666666667)"></polyline><polyline points="21,0,42,18.333333333333336,21,36.66666666666667,0,18.333333333333336" fill="#ddd" fill-opacity="0.10666666666666667" stroke="#000" stroke-opacity="0.02" transform="translate(210,36.66666666666667)"></polyline><polyline points="21,0,42,18.333333333333336,21,36.66666666666667,0,18.333333333333336" fill="#ddd" fill-opacity="0.05466666666666667" stroke="#000" stroke-opacity="0.02" transform="translate(-21,55.00000000000001)"></polyline><polyline points="21,0,42,18.333333333333336,21,36.66666666666667,0,18.333333333333336" fill="#ddd" fill-opacity="0.05466666666666667" stroke="#000" stroke-opacity="0.02" transform="translate(231,55.00000000000001)"></polyline><polyline points="21,0,42,18.333333333333336,21,36.66666666666667,0,18.333333333333336" fill="#ddd" fill-opacity="0.12400000000000001" stroke="#000" stroke-opacity="0.02" transform="translate(21,55.00000000000001)"></polyline><polyline points="21,0,42,18.333333333333336,21,36.66666666666667,0,18.333333333333336" fill="#ddd" fill-opacity="0.10666666666666667" stroke="#000" stroke-opacity="0.02" transform="translate(63,55.00000000000001)"></polyline><polyline points="21,0,42,18.333333333333336,21,36.66666666666667,0,18.333333333333336" fill="#222" fill-opacity="0.11533333333333334" stroke="#000" stroke-opacity="0.02" transform="translate(105,55.00000000000001)"></polyline><polyline points="21,0,42,18.333333333333336,21,36.66666666666667,0,18.333333333333336" fill="#222" fill-opacity="0.15" stroke="#000" stroke-opacity="0.02" transform="translate(147,55.00000000000001)"></polyline><polyline points="21,0,42,18.333333333333336,21,36.66666666666667,0,18.333333333333336" fill="#ddd" fill-opacity="0.08933333333333333" stroke="#000" stroke-opacity="0.02" transform="translate(189,55.00000000000001)"></polyline><polyline points="21,0,42,18.333333333333336,21,36.66666666666667,0,18.333333333333336" fill="#222" fill-opacity="0.08066666666666666" stroke="#000" stroke-opacity="0.02" transform="translate(0,73.33333333333334)"></polyline><polyline points="21,0,42,18.333333333333336,21,36.66666666666667,0,18.333333333333336" fill="#222" fill-opacity="0.08066666666666666" stroke="#000" stroke-opacity="0.02" transform="translate(252,73.33333333333334)"></polyline><polyline points="21,0,42,18.333333333333336,21,36.66666666666667,0,18.333333333333336" fill="#222" fill-opacity="0.08066666666666666" stroke="#000" stroke-opacity="0.02" transform="translate(42,73.33333333333334)"></polyline><polyline points="21,0,42,18.333333333333336,21,36.66666666666667,0,18.333333333333336" fill="#222" fill-opacity="0.06333333333333334" stroke="#000" stroke-opacity="0.02" transform="translate(84,73.33333333333334)"></polyline><polyline points="21,0,42,18.333333333333336,21,36.66666666666667,0,18.333333333333336" fill="#222" fill-opacity="0.028666666666666667" stroke="#000" stroke-opacity="0.02" transform="translate(126,73.33333333333334)"></polyline><polyline points="21,0,42,18.333333333333336,21,36.66666666666667,0,18.333333333333336" fill="#ddd" fill-opacity="0.08933333333333333" stroke="#000" stroke-opacity="0.02" transform="translate(168,73.33333333333334)"></polyline><polyline points="21,0,42,18.333333333333336,21,36.66666666666667,0,18.333333333333336" fill="#222" fill-opacity="0.15" stroke="#000" stroke-opacity="0.02" transform="translate(210,73.33333333333334)"></polyline></svg>