<svg xmlns="http://www.w3.org/2000/svg" width="140" height="61"><rect x="0" y="0" width="100%" height="100%" fill="rgb(69,96,138)"></rect><polyline points="11.666666666666668,0,23.333333333333336,10.333333333333332,11.666666666666668,20.666666666666664,0,10.333333333333332" fill="#222" fill-opacity="0.06333333333333334" stroke="#000" stroke-opacity="0.02" transform="translate(-11.666666666666668,-10.333333333333332)"></polyline><polyline points="11.666666666666668,0,23.333333333333336,10.333333333333332,11.666666666666668,20.666666666666664,0,10.333333333333332" fill="#222" fill-opacity="0.06333333333333334" stroke="#000" stroke-opacity="0.02" transform="translate(128.33333333333334,-10.333333333333332)"></polyline><polyline points="11.666666666666668,0,23.333333333333336,10.333333333333332,11.666666666666668,20.666666666666664,0,10.333333333333332" fill="#222" fill-opacity="0.06333333333333334" stroke="#000" stroke-opacity="0.02" transform="translate(-11.666666666666668,51.66666666666666)"></polyline><polyline points="11.666666666666668,0,23.333333333333336,10.333333333333332,11.666666666666668,20.666666666666664,0,10.333333333333332" fill="#222" fill-opacity="0.06333333333333334" stroke="#000" stroke-opacity="0.02" transform="translate(128.33333333333334,51.66666666666666)"></polyline><polyline points="11.666666666666668,0,23.333333333333336,10.333333333333332,11.666666666666668,20.666666666666664,0,10.333333333333332" fill="#ddd" fill-opacity="0.05466666666666667" stroke="#000" stroke-opacity="0.02" transform="translate(11.666666666666668,-10.333333333333332)"></polyline><polyline points="11.666666666666668,0,23.333333333333336,10.333333333333332,11.666666666666668,20.666666666666664,0,10.333333333333332" fill="#ddd" fill-opacity="0.05466666666666667" stroke="#000" stroke-opacity="0.02" transform="translate(11.666666666666668,51.66666666666666)"></polyline><polyline points="11.666666666666668,0,23.333333333333336,10.333333333333332,11.666666666666668,20.666666666666664,0,10.333333333333332" fill="#ddd" fill-opacity="0.14133333333333334" stroke="#000" stroke-opacity="0.02" transform="translate(35,-10.333333333333332)"></polyline><polyline points="11.666666666666668,0,23.333333333333336,10.333333333333332,11.666666666666668,20.666666666666664,0,10.333333333333332" fill="#ddd" fill-opacity="0.14133333333333334" stroke="#000" stroke-opacity="0.02" transform="translate(35,51.66666666666666)"></polyline><polyline points="11.666666666666668,0,23.333333333333336,10.333333333333332,11.666666666666668,20.666666666666664,0,10.333333333333332" fill="#222" fill-opacity="0.028666666666666667" stroke="#000" stroke-opacity="0.02" transform="translate(58.33333333333333,-10.333333333333332)"></polyline><polyline points="11.666666666666668,0,23.333333333333336,10.333333333333332,11.666666666666668,20.666666666666664,0,10.333333333333332" fill="#222" fill-opacity="0.028666666666666667" stroke="#000" stroke-opacity="0.02" transform="translate(58.33333333333333,51.66666666666666)"></polyline><polyline points="11.666666666666668,0,23.333333333333336,10.333333333333332,11.666666666666668,20.666666666666664,0,10.333333333333332" fill="#222" fill-opacity="0.098" stroke="#000" stroke-opacity="0.02" transform="translate(81.66666666666667,-10.333333333333332)"></polyline><polyline points="11.666666666666668,0,23.333333333333336,10.333333333333332,11.666666666666668,20.666666666666664,0,10.333333333333332" fill="#222" fill-opacity="0.098" stroke="#000" stroke-opacity="0.02" transform="translate(81.66666666666667,51.66666666666666)"></polyline><polyline points="11.666666666666668,0,23.333333333333336,10.333333333333332,11.666666666666668,20.666666666666664,0,10.333333333333332" fill="#222" fill-opacity="0.11533333333333334" stroke="#000" stroke-opacity="0.02" transform="translate(105.00000000000001,-10.333333333333332)"></polyline><polyline points="11.666666666666668,0,23.333333333333336,10.333333333333332,11.666666666666668,20.666666666666664,0,10.333333333333332" fill="#222" fill-opacity="0.11533333333333334" stroke="#000" stroke-opacity="0.02" transform="translate(105.00000000000001,51.66666666666666)"></polyline><polyline points="11.666666666666668,0,23.333333333333336,10.333333333333332,11.666666666666668,20.666666666666664,0,10.333333333333332" fill="#222" fill-opacity="0.06333333333333334" stroke="#000" stroke-opacity="0.02" transform="translate(0,0)"></polyline><polyline points="11.666666666666668,0,23.333333333333336,10.333333333333332,11.666666666666668,20.666666666666664,0,10.333333333333332" fill="#222" fill-opacity="0.06333333333333334" stroke="#000" stroke-opacity="0.02" transform="translate(140,0)"></polyline><polyline points="11.666666666666668,0,23.333333333333336,10.333333333333332,11.666666666666668,20.666666666666664,0,10.333333333333332" fill="#ddd" fill-opacity="0.03733333333333333" stroke="#000" stroke-opacity="0.02" transform="translate(23.333333333333336,0)"></polyline><polyline points="11.666666666666668,0,23.333333333333336,10.333333333333332,11.666666666666668,20.666666666666664,0,10.333333333333332" fill="#222" fill-opacity="0.098" stroke="#000" stroke-opacity="0.02" transform="translate(46.66666666666667,0)"></polyline><polyline points="11.666666666666668,0,23.333333333333336,10.333333333333332,11.666666666666668,20.666666666666664,0,10.333333333333332" fill="#ddd" fill-opacity="0.08933333333333333" stroke="#000" stroke-opacity="0.02" transform="translate(70,0)"></polyline><polyline points="11.666666666666668,0,23.333333333333336,10.333333333333332,11.666666666666668,20.666666666666664,0,10.333333333333332" fill="#ddd" fill-opacity="0.14133333333333334" stroke="#000" stroke-opacity="0.02" transform="translate(93.33333333333334,0)"></polyline><polyline points="11.666666666666668,0,23.333333333333336,10.333333333333332,11.666666666666668,20.666666666666664,0,10.333333333333332" fill="#ddd" fill-opacity="0.07200000000000001" stroke="#000" stroke-opacity="0.02" transform="translate(116.66666666666669,0)"></polyline><polyline points="11.666666666666668,0,23.333333333333336,10.333333333333332,11.666666666666668,20.666666666666664,0,10.333333333333332" fill="#222" fill-opacity="0.098" stroke="#000" stroke-opacity="0.02" transform="translate(-11.666666666666668,10.333333333333332)"></polyline><polyline points="11.666666666666668,0,23.333333333333336,10.333333333333332,11.666666666666668,20.666666666666664,0,10.333333333333332" fill="#222" fill-opacity="0.098" stroke="#000" stroke-opacity="0.02" transform="translate(128.33333333333334,10.333333333333332)"></polyline><polyline points="11.666666666666668,0,23.333333333333336,10.333333333333332,11.666666666666668,20.666666666666664,0,10.333333333333332" fill="#ddd" fill-opacity="0.07200000000000001" stroke="#000" stroke-opacity="0.02" transform="translate(11.666666666666668,10.333333333333332)"></polyline><polyline points="11.666666666666668,0,23.333333333333336,10.333333333333332,11.666666666666668,20.666666666666664,0,10.333333333333332" fill="#ddd" fill-opacity="0.07200000000000001" stroke="#000" stroke-opacity="0.02" transform="translate(35,10.333333333333332)"></polyline><polyline points="11.666666666666668,0,23.333333333333336,10.333333333333332,11.666666666666668,20.666666666666664,0,10.333333333333332" fill="#ddd" fill-opacity="0.07200000000000001" stroke="#000" stroke-opacity="0.02" transform="translate(58.33333333333333,10.333333333333332)"></polyline><polyline points="11.666666666666668,0,23.333333333333336,10.333333333333332,11.666666666666668,20.666666666666664,0,10.333333333333332" fill="#222" fill-opacity="0.08066666666666666" stroke="#000" stroke-opacity="0.02" transform="translate(81.66666666666667,10.333333333333332)"></polyline><polyline points="11.666666666666668,0,23.333333333333336,10.333333333333332,11.666666666666668,20.666666666666664,0,10.333333333333332" fill="#222" fill-opacity="0.098" stroke="#000" stroke-opacity="0.02" transform="translate(105.00000000000001,10.333333333333332)"></polyline><polyline points="11.666666666666668,0,23.333333333333336,10.333333333333332,11.666666666666668,20.666666666666664,0,10.333333333333332" fill="#222" fill-opacity="0.15" stroke="#000" stroke-opacity="0.02" transform="translate(0,20.666666666666664)"></polyline><polyline points="11.666666666666668,0,23.333333333333336,10.333333333333332,11.666666666666668,20.666666666666664,0,10.333333333333332" fill="#222" fill-opacity="0.15" stroke="#000" stroke-opacity="0.02" transform="translate(140,20.666666666666664)"></polyline><polyline points="11.666666666666668,0,23.333333333333336,10.333333333333332,11.666666666666668,20.666666666666664,0,10.333333333333332" fill="#ddd" fill-opacity="0.10666666666666667" stroke="#000" stroke-opacity="0.02" transform="translate(23.333333333333336,20.666666666666664)"></polyline><polyline points="11.666666666666668,0,23.333333333333336,10.333333333333332,11.666666666666668,20.666666666666664,0,10.333333333333332" fill="#222" fill-opacity="0.11533333333333334" stroke="#000" stroke-opacity="0.02" transform="translate(46.66666666666667,20.666666666666664)"></polyline><polyline points="11.666666666666668,0,23.333333333333336,10.333333333333332,11.666666666666668,20.666666666666664,0,10.333333333333332" fill="#222" fill-opacity="0.098" stroke="#000" stroke-opacity="0.02" transform="translate(70,20.666666666666664)"></polyline><polyline points="11.666666666666668,0,23.333333333333336,10.333333333333332,11.666666666666668,20.666666666666664,0,10.333333333333332" fill="#222" fill-opacity="0.08066666666666666" stroke="#000" stroke-opacity="0.02" transform="translate(93.33333333333334,20.666666666666664)"></polyline><polyline points="11.666666666666668,0,23.333333333333336,10.333333333333332,11.666666666666668,20.666666666666664,0,10.333333333333332" fill="#222" fill-opacity="0.15" stroke="#000" stroke-opacity="0.02" transform="translate(116.66666666666669,20.666666666666664)"></polyline><polyline points="11.666666666666668,0,23.333333333333336,10.333333333333332,11.666666666666668,20.666666666666664,0,10.333333333333332" fill="#ddd" fill-opacity="0.05466666666666667" stroke="#000" stroke-opacity="0.02" transform="translate(-11.666666666666668,30.999999999999996)"></polyline><polyline points="11.666666666666668,0,23.333333333333336,10.333333333333332,11.666666666666668,20.666666666666664,0,10.333333333333332" fill="#ddd" fill-opacity="0.05466666666666667" stroke="#000" stroke-opacity="0.02" transform="translate(128.33333333333334,30.999999999999996)"></polyline><polyline points="11.666666666666668,0,23.333333333333336,10.333333333333332,11.666666666666668,20.666666666666664,0,10.333333333333332" fill="#ddd" fill-opacity="0.08933333333333333" stroke="#000" stroke-opacity="0.02" transform="translate(11.666666666666668,30.999999999999996)"></polyline><polyline points="11.666666666666668,0,23.333333333333336,10.333333333333332,11.666666666666668,20.666666666666664,0,10.333333333333332" fill="#ddd" fill-opacity="0.08933333333333333" stroke="#000" stroke-opacity="0.02" transform="translate(35,30.999999999999996)"></polyline><polyline points="11.666666666666668,0,23.333333333333336,10.333333333333332,11.666666666666668,20.666666666666664,0,10.333333333333332" fill="#222" fill-opacity="0.15" stroke="#000" stroke-opacity="0.02" transform="translate(58.33333333333333,30.999999999999996)"></polyline><polyline points="11.666666666666668,0,23.333333333333336,10.333333333333332,11.666666666666668,20.666666666666664,0,10.333333333333332" fill="#222" fill-opacity="0.06333333333333334" stroke="#000" stroke-opacity="0.02" transform="translate(81.66666666666667,30.999999999999996)"></polyline><polyline points="11.666666666666668,0,23.333333333333336,10.333333333333332,11.666666666666668,20.666666666666664,0,10.333333333333332" fill="#ddd" fill-opacity="0.07200000000000001" stroke="#000" stroke-opacity="0.02" transform="translate(105.00000000000001,30.999999999999996)"></polyline><polyline points="11.666666666666668,0,23.333333333333336,10.333333333333332,11.666666666666668,20.666666666666664,0,10.333333333333332" fill="#222" fill-opacity="0.06333333333333334" stroke="#000" stroke-opacity="0.02" transform="translate(0,41.33333333333333)"></polyline><polyline points="11.666666666666668,0,23.333333333333336,10.333333333333332,11.666666666666668,20.666666666666664,0,10.333333333333332" fill="#222" fill-opacity="0.06333333333333334" stroke="#000" stroke-opacity="0.02" transform="translate(140,41.33333333333333)"></polyline><polyline points="11.666666666666668,0,23.333333333333336,10.333333333333332,11.666666666666668,20.666666666666664,0,10.333333333333332" fill="#222" fill-opacity="0.046" stroke="#000" stroke-opacity="0.02" transform="translate(23.333333333333336,41.33333333333333)"></polyline><polyline points="11.666666666666668,0,23.333333333333336,10.333333333333332,11.666666666666668,20.666666666666664,0,10.333333333333332" fill="#222" fill-opacity="0.098" stroke="#000" stroke-opacity="0.02" transform="translate(46.66666666666667,41.33333333333333)"></polyline><polyline points="11.666666666666668,0,23.333333333333336,10.333333333333332,11.666666666666668,20.666666666666664,0,10.333333333333332" fill="#222" fill-opacity="0.06333333333333334" stroke="#000" stroke-opacity="0.02" transform="translate(70,41.33333333333333)"></polyline><polyline points="11.666666666666668,0,23.333333333333336,10.333333333333332,11.666666666666668,20.666666666666664,0,10.333333333333332" fill="#ddd" fill-opacity="0.03733333333333333" stroke="#000" stroke-opacity="0.02" transform="translate(93.33333333333334,41.33333333333333)"></polyline><polyline points="11.666666666666668,0,23.333333333333336,10.333333333333332,11.666666666666668,20.666666666666664,0,10.333333333333332" fill="#ddd" fill-opacity="0.02" stroke="#000" stroke-opacity="0.02" transform="translate(116.66666666666669,41.33333333333333)"></polyline></svg>