<svg xmlns="http://www.w3.org/2000/svg" width="250" height="250"><rect x="0" y="0" width="100%" height="100%" fill="rgb(56,157,50)"></rect><circle cx="0" cy="0" r="41.66666666666667" fill="#222" opacity="0.06333333333333334"></circle><circle cx="250.00000000000003" cy="0" r="41.66666666666667" fill="#222" opacity="0.06333333333333334"></circle><circle cx="0" cy="250.00000000000003" r="41.66666666666667" fill="#222" opacity="0.06333333333333334"></circle><circle cx="250.00000000000003" cy="250.00000000000003" r="41.66666666666667" fill="#222" opacity="0.06333333333333334"></circle><circle cx="41.66666666666667" cy="0" r="41.66666666666667" fill="#222" opacity="0.028666666666666667"></circle><circle cx="41.66666666666667" cy="250.00000000000003" r="41.66666666666667" fill="#222" opacity="0.028666666666666667"></circle><circle cx="83.33333333333334" cy="0" r="41.66666666666667" fill="#222" opacity="0.15"></circle><circle cx="83.33333333333334" cy="250.00000000000003" r="41.66666666666667" fill="#222" opacity="0.15"></circle><circle cx="125.00000000000001" cy="0" r="41.66666666666667" fill="#ddd" opacity="0.14133333333333334"></circle><circle cx="125.00000000000001" cy="250.00000000000003" r="41.66666666666667" fill="#ddd" opacity="0.14133333333333334"></circle><circle cx="166.66666666666669" cy="0" r="41.66666666666667" fill="#ddd" opacity="0.05466666666666667"></circle><circle cx="166.66666666666669" cy="250.00000000000003" r="41.66666666666667" fill="#ddd" opacity="0.05466666666666667"></circle><circle cx="208.33333333333337" cy="0" r="41.66666666666667" fill="#ddd" opacity="0.02"></circle><circle cx="208.33333333333337" cy="250.00000000000003" r="41.66666666666667" fill="#ddd" opacity="0.02"></circle><circle cx="0" cy="41.66666666666667" r="41.66666666666667" fill="#222" opacity="0.15"></circle><circle cx="250.00000000000003" cy="41.66666666666667" r="41.66666666666667" fill="#222" opacity="0.15"></circle><circle cx="41.66666666666667" cy="41.66666666666667" r="41.66666666666667" fill="#ddd" opacity="0.14133333333333334"></circle><circle cx="83.33333333333334" cy="41.66666666666667" r="41.66666666666667" fill="#222" opacity="0.028666666666666667"></circle><circle cx="125.00000000000001" cy="41.66666666666667" r="41.66666666666667" fill="#ddd" opacity="0.12400000000000001"></circle><circle cx="166.66666666666669" cy="41.66666666666667" r="41.66666666666667" fill="#222" opacity="0.11533333333333334"></circle><circle cx="208.33333333333337" cy="41.66666666666667" r="41.66666666666667" fill="#ddd" opacity="0.07200000000000001"></circle><circle cx="0" cy="83.33333333333334" r="41.66666666666667" fill="#222" opacity="0.11533333333333334"></circle><circle cx="250.00000000000003" cy="83.33333333333334" r="41.66666666666667" fill="#222" opacity="0.11533333333333334"></circle><circle cx="41.66666666666667" cy="83.33333333333334" r="41.66666666666667" fill="#222" opacity="0.098"></circle><circle cx="83.33333333333334" cy="83.33333333333334" r="41.66666666666667" fill="#ddd" opacity="0.10666666666666667"></circle><circle cx="125.00000000000001" cy="83.33333333333334" r="41.66666666666667" fill="#222" opacity="0.13266666666666665"></circle><circle cx="166.66666666666669" cy="83.33333333333334" r="41.66666666666667" fill="#222" opacity="0.098"></circle><circle cx="208.33333333333337" cy="83.33333333333334" r="41.66666666666667" fill="#ddd" opacity="0.10666666666666667"></circle><circle cx="0" cy="125.00000000000001" r="41.66666666666667" fill="#ddd" opacity="0.02"></circle><circle cx="250.00000000000003" cy="125.00000000000001" r="41.66666666666667" fill="#ddd" opacity="0.02"></circle><circle cx="41.66666666666667" cy="125.00000000000001" r="41.66666666666667" fill="#222" opacity="0.15"></circle><circle cx="83.33333333333334" cy="125.00000000000001" r="41.66666666666667" fill="#222" opacity="0.028666666666666667"></circle><circle cx="125.00000000000001" cy="125.00000000000001" r="41.66666666666667" fill="#222" opacity="0.098"></circle><circle cx="166.66666666666669" cy="125.00000000000001" r="41.66666666666667" fill="#222" opacity="0.06333333333333334"></circle><circle cx="208.33333333333337" cy="125.00000000000001" r="41.66666666666667" fill="#ddd" opacity="0.10666666666666667"></circle><circle cx="0" cy="166.66666666666669" r="41.66666666666667" fill="#ddd" opacity="0.14133333333333334"></circle><circle cx="250.00000000000003" cy="166.66666666666669" r="41.66666666666667" fill="#ddd" opacity="0.14133333333333334"></circle><circle cx="41.66666666666667" cy="166.66666666666669" r="41.66666666666667" fill="#ddd" opacity="0.03733333333333333"></circle><circle cx="83.33333333333334" cy="166.66666666666669" r="41.66666666666667" fill="#ddd" opacity="0.02"></circle><circle cx="125.00000000000001" cy="166.66666666666669" r="41.66666666666667" fill="#ddd" opacity="0.05466666666666667"></circle><circle cx="166.66666666666669" cy="166.66666666666669" r="41.66666666666667" fill="#222" opacity="0.15"></circle><circle cx="208.33333333333337" cy="166.66666666666669" r="41.66666666666667" fill="#222" opacity="0.15"></circle><circle cx="0" cy="208.33333333333337" r="41.66666666666667" fill="#ddd" opacity="0.10666666666666667"></circle><circle cx="250.00000000000003" cy="208.33333333333337" r="41.66666666666667" fill="#ddd" opacity="0.10666666666666667"></circle><circle cx="41.66666666666667" cy="208.33333333333337" r="41.66666666666667" fill="#222" opacity="0.11533333333333334"></circle><circle cx="83.33333333333334" cy="208.33333333333337" r="41.66666666666667" fill="#ddd" opacity="0.10666666666666667"></circle><circle cx="125.00000000000001" cy="208.33333333333337" r="41.66666666666667" fill="#ddd" opacity="0.12400000000000001"></circle><circle cx="166.66666666666669" cy="208.33333333333337" r="41.66666666666667" fill="#222" opacity="0.06333333333333334"></circle><circle cx="208.33333333333337" cy="208.33333333333337" r="41.66666666666667" fill="#222" opacity="0.08066666666666666"></circle></svg>