<svg xmlns="http://www.w3.org/2000/svg" width="340" height="684"><rect x="0" y="0" width="100%" height="100%" fill="rgb(68,146,61)"></rect><path d="M0 100 C 59.49999999999999 0, 110.5 0, 170 100 S 280.5 200, 340 100 S 450.5 0, 510, 100" fill="none" stroke="#ddd" opacity="0.12400000000000001" stroke-width="19px" transform="translate(-85,-150)"></path><path d="M0 100 C 59.49999999999999 0, 110.5 0, 170 100 S 280.5 200, 340 100 S 450.5 0, 510, 100" fill="none" stroke="#ddd" opacity="0.12400000000000001" stroke-width="19px" transform="translate(-85,534)"></path><path d="M0 100 C 59.49999999999999 0, 110.5 0, 170 100 S 280.5 200, 340 100 S 450.5 0, 510, 100" fill="none" stroke="#222" opacity="0.15" stroke-width="19px" transform="translate(-85,-131)"></path><path d="M0 100 C 59.49999999999999 0, 110.5 0, 170 100 S 280.5 200, 340 100 S 450.5 0, 510, 100" fill="none" stroke="#222" opacity="0.15" stroke-width="19px" transform="translate(-85,553)"></path><path d="M0 100 C 59.49999999999999 0, 110.5 0, 170 100 S 280.5 200, 340 100 S 450.5 0, 510, 100" fill="none" stroke="#222" opacity="0.098" stroke-width="19px" transform="translate(-85,-112)"></path><path d="M0 100 C 59.49999999999999 0, 110.5 0, 170 100 S 280.5 200, 340 100 S 450.5 0, 510, 100" fill="none" stroke="#222" opacity="0.098" stroke-width="19px" transform="translate(-85,572)"></path><path d="M0 100 C 59.49999999999999 0, 110.5 0, 170 100 S 280.5 200, 340 100 S 450.5 0, 510, 100" fill="none" stroke="#222" opacity="0.08066666666666666" stroke-width="19px" transform="translate(-85,-93)"></path><path d="M0 100 C 59.49999999999999 0, 110.5 0, 170 100 S 280.5 200, 340 100 S 450.5 0, 510, 100" fill="none" stroke="#222" opacity="0.08066666666666666" stroke-width="19px" transform="translate(-85,591)"></path><path d="M0 100 C 59.49999999999999 0, 110.5 0, 170 100 S 280.5 200, 340 100 S 450.5 0, 510, 100" fill="none" stroke="#222" opacity="0.08066666666666666" stroke-width="19px" transform="translate(-85,-74)"></path><path d="M0 100 C 59.49999999999999 0, 110.5 0, 170 100 S 280.5 200, 340 100 S 450.5 0, 510, 100" fill="none" stroke="#222" opacity="0.08066666666666666" stroke-width="19px" transform="translate(-85,610)"></path><path d="M0 100 C 59.49999999999999 0, 110.5 0, 170 100 S 280.5 200, 340 100 S 450.5 0, 510, 100" fill="none" stroke="#222" opacity="0.028666666666666667" stroke-width="19px" transform="translate(-85,-55)"></path><path d="M0 100 C 59.49999999999999 0, 110.5 0, 170 100 S 280.5 200, 340 100 S 450.5 0, 510, 100" fill="none" stroke="#222" opacity="0.028666666666666667" stroke-width="19px" transform="translate(-85,629)"></path><path d="M0 100 C 59.49999999999999 0, 110.5 0, 170 100 S 280.5 200, 340 100 S 450.5 0, 510, 100" fill="none" stroke="#222" opacity="0.13266666666666665" stroke-width="19px" transform="translate(-85,-36)"></path><path d="M0 100 C 59.49999999999999 0, 110.5 0, 170 100 S 280.5 200, 340 100 S 450.5 0, 510, 100" fill="none" stroke="#222" opacity="0.13266666666666665" stroke-width="19px" transform="translate(-85,648)"></path><path d="M0 100 C 59.49999999999999 0, 110.5 0, 170 100 S 280.5 200, 340 100 S 450.5 0, 510, 100" fill="none" stroke="#222" opacity="0.098" stroke-width="19px" transform="translate(-85,-17)"></path><path d="M0 100 C 59.49999999999999 0, 110.5 0, 170 100 S 280.5 200, 340 100 S 450.5 0, 510, 100" fill="none" stroke="#222" opacity="0.098" stroke-width="19px" transform="translate(-85,667)"></path><path d="M0 100 C 59.49999999999999 0, 110.5 0, 170 100 S 280.5 200, 340 100 S 450.5 0, 510, 100" fill="none" stroke="#ddd" opacity="0.07200000000000001" stroke-width="19px" transform="translate(-85,2)"></path><path d="M0 100 C 59.49999999999999 0, 110.5 0, 170 100 S 280.5 200, 340 100 S 450.5 0, 510, 100" fill="none" stroke="#ddd" opacity="0.07200000000000001" stroke-width="19px" transform="translate(-85,686)"></path><path d="M0 100 C 59.49999999999999 0, 110.5 0, 170 100 S 280.5 200, 340 100 S 450.5 0, 510, 100" fill="none" stroke="#222" opacity="0.046" stroke-width="19px" transform="translate(-85,21)"></path><path d="M0 100 C 59.49999999999999 0, 110.5 0, 170 100 S 280.5 200, 340 100 S 450.5 0, 510, 100" fill="none" stroke="#222" opacity="0.046" stroke-width="19px" transform="translate(-85,705)"></path><path d="M0 100 C 59.49999999999999 0, 110.5 0, 170 100 S 280.5 200, 340 100 S 450.5 0, 510, 100" fill="none" stroke="#ddd" opacity="0.10666666666666667" stroke-width="19px" transform="translate(-85,40)"></path><path d="M0 100 C 59.49999999999999 0, 110.5 0, 170 100 S 280.5 200, 340 100 S 450.5 0, 510, 100" fill="none" stroke="#ddd" opacity="0.10666666666666667" stroke-width="19px" transform="translate(-85,724)"></path><path d="M0 100 C 59.49999999999999 0, 110.5 0, 170 100 S 280.5 200, 340 100 S 450.5 0, 510, 100" fill="none" stroke="#ddd" opacity="0.10666666666666667" stroke-width="19px" transform="translate(-85,59)"></path><path d="M0 100 C 59.49999999999999 0, 110.5 0, 170 100 S 280.5 200, 340 100 S 450.5 0, 510, 100" fill="none" stroke="#ddd" opacity="0.10666666666666667" stroke-width="19px" transform="translate(-85,743)"></path><path d="M0 100 C 59.49999999999999 0, 110.5 0, 170 100 S 280.5 200, 340 100 S 450.5 0, 510, 100" fill="none" stroke="#222" opacity="0.08066666666666666" stroke-width="19px" transform="translate(-85,78)"></path><path d="M0 100 C 59.49999999999999 0, 110.5 0, 170 100 S 280.5 200, 340 100 S 450.5 0, 510, 100" fill="none" stroke="#222" opacity="0.08066666666666666" stroke-width="19px" transform="translate(-85,762)"></path><path d="M0 100 C 59.49999999999999 0, 110.5 0, 170 100 S 280.5 200, 340 100 S 450.5 0, 510, 100" fill="none" stroke="#ddd" opacity="0.12400000000000001" stroke-width="19px" transform="translate(-85,97)"></path><path d="M0 100 C 59.49999999999999 0, 110.5 0, 170 100 S 280.5 200, 340 100 S 450.5 0, 510, 100" fill="none" stroke="#ddd" opacity="0.12400000000000001" stroke-width="19px" transform="translate(-85,781)"></path><path d="M0 100 C 59.49999999999999 0, 110.5 0, 170 100 S 280.5 200, 340 100 S 450.5 0, 510, 100" fill="none" stroke="#ddd" opacity="0.10666666666666667" stroke-width="19px" transform="translate(-85,116)"></path><path d="M0 100 C 59.49999999999999 0, 110.5 0, 170 100 S 280.5 200, 340 100 S 450.5 0, 510, 100" fill="none" stroke="#ddd" opacity="0.10666666666666667" stroke-width="19px" transform="translate(-85,800)"></path><path d="M0 100 C 59.49999999999999 0, 110.5 0, 170 100 S 280.5 200, 340 100 S 450.5 0, 510, 100" fill="none" stroke="#ddd" opacity="0.14133333333333334" stroke-width="19px" transform="translate(-85,135)"></path><path d="M0 100 C 59.49999999999999 0, 110.5 0, 170 100 S 280.5 200, 340 100 S 450.5 0, 510, 100" fill="none" stroke="#ddd" opacity="0.14133333333333334" stroke-width="19px" transform="translate(-85,819)"></path><path d="M0 100 C 59.49999999999999 0, 110.5 0, 170 100 S 280.5 200, 340 100 S 450.5 0, 510, 100" fill="none" stroke="#ddd" opacity="0.07200000000000001" stroke-width="19px" transform="translate(-85,154)"></path><path d="M0 100 C 59.49999999999999 0, 110.5 0, 170 100 S 280.5 200, 340 100 S 450.5 0, 510, 100" fill="none" stroke="#ddd" opacity="0.07200000000000001" stroke-width="19px" transform="translate(-85,838)"></path><path d="M0 100 C 59.49999999999999 0, 110.5 0, 170 100 S 280.5 200, 340 100 S 450.5 0, 510, 100" fill="none" stroke="#222" opacity="0.028666666666666667" stroke-width="19px" transform="translate(-85,173)"></path><path d="M0 100 C 59.49999999999999 0, 110.5 0, 170 100 S 280.5 200, 340 100 S 450.5 0, 510, 100" fill="none" stroke="#222" opacity="0.028666666666666667" stroke-width="19px" transform="translate(-85,857)"></path><path d="M0 100 C 59.49999999999999 0, 110.5 0, 170 100 S 280.5 200, 340 100 S 450.5 0, 510, 100" fill="none" stroke="#ddd" opacity="0.05466666666666667" stroke-width="19px" transform="translate(-85,192)"></path><path d="M0 100 C 59.49999999999999 0, 110.5 0, 170 100 S 280.5 200, 340 100 S 450.5 0, 510, 100" fill="none" stroke="#ddd" opacity="0.05466666666666667" stroke-width="19px" transform="translate(-85,876)"></path><path d="M0 100 C 59.49999999999999 0, 110.5 0, 170 100 S 280.5 200, 340 100 S 450.5 0, 510, 100" fill="none" stroke="#ddd" opacity="0.08933333333333333" stroke-width="19px" transform="translate(-85,211)"></path><path d="M0 100 C 59.49999999999999 0, 110.5 0, 170 100 S 280.5 200, 340 100 S 450.5 0, 510, 100" fill="none" stroke="#ddd" opacity="0.08933333333333333" stroke-width="19px" transform="translate(-85,895)"></path><path d="M0 100 C 59.49999999999999 0, 110.5 0, 170 100 S 280.5 200, 340 100 S 450.5 0, 510, 100" fill="none" stroke="#ddd" opacity="0.05466666666666667" stroke-width="19px" transform="translate(-85,230)"></path><path d="M0 100 C 59.49999999999999 0, 110.5 0, 170 100 S 280.5 200, 340 100 S 450.5 0, 510, 100" fill="none" stroke="#ddd" opacity="0.05466666666666667" stroke-width="19px" transform="translate(-85,914)"></path><path d="M0 100 C 59.49999999999999 0, 110.5 0, 170 100 S 280.5 200, 340 100 S 450.5 0, 510, 100" fill="none" stroke="#ddd" opacity="0.08933333333333333" stroke-width="19px" transform="translate(-85,249)"></path><path d="M0 100 C 59.49999999999999 0, 110.5 0, 170 100 S 280.5 200, 340 100 S 450.5 0, 510, 100" fill="none" stroke="#ddd" opacity="0.08933333333333333" stroke-width="19px" transform="translate(-85,933)"></path><path d="M0 100 C 59.49999999999999 0, 110.5 0, 170 100 S 280.5 200, 340 100 S 450.5 0, 510, 100" fill="none" stroke="#ddd" opacity="0.10666666666666667" stroke-width="19px" transform="translate(-85,268)"></path><path d="M0 100 C 59.49999999999999 0, 110.5 0, 170 100 S 280.5 200, 340 100 S 450.5 0, 510, 100" fill="none" stroke="#ddd" opacity="0.10666666666666667" stroke-width="19px" transform="translate(-85,952)"></path><path d="M0 100 C 59.49999999999999 0, 110.5 0, 170 100 S 280.5 200, 340 100 S 450.5 0, 510, 100" fill="none" stroke="#ddd" opacity="0.12400000000000001" stroke-width="19px" transform="translate(-85,287)"></path><path d="M0 100 C 59.49999999999999 0, 110.5 0, 170 100 S 280.5 200, 340 100 S 450.5 0, 510, 100" fill="none" stroke="#ddd" opacity="0.12400000000000001" stroke-width="19px" transform="translate(-85,971)"></path><path d="M0 100 C 59.49999999999999 0, 110.5 0, 170 100 S 280.5 200, 340 100 S 450.5 0, 510, 100" fill="none" stroke="#222" opacity="0.13266666666666665" stroke-width="19px" transform="translate(-85,306)"></path><path d="M0 100 C 59.49999999999999 0, 110.5 0, 170 100 S 280.5 200, 340 100 S 450.5 0, 510, 100" fill="none" stroke="#222" opacity="0.13266666666666665" stroke-width="19px" transform="translate(-85,990)"></path><path d="M0 100 C 59.49999999999999 0, 110.5 0, 170 100 S 280.5 200, 340 100 S 450.5 0, 510, 100" fill="none" stroke="#222" opacity="0.15" stroke-width="19px" transform="translate(-85,325)"></path><path d="M0 100 C 59.49999999999999 0, 110.5 0, 170 100 S 280.5 200, 340 100 S 450.5 0, 510, 100" fill="none" stroke="#222" opacity="0.15" stroke-width="19px" transform="translate(-85,1009)"></path><path d="M0 100 C 59.49999999999999 0, 110.5 0, 170 100 S 280.5 200, 340 100 S 450.5 0, 510, 100" fill="none" stroke="#ddd" opacity="0.03733333333333333" stroke-width="19px" transform="translate(-85,344)"></path><path d="M0 100 C 59.49999999999999 0, 110.5 0, 170 100 S 280.5 200, 340 100 S 450.5 0, 510, 100" fill="none" stroke="#ddd" opacity="0.03733333333333333" stroke-width="19px" transform="translate(-85,1028)"></path><path d="M0 100 C 59.49999999999999 0, 110.5 0, 170 100 S 280.5 200, 340 100 S 450.5 0, 510, 100" fill="none" stroke="#222" opacity="0.13266666666666665" stroke-width="19px" transform="translate(-85,363)"></path><path d="M0 100 C 59.49999999999999 0, 110.5 0, 170 100 S 280.5 200, 340 100 S 450.5 0, 510, 100" fill="none" stroke="#222" opacity="0.13266666666666665" stroke-width="19px" transform="translate(-85,1047)"></path><path d="M0 100 C 59.49999999999999 0, 110.5 0, 170 100 S 280.5 200, 340 100 S 450.5 0, 510, 100" fill="none" stroke="#222" opacity="0.028666666666666667" stroke-width="19px" transform="translate(-85,382)"></path><path d="M0 100 C 59.49999999999999 0, 110.5 0, 170 100 S 280.5 200, 340 100 S 450.5 0, 510, 100" fill="none" stroke="#222" opacity="0.028666666666666667" stroke-width="19px" transform="translate(-85,1066)"></path><path d="M0 100 C 59.49999999999999 0, 110.5 0, 170 100 S 280.5 200, 340 100 S 450.5 0, 510, 100" fill="none" stroke="#ddd" opacity="0.14133333333333334" stroke-width="19px" transform="translate(-85,401)"></path><path d="M0 100 C 59.49999999999999 0, 110.5 0, 170 100 S 280.5 200, 340 100 S 450.5 0, 510, 100" fill="none" stroke="#ddd" opacity="0.14133333333333334" stroke-width="19px" transform="translate(-85,1085)"></path><path d="M0 100 C 59.49999999999999 0, 110.5 0, 170 100 S 280.5 200, 340 100 S 450.5 0, 510, 100" fill="none" stroke="#ddd" opacity="0.10666666666666667" stroke-width="19px" transform="translate(-85,420)"></path><path d="M0 100 C 59.49999999999999 0, 110.5 0, 170 100 S 280.5 200, 340 100 S 450.5 0, 510, 100" fill="none" stroke="#ddd" opacity="0.10666666666666667" stroke-width="19px" transform="translate(-85,1104)"></path><path d="M0 100 C 59.49999999999999 0, 110.5 0, 170 100 S 280.5 200, 340 100 S 450.5 0, 510, 100" fill="none" stroke="#ddd" opacity="0.14133333333333334" stroke-width="19px" transform="translate(-85,439)"></path><path d="M0 100 C 59.49999999999999 0, 110.5 0, 170 100 S 280.5 200, 340 100 S 450.5 0, 510, 100" fill="none" stroke="#ddd" opacity="0.14133333333333334" stroke-width="19px" transform="translate(-85,1123)"></path><path d="M0 100 C 59.49999999999999 0, 110.5 0, 170 100 S 280.5 200, 340 100 S 450.5 0, 510, 100" fill="none" stroke="#222" opacity="0.13266666666666665" stroke-width="19px" transform="translate(-85,458)"></path><path d="M0 100 C 59.49999999999999 0, 110.5 0, 170 100 S 280.5 200, 340 100 S 450.5 0, 510, 100" fill="none" stroke="#222" opacity="0.13266666666666665" stroke-width="19px" transform="translate(-85,1142)"></path><path d="M0 100 C 59.49999999999999 0, 110.5 0, 170 100 S 280.5 200, 340 100 S 450.5 0, 510, 100" fill="none" stroke="#ddd" opacity="0.03733333333333333" stroke-width="19px" transform="translate(-85,477)"></path><path d="M0 100 C 59.49999999999999 0, 110.5 0, 170 100 S 280.5 200, 340 100 S 450.5 0, 510, 100" fill="none" stroke="#ddd" opacity="0.03733333333333333" stroke-width="19px" transform="translate(-85,1161)"></path><path d="M0 100 C 59.49999999999999 0, 110.5 0, 170 100 S 280.5 200, 340 100 S 450.5 0, 510, 100" fill="none" stroke="#222" opacity="0.15" stroke-width="19px" transform="translate(-85,496)"></path><path d="M0 100 C 59.49999999999999 0, 110.5 0, 170 100 S 280.5 200, 340 100 S 450.5 0, 510, 100" fill="none" stroke="#222" opacity="0.15" stroke-width="19px" transform="translate(-85,1180)"></path><path d="M0 100 C 59.49999999999999 0, 110.5 0, 170 100 S 280.5 200, 340 100 S 450.5 0, 510, 100" fill="none" stroke="#222" opacity="0.11533333333333334" stroke-width="19px" transform="translate(-85,515)"></path><path d="M0 100 C 59.49999999999999 0, 110.5 0, 170 100 S 280.5 200, 340 100 S 450.5 0, 510, 100" fill="none" stroke="#222" opacity="0.11533333333333334" stroke-width="19px" transform="translate(-85,1199)"></path></svg>