<svg xmlns="http://www.w3.org/2000/svg" width="276" height="276"><rect x="0" y="0" width="100%" height="100%" fill="rgb(100,138,69)"></rect><g fill="#222" stroke="#000" stroke-opacity="0.02" fill-opacity="0.13266666666666665" transform="translate(-23,-34.5)"><rect x="23" y="0" width="23" height="69"></rect><rect x="0" y="23" width="69" height="23"></rect></g><g fill="#222" stroke="#000" stroke-opacity="0.02" fill-opacity="0.13266666666666665" transform="translate(253,-34.5)"><rect x="23" y="0" width="23" height="69"></rect><rect x="0" y="23" width="69" height="23"></rect></g><g fill="#222" stroke="#000" stroke-opacity="0.02" fill-opacity="0.13266666666666665" transform="translate(-23,241.5)"><rect x="23" y="0" width="23" height="69"></rect><rect x="0" y="23" width="69" height="23"></rect></g><g fill="#222" stroke="#000" stroke-opacity="0.02" fill-opacity="0.13266666666666665" transform="translate(253,241.5)"><rect x="23" y="0" width="23" height="69"></rect><rect x="0" y="23" width="69" height="23"></rect></g><g fill="#222" stroke="#000" stroke-opacity="0.02" fill-opacity="0.13266666666666665" transform="translate(23,-34.5)"><rect x="23" y="0" width="23" height="69"></rect><rect x="0" y="23" width="69" height="23"></rect></g><g fill="#222" stroke="#000" stroke-opacity="0.02" fill-opacity="0.13266666666666665" transform="translate(23,241.5)"><rect x="23" y="0" width="23" height="69"></rect><rect x="0" y="23" width="69" height="23"></rect></g><g fill="#ddd" stroke="#000" stroke-opacity="0.02" fill-opacity="0.10666666666666667" transform="translate(69,-34.5)"><rect x="23" y="0" width="23" height="69"></rect><rect x="0" y="23" width="69" height="23"></rect></g><g fill="#ddd" stroke="#000" stroke-opacity="0.02" fill-opacity="0.10666666666666667" transform="translate(69,241.5)"><rect x="23" y="0" width="23" height="69"></rect><rect x="0" y="23" width="69" height="23"></rect></g><g fill="#ddd" stroke="#000" stroke-opacity="0.02" fill-opacity="0.02" transform="translate(115,-34.5)"><rect x="23" y="0" width="23" height="69"></rect><rect x="0" y="23" width="69" height="23"></rect></g><g fill="#ddd" stroke="#000" stroke-opacity="0.02" fill-opacity="0.02" transform="translate(115,241.5)"><rect x="23" y="0" width="23" height="69"></rect><rect x="0" y="23" width="69" height="23"></rect></g><g fill="#222" stroke="#000" stroke-opacity="0.02" fill-opacity="0.06333333333333334" transform="translate(161,-34.5)"><rect x="23" y="0" width="23" height="69"></rect><rect x="0" y="23" width="69" height="23"></rect></g><g fill="#222" stroke="#000" stroke-opacity="0.02" fill-opacity="0.06333333333333334" transform="translate(161,241.5)"><rect x="23" y="0" width="23" height="69"></rect><rect x="0" y="23" width="69" height="23"></rect></g><g fill="#ddd" stroke="#000" stroke-opacity="0.02" fill-opacity="0.05466666666666667" transform="translate(207,-34.5)"><rect x="23" y="0" width="23" height="69"></rect><rect x="0" y="23" width="69" height="23"></rect></g><g fill="#ddd" stroke="#000" stroke-opacity="0.02" fill-opacity="0.05466666666666667" transform="translate(207,241.5)"><rect x="23" y="0" width="23" height="69"></rect><rect x="0" y="23" width="69" height="23"></rect></g><g fill="#ddd" stroke="#000" stroke-opacity="0.02" fill-opacity="0.14133333333333334" transform="translate(0,11.5)"><rect x="23" y="0" width="23" height="69"></rect><rect x="0" y="23" width="69" height="23"></rect></g><g fill="#ddd" stroke="#000" stroke-opacity="0.02" fill-opacity="0.14133333333333334" transform="translate(276,11.5)"><rect x="23" y="0" width="23" height="69"></rect><rect x="0" y="23" width="69" height="23"></rect></g><g fill="#ddd" stroke="#000" stroke-opacity="0.02" fill-opacity="0.14133333333333334" transform="translate(46,11.5)"><rect x="23" y="0" width="23" height="69"></rect><rect x="0" y="23" width="69" height="23"></rect></g><g fill="#222" stroke="#000" stroke-opacity="0.02" fill-opacity="0.028666666666666667" transform="translate(92,11.5)"><rect x="23" y="0" width="23" height="69"></rect><rect x="0" y="23" width="69" height="23"></rect></g><g fill="#ddd" stroke="#000" stroke-opacity="0.02" fill-opacity="0.05466666666666667" transform="translate(138,11.5)"><rect x="23" y="0" width="23" height="69"></rect><rect x="0" y="23" width="69" height="23"></rect></g><g fill="#222" stroke="#000" stroke-opacity="0.02" fill-opacity="0.06333333333333334" transform="translate(184,11.5)"><rect x="23" y="0" width="23" height="69"></rect><rect x="0" y="23" width="69" height="23"></rect></g><g fill="#ddd" stroke="#000" stroke-opacity="0.02" fill-opacity="0.14133333333333334" transform="translate(230,11.5)"><rect x="23" y="0" width="23" height="69"></rect><rect x="0" y="23" width="69" height="23"></rect></g><g fill="#ddd" stroke="#000" stroke-opacity="0.02" fill-opacity="0.02" transform="translate(-23,57.5)"><rect x="23" y="0" width="23" height="69"></rect><rect x="0" y="23" width="69" height="23"></rect></g><g fill="#ddd" stroke="#000" stroke-opacity="0.02" fill-opacity="0.02" transform="translate(253,57.5)"><rect x="23" y="0" width="23" height="69"></rect><rect x="0" y="23" width="69" height="23"></rect></g><g fill="#ddd" stroke="#000" stroke-opacity="0.02" fill-opacity="0.03733333333333333" transform="translate(23,57.5)"><rect x="23" y="0" width="23" height="69"></rect><rect x="0" y="23" width="69" height="23"></rect></g><g fill="#222" stroke="#000" stroke-opacity="0.02" fill-opacity="0.11533333333333334" transform="translate(69,57.5)"><rect x="23" y="0" width="23" height="69"></rect><rect x="0" y="23" width="69" height="23"></rect></g><g fill="#ddd" stroke="#000" stroke-opacity="0.02" fill-opacity="0.14133333333333334" transform="translate(115,57.5)"><rect x="23" y="0" width="23" height="69"></rect><rect x="0" y="23" width="69" height="23"></rect></g><g fill="#222" stroke="#000" stroke-opacity="0.02" fill-opacity="0.06333333333333334" transform="translate(161,57.5)"><rect x="23" y="0" width="23" height="69"></rect><rect x="0" y="23" width="69" height="23"></rect></g><g fill="#222" stroke="#000" stroke-opacity="0.02" fill-opacity="0.098" transform="translate(207,57.5)"><rect x="23" y="0" width="23" height="69"></rect><rect x="0" y="23" width="69" height="23"></rect></g><g fill="#ddd" stroke="#000" stroke-opacity="0.02" fill-opacity="0.03733333333333333" transform="translate(0,103.5)"><rect x="23" y="0" width="23" height="69"></rect><rect x="0" y="23" width="69" height="23"></rect></g><g fill="#ddd" stroke="#000" stroke-opacity="0.02" fill-opacity="0.03733333333333333" transform="translate(276,103.5)"><rect x="23" y="0" width="23" height="69"></rect><rect x="0" y="23" width="69" height="23"></rect></g><g fill="#ddd" stroke="#000" stroke-opacity="0.02" fill-opacity="0.12400000000000001" transform="translate(46,103.5)"><rect x="23" y="0" width="23" height="69"></rect><rect x="0" y="23" width="69" height="23"></rect></g><g fill="#ddd" stroke="#000" stroke-opacity="0.02" fill-opacity="0.03733333333333333" transform="translate(92,103.5)"><rect x="23" y="0" width="23" height="69"></rect><rect x="0" y="23" width="69" height="23"></rect></g><g fill="#222" stroke="#000" stroke-opacity="0.02" fill-opacity="0.046" transform="translate(138,103.5)"><rect x="23" y="0" width="23" height="69"></rect><rect x="0" y="23" width="69" height="23"></rect></g><g fill="#222" stroke="#000" stroke-opacity="0.02" fill-opacity="0.11533333333333334" transform="translate(184,103.5)"><rect x="23" y="0" width="23" height="69"></rect><rect x="0" y="23" width="69" height="23"></rect></g><g fill="#ddd" stroke="#000" stroke-opacity="0.02" fill-opacity="0.08933333333333333" transform="translate(230,103.5)"><rect x="23" y="0" width="23" height="69"></rect><rect x="0" y="23" width="69" height="23"></rect></g><g fill="#ddd" stroke="#000" stroke-opacity="0.02" fill-opacity="0.12400000000000001" transform="translate(-23,149.5)"><rect x="23" y="0" width="23" height="69"></rect><rect x="0" y="23" width="69" height="23"></rect></g><g fill="#ddd" stroke="#000" stroke-opacity="0.02" fill-opacity="0.12400000000000001" transform="translate(253,149.5)"><rect x="23" y="0" width="23" height="69"></rect><rect x="0" y="23" width="69" height="23"></rect></g><g fill="#ddd" stroke="#000" stroke-opacity="0.02" fill-opacity="0.10666666666666667" transform="translate(23,149.5)"><rect x="23" y="0" width="23" height="69"></rect><rect x="0" y="23" width="69" height="23"></rect></g><g fill="#ddd" stroke="#000" stroke-opacity="0.02" fill-opacity="0.05466666666666667" transform="translate(69,149.5)"><rect x="23" y="0" width="23" height="69"></rect><rect x="0" y="23" width="69" height="23"></rect></g><g fill="#ddd" stroke="#000" stroke-opacity="0.02" fill-opacity="0.10666666666666667" transform="translate(115,149.5)"><rect x="23" y="0" width="23" height="69"></rect><rect x="0" y="23" width="69" height="23"></rect></g><g fill="#ddd" stroke="#000" stroke-opacity="0.02" fill-opacity="0.14133333333333334" transform="translate(161,149.5)"><rect x="23" y="0" width="23" height="69"></rect><rect x="0" y="23" width="69" height="23"></rect></g><g fill="#ddd" stroke="#000" stroke-opacity="0.02" fill-opacity="0.05466666666666667" transform="translate(207,149.5)"><rect x="23" y="0" width="23" height="69"></rect><rect x="0" y="23" width="69" height="23"></rect></g><g fill="#ddd" stroke="#000" stroke-opacity="0.02" fill-opacity="0.12400000000000001" transform="translate(0,195.5)"><rect x="23" y="0" width="23" height="69"></rect><rect x="0" y="23" width="69" height="23"></rect></g><g fill="#ddd" stroke="#000" stroke-opacity="0.02" fill-opacity="0.12400000000000001" transform="translate(276,195.5)"><rect x="23" y="0" width="23" height="69"></rect><rect x="0" y="23" width="69" height="23"></rect></g><g fill="#ddd" stroke="#000" stroke-opacity="0.02" fill-opacity="0.05466666666666667" transform="translate(46,195.5)"><rect x="23" y="0" width="23" height="69"></rect><rect x="0" y="23" width="69" height="23"></rect></g><g fill="#222" stroke="#000" stroke-opacity="0.02" fill-opacity="0.08066666666666666" transform="translate(92,195.5)"><rect x="23" y="0" width="23" height="69"></rect><rect x="0" y="23" width="69" height="23"></rect></g><g fill="#222" stroke="#000" stroke-opacity="0.02" fill-opacity="0.13266666666666665" transform="translate(138,195.5)"><rect x="23" y="0" width="23" height="69"></rect><rect x="0" y="23" width="69" height="23"></rect></g><g fill="#222" stroke="#000" stroke-opacity="0.02" fill-opacity="0.06333333333333334" transform="translate(184,195.5)"><rect x="23" y="0" width="23" height="69"></rect><rect x="0" y="23" width="69" height="23"></rect></g><g fill="#222" stroke="#000" stroke-opacity="0.02" fill-opacity="0.13266666666666665" transform="translate(230,195.5)"><rect x="23" y="0" width="23" height="69"></rect><rect x="0" y="23" width="69" height="23"></rect></g></svg>