<svg xmlns="http://www.w3.org/2000/svg" width="480" height="316"><rect x="0" y="0" width="100%" height="100%" fill="rgb(113,73,134)"></rect><g stroke="#000" stroke-opacity="0.02" fill="#222" fill-opacity="0.15" stroke-width="1" transform="translate(0,-40)"><polyline points="0,0,40,27.199999999999996,40,80,0,52.800000000000004,0,0"></polyline><polyline points="40,27.199999999999996,80,0,80,52.800000000000004,40,80,40,27.199999999999996"></polyline></g><g stroke="#000" stroke-opacity="0.02" fill="#222" fill-opacity="0.15" stroke-width="1" transform="translate(0,276.8)"><polyline points="0,0,40,27.199999999999996,40,80,0,52.800000000000004,0,0"></polyline><polyline points="40,27.199999999999996,80,0,80,52.800000000000004,40,80,40,27.199999999999996"></polyline></g><g stroke="#000" stroke-opacity="0.02" fill="#222" fill-opacity="0.11533333333333334" stroke-width="1" transform="translate(80,-40)"><polyline points="0,0,40,27.199999999999996,40,80,0,52.800000000000004,0,0"></polyline><polyline points="40,27.199999999999996,80,0,80,52.800000000000004,40,80,40,27.199999999999996"></polyline></g><g stroke="#000" stroke-opacity="0.02" fill="#222" fill-opacity="0.11533333333333334" stroke-width="1" transform="translate(80,276.8)"><polyline points="0,0,40,27.199999999999996,40,80,0,52.800000000000004,0,0"></polyline><polyline points="40,27.199999999999996,80,0,80,52.800000000000004,40,80,40,27.199999999999996"></polyline></g><g stroke="#000" stroke-opacity="0.02" fill="#222" fill-opacity="0.028666666666666667" stroke-width="1" transform="translate(160,-40)"><polyline points="0,0,40,27.199999999999996,40,80,0,52.800000000000004,0,0"></polyline><polyline points="40,27.199999999999996,80,0,80,52.800000000000004,40,80,40,27.199999999999996"></polyline></g><g stroke="#000" stroke-opacity="0.02" fill="#222" fill-opacity="0.028666666666666667" stroke-width="1" transform="translate(160,276.8)"><polyline points="0,0,40,27.199999999999996,40,80,0,52.800000000000004,0,0"></polyline><polyline points="40,27.199999999999996,80,0,80,52.800000000000004,40,80,40,27.199999999999996"></polyline></g><g stroke="#000" stroke-opacity="0.02" fill="#ddd" fill-opacity="0.03733333333333333" stroke-width="1" transform="translate(240,-40)"><polyline points="0,0,40,27.199999999999996,40,80,0,52.800000000000004,0,0"></polyline><polyline points="40,27.199999999999996,80,0,80,52.800000000000004,40,80,40,27.199999999999996"></polyline></g><g stroke="#000" stroke-opacity="0.02" fill="#ddd" fill-opacity="0.03733333333333333" stroke-width="1" transform="translate(240,276.8)"><polyline points="0,0,40,27.199999999999996,40,80,0,52.800000000000004,0,0"></polyline><polyline points="40,27.199999999999996,80,0,80,52.800000000000004,40,80,40,27.199999999999996"></polyline></g><g stroke="#000" stroke-opacity="0.02" fill="#ddd" fill-opacity="0.14133333333333334" stroke-width="1" transform="translate(320,-40)"><polyline points="0,0,40,27.199999999999996,40,80,0,52.800000000000004,0,0"></polyline><polyline points="40,27.199999999999996,80,0,80,52.800000000000004,40,80,40,27.199999999999996"></polyline></g><g stroke="#000" stroke-opacity="0.02" fill="#ddd" fill-opacity="0.14133333333333334" stroke-width="1" transform="translate(320,276.8)"><polyline points="0,0,40,27.199999999999996,40,80,0,52.800000000000004,0,0"></polyline><polyline points="40,27.199999999999996,80,0,80,52.800000000000004,40,80,40,27.199999999999996"></polyline></g><g stroke="#000" stroke-opacity="0.02" fill="#ddd" fill-opacity="0.10666666666666667" stroke-width="1" transform="translate(400,-40)"><polyline points="0,0,40,27.199999999999996,40,80,0,52.800000000000004,0,0"></polyline><polyline points="40,27.199999999999996,80,0,80,52.800000000000004,40,80,40,27.199999999999996"></polyline></g><g stroke="#000" stroke-opacity="0.02" fill="#ddd" fill-opacity="0.10666666666666667" stroke-width="1" transform="translate(400,276.8)"><polyline points="0,0,40,27.199999999999996,40,80,0,52.800000000000004,0,0"></polyline><polyline points="40,27.199999999999996,80,0,80,52.800000000000004,40,80,40,27.199999999999996"></polyline></g><g stroke="#000" stroke-opacity="0.02" fill="#ddd" fill-opacity="0.14133333333333334" stroke-width="1" transform="translate(0,12.800000000000004)"><polyline points="0,0,40,27.199999999999996,40,80,0,52.800000000000004,0,0"></polyline><polyline points="40,27.199999999999996,80,0,80,52.800000000000004,40,80,40,27.199999999999996"></polyline></g><g stroke="#000" stroke-opacity="0.02" fill="#ddd" fill-opacity="0.07200000000000001" stroke-width="1" transform="translate(80,12.800000000000004)"><polyline points="0,0,40,27.199999999999996,40,80,0,52.800000000000004,0,0"></polyline><polyline points="40,27.199999999999996,80,0,80,52.800000000000004,40,80,40,27.199999999999996"></polyline></g><g stroke="#000" stroke-opacity="0.02" fill="#222" fill-opacity="0.098" stroke-width="1" transform="translate(160,12.800000000000004)"><polyline points="0,0,40,27.199999999999996,40,80,0,52.800000000000004,0,0"></polyline><polyline points="40,27.199999999999996,80,0,80,52.800000000000004,40,80,40,27.199999999999996"></polyline></g><g stroke="#000" stroke-opacity="0.02" fill="#222" fill-opacity="0.098" stroke-width="1" transform="translate(240,12.800000000000004)"><polyline points="0,0,40,27.199999999999996,40,80,0,52.800000000000004,0,0"></polyline><polyline points="40,27.199999999999996,80,0,80,52.800000000000004,40,80,40,27.199999999999996"></polyline></g><g stroke="#000" stroke-opacity="0.02" fill="#222" fill-opacity="0.098" stroke-width="1" transform="translate(320,12.800000000000004)"><polyline points="0,0,40,27.199999999999996,40,80,0,52.800000000000004,0,0"></polyline><polyline points="40,27.199999999999996,80,0,80,52.800000000000004,40,80,40,27.199999999999996"></polyline></g><g stroke="#000" stroke-opacity="0.02" fill="#ddd" fill-opacity="0.14133333333333334" stroke-width="1" transform="translate(400,12.800000000000004)"><polyline points="0,0,40,27.199999999999996,40,80,0,52.800000000000004,0,0"></polyline><polyline points="40,27.199999999999996,80,0,80,52.800000000000004,40,80,40,27.199999999999996"></polyline></g><g stroke="#000" stroke-opacity="0.02" fill="#ddd" fill-opacity="0.03733333333333333" stroke-width="1" transform="translate(0,65.60000000000001)"><polyline points="0,0,40,27.199999999999996,40,80,0,52.800000000000004,0,0"></polyline><polyline points="40,27.199999999999996,80,0,80,52.800000000000004,40,80,40,27.199999999999996"></polyline></g><g stroke="#000" stroke-opacity="0.02" fill="#222" fill-opacity="0.046" stroke-width="1" transform="translate(80,65.60000000000001)"><polyline points="0,0,40,27.199999999999996,40,80,0,52.800000000000004,0,0"></polyline><polyline points="40,27.199999999999996,80,0,80,52.800000000000004,40,80,40,27.199999999999996"></polyline></g><g stroke="#000" stroke-opacity="0.02" fill="#222" fill-opacity="0.046" stroke-width="1" transform="translate(160,65.60000000000001)"><polyline points="0,0,40,27.199999999999996,40,80,0,52.800000000000004,0,0"></polyline><polyline points="40,27.199999999999996,80,0,80,52.800000000000004,40,80,40,27.199999999999996"></polyline></g><g stroke="#000" stroke-opacity="0.02" fill="#222" fill-opacity="0.098" stroke-width="1" transform="translate(240,65.60000000000001)"><polyline points="0,0,40,27.199999999999996,40,80,0,52.800000000000004,0,0"></polyline><polyline points="40,27.199999999999996,80,0,80,52.800000000000004,40,80,40,27.199999999999996"></polyline></g><g stroke="#000" stroke-opacity="0.02" fill="#ddd" fill-opacity="0.03733333333333333" stroke-width="1" transform="translate(320,65.60000000000001)"><polyline points="0,0,40,27.199999999999996,40,80,0,52.800000000000004,0,0"></polyline><polyline points="40,27.199999999999996,80,0,80,52.800000000000004,40,80,40,27.199999999999996"></polyline></g><g stroke="#000" stroke-opacity="0.02" fill="#222" fill-opacity="0.13266666666666665" stroke-width="1" transform="translate(400,65.60000000000001)"><polyline points="0,0,40,27.199999999999996,40,80,0,52.800000000000004,0,0"></polyline><polyline points="40,27.199999999999996,80,0,80,52.800000000000004,40,80,40,27.199999999999996"></polyline></g><g stroke="#000" stroke-opacity="0.02" fill="#ddd" fill-opacity="0.10666666666666667" stroke-width="1" transform="translate(0,118.4)"><polyline points="0,0,40,27.199999999999996,40,80,0,52.800000000000004,0,0"></polyline><polyline points="40,27.199999999999996,80,0,80,52.800000000000004,40,80,40,27.199999999999996"></polyline></g><g stroke="#000" stroke-opacity="0.02" fill="#222" fill-opacity="0.098" stroke-width="1" transform="translate(80,118.4)"><polyline points="0,0,40,27.199999999999996,40,80,0,52.800000000000004,0,0"></polyline><polyline points="40,27.199999999999996,80,0,80,52.800000000000004,40,80,40,27.199999999999996"></polyline></g><g stroke="#000" stroke-opacity="0.02" fill="#222" fill-opacity="0.15" stroke-width="1" transform="translate(160,118.4)"><polyline points="0,0,40,27.199999999999996,40,80,0,52.800000000000004,0,0"></polyline><polyline points="40,27.199999999999996,80,0,80,52.800000000000004,40,80,40,27.199999999999996"></polyline></g><g stroke="#000" stroke-opacity="0.02" fill="#222" fill-opacity="0.098" stroke-width="1" transform="translate(240,118.4)"><polyline points="0,0,40,27.199999999999996,40,80,0,52.800000000000004,0,0"></polyline><polyline points="40,27.199999999999996,80,0,80,52.800000000000004,40,80,40,27.199999999999996"></polyline></g><g stroke="#000" stroke-opacity="0.02" fill="#222" fill-opacity="0.15" stroke-width="1" transform="translate(320,118.4)"><polyline points="0,0,40,27.199999999999996,40,80,0,52.800000000000004,0,0"></polyline><polyline points="40,27.199999999999996,80,0,80,52.800000000000004,40,80,40,27.199999999999996"></polyline></g><g stroke="#000" stroke-opacity="0.02" fill="#ddd" fill-opacity="0.02" stroke-width="1" transform="translate(400,118.4)"><polyline points="0,0,40,27.199999999999996,40,80,0,52.800000000000004,0,0"></polyline><polyline points="40,27.199999999999996,80,0,80,52.800000000000004,40,80,40,27.199999999999996"></polyline></g><g stroke="#000" stroke-opacity="0.02" fill="#ddd" fill-opacity="0.03733333333333333" stroke-width="1" transform="translate(0,171.20000000000002)"><polyline points="0,0,40,27.199999999999996,40,80,0,52.800000000000004,0,0"></polyline><polyline points="40,27.199999999999996,80,0,80,52.800000000000004,40,80,40,27.199999999999996"></polyline></g><g stroke="#000" stroke-opacity="0.02" fill="#222" fill-opacity="0.046" stroke-width="1" transform="translate(80,171.20000000000002)"><polyline points="0,0,40,27.199999999999996,40,80,0,52.800000000000004,0,0"></polyline><polyline points="40,27.199999999999996,80,0,80,52.800000000000004,40,80,40,27.199999999999996"></polyline></g><g stroke="#000" stroke-opacity="0.02" fill="#ddd" fill-opacity="0.02" stroke-width="1" transform="translate(160,171.20000000000002)"><polyline points="0,0,40,27.199999999999996,40,80,0,52.800000000000004,0,0"></polyline><polyline points="40,27.199999999999996,80,0,80,52.800000000000004,40,80,40,27.199999999999996"></polyline></g><g stroke="#000" stroke-opacity="0.02" fill="#222" fill-opacity="0.028666666666666667" stroke-width="1" transform="translate(240,171.20000000000002)"><polyline points="0,0,40,27.199999999999996,40,80,0,52.800000000000004,0,0"></polyline><polyline points="40,27.199999999999996,80,0,80,52.800000000000004,40,80,40,27.199999999999996"></polyline></g><g stroke="#000" stroke-opacity="0.02" fill="#ddd" fill-opacity="0.10666666666666667" stroke-width="1" transform="translate(320,171.20000000000002)"><polyline points="0,0,40,27.199999999999996,40,80,0,52.800000000000004,0,0"></polyline><polyline points="40,27.199999999999996,80,0,80,52.800000000000004,40,80,40,27.199999999999996"></polyline></g><g stroke="#000" stroke-opacity="0.02" fill="#222" fill-opacity="0.15" stroke-width="1" transform="translate(400,171.20000000000002)"><polyline points="0,0,40,27.199999999999996,40,80,0,52.800000000000004,0,0"></polyline><polyline points="40,27.199999999999996,80,0,80,52.800000000000004,40,80,40,27.199999999999996"></polyline></g><g stroke="#000" stroke-opacity="0.02" fill="#222" fill-opacity="0.098" stroke-width="1" transform="translate(0,224)"><polyline points="0,0,40,27.199999999999996,40,80,0,52.800000000000004,0,0"></polyline><polyline points="40,27.199999999999996,80,0,80,52.800000000000004,40,80,40,27.199999999999996"></polyline></g><g stroke="#000" stroke-opacity="0.02" fill="#222" fill-opacity="0.11533333333333334" stroke-width="1" transform="translate(80,224)"><polyline points="0,0,40,27.199999999999996,40,80,0,52.800000000000004,0,0"></polyline><polyline points="40,27.199999999999996,80,0,80,52.800000000000004,40,80,40,27.199999999999996"></polyline></g><g stroke="#000" stroke-opacity="0.02" fill="#ddd" fill-opacity="0.12400000000000001" stroke-width="1" transform="translate(160,224)"><polyline points="0,0,40,27.199999999999996,40,80,0,52.800000000000004,0,0"></polyline><polyline points="40,27.199999999999996,80,0,80,52.800000000000004,40,80,40,27.199999999999996"></polyline></g><g stroke="#000" stroke-opacity="0.02" fill="#ddd" fill-opacity="0.07200000000000001" stroke-width="1" transform="translate(240,224)"><polyline points="0,0,40,27.199999999999996,40,80,0,52.800000000000004,0,0"></polyline><polyline points="40,27.199999999999996,80,0,80,52.800000000000004,40,80,40,27.199999999999996"></polyline></g><g stroke="#000" stroke-opacity="0.02" fill="#222" fill-opacity="0.046" stroke-width="1" transform="translate(320,224)"><polyline points="0,0,40,27.199999999999996,40,80,0,52.800000000000004,0,0"></polyline><polyline points="40,27.199999999999996,80,0,80,52.800000000000004,40,80,40,27.199999999999996"></polyline></g><g stroke="#000" stroke-opacity="0.02" fill="#222" fill-opacity="0.13266666666666665" stroke-width="1" transform="translate(400,224)"><polyline points="0,0,40,27.199999999999996,40,80,0,52.800000000000004,0,0"></polyline><polyline points="40,27.199999999999996,80,0,80,52.800000000000004,40,80,40,27.199999999999996"></polyline></g></svg>