<svg xmlns="http://www.w3.org/2000/svg" width="180" height="180"><rect x="0" y="0" width="100%" height="100%" fill="rgb(56,151,75)"></rect><rect x="0" y="0" width="30" height="30" fill="#ddd" fill-opacity="0.07200000000000001" stroke="#000" stroke-opacity="0.02"></rect><rect x="30" y="0" width="30" height="30" fill="#222" fill-opacity="0.15" stroke="#000" stroke-opacity="0.02"></rect><rect x="60" y="0" width="30" height="30" fill="#ddd" fill-opacity="0.02" stroke="#000" stroke-opacity="0.02"></rect><rect x="90" y="0" width="30" height="30" fill="#222" fill-opacity="0.08066666666666666" stroke="#000" stroke-opacity="0.02"></rect><rect x="120" y="0" width="30" height="30" fill="#ddd" fill-opacity="0.12400000000000001" stroke="#000" stroke-opacity="0.02"></rect><rect x="150" y="0" width="30" height="30" fill="#222" fill-opacity="0.08066666666666666" stroke="#000" stroke-opacity="0.02"></rect><rect x="0" y="30" width="30" height="30" fill="#ddd" fill-opacity="0.12400000000000001" stroke="#000" stroke-opacity="0.02"></rect><rect x="30" y="30" width="30" height="30" fill="#222" fill-opacity="0.028666666666666667" stroke="#000" stroke-opacity="0.02"></rect><rect x="60" y="30" width="30" height="30" fill="#ddd" fill-opacity="0.12400000000000001" stroke="#000" stroke-opacity="0.02"></rect><rect x="90" y="30" width="30" height="30" fill="#ddd" fill-opacity="0.05466666666666667" stroke="#000" stroke-opacity="0.02"></rect><rect x="120" y="30" width="30" height="30" fill="#222" fill-opacity="0.15" stroke="#000" stroke-opacity="0.02"></rect><rect x="150" y="30" width="30" height="30" fill="#222" fill-opacity="0.11533333333333334" stroke="#000" stroke-opacity="0.02"></rect><rect x="0" y="60" width="30" height="30" fill="#222" fill-opacity="0.098" stroke="#000" stroke-opacity="0.02"></rect><rect x="30" y="60" width="30" height="30" fill="#222" fill-opacity="0.06333333333333334" stroke="#000" stroke-opacity="0.02"></rect><rect x="60" y="60" width="30" height="30" fill="#ddd" fill-opacity="0.10666666666666667" stroke="#000" stroke-opacity="0.02"></rect><rect x="90" y="60" width="30" height="30" fill="#ddd" fill-opacity="0.03733333333333333" stroke="#000" stroke-opacity="0.02"></rect><rect x="120" y="60" width="30" height="30" fill="#ddd" fill-opacity="0.07200000000000001" stroke="#000" stroke-opacity="0.02"></rect><rect x="150" y="60" width="30" height="30" fill="#ddd" fill-opacity="0.05466666666666667" stroke="#000" stroke-opacity="0.02"></rect><rect x="0" y="90" width="30" height="30" fill="#222" fill-opacity="0.11533333333333334" stroke="#000" stroke-opacity="0.02"></rect><rect x="30" y="90" width="30" height="30" fill="#222" fill-opacity="0.08066666666666666" stroke="#000" stroke-opacity="0.02"></rect><rect x="60" y="90" width="30" height="30" fill="#222" fill-opacity="0.098" stroke="#000" stroke-opacity="0.02"></rect><rect x="90" y="90" width="30" height="30" fill="#ddd" fill-opacity="0.02" stroke="#000" stroke-opacity="0.02"></rect><rect x="120" y="90" width="30" height="30" fill="#222" fill-opacity="0.08066666666666666" stroke="#000" stroke-opacity="0.02"></rect><rect x="150" y="90" width="30" height="30" fill="#222" fill-opacity="0.11533333333333334" stroke="#000" stroke-opacity="0.02"></rect><rect x="0" y="120" width="30" height="30" fill="#222" fill-opacity="0.06333333333333334" stroke="#000" stroke-opacity="0.02"></rect><rect x="30" y="120" width="30" height="30" fill="#ddd" fill-opacity="0.02" stroke="#000" stroke-opacity="0.02"></rect><rect x="60" y="120" width="30" height="30" fill="#222" fill-opacity="0.046" stroke="#000" stroke-opacity="0.02"></rect><rect x="90" y="120" width="30" height="30" fill="#ddd" fill-opacity="0.12400000000000001" stroke="#000" stroke-opacity="0.02"></rect><rect x="120" y="120" width="30" height="30" fill="#222" fill-opacity="0.11533333333333334" stroke="#000" stroke-opacity="0.02"></rect><rect x="150" y="120" width="30" height="30" fill="#ddd" fill-opacity="0.07200000000000001" stroke="#000" stroke-opacity="0.02"></rect><rect x="0" y="150" width="30" height="30" fill="#ddd" fill-opacity="0.12400000000000001" stroke="#000" stroke-opacity="0.02"></rect><rect x="30" y="150" width="30" height="30" fill="#222" fill-opacity="0.098" stroke="#000" stroke-opacity="0.02"></rect><rect x="60" y="150" width="30" height="30" fill="#222" fill-opacity="0.11533333333333334" stroke="#000" stroke-opacity="0.02"></rect><rect x="90" y="150" width="30" height="30" fill="#222" fill-opacity="0.15" stroke="#000" stroke-opacity="0.02"></rect><rect x="120" y="150" width="30" height="30" fill="#222" fill-opacity="0.11533333333333334" stroke="#000" stroke-opacity="0.02"></rect><rect x="150" y="150" width="30" height="30" fill="#222" fill-opacity="0.06333333333333334" stroke="#000" stroke-opacity="0.02"></rect></svg>