<svg xmlns="http://www.w3.org/2000/svg" width="180" height="180"><rect x="0" y="0" width="100%" height="100%" fill="rgb(85,144,63)"></rect><circle cx="0" cy="0" r="26.25" fill="none" stroke="#ddd" opacity="0.07200000000000001" stroke-width="7.5px"></circle><circle cx="180" cy="0" r="26.25" fill="none" stroke="#ddd" opacity="0.07200000000000001" stroke-width="7.5px"></circle><circle cx="0" cy="180" r="26.25" fill="none" stroke="#ddd" opacity="0.07200000000000001" stroke-width="7.5px"></circle><circle cx="180" cy="180" r="26.25" fill="none" stroke="#ddd" opacity="0.07200000000000001" stroke-width="7.5px"></circle><circle cx="30" cy="0" r="26.25" fill="none" stroke="#222" opacity="0.08066666666666666" stroke-width="7.5px"></circle><circle cx="30" cy="180" r="26.25" fill="none" stroke="#222" opacity="0.08066666666666666" stroke-width="7.5px"></circle><circle cx="60" cy="0" r="26.25" fill="none" stroke="#ddd" opacity="0.07200000000000001" stroke-width="7.5px"></circle><circle cx="60" cy="180" r="26.25" fill="none" stroke="#ddd" opacity="0.07200000000000001" stroke-width="7.5px"></circle><circle cx="90" cy="0" r="26.25" fill="none" stroke="#ddd" opacity="0.10666666666666667" stroke-width="7.5px"></circle><circle cx="90" cy="180" r="26.25" fill="none" stroke="#ddd" opacity="0.10666666666666667" stroke-width="7.5px"></circle><circle cx="120" cy="0" r="26.25" fill="none" stroke="#222" opacity="0.06333333333333334" stroke-width="7.5px"></circle><circle cx="120" cy="180" r="26.25" fill="none" stroke="#222" opacity="0.06333333333333334" stroke-width="7.5px"></circle><circle cx="150" cy="0" r="26.25" fill="none" stroke="#222" opacity="0.028666666666666667" stroke-width="7.5px"></circle><circle cx="150" cy="180" r="26.25" fill="none" stroke="#222" opacity="0.028666666666666667" stroke-width="7.5px"></circle><circle cx="0" cy="30" r="26.25" fill="none" stroke="#222" opacity="0.046" stroke-width="7.5px"></circle><circle cx="180" cy="30" r="26.25" fill="none" stroke="#222" opacity="0.046" stroke-width="7.5px"></circle><circle cx="30" cy="30" r="26.25" fill="none" stroke="#222" opacity="0.13266666666666665" stroke-width="7.5px"></circle><circle cx="60" cy="30" r="26.25" fill="none" stroke="#ddd" opacity="0.12400000000000001" stroke-width="7.5px"></circle><circle cx="90" cy="30" r="26.25" fill="none" stroke="#222" opacity="0.11533333333333334" stroke-width="7.5px"></circle><circle cx="120" cy="30" r="26.25" fill="none" stroke="#222" opacity="0.15" stroke-width="7.5px"></circle><circle cx="150" cy="30" r="26.25" fill="none" stroke="#ddd" opacity="0.12400000000000001" stroke-width="7.5px"></circle><circle cx="0" cy="60" r="26.25" fill="none" stroke="#222" opacity="0.028666666666666667" stroke-width="7.5px"></circle><circle cx="180" cy="60" r="26.25" fill="none" stroke="#222" opacity="0.028666666666666667" stroke-width="7.5px"></circle><circle cx="30" cy="60" r="26.25" fill="none" stroke="#ddd" opacity="0.10666666666666667" stroke-width="7.5px"></circle><circle cx="60" cy="60" r="26.25" fill="none" stroke="#222" opacity="0.11533333333333334" stroke-width="7.5px"></circle><circle cx="90" cy="60" r="26.25" fill="none" stroke="#ddd" opacity="0.07200000000000001" stroke-width="7.5px"></circle><circle cx="120" cy="60" r="26.25" fill="none" stroke="#ddd" opacity="0.10666666666666667" stroke-width="7.5px"></circle><circle cx="150" cy="60" r="26.25" fill="none" stroke="#222" opacity="0.046" stroke-width="7.5px"></circle><circle cx="0" cy="90" r="26.25" fill="none" stroke="#ddd" opacity="0.12400000000000001" stroke-width="7.5px"></circle><circle cx="180" cy="90" r="26.25" fill="none" stroke="#ddd" opacity="0.12400000000000001" stroke-width="7.5px"></circle><circle cx="30" cy="90" r="26.25" fill="none" stroke="#222" opacity="0.046" stroke-width="7.5px"></circle><circle cx="60" cy="90" r="26.25" fill="none" stroke="#ddd" opacity="0.07200000000000001" stroke-width="7.5px"></circle><circle cx="90" cy="90" r="26.25" fill="none" stroke="#ddd" opacity="0.02" stroke-width="7.5px"></circle><circle cx="120" cy="90" r="26.25" fill="none" stroke="#ddd" opacity="0.07200000000000001" stroke-width="7.5px"></circle><circle cx="150" cy="90" r="26.25" fill="none" stroke="#222" opacity="0.15" stroke-width="7.5px"></circle><circle cx="0" cy="120" r="26.25" fill="none" stroke="#222" opacity="0.098" stroke-width="7.5px"></circle><circle cx="180" cy="120" r="26.25" fill="none" stroke="#222" opacity="0.098" stroke-width="7.5px"></circle><circle cx="30" cy="120" r="26.25" fill="none" stroke="#ddd" opacity="0.10666666666666667" stroke-width="7.5px"></circle><circle cx="60" cy="120" r="26.25" fill="none" stroke="#ddd" opacity="0.08933333333333333" stroke-width="7.5px"></circle><circle cx="90" cy="120" r="26.25" fill="none" stroke="#222" opacity="0.11533333333333334" stroke-width="7.5px"></circle><circle cx="120" cy="120" r="26.25" fill="none" stroke="#222" opacity="0.098" stroke-width="7.5px"></circle><circle cx="150" cy="120" r="26.25" fill="none" stroke="#222" opacity="0.046" stroke-width="7.5px"></circle><circle cx="0" cy="150" r="26.25" fill="none" stroke="#222" opacity="0.15" stroke-width="7.5px"></circle><circle cx="180" cy="150" r="26.25" fill="none" stroke="#222" opacity="0.15" stroke-width="7.5px"></circle><circle cx="30" cy="150" r="26.25" fill="none" stroke="#222" opacity="0.08066666666666666" stroke-width="7.5px"></circle><circle cx="60" cy="150" r="26.25" fill="none" stroke="#222" opacity="0.08066666666666666" stroke-width="7.5px"></circle><circle cx="90" cy="150" r="26.25" fill="none" stroke="#222" opacity="0.028666666666666667" stroke-width="7.5px"></circle><circle cx="120" cy="150" r="26.25" fill="none" stroke="#222" opacity="0.028666666666666667" stroke-width="7.5px"></circle><circle cx="150" cy="150" r="26.25" fill="none" stroke="#222" opacity="0.028666666666666667" stroke-width="7.5px"></circle></svg>