<svg xmlns="http://www.w3.org/2000/svg" width="235" height="150"><rect x="0" y="0" width="100%" height="100%" fill="rgb(108,76,131)"></rect><polyline points="19.666666666666664,0,39.33333333333333,25,19.666666666666664,50,0,25" fill="#222" fill-opacity="0.11533333333333334" stroke="#000" stroke-opacity="0.02" transform="translate(-19.666666666666664,-25)"></polyline><polyline points="19.666666666666664,0,39.33333333333333,25,19.666666666666664,50,0,25" fill="#222" fill-opacity="0.11533333333333334" stroke="#000" stroke-opacity="0.02" transform="translate(216.33333333333331,-25)"></polyline><polyline points="19.666666666666664,0,39.33333333333333,25,19.666666666666664,50,0,25" fill="#222" fill-opacity="0.11533333333333334" stroke="#000" stroke-opacity="0.02" transform="translate(-19.666666666666664,125)"></polyline><polyline points="19.666666666666664,0,39.33333333333333,25,19.666666666666664,50,0,25" fill="#222" fill-opacity="0.11533333333333334" stroke="#000" stroke-opacity="0.02" transform="translate(216.33333333333331,125)"></polyline><polyline points="19.666666666666664,0,39.33333333333333,25,19.666666666666664,50,0,25" fill="#222" fill-opacity="0.15" stroke="#000" stroke-opacity="0.02" transform="translate(19.666666666666664,-25)"></polyline><polyline points="19.666666666666664,0,39.33333333333333,25,19.666666666666664,50,0,25" fill="#222" fill-opacity="0.15" stroke="#000" stroke-opacity="0.02" transform="translate(19.666666666666664,125)"></polyline><polyline points="19.666666666666664,0,39.33333333333333,25,19.666666666666664,50,0,25" fill="#ddd" fill-opacity="0.10666666666666667" stroke="#000" stroke-opacity="0.02" transform="translate(58.99999999999999,-25)"></polyline><polyline points="19.666666666666664,0,39.33333333333333,25,19.666666666666664,50,0,25" fill="#ddd" fill-opacity="0.10666666666666667" stroke="#000" stroke-opacity="0.02" transform="translate(58.99999999999999,125)"></polyline><polyline points="19.666666666666664,0,39.33333333333333,25,19.666666666666664,50,0,25" fill="#222" fill-opacity="0.06333333333333334" stroke="#000" stroke-opacity="0.02" transform="translate(98.33333333333331,-25)"></polyline><polyline points="19.666666666666664,0,39.33333333333333,25,19.666666666666664,50,0,25" fill="#222" fill-opacity="0.06333333333333334" stroke="#000" stroke-opacity="0.02" transform="translate(98.33333333333331,125)"></polyline><polyline points="19.666666666666664,0,39.33333333333333,25,19.666666666666664,50,0,25" fill="#222" fill-opacity="0.046" stroke="#000" stroke-opacity="0.02" transform="translate(137.66666666666666,-25)"></polyline><polyline points="19.666666666666664,0,39.33333333333333,25,19.666666666666664,50,0,25" fill="#222" fill-opacity="0.046" stroke="#000" stroke-opacity="0.02" transform="translate(137.66666666666666,125)"></polyline><polyline points="19.666666666666664,0,39.33333333333333,25,19.666666666666664,50,0,25" fill="#222" fill-opacity="0.11533333333333334" stroke="#000" stroke-opacity="0.02" transform="translate(176.99999999999997,-25)"></polyline><polyline points="19.666666666666664,0,39.33333333333333,25,19.666666666666664,50,0,25" fill="#222" fill-opacity="0.11533333333333334" stroke="#000" stroke-opacity="0.02" transform="translate(176.99999999999997,125)"></polyline><polyline points="19.666666666666664,0,39.33333333333333,25,19.666666666666664,50,0,25" fill="#ddd" fill-opacity="0.12400000000000001" stroke="#000" stroke-opacity="0.02" transform="translate(0,0)"></polyline><polyline points="19.666666666666664,0,39.33333333333333,25,19.666666666666664,50,0,25" fill="#ddd" fill-opacity="0.12400000000000001" stroke="#000" stroke-opacity="0.02" transform="translate(235.99999999999997,0)"></polyline><polyline points="19.666666666666664,0,39.33333333333333,25,19.666666666666664,50,0,25" fill="#ddd" fill-opacity="0.08933333333333333" stroke="#000" stroke-opacity="0.02" transform="translate(39.33333333333333,0)"></polyline><polyline points="19.666666666666664,0,39.33333333333333,25,19.666666666666664,50,0,25" fill="#222" fill-opacity="0.08066666666666666" stroke="#000" stroke-opacity="0.02" transform="translate(78.66666666666666,0)"></polyline><polyline points="19.666666666666664,0,39.33333333333333,25,19.666666666666664,50,0,25" fill="#ddd" fill-opacity="0.12400000000000001" stroke="#000" stroke-opacity="0.02" transform="translate(117.99999999999997,0)"></polyline><polyline points="19.666666666666664,0,39.33333333333333,25,19.666666666666664,50,0,25" fill="#ddd" fill-opacity="0.12400000000000001" stroke="#000" stroke-opacity="0.02" transform="translate(157.33333333333331,0)"></polyline><polyline points="19.666666666666664,0,39.33333333333333,25,19.666666666666664,50,0,25" fill="#222" fill-opacity="0.15" stroke="#000" stroke-opacity="0.02" transform="translate(196.66666666666663,0)"></polyline><polyline points="19.666666666666664,0,39.33333333333333,25,19.666666666666664,50,0,25" fill="#222" fill-opacity="0.046" stroke="#000" stroke-opacity="0.02" transform="translate(-19.666666666666664,25)"></polyline><polyline points="19.666666666666664,0,39.33333333333333,25,19.666666666666664,50,0,25" fill="#222" fill-opacity="0.046" stroke="#000" stroke-opacity="0.02" transform="translate(216.33333333333331,25)"></polyline><polyline points="19.666666666666664,0,39.33333333333333,25,19.666666666666664,50,0,25" fill="#ddd" fill-opacity="0.14133333333333334" stroke="#000" stroke-opacity="0.02" transform="translate(19.666666666666664,25)"></polyline><polyline points="19.666666666666664,0,39.33333333333333,25,19.666666666666664,50,0,25" fill="#222" fill-opacity="0.046" stroke="#000" stroke-opacity="0.02" transform="translate(58.99999999999999,25)"></polyline><polyline points="19.666666666666664,0,39.33333333333333,25,19.666666666666664,50,0,25" fill="#222" fill-opacity="0.13266666666666665" stroke="#000" stroke-opacity="0.02" transform="translate(98.33333333333331,25)"></polyline><polyline points="19.666666666666664,0,39.33333333333333,25,19.666666666666664,50,0,25" fill="#222" fill-opacity="0.028666666666666667" stroke="#000" stroke-opacity="0.02" transform="translate(137.66666666666666,25)"></polyline><polyline points="19.666666666666664,0,39.33333333333333,25,19.666666666666664,50,0,25" fill="#222" fill-opacity="0.15" stroke="#000" stroke-opacity="0.02" transform="translate(176.99999999999997,25)"></polyline><polyline points="19.666666666666664,0,39.33333333333333,25,19.666666666666664,50,0,25" fill="#222" fill-opacity="0.046" stroke="#000" stroke-opacity="0.02" transform="translate(0,50)"></polyline><polyline points="19.666666666666664,0,39.33333333333333,25,19.666666666666664,50,0,25" fill="#222" fill-opacity="0.046" stroke="#000" stroke-opacity="0.02" transform="translate(235.99999999999997,50)"></polyline><polyline points="19.666666666666664,0,39.33333333333333,25,19.666666666666664,50,0,25" fill="#222" fill-opacity="0.11533333333333334" stroke="#000" stroke-opacity="0.02" transform="translate(39.33333333333333,50)"></polyline><polyline points="19.666666666666664,0,39.33333333333333,25,19.666666666666664,50,0,25" fill="#222" fill-opacity="0.11533333333333334" stroke="#000" stroke-opacity="0.02" transform="translate(78.66666666666666,50)"></polyline><polyline points="19.666666666666664,0,39.33333333333333,25,19.666666666666664,50,0,25" fill="#ddd" fill-opacity="0.07200000000000001" stroke="#000" stroke-opacity="0.02" transform="translate(117.99999999999997,50)"></polyline><polyline points="19.666666666666664,0,39.33333333333333,25,19.666666666666664,50,0,25" fill="#ddd" fill-opacity="0.02" stroke="#000" stroke-opacity="0.02" transform="translate(157.33333333333331,50)"></polyline><polyline points="19.666666666666664,0,39.33333333333333,25,19.666666666666664,50,0,25" fill="#222" fill-opacity="0.15" stroke="#000" stroke-opacity="0.02" transform="translate(196.66666666666663,50)"></polyline><polyline points="19.666666666666664,0,39.33333333333333,25,19.666666666666664,50,0,25" fill="#222" fill-opacity="0.046" stroke="#000" stroke-opacity="0.02" transform="translate(-19.666666666666664,75)"></polyline><polyline points="19.666666666666664,0,39.33333333333333,25,19.666666666666664,50,0,25" fill="#222" fill-opacity="0.046" stroke="#000" stroke-opacity="0.02" transform="translate(216.33333333333331,75)"></polyline><polyline points="19.666666666666664,0,39.33333333333333,25,19.666666666666664,50,0,25" fill="#222" fill-opacity="0.13266666666666665" stroke="#000" stroke-opacity="0.02" transform="translate(19.666666666666664,75)"></polyline><polyline points="19.666666666666664,0,39.33333333333333,25,19.666666666666664,50,0,25" fill="#ddd" fill-opacity="0.14133333333333334" stroke="#000" stroke-opacity="0.02" transform="translate(58.99999999999999,75)"></polyline><polyline points="19.666666666666664,0,39.33333333333333,25,19.666666666666664,50,0,25" fill="#ddd" fill-opacity="0.12400000000000001" stroke="#000" stroke-opacity="0.02" transform="translate(98.33333333333331,75)"></polyline><polyline points="19.666666666666664,0,39.33333333333333,25,19.666666666666664,50,0,25" fill="#ddd" fill-opacity="0.14133333333333334" stroke="#000" stroke-opacity="0.02" transform="translate(137.66666666666666,75)"></polyline><polyline points="19.666666666666664,0,39.33333333333333,25,19.666666666666664,50,0,25" fill="#ddd" fill-opacity="0.12400000000000001" stroke="#000" stroke-opacity="0.02" transform="translate(176.99999999999997,75)"></polyline><polyline points="19.666666666666664,0,39.33333333333333,25,19.666666666666664,50,0,25" fill="#ddd" fill-opacity="0.02" stroke="#000" stroke-opacity="0.02" transform="translate(0,100)"></polyline><polyline points="19.666666666666664,0,39.33333333333333,25,19.666666666666664,50,0,25" fill="#ddd" fill-opacity="0.02" stroke="#000" stroke-opacity="0.02" transform="translate(235.99999999999997,100)"></polyline><polyline points="19.666666666666664,0,39.33333333333333,25,19.666666666666664,50,0,25" fill="#ddd" fill-opacity="0.14133333333333334" stroke="#000" stroke-opacity="0.02" transform="translate(39.33333333333333,100)"></polyline><polyline points="19.666666666666664,0,39.33333333333333,25,19.666666666666664,50,0,25" fill="#ddd" fill-opacity="0.08933333333333333" stroke="#000" stroke-opacity="0.02" transform="translate(78.66666666666666,100)"></polyline><polyline points="19.666666666666664,0,39.33333333333333,25,19.666666666666664,50,0,25" fill="#222" fill-opacity="0.13266666666666665" stroke="#000" stroke-opacity="0.02" transform="translate(117.99999999999997,100)"></polyline><polyline points="19.666666666666664,0,39.33333333333333,25,19.666666666666664,50,0,25" fill="#222" fill-opacity="0.15" stroke="#000" stroke-opacity="0.02" transform="translate(157.33333333333331,100)"></polyline><polyline points="19.666666666666664,0,39.33333333333333,25,19.666666666666664,50,0,25" fill="#ddd" fill-opacity="0.05466666666666667" stroke="#000" stroke-opacity="0.02" transform="translate(196.66666666666663,100)"></polyline></svg>