<svg xmlns="http://www.w3.org/2000/svg" width="180" height="118"><rect x="0" y="0" width="100%" height="100%" fill="rgb(76,131,126)"></rect><g stroke="#000" stroke-opacity="0.02" fill="#ddd" fill-opacity="0.02" stroke-width="1" transform="translate(0,-15)"><polyline points="0,0,15,10.2,15,30,0,19.8,0,0"></polyline><polyline points="15,10.2,30,0,30,19.8,15,30,15,10.2"></polyline></g><g stroke="#000" stroke-opacity="0.02" fill="#ddd" fill-opacity="0.02" stroke-width="1" transform="translate(0,103.80000000000001)"><polyline points="0,0,15,10.2,15,30,0,19.8,0,0"></polyline><polyline points="15,10.2,30,0,30,19.8,15,30,15,10.2"></polyline></g><g stroke="#000" stroke-opacity="0.02" fill="#ddd" fill-opacity="0.12400000000000001" stroke-width="1" transform="translate(30,-15)"><polyline points="0,0,15,10.2,15,30,0,19.8,0,0"></polyline><polyline points="15,10.2,30,0,30,19.8,15,30,15,10.2"></polyline></g><g stroke="#000" stroke-opacity="0.02" fill="#ddd" fill-opacity="0.12400000000000001" stroke-width="1" transform="translate(30,103.80000000000001)"><polyline points="0,0,15,10.2,15,30,0,19.8,0,0"></polyline><polyline points="15,10.2,30,0,30,19.8,15,30,15,10.2"></polyline></g><g stroke="#000" stroke-opacity="0.02" fill="#222" fill-opacity="0.11533333333333334" stroke-width="1" transform="translate(60,-15)"><polyline points="0,0,15,10.2,15,30,0,19.8,0,0"></polyline><polyline points="15,10.2,30,0,30,19.8,15,30,15,10.2"></polyline></g><g stroke="#000" stroke-opacity="0.02" fill="#222" fill-opacity="0.11533333333333334" stroke-width="1" transform="translate(60,103.80000000000001)"><polyline points="0,0,15,10.2,15,30,0,19.8,0,0"></polyline><polyline points="15,10.2,30,0,30,19.8,15,30,15,10.2"></polyline></g><g stroke="#000" stroke-opacity="0.02" fill="#222" fill-opacity="0.08066666666666666" stroke-width="1" transform="translate(90,-15)"><polyline points="0,0,15,10.2,15,30,0,19.8,0,0"></polyline><polyline points="15,10.2,30,0,30,19.8,15,30,15,10.2"></polyline></g><g stroke="#000" stroke-opacity="0.02" fill="#222" fill-opacity="0.08066666666666666" stroke-width="1" transform="translate(90,103.80000000000001)"><polyline points="0,0,15,10.2,15,30,0,19.8,0,0"></polyline><polyline points="15,10.2,30,0,30,19.8,15,30,15,10.2"></polyline></g><g stroke="#000" stroke-opacity="0.02" fill="#ddd" fill-opacity="0.14133333333333334" stroke-width="1" transform="translate(120,-15)"><polyline points="0,0,15,10.2,15,30,0,19.8,0,0"></polyline><polyline points="15,10.2,30,0,30,19.8,15,30,15,10.2"></polyline></g><g stroke="#000" stroke-opacity="0.02" fill="#ddd" fill-opacity="0.14133333333333334" stroke-width="1" transform="translate(120,103.80000000000001)"><polyline points="0,0,15,10.2,15,30,0,19.8,0,0"></polyline><polyline points="15,10.2,30,0,30,19.8,15,30,15,10.2"></polyline></g><g stroke="#000" stroke-opacity="0.02" fill="#ddd" fill-opacity="0.03733333333333333" stroke-width="1" transform="translate(150,-15)"><polyline points="0,0,15,10.2,15,30,0,19.8,0,0"></polyline><polyline points="15,10.2,30,0,30,19.8,15,30,15,10.2"></polyline></g><g stroke="#000" stroke-opacity="0.02" fill="#ddd" fill-opacity="0.03733333333333333" stroke-width="1" transform="translate(150,103.80000000000001)"><polyline points="0,0,15,10.2,15,30,0,19.8,0,0"></polyline><polyline points="15,10.2,30,0,30,19.8,15,30,15,10.2"></polyline></g><g stroke="#000" stroke-opacity="0.02" fill="#222" fill-opacity="0.06333333333333334" stroke-width="1" transform="translate(0,4.800000000000001)"><polyline points="0,0,15,10.2,15,30,0,19.8,0,0"></polyline><polyline points="15,10.2,30,0,30,19.8,15,30,15,10.2"></polyline></g><g stroke="#000" stroke-opacity="0.02" fill="#ddd" fill-opacity="0.03733333333333333" stroke-width="1" transform="translate(30,4.800000000000001)"><polyline points="0,0,15,10.2,15,30,0,19.8,0,0"></polyline><polyline points="15,10.2,30,0,30,19.8,15,30,15,10.2"></polyline></g><g stroke="#000" stroke-opacity="0.02" fill="#ddd" fill-opacity="0.12400000000000001" stroke-width="1" transform="translate(60,4.800000000000001)"><polyline points="0,0,15,10.2,15,30,0,19.8,0,0"></polyline><polyline points="15,10.2,30,0,30,19.8,15,30,15,10.2"></polyline></g><g stroke="#000" stroke-opacity="0.02" fill="#ddd" fill-opacity="0.07200000000000001" stroke-width="1" transform="translate(90,4.800000000000001)"><polyline points="0,0,15,10.2,15,30,0,19.8,0,0"></polyline><polyline points="15,10.2,30,0,30,19.8,15,30,15,10.2"></polyline></g><g stroke="#000" stroke-opacity="0.02" fill="#ddd" fill-opacity="0.03733333333333333" stroke-width="1" transform="translate(120,4.800000000000001)"><polyline points="0,0,15,10.2,15,30,0,19.8,0,0"></polyline><polyline points="15,10.2,30,0,30,19.8,15,30,15,10.2"></polyline></g><g stroke="#000" stroke-opacity="0.02" fill="#ddd" fill-opacity="0.10666666666666667" stroke-width="1" transform="translate(150,4.800000000000001)"><polyline points="0,0,15,10.2,15,30,0,19.8,0,0"></polyline><polyline points="15,10.2,30,0,30,19.8,15,30,15,10.2"></polyline></g><g stroke="#000" stroke-opacity="0.02" fill="#ddd" fill-opacity="0.12400000000000001" stroke-width="1" transform="translate(0,24.6)"><polyline points="0,0,15,10.2,15,30,0,19.8,0,0"></polyline><polyline points="15,10.2,30,0,30,19.8,15,30,15,10.2"></polyline></g><g stroke="#000" stroke-opacity="0.02" fill="#ddd" fill-opacity="0.08933333333333333" stroke-width="1" transform="translate(30,24.6)"><polyline points="0,0,15,10.2,15,30,0,19.8,0,0"></polyline><polyline points="15,10.2,30,0,30,19.8,15,30,15,10.2"></polyline></g><g stroke="#000" stroke-opacity="0.02" fill="#ddd" fill-opacity="0.08933333333333333" stroke-width="1" transform="translate(60,24.6)"><polyline points="0,0,15,10.2,15,30,0,19.8,0,0"></polyline><polyline points="15,10.2,30,0,30,19.8,15,30,15,10.2"></polyline></g><g stroke="#000" stroke-opacity="0.02" fill="#ddd" fill-opacity="0.05466666666666667" stroke-width="1" transform="translate(90,24.6)"><polyline points="0,0,15,10.2,15,30,0,19.8,0,0"></polyline><polyline points="15,10.2,30,0,30,19.8,15,30,15,10.2"></polyline></g><g stroke="#000" stroke-opacity="0.02" fill="#ddd" fill-opacity="0.12400000000000001" stroke-width="1" transform="translate(120,24.6)"><polyline points="0,0,15,10.2,15,30,0,19.8,0,0"></polyline><polyline points="15,10.2,30,0,30,19.8,15,30,15,10.2"></polyline></g><g stroke="#000" stroke-opacity="0.02" fill="#222" fill-opacity="0.15" stroke-width="1" transform="translate(150,24.6)"><polyline points="0,0,15,10.2,15,30,0,19.8,0,0"></polyline><polyline points="15,10.2,30,0,30,19.8,15,30,15,10.2"></polyline></g><g stroke="#000" stroke-opacity="0.02" fill="#ddd" fill-opacity="0.14133333333333334" stroke-width="1" transform="translate(0,44.400000000000006)"><polyline points="0,0,15,10.2,15,30,0,19.8,0,0"></polyline><polyline points="15,10.2,30,0,30,19.8,15,30,15,10.2"></polyline></g><g stroke="#000" stroke-opacity="0.02" fill="#ddd" fill-opacity="0.07200000000000001" stroke-width="1" transform="translate(30,44.400000000000006)"><polyline points="0,0,15,10.2,15,30,0,19.8,0,0"></polyline><polyline points="15,10.2,30,0,30,19.8,15,30,15,10.2"></polyline></g><g stroke="#000" stroke-opacity="0.02" fill="#222" fill-opacity="0.15" stroke-width="1" transform="translate(60,44.400000000000006)"><polyline points="0,0,15,10.2,15,30,0,19.8,0,0"></polyline><polyline points="15,10.2,30,0,30,19.8,15,30,15,10.2"></polyline></g><g stroke="#000" stroke-opacity="0.02" fill="#222" fill-opacity="0.046" stroke-width="1" transform="translate(90,44.400000000000006)"><polyline points="0,0,15,10.2,15,30,0,19.8,0,0"></polyline><polyline points="15,10.2,30,0,30,19.8,15,30,15,10.2"></polyline></g><g stroke="#000" stroke-opacity="0.02" fill="#ddd" fill-opacity="0.14133333333333334" stroke-width="1" transform="translate(120,44.400000000000006)"><polyline points="0,0,15,10.2,15,30,0,19.8,0,0"></polyline><polyline points="15,10.2,30,0,30,19.8,15,30,15,10.2"></polyline></g><g stroke="#000" stroke-opacity="0.02" fill="#222" fill-opacity="0.15" stroke-width="1" transform="translate(150,44.400000000000006)"><polyline points="0,0,15,10.2,15,30,0,19.8,0,0"></polyline><polyline points="15,10.2,30,0,30,19.8,15,30,15,10.2"></polyline></g><g stroke="#000" stroke-opacity="0.02" fill="#222" fill-opacity="0.06333333333333334" stroke-width="1" transform="translate(0,64.2)"><polyline points="0,0,15,10.2,15,30,0,19.8,0,0"></polyline><polyline points="15,10.2,30,0,30,19.8,15,30,15,10.2"></polyline></g><g stroke="#000" stroke-opacity="0.02" fill="#ddd" fill-opacity="0.07200000000000001" stroke-width="1" transform="translate(30,64.2)"><polyline points="0,0,15,10.2,15,30,0,19.8,0,0"></polyline><polyline points="15,10.2,30,0,30,19.8,15,30,15,10.2"></polyline></g><g stroke="#000" stroke-opacity="0.02" fill="#222" fill-opacity="0.06333333333333334" stroke-width="1" transform="translate(60,64.2)"><polyline points="0,0,15,10.2,15,30,0,19.8,0,0"></polyline><polyline points="15,10.2,30,0,30,19.8,15,30,15,10.2"></polyline></g><g stroke="#000" stroke-opacity="0.02" fill="#ddd" fill-opacity="0.03733333333333333" stroke-width="1" transform="translate(90,64.2)"><polyline points="0,0,15,10.2,15,30,0,19.8,0,0"></polyline><polyline points="15,10.2,30,0,30,19.8,15,30,15,10.2"></polyline></g><g stroke="#000" stroke-opacity="0.02" fill="#222" fill-opacity="0.11533333333333334" stroke-width="1" transform="translate(120,64.2)"><polyline points="0,0,15,10.2,15,30,0,19.8,0,0"></polyline><polyline points="15,10.2,30,0,30,19.8,15,30,15,10.2"></polyline></g><g stroke="#000" stroke-opacity="0.02" fill="#ddd" fill-opacity="0.07200000000000001" stroke-width="1" transform="translate(150,64.2)"><polyline points="0,0,15,10.2,15,30,0,19.8,0,0"></polyline><polyline points="15,10.2,30,0,30,19.8,15,30,15,10.2"></polyline></g><g stroke="#000" stroke-opacity="0.02" fill="#222" fill-opacity="0.098" stroke-width="1" transform="translate(0,84)"><polyline points="0,0,15,10.2,15,30,0,19.8,0,0"></polyline><polyline points="15,10.2,30,0,30,19.8,15,30,15,10.2"></polyline></g><g stroke="#000" stroke-opacity="0.02" fill="#222" fill-opacity="0.046" stroke-width="1" transform="translate(30,84)"><polyline points="0,0,15,10.2,15,30,0,19.8,0,0"></polyline><polyline points="15,10.2,30,0,30,19.8,15,30,15,10.2"></polyline></g><g stroke="#000" stroke-opacity="0.02" fill="#ddd" fill-opacity="0.02" stroke-width="1" transform="translate(60,84)"><polyline points="0,0,15,10.2,15,30,0,19.8,0,0"></polyline><polyline points="15,10.2,30,0,30,19.8,15,30,15,10.2"></polyline></g><g stroke="#000" stroke-opacity="0.02" fill="#ddd" fill-opacity="0.10666666666666667" stroke-width="1" transform="translate(90,84)"><polyline points="0,0,15,10.2,15,30,0,19.8,0,0"></polyline><polyline points="15,10.2,30,0,30,19.8,15,30,15,10.2"></polyline></g><g stroke="#000" stroke-opacity="0.02" fill="#ddd" fill-opacity="0.07200000000000001" stroke-width="1" transform="translate(120,84)"><polyline points="0,0,15,10.2,15,30,0,19.8,0,0"></polyline><polyline points="15,10.2,30,0,30,19.8,15,30,15,10.2"></polyline></g><g stroke="#000" stroke-opacity="0.02" fill="#222" fill-opacity="0.15" stroke-width="1" transform="translate(150,84)"><polyline points="0,0,15,10.2,15,30,0,19.8,0,0"></polyline><polyline points="15,10.2,30,0,30,19.8,15,30,15,10.2"></polyline></g></svg>