<svg xmlns="http://www.w3.org/2000/svg" width="446" height="446"><rect x="0" y="0" width="100%" height="100%" fill="rgb(64,60,147)"></rect><rect x="0" y="18" width="100%" height="7" opacity="0.03733333333333333" fill="#ddd"></rect><rect x="0" y="45" width="100%" height="7" opacity="0.03733333333333333" fill="#ddd"></rect><rect x="0" y="71" width="100%" height="11" opacity="0.07200000000000001" fill="#ddd"></rect><rect x="0" y="88" width="100%" height="5" opacity="0.02" fill="#ddd"></rect><rect x="0" y="110" width="100%" height="19" opacity="0.14133333333333334" fill="#ddd"></rect><rect x="0" y="142" width="100%" height="15" opacity="0.10666666666666667" fill="#ddd"></rect><rect x="0" y="177" width="100%" height="9" opacity="0.05466666666666667" fill="#ddd"></rect><rect x="0" y="196" width="100%" height="8" opacity="0.046" fill="#222"></rect><rect x="0" y="220" width="100%" height="5" opacity="0.02" fill="#ddd"></rect><rect x="0" y="231" width="100%" height="7" opacity="0.03733333333333333" fill="#ddd"></rect><rect x="0" y="250" width="100%" height="8" opacity="0.046" fill="#222"></rect><rect x="0" y="268" width="100%" height="18" opacity="0.13266666666666665" fill="#222"></rect><rect x="0" y="295" width="100%" height="5" opacity="0.02" fill="#ddd"></rect><rect x="0" y="318" width="100%" height="18" opacity="0.13266666666666665" fill="#222"></rect><rect x="0" y="352" width="100%" height="11" opacity="0.07200000000000001" fill="#ddd"></rect><rect x="0" y="380" width="100%" height="8" opacity="0.046" fill="#222"></rect><rect x="0" y="407" width="100%" height="16" opacity="0.11533333333333334" fill="#222"></rect><rect x="0" y="436" width="100%" height="10" opacity="0.06333333333333334" fill="#222"></rect><rect x="18" y="0" width="7" height="100%" opacity="0.03733333333333333" fill="#ddd"></rect><rect x="45" y="0" width="7" height="100%" opacity="0.03733333333333333" fill="#ddd"></rect><rect x="71" y="0" width="11" height="100%" opacity="0.07200000000000001" fill="#ddd"></rect><rect x="88" y="0" width="5" height="100%" opacity="0.02" fill="#ddd"></rect><rect x="110" y="0" width="19" height="100%" opacity="0.14133333333333334" fill="#ddd"></rect><rect x="142" y="0" width="15" height="100%" opacity="0.10666666666666667" fill="#ddd"></rect><rect x="177" y="0" width="9" height="100%" opacity="0.05466666666666667" fill="#ddd"></rect><rect x="196" y="0" width="8" height="100%" opacity="0.046" fill="#222"></rect><rect x="220" y="0" width="5" height="100%" opacity="0.02" fill="#ddd"></rect><rect x="231" y="0" width="7" height="100%" opacity="0.03733333333333333" fill="#ddd"></rect><rect x="250" y="0" width="8" height="100%" opacity="0.046" fill="#222"></rect><rect x="268" y="0" width="18" height="100%" opacity="0.13266666666666665" fill="#222"></rect><rect x="295" y="0" width="5" height="100%" opacity="0.02" fill="#ddd"></rect><rect x="318" y="0" width="18" height="100%" opacity="0.13266666666666665" fill="#222"></rect><rect x="352" y="0" width="11" height="100%" opacity="0.07200000000000001" fill="#ddd"></rect><rect x="380" y="0" width="8" height="100%" opacity="0.046" fill="#222"></rect><rect x="407" y="0" width="16" height="100%" opacity="0.11533333333333334" fill="#222"></rect><rect x="436" y="0" width="10" height="100%" opacity="0.06333333333333334" fill="#222"></rect></svg>