<svg xmlns="http://www.w3.org/2000/svg" width="360" height="936"><rect x="0" y="0" width="100%" height="100%" fill="rgb(50,157,87)"></rect><path d="M0 100 C 62.99999999999999 0, 117 0, 180 100 S 297 200, 360 100 S 477 0, 540, 100" fill="none" stroke="#222" opacity="0.13266666666666665" stroke-width="26px" transform="translate(-90,-150)"></path><path d="M0 100 C 62.99999999999999 0, 117 0, 180 100 S 297 200, 360 100 S 477 0, 540, 100" fill="none" stroke="#222" opacity="0.13266666666666665" stroke-width="26px" transform="translate(-90,786)"></path><path d="M0 100 C 62.99999999999999 0, 117 0, 180 100 S 297 200, 360 100 S 477 0, 540, 100" fill="none" stroke="#222" opacity="0.15" stroke-width="26px" transform="translate(-90,-124)"></path><path d="M0 100 C 62.99999999999999 0, 117 0, 180 100 S 297 200, 360 100 S 477 0, 540, 100" fill="none" stroke="#222" opacity="0.15" stroke-width="26px" transform="translate(-90,812)"></path><path d="M0 100 C 62.99999999999999 0, 117 0, 180 100 S 297 200, 360 100 S 477 0, 540, 100" fill="none" stroke="#222" opacity="0.13266666666666665" stroke-width="26px" transform="translate(-90,-98)"></path><path d="M0 100 C 62.99999999999999 0, 117 0, 180 100 S 297 200, 360 100 S 477 0, 540, 100" fill="none" stroke="#222" opacity="0.13266666666666665" stroke-width="26px" transform="translate(-90,838)"></path><path d="M0 100 C 62.99999999999999 0, 117 0, 180 100 S 297 200, 360 100 S 477 0, 540, 100" fill="none" stroke="#222" opacity="0.08066666666666666" stroke-width="26px" transform="translate(-90,-72)"></path><path d="M0 100 C 62.99999999999999 0, 117 0, 180 100 S 297 200, 360 100 S 477 0, 540, 100" fill="none" stroke="#222" opacity="0.08066666666666666" stroke-width="26px" transform="translate(-90,864)"></path><path d="M0 100 C 62.99999999999999 0, 117 0, 180 100 S 297 200, 360 100 S 477 0, 540, 100" fill="none" stroke="#222" opacity="0.15" stroke-width="26px" transform="translate(-90,-46)"></path><path d="M0 100 C 62.99999999999999 0, 117 0, 180 100 S 297 200, 360 100 S 477 0, 540, 100" fill="none" stroke="#222" opacity="0.15" stroke-width="26px" transform="translate(-90,890)"></path><path d="M0 100 C 62.99999999999999 0, 117 0, 180 100 S 297 200, 360 100 S 477 0, 540, 100" fill="none" stroke="#222" opacity="0.06333333333333334" stroke-width="26px" transform="translate(-90,-20)"></path><path d="M0 100 C 62.99999999999999 0, 117 0, 180 100 S 297 200, 360 100 S 477 0, 540, 100" fill="none" stroke="#222" opacity="0.06333333333333334" stroke-width="26px" transform="translate(-90,916)"></path><path d="M0 100 C 62.99999999999999 0, 117 0, 180 100 S 297 200, 360 100 S 477 0, 540, 100" fill="none" stroke="#ddd" opacity="0.02" stroke-width="26px" transform="translate(-90,6)"></path><path d="M0 100 C 62.99999999999999 0, 117 0, 180 100 S 297 200, 360 100 S 477 0, 540, 100" fill="none" stroke="#ddd" opacity="0.02" stroke-width="26px" transform="translate(-90,942)"></path><path d="M0 100 C 62.99999999999999 0, 117 0, 180 100 S 297 200, 360 100 S 477 0, 540, 100" fill="none" stroke="#ddd" opacity="0.07200000000000001" stroke-width="26px" transform="translate(-90,32)"></path><path d="M0 100 C 62.99999999999999 0, 117 0, 180 100 S 297 200, 360 100 S 477 0, 540, 100" fill="none" stroke="#ddd" opacity="0.07200000000000001" stroke-width="26px" transform="translate(-90,968)"></path><path d="M0 100 C 62.99999999999999 0, 117 0, 180 100 S 297 200, 360 100 S 477 0, 540, 100" fill="none" stroke="#222" opacity="0.028666666666666667" stroke-width="26px" transform="translate(-90,58)"></path><path d="M0 100 C 62.99999999999999 0, 117 0, 180 100 S 297 200, 360 100 S 477 0, 540, 100" fill="none" stroke="#222" opacity="0.028666666666666667" stroke-width="26px" transform="translate(-90,994)"></path><path d="M0 100 C 62.99999999999999 0, 117 0, 180 100 S 297 200, 360 100 S 477 0, 540, 100" fill="none" stroke="#222" opacity="0.13266666666666665" stroke-width="26px" transform="translate(-90,84)"></path><path d="M0 100 C 62.99999999999999 0, 117 0, 180 100 S 297 200, 360 100 S 477 0, 540, 100" fill="none" stroke="#222" opacity="0.13266666666666665" stroke-width="26px" transform="translate(-90,1020)"></path><path d="M0 100 C 62.99999999999999 0, 117 0, 180 100 S 297 200, 360 100 S 477 0, 540, 100" fill="none" stroke="#ddd" opacity="0.05466666666666667" stroke-width="26px" transform="translate(-90,110)"></path><path d="M0 100 C 62.99999999999999 0, 117 0, 180 100 S 297 200, 360 100 S 477 0, 540, 100" fill="none" stroke="#ddd" opacity="0.05466666666666667" stroke-width="26px" transform="translate(-90,1046)"></path><path d="M0 100 C 62.99999999999999 0, 117 0, 180 100 S 297 200, 360 100 S 477 0, 540, 100" fill="none" stroke="#ddd" opacity="0.12400000000000001" stroke-width="26px" transform="translate(-90,136)"></path><path d="M0 100 C 62.99999999999999 0, 117 0, 180 100 S 297 200, 360 100 S 477 0, 540, 100" fill="none" stroke="#ddd" opacity="0.12400000000000001" stroke-width="26px" transform="translate(-90,1072)"></path><path d="M0 100 C 62.99999999999999 0, 117 0, 180 100 S 297 200, 360 100 S 477 0, 540, 100" fill="none" stroke="#222" opacity="0.15" stroke-width="26px" transform="translate(-90,162)"></path><path d="M0 100 C 62.99999999999999 0, 117 0, 180 100 S 297 200, 360 100 S 477 0, 540, 100" fill="none" stroke="#222" opacity="0.15" stroke-width="26px" transform="translate(-90,1098)"></path><path d="M0 100 C 62.99999999999999 0, 117 0, 180 100 S 297 200, 360 100 S 477 0, 540, 100" fill="none" stroke="#222" opacity="0.06333333333333334" stroke-width="26px" transform="translate(-90,188)"></path><path d="M0 100 C 62.99999999999999 0, 117 0, 180 100 S 297 200, 360 100 S 477 0, 540, 100" fill="none" stroke="#222" opacity="0.06333333333333334" stroke-width="26px" transform="translate(-90,1124)"></path><path d="M0 100 C 62.99999999999999 0, 117 0, 180 100 S 297 200, 360 100 S 477 0, 540, 100" fill="none" stroke="#222" opacity="0.098" stroke-width="26px" transform="translate(-90,214)"></path><path d="M0 100 C 62.99999999999999 0, 117 0, 180 100 S 297 200, 360 100 S 477 0, 540, 100" fill="none" stroke="#222" opacity="0.098" stroke-width="26px" transform="translate(-90,1150)"></path><path d="M0 100 C 62.99999999999999 0, 117 0, 180 100 S 297 200, 360 100 S 477 0, 540, 100" fill="none" stroke="#ddd" opacity="0.12400000000000001" stroke-width="26px" transform="translate(-90,240)"></path><path d="M0 100 C 62.99999999999999 0, 117 0, 180 100 S 297 200, 360 100 S 477 0, 540, 100" fill="none" stroke="#ddd" opacity="0.12400000000000001" stroke-width="26px" transform="translate(-90,1176)"></path><path d="M0 100 C 62.99999999999999 0, 117 0, 180 100 S 297 200, 360 100 S 477 0, 540, 100" fill="none" stroke="#ddd" opacity="0.05466666666666667" stroke-width="26px" transform="translate(-90,266)"></path><path d="M0 100 C 62.99999999999999 0, 117 0, 180 100 S 297 200, 360 100 S 477 0, 540, 100" fill="none" stroke="#ddd" opacity="0.05466666666666667" stroke-width="26px" transform="translate(-90,1202)"></path><path d="M0 100 C 62.99999999999999 0, 117 0, 180 100 S 297 200, 360 100 S 477 0, 540, 100" fill="none" stroke="#ddd" opacity="0.10666666666666667" stroke-width="26px" transform="translate(-90,292)"></path><path d="M0 100 C 62.99999999999999 0, 117 0, 180 100 S 297 200, 360 100 S 477 0, 540, 100" fill="none" stroke="#ddd" opacity="0.10666666666666667" stroke-width="26px" transform="translate(-90,1228)"></path><path d="M0 100 C 62.99999999999999 0, 117 0, 180 100 S 297 200, 360 100 S 477 0, 540, 100" fill="none" stroke="#222" opacity="0.098" stroke-width="26px" transform="translate(-90,318)"></path><path d="M0 100 C 62.99999999999999 0, 117 0, 180 100 S 297 200, 360 100 S 477 0, 540, 100" fill="none" stroke="#222" opacity="0.098" stroke-width="26px" transform="translate(-90,1254)"></path><path d="M0 100 C 62.99999999999999 0, 117 0, 180 100 S 297 200, 360 100 S 477 0, 540, 100" fill="none" stroke="#ddd" opacity="0.05466666666666667" stroke-width="26px" transform="translate(-90,344)"></path><path d="M0 100 C 62.99999999999999 0, 117 0, 180 100 S 297 200, 360 100 S 477 0, 540, 100" fill="none" stroke="#ddd" opacity="0.05466666666666667" stroke-width="26px" transform="translate(-90,1280)"></path><path d="M0 100 C 62.99999999999999 0, 117 0, 180 100 S 297 200, 360 100 S 477 0, 540, 100" fill="none" stroke="#ddd" opacity="0.05466666666666667" stroke-width="26px" transform="translate(-90,370)"></path><path d="M0 100 C 62.99999999999999 0, 117 0, 180 100 S 297 200, 360 100 S 477 0, 540, 100" fill="none" stroke="#ddd" opacity="0.05466666666666667" stroke-width="26px" transform="translate(-90,1306)"></path><path d="M0 100 C 62.99999999999999 0, 117 0, 180 100 S 297 200, 360 100 S 477 0, 540, 100" fill="none" stroke="#222" opacity="0.15" stroke-width="26px" transform="translate(-90,396)"></path><path d="M0 100 C 62.99999999999999 0, 117 0, 180 100 S 297 200, 360 100 S 477 0, 540, 100" fill="none" stroke="#222" opacity="0.15" stroke-width="26px" transform="translate(-90,1332)"></path><path d="M0 100 C 62.99999999999999 0, 117 0, 180 100 S 297 200, 360 100 S 477 0, 540, 100" fill="none" stroke="#ddd" opacity="0.03733333333333333" stroke-width="26px" transform="translate(-90,422)"></path><path d="M0 100 C 62.99999999999999 0, 117 0, 180 100 S 297 200, 360 100 S 477 0, 540, 100" fill="none" stroke="#ddd" opacity="0.03733333333333333" stroke-width="26px" transform="translate(-90,1358)"></path><path d="M0 100 C 62.99999999999999 0, 117 0, 180 100 S 297 200, 360 100 S 477 0, 540, 100" fill="none" stroke="#222" opacity="0.15" stroke-width="26px" transform="translate(-90,448)"></path><path d="M0 100 C 62.99999999999999 0, 117 0, 180 100 S 297 200, 360 100 S 477 0, 540, 100" fill="none" stroke="#222" opacity="0.15" stroke-width="26px" transform="translate(-90,1384)"></path><path d="M0 100 C 62.99999999999999 0, 117 0, 180 100 S 297 200, 360 100 S 477 0, 540, 100" fill="none" stroke="#ddd" opacity="0.08933333333333333" stroke-width="26px" transform="translate(-90,474)"></path><path d="M0 100 C 62.99999999999999 0, 117 0, 180 100 S 297 200, 360 100 S 477 0, 540, 100" fill="none" stroke="#ddd" opacity="0.08933333333333333" stroke-width="26px" transform="translate(-90,1410)"></path><path d="M0 100 C 62.99999999999999 0, 117 0, 180 100 S 297 200, 360 100 S 477 0, 540, 100" fill="none" stroke="#222" opacity="0.098" stroke-width="26px" transform="translate(-90,500)"></path><path d="M0 100 C 62.99999999999999 0, 117 0, 180 100 S 297 200, 360 100 S 477 0, 540, 100" fill="none" stroke="#222" opacity="0.098" stroke-width="26px" transform="translate(-90,1436)"></path><path d="M0 100 C 62.99999999999999 0, 117 0, 180 100 S 297 200, 360 100 S 477 0, 540, 100" fill="none" stroke="#222" opacity="0.13266666666666665" stroke-width="26px" transform="translate(-90,526)"></path><path d="M0 100 C 62.99999999999999 0, 117 0, 180 100 S 297 200, 360 100 S 477 0, 540, 100" fill="none" stroke="#222" opacity="0.13266666666666665" stroke-width="26px" transform="translate(-90,1462)"></path><path d="M0 100 C 62.99999999999999 0, 117 0, 180 100 S 297 200, 360 100 S 477 0, 540, 100" fill="none" stroke="#222" opacity="0.15" stroke-width="26px" transform="translate(-90,552)"></path><path d="M0 100 C 62.99999999999999 0, 117 0, 180 100 S 297 200, 360 100 S 477 0, 540, 100" fill="none" stroke="#222" opacity="0.15" stroke-width="26px" transform="translate(-90,1488)"></path><path d="M0 100 C 62.99999999999999 0, 117 0, 180 100 S 297 200, 360 100 S 477 0, 540, 100" fill="none" stroke="#ddd" opacity="0.07200000000000001" stroke-width="26px" transform="translate(-90,578)"></path><path d="M0 100 C 62.99999999999999 0, 117 0, 180 100 S 297 200, 360 100 S 477 0, 540, 100" fill="none" stroke="#ddd" opacity="0.07200000000000001" stroke-width="26px" transform="translate(-90,1514)"></path><path d="M0 100 C 62.99999999999999 0, 117 0, 180 100 S 297 200, 360 100 S 477 0, 540, 100" fill="none" stroke="#222" opacity="0.028666666666666667" stroke-width="26px" transform="translate(-90,604)"></path><path d="M0 100 C 62.99999999999999 0, 117 0, 180 100 S 297 200, 360 100 S 477 0, 540, 100" fill="none" stroke="#222" opacity="0.028666666666666667" stroke-width="26px" transform="translate(-90,1540)"></path><path d="M0 100 C 62.99999999999999 0, 117 0, 180 100 S 297 200, 360 100 S 477 0, 540, 100" fill="none" stroke="#222" opacity="0.046" stroke-width="26px" transform="translate(-90,630)"></path><path d="M0 100 C 62.99999999999999 0, 117 0, 180 100 S 297 200, 360 100 S 477 0, 540, 100" fill="none" stroke="#222" opacity="0.046" stroke-width="26px" transform="translate(-90,1566)"></path><path d="M0 100 C 62.99999999999999 0, 117 0, 180 100 S 297 200, 360 100 S 477 0, 540, 100" fill="none" stroke="#222" opacity="0.08066666666666666" stroke-width="26px" transform="translate(-90,656)"></path><path d="M0 100 C 62.99999999999999 0, 117 0, 180 100 S 297 200, 360 100 S 477 0, 540, 100" fill="none" stroke="#222" opacity="0.08066666666666666" stroke-width="26px" transform="translate(-90,1592)"></path><path d="M0 100 C 62.99999999999999 0, 117 0, 180 100 S 297 200, 360 100 S 477 0, 540, 100" fill="none" stroke="#222" opacity="0.11533333333333334" stroke-width="26px" transform="translate(-90,682)"></path><path d="M0 100 C 62.99999999999999 0, 117 0, 180 100 S 297 200, 360 100 S 477 0, 540, 100" fill="none" stroke="#222" opacity="0.11533333333333334" stroke-width="26px" transform="translate(-90,1618)"></path><path d="M0 100 C 62.99999999999999 0, 117 0, 180 100 S 297 200, 360 100 S 477 0, 540, 100" fill="none" stroke="#222" opacity="0.028666666666666667" stroke-width="26px" transform="translate(-90,708)"></path><path d="M0 100 C 62.99999999999999 0, 117 0, 180 100 S 297 200, 360 100 S 477 0, 540, 100" fill="none" stroke="#222" opacity="0.028666666666666667" stroke-width="26px" transform="translate(-90,1644)"></path><path d="M0 100 C 62.99999999999999 0, 117 0, 180 100 S 297 200, 360 100 S 477 0, 540, 100" fill="none" stroke="#222" opacity="0.11533333333333334" stroke-width="26px" transform="translate(-90,734)"></path><path d="M0 100 C 62.99999999999999 0, 117 0, 180 100 S 297 200, 360 100 S 477 0, 540, 100" fill="none" stroke="#222" opacity="0.11533333333333334" stroke-width="26px" transform="translate(-90,1670)"></path><path d="M0 100 C 62.99999999999999 0, 117 0, 180 100 S 297 200, 360 100 S 477 0, 540, 100" fill="none" stroke="#ddd" opacity="0.02" stroke-width="26px" transform="translate(-90,760)"></path><path d="M0 100 C 62.99999999999999 0, 117 0, 180 100 S 297 200, 360 100 S 477 0, 540, 100" fill="none" stroke="#ddd" opacity="0.02" stroke-width="26px" transform="translate(-90,1696)"></path></svg>