<svg xmlns="http://www.w3.org/2000/svg" width="360" height="360"><rect x="0" y="0" width="100%" height="100%" fill="rgb(46,161,161)"></rect><circle cx="0" cy="0" r="52.5" fill="none" stroke="#222" opacity="0.15" stroke-width="15px"></circle><circle cx="360" cy="0" r="52.5" fill="none" stroke="#222" opacity="0.15" stroke-width="15px"></circle><circle cx="0" cy="360" r="52.5" fill="none" stroke="#222" opacity="0.15" stroke-width="15px"></circle><circle cx="360" cy="360" r="52.5" fill="none" stroke="#222" opacity="0.15" stroke-width="15px"></circle><circle cx="60" cy="0" r="52.5" fill="none" stroke="#222" opacity="0.06333333333333334" stroke-width="15px"></circle><circle cx="60" cy="360" r="52.5" fill="none" stroke="#222" opacity="0.06333333333333334" stroke-width="15px"></circle><circle cx="120" cy="0" r="52.5" fill="none" stroke="#222" opacity="0.13266666666666665" stroke-width="15px"></circle><circle cx="120" cy="360" r="52.5" fill="none" stroke="#222" opacity="0.13266666666666665" stroke-width="15px"></circle><circle cx="180" cy="0" r="52.5" fill="none" stroke="#222" opacity="0.08066666666666666" stroke-width="15px"></circle><circle cx="180" cy="360" r="52.5" fill="none" stroke="#222" opacity="0.08066666666666666" stroke-width="15px"></circle><circle cx="240" cy="0" r="52.5" fill="none" stroke="#ddd" opacity="0.08933333333333333" stroke-width="15px"></circle><circle cx="240" cy="360" r="52.5" fill="none" stroke="#ddd" opacity="0.08933333333333333" stroke-width="15px"></circle><circle cx="300" cy="0" r="52.5" fill="none" stroke="#222" opacity="0.046" stroke-width="15px"></circle><circle cx="300" cy="360" r="52.5" fill="none" stroke="#222" opacity="0.046" stroke-width="15px"></circle><circle cx="0" cy="60" r="52.5" fill="none" stroke="#222" opacity="0.046" stroke-width="15px"></circle><circle cx="360" cy="60" r="52.5" fill="none" stroke="#222" opacity="0.046" stroke-width="15px"></circle><circle cx="60" cy="60" r="52.5" fill="none" stroke="#ddd" opacity="0.14133333333333334" stroke-width="15px"></circle><circle cx="120" cy="60" r="52.5" fill="none" stroke="#222" opacity="0.028666666666666667" stroke-width="15px"></circle><circle cx="180" cy="60" r="52.5" fill="none" stroke="#ddd" opacity="0.02" stroke-width="15px"></circle><circle cx="240" cy="60" r="52.5" fill="none" stroke="#ddd" opacity="0.14133333333333334" stroke-width="15px"></circle><circle cx="300" cy="60" r="52.5" fill="none" stroke="#222" opacity="0.15" stroke-width="15px"></circle><circle cx="0" cy="120" r="52.5" fill="none" stroke="#222" opacity="0.13266666666666665" stroke-width="15px"></circle><circle cx="360" cy="120" r="52.5" fill="none" stroke="#222" opacity="0.13266666666666665" stroke-width="15px"></circle><circle cx="60" cy="120" r="52.5" fill="none" stroke="#222" opacity="0.098" stroke-width="15px"></circle><circle cx="120" cy="120" r="52.5" fill="none" stroke="#ddd" opacity="0.08933333333333333" stroke-width="15px"></circle><circle cx="180" cy="120" r="52.5" fill="none" stroke="#ddd" opacity="0.02" stroke-width="15px"></circle><circle cx="240" cy="120" r="52.5" fill="none" stroke="#ddd" opacity="0.05466666666666667" stroke-width="15px"></circle><circle cx="300" cy="120" r="52.5" fill="none" stroke="#ddd" opacity="0.14133333333333334" stroke-width="15px"></circle><circle cx="0" cy="180" r="52.5" fill="none" stroke="#222" opacity="0.13266666666666665" stroke-width="15px"></circle><circle cx="360" cy="180" r="52.5" fill="none" stroke="#222" opacity="0.13266666666666665" stroke-width="15px"></circle><circle cx="60" cy="180" r="52.5" fill="none" stroke="#ddd" opacity="0.14133333333333334" stroke-width="15px"></circle><circle cx="120" cy="180" r="52.5" fill="none" stroke="#ddd" opacity="0.07200000000000001" stroke-width="15px"></circle><circle cx="180" cy="180" r="52.5" fill="none" stroke="#ddd" opacity="0.02" stroke-width="15px"></circle><circle cx="240" cy="180" r="52.5" fill="none" stroke="#222" opacity="0.11533333333333334" stroke-width="15px"></circle><circle cx="300" cy="180" r="52.5" fill="none" stroke="#ddd" opacity="0.12400000000000001" stroke-width="15px"></circle><circle cx="0" cy="240" r="52.5" fill="none" stroke="#222" opacity="0.098" stroke-width="15px"></circle><circle cx="360" cy="240" r="52.5" fill="none" stroke="#222" opacity="0.098" stroke-width="15px"></circle><circle cx="60" cy="240" r="52.5" fill="none" stroke="#222" opacity="0.08066666666666666" stroke-width="15px"></circle><circle cx="120" cy="240" r="52.5" fill="none" stroke="#222" opacity="0.098" stroke-width="15px"></circle><circle cx="180" cy="240" r="52.5" fill="none" stroke="#ddd" opacity="0.12400000000000001" stroke-width="15px"></circle><circle cx="240" cy="240" r="52.5" fill="none" stroke="#222" opacity="0.06333333333333334" stroke-width="15px"></circle><circle cx="300" cy="240" r="52.5" fill="none" stroke="#222" opacity="0.06333333333333334" stroke-width="15px"></circle><circle cx="0" cy="300" r="52.5" fill="none" stroke="#ddd" opacity="0.05466666666666667" stroke-width="15px"></circle><circle cx="360" cy="300" r="52.5" fill="none" stroke="#ddd" opacity="0.05466666666666667" stroke-width="15px"></circle><circle cx="60" cy="300" r="52.5" fill="none" stroke="#222" opacity="0.06333333333333334" stroke-width="15px"></circle><circle cx="120" cy="300" r="52.5" fill="none" stroke="#ddd" opacity="0.03733333333333333" stroke-width="15px"></circle><circle cx="180" cy="300" r="52.5" fill="none" stroke="#ddd" opacity="0.02" stroke-width="15px"></circle><circle cx="240" cy="300" r="52.5" fill="none" stroke="#222" opacity="0.13266666666666665" stroke-width="15px"></circle><circle cx="300" cy="300" r="52.5" fill="none" stroke="#222" opacity="0.13266666666666665" stroke-width="15px"></circle></svg>