<svg xmlns="http://www.w3.org/2000/svg" width="96" height="96"><rect x="0" y="0" width="100%" height="100%" fill="rgb(157,93,50)"></rect><circle cx="8" cy="8" r="6.666666666666667" fill="none" stroke="#222" opacity="0.028666666666666667" stroke-width="2.666666666666667px"></circle><circle cx="8" cy="8" r="3.3333333333333335" fill="#ddd" fill-opacity="0.05466666666666667"></circle><circle cx="24" cy="8" r="6.666666666666667" fill="none" stroke="#222" opacity="0.15" stroke-width="2.666666666666667px"></circle><circle cx="24" cy="8" r="3.3333333333333335" fill="#222" fill-opacity="0.098"></circle><circle cx="40" cy="8" r="6.666666666666667" fill="none" stroke="#222" opacity="0.028666666666666667" stroke-width="2.666666666666667px"></circle><circle cx="40" cy="8" r="3.3333333333333335" fill="#222" fill-opacity="0.046"></circle><circle cx="56" cy="8" r="6.666666666666667" fill="none" stroke="#ddd" opacity="0.10666666666666667" stroke-width="2.666666666666667px"></circle><circle cx="56" cy="8" r="3.3333333333333335" fill="#ddd" fill-opacity="0.03733333333333333"></circle><circle cx="72" cy="8" r="6.666666666666667" fill="none" stroke="#ddd" opacity="0.05466666666666667" stroke-width="2.666666666666667px"></circle><circle cx="72" cy="8" r="3.3333333333333335" fill="#ddd" fill-opacity="0.08933333333333333"></circle><circle cx="88" cy="8" r="6.666666666666667" fill="none" stroke="#ddd" opacity="0.02" stroke-width="2.666666666666667px"></circle><circle cx="88" cy="8" r="3.3333333333333335" fill="#ddd" fill-opacity="0.03733333333333333"></circle><circle cx="8" cy="24" r="6.666666666666667" fill="none" stroke="#222" opacity="0.046" stroke-width="2.666666666666667px"></circle><circle cx="8" cy="24" r="3.3333333333333335" fill="#ddd" fill-opacity="0.05466666666666667"></circle><circle cx="24" cy="24" r="6.666666666666667" fill="none" stroke="#222" opacity="0.098" stroke-width="2.666666666666667px"></circle><circle cx="24" cy="24" r="3.3333333333333335" fill="#ddd" fill-opacity="0.03733333333333333"></circle><circle cx="40" cy="24" r="6.666666666666667" fill="none" stroke="#222" opacity="0.06333333333333334" stroke-width="2.666666666666667px"></circle><circle cx="40" cy="24" r="3.3333333333333335" fill="#222" fill-opacity="0.15"></circle><circle cx="56" cy="24" r="6.666666666666667" fill="none" stroke="#ddd" opacity="0.14133333333333334" stroke-width="2.666666666666667px"></circle><circle cx="56" cy="24" r="3.3333333333333335" fill="#222" fill-opacity="0.046"></circle><circle cx="72" cy="24" r="6.666666666666667" fill="none" stroke="#ddd" opacity="0.10666666666666667" stroke-width="2.666666666666667px"></circle><circle cx="72" cy="24" r="3.3333333333333335" fill="#ddd" fill-opacity="0.05466666666666667"></circle><circle cx="88" cy="24" r="6.666666666666667" fill="none" stroke="#ddd" opacity="0.10666666666666667" stroke-width="2.666666666666667px"></circle><circle cx="88" cy="24" r="3.3333333333333335" fill="#222" fill-opacity="0.098"></circle><circle cx="8" cy="40" r="6.666666666666667" fill="none" stroke="#222" opacity="0.13266666666666665" stroke-width="2.666666666666667px"></circle><circle cx="8" cy="40" r="3.3333333333333335" fill="#222" fill-opacity="0.098"></circle><circle cx="24" cy="40" r="6.666666666666667" fill="none" stroke="#ddd" opacity="0.14133333333333334" stroke-width="2.666666666666667px"></circle><circle cx="24" cy="40" r="3.3333333333333335" fill="#222" fill-opacity="0.028666666666666667"></circle><circle cx="40" cy="40" r="6.666666666666667" fill="none" stroke="#ddd" opacity="0.14133333333333334" stroke-width="2.666666666666667px"></circle><circle cx="40" cy="40" r="3.3333333333333335" fill="#222" fill-opacity="0.028666666666666667"></circle><circle cx="56" cy="40" r="6.666666666666667" fill="none" stroke="#222" opacity="0.15" stroke-width="2.666666666666667px"></circle><circle cx="56" cy="40" r="3.3333333333333335" fill="#222" fill-opacity="0.06333333333333334"></circle><circle cx="72" cy="40" r="6.666666666666667" fill="none" stroke="#ddd" opacity="0.05466666666666667" stroke-width="2.666666666666667px"></circle><circle cx="72" cy="40" r="3.3333333333333335" fill="#222" fill-opacity="0.098"></circle><circle cx="88" cy="40" r="6.666666666666667" fill="none" stroke="#ddd" opacity="0.10666666666666667" stroke-width="2.666666666666667px"></circle><circle cx="88" cy="40" r="3.3333333333333335" fill="#222" fill-opacity="0.046"></circle><circle cx="8" cy="56" r="6.666666666666667" fill="none" stroke="#ddd" opacity="0.08933333333333333" stroke-width="2.666666666666667px"></circle><circle cx="8" cy="56" r="3.3333333333333335" fill="#ddd" fill-opacity="0.03733333333333333"></circle><circle cx="24" cy="56" r="6.666666666666667" fill="none" stroke="#ddd" opacity="0.07200000000000001" stroke-width="2.666666666666667px"></circle><circle cx="24" cy="56" r="3.3333333333333335" fill="#ddd" fill-opacity="0.10666666666666667"></circle><circle cx="40" cy="56" r="6.666666666666667" fill="none" stroke="#ddd" opacity="0.10666666666666667" stroke-width="2.666666666666667px"></circle><circle cx="40" cy="56" r="3.3333333333333335" fill="#ddd" fill-opacity="0.07200000000000001"></circle><circle cx="56" cy="56" r="6.666666666666667" fill="none" stroke="#ddd" opacity="0.03733333333333333" stroke-width="2.666666666666667px"></circle><circle cx="56" cy="56" r="3.3333333333333335" fill="#ddd" fill-opacity="0.08933333333333333"></circle><circle cx="72" cy="56" r="6.666666666666667" fill="none" stroke="#222" opacity="0.046" stroke-width="2.666666666666667px"></circle><circle cx="72" cy="56" r="3.3333333333333335" fill="#ddd" fill-opacity="0.10666666666666667"></circle><circle cx="88" cy="56" r="6.666666666666667" fill="none" stroke="#222" opacity="0.098" stroke-width="2.666666666666667px"></circle><circle cx="88" cy="56" r="3.3333333333333335" fill="#ddd" fill-opacity="0.05466666666666667"></circle><circle cx="8" cy="72" r="6.666666666666667" fill="none" stroke="#222" opacity="0.06333333333333334" stroke-width="2.666666666666667px"></circle><circle cx="8" cy="72" r="3.3333333333333335" fill="#222" fill-opacity="0.15"></circle><circle cx="24" cy="72" r="6.666666666666667" fill="none" stroke="#222" opacity="0.028666666666666667" stroke-width="2.666666666666667px"></circle><circle cx="24" cy="72" r="3.3333333333333335" fill="#ddd" fill-opacity="0.14133333333333334"></circle><circle cx="40" cy="72" r="6.666666666666667" fill="none" stroke="#222" opacity="0.028666666666666667" stroke-width="2.666666666666667px"></circle><circle cx="40" cy="72" r="3.3333333333333335" fill="#ddd" fill-opacity="0.14133333333333334"></circle><circle cx="56" cy="72" r="6.666666666666667" fill="none" stroke="#222" opacity="0.098" stroke-width="2.666666666666667px"></circle><circle cx="56" cy="72" r="3.3333333333333335" fill="#222" fill-opacity="0.13266666666666665"></circle><circle cx="72" cy="72" r="6.666666666666667" fill="none" stroke="#222" opacity="0.098" stroke-width="2.666666666666667px"></circle><circle cx="72" cy="72" r="3.3333333333333335" fill="#ddd" fill-opacity="0.10666666666666667"></circle><circle cx="88" cy="72" r="6.666666666666667" fill="none" stroke="#ddd" opacity="0.05466666666666667" stroke-width="2.666666666666667px"></circle><circle cx="88" cy="72" r="3.3333333333333335" fill="#ddd" fill-opacity="0.10666666666666667"></circle><circle cx="8" cy="88" r="6.666666666666667" fill="none" stroke="#222" opacity="0.046" stroke-width="2.666666666666667px"></circle><circle cx="8" cy="88" r="3.3333333333333335" fill="#ddd" fill-opacity="0.14133333333333334"></circle><circle cx="24" cy="88" r="6.666666666666667" fill="none" stroke="#222" opacity="0.15" stroke-width="2.666666666666667px"></circle><circle cx="24" cy="88" r="3.3333333333333335" fill="#222" fill-opacity="0.06333333333333334"></circle><circle cx="40" cy="88" r="6.666666666666667" fill="none" stroke="#ddd" opacity="0.03733333333333333" stroke-width="2.666666666666667px"></circle><circle cx="40" cy="88" r="3.3333333333333335" fill="#222" fill-opacity="0.098"></circle><circle cx="56" cy="88" r="6.666666666666667" fill="none" stroke="#ddd" opacity="0.05466666666666667" stroke-width="2.666666666666667px"></circle><circle cx="56" cy="88" r="3.3333333333333335" fill="#222" fill-opacity="0.046"></circle><circle cx="72" cy="88" r="6.666666666666667" fill="none" stroke="#ddd" opacity="0.03733333333333333" stroke-width="2.666666666666667px"></circle><circle cx="72" cy="88" r="3.3333333333333335" fill="#ddd" fill-opacity="0.02"></circle><circle cx="88" cy="88" r="6.666666666666667" fill="none" stroke="#ddd" opacity="0.08933333333333333" stroke-width="2.666666666666667px"></circle><circle cx="88" cy="88" r="3.3333333333333335" fill="#ddd" fill-opacity="0.05466666666666667"></circle></svg>