<svg xmlns="http://www.w3.org/2000/svg" width="108" height="86"><rect x="0" y="0" width="100%" height="100%" fill="rgb(134,111,73)"></rect><polyline points="9,0,18,14.333333333333334,9,28.666666666666668,0,14.333333333333334" fill="#222" fill-opacity="0.046" stroke="#000" stroke-opacity="0.02" transform="translate(-9,-14.333333333333334)"></polyline><polyline points="9,0,18,14.333333333333334,9,28.666666666666668,0,14.333333333333334" fill="#222" fill-opacity="0.046" stroke="#000" stroke-opacity="0.02" transform="translate(99,-14.333333333333334)"></polyline><polyline points="9,0,18,14.333333333333334,9,28.666666666666668,0,14.333333333333334" fill="#222" fill-opacity="0.046" stroke="#000" stroke-opacity="0.02" transform="translate(-9,71.66666666666667)"></polyline><polyline points="9,0,18,14.333333333333334,9,28.666666666666668,0,14.333333333333334" fill="#222" fill-opacity="0.046" stroke="#000" stroke-opacity="0.02" transform="translate(99,71.66666666666667)"></polyline><polyline points="9,0,18,14.333333333333334,9,28.666666666666668,0,14.333333333333334" fill="#222" fill-opacity="0.08066666666666666" stroke="#000" stroke-opacity="0.02" transform="translate(9,-14.333333333333334)"></polyline><polyline points="9,0,18,14.333333333333334,9,28.666666666666668,0,14.333333333333334" fill="#222" fill-opacity="0.08066666666666666" stroke="#000" stroke-opacity="0.02" transform="translate(9,71.66666666666667)"></polyline><polyline points="9,0,18,14.333333333333334,9,28.666666666666668,0,14.333333333333334" fill="#222" fill-opacity="0.06333333333333334" stroke="#000" stroke-opacity="0.02" transform="translate(27,-14.333333333333334)"></polyline><polyline points="9,0,18,14.333333333333334,9,28.666666666666668,0,14.333333333333334" fill="#222" fill-opacity="0.06333333333333334" stroke="#000" stroke-opacity="0.02" transform="translate(27,71.66666666666667)"></polyline><polyline points="9,0,18,14.333333333333334,9,28.666666666666668,0,14.333333333333334" fill="#222" fill-opacity="0.046" stroke="#000" stroke-opacity="0.02" transform="translate(45,-14.333333333333334)"></polyline><polyline points="9,0,18,14.333333333333334,9,28.666666666666668,0,14.333333333333334" fill="#222" fill-opacity="0.046" stroke="#000" stroke-opacity="0.02" transform="translate(45,71.66666666666667)"></polyline><polyline points="9,0,18,14.333333333333334,9,28.666666666666668,0,14.333333333333334" fill="#222" fill-opacity="0.08066666666666666" stroke="#000" stroke-opacity="0.02" transform="translate(63,-14.333333333333334)"></polyline><polyline points="9,0,18,14.333333333333334,9,28.666666666666668,0,14.333333333333334" fill="#222" fill-opacity="0.08066666666666666" stroke="#000" stroke-opacity="0.02" transform="translate(63,71.66666666666667)"></polyline><polyline points="9,0,18,14.333333333333334,9,28.666666666666668,0,14.333333333333334" fill="#ddd" fill-opacity="0.08933333333333333" stroke="#000" stroke-opacity="0.02" transform="translate(81,-14.333333333333334)"></polyline><polyline points="9,0,18,14.333333333333334,9,28.666666666666668,0,14.333333333333334" fill="#ddd" fill-opacity="0.08933333333333333" stroke="#000" stroke-opacity="0.02" transform="translate(81,71.66666666666667)"></polyline><polyline points="9,0,18,14.333333333333334,9,28.666666666666668,0,14.333333333333334" fill="#ddd" fill-opacity="0.03733333333333333" stroke="#000" stroke-opacity="0.02" transform="translate(0,0)"></polyline><polyline points="9,0,18,14.333333333333334,9,28.666666666666668,0,14.333333333333334" fill="#ddd" fill-opacity="0.03733333333333333" stroke="#000" stroke-opacity="0.02" transform="translate(108,0)"></polyline><polyline points="9,0,18,14.333333333333334,9,28.666666666666668,0,14.333333333333334" fill="#222" fill-opacity="0.098" stroke="#000" stroke-opacity="0.02" transform="translate(18,0)"></polyline><polyline points="9,0,18,14.333333333333334,9,28.666666666666668,0,14.333333333333334" fill="#ddd" fill-opacity="0.12400000000000001" stroke="#000" stroke-opacity="0.02" transform="translate(36,0)"></polyline><polyline points="9,0,18,14.333333333333334,9,28.666666666666668,0,14.333333333333334" fill="#222" fill-opacity="0.098" stroke="#000" stroke-opacity="0.02" transform="translate(54,0)"></polyline><polyline points="9,0,18,14.333333333333334,9,28.666666666666668,0,14.333333333333334" fill="#222" fill-opacity="0.028666666666666667" stroke="#000" stroke-opacity="0.02" transform="translate(72,0)"></polyline><polyline points="9,0,18,14.333333333333334,9,28.666666666666668,0,14.333333333333334" fill="#ddd" fill-opacity="0.10666666666666667" stroke="#000" stroke-opacity="0.02" transform="translate(90,0)"></polyline><polyline points="9,0,18,14.333333333333334,9,28.666666666666668,0,14.333333333333334" fill="#222" fill-opacity="0.15" stroke="#000" stroke-opacity="0.02" transform="translate(-9,14.333333333333334)"></polyline><polyline points="9,0,18,14.333333333333334,9,28.666666666666668,0,14.333333333333334" fill="#222" fill-opacity="0.15" stroke="#000" stroke-opacity="0.02" transform="translate(99,14.333333333333334)"></polyline><polyline points="9,0,18,14.333333333333334,9,28.666666666666668,0,14.333333333333334" fill="#ddd" fill-opacity="0.10666666666666667" stroke="#000" stroke-opacity="0.02" transform="translate(9,14.333333333333334)"></polyline><polyline points="9,0,18,14.333333333333334,9,28.666666666666668,0,14.333333333333334" fill="#ddd" fill-opacity="0.14133333333333334" stroke="#000" stroke-opacity="0.02" transform="translate(27,14.333333333333334)"></polyline><polyline points="9,0,18,14.333333333333334,9,28.666666666666668,0,14.333333333333334" fill="#ddd" fill-opacity="0.07200000000000001" stroke="#000" stroke-opacity="0.02" transform="translate(45,14.333333333333334)"></polyline><polyline points="9,0,18,14.333333333333334,9,28.666666666666668,0,14.333333333333334" fill="#ddd" fill-opacity="0.03733333333333333" stroke="#000" stroke-opacity="0.02" transform="translate(63,14.333333333333334)"></polyline><polyline points="9,0,18,14.333333333333334,9,28.666666666666668,0,14.333333333333334" fill="#222" fill-opacity="0.13266666666666665" stroke="#000" stroke-opacity="0.02" transform="translate(81,14.333333333333334)"></polyline><polyline points="9,0,18,14.333333333333334,9,28.666666666666668,0,14.333333333333334" fill="#ddd" fill-opacity="0.07200000000000001" stroke="#000" stroke-opacity="0.02" transform="translate(0,28.666666666666664)"></polyline><polyline points="9,0,18,14.333333333333334,9,28.666666666666668,0,14.333333333333334" fill="#ddd" fill-opacity="0.07200000000000001" stroke="#000" stroke-opacity="0.02" transform="translate(108,28.666666666666664)"></polyline><polyline points="9,0,18,14.333333333333334,9,28.666666666666668,0,14.333333333333334" fill="#222" fill-opacity="0.08066666666666666" stroke="#000" stroke-opacity="0.02" transform="translate(18,28.666666666666664)"></polyline><polyline points="9,0,18,14.333333333333334,9,28.666666666666668,0,14.333333333333334" fill="#222" fill-opacity="0.11533333333333334" stroke="#000" stroke-opacity="0.02" transform="translate(36,28.666666666666664)"></polyline><polyline points="9,0,18,14.333333333333334,9,28.666666666666668,0,14.333333333333334" fill="#222" fill-opacity="0.028666666666666667" stroke="#000" stroke-opacity="0.02" transform="translate(54,28.666666666666664)"></polyline><polyline points="9,0,18,14.333333333333334,9,28.666666666666668,0,14.333333333333334" fill="#222" fill-opacity="0.08066666666666666" stroke="#000" stroke-opacity="0.02" transform="translate(72,28.666666666666664)"></polyline><polyline points="9,0,18,14.333333333333334,9,28.666666666666668,0,14.333333333333334" fill="#222" fill-opacity="0.046" stroke="#000" stroke-opacity="0.02" transform="translate(90,28.666666666666664)"></polyline><polyline points="9,0,18,14.333333333333334,9,28.666666666666668,0,14.333333333333334" fill="#ddd" fill-opacity="0.12400000000000001" stroke="#000" stroke-opacity="0.02" transform="translate(-9,43)"></polyline><polyline points="9,0,18,14.333333333333334,9,28.666666666666668,0,14.333333333333334" fill="#ddd" fill-opacity="0.12400000000000001" stroke="#000" stroke-opacity="0.02" transform="translate(99,43)"></polyline><polyline points="9,0,18,14.333333333333334,9,28.666666666666668,0,14.333333333333334" fill="#222" fill-opacity="0.13266666666666665" stroke="#000" stroke-opacity="0.02" transform="translate(9,43)"></polyline><polyline points="9,0,18,14.333333333333334,9,28.666666666666668,0,14.333333333333334" fill="#ddd" fill-opacity="0.12400000000000001" stroke="#000" stroke-opacity="0.02" transform="translate(27,43)"></polyline><polyline points="9,0,18,14.333333333333334,9,28.666666666666668,0,14.333333333333334" fill="#ddd" fill-opacity="0.03733333333333333" stroke="#000" stroke-opacity="0.02" transform="translate(45,43)"></polyline><polyline points="9,0,18,14.333333333333334,9,28.666666666666668,0,14.333333333333334" fill="#222" fill-opacity="0.028666666666666667" stroke="#000" stroke-opacity="0.02" transform="translate(63,43)"></polyline><polyline points="9,0,18,14.333333333333334,9,28.666666666666668,0,14.333333333333334" fill="#222" fill-opacity="0.13266666666666665" stroke="#000" stroke-opacity="0.02" transform="translate(81,43)"></polyline><polyline points="9,0,18,14.333333333333334,9,28.666666666666668,0,14.333333333333334" fill="#222" fill-opacity="0.15" stroke="#000" stroke-opacity="0.02" transform="translate(0,57.333333333333336)"></polyline><polyline points="9,0,18,14.333333333333334,9,28.666666666666668,0,14.333333333333334" fill="#222" fill-opacity="0.15" stroke="#000" stroke-opacity="0.02" transform="translate(108,57.333333333333336)"></polyline><polyline points="9,0,18,14.333333333333334,9,28.666666666666668,0,14.333333333333334" fill="#222" fill-opacity="0.046" stroke="#000" stroke-opacity="0.02" transform="translate(18,57.333333333333336)"></polyline><polyline points="9,0,18,14.333333333333334,9,28.666666666666668,0,14.333333333333334" fill="#ddd" fill-opacity="0.02" stroke="#000" stroke-opacity="0.02" transform="translate(36,57.333333333333336)"></polyline><polyline points="9,0,18,14.333333333333334,9,28.666666666666668,0,14.333333333333334" fill="#ddd" fill-opacity="0.05466666666666667" stroke="#000" stroke-opacity="0.02" transform="translate(54,57.333333333333336)"></polyline><polyline points="9,0,18,14.333333333333334,9,28.666666666666668,0,14.333333333333334" fill="#222" fill-opacity="0.028666666666666667" stroke="#000" stroke-opacity="0.02" transform="translate(72,57.333333333333336)"></polyline><polyline points="9,0,18,14.333333333333334,9,28.666666666666668,0,14.333333333333334" fill="#222" fill-opacity="0.15" stroke="#000" stroke-opacity="0.02" transform="translate(90,57.333333333333336)"></polyline></svg>