<svg xmlns="http://www.w3.org/2000/svg" width="380" height="1080"><rect x="0" y="0" width="100%" height="100%" fill="rgb(80,61,146)"></rect><path d="M0 44 C 66.5 0, 123.5 0, 190 44 S 313.5 88, 380 44 S 503.5 0, 570, 44" fill="none" stroke="#ddd" opacity="0.14133333333333334" stroke-width="30px" transform="translate(-95,-66)"></path><path d="M0 44 C 66.5 0, 123.5 0, 190 44 S 313.5 88, 380 44 S 503.5 0, 570, 44" fill="none" stroke="#ddd" opacity="0.14133333333333334" stroke-width="30px" transform="translate(-95,1014)"></path><path d="M0 44 C 66.5 0, 123.5 0, 190 44 S 313.5 88, 380 44 S 503.5 0, 570, 44" fill="none" stroke="#222" opacity="0.046" stroke-width="30px" transform="translate(-95,-36)"></path><path d="M0 44 C 66.5 0, 123.5 0, 190 44 S 313.5 88, 380 44 S 503.5 0, 570, 44" fill="none" stroke="#222" opacity="0.046" stroke-width="30px" transform="translate(-95,1044)"></path><path d="M0 44 C 66.5 0, 123.5 0, 190 44 S 313.5 88, 380 44 S 503.5 0, 570, 44" fill="none" stroke="#222" opacity="0.15" stroke-width="30px" transform="translate(-95,-6)"></path><path d="M0 44 C 66.5 0, 123.5 0, 190 44 S 313.5 88, 380 44 S 503.5 0, 570, 44" fill="none" stroke="#222" opacity="0.15" stroke-width="30px" transform="translate(-95,1074)"></path><path d="M0 44 C 66.5 0, 123.5 0, 190 44 S 313.5 88, 380 44 S 503.5 0, 570, 44" fill="none" stroke="#ddd" opacity="0.05466666666666667" stroke-width="30px" transform="translate(-95,24)"></path><path d="M0 44 C 66.5 0, 123.5 0, 190 44 S 313.5 88, 380 44 S 503.5 0, 570, 44" fill="none" stroke="#ddd" opacity="0.05466666666666667" stroke-width="30px" transform="translate(-95,1104)"></path><path d="M0 44 C 66.5 0, 123.5 0, 190 44 S 313.5 88, 380 44 S 503.5 0, 570, 44" fill="none" stroke="#222" opacity="0.06333333333333334" stroke-width="30px" transform="translate(-95,54)"></path><path d="M0 44 C 66.5 0, 123.5 0, 190 44 S 313.5 88, 380 44 S 503.5 0, 570, 44" fill="none" stroke="#222" opacity="0.06333333333333334" stroke-width="30px" transform="translate(-95,1134)"></path><path d="M0 44 C 66.5 0, 123.5 0, 190 44 S 313.5 88, 380 44 S 503.5 0, 570, 44" fill="none" stroke="#222" opacity="0.15" stroke-width="30px" transform="translate(-95,84)"></path><path d="M0 44 C 66.5 0, 123.5 0, 190 44 S 313.5 88, 380 44 S 503.5 0, 570, 44" fill="none" stroke="#222" opacity="0.15" stroke-width="30px" transform="translate(-95,1164)"></path><path d="M0 44 C 66.5 0, 123.5 0, 190 44 S 313.5 88, 380 44 S 503.5 0, 570, 44" fill="none" stroke="#222" opacity="0.098" stroke-width="30px" transform="translate(-95,114)"></path><path d="M0 44 C 66.5 0, 123.5 0, 190 44 S 313.5 88, 380 44 S 503.5 0, 570, 44" fill="none" stroke="#222" opacity="0.098" stroke-width="30px" transform="translate(-95,1194)"></path><path d="M0 44 C 66.5 0, 123.5 0, 190 44 S 313.5 88, 380 44 S 503.5 0, 570, 44" fill="none" stroke="#ddd" opacity="0.07200000000000001" stroke-width="30px" transform="translate(-95,144)"></path><path d="M0 44 C 66.5 0, 123.5 0, 190 44 S 313.5 88, 380 44 S 503.5 0, 570, 44" fill="none" stroke="#ddd" opacity="0.07200000000000001" stroke-width="30px" transform="translate(-95,1224)"></path><path d="M0 44 C 66.5 0, 123.5 0, 190 44 S 313.5 88, 380 44 S 503.5 0, 570, 44" fill="none" stroke="#ddd" opacity="0.14133333333333334" stroke-width="30px" transform="translate(-95,174)"></path><path d="M0 44 C 66.5 0, 123.5 0, 190 44 S 313.5 88, 380 44 S 503.5 0, 570, 44" fill="none" stroke="#ddd" opacity="0.14133333333333334" stroke-width="30px" transform="translate(-95,1254)"></path><path d="M0 44 C 66.5 0, 123.5 0, 190 44 S 313.5 88, 380 44 S 503.5 0, 570, 44" fill="none" stroke="#ddd" opacity="0.14133333333333334" stroke-width="30px" transform="translate(-95,204)"></path><path d="M0 44 C 66.5 0, 123.5 0, 190 44 S 313.5 88, 380 44 S 503.5 0, 570, 44" fill="none" stroke="#ddd" opacity="0.14133333333333334" stroke-width="30px" transform="translate(-95,1284)"></path><path d="M0 44 C 66.5 0, 123.5 0, 190 44 S 313.5 88, 380 44 S 503.5 0, 570, 44" fill="none" stroke="#ddd" opacity="0.05466666666666667" stroke-width="30px" transform="translate(-95,234)"></path><path d="M0 44 C 66.5 0, 123.5 0, 190 44 S 313.5 88, 380 44 S 503.5 0, 570, 44" fill="none" stroke="#ddd" opacity="0.05466666666666667" stroke-width="30px" transform="translate(-95,1314)"></path><path d="M0 44 C 66.5 0, 123.5 0, 190 44 S 313.5 88, 380 44 S 503.5 0, 570, 44" fill="none" stroke="#ddd" opacity="0.03733333333333333" stroke-width="30px" transform="translate(-95,264)"></path><path d="M0 44 C 66.5 0, 123.5 0, 190 44 S 313.5 88, 380 44 S 503.5 0, 570, 44" fill="none" stroke="#ddd" opacity="0.03733333333333333" stroke-width="30px" transform="translate(-95,1344)"></path><path d="M0 44 C 66.5 0, 123.5 0, 190 44 S 313.5 88, 380 44 S 503.5 0, 570, 44" fill="none" stroke="#222" opacity="0.046" stroke-width="30px" transform="translate(-95,294)"></path><path d="M0 44 C 66.5 0, 123.5 0, 190 44 S 313.5 88, 380 44 S 503.5 0, 570, 44" fill="none" stroke="#222" opacity="0.046" stroke-width="30px" transform="translate(-95,1374)"></path><path d="M0 44 C 66.5 0, 123.5 0, 190 44 S 313.5 88, 380 44 S 503.5 0, 570, 44" fill="none" stroke="#ddd" opacity="0.07200000000000001" stroke-width="30px" transform="translate(-95,324)"></path><path d="M0 44 C 66.5 0, 123.5 0, 190 44 S 313.5 88, 380 44 S 503.5 0, 570, 44" fill="none" stroke="#ddd" opacity="0.07200000000000001" stroke-width="30px" transform="translate(-95,1404)"></path><path d="M0 44 C 66.5 0, 123.5 0, 190 44 S 313.5 88, 380 44 S 503.5 0, 570, 44" fill="none" stroke="#ddd" opacity="0.05466666666666667" stroke-width="30px" transform="translate(-95,354)"></path><path d="M0 44 C 66.5 0, 123.5 0, 190 44 S 313.5 88, 380 44 S 503.5 0, 570, 44" fill="none" stroke="#ddd" opacity="0.05466666666666667" stroke-width="30px" transform="translate(-95,1434)"></path><path d="M0 44 C 66.5 0, 123.5 0, 190 44 S 313.5 88, 380 44 S 503.5 0, 570, 44" fill="none" stroke="#ddd" opacity="0.12400000000000001" stroke-width="30px" transform="translate(-95,384)"></path><path d="M0 44 C 66.5 0, 123.5 0, 190 44 S 313.5 88, 380 44 S 503.5 0, 570, 44" fill="none" stroke="#ddd" opacity="0.12400000000000001" stroke-width="30px" transform="translate(-95,1464)"></path><path d="M0 44 C 66.5 0, 123.5 0, 190 44 S 313.5 88, 380 44 S 503.5 0, 570, 44" fill="none" stroke="#222" opacity="0.028666666666666667" stroke-width="30px" transform="translate(-95,414)"></path><path d="M0 44 C 66.5 0, 123.5 0, 190 44 S 313.5 88, 380 44 S 503.5 0, 570, 44" fill="none" stroke="#222" opacity="0.028666666666666667" stroke-width="30px" transform="translate(-95,1494)"></path><path d="M0 44 C 66.5 0, 123.5 0, 190 44 S 313.5 88, 380 44 S 503.5 0, 570, 44" fill="none" stroke="#222" opacity="0.028666666666666667" stroke-width="30px" transform="translate(-95,444)"></path><path d="M0 44 C 66.5 0, 123.5 0, 190 44 S 313.5 88, 380 44 S 503.5 0, 570, 44" fill="none" stroke="#222" opacity="0.028666666666666667" stroke-width="30px" transform="translate(-95,1524)"></path><path d="M0 44 C 66.5 0, 123.5 0, 190 44 S 313.5 88, 380 44 S 503.5 0, 570, 44" fill="none" stroke="#ddd" opacity="0.10666666666666667" stroke-width="30px" transform="translate(-95,474)"></path><path d="M0 44 C 66.5 0, 123.5 0, 190 44 S 313.5 88, 380 44 S 503.5 0, 570, 44" fill="none" stroke="#ddd" opacity="0.10666666666666667" stroke-width="30px" transform="translate(-95,1554)"></path><path d="M0 44 C 66.5 0, 123.5 0, 190 44 S 313.5 88, 380 44 S 503.5 0, 570, 44" fill="none" stroke="#ddd" opacity="0.12400000000000001" stroke-width="30px" transform="translate(-95,504)"></path><path d="M0 44 C 66.5 0, 123.5 0, 190 44 S 313.5 88, 380 44 S 503.5 0, 570, 44" fill="none" stroke="#ddd" opacity="0.12400000000000001" stroke-width="30px" transform="translate(-95,1584)"></path><path d="M0 44 C 66.5 0, 123.5 0, 190 44 S 313.5 88, 380 44 S 503.5 0, 570, 44" fill="none" stroke="#ddd" opacity="0.05466666666666667" stroke-width="30px" transform="translate(-95,534)"></path><path d="M0 44 C 66.5 0, 123.5 0, 190 44 S 313.5 88, 380 44 S 503.5 0, 570, 44" fill="none" stroke="#ddd" opacity="0.05466666666666667" stroke-width="30px" transform="translate(-95,1614)"></path><path d="M0 44 C 66.5 0, 123.5 0, 190 44 S 313.5 88, 380 44 S 503.5 0, 570, 44" fill="none" stroke="#ddd" opacity="0.14133333333333334" stroke-width="30px" transform="translate(-95,564)"></path><path d="M0 44 C 66.5 0, 123.5 0, 190 44 S 313.5 88, 380 44 S 503.5 0, 570, 44" fill="none" stroke="#ddd" opacity="0.14133333333333334" stroke-width="30px" transform="translate(-95,1644)"></path><path d="M0 44 C 66.5 0, 123.5 0, 190 44 S 313.5 88, 380 44 S 503.5 0, 570, 44" fill="none" stroke="#222" opacity="0.15" stroke-width="30px" transform="translate(-95,594)"></path><path d="M0 44 C 66.5 0, 123.5 0, 190 44 S 313.5 88, 380 44 S 503.5 0, 570, 44" fill="none" stroke="#222" opacity="0.15" stroke-width="30px" transform="translate(-95,1674)"></path><path d="M0 44 C 66.5 0, 123.5 0, 190 44 S 313.5 88, 380 44 S 503.5 0, 570, 44" fill="none" stroke="#ddd" opacity="0.14133333333333334" stroke-width="30px" transform="translate(-95,624)"></path><path d="M0 44 C 66.5 0, 123.5 0, 190 44 S 313.5 88, 380 44 S 503.5 0, 570, 44" fill="none" stroke="#ddd" opacity="0.14133333333333334" stroke-width="30px" transform="translate(-95,1704)"></path><path d="M0 44 C 66.5 0, 123.5 0, 190 44 S 313.5 88, 380 44 S 503.5 0, 570, 44" fill="none" stroke="#ddd" opacity="0.14133333333333334" stroke-width="30px" transform="translate(-95,654)"></path><path d="M0 44 C 66.5 0, 123.5 0, 190 44 S 313.5 88, 380 44 S 503.5 0, 570, 44" fill="none" stroke="#ddd" opacity="0.14133333333333334" stroke-width="30px" transform="translate(-95,1734)"></path><path d="M0 44 C 66.5 0, 123.5 0, 190 44 S 313.5 88, 380 44 S 503.5 0, 570, 44" fill="none" stroke="#222" opacity="0.06333333333333334" stroke-width="30px" transform="translate(-95,684)"></path><path d="M0 44 C 66.5 0, 123.5 0, 190 44 S 313.5 88, 380 44 S 503.5 0, 570, 44" fill="none" stroke="#222" opacity="0.06333333333333334" stroke-width="30px" transform="translate(-95,1764)"></path><path d="M0 44 C 66.5 0, 123.5 0, 190 44 S 313.5 88, 380 44 S 503.5 0, 570, 44" fill="none" stroke="#222" opacity="0.06333333333333334" stroke-width="30px" transform="translate(-95,714)"></path><path d="M0 44 C 66.5 0, 123.5 0, 190 44 S 313.5 88, 380 44 S 503.5 0, 570, 44" fill="none" stroke="#222" opacity="0.06333333333333334" stroke-width="30px" transform="translate(-95,1794)"></path><path d="M0 44 C 66.5 0, 123.5 0, 190 44 S 313.5 88, 380 44 S 503.5 0, 570, 44" fill="none" stroke="#ddd" opacity="0.03733333333333333" stroke-width="30px" transform="translate(-95,744)"></path><path d="M0 44 C 66.5 0, 123.5 0, 190 44 S 313.5 88, 380 44 S 503.5 0, 570, 44" fill="none" stroke="#ddd" opacity="0.03733333333333333" stroke-width="30px" transform="translate(-95,1824)"></path><path d="M0 44 C 66.5 0, 123.5 0, 190 44 S 313.5 88, 380 44 S 503.5 0, 570, 44" fill="none" stroke="#222" opacity="0.098" stroke-width="30px" transform="translate(-95,774)"></path><path d="M0 44 C 66.5 0, 123.5 0, 190 44 S 313.5 88, 380 44 S 503.5 0, 570, 44" fill="none" stroke="#222" opacity="0.098" stroke-width="30px" transform="translate(-95,1854)"></path><path d="M0 44 C 66.5 0, 123.5 0, 190 44 S 313.5 88, 380 44 S 503.5 0, 570, 44" fill="none" stroke="#222" opacity="0.11533333333333334" stroke-width="30px" transform="translate(-95,804)"></path><path d="M0 44 C 66.5 0, 123.5 0, 190 44 S 313.5 88, 380 44 S 503.5 0, 570, 44" fill="none" stroke="#222" opacity="0.11533333333333334" stroke-width="30px" transform="translate(-95,1884)"></path><path d="M0 44 C 66.5 0, 123.5 0, 190 44 S 313.5 88, 380 44 S 503.5 0, 570, 44" fill="none" stroke="#222" opacity="0.046" stroke-width="30px" transform="translate(-95,834)"></path><path d="M0 44 C 66.5 0, 123.5 0, 190 44 S 313.5 88, 380 44 S 503.5 0, 570, 44" fill="none" stroke="#222" opacity="0.046" stroke-width="30px" transform="translate(-95,1914)"></path><path d="M0 44 C 66.5 0, 123.5 0, 190 44 S 313.5 88, 380 44 S 503.5 0, 570, 44" fill="none" stroke="#222" opacity="0.08066666666666666" stroke-width="30px" transform="translate(-95,864)"></path><path d="M0 44 C 66.5 0, 123.5 0, 190 44 S 313.5 88, 380 44 S 503.5 0, 570, 44" fill="none" stroke="#222" opacity="0.08066666666666666" stroke-width="30px" transform="translate(-95,1944)"></path><path d="M0 44 C 66.5 0, 123.5 0, 190 44 S 313.5 88, 380 44 S 503.5 0, 570, 44" fill="none" stroke="#222" opacity="0.15" stroke-width="30px" transform="translate(-95,894)"></path><path d="M0 44 C 66.5 0, 123.5 0, 190 44 S 313.5 88, 380 44 S 503.5 0, 570, 44" fill="none" stroke="#222" opacity="0.15" stroke-width="30px" transform="translate(-95,1974)"></path><path d="M0 44 C 66.5 0, 123.5 0, 190 44 S 313.5 88, 380 44 S 503.5 0, 570, 44" fill="none" stroke="#ddd" opacity="0.10666666666666667" stroke-width="30px" transform="translate(-95,924)"></path><path d="M0 44 C 66.5 0, 123.5 0, 190 44 S 313.5 88, 380 44 S 503.5 0, 570, 44" fill="none" stroke="#ddd" opacity="0.10666666666666667" stroke-width="30px" transform="translate(-95,2004)"></path><path d="M0 44 C 66.5 0, 123.5 0, 190 44 S 313.5 88, 380 44 S 503.5 0, 570, 44" fill="none" stroke="#ddd" opacity="0.12400000000000001" stroke-width="30px" transform="translate(-95,954)"></path><path d="M0 44 C 66.5 0, 123.5 0, 190 44 S 313.5 88, 380 44 S 503.5 0, 570, 44" fill="none" stroke="#ddd" opacity="0.12400000000000001" stroke-width="30px" transform="translate(-95,2034)"></path><path d="M0 44 C 66.5 0, 123.5 0, 190 44 S 313.5 88, 380 44 S 503.5 0, 570, 44" fill="none" stroke="#222" opacity="0.046" stroke-width="30px" transform="translate(-95,984)"></path><path d="M0 44 C 66.5 0, 123.5 0, 190 44 S 313.5 88, 380 44 S 503.5 0, 570, 44" fill="none" stroke="#222" opacity="0.046" stroke-width="30px" transform="translate(-95,2064)"></path></svg>