<svg xmlns="http://www.w3.org/2000/svg" width="216" height="216"><rect x="0" y="0" width="100%" height="100%" fill="rgb(71,95,136)"></rect><rect x="2" y="2" width="28" height="28" fill="none" stroke="#ddd" opacity="0.02" stroke-width="4px"></rect><rect x="10" y="10" width="12" height="12" fill="none" stroke="#ddd" opacity="0.10666666666666667" stroke-width="4px"></rect><rect x="38" y="2" width="28" height="28" fill="none" stroke="#222" opacity="0.15" stroke-width="4px"></rect><rect x="46" y="10" width="12" height="12" fill="none" stroke="#ddd" opacity="0.02" stroke-width="4px"></rect><rect x="74" y="2" width="28" height="28" fill="none" stroke="#ddd" opacity="0.02" stroke-width="4px"></rect><rect x="82" y="10" width="12" height="12" fill="none" stroke="#222" opacity="0.098" stroke-width="4px"></rect><rect x="110" y="2" width="28" height="28" fill="none" stroke="#ddd" opacity="0.07200000000000001" stroke-width="4px"></rect><rect x="118" y="10" width="12" height="12" fill="none" stroke="#222" opacity="0.13266666666666665" stroke-width="4px"></rect><rect x="146" y="2" width="28" height="28" fill="none" stroke="#ddd" opacity="0.03733333333333333" stroke-width="4px"></rect><rect x="154" y="10" width="12" height="12" fill="none" stroke="#222" opacity="0.028666666666666667" stroke-width="4px"></rect><rect x="182" y="2" width="28" height="28" fill="none" stroke="#222" opacity="0.15" stroke-width="4px"></rect><rect x="190" y="10" width="12" height="12" fill="none" stroke="#222" opacity="0.08066666666666666" stroke-width="4px"></rect><rect x="2" y="38" width="28" height="28" fill="none" stroke="#222" opacity="0.11533333333333334" stroke-width="4px"></rect><rect x="10" y="46" width="12" height="12" fill="none" stroke="#222" opacity="0.098" stroke-width="4px"></rect><rect x="38" y="38" width="28" height="28" fill="none" stroke="#222" opacity="0.098" stroke-width="4px"></rect><rect x="46" y="46" width="12" height="12" fill="none" stroke="#222" opacity="0.098" stroke-width="4px"></rect><rect x="74" y="38" width="28" height="28" fill="none" stroke="#222" opacity="0.11533333333333334" stroke-width="4px"></rect><rect x="82" y="46" width="12" height="12" fill="none" stroke="#ddd" opacity="0.08933333333333333" stroke-width="4px"></rect><rect x="110" y="38" width="28" height="28" fill="none" stroke="#222" opacity="0.08066666666666666" stroke-width="4px"></rect><rect x="118" y="46" width="12" height="12" fill="none" stroke="#ddd" opacity="0.03733333333333333" stroke-width="4px"></rect><rect x="146" y="38" width="28" height="28" fill="none" stroke="#222" opacity="0.13266666666666665" stroke-width="4px"></rect><rect x="154" y="46" width="12" height="12" fill="none" stroke="#222" opacity="0.046" stroke-width="4px"></rect><rect x="182" y="38" width="28" height="28" fill="none" stroke="#222" opacity="0.046" stroke-width="4px"></rect><rect x="190" y="46" width="12" height="12" fill="none" stroke="#ddd" opacity="0.02" stroke-width="4px"></rect><rect x="2" y="74" width="28" height="28" fill="none" stroke="#222" opacity="0.046" stroke-width="4px"></rect><rect x="10" y="82" width="12" height="12" fill="none" stroke="#222" opacity="0.08066666666666666" stroke-width="4px"></rect><rect x="38" y="74" width="28" height="28" fill="none" stroke="#ddd" opacity="0.14133333333333334" stroke-width="4px"></rect><rect x="46" y="82" width="12" height="12" fill="none" stroke="#ddd" opacity="0.12400000000000001" stroke-width="4px"></rect><rect x="74" y="74" width="28" height="28" fill="none" stroke="#ddd" opacity="0.07200000000000001" stroke-width="4px"></rect><rect x="82" y="82" width="12" height="12" fill="none" stroke="#ddd" opacity="0.12400000000000001" stroke-width="4px"></rect><rect x="110" y="74" width="28" height="28" fill="none" stroke="#222" opacity="0.06333333333333334" stroke-width="4px"></rect><rect x="118" y="82" width="12" height="12" fill="none" stroke="#222" opacity="0.06333333333333334" stroke-width="4px"></rect><rect x="146" y="74" width="28" height="28" fill="none" stroke="#ddd" opacity="0.07200000000000001" stroke-width="4px"></rect><rect x="154" y="82" width="12" height="12" fill="none" stroke="#222" opacity="0.11533333333333334" stroke-width="4px"></rect><rect x="182" y="74" width="28" height="28" fill="none" stroke="#222" opacity="0.11533333333333334" stroke-width="4px"></rect><rect x="190" y="82" width="12" height="12" fill="none" stroke="#ddd" opacity="0.07200000000000001" stroke-width="4px"></rect><rect x="2" y="110" width="28" height="28" fill="none" stroke="#222" opacity="0.098" stroke-width="4px"></rect><rect x="10" y="118" width="12" height="12" fill="none" stroke="#ddd" opacity="0.02" stroke-width="4px"></rect><rect x="38" y="110" width="28" height="28" fill="none" stroke="#ddd" opacity="0.03733333333333333" stroke-width="4px"></rect><rect x="46" y="118" width="12" height="12" fill="none" stroke="#222" opacity="0.13266666666666665" stroke-width="4px"></rect><rect x="74" y="110" width="28" height="28" fill="none" stroke="#222" opacity="0.13266666666666665" stroke-width="4px"></rect><rect x="82" y="118" width="12" height="12" fill="none" stroke="#ddd" opacity="0.03733333333333333" stroke-width="4px"></rect><rect x="110" y="110" width="28" height="28" fill="none" stroke="#ddd" opacity="0.02" stroke-width="4px"></rect><rect x="118" y="118" width="12" height="12" fill="none" stroke="#222" opacity="0.098" stroke-width="4px"></rect><rect x="146" y="110" width="28" height="28" fill="none" stroke="#ddd" opacity="0.07200000000000001" stroke-width="4px"></rect><rect x="154" y="118" width="12" height="12" fill="none" stroke="#222" opacity="0.11533333333333334" stroke-width="4px"></rect><rect x="182" y="110" width="28" height="28" fill="none" stroke="#222" opacity="0.11533333333333334" stroke-width="4px"></rect><rect x="190" y="118" width="12" height="12" fill="none" stroke="#ddd" opacity="0.07200000000000001" stroke-width="4px"></rect><rect x="2" y="146" width="28" height="28" fill="none" stroke="#222" opacity="0.06333333333333334" stroke-width="4px"></rect><rect x="10" y="154" width="12" height="12" fill="none" stroke="#222" opacity="0.06333333333333334" stroke-width="4px"></rect><rect x="38" y="146" width="28" height="28" fill="none" stroke="#ddd" opacity="0.12400000000000001" stroke-width="4px"></rect><rect x="46" y="154" width="12" height="12" fill="none" stroke="#ddd" opacity="0.07200000000000001" stroke-width="4px"></rect><rect x="74" y="146" width="28" height="28" fill="none" stroke="#ddd" opacity="0.12400000000000001" stroke-width="4px"></rect><rect x="82" y="154" width="12" height="12" fill="none" stroke="#ddd" opacity="0.14133333333333334" stroke-width="4px"></rect><rect x="110" y="146" width="28" height="28" fill="none" stroke="#222" opacity="0.08066666666666666" stroke-width="4px"></rect><rect x="118" y="154" width="12" height="12" fill="none" stroke="#222" opacity="0.046" stroke-width="4px"></rect><rect x="146" y="146" width="28" height="28" fill="none" stroke="#ddd" opacity="0.02" stroke-width="4px"></rect><rect x="154" y="154" width="12" height="12" fill="none" stroke="#222" opacity="0.046" stroke-width="4px"></rect><rect x="182" y="146" width="28" height="28" fill="none" stroke="#222" opacity="0.046" stroke-width="4px"></rect><rect x="190" y="154" width="12" height="12" fill="none" stroke="#222" opacity="0.13266666666666665" stroke-width="4px"></rect><rect x="2" y="182" width="28" height="28" fill="none" stroke="#ddd" opacity="0.03733333333333333" stroke-width="4px"></rect><rect x="10" y="190" width="12" height="12" fill="none" stroke="#222" opacity="0.08066666666666666" stroke-width="4px"></rect><rect x="38" y="182" width="28" height="28" fill="none" stroke="#ddd" opacity="0.08933333333333333" stroke-width="4px"></rect><rect x="46" y="190" width="12" height="12" fill="none" stroke="#222" opacity="0.11533333333333334" stroke-width="4px"></rect><rect x="74" y="182" width="28" height="28" fill="none" stroke="#222" opacity="0.098" stroke-width="4px"></rect><rect x="82" y="190" width="12" height="12" fill="none" stroke="#222" opacity="0.098" stroke-width="4px"></rect><rect x="110" y="182" width="28" height="28" fill="none" stroke="#222" opacity="0.098" stroke-width="4px"></rect><rect x="118" y="190" width="12" height="12" fill="none" stroke="#222" opacity="0.11533333333333334" stroke-width="4px"></rect><rect x="146" y="182" width="28" height="28" fill="none" stroke="#222" opacity="0.08066666666666666" stroke-width="4px"></rect><rect x="154" y="190" width="12" height="12" fill="none" stroke="#222" opacity="0.15" stroke-width="4px"></rect><rect x="182" y="182" width="28" height="28" fill="none" stroke="#222" opacity="0.028666666666666667" stroke-width="4px"></rect><rect x="190" y="190" width="12" height="12" fill="none" stroke="#ddd" opacity="0.03733333333333333" stroke-width="4px"></rect></svg>