<svg xmlns="http://www.w3.org/2000/svg" width="450" height="450"><rect x="0" y="0" width="100%" height="100%" fill="rgb(109,146,61)"></rect><rect x="0" y="16" width="100%" height="16" opacity="0.11533333333333334" fill="#222"></rect><rect x="0" y="51" width="100%" height="9" opacity="0.05466666666666667" fill="#ddd"></rect><rect x="0" y="70" width="100%" height="19" opacity="0.14133333333333334" fill="#ddd"></rect><rect x="0" y="105" width="100%" height="12" opacity="0.08066666666666666" fill="#222"></rect><rect x="0" y="129" width="100%" height="11" opacity="0.07200000000000001" fill="#ddd"></rect><rect x="0" y="145" width="100%" height="17" opacity="0.12400000000000001" fill="#ddd"></rect><rect x="0" y="176" width="100%" height="13" opacity="0.08933333333333333" fill="#ddd"></rect><rect x="0" y="206" width="100%" height="8" opacity="0.046" fill="#222"></rect><rect x="0" y="226" width="100%" height="6" opacity="0.028666666666666667" fill="#222"></rect><rect x="0" y="239" width="100%" height="19" opacity="0.14133333333333334" fill="#ddd"></rect><rect x="0" y="270" width="100%" height="10" opacity="0.06333333333333334" fill="#222"></rect><rect x="0" y="285" width="100%" height="15" opacity="0.10666666666666667" fill="#ddd"></rect><rect x="0" y="317" width="100%" height="6" opacity="0.028666666666666667" fill="#222"></rect><rect x="0" y="333" width="100%" height="14" opacity="0.098" fill="#222"></rect><rect x="0" y="357" width="100%" height="14" opacity="0.098" fill="#222"></rect><rect x="0" y="384" width="100%" height="8" opacity="0.046" fill="#222"></rect><rect x="0" y="405" width="100%" height="20" opacity="0.15" fill="#222"></rect><rect x="0" y="443" width="100%" height="7" opacity="0.03733333333333333" fill="#ddd"></rect><rect x="16" y="0" width="16" height="100%" opacity="0.11533333333333334" fill="#222"></rect><rect x="51" y="0" width="9" height="100%" opacity="0.05466666666666667" fill="#ddd"></rect><rect x="70" y="0" width="19" height="100%" opacity="0.14133333333333334" fill="#ddd"></rect><rect x="105" y="0" width="12" height="100%" opacity="0.08066666666666666" fill="#222"></rect><rect x="129" y="0" width="11" height="100%" opacity="0.07200000000000001" fill="#ddd"></rect><rect x="145" y="0" width="17" height="100%" opacity="0.12400000000000001" fill="#ddd"></rect><rect x="176" y="0" width="13" height="100%" opacity="0.08933333333333333" fill="#ddd"></rect><rect x="206" y="0" width="8" height="100%" opacity="0.046" fill="#222"></rect><rect x="226" y="0" width="6" height="100%" opacity="0.028666666666666667" fill="#222"></rect><rect x="239" y="0" width="19" height="100%" opacity="0.14133333333333334" fill="#ddd"></rect><rect x="270" y="0" width="10" height="100%" opacity="0.06333333333333334" fill="#222"></rect><rect x="285" y="0" width="15" height="100%" opacity="0.10666666666666667" fill="#ddd"></rect><rect x="317" y="0" width="6" height="100%" opacity="0.028666666666666667" fill="#222"></rect><rect x="333" y="0" width="14" height="100%" opacity="0.098" fill="#222"></rect><rect x="357" y="0" width="14" height="100%" opacity="0.098" fill="#222"></rect><rect x="384" y="0" width="8" height="100%" opacity="0.046" fill="#222"></rect><rect x="405" y="0" width="20" height="100%" opacity="0.15" fill="#222"></rect><rect x="443" y="0" width="7" height="100%" opacity="0.03733333333333333" fill="#ddd"></rect></svg>