<svg xmlns="http://www.w3.org/2000/svg" width="240" height="158"><rect x="0" y="0" width="100%" height="100%" fill="rgb(58,149,69)"></rect><g stroke="#000" stroke-opacity="0.02" fill="#222" fill-opacity="0.046" stroke-width="1" transform="translate(0,-20)"><polyline points="0,0,20,13.599999999999998,20,40,0,26.400000000000002,0,0"></polyline><polyline points="20,13.599999999999998,40,0,40,26.400000000000002,20,40,20,13.599999999999998"></polyline></g><g stroke="#000" stroke-opacity="0.02" fill="#222" fill-opacity="0.046" stroke-width="1" transform="translate(0,138.4)"><polyline points="0,0,20,13.599999999999998,20,40,0,26.400000000000002,0,0"></polyline><polyline points="20,13.599999999999998,40,0,40,26.400000000000002,20,40,20,13.599999999999998"></polyline></g><g stroke="#000" stroke-opacity="0.02" fill="#ddd" fill-opacity="0.03733333333333333" stroke-width="1" transform="translate(40,-20)"><polyline points="0,0,20,13.599999999999998,20,40,0,26.400000000000002,0,0"></polyline><polyline points="20,13.599999999999998,40,0,40,26.400000000000002,20,40,20,13.599999999999998"></polyline></g><g stroke="#000" stroke-opacity="0.02" fill="#ddd" fill-opacity="0.03733333333333333" stroke-width="1" transform="translate(40,138.4)"><polyline points="0,0,20,13.599999999999998,20,40,0,26.400000000000002,0,0"></polyline><polyline points="20,13.599999999999998,40,0,40,26.400000000000002,20,40,20,13.599999999999998"></polyline></g><g stroke="#000" stroke-opacity="0.02" fill="#ddd" fill-opacity="0.12400000000000001" stroke-width="1" transform="translate(80,-20)"><polyline points="0,0,20,13.599999999999998,20,40,0,26.400000000000002,0,0"></polyline><polyline points="20,13.599999999999998,40,0,40,26.400000000000002,20,40,20,13.599999999999998"></polyline></g><g stroke="#000" stroke-opacity="0.02" fill="#ddd" fill-opacity="0.12400000000000001" stroke-width="1" transform="translate(80,138.4)"><polyline points="0,0,20,13.599999999999998,20,40,0,26.400000000000002,0,0"></polyline><polyline points="20,13.599999999999998,40,0,40,26.400000000000002,20,40,20,13.599999999999998"></polyline></g><g stroke="#000" stroke-opacity="0.02" fill="#222" fill-opacity="0.06333333333333334" stroke-width="1" transform="translate(120,-20)"><polyline points="0,0,20,13.599999999999998,20,40,0,26.400000000000002,0,0"></polyline><polyline points="20,13.599999999999998,40,0,40,26.400000000000002,20,40,20,13.599999999999998"></polyline></g><g stroke="#000" stroke-opacity="0.02" fill="#222" fill-opacity="0.06333333333333334" stroke-width="1" transform="translate(120,138.4)"><polyline points="0,0,20,13.599999999999998,20,40,0,26.400000000000002,0,0"></polyline><polyline points="20,13.599999999999998,40,0,40,26.400000000000002,20,40,20,13.599999999999998"></polyline></g><g stroke="#000" stroke-opacity="0.02" fill="#ddd" fill-opacity="0.12400000000000001" stroke-width="1" transform="translate(160,-20)"><polyline points="0,0,20,13.599999999999998,20,40,0,26.400000000000002,0,0"></polyline><polyline points="20,13.599999999999998,40,0,40,26.400000000000002,20,40,20,13.599999999999998"></polyline></g><g stroke="#000" stroke-opacity="0.02" fill="#ddd" fill-opacity="0.12400000000000001" stroke-width="1" transform="translate(160,138.4)"><polyline points="0,0,20,13.599999999999998,20,40,0,26.400000000000002,0,0"></polyline><polyline points="20,13.599999999999998,40,0,40,26.400000000000002,20,40,20,13.599999999999998"></polyline></g><g stroke="#000" stroke-opacity="0.02" fill="#ddd" fill-opacity="0.02" stroke-width="1" transform="translate(200,-20)"><polyline points="0,0,20,13.599999999999998,20,40,0,26.400000000000002,0,0"></polyline><polyline points="20,13.599999999999998,40,0,40,26.400000000000002,20,40,20,13.599999999999998"></polyline></g><g stroke="#000" stroke-opacity="0.02" fill="#ddd" fill-opacity="0.02" stroke-width="1" transform="translate(200,138.4)"><polyline points="0,0,20,13.599999999999998,20,40,0,26.400000000000002,0,0"></polyline><polyline points="20,13.599999999999998,40,0,40,26.400000000000002,20,40,20,13.599999999999998"></polyline></g><g stroke="#000" stroke-opacity="0.02" fill="#222" fill-opacity="0.13266666666666665" stroke-width="1" transform="translate(0,6.400000000000002)"><polyline points="0,0,20,13.599999999999998,20,40,0,26.400000000000002,0,0"></polyline><polyline points="20,13.599999999999998,40,0,40,26.400000000000002,20,40,20,13.599999999999998"></polyline></g><g stroke="#000" stroke-opacity="0.02" fill="#ddd" fill-opacity="0.14133333333333334" stroke-width="1" transform="translate(40,6.400000000000002)"><polyline points="0,0,20,13.599999999999998,20,40,0,26.400000000000002,0,0"></polyline><polyline points="20,13.599999999999998,40,0,40,26.400000000000002,20,40,20,13.599999999999998"></polyline></g><g stroke="#000" stroke-opacity="0.02" fill="#222" fill-opacity="0.13266666666666665" stroke-width="1" transform="translate(80,6.400000000000002)"><polyline points="0,0,20,13.599999999999998,20,40,0,26.400000000000002,0,0"></polyline><polyline points="20,13.599999999999998,40,0,40,26.400000000000002,20,40,20,13.599999999999998"></polyline></g><g stroke="#000" stroke-opacity="0.02" fill="#222" fill-opacity="0.08066666666666666" stroke-width="1" transform="translate(120,6.400000000000002)"><polyline points="0,0,20,13.599999999999998,20,40,0,26.400000000000002,0,0"></polyline><polyline points="20,13.599999999999998,40,0,40,26.400000000000002,20,40,20,13.599999999999998"></polyline></g><g stroke="#000" stroke-opacity="0.02" fill="#222" fill-opacity="0.06333333333333334" stroke-width="1" transform="translate(160,6.400000000000002)"><polyline points="0,0,20,13.599999999999998,20,40,0,26.400000000000002,0,0"></polyline><polyline points="20,13.599999999999998,40,0,40,26.400000000000002,20,40,20,13.599999999999998"></polyline></g><g stroke="#000" stroke-opacity="0.02" fill="#ddd" fill-opacity="0.02" stroke-width="1" transform="translate(200,6.400000000000002)"><polyline points="0,0,20,13.599999999999998,20,40,0,26.400000000000002,0,0"></polyline><polyline points="20,13.599999999999998,40,0,40,26.400000000000002,20,40,20,13.599999999999998"></polyline></g><g stroke="#000" stroke-opacity="0.02" fill="#ddd" fill-opacity="0.05466666666666667" stroke-width="1" transform="translate(0,32.800000000000004)"><polyline points="0,0,20,13.599999999999998,20,40,0,26.400000000000002,0,0"></polyline><polyline points="20,13.599999999999998,40,0,40,26.400000000000002,20,40,20,13.599999999999998"></polyline></g><g stroke="#000" stroke-opacity="0.02" fill="#222" fill-opacity="0.11533333333333334" stroke-width="1" transform="translate(40,32.800000000000004)"><polyline points="0,0,20,13.599999999999998,20,40,0,26.400000000000002,0,0"></polyline><polyline points="20,13.599999999999998,40,0,40,26.400000000000002,20,40,20,13.599999999999998"></polyline></g><g stroke="#000" stroke-opacity="0.02" fill="#ddd" fill-opacity="0.10666666666666667" stroke-width="1" transform="translate(80,32.800000000000004)"><polyline points="0,0,20,13.599999999999998,20,40,0,26.400000000000002,0,0"></polyline><polyline points="20,13.599999999999998,40,0,40,26.400000000000002,20,40,20,13.599999999999998"></polyline></g><g stroke="#000" stroke-opacity="0.02" fill="#ddd" fill-opacity="0.07200000000000001" stroke-width="1" transform="translate(120,32.800000000000004)"><polyline points="0,0,20,13.599999999999998,20,40,0,26.400000000000002,0,0"></polyline><polyline points="20,13.599999999999998,40,0,40,26.400000000000002,20,40,20,13.599999999999998"></polyline></g><g stroke="#000" stroke-opacity="0.02" fill="#222" fill-opacity="0.028666666666666667" stroke-width="1" transform="translate(160,32.800000000000004)"><polyline points="0,0,20,13.599999999999998,20,40,0,26.400000000000002,0,0"></polyline><polyline points="20,13.599999999999998,40,0,40,26.400000000000002,20,40,20,13.599999999999998"></polyline></g><g stroke="#000" stroke-opacity="0.02" fill="#ddd" fill-opacity="0.03733333333333333" stroke-width="1" transform="translate(200,32.800000000000004)"><polyline points="0,0,20,13.599999999999998,20,40,0,26.400000000000002,0,0"></polyline><polyline points="20,13.599999999999998,40,0,40,26.400000000000002,20,40,20,13.599999999999998"></polyline></g><g stroke="#000" stroke-opacity="0.02" fill="#222" fill-opacity="0.028666666666666667" stroke-width="1" transform="translate(0,59.2)"><polyline points="0,0,20,13.599999999999998,20,40,0,26.400000000000002,0,0"></polyline><polyline points="20,13.599999999999998,40,0,40,26.400000000000002,20,40,20,13.599999999999998"></polyline></g><g stroke="#000" stroke-opacity="0.02" fill="#222" fill-opacity="0.08066666666666666" stroke-width="1" transform="translate(40,59.2)"><polyline points="0,0,20,13.599999999999998,20,40,0,26.400000000000002,0,0"></polyline><polyline points="20,13.599999999999998,40,0,40,26.400000000000002,20,40,20,13.599999999999998"></polyline></g><g stroke="#000" stroke-opacity="0.02" fill="#222" fill-opacity="0.15" stroke-width="1" transform="translate(80,59.2)"><polyline points="0,0,20,13.599999999999998,20,40,0,26.400000000000002,0,0"></polyline><polyline points="20,13.599999999999998,40,0,40,26.400000000000002,20,40,20,13.599999999999998"></polyline></g><g stroke="#000" stroke-opacity="0.02" fill="#ddd" fill-opacity="0.14133333333333334" stroke-width="1" transform="translate(120,59.2)"><polyline points="0,0,20,13.599999999999998,20,40,0,26.400000000000002,0,0"></polyline><polyline points="20,13.599999999999998,40,0,40,26.400000000000002,20,40,20,13.599999999999998"></polyline></g><g stroke="#000" stroke-opacity="0.02" fill="#222" fill-opacity="0.11533333333333334" stroke-width="1" transform="translate(160,59.2)"><polyline points="0,0,20,13.599999999999998,20,40,0,26.400000000000002,0,0"></polyline><polyline points="20,13.599999999999998,40,0,40,26.400000000000002,20,40,20,13.599999999999998"></polyline></g><g stroke="#000" stroke-opacity="0.02" fill="#ddd" fill-opacity="0.03733333333333333" stroke-width="1" transform="translate(200,59.2)"><polyline points="0,0,20,13.599999999999998,20,40,0,26.400000000000002,0,0"></polyline><polyline points="20,13.599999999999998,40,0,40,26.400000000000002,20,40,20,13.599999999999998"></polyline></g><g stroke="#000" stroke-opacity="0.02" fill="#222" fill-opacity="0.046" stroke-width="1" transform="translate(0,85.60000000000001)"><polyline points="0,0,20,13.599999999999998,20,40,0,26.400000000000002,0,0"></polyline><polyline points="20,13.599999999999998,40,0,40,26.400000000000002,20,40,20,13.599999999999998"></polyline></g><g stroke="#000" stroke-opacity="0.02" fill="#ddd" fill-opacity="0.14133333333333334" stroke-width="1" transform="translate(40,85.60000000000001)"><polyline points="0,0,20,13.599999999999998,20,40,0,26.400000000000002,0,0"></polyline><polyline points="20,13.599999999999998,40,0,40,26.400000000000002,20,40,20,13.599999999999998"></polyline></g><g stroke="#000" stroke-opacity="0.02" fill="#222" fill-opacity="0.13266666666666665" stroke-width="1" transform="translate(80,85.60000000000001)"><polyline points="0,0,20,13.599999999999998,20,40,0,26.400000000000002,0,0"></polyline><polyline points="20,13.599999999999998,40,0,40,26.400000000000002,20,40,20,13.599999999999998"></polyline></g><g stroke="#000" stroke-opacity="0.02" fill="#222" fill-opacity="0.06333333333333334" stroke-width="1" transform="translate(120,85.60000000000001)"><polyline points="0,0,20,13.599999999999998,20,40,0,26.400000000000002,0,0"></polyline><polyline points="20,13.599999999999998,40,0,40,26.400000000000002,20,40,20,13.599999999999998"></polyline></g><g stroke="#000" stroke-opacity="0.02" fill="#222" fill-opacity="0.028666666666666667" stroke-width="1" transform="translate(160,85.60000000000001)"><polyline points="0,0,20,13.599999999999998,20,40,0,26.400000000000002,0,0"></polyline><polyline points="20,13.599999999999998,40,0,40,26.400000000000002,20,40,20,13.599999999999998"></polyline></g><g stroke="#000" stroke-opacity="0.02" fill="#222" fill-opacity="0.098" stroke-width="1" transform="translate(200,85.60000000000001)"><polyline points="0,0,20,13.599999999999998,20,40,0,26.400000000000002,0,0"></polyline><polyline points="20,13.599999999999998,40,0,40,26.400000000000002,20,40,20,13.599999999999998"></polyline></g><g stroke="#000" stroke-opacity="0.02" fill="#ddd" fill-opacity="0.07200000000000001" stroke-width="1" transform="translate(0,112)"><polyline points="0,0,20,13.599999999999998,20,40,0,26.400000000000002,0,0"></polyline><polyline points="20,13.599999999999998,40,0,40,26.400000000000002,20,40,20,13.599999999999998"></polyline></g><g stroke="#000" stroke-opacity="0.02" fill="#222" fill-opacity="0.13266666666666665" stroke-width="1" transform="translate(40,112)"><polyline points="0,0,20,13.599999999999998,20,40,0,26.400000000000002,0,0"></polyline><polyline points="20,13.599999999999998,40,0,40,26.400000000000002,20,40,20,13.599999999999998"></polyline></g><g stroke="#000" stroke-opacity="0.02" fill="#222" fill-opacity="0.06333333333333334" stroke-width="1" transform="translate(80,112)"><polyline points="0,0,20,13.599999999999998,20,40,0,26.400000000000002,0,0"></polyline><polyline points="20,13.599999999999998,40,0,40,26.400000000000002,20,40,20,13.599999999999998"></polyline></g><g stroke="#000" stroke-opacity="0.02" fill="#ddd" fill-opacity="0.05466666666666667" stroke-width="1" transform="translate(120,112)"><polyline points="0,0,20,13.599999999999998,20,40,0,26.400000000000002,0,0"></polyline><polyline points="20,13.599999999999998,40,0,40,26.400000000000002,20,40,20,13.599999999999998"></polyline></g><g stroke="#000" stroke-opacity="0.02" fill="#ddd" fill-opacity="0.12400000000000001" stroke-width="1" transform="translate(160,112)"><polyline points="0,0,20,13.599999999999998,20,40,0,26.400000000000002,0,0"></polyline><polyline points="20,13.599999999999998,40,0,40,26.400000000000002,20,40,20,13.599999999999998"></polyline></g><g stroke="#000" stroke-opacity="0.02" fill="#222" fill-opacity="0.028666666666666667" stroke-width="1" transform="translate(200,112)"><polyline points="0,0,20,13.599999999999998,20,40,0,26.400000000000002,0,0"></polyline><polyline points="20,13.599999999999998,40,0,40,26.400000000000002,20,40,20,13.599999999999998"></polyline></g></svg>