<svg xmlns="http://www.w3.org/2000/svg" width="180" height="180"><rect x="0" y="0" width="100%" height="100%" fill="rgb(61,146,104)"></rect><g fill="#222" stroke="#000" stroke-opacity="0.02" fill-opacity="0.06333333333333334" transform="translate(-15,-22.5)"><rect x="15" y="0" width="15" height="45"></rect><rect x="0" y="15" width="45" height="15"></rect></g><g fill="#222" stroke="#000" stroke-opacity="0.02" fill-opacity="0.06333333333333334" transform="translate(165,-22.5)"><rect x="15" y="0" width="15" height="45"></rect><rect x="0" y="15" width="45" height="15"></rect></g><g fill="#222" stroke="#000" stroke-opacity="0.02" fill-opacity="0.06333333333333334" transform="translate(-15,157.5)"><rect x="15" y="0" width="15" height="45"></rect><rect x="0" y="15" width="45" height="15"></rect></g><g fill="#222" stroke="#000" stroke-opacity="0.02" fill-opacity="0.06333333333333334" transform="translate(165,157.5)"><rect x="15" y="0" width="15" height="45"></rect><rect x="0" y="15" width="45" height="15"></rect></g><g fill="#ddd" stroke="#000" stroke-opacity="0.02" fill-opacity="0.12400000000000001" transform="translate(15,-22.5)"><rect x="15" y="0" width="15" height="45"></rect><rect x="0" y="15" width="45" height="15"></rect></g><g fill="#ddd" stroke="#000" stroke-opacity="0.02" fill-opacity="0.12400000000000001" transform="translate(15,157.5)"><rect x="15" y="0" width="15" height="45"></rect><rect x="0" y="15" width="45" height="15"></rect></g><g fill="#222" stroke="#000" stroke-opacity="0.02" fill-opacity="0.028666666666666667" transform="translate(45,-22.5)"><rect x="15" y="0" width="15" height="45"></rect><rect x="0" y="15" width="45" height="15"></rect></g><g fill="#222" stroke="#000" stroke-opacity="0.02" fill-opacity="0.028666666666666667" transform="translate(45,157.5)"><rect x="15" y="0" width="15" height="45"></rect><rect x="0" y="15" width="45" height="15"></rect></g><g fill="#ddd" stroke="#000" stroke-opacity="0.02" fill-opacity="0.12400000000000001" transform="translate(75,-22.5)"><rect x="15" y="0" width="15" height="45"></rect><rect x="0" y="15" width="45" height="15"></rect></g><g fill="#ddd" stroke="#000" stroke-opacity="0.02" fill-opacity="0.12400000000000001" transform="translate(75,157.5)"><rect x="15" y="0" width="15" height="45"></rect><rect x="0" y="15" width="45" height="15"></rect></g><g fill="#ddd" stroke="#000" stroke-opacity="0.02" fill-opacity="0.02" transform="translate(105,-22.5)"><rect x="15" y="0" width="15" height="45"></rect><rect x="0" y="15" width="45" height="15"></rect></g><g fill="#ddd" stroke="#000" stroke-opacity="0.02" fill-opacity="0.02" transform="translate(105,157.5)"><rect x="15" y="0" width="15" height="45"></rect><rect x="0" y="15" width="45" height="15"></rect></g><g fill="#ddd" stroke="#000" stroke-opacity="0.02" fill-opacity="0.07200000000000001" transform="translate(135,-22.5)"><rect x="15" y="0" width="15" height="45"></rect><rect x="0" y="15" width="45" height="15"></rect></g><g fill="#ddd" stroke="#000" stroke-opacity="0.02" fill-opacity="0.07200000000000001" transform="translate(135,157.5)"><rect x="15" y="0" width="15" height="45"></rect><rect x="0" y="15" width="45" height="15"></rect></g><g fill="#ddd" stroke="#000" stroke-opacity="0.02" fill-opacity="0.08933333333333333" transform="translate(0,7.5)"><rect x="15" y="0" width="15" height="45"></rect><rect x="0" y="15" width="45" height="15"></rect></g><g fill="#ddd" stroke="#000" stroke-opacity="0.02" fill-opacity="0.08933333333333333" transform="translate(180,7.5)"><rect x="15" y="0" width="15" height="45"></rect><rect x="0" y="15" width="45" height="15"></rect></g><g fill="#222" stroke="#000" stroke-opacity="0.02" fill-opacity="0.028666666666666667" transform="translate(30,7.5)"><rect x="15" y="0" width="15" height="45"></rect><rect x="0" y="15" width="45" height="15"></rect></g><g fill="#222" stroke="#000" stroke-opacity="0.02" fill-opacity="0.11533333333333334" transform="translate(60,7.5)"><rect x="15" y="0" width="15" height="45"></rect><rect x="0" y="15" width="45" height="15"></rect></g><g fill="#ddd" stroke="#000" stroke-opacity="0.02" fill-opacity="0.14133333333333334" transform="translate(90,7.5)"><rect x="15" y="0" width="15" height="45"></rect><rect x="0" y="15" width="45" height="15"></rect></g><g fill="#222" stroke="#000" stroke-opacity="0.02" fill-opacity="0.08066666666666666" transform="translate(120,7.5)"><rect x="15" y="0" width="15" height="45"></rect><rect x="0" y="15" width="45" height="15"></rect></g><g fill="#222" stroke="#000" stroke-opacity="0.02" fill-opacity="0.13266666666666665" transform="translate(150,7.5)"><rect x="15" y="0" width="15" height="45"></rect><rect x="0" y="15" width="45" height="15"></rect></g><g fill="#222" stroke="#000" stroke-opacity="0.02" fill-opacity="0.08066666666666666" transform="translate(-15,37.5)"><rect x="15" y="0" width="15" height="45"></rect><rect x="0" y="15" width="45" height="15"></rect></g><g fill="#222" stroke="#000" stroke-opacity="0.02" fill-opacity="0.08066666666666666" transform="translate(165,37.5)"><rect x="15" y="0" width="15" height="45"></rect><rect x="0" y="15" width="45" height="15"></rect></g><g fill="#ddd" stroke="#000" stroke-opacity="0.02" fill-opacity="0.05466666666666667" transform="translate(15,37.5)"><rect x="15" y="0" width="15" height="45"></rect><rect x="0" y="15" width="45" height="15"></rect></g><g fill="#222" stroke="#000" stroke-opacity="0.02" fill-opacity="0.098" transform="translate(45,37.5)"><rect x="15" y="0" width="15" height="45"></rect><rect x="0" y="15" width="45" height="15"></rect></g><g fill="#222" stroke="#000" stroke-opacity="0.02" fill-opacity="0.06333333333333334" transform="translate(75,37.5)"><rect x="15" y="0" width="15" height="45"></rect><rect x="0" y="15" width="45" height="15"></rect></g><g fill="#ddd" stroke="#000" stroke-opacity="0.02" fill-opacity="0.07200000000000001" transform="translate(105,37.5)"><rect x="15" y="0" width="15" height="45"></rect><rect x="0" y="15" width="45" height="15"></rect></g><g fill="#222" stroke="#000" stroke-opacity="0.02" fill-opacity="0.028666666666666667" transform="translate(135,37.5)"><rect x="15" y="0" width="15" height="45"></rect><rect x="0" y="15" width="45" height="15"></rect></g><g fill="#ddd" stroke="#000" stroke-opacity="0.02" fill-opacity="0.05466666666666667" transform="translate(0,67.5)"><rect x="15" y="0" width="15" height="45"></rect><rect x="0" y="15" width="45" height="15"></rect></g><g fill="#ddd" stroke="#000" stroke-opacity="0.02" fill-opacity="0.05466666666666667" transform="translate(180,67.5)"><rect x="15" y="0" width="15" height="45"></rect><rect x="0" y="15" width="45" height="15"></rect></g><g fill="#222" stroke="#000" stroke-opacity="0.02" fill-opacity="0.046" transform="translate(30,67.5)"><rect x="15" y="0" width="15" height="45"></rect><rect x="0" y="15" width="45" height="15"></rect></g><g fill="#ddd" stroke="#000" stroke-opacity="0.02" fill-opacity="0.03733333333333333" transform="translate(60,67.5)"><rect x="15" y="0" width="15" height="45"></rect><rect x="0" y="15" width="45" height="15"></rect></g><g fill="#ddd" stroke="#000" stroke-opacity="0.02" fill-opacity="0.05466666666666667" transform="translate(90,67.5)"><rect x="15" y="0" width="15" height="45"></rect><rect x="0" y="15" width="45" height="15"></rect></g><g fill="#ddd" stroke="#000" stroke-opacity="0.02" fill-opacity="0.14133333333333334" transform="translate(120,67.5)"><rect x="15" y="0" width="15" height="45"></rect><rect x="0" y="15" width="45" height="15"></rect></g><g fill="#222" stroke="#000" stroke-opacity="0.02" fill-opacity="0.11533333333333334" transform="translate(150,67.5)"><rect x="15" y="0" width="15" height="45"></rect><rect x="0" y="15" width="45" height="15"></rect></g><g fill="#ddd" stroke="#000" stroke-opacity="0.02" fill-opacity="0.08933333333333333" transform="translate(-15,97.5)"><rect x="15" y="0" width="15" height="45"></rect><rect x="0" y="15" width="45" height="15"></rect></g><g fill="#ddd" stroke="#000" stroke-opacity="0.02" fill-opacity="0.08933333333333333" transform="translate(165,97.5)"><rect x="15" y="0" width="15" height="45"></rect><rect x="0" y="15" width="45" height="15"></rect></g><g fill="#222" stroke="#000" stroke-opacity="0.02" fill-opacity="0.098" transform="translate(15,97.5)"><rect x="15" y="0" width="15" height="45"></rect><rect x="0" y="15" width="45" height="15"></rect></g><g fill="#ddd" stroke="#000" stroke-opacity="0.02" fill-opacity="0.02" transform="translate(45,97.5)"><rect x="15" y="0" width="15" height="45"></rect><rect x="0" y="15" width="45" height="15"></rect></g><g fill="#ddd" stroke="#000" stroke-opacity="0.02" fill-opacity="0.14133333333333334" transform="translate(75,97.5)"><rect x="15" y="0" width="15" height="45"></rect><rect x="0" y="15" width="45" height="15"></rect></g><g fill="#ddd" stroke="#000" stroke-opacity="0.02" fill-opacity="0.05466666666666667" transform="translate(105,97.5)"><rect x="15" y="0" width="15" height="45"></rect><rect x="0" y="15" width="45" height="15"></rect></g><g fill="#222" stroke="#000" stroke-opacity="0.02" fill-opacity="0.098" transform="translate(135,97.5)"><rect x="15" y="0" width="15" height="45"></rect><rect x="0" y="15" width="45" height="15"></rect></g><g fill="#ddd" stroke="#000" stroke-opacity="0.02" fill-opacity="0.08933333333333333" transform="translate(0,127.5)"><rect x="15" y="0" width="15" height="45"></rect><rect x="0" y="15" width="45" height="15"></rect></g><g fill="#ddd" stroke="#000" stroke-opacity="0.02" fill-opacity="0.08933333333333333" transform="translate(180,127.5)"><rect x="15" y="0" width="15" height="45"></rect><rect x="0" y="15" width="45" height="15"></rect></g><g fill="#222" stroke="#000" stroke-opacity="0.02" fill-opacity="0.13266666666666665" transform="translate(30,127.5)"><rect x="15" y="0" width="15" height="45"></rect><rect x="0" y="15" width="45" height="15"></rect></g><g fill="#222" stroke="#000" stroke-opacity="0.02" fill-opacity="0.06333333333333334" transform="translate(60,127.5)"><rect x="15" y="0" width="15" height="45"></rect><rect x="0" y="15" width="45" height="15"></rect></g><g fill="#222" stroke="#000" stroke-opacity="0.02" fill-opacity="0.06333333333333334" transform="translate(90,127.5)"><rect x="15" y="0" width="15" height="45"></rect><rect x="0" y="15" width="45" height="15"></rect></g><g fill="#ddd" stroke="#000" stroke-opacity="0.02" fill-opacity="0.14133333333333334" transform="translate(120,127.5)"><rect x="15" y="0" width="15" height="45"></rect><rect x="0" y="15" width="45" height="15"></rect></g><g fill="#ddd" stroke="#000" stroke-opacity="0.02" fill-opacity="0.08933333333333333" transform="translate(150,127.5)"><rect x="15" y="0" width="15" height="45"></rect><rect x="0" y="15" width="45" height="15"></rect></g></svg>